<?xml version="1.0" standalone="no"?>
<!DOCTYPE svg PUBLIC "-//W3C//DTD SVG 1.1//EN" "http://www.w3.org/Graphics/SVG/1.1/DTD/svg11.dtd" >
<svg xmlns="http://www.w3.org/2000/svg" xmlns:xlink="http://www.w3.org/1999/xlink" version="1.1">
<metadata>
Created by FontForge 20190801 at Mon Sep  5 16:29:40 2016
 By Jimmy Wärting
\251 2012 - 2016 by Stawix Ruecha &#38; Foundry. All rights reserved. @KASE27.
</metadata>
<defs>
<font id="SoinSansNeue-HeavyItalic" horiz-adv-x="500" >
  <font-face 
    font-family="Soin Sans Neue"
    font-weight="800"
    font-style="italic"
    font-stretch="normal"
    units-per-em="1000"
    panose-1="2 11 9 4 3 2 0 1 1 2"
    ascent="750"
    descent="-250"
    x-height="450"
    cap-height="700"
    bbox="-192 -262 1418 1065"
    underline-thickness="55"
    underline-position="-100"
    slope="-180"
    stemh="153"
    stemv="165"
    unicode-range="U+000D-FB02"
  />
<missing-glyph horiz-adv-x="560" 
d="M30 0v706h500v-706h-500zM302 353l184 -281v562zM257 353l-183 281v-562zM280 318l-180 -278h360zM100 666l180 -278l180 278h-360z" />
    <glyph glyph-name=".notdef" horiz-adv-x="560" 
d="M30 0v706h500v-706h-500zM302 353l184 -281v562zM257 353l-183 281v-562zM280 318l-180 -278h360zM100 666l180 -278l180 278h-360z" />
    <glyph glyph-name="nul" horiz-adv-x="0" 
 />
    <glyph glyph-name="space" unicode=" " horiz-adv-x="211" 
 />
    <glyph glyph-name="numbersign" unicode="#" horiz-adv-x="723" 
d="M106 421l21 119h115l58 160h140l-58 -160h119l58 160h140l-58 -160h84l-21 -119h-106l-51 -142h93l-21 -119h-115l-58 -160h-140l58 160h-119l-58 -160h-140l58 160h-85l22 119h106l51 142h-93zM339 421l-51 -142h119l51 142h-119z" />
    <glyph glyph-name="dollar" unicode="$" horiz-adv-x="664" 
d="M480 800l-18 -100c115 -26 178 -104 175 -198h-154c-3 40 -41 67 -111 67c-52 0 -120 -11 -120 -72c0 -39 30 -62 101 -73l68 -13c128 -23 189 -85 189 -180c0 -142 -115 -227 -273 -238l-16 -93h-116l16 98c-125 22 -195 100 -190 209h156c0 -46 32 -76 123 -76
c47 0 135 11 135 78c0 33 -30 61 -101 73l-69 13c-128 23 -185 92 -185 188c0 135 108 215 257 225l17 92h116z" />
    <glyph glyph-name="percent" unicode="%" horiz-adv-x="1015" 
d="M320 0h-137l535 700h137zM284 707c110 0 185 -77 185 -176c0 -118 -93 -213 -217 -213c-109 0 -184 77 -184 177c0 117 92 212 216 212zM261 429c50 0 87 42 87 92c0 44 -27 75 -73 75c-50 0 -87 -42 -87 -92c0 -44 27 -75 73 -75zM785 382c110 0 185 -77 185 -176
c0 -117 -93 -213 -217 -213c-109 0 -184 77 -184 177c0 117 92 212 216 212zM762 104c50 0 87 42 87 92c0 44 -27 75 -73 75c-50 0 -87 -42 -87 -92c0 -44 27 -75 73 -75z" />
    <glyph glyph-name="quoteright" unicode="&#x2019;" horiz-adv-x="280" 
d="M49 390l99 320h164l-139 -320h-124z" />
    <glyph glyph-name="parenleft" unicode="(" horiz-adv-x="442" 
d="M38 191c0 272 161 516 457 570l-25 -143c-188 -46 -274 -246 -274 -430c0 -136 61 -226 155 -249l-26 -143c-179 31 -287 193 -287 395z" />
    <glyph glyph-name="parenright" unicode=")" horiz-adv-x="444" 
d="M403 365c0 -271 -162 -516 -458 -569l25 143c189 46 274 245 274 429c0 137 -61 226 -154 250l25 143c180 -31 288 -194 288 -396z" />
    <glyph glyph-name="plus" unicode="+" horiz-adv-x="618" 
d="M324 25h-123l29 166h-165l21 119h165l30 166h123l-30 -166h166l-21 -119h-166z" />
    <glyph glyph-name="comma" unicode="," horiz-adv-x="271" 
d="M-45 -137l92 306h161l-135 -306h-118z" />
    <glyph glyph-name="hyphen" unicode="-" horiz-adv-x="405" 
d="M15 160l22 127h331l-22 -127h-331z" />
    <glyph glyph-name="period" unicode="." horiz-adv-x="271" 
d="M6 80c0 54 41 98 98 98c53 0 90 -37 90 -87c0 -54 -40 -99 -98 -99c-54 0 -90 38 -90 88z" />
    <glyph glyph-name="slash" unicode="/" horiz-adv-x="554" 
d="M660 800l-591 -900h-150l589 900h152z" />
    <glyph glyph-name="colon" unicode=":" horiz-adv-x="284" 
d="M13 80c0 54 41 98 98 98c53 0 90 -37 90 -87c0 -54 -40 -99 -98 -99c-54 0 -90 38 -90 88zM64 371c0 54 41 98 98 98c53 0 90 -37 90 -87c0 -54 -40 -99 -98 -99c-54 0 -90 38 -90 88z" />
    <glyph glyph-name="semicolon" unicode=";" horiz-adv-x="284" 
d="M64 371c0 54 41 98 98 98c53 0 90 -37 90 -87c0 -54 -40 -99 -98 -99c-54 0 -90 38 -90 88zM-46 -137l92 306h161l-135 -306h-118z" />
    <glyph glyph-name="less" unicode="&#x3c;" horiz-adv-x="618" 
d="M80 186l22 126l448 194l-26 -148l-271 -113l231 -113l-24 -139z" />
    <glyph glyph-name="equal" unicode="=" horiz-adv-x="618" 
d="M559 417l-21 -119h-454l21 119h454zM521 203l-21 -119h-454l21 119h454z" />
    <glyph glyph-name="greater" unicode="&#x3e;" horiz-adv-x="618" 
d="M525 312l-22 -126l-449 -193l26 147l271 114l-231 112l25 140z" />
    <glyph glyph-name="question" unicode="?" horiz-adv-x="607" 
d="M602 521c0 -129 -106 -194 -217 -219l-17 -66h-120l15 138c67 9 179 39 179 125c0 43 -35 75 -96 75c-80 0 -117 -44 -130 -107h-153c15 112 96 245 300 245c156 0 239 -86 239 -191zM185 80c0 54 42 98 98 98c54 0 91 -37 91 -87c0 -54 -41 -99 -99 -99
c-53 0 -90 38 -90 88z" />
    <glyph glyph-name="A" unicode="A" horiz-adv-x="766" 
d="M541 0l-32 143h-300l-81 -143h-169l418 701h159l171 -701h-166zM425 522l-133 -234h185z" />
    <glyph glyph-name="B" unicode="B" horiz-adv-x="696" 
d="M136 700h304c162 0 242 -76 242 -173c0 -83 -55 -153 -134 -174c54 -13 99 -68 99 -134c0 -152 -134 -219 -284 -219h-350zM223 285l-27 -151h170c62 0 117 19 117 86c0 42 -34 65 -109 65h-151zM273 565l-26 -145h154c58 0 113 17 113 83c0 41 -32 62 -101 62h-140z" />
    <glyph glyph-name="C" unicode="C" horiz-adv-x="818" 
d="M56 314c0 226 183 398 415 398c188 0 319 -125 323 -276h-161c-12 70 -75 123 -175 123c-129 0 -235 -97 -235 -235c0 -106 80 -183 188 -183c102 0 169 55 195 123h166c-36 -173 -185 -276 -376 -276c-200 0 -340 143 -340 326z" />
    <glyph glyph-name="D" unicode="D" horiz-adv-x="747" 
d="M715 390c0 -225 -182 -390 -409 -390h-293l123 700h248c200 0 331 -133 331 -310zM199 145h112c129 0 237 97 237 238c0 101 -64 172 -178 172h-99z" />
    <glyph glyph-name="E" unicode="E" horiz-adv-x="641" 
d="M543 0h-530l123 700h526l-25 -144h-366l-24 -132h340l-25 -144h-340l-24 -136h370z" />
    <glyph glyph-name="F" unicode="F" horiz-adv-x="622" 
d="M173 0h-160l123 700h522l-26 -145h-361l-29 -163h333l-25 -145h-333z" />
    <glyph glyph-name="G" unicode="G" horiz-adv-x="822" 
d="M415 136c91 0 170 47 195 136h-199l23 127h351c6 -267 -159 -411 -386 -411c-204 0 -343 138 -343 324c0 227 185 400 417 400c165 0 301 -109 312 -248h-166c-17 55 -61 98 -158 98c-133 0 -239 -100 -239 -238c0 -104 76 -188 193 -188z" />
    <glyph glyph-name="H" unicode="H" horiz-adv-x="751" 
d="M248 427h304l49 273h160l-123 -700h-160l48 277h-305l-48 -277h-160l123 700h160z" />
    <glyph glyph-name="I" unicode="I" horiz-adv-x="288" 
d="M297 700l-123 -700h-160l123 700h160z" />
    <glyph glyph-name="J" unicode="J" horiz-adv-x="608" 
d="M622 700l-80 -454c-31 -172 -130 -258 -289 -258c-171 0 -244 108 -239 239h156c-2 -54 24 -86 93 -86c62 0 107 35 124 132l75 427h160z" />
    <glyph glyph-name="K" unicode="K" horiz-adv-x="715" 
d="M777 700l-347 -313l238 -387h-184l-173 280l-106 -96l-32 -184h-160l123 700h160l-53 -301l333 301h201z" />
    <glyph glyph-name="L" unicode="L" horiz-adv-x="592" 
d="M519 0h-506l123 700h160l-98 -555h346z" />
    <glyph glyph-name="M" unicode="M" horiz-adv-x="912" 
d="M368 122l-120 315l-76 -437h-159l123 701h157l162 -411l312 411h155l-123 -701h-160l74 428l-227 -306h-118z" />
    <glyph glyph-name="N" unicode="N" horiz-adv-x="764" 
d="M136 701h151l248 -449l80 448h159l-124 -701h-151l-249 449l-78 -448h-159z" />
    <glyph glyph-name="O" unicode="O" horiz-adv-x="840" 
d="M471 712c195 0 336 -143 336 -326c0 -226 -189 -398 -415 -398c-196 0 -336 143 -336 326c0 226 188 398 415 398zM407 141c125 0 233 102 233 236c0 108 -76 182 -184 182c-124 0 -233 -102 -233 -235c0 -108 76 -183 184 -183z" />
    <glyph glyph-name="P" unicode="P" horiz-adv-x="687" 
d="M237 361h148c68 0 133 31 133 113c0 50 -42 82 -110 82h-137zM211 217l-38 -217h-160l123 700h300c167 0 249 -94 249 -214c0 -162 -131 -269 -303 -269h-171z" />
    <glyph glyph-name="R" unicode="R" horiz-adv-x="697" 
d="M212 223l-39 -223h-160l123 700h306c167 0 249 -92 249 -212c0 -128 -86 -221 -210 -253l135 -235h-173l-126 223h-105zM237 364h153c69 0 134 30 134 111c0 51 -42 81 -110 81h-143z" />
    <glyph glyph-name="S" unicode="S" horiz-adv-x="642" 
d="M301 130c47 0 128 11 128 78c0 33 -23 61 -94 74l-69 12c-129 23 -187 93 -187 190c0 145 124 227 289 227c169 0 259 -90 254 -207h-155c-2 40 -33 66 -104 66c-52 0 -121 -11 -121 -72c0 -39 31 -62 102 -74l68 -12c128 -24 182 -86 182 -182
c0 -154 -127 -241 -304 -241c-174 0 -277 86 -270 215h156c1 -46 34 -74 125 -74z" />
    <glyph glyph-name="T" unicode="T" horiz-adv-x="609" 
d="M664 700l-25 -145h-208l-97 -555h-159l97 555h-207l26 145h573z" />
    <glyph glyph-name="U" unicode="U" horiz-adv-x="736" 
d="M333 -12c-180 0 -308 103 -273 299l73 413h161l-71 -400c-20 -110 24 -161 120 -161c93 0 157 47 176 158l72 403h159l-74 -415c-35 -203 -164 -297 -343 -297z" />
    <glyph glyph-name="V" unicode="V" horiz-adv-x="747" 
d="M258 700l100 -491l274 491h180l-408 -701h-162l-160 701h176z" />
    <glyph glyph-name="W" unicode="W" horiz-adv-x="1121" 
d="M715 700l63 -475l234 475h167l-354 -701h-172l-59 476l-230 -476h-167l-109 701h171l64 -472l233 472h159z" />
    <glyph glyph-name="X" unicode="X" horiz-adv-x="726" 
d="M784 700l-309 -347l192 -353h-187l-125 233l-205 -233h-191l316 355l-187 345h187l118 -225l200 225h191z" />
    <glyph glyph-name="Y" unicode="Y" horiz-adv-x="721" 
d="M257 700l120 -296l224 296h187l-354 -447l-44 -253h-159l44 250l-197 450h179z" />
    <glyph glyph-name="Z" unicode="Z" horiz-adv-x="663" 
d="M594 144l-25 -144h-576l20 114l431 442h-352l26 144h571l-20 -115l-430 -441h355z" />
    <glyph glyph-name="bracketleft" unicode="[" horiz-adv-x="405" 
d="M149 752h307l-24 -137h-152l-119 -674h152l-24 -136h-306z" />
    <glyph glyph-name="backslash" unicode="\" horiz-adv-x="554" 
d="M225 800l274 -900h-146l-274 900h146z" />
    <glyph glyph-name="bracketright" unicode="]" horiz-adv-x="405" 
d="M252 -195h-306l23 136h152l119 674h-152l24 137h307z" />
    <glyph glyph-name="quoteleft" unicode="&#x2018;" horiz-adv-x="279" 
d="M324 710l-99 -320h-163l138 320h124z" />
    <glyph glyph-name="a" unicode="a" horiz-adv-x="556" 
d="M14 202c0 137 103 260 237 260c59 0 106 -25 136 -68l10 56h138l-80 -450h-137l6 36c-32 -30 -72 -48 -117 -48c-116 0 -193 90 -193 214zM250 117c62 0 107 52 107 121c0 56 -36 95 -86 95c-62 0 -107 -51 -107 -122c0 -55 35 -94 86 -94z" />
    <glyph glyph-name="b" unicode="b" horiz-adv-x="556" 
d="M521 246c0 -137 -96 -258 -243 -258c-55 0 -101 24 -131 66l-9 -54h-137l123 700h143l-49 -275c31 23 70 37 116 37c115 0 187 -100 187 -216zM265 117c62 0 107 52 107 121c0 56 -37 95 -86 95c-62 0 -107 -51 -107 -122c0 -55 35 -94 86 -94z" />
    <glyph glyph-name="c" unicode="c" horiz-adv-x="529" 
d="M15 209c0 140 117 253 264 253c135 0 212 -99 216 -190h-142c-6 32 -33 58 -79 58c-65 0 -110 -51 -110 -119c0 -55 37 -91 90 -91c47 0 76 28 85 59h143c-15 -89 -94 -191 -237 -191c-133 0 -230 96 -230 221z" />
    <glyph glyph-name="d" unicode="d" horiz-adv-x="556" 
d="M14 202c0 137 103 260 237 260c56 0 102 -23 131 -61l53 299h143l-123 -700h-137l6 36c-32 -30 -72 -48 -117 -48c-114 0 -193 90 -193 214zM250 117c62 0 107 52 107 121c0 56 -36 95 -86 95c-62 0 -107 -51 -107 -122c0 -55 35 -94 86 -94z" />
    <glyph glyph-name="e" unicode="e" horiz-adv-x="522" 
d="M234 -12c-121 0 -219 93 -219 217c0 142 109 257 257 257c127 0 214 -90 214 -200c0 -29 -5 -56 -15 -80h-315c7 -48 41 -77 91 -77c41 0 69 15 80 43h134c-24 -78 -95 -160 -227 -160zM269 345c-50 0 -85 -31 -102 -75h182c-3 49 -38 75 -80 75z" />
    <glyph glyph-name="f" unicode="f" horiz-adv-x="370" 
d="M47 450h75l12 69c24 136 81 191 199 191c37 0 85 -7 102 -12l-22 -125c-15 3 -36 4 -54 4c-51 0 -76 -25 -87 -85l-8 -42h115l-23 -126h-114l-56 -324h-143l57 324h-75z" />
    <glyph glyph-name="g" unicode="g" horiz-adv-x="556" 
d="M320 13l6 33c-32 -26 -71 -41 -118 -41c-114 0 -193 92 -193 206c0 133 97 251 237 251c55 0 104 -25 135 -67l10 55h137l-78 -444c-22 -128 -107 -218 -252 -218c-153 0 -218 87 -219 176h138c1 -33 24 -56 82 -56c73 0 104 35 115 105zM251 129c62 0 106 49 106 116
c0 53 -36 91 -85 91c-62 0 -107 -49 -107 -117c0 -52 35 -90 86 -90z" />
    <glyph glyph-name="h" unicode="h" horiz-adv-x="545" 
d="M345 462c109 0 169 -83 147 -212l-44 -250h-143l42 242c9 56 -13 89 -63 89c-52 0 -89 -36 -99 -96l-41 -235h-143l123 700h143l-51 -288c30 28 73 50 129 50z" />
    <glyph glyph-name="i" unicode="i" horiz-adv-x="245" 
d="M223 450l-79 -450h-143l79 450h143zM92 592c0 49 38 89 90 89c47 0 82 -34 82 -79c0 -50 -38 -91 -90 -91c-49 0 -82 36 -82 81z" />
    <glyph glyph-name="j" unicode="j" horiz-adv-x="249" 
d="M1 -22l83 472h143l-88 -504c-18 -98 -60 -168 -175 -168c-28 0 -68 4 -88 9l22 127c10 -1 26 -2 37 -2c38 0 57 16 66 66zM95 592c0 49 39 89 90 89c48 0 82 -34 82 -79c0 -50 -37 -91 -89 -91c-49 0 -83 36 -83 81z" />
    <glyph glyph-name="k" unicode="k" horiz-adv-x="522" 
d="M552 450l-232 -193l155 -257h-156l-103 170l-50 -41l-22 -129h-143l123 700h143l-70 -394l172 144h183z" />
    <glyph glyph-name="l" unicode="l" horiz-adv-x="245" 
d="M267 700l-123 -700h-143l123 700h143z" />
    <glyph glyph-name="m" unicode="m" horiz-adv-x="841" 
d="M640 462c111 0 171 -82 148 -212l-44 -250h-144l42 242c10 56 -12 89 -60 89c-50 0 -87 -36 -97 -96l-41 -235h-144l42 242c10 56 -12 89 -60 89c-50 0 -87 -36 -97 -96l-41 -235h-143l78 450h138l-8 -45c29 30 74 57 134 57c61 0 108 -27 131 -75c39 44 97 75 166 75z
" />
    <glyph glyph-name="n" unicode="n" horiz-adv-x="545" 
d="M345 462c110 0 170 -82 147 -212l-44 -250h-143l42 242c9 56 -13 89 -63 89c-52 0 -89 -36 -99 -96l-41 -235h-143l78 450h138l-8 -45c29 30 75 57 136 57z" />
    <glyph glyph-name="o" unicode="o" horiz-adv-x="541" 
d="M278 462c132 0 228 -97 228 -218c0 -144 -120 -256 -263 -256c-133 0 -228 100 -228 220c0 144 119 254 263 254zM250 119c62 0 107 50 107 119c0 56 -36 94 -86 94c-62 0 -107 -50 -107 -121c0 -55 37 -92 86 -92z" />
    <glyph glyph-name="p" unicode="p" horiz-adv-x="556" 
d="M521 246c0 -137 -96 -258 -243 -258c-52 0 -96 21 -126 60l-47 -264h-143l117 666h138l-6 -30c33 26 74 42 123 42c115 0 187 -100 187 -216zM265 117c62 0 107 52 107 121c0 56 -37 95 -86 95c-62 0 -107 -51 -107 -122c0 -55 35 -94 86 -94z" />
    <glyph glyph-name="q" unicode="q" horiz-adv-x="556" 
d="M14 202c0 137 103 260 237 260c59 0 106 -25 136 -68l10 56h137l-118 -665l-143 -1l43 246c-31 -26 -68 -42 -109 -42c-114 0 -193 90 -193 214zM250 117c62 0 107 52 107 121c0 56 -36 95 -86 95c-62 0 -107 -51 -107 -122c0 -55 35 -94 86 -94z" />
    <glyph glyph-name="r" unicode="r" horiz-adv-x="375" 
d="M386 451l-24 -138c-11 3 -29 5 -45 5c-76 0 -126 -49 -138 -118l-35 -200h-143l78 450h138l-10 -55c31 34 80 59 141 59c12 0 31 -1 38 -3z" />
    <glyph glyph-name="s" unicode="s" horiz-adv-x="429" 
d="M183 98c25 0 56 7 56 38c0 22 -14 32 -57 39l-35 6c-76 14 -118 61 -118 125c0 92 82 156 193 156c132 0 180 -68 180 -148h-127c0 22 -17 38 -51 38c-22 0 -51 -7 -51 -36c0 -24 23 -33 64 -39l33 -5c73 -12 113 -54 113 -121c0 -102 -86 -162 -205 -162
c-122 0 -184 64 -184 149h129c0 -24 22 -40 60 -40z" />
    <glyph glyph-name="t" unicode="t" horiz-adv-x="411" 
d="M47 450h85l23 130h138l-23 -130h139l-23 -126h-138l-23 -129c-9 -52 12 -73 64 -73c21 0 49 4 66 9l-22 -126c-21 -7 -53 -15 -89 -15c-113 0 -189 48 -165 187l26 147h-80z" />
    <glyph glyph-name="u" unicode="u" horiz-adv-x="544" 
d="M178 -12c-109 0 -169 82 -146 212l44 250h144l-42 -241c-10 -56 12 -89 61 -89c53 0 89 36 99 96l41 234h144l-79 -450h-138l7 44c-29 -31 -74 -56 -135 -56z" />
    <glyph glyph-name="v" unicode="v" horiz-adv-x="529" 
d="M142 -1l-105 451h157l50 -278l149 278h157l-265 -451h-143z" />
    <glyph glyph-name="w" unicode="w" horiz-adv-x="821" 
d="M452 -1l-44 266l-143 -266h-137l-86 451h155l40 -263l148 263h132l40 -261l139 261h141l-245 -451h-140z" />
    <glyph glyph-name="x" unicode="x" horiz-adv-x="530" 
d="M543 450l-203 -225l129 -225h-161l-68 130l-112 -130h-166l207 229l-123 221h161l62 -125l108 125h166z" />
    <glyph glyph-name="y" unicode="y" horiz-adv-x="521" 
d="M196 450l56 -211l130 211h159l-420 -666h-157l187 292l-113 374h158z" />
    <glyph glyph-name="z" unicode="z" horiz-adv-x="479" 
d="M52 324l22 126h399l-18 -100l-248 -223h209l-22 -127h-409l16 99l250 225h-199z" />
    <glyph glyph-name="braceleft" unicode="{" horiz-adv-x="453" 
d="M22 218l23 132c75 0 111 41 119 117l5 51c17 155 85 234 271 234h62l-24 -137h-49c-68 0 -96 -31 -105 -95l-6 -51c-12 -107 -55 -164 -123 -185c60 -21 84 -78 58 -185l-12 -51c-15 -64 3 -95 71 -95h49l-24 -137h-62c-186 0 -225 79 -188 234l13 51
c19 76 -4 117 -78 117z" />
    <glyph glyph-name="bar" unicode="|" horiz-adv-x="328" 
d="M313 700l-152 -864h-152l152 864h152z" />
    <glyph glyph-name="braceright" unicode="}" horiz-adv-x="453" 
d="M431 350l-24 -132c-74 0 -111 -41 -119 -117l-5 -51c-16 -155 -85 -234 -270 -234h-62l23 137h50c68 0 96 31 104 95l6 51c13 107 56 164 124 185c-61 21 -84 78 -59 185l12 51c16 64 -3 95 -70 95h-50l24 137h63c185 0 225 -79 187 -234l-12 -51c-19 -76 3 -117 78 -117
z" />
    <glyph glyph-name="cent" unicode="&#xa2;" horiz-adv-x="664" 
d="M445 550l-18 -100c88 -29 138 -106 141 -178h-142c-6 32 -35 58 -82 58c-67 0 -114 -51 -114 -119c0 -55 39 -91 94 -91c49 0 79 28 88 59h143c-13 -83 -84 -176 -209 -189l-16 -90h-117l18 101c-90 31 -150 111 -150 208c0 128 99 233 230 250l17 91h117z" />
    <glyph glyph-name="sterling" unicode="&#xa3;" horiz-adv-x="664" 
d="M58 400h75l9 52c27 152 123 260 290 260c180 0 237 -119 227 -237h-151c6 56 -19 99 -86 99c-76 0 -114 -47 -130 -141l-6 -33h199l-22 -123h-199l-24 -138h358l-24 -139h-586l24 139h75l24 138h-75z" />
    <glyph glyph-name="yen" unicode="&#xa5;" horiz-adv-x="664" 
d="M64 226h178l4 19l-13 34h-160l19 105h103l-114 316h176l92 -300l197 300h184l-227 -316h105l-19 -105h-161l-22 -31l-4 -22h178l-19 -105h-178l-21 -121h-159l21 121h-179z" />
    <glyph glyph-name="currency" unicode="&#xa4;" horiz-adv-x="650" 
d="M144 579l58 -59c35 24 77 39 123 39s88 -15 122 -39l59 59l49 -49l-59 -59c25 -34 39 -76 39 -121c0 -46 -14 -88 -39 -122l59 -58l-49 -49l-59 58c-34 -24 -76 -38 -122 -38s-88 14 -123 38l-58 -58l-49 49l58 58c-24 34 -38 76 -38 122c0 45 14 87 38 121l-58 59z
M325 199c81 0 143 64 143 151s-62 151 -143 151s-143 -64 -143 -151s62 -151 143 -151z" />
    <glyph glyph-name="quotesingle" unicode="'" horiz-adv-x="281" 
d="M138 710h155l-71 -322h-127z" />
    <glyph glyph-name="quotedblleft" unicode="&#x201c;" horiz-adv-x="513" 
d="M324 710l-99 -320h-163l138 320h124zM557 710l-99 -320h-163l138 320h124z" />
    <glyph glyph-name="endash" unicode="&#x2013;" horiz-adv-x="484" 
d="M2 162l22 124h436l-22 -124h-436z" />
    <glyph glyph-name="quotesinglbase" unicode="&#x201a;" horiz-adv-x="280" 
d="M-46 -151l99 320h164l-139 -320h-124z" />
    <glyph glyph-name="quotedblbase" unicode="&#x201e;" horiz-adv-x="513" 
d="M-46 -151l99 320h164l-139 -320h-124zM186 -151l99 320h164l-139 -320h-124z" />
    <glyph glyph-name="quotedblright" unicode="&#x201d;" horiz-adv-x="513" 
d="M49 390l99 320h164l-139 -320h-124zM282 390l99 320h164l-139 -320h-124z" />
    <glyph glyph-name="perthousand" unicode="&#x2030;" horiz-adv-x="1463" 
d="M320 0h-137l535 700h137zM284 707c110 0 185 -77 185 -176c0 -118 -93 -213 -217 -213c-109 0 -184 77 -184 177c0 117 92 212 216 212zM261 429c50 0 87 42 87 92c0 44 -27 75 -73 75c-50 0 -87 -42 -87 -92c0 -44 27 -75 73 -75zM785 382c110 0 185 -77 185 -176
c0 -117 -93 -213 -217 -213c-109 0 -184 77 -184 177c0 117 92 212 216 212zM762 104c50 0 87 42 87 92c0 44 -27 75 -73 75c-50 0 -87 -42 -87 -92c0 -44 27 -75 73 -75zM1233 382c110 0 185 -77 185 -176c0 -117 -93 -213 -217 -213c-109 0 -184 77 -184 177
c0 117 92 212 216 212zM1210 104c50 0 87 42 87 92c0 44 -27 75 -73 75c-49 0 -87 -42 -87 -92c0 -44 27 -75 73 -75z" />
    <glyph glyph-name="circumflex" unicode="&#x2c6;" 
d="M246 676h138l98 -166h-128l-50 72l-74 -72h-133z" />
    <glyph glyph-name="tilde" unicode="&#x2dc;" 
d="M495 637c-23 -63 -65 -130 -138 -130c-50 0 -80 37 -117 37c-22 0 -35 -13 -45 -35l-86 18c23 63 65 130 137 130c51 0 82 -38 118 -38c23 0 35 13 47 36z" />
    <glyph glyph-name="macron" unicode="&#xaf;" 
d="M484 631l-20 -115h-347l21 115h346z" />
    <glyph glyph-name="breve" unicode="&#x2d8;" 
d="M302 508c-130 0 -170 87 -168 166h118c-2 -32 15 -56 56 -56c40 0 67 23 77 56h117c-16 -75 -73 -166 -200 -166z" />
    <glyph glyph-name="dotaccent" unicode="&#x2d9;" 
d="M218 589c0 49 39 90 90 90c48 0 82 -35 82 -80c0 -50 -37 -91 -89 -91c-49 0 -83 36 -83 81z" />
    <glyph glyph-name="hungarumlaut" unicode="&#x2dd;" 
d="M331 663l-144 -160l-72 46l112 182zM534 663l-144 -160l-72 46l112 182z" />
    <glyph glyph-name="caron" unicode="&#x2c7;" 
d="M363 510h-139l-98 166h128l50 -72l74 72h134z" />
    <glyph glyph-name="emdash" unicode="&#x2014;" horiz-adv-x="594" 
d="M-10 162l22 124h570l-22 -124h-570z" />
    <glyph glyph-name="AE" unicode="&#xc6;" horiz-adv-x="1123" 
d="M1145 700l-26 -144h-365l-24 -132h339l-25 -144h-339l-24 -136h369l-25 -144h-529l26 147h-264l-123 -147h-183l596 700h597zM378 290h169l45 255z" />
    <glyph glyph-name="Oslash" unicode="&#xd8;" horiz-adv-x="844" 
d="M472 712c83 0 156 -26 212 -70l84 73l70 -84l-80 -69c32 -51 50 -111 50 -176c0 -226 -188 -398 -414 -398c-83 0 -156 25 -213 69l-83 -72l-70 84l79 69c-32 50 -50 110 -50 176c0 226 189 398 415 398zM224 324c0 -28 5 -54 14 -76l324 282c-29 19 -65 29 -105 29
c-124 0 -233 -102 -233 -235zM409 141c125 0 232 102 232 236c0 27 -5 52 -14 75l-323 -283c29 -18 65 -28 105 -28z" />
    <glyph glyph-name="OE" unicode="&#x152;" horiz-adv-x="1129" 
d="M1031 0h-642c-200 0 -330 133 -330 310c0 225 182 390 409 390h682l-25 -144h-366l-23 -132h339l-25 -144h-339l-25 -136h370zM404 145h128l35 199l37 211h-141c-129 0 -238 -97 -238 -238c0 -101 65 -172 179 -172z" />
    <glyph glyph-name="ae" unicode="&#xe6;" horiz-adv-x="801" 
d="M0 119c0 106 91 146 198 146h110c4 16 10 31 16 46c-6 21 -25 34 -59 34c-47 0 -66 -18 -74 -41h-136c14 81 88 158 217 158c59 0 104 -19 134 -48c42 30 93 48 149 48c125 0 210 -87 210 -200c0 -32 -7 -63 -17 -87h-304c9 -43 40 -70 85 -70c38 0 66 15 78 43h133
c-24 -78 -93 -160 -223 -160c-65 0 -123 28 -163 73c-35 -37 -87 -71 -179 -71c-91 0 -175 45 -175 129zM552 345c-50 0 -84 -34 -100 -80h177c-2 52 -37 80 -77 80zM198 98c55 0 97 20 108 65c-1 4 -2 8 -2 12h-96c-33 0 -68 -7 -68 -41c0 -25 21 -36 58 -36z" />
    <glyph glyph-name="dotlessi" unicode="&#x131;" horiz-adv-x="245" 
d="M223 450l-79 -450h-143l79 450h143z" />
    <glyph glyph-name="oslash" unicode="&#xf8;" horiz-adv-x="544" 
d="M279 462c55 0 104 -17 142 -46l44 38l50 -59l-41 -36c21 -33 33 -73 33 -115c0 -144 -119 -256 -262 -256c-56 0 -104 17 -142 46l-45 -39l-51 59l43 37c-22 34 -33 74 -33 117c0 144 118 254 262 254zM252 119c62 0 106 50 106 119c0 9 -1 17 -3 25l-150 -132
c13 -8 29 -12 47 -12zM165 211c0 -9 1 -16 2 -24l150 132c-13 8 -28 13 -44 13c-62 0 -108 -50 -108 -121z" />
    <glyph glyph-name="oe" unicode="&#x153;" horiz-adv-x="852" 
d="M567 -12c-62 0 -116 27 -154 71c-44 -44 -104 -71 -170 -71c-133 0 -228 100 -228 220c0 144 119 254 263 254c66 0 121 -27 158 -70c44 43 104 70 173 70c120 0 208 -90 208 -200c0 -29 -6 -58 -15 -82h-311c8 -46 41 -75 89 -75c38 0 66 15 78 43h134
c-25 -78 -95 -160 -225 -160zM250 119c62 0 107 50 107 119c0 56 -36 94 -86 94c-62 0 -107 -50 -107 -121c0 -55 37 -92 86 -92zM602 345c-49 0 -84 -32 -101 -77h179c-3 50 -38 77 -78 77z" />
    <glyph glyph-name="germandbls" unicode="&#xdf;" horiz-adv-x="653" 
d="M1 0l80 453c27 156 129 259 312 259c150 0 248 -84 248 -191c0 -84 -55 -149 -134 -167c59 -18 105 -64 105 -144c0 -144 -103 -221 -261 -221c-50 0 -117 7 -140 13l19 113c26 -6 69 -10 104 -10c73 0 133 20 133 104c0 51 -42 80 -119 80h-59l22 120h57
c67 0 129 27 129 101c0 51 -41 86 -111 86c-101 0 -148 -59 -167 -168l-75 -428h-143z" />
    <glyph glyph-name="Eth" unicode="&#xd0;" horiz-adv-x="749" 
d="M720 390c0 -225 -182 -390 -409 -390h-293l51 291h-61l21 120h61l51 289h248c200 0 331 -133 331 -310zM204 145h112c129 0 237 97 237 238c0 101 -64 172 -178 172h-99l-26 -144h159l-21 -120h-159z" />
    <glyph glyph-name="plusminus" unicode="&#xb1;" horiz-adv-x="618" 
d="M345 142h-123l24 137h-165l21 119h165l24 136h123l-24 -136h166l-21 -119h-166zM503 100l-17 -100h-454l17 100h454z" />
    <glyph glyph-name="Thorn" unicode="&#xde;" horiz-adv-x="674" 
d="M196 135l-23 -135h-160l104 593l19 107h160l-19 -107h142c170 0 247 -92 234 -218c-13 -148 -126 -240 -300 -240h-157zM222 279h137c72 0 121 25 128 88c6 53 -30 82 -104 82h-131z" />
    <glyph glyph-name="divide" unicode="&#xf7;" horiz-adv-x="618" 
d="M540 310l-21 -119h-454l21 119h454zM253 434c0 49 39 90 92 90c49 0 83 -34 83 -81c0 -50 -37 -91 -92 -91c-49 0 -83 35 -83 82zM187 59c0 49 39 90 92 90c49 0 83 -33 83 -80c0 -51 -37 -92 -91 -92c-50 0 -84 35 -84 82z" />
    <glyph glyph-name="brokenbar" unicode="&#xa6;" horiz-adv-x="328" 
d="M313 700l-63 -358h-152l63 358h152zM224 194l-63 -358h-152l62 358h153z" />
    <glyph glyph-name="degree" unicode="&#xb0;" horiz-adv-x="403" 
d="M261 712c92 0 164 -72 164 -159c0 -108 -86 -191 -194 -191c-92 0 -165 72 -165 159c0 109 87 191 195 191zM236 460c48 0 87 36 87 87c0 38 -29 67 -68 67c-48 0 -86 -36 -86 -88c0 -36 30 -66 67 -66z" />
    <glyph glyph-name="thorn" unicode="&#xfe;" horiz-adv-x="563" 
d="M521 246c0 -137 -96 -258 -243 -258c-52 0 -96 21 -126 60l-47 -264h-143l162 916h143l-49 -276c32 23 70 38 116 38c115 0 187 -100 187 -216zM265 117c62 0 107 52 107 121c0 56 -37 95 -86 95c-62 0 -107 -51 -107 -122c0 -55 35 -94 86 -94z" />
    <glyph glyph-name="minus" unicode="&#x2212;" horiz-adv-x="618" 
d="M540 310l-21 -119h-454l21 119h454z" />
    <glyph glyph-name="eth" unicode="&#xf0;" horiz-adv-x="540" 
d="M500 709l37 -77l-126 -67c58 -80 95 -180 95 -286c0 -157 -103 -291 -269 -291c-133 0 -224 86 -224 206c0 134 119 241 250 241c42 0 77 -11 105 -27c-17 35 -38 70 -63 101l-123 -64l-37 78l98 51c-23 21 -47 39 -73 56l86 81c35 -22 68 -48 98 -79zM244 119
c59 0 102 44 102 104c0 47 -34 82 -83 82c-60 0 -102 -45 -102 -104c0 -48 35 -82 83 -82z" />
    <glyph glyph-name="multiply" unicode="&#xd7;" horiz-adv-x="618" 
d="M114 375l101 85l102 -124l147 124l70 -85l-147 -125l103 -124l-100 -86l-103 125l-146 -125l-71 86l146 124z" />
    <glyph glyph-name="Aacute" unicode="&#xc1;" horiz-adv-x="766" 
d="M541 0l-32 143h-300l-81 -143h-169l418 701h159l171 -701h-166zM568 970l79 -95l-184 -129l-51 63zM425 522l-133 -234h185z" />
    <glyph glyph-name="Acircumflex" unicode="&#xc2;" horiz-adv-x="766" 
d="M541 0l-32 143h-300l-81 -143h-169l418 701h159l171 -701h-166zM420 915h137l100 -165h-128l-52 70l-75 -70h-132zM425 522l-133 -234h185z" />
    <glyph glyph-name="Agrave" unicode="&#xc0;" horiz-adv-x="766" 
d="M541 0l-32 143h-300l-81 -143h-169l418 701h159l171 -701h-166zM308 875l113 95l117 -161l-74 -63zM425 522l-133 -234h185z" />
    <glyph glyph-name="Aring" unicode="&#xc5;" horiz-adv-x="766" 
d="M541 0l-32 143h-300l-81 -143h-169l418 701h159l171 -701h-166zM476 747c-70 0 -119 52 -119 114c0 71 57 134 137 134c72 0 120 -52 120 -116c0 -71 -59 -132 -138 -132zM425 522l-133 -234h185zM482 819c30 0 56 24 56 56c0 27 -21 48 -50 48c-30 0 -55 -24 -55 -57
c0 -27 20 -47 49 -47z" />
    <glyph glyph-name="Ccedilla" unicode="&#xc7;" horiz-adv-x="818" 
d="M363 -166h-139l89 163c-155 33 -257 160 -257 317c0 226 183 398 415 398c188 0 319 -125 323 -276h-161c-12 70 -75 123 -175 123c-129 0 -235 -97 -235 -235c0 -106 80 -183 188 -183c102 0 169 55 195 123h166c-34 -162 -166 -262 -338 -274z" />
    <glyph glyph-name="Eacute" unicode="&#xc9;" horiz-adv-x="641" 
d="M543 0h-530l123 700h526l-25 -144h-366l-24 -132h340l-25 -144h-340l-24 -136h370zM523 970l79 -95l-184 -129l-51 63z" />
    <glyph glyph-name="Ecircumflex" unicode="&#xca;" horiz-adv-x="641" 
d="M543 0h-530l123 700h526l-25 -144h-366l-24 -132h340l-25 -144h-340l-24 -136h370zM376 915h137l100 -165h-128l-52 70l-75 -70h-132z" />
    <glyph glyph-name="Egrave" unicode="&#xc8;" horiz-adv-x="641" 
d="M543 0h-530l123 700h526l-25 -144h-366l-24 -132h340l-25 -144h-340l-24 -136h370zM263 875l113 95l117 -161l-74 -63z" />
    <glyph glyph-name="Iacute" unicode="&#xcd;" horiz-adv-x="288" 
d="M297 700l-123 -700h-160l123 700h160zM329 970l79 -95l-184 -129l-51 63z" />
    <glyph glyph-name="Icircumflex" unicode="&#xce;" horiz-adv-x="288" 
d="M297 700l-123 -700h-160l123 700h160zM182 915h137l100 -165h-128l-52 70l-75 -70h-132z" />
    <glyph glyph-name="Igrave" unicode="&#xcc;" horiz-adv-x="288" 
d="M297 700l-123 -700h-160l123 700h160zM69 875l113 95l117 -161l-74 -63z" />
    <glyph glyph-name="Ntilde" unicode="&#xd1;" horiz-adv-x="764" 
d="M136 701h151l248 -449l80 448h159l-124 -701h-151l-249 449l-78 -448h-159zM586 892l85 -18c-23 -62 -65 -128 -138 -128c-50 0 -83 37 -120 37c-22 0 -36 -13 -47 -36l-85 18c23 63 66 129 138 129c51 0 84 -37 120 -37c23 0 36 12 47 35z" />
    <glyph glyph-name="Oacute" unicode="&#xd3;" horiz-adv-x="840" 
d="M471 712c195 0 336 -143 336 -326c0 -226 -189 -398 -415 -398c-196 0 -336 143 -336 326c0 226 188 398 415 398zM407 141c125 0 233 102 233 236c0 108 -76 182 -184 182c-124 0 -233 -102 -233 -235c0 -108 76 -183 184 -183zM605 970l79 -95l-184 -129l-51 63z" />
    <glyph glyph-name="Ocircumflex" unicode="&#xd4;" horiz-adv-x="840" 
d="M471 712c195 0 336 -143 336 -326c0 -226 -189 -398 -415 -398c-196 0 -336 143 -336 326c0 226 188 398 415 398zM407 141c125 0 233 102 233 236c0 108 -76 182 -184 182c-124 0 -233 -102 -233 -235c0 -108 76 -183 184 -183zM458 915h137l100 -165h-128l-52 70
l-75 -70h-132z" />
    <glyph glyph-name="Ograve" unicode="&#xd2;" horiz-adv-x="840" 
d="M471 712c195 0 336 -143 336 -326c0 -226 -189 -398 -415 -398c-196 0 -336 143 -336 326c0 226 188 398 415 398zM407 141c125 0 233 102 233 236c0 108 -76 182 -184 182c-124 0 -233 -102 -233 -235c0 -108 76 -183 184 -183zM345 875l113 95l117 -161l-74 -63z" />
    <glyph glyph-name="Otilde" unicode="&#xd5;" horiz-adv-x="840" 
d="M471 712c195 0 336 -143 336 -326c0 -226 -189 -398 -415 -398c-196 0 -336 143 -336 326c0 226 188 398 415 398zM407 141c125 0 233 102 233 236c0 108 -76 182 -184 182c-124 0 -233 -102 -233 -235c0 -108 76 -183 184 -183zM624 892l85 -18
c-23 -62 -65 -128 -138 -128c-50 0 -83 37 -120 37c-22 0 -36 -13 -47 -36l-85 18c23 63 66 129 138 129c51 0 84 -37 120 -37c23 0 36 12 47 35z" />
    <glyph glyph-name="Scaron" unicode="&#x160;" horiz-adv-x="642" 
d="M301 130c47 0 128 11 128 78c0 33 -23 61 -94 74l-69 12c-129 23 -187 93 -187 190c0 145 124 227 289 227c169 0 259 -90 254 -207h-155c-2 40 -33 66 -104 66c-52 0 -121 -11 -121 -72c0 -39 31 -62 102 -74l68 -12c128 -24 182 -86 182 -182
c0 -154 -127 -241 -304 -241c-174 0 -277 86 -270 215h156c1 -46 34 -74 125 -74zM467 750h-138l-99 165h127l52 -70l75 70h132z" />
    <glyph glyph-name="Uacute" unicode="&#xda;" horiz-adv-x="736" 
d="M333 -12c-180 0 -308 103 -273 299l73 413h161l-71 -400c-20 -110 24 -161 120 -161c93 0 157 47 176 158l72 403h159l-74 -415c-35 -203 -164 -297 -343 -297zM554 970l79 -95l-184 -129l-51 63z" />
    <glyph glyph-name="Ucircumflex" unicode="&#xdb;" horiz-adv-x="736" 
d="M333 -12c-180 0 -308 103 -273 299l73 413h161l-71 -400c-20 -110 24 -161 120 -161c93 0 157 47 176 158l72 403h159l-74 -415c-35 -203 -164 -297 -343 -297zM406 915h137l100 -165h-128l-52 70l-75 -70h-132z" />
    <glyph glyph-name="Ugrave" unicode="&#xd9;" horiz-adv-x="736" 
d="M333 -12c-180 0 -308 103 -273 299l73 413h161l-71 -400c-20 -110 24 -161 120 -161c93 0 157 47 176 158l72 403h159l-74 -415c-35 -203 -164 -297 -343 -297zM294 875l113 95l117 -161l-74 -63z" />
    <glyph glyph-name="Yacute" unicode="&#xdd;" horiz-adv-x="721" 
d="M257 700l120 -296l224 296h187l-354 -447l-44 -253h-159l44 250l-197 450h179zM547 970l79 -95l-184 -129l-51 63z" />
    <glyph glyph-name="Zcaron" unicode="&#x17d;" horiz-adv-x="663" 
d="M594 144l-25 -144h-576l20 114l431 442h-352l26 144h571l-20 -115l-430 -441h355zM486 750h-138l-99 165h127l52 -70l75 70h132z" />
    <glyph glyph-name="aacute" unicode="&#xe1;" horiz-adv-x="556" 
d="M14 202c0 137 103 260 237 260c59 0 106 -25 136 -68l10 56h138l-80 -450h-137l6 36c-32 -30 -72 -48 -117 -48c-116 0 -193 90 -193 214zM250 117c62 0 107 52 107 121c0 56 -36 95 -86 95c-62 0 -107 -51 -107 -122c0 -55 35 -94 86 -94zM418 731l78 -95l-189 -133
l-51 63z" />
    <glyph glyph-name="acircumflex" unicode="&#xe2;" horiz-adv-x="556" 
d="M14 202c0 137 103 260 237 260c59 0 106 -25 136 -68l10 56h138l-80 -450h-137l6 36c-32 -30 -72 -48 -117 -48c-116 0 -193 90 -193 214zM266 676h138l98 -166h-128l-50 72l-74 -72h-133zM250 117c62 0 107 52 107 121c0 56 -36 95 -86 95c-62 0 -107 -51 -107 -122
c0 -55 35 -94 86 -94z" />
    <glyph glyph-name="adieresis" unicode="&#xe4;" horiz-adv-x="556" 
d="M14 202c0 137 103 260 237 260c59 0 106 -25 136 -68l10 56h138l-80 -450h-137l6 36c-32 -30 -72 -48 -117 -48c-116 0 -193 90 -193 214zM250 117c62 0 107 52 107 121c0 56 -36 95 -86 95c-62 0 -107 -51 -107 -122c0 -55 35 -94 86 -94zM128 587c0 49 39 89 90 89
c47 0 81 -34 81 -79c0 -49 -37 -89 -89 -89c-48 0 -82 35 -82 79zM349 587c0 49 38 89 89 89c48 0 81 -34 81 -79c0 -49 -36 -89 -88 -89c-49 0 -82 35 -82 79z" />
    <glyph glyph-name="agrave" unicode="&#xe0;" horiz-adv-x="556" 
d="M14 202c0 137 103 260 237 260c59 0 106 -25 136 -68l10 56h138l-80 -450h-137l6 36c-32 -30 -72 -48 -117 -48c-116 0 -193 90 -193 214zM250 117c62 0 107 52 107 121c0 56 -36 95 -86 95c-62 0 -107 -51 -107 -122c0 -55 35 -94 86 -94zM148 636l113 95l121 -165
l-74 -63z" />
    <glyph glyph-name="aring" unicode="&#xe5;" horiz-adv-x="556" 
d="M14 202c0 137 103 260 237 260c59 0 106 -25 136 -68l10 56h138l-80 -450h-137l6 36c-32 -30 -72 -48 -117 -48c-116 0 -193 90 -193 214zM321 503c-70 0 -119 51 -119 114c0 71 57 134 137 134c72 0 120 -52 120 -116c0 -71 -59 -132 -138 -132zM250 117
c62 0 107 52 107 121c0 56 -36 95 -86 95c-62 0 -107 -51 -107 -122c0 -55 35 -94 86 -94zM327 575c30 0 56 24 56 55c0 28 -21 49 -50 49c-30 0 -55 -24 -55 -57c0 -28 20 -47 49 -47z" />
    <glyph glyph-name="ccedilla" unicode="&#xe7;" horiz-adv-x="529" 
d="M209 -163h-133l89 163h2c-91 29 -152 110 -152 209c0 140 117 253 264 253c135 0 212 -99 216 -190h-142c-6 32 -33 58 -79 58c-65 0 -110 -51 -110 -119c0 -55 37 -91 90 -91c47 0 76 28 85 59h143c-14 -82 -82 -175 -204 -189z" />
    <glyph glyph-name="eacute" unicode="&#xe9;" horiz-adv-x="522" 
d="M234 -12c-121 0 -219 93 -219 217c0 142 109 257 257 257c127 0 214 -90 214 -200c0 -29 -5 -56 -15 -80h-315c7 -48 41 -77 91 -77c41 0 69 15 80 43h134c-24 -78 -95 -160 -227 -160zM410 731l78 -95l-189 -133l-51 63zM269 345c-50 0 -85 -31 -102 -75h182
c-3 49 -38 75 -80 75z" />
    <glyph glyph-name="ecircumflex" unicode="&#xea;" horiz-adv-x="522" 
d="M234 -12c-121 0 -219 93 -219 217c0 142 109 257 257 257c127 0 214 -90 214 -200c0 -29 -5 -56 -15 -80h-315c7 -48 41 -77 91 -77c41 0 69 15 80 43h134c-24 -78 -95 -160 -227 -160zM257 676h138l98 -166h-128l-50 72l-74 -72h-133zM269 345c-50 0 -85 -31 -102 -75
h182c-3 49 -38 75 -80 75z" />
    <glyph glyph-name="edieresis" unicode="&#xeb;" horiz-adv-x="522" 
d="M234 -12c-121 0 -219 93 -219 217c0 142 109 257 257 257c127 0 214 -90 214 -200c0 -29 -5 -56 -15 -80h-315c7 -48 41 -77 91 -77c41 0 69 15 80 43h134c-24 -78 -95 -160 -227 -160zM119 587c0 49 39 89 90 89c47 0 81 -34 81 -79c0 -49 -37 -89 -89 -89
c-48 0 -82 35 -82 79zM340 587c0 49 38 89 89 89c48 0 81 -34 81 -79c0 -49 -36 -89 -88 -89c-49 0 -82 35 -82 79zM269 345c-50 0 -85 -31 -102 -75h182c-3 49 -38 75 -80 75z" />
    <glyph glyph-name="egrave" unicode="&#xe8;" horiz-adv-x="522" 
d="M234 -12c-121 0 -219 93 -219 217c0 142 109 257 257 257c127 0 214 -90 214 -200c0 -29 -5 -56 -15 -80h-315c7 -48 41 -77 91 -77c41 0 69 15 80 43h134c-24 -78 -95 -160 -227 -160zM140 636l113 95l121 -165l-74 -63zM269 345c-50 0 -85 -31 -102 -75h182
c-3 49 -38 75 -80 75z" />
    <glyph glyph-name="iacute" unicode="&#xed;" horiz-adv-x="245" 
d="M223 450l-79 -450h-143l79 450h143zM271 731l78 -95l-189 -133l-51 63z" />
    <glyph glyph-name="icircumflex" unicode="&#xee;" horiz-adv-x="245" 
d="M223 450l-79 -450h-143l79 450h143zM121 677h134l88 -166h-126l-40 72l-64 -72h-131z" />
    <glyph glyph-name="idieresis" unicode="&#xef;" horiz-adv-x="245" 
d="M223 450l-79 -450h-143l79 450h143zM-16 587c0 49 38 89 89 89c48 0 81 -34 81 -79c0 -49 -36 -89 -88 -89c-49 0 -82 35 -82 79zM199 587c0 49 39 89 90 89c47 0 81 -34 81 -79c0 -49 -37 -89 -89 -89c-48 0 -82 35 -82 79z" />
    <glyph glyph-name="igrave" unicode="&#xec;" horiz-adv-x="245" 
d="M223 450l-79 -450h-143l79 450h143zM1 636l113 95l121 -165l-74 -63z" />
    <glyph glyph-name="ntilde" unicode="&#xf1;" horiz-adv-x="545" 
d="M345 462c110 0 170 -82 147 -212l-44 -250h-143l42 242c9 56 -13 89 -63 89c-52 0 -89 -36 -99 -96l-41 -235h-143l78 450h138l-8 -45c29 30 75 57 136 57zM523 637c-23 -63 -65 -130 -138 -130c-50 0 -80 37 -117 37c-22 0 -35 -13 -45 -35l-86 18c23 63 65 130 137 130
c51 0 82 -38 118 -38c23 0 35 13 47 36z" />
    <glyph glyph-name="oacute" unicode="&#xf3;" horiz-adv-x="541" 
d="M278 462c132 0 228 -97 228 -218c0 -144 -120 -256 -263 -256c-133 0 -228 100 -228 220c0 144 119 254 263 254zM250 119c62 0 107 50 107 119c0 56 -36 94 -86 94c-62 0 -107 -50 -107 -121c0 -55 37 -92 86 -92zM419 731l78 -95l-189 -133l-51 63z" />
    <glyph glyph-name="ocircumflex" unicode="&#xf4;" horiz-adv-x="541" 
d="M278 462c132 0 228 -97 228 -218c0 -144 -120 -256 -263 -256c-133 0 -228 100 -228 220c0 144 119 254 263 254zM250 119c62 0 107 50 107 119c0 56 -36 94 -86 94c-62 0 -107 -50 -107 -121c0 -55 37 -92 86 -92zM267 676h138l98 -166h-128l-50 72l-74 -72h-133z" />
    <glyph glyph-name="odieresis" unicode="&#xf6;" horiz-adv-x="541" 
d="M278 462c132 0 228 -97 228 -218c0 -144 -120 -256 -263 -256c-133 0 -228 100 -228 220c0 144 119 254 263 254zM250 119c62 0 107 50 107 119c0 56 -36 94 -86 94c-62 0 -107 -50 -107 -121c0 -55 37 -92 86 -92zM129 587c0 49 39 89 90 89c47 0 81 -34 81 -79
c0 -49 -37 -89 -89 -89c-48 0 -82 35 -82 79zM350 587c0 49 38 89 89 89c48 0 81 -34 81 -79c0 -49 -36 -89 -88 -89c-49 0 -82 35 -82 79z" />
    <glyph glyph-name="ograve" unicode="&#xf2;" horiz-adv-x="541" 
d="M278 462c132 0 228 -97 228 -218c0 -144 -120 -256 -263 -256c-133 0 -228 100 -228 220c0 144 119 254 263 254zM250 119c62 0 107 50 107 119c0 56 -36 94 -86 94c-62 0 -107 -50 -107 -121c0 -55 37 -92 86 -92zM149 636l113 95l121 -165l-74 -63z" />
    <glyph glyph-name="otilde" unicode="&#xf5;" horiz-adv-x="541" 
d="M278 462c132 0 228 -97 228 -218c0 -144 -120 -256 -263 -256c-133 0 -228 100 -228 220c0 144 119 254 263 254zM250 119c62 0 107 50 107 119c0 56 -36 94 -86 94c-62 0 -107 -50 -107 -121c0 -55 37 -92 86 -92zM516 637c-23 -63 -65 -130 -138 -130
c-50 0 -80 37 -117 37c-22 0 -35 -13 -45 -35l-86 18c23 63 65 130 137 130c51 0 82 -38 118 -38c23 0 35 13 47 36z" />
    <glyph glyph-name="scaron" unicode="&#x161;" horiz-adv-x="429" 
d="M183 98c25 0 56 7 56 38c0 22 -14 32 -57 39l-35 6c-76 14 -118 61 -118 125c0 92 82 156 193 156c132 0 180 -68 180 -148h-127c0 22 -17 38 -51 38c-22 0 -51 -7 -51 -36c0 -24 23 -33 64 -39l33 -5c73 -12 113 -54 113 -121c0 -102 -86 -162 -205 -162
c-122 0 -184 64 -184 149h129c0 -24 22 -40 60 -40zM323 510h-139l-98 166h128l50 -72l74 72h134z" />
    <glyph glyph-name="uacute" unicode="&#xfa;" horiz-adv-x="544" 
d="M178 -12c-109 0 -169 82 -146 212l44 250h144l-42 -241c-10 -56 12 -89 61 -89c53 0 89 36 99 96l41 234h144l-79 -450h-138l7 44c-29 -31 -74 -56 -135 -56zM419 731l78 -95l-189 -133l-51 63z" />
    <glyph glyph-name="ucircumflex" unicode="&#xfb;" horiz-adv-x="544" 
d="M178 -12c-109 0 -169 82 -146 212l44 250h144l-42 -241c-10 -56 12 -89 61 -89c53 0 89 36 99 96l41 234h144l-79 -450h-138l7 44c-29 -31 -74 -56 -135 -56zM267 676h138l98 -166h-128l-50 72l-74 -72h-133z" />
    <glyph glyph-name="udieresis" unicode="&#xfc;" horiz-adv-x="544" 
d="M178 -12c-109 0 -169 82 -146 212l44 250h144l-42 -241c-10 -56 12 -89 61 -89c53 0 89 36 99 96l41 234h144l-79 -450h-138l7 44c-29 -31 -74 -56 -135 -56zM129 587c0 49 39 89 90 89c47 0 81 -34 81 -79c0 -49 -37 -89 -89 -89c-48 0 -82 35 -82 79zM350 587
c0 49 38 89 89 89c48 0 81 -34 81 -79c0 -49 -36 -89 -88 -89c-49 0 -82 35 -82 79z" />
    <glyph glyph-name="ugrave" unicode="&#xf9;" horiz-adv-x="544" 
d="M178 -12c-109 0 -169 82 -146 212l44 250h144l-42 -241c-10 -56 12 -89 61 -89c53 0 89 36 99 96l41 234h144l-79 -450h-138l7 44c-29 -31 -74 -56 -135 -56zM149 636l113 95l121 -165l-74 -63z" />
    <glyph glyph-name="yacute" unicode="&#xfd;" horiz-adv-x="521" 
d="M196 450l56 -211l130 211h159l-420 -666h-157l187 292l-113 374h158zM413 731l78 -95l-189 -133l-51 63z" />
    <glyph glyph-name="ydieresis" unicode="&#xff;" horiz-adv-x="521" 
d="M196 450l56 -211l130 211h159l-420 -666h-157l187 292l-113 374h158zM122 587c0 49 39 89 90 89c47 0 81 -34 81 -79c0 -49 -37 -89 -89 -89c-48 0 -82 35 -82 79zM343 587c0 49 38 89 89 89c48 0 81 -34 81 -79c0 -49 -36 -89 -88 -89c-49 0 -82 35 -82 79z" />
    <glyph glyph-name="zcaron" unicode="&#x17e;" horiz-adv-x="479" 
d="M52 324l22 126h399l-18 -100l-248 -223h209l-22 -127h-409l16 99l250 225h-199zM358 510h-139l-98 166h128l50 -72l74 72h134z" />
    <glyph glyph-name="Euro" unicode="&#x20ac;" horiz-adv-x="662" 
d="M40 480h65c66 141 214 236 388 236c95 0 179 -27 229 -62l-84 -118c-33 21 -89 32 -144 32c-83 0 -152 -34 -198 -88h263l-19 -109h-297c-3 -14 -5 -27 -6 -41h202l-19 -110h-164c28 -54 86 -88 171 -88c43 0 109 11 148 31l45 -126c-64 -33 -133 -53 -206 -53
c-177 0 -296 95 -332 236h-88l20 110h56c1 14 1 27 3 41h-52z" />
    <glyph glyph-name="ampersand" unicode="&#x26;" horiz-adv-x="716" 
d="M612 380l83 -86c-49 -53 -97 -104 -145 -149l110 -145h-172l-45 59c-66 -44 -134 -71 -206 -71c-122 0 -217 66 -217 176s74 161 174 220c-31 42 -55 90 -55 140c0 118 94 186 223 186c114 0 190 -63 190 -149c0 -98 -83 -148 -166 -200l88 -116c40 37 85 82 138 135z
M257 123c36 0 71 12 109 36l-99 130c-47 -29 -85 -54 -85 -108c0 -39 29 -58 75 -58zM285 536c0 -24 13 -54 31 -82c37 19 93 47 93 93c0 26 -21 44 -58 44c-36 0 -66 -16 -66 -55z" />
    <glyph glyph-name="at" unicode="@" horiz-adv-x="956" 
d="M616 -36l-19 -107c-59 -22 -114 -33 -185 -33c-224 0 -382 153 -382 359c0 259 216 473 495 473c236 0 387 -147 387 -340c0 -134 -71 -284 -225 -284c-59 0 -102 30 -123 71c-35 -37 -81 -63 -134 -63c-96 0 -164 75 -164 173c0 113 83 229 206 229c46 0 83 -19 110 -49
l8 41h111l-39 -224c-7 -38 -3 -71 31 -71c77 0 95 114 95 178c0 139 -101 228 -268 228c-200 0 -364 -151 -364 -361c0 -144 102 -249 269 -249c65 0 137 10 191 29zM466 153c54 0 91 48 91 101c0 46 -30 75 -73 75c-52 0 -91 -47 -91 -104c0 -43 31 -72 73 -72z" />
    <glyph glyph-name="asterisk" unicode="*" horiz-adv-x="465" 
d="M258 429l-85 -103l-84 69l96 94l-113 34l57 113l103 -47l16 121h119l-26 -121l120 47l16 -113l-125 -34l64 -94l-110 -69z" />
    <glyph glyph-name="section" unicode="&#xa7;" horiz-adv-x="664" 
d="M266 -46c49 0 100 8 100 57c0 25 -20 44 -62 53l-57 12c-119 26 -188 85 -188 174c0 83 53 132 122 159c-32 29 -47 66 -47 107c0 133 113 196 251 196c163 0 229 -78 227 -181h-147c-1 32 -26 52 -81 52c-44 0 -90 -10 -90 -52c0 -29 27 -49 82 -59l60 -11
c107 -19 165 -79 165 -165s-49 -136 -117 -163c29 -29 43 -67 43 -105c0 -141 -120 -203 -264 -203c-158 0 -241 77 -236 186h150c-2 -37 26 -57 89 -57zM221 266c0 -38 28 -61 93 -71l24 -4c49 3 100 21 100 80c0 36 -27 62 -73 71l-43 8c-51 -3 -101 -25 -101 -84z" />
    <glyph glyph-name="copyright" unicode="&#xa9;" horiz-adv-x="820" 
d="M410 712c204 0 370 -161 370 -362s-166 -362 -370 -362s-370 161 -370 362s166 362 370 362zM410 94c145 0 257 112 257 256s-112 256 -257 256s-257 -112 -257 -256s112 -256 257 -256zM228 350c0 105 80 184 185 184c114 0 173 -76 179 -147h-113c-5 25 -26 44 -63 44
c-44 0 -74 -31 -74 -81s30 -80 74 -80c38 0 58 19 63 44h114c-6 -72 -64 -148 -180 -148c-105 0 -185 80 -185 184z" />
    <glyph glyph-name="registered" unicode="&#xae;" horiz-adv-x="508" 
d="M254 715c129 0 229 -100 229 -224s-100 -225 -229 -225s-228 101 -228 225s99 224 228 224zM254 329c91 0 162 70 162 162s-71 162 -162 162s-162 -70 -162 -162s71 -162 162 -162zM231 453v-65h-61v207h100c56 0 86 -30 86 -72c0 -29 -17 -54 -49 -65l50 -70h-65l-45 65
h-16zM231 501h36c18 0 27 7 27 22c0 14 -9 21 -27 21h-36v-43z" />
    <glyph glyph-name="bullet" unicode="&#x2022;" horiz-adv-x="447" 
d="M125 161c-42 47 -35 123 16 163c45 47 118 53 169 13c41 -47 33 -123 -17 -162c-45 -47 -117 -54 -168 -14z" />
    <glyph glyph-name="trademark" unicode="&#x2122;" horiz-adv-x="808" 
d="M368 700h103l98 -165l99 165h101v-322h-97v186l-75 -126h-57l-75 126v-186h-97v322zM319 700v-89h-100v-233h-97v233h-100v89h297z" />
    <glyph glyph-name="dagger" unicode="&#x2020;" horiz-adv-x="558" 
d="M569 506l-22 -127h-180l-95 -543h-144l95 543h-179l22 127h180l34 194h144l-34 -194h179z" />
    <glyph glyph-name="daggerdbl" unicode="&#x2021;" horiz-adv-x="558" 
d="M505 144l-22 -126h-179l-32 -182h-144l32 182h-180l22 126h180l43 248h-179l22 126h180l32 182h144l-32 -182h179l-22 -126h-180l-43 -248h179z" />
    <glyph glyph-name="ordfeminine" unicode="&#xaa;" horiz-adv-x="475" 
d="M59 487c0 107 82 223 206 223c49 0 89 -20 114 -54l8 44h121l-68 -386h-121l6 37c-28 -28 -62 -46 -102 -46c-95 0 -164 77 -164 182zM263 420c50 0 89 40 89 98c0 42 -30 77 -71 77c-55 0 -89 -45 -89 -101c0 -41 31 -74 71 -74z" />
    <glyph glyph-name="ordmasculine" unicode="&#xba;" horiz-adv-x="466" 
d="M294 710c113 0 189 -80 189 -183c0 -123 -103 -222 -234 -222c-113 0 -189 79 -189 182c0 123 103 223 234 223zM263 420c50 0 89 40 89 98c0 42 -30 77 -71 77c-55 0 -89 -45 -89 -101c0 -41 31 -74 71 -74z" />
    <glyph glyph-name="guillemotright" unicode="&#xbb;" horiz-adv-x="550" 
d="M-12 35l139 193l-70 193h147l71 -193l-139 -193h-148zM223 35l139 193l-70 193h147l71 -193l-139 -193h-148z" />
    <glyph glyph-name="guillemotleft" unicode="&#xab;" horiz-adv-x="550" 
d="M306 421l-139 -193l71 -193h-148l-70 193l138 193h148zM541 421l-139 -193l71 -193h-148l-70 193l138 193h148z" />
    <glyph glyph-name="guilsinglleft" unicode="&#x2039;" horiz-adv-x="315" 
d="M306 421l-139 -193l71 -193h-148l-70 193l138 193h148z" />
    <glyph glyph-name="guilsinglright" unicode="&#x203a;" horiz-adv-x="315" 
d="M-12 35l139 193l-70 193h147l71 -193l-139 -193h-148z" />
    <glyph glyph-name="paragraph" unicode="&#xb6;" horiz-adv-x="615" 
d="M286 700h302v-126h-77c-49 0 -62 -16 -62 -64v-542c0 -116 -48 -191 -165 -191c-46 0 -83 5 -105 10v131c11 -2 36 -4 53 -4c46 0 65 16 65 72v186h-11c-141 0 -255 107 -255 264s114 264 255 264z" />
    <glyph glyph-name="periodcentered" unicode="&#xb7;" horiz-adv-x="271" 
d="M31 223c5 54 50 95 103 95c54 0 89 -39 85 -90c-5 -54 -49 -95 -103 -95s-89 39 -85 90z" />
    <glyph glyph-name="exclamdown" unicode="&#xa1;" horiz-adv-x="300" 
d="M82 210h109c-2 -104 -18 -258 -38 -372l-15 -88h-164l15 88c20 114 59 268 93 372zM259 370c0 -53 -42 -97 -99 -97c-53 0 -90 37 -90 87c0 54 41 98 99 98c53 0 90 -38 90 -88z" />
    <glyph glyph-name="questiondown" unicode="&#xbf;" horiz-adv-x="601" 
d="M-17 -70c0 128 107 193 218 219l16 66h121l-16 -138c-66 -10 -178 -40 -178 -125c0 -43 35 -75 96 -75c80 0 116 43 130 107h153c-15 -112 -96 -246 -300 -246c-156 0 -240 86 -240 192zM401 370c0 -53 -42 -97 -99 -97c-53 0 -90 37 -90 87c0 54 41 98 99 98
c53 0 90 -38 90 -88z" />
    <glyph glyph-name="quotedbl" unicode="&#x22;" horiz-adv-x="511" 
d="M138 710h155l-71 -322h-127zM368 710h155l-71 -322h-127z" />
    <glyph glyph-name="exclam" unicode="!" horiz-adv-x="300" 
d="M197 240h-109c2 105 18 258 38 373l15 87h164l-15 -87c-20 -115 -59 -268 -93 -373zM20 80c0 54 42 98 99 98c53 0 90 -37 90 -87c0 -54 -41 -99 -99 -99c-53 0 -90 38 -90 88z" />
    <glyph glyph-name="uni00AD" unicode="&#xad;" horiz-adv-x="392" 
d="M15 160l22 127h331l-22 -127h-331z" />
    <glyph glyph-name="two.superior" unicode="&#xb2;" horiz-adv-x="404" 
d="M284 792c-36 0 -54 -21 -58 -51h-113c10 78 61 157 185 157c96 0 153 -51 152 -118c-1 -58 -40 -98 -100 -134l-49 -30h128l-19 -105h-330l15 82l171 101c29 18 61 34 61 65c0 21 -19 33 -43 33z" />
    <glyph glyph-name="three.superior" unicode="&#xb3;" horiz-adv-x="404" 
d="M283 795c-38 0 -53 -18 -58 -43h-109c11 77 69 146 181 146c86 0 152 -43 152 -106c0 -46 -27 -74 -64 -87c27 -10 46 -34 46 -71c0 -82 -82 -132 -169 -132c-111 0 -175 53 -167 150h109c0 -29 16 -47 58 -47c24 0 50 8 50 36c0 18 -12 27 -39 27h-26l13 71h32
c17 0 35 7 35 29c0 18 -19 27 -44 27z" />
    <glyph glyph-name="one.superior" unicode="&#xb9;" horiz-adv-x="404" 
d="M217 511l45 258l-99 -26l-9 100l148 46h101l-67 -378h-119z" />
    <glyph glyph-name="onequarter" unicode="&#xbc;" horiz-adv-x="958" 
d="M902 378l-38 -214h53l-18 -99h-52l-12 -65h-118l12 65h-191l15 85l247 228h102zM670 164h78l15 84zM315 0h-137l535 700h137zM184 323l45 258l-99 -26l-9 100l148 46h101l-67 -378h-119z" />
    <glyph glyph-name="onehalf" unicode="&#xbd;" horiz-adv-x="958" 
d="M282 0h-137l535 700h137zM747 280c-36 0 -54 -21 -58 -51h-113c10 78 61 157 185 157c96 0 153 -51 152 -118c-1 -58 -40 -98 -100 -134l-49 -30h128l-19 -105h-330l15 82l171 101c29 18 61 34 61 65c0 21 -19 33 -43 33zM184 323l45 258l-99 -26l-9 100l148 46h101
l-67 -378h-119z" />
    <glyph glyph-name="threequarters" unicode="&#xbe;" horiz-adv-x="958" 
d="M250 607c-38 0 -53 -18 -58 -43h-109c11 77 69 146 181 146c86 0 152 -43 152 -106c0 -46 -27 -74 -64 -87c27 -10 46 -34 46 -71c0 -82 -82 -132 -169 -132c-111 0 -175 53 -167 150h109c0 -29 16 -47 58 -47c24 0 50 8 50 36c0 18 -12 27 -39 27h-26l13 71h32
c17 0 35 7 35 29c0 18 -19 27 -44 27zM324 0h-137l535 700h137zM902 377l-38 -214h53l-18 -99h-52l-12 -65h-118l12 65h-191l15 85l247 228h102zM670 163h78l15 84z" />
    <glyph glyph-name="Amacron" unicode="&#x100;" horiz-adv-x="766" 
d="M541 0l-32 143h-300l-81 -143h-169l418 701h159l171 -701h-166zM659 865l-20 -115h-351l21 115h350zM425 522l-133 -234h185z" />
    <glyph glyph-name="amacron" unicode="&#x101;" horiz-adv-x="556" 
d="M14 202c0 137 103 260 237 260c59 0 106 -25 136 -68l10 56h138l-80 -450h-137l6 36c-32 -30 -72 -48 -117 -48c-116 0 -193 90 -193 214zM504 631l-20 -115h-347l21 115h346zM250 117c62 0 107 52 107 121c0 56 -36 95 -86 95c-62 0 -107 -51 -107 -122
c0 -55 35 -94 86 -94z" />
    <glyph glyph-name="Abreve" unicode="&#x102;" horiz-adv-x="766" 
d="M541 0l-32 143h-300l-81 -143h-169l418 701h159l171 -701h-166zM474 746c-130 0 -167 87 -167 165h118c-2 -32 20 -55 61 -55c40 0 64 22 74 55h118c-16 -75 -77 -165 -204 -165zM425 522l-133 -234h185z" />
    <glyph glyph-name="abreve" unicode="&#x103;" horiz-adv-x="556" 
d="M14 202c0 137 103 260 237 260c59 0 106 -25 136 -68l10 56h138l-80 -450h-137l6 36c-32 -30 -72 -48 -117 -48c-116 0 -193 90 -193 214zM321 507c-130 0 -170 87 -168 166h118c-2 -32 15 -56 56 -56c40 0 67 23 77 56h117c-16 -75 -73 -166 -200 -166zM250 117
c62 0 107 52 107 121c0 56 -36 95 -86 95c-62 0 -107 -51 -107 -122c0 -55 35 -94 86 -94z" />
    <glyph glyph-name="Aogonek" unicode="&#x104;" horiz-adv-x="766" 
d="M541 0l-32 143h-300l-81 -143h-169l418 701h159l171 -701h-29c-35 -11 -91 -34 -91 -71c0 -18 15 -27 38 -27c19 0 41 4 56 11l15 -74c-24 -17 -70 -37 -116 -37c-69 0 -120 30 -120 82c0 53 39 91 87 116h-6zM425 522l-133 -234h185z" />
    <glyph glyph-name="aogonek" unicode="&#x105;" horiz-adv-x="556" 
d="M14 202c0 137 103 260 237 260c59 0 106 -25 136 -68l10 56h138l-80 -450h-13c-30 -10 -89 -32 -89 -69c0 -19 16 -26 40 -26c18 0 35 4 51 11l14 -74c-24 -19 -70 -37 -115 -37c-66 0 -116 29 -116 80c0 56 42 94 92 120l5 31c-32 -30 -72 -48 -117 -48
c-116 0 -193 90 -193 214zM250 117c62 0 107 52 107 121c0 56 -36 95 -86 95c-62 0 -107 -51 -107 -122c0 -55 35 -94 86 -94z" />
    <glyph glyph-name="Cacute" unicode="&#x106;" horiz-adv-x="818" 
d="M56 314c0 226 183 398 415 398c188 0 319 -125 323 -276h-161c-12 70 -75 123 -175 123c-129 0 -235 -97 -235 -235c0 -106 80 -183 188 -183c102 0 169 55 195 123h166c-36 -173 -185 -276 -376 -276c-200 0 -340 143 -340 326zM606 970l79 -95l-184 -129l-51 63z" />
    <glyph glyph-name="cacute" unicode="&#x107;" horiz-adv-x="529" 
d="M15 209c0 140 117 253 264 253c135 0 212 -99 216 -190h-142c-6 32 -33 58 -79 58c-65 0 -110 -51 -110 -119c0 -55 37 -91 90 -91c47 0 76 28 85 59h143c-15 -89 -94 -191 -237 -191c-133 0 -230 96 -230 221zM418 731l78 -95l-189 -133l-51 63z" />
    <glyph glyph-name="Ccircumflex" unicode="&#x108;" horiz-adv-x="818" 
d="M56 314c0 226 183 398 415 398c188 0 319 -125 323 -276h-161c-12 70 -75 123 -175 123c-129 0 -235 -97 -235 -235c0 -106 80 -183 188 -183c102 0 169 55 195 123h166c-36 -173 -185 -276 -376 -276c-200 0 -340 143 -340 326zM458 915h137l100 -165h-128l-52 70
l-75 -70h-132z" />
    <glyph glyph-name="ccircumflex" unicode="&#x109;" horiz-adv-x="529" 
d="M15 209c0 140 117 253 264 253c135 0 212 -99 216 -190h-142c-6 32 -33 58 -79 58c-65 0 -110 -51 -110 -119c0 -55 37 -91 90 -91c47 0 76 28 85 59h143c-15 -89 -94 -191 -237 -191c-133 0 -230 96 -230 221zM266 676h138l98 -166h-128l-50 72l-74 -72h-133z" />
    <glyph glyph-name="Cdotaccent" unicode="&#x10a;" horiz-adv-x="818" 
d="M56 314c0 226 183 398 415 398c188 0 319 -125 323 -276h-161c-12 70 -75 123 -175 123c-129 0 -235 -97 -235 -235c0 -106 80 -183 188 -183c102 0 169 55 195 123h166c-36 -173 -185 -276 -376 -276c-200 0 -340 143 -340 326zM429 828c0 50 39 92 91 92
c49 0 84 -35 84 -82c0 -50 -38 -92 -91 -92c-50 0 -84 36 -84 82z" />
    <glyph glyph-name="cdotaccent" unicode="&#x10b;" horiz-adv-x="529" 
d="M15 209c0 140 117 253 264 253c135 0 212 -99 216 -190h-142c-6 32 -33 58 -79 58c-65 0 -110 -51 -110 -119c0 -55 37 -91 90 -91c47 0 76 28 85 59h143c-15 -89 -94 -191 -237 -191c-133 0 -230 96 -230 221zM238 589c0 49 39 90 90 90c48 0 82 -35 82 -80
c0 -50 -37 -91 -89 -91c-49 0 -83 36 -83 81z" />
    <glyph glyph-name="Ccaron" unicode="&#x10c;" horiz-adv-x="818" 
d="M56 314c0 226 183 398 415 398c188 0 319 -125 323 -276h-161c-12 70 -75 123 -175 123c-129 0 -235 -97 -235 -235c0 -106 80 -183 188 -183c102 0 169 55 195 123h166c-36 -173 -185 -276 -376 -276c-200 0 -340 143 -340 326zM575 750h-138l-99 165h127l52 -70l75 70
h132z" />
    <glyph glyph-name="ccaron" unicode="&#x10d;" horiz-adv-x="529" 
d="M15 209c0 140 117 253 264 253c135 0 212 -99 216 -190h-142c-6 32 -33 58 -79 58c-65 0 -110 -51 -110 -119c0 -55 37 -91 90 -91c47 0 76 28 85 59h143c-15 -89 -94 -191 -237 -191c-133 0 -230 96 -230 221zM383 510h-139l-98 166h128l50 -72l74 72h134z" />
    <glyph glyph-name="Dcaron" unicode="&#x10e;" horiz-adv-x="747" 
d="M715 390c0 -225 -182 -390 -409 -390h-293l123 700h248c200 0 331 -133 331 -310zM199 145h112c129 0 237 97 237 238c0 101 -64 172 -178 172h-99zM515 750h-138l-99 165h127l52 -70l75 70h132z" />
    <glyph glyph-name="dcaron" unicode="&#x10f;" horiz-adv-x="659" 
d="M14 202c0 137 103 260 237 260c56 0 102 -23 131 -61l53 299h143l-123 -700h-137l6 36c-32 -30 -72 -48 -117 -48c-114 0 -193 90 -193 214zM250 117c62 0 107 52 107 121c0 56 -36 95 -86 95c-62 0 -107 -51 -107 -122c0 -55 35 -94 86 -94zM574 458l45 242h150
l-79 -242h-116z" />
    <glyph glyph-name="Dcroat" unicode="&#x110;" horiz-adv-x="749" 
d="M720 390c0 -225 -182 -390 -409 -390h-293l51 291h-61l21 120h61l51 289h248c200 0 331 -133 331 -310zM204 145h112c129 0 237 97 237 238c0 101 -64 172 -178 172h-99l-26 -144h159l-21 -120h-159z" />
    <glyph glyph-name="dcroat" unicode="&#x111;" horiz-adv-x="559" 
d="M619 622l-19 -113h-56l-89 -509h-137l6 36c-32 -30 -72 -48 -117 -48c-114 0 -193 90 -193 214c0 137 103 260 237 260c56 0 102 -23 131 -62l19 109h-178l19 113h179l14 78h143l-14 -78h55zM250 117c62 0 107 52 107 121c0 56 -36 95 -86 95c-62 0 -107 -51 -107 -122
c0 -55 35 -94 86 -94z" />
    <glyph glyph-name="Emacron" unicode="&#x112;" horiz-adv-x="641" 
d="M543 0h-530l123 700h526l-25 -144h-366l-24 -132h340l-25 -144h-340l-24 -136h370zM615 865l-20 -115h-351l21 115h350z" />
    <glyph glyph-name="emacron" unicode="&#x113;" horiz-adv-x="522" 
d="M234 -12c-121 0 -219 93 -219 217c0 142 109 257 257 257c127 0 214 -90 214 -200c0 -29 -5 -56 -15 -80h-315c7 -48 41 -77 91 -77c41 0 69 15 80 43h134c-24 -78 -95 -160 -227 -160zM495 631l-20 -115h-347l21 115h346zM269 345c-50 0 -85 -31 -102 -75h182
c-3 49 -38 75 -80 75z" />
    <glyph glyph-name="Ebreve" unicode="&#x114;" horiz-adv-x="641" 
d="M543 0h-530l123 700h526l-25 -144h-366l-24 -132h340l-25 -144h-340l-24 -136h370zM430 746c-130 0 -167 87 -167 165h118c-2 -32 20 -55 61 -55c40 0 64 22 74 55h118c-16 -75 -77 -165 -204 -165z" />
    <glyph glyph-name="ebreve" unicode="&#x115;" horiz-adv-x="522" 
d="M234 -12c-121 0 -219 93 -219 217c0 142 109 257 257 257c127 0 214 -90 214 -200c0 -29 -5 -56 -15 -80h-315c7 -48 41 -77 91 -77c41 0 69 15 80 43h134c-24 -78 -95 -160 -227 -160zM313 507c-130 0 -170 87 -168 166h118c-2 -32 15 -56 56 -56c40 0 67 23 77 56h117
c-16 -75 -73 -166 -200 -166zM269 345c-50 0 -85 -31 -102 -75h182c-3 49 -38 75 -80 75z" />
    <glyph glyph-name="Edotaccent" unicode="&#x116;" horiz-adv-x="641" 
d="M543 0h-530l123 700h526l-25 -144h-366l-24 -132h340l-25 -144h-340l-24 -136h370zM347 828c0 50 39 92 91 92c49 0 84 -35 84 -82c0 -50 -38 -92 -91 -92c-50 0 -84 36 -84 82z" />
    <glyph glyph-name="edotaccent" unicode="&#x117;" horiz-adv-x="522" 
d="M234 -12c-121 0 -219 93 -219 217c0 142 109 257 257 257c127 0 214 -90 214 -200c0 -29 -5 -56 -15 -80h-315c7 -48 41 -77 91 -77c41 0 69 15 80 43h134c-24 -78 -95 -160 -227 -160zM229 589c0 49 39 90 90 90c48 0 82 -35 82 -80c0 -50 -37 -91 -89 -91
c-49 0 -83 36 -83 81zM269 345c-50 0 -85 -31 -102 -75h182c-3 49 -38 75 -80 75z" />
    <glyph glyph-name="Eogonek" unicode="&#x118;" horiz-adv-x="641" 
d="M510 -87l15 -74c-24 -17 -70 -37 -116 -37c-69 0 -120 30 -120 82c0 53 39 91 87 116h-363l123 700h526l-25 -144h-366l-24 -132h340l-25 -144h-340l-24 -136h370l-25 -144h-36c-35 -11 -91 -34 -91 -71c0 -18 15 -27 38 -27c19 0 41 4 56 11z" />
    <glyph glyph-name="eogonek" unicode="&#x119;" horiz-adv-x="522" 
d="M372 -156c-27 -20 -74 -39 -122 -39c-66 0 -116 36 -116 91c0 42 22 73 54 97c-99 19 -173 104 -173 212c0 142 109 257 257 257c127 0 214 -90 214 -200c0 -29 -5 -56 -15 -80h-315c7 -48 41 -77 91 -77c41 0 69 15 80 43h134c-20 -66 -73 -134 -167 -154
c-21 -13 -38 -31 -38 -56c0 -21 21 -33 42 -33c20 0 40 4 56 12zM269 345c-50 0 -85 -31 -102 -75h182c-3 49 -38 75 -80 75z" />
    <glyph glyph-name="Ecaron" unicode="&#x11a;" horiz-adv-x="641" 
d="M543 0h-530l123 700h526l-25 -144h-366l-24 -132h340l-25 -144h-340l-24 -136h370zM492 749h-138l-99 165h127l52 -70l75 70h132z" />
    <glyph glyph-name="ecaron" unicode="&#x11b;" horiz-adv-x="522" 
d="M234 -12c-121 0 -219 93 -219 217c0 142 109 257 257 257c127 0 214 -90 214 -200c0 -29 -5 -56 -15 -80h-315c7 -48 41 -77 91 -77c41 0 69 15 80 43h134c-24 -78 -95 -160 -227 -160zM374 510h-139l-98 166h128l50 -72l74 72h134zM269 345c-50 0 -85 -31 -102 -75h182
c-3 49 -38 75 -80 75z" />
    <glyph glyph-name="Gcircumflex" unicode="&#x11c;" horiz-adv-x="822" 
d="M415 136c91 0 170 47 195 136h-199l23 127h351c6 -267 -159 -411 -386 -411c-204 0 -343 138 -343 324c0 227 185 400 417 400c165 0 301 -109 312 -248h-166c-17 55 -61 98 -158 98c-133 0 -239 -100 -239 -238c0 -104 76 -188 193 -188zM457 916h137l100 -165h-128
l-52 70l-75 -70h-132z" />
    <glyph glyph-name="gcircumflex" unicode="&#x11d;" horiz-adv-x="556" 
d="M320 13l6 33c-32 -26 -71 -41 -118 -41c-114 0 -193 92 -193 206c0 133 97 251 237 251c55 0 104 -25 135 -67l10 55h137l-78 -444c-22 -128 -107 -218 -252 -218c-153 0 -218 87 -219 176h138c1 -33 24 -56 82 -56c73 0 104 35 115 105zM266 676h138l98 -166h-128
l-50 72l-74 -72h-133zM251 129c62 0 106 49 106 116c0 53 -36 91 -85 91c-62 0 -107 -49 -107 -117c0 -52 35 -90 86 -90z" />
    <glyph glyph-name="Gbreve" unicode="&#x11e;" horiz-adv-x="822" 
d="M415 136c91 0 170 47 195 136h-199l23 127h351c6 -267 -159 -411 -386 -411c-204 0 -343 138 -343 324c0 227 185 400 417 400c165 0 301 -109 312 -248h-166c-17 55 -61 98 -158 98c-133 0 -239 -100 -239 -238c0 -104 76 -188 193 -188zM511 747
c-130 0 -167 87 -167 165h118c-2 -32 20 -55 61 -55c40 0 64 22 74 55h118c-16 -75 -77 -165 -204 -165z" />
    <glyph glyph-name="gbreve" unicode="&#x11f;" horiz-adv-x="556" 
d="M320 13l6 33c-32 -26 -71 -41 -118 -41c-114 0 -193 92 -193 206c0 133 97 251 237 251c55 0 104 -25 135 -67l10 55h137l-78 -444c-22 -128 -107 -218 -252 -218c-153 0 -218 87 -219 176h138c1 -33 24 -56 82 -56c73 0 104 35 115 105zM321 507
c-130 0 -170 87 -168 166h118c-2 -32 15 -56 56 -56c40 0 67 23 77 56h117c-16 -75 -73 -166 -200 -166zM251 129c62 0 106 49 106 116c0 53 -36 91 -85 91c-62 0 -107 -49 -107 -117c0 -52 35 -90 86 -90z" />
    <glyph glyph-name="Gdotaccent" unicode="&#x120;" horiz-adv-x="822" 
d="M415 136c91 0 170 47 195 136h-199l23 127h351c6 -267 -159 -411 -386 -411c-204 0 -343 138 -343 324c0 227 185 400 417 400c165 0 301 -109 312 -248h-166c-17 55 -61 98 -158 98c-133 0 -239 -100 -239 -238c0 -104 76 -188 193 -188zM428 829c0 50 39 92 91 92
c49 0 84 -35 84 -82c0 -50 -38 -92 -91 -92c-50 0 -84 36 -84 82z" />
    <glyph glyph-name="gdotaccent" unicode="&#x121;" horiz-adv-x="556" 
d="M320 13l6 33c-32 -26 -71 -41 -118 -41c-114 0 -193 92 -193 206c0 133 97 251 237 251c55 0 104 -25 135 -67l10 55h137l-78 -444c-22 -128 -107 -218 -252 -218c-153 0 -218 87 -219 176h138c1 -33 24 -56 82 -56c73 0 104 35 115 105zM251 129c62 0 106 49 106 116
c0 53 -36 91 -85 91c-62 0 -107 -49 -107 -117c0 -52 35 -90 86 -90zM238 589c0 49 39 90 90 90c48 0 82 -35 82 -80c0 -50 -37 -91 -89 -91c-49 0 -83 36 -83 81z" />
    <glyph glyph-name="Gcommaaccent" unicode="&#x122;" horiz-adv-x="822" 
d="M415 136c91 0 170 47 195 136h-199l23 127h351c6 -267 -159 -411 -386 -411c-204 0 -343 138 -343 324c0 227 185 400 417 400c165 0 301 -109 312 -248h-166c-17 55 -61 98 -158 98c-133 0 -239 -100 -239 -238c0 -104 76 -188 193 -188zM442 -41l-89 -204h-121l58 204
h152z" />
    <glyph glyph-name="gcommaaccent" unicode="&#x123;" horiz-adv-x="556" 
d="M320 13l6 33c-32 -26 -71 -41 -118 -41c-114 0 -193 92 -193 206c0 133 97 251 237 251c55 0 104 -25 135 -67l10 55h137l-78 -444c-22 -128 -107 -218 -252 -218c-153 0 -218 87 -219 176h138c1 -33 24 -56 82 -56c73 0 104 35 115 105zM251 129c62 0 106 49 106 116
c0 53 -36 91 -85 91c-62 0 -107 -49 -107 -117c0 -52 35 -90 86 -90zM233 511l87 203h118l-58 -203h-147z" />
    <glyph glyph-name="Hcircumflex" unicode="&#x124;" horiz-adv-x="751" 
d="M248 427h304l49 273h160l-123 -700h-160l48 277h-305l-48 -277h-160l123 700h160zM413 915h137l100 -165h-128l-52 70l-75 -70h-132z" />
    <glyph glyph-name="hcircumflex" unicode="&#x125;" horiz-adv-x="545" 
d="M345 462c109 0 169 -83 147 -212l-44 -250h-143l42 242c9 56 -13 89 -63 89c-52 0 -89 -36 -99 -96l-41 -235h-143l123 700h143l-51 -288c30 28 73 50 129 50zM314 915h137l100 -165h-128l-52 70l-75 -70h-132z" />
    <glyph glyph-name="Hbar" unicode="&#x126;" horiz-adv-x="758" 
d="M811 620l-20 -114h-61l-89 -506h-160l49 277h-305l-48 -277h-160l89 506h-61l20 114h61l14 80h160l-14 -80h304l14 80h160l-14 -80h61zM252 427h304l14 79h-304z" />
    <glyph glyph-name="hbar" unicode="&#x127;" horiz-adv-x="545" 
d="M434 622l-19 -113h-179l-17 -97c30 28 73 50 129 50c109 0 169 -83 147 -212l-44 -250h-143l42 242c9 56 -13 89 -63 89c-52 0 -89 -36 -99 -96l-41 -235h-143l89 509h-55l19 113h56l14 78h143l-14 -78h178z" />
    <glyph glyph-name="Itilde" unicode="&#x128;" horiz-adv-x="288" 
d="M297 700l-123 -700h-160l123 700h160zM348 892l85 -18c-23 -62 -65 -128 -138 -128c-50 0 -83 37 -120 37c-22 0 -36 -13 -47 -36l-85 18c23 63 66 129 138 129c51 0 84 -37 120 -37c23 0 36 12 47 35z" />
    <glyph glyph-name="itilde" unicode="&#x129;" horiz-adv-x="245" 
d="M223 450l-79 -450h-143l79 450h143zM363 637c-23 -63 -65 -130 -136 -130c-48 0 -76 37 -110 37c-21 0 -34 -13 -44 -35l-86 18c23 63 65 130 136 130c48 0 76 -38 110 -38c21 0 34 13 46 36z" />
    <glyph glyph-name="Imacron" unicode="&#x12a;" horiz-adv-x="288" 
d="M297 700l-123 -700h-160l123 700h160zM421 865l-20 -115h-351l21 115h350z" />
    <glyph glyph-name="imacron" unicode="&#x12b;" horiz-adv-x="245" 
d="M223 450l-79 -450h-143l79 450h143zM345 635l-20 -115h-322l20 115h322z" />
    <glyph glyph-name="Ibreve" unicode="&#x12c;" horiz-adv-x="288" 
d="M297 700l-123 -700h-160l123 700h160zM236 746c-130 0 -167 87 -167 165h118c-2 -32 20 -55 61 -55c40 0 64 22 74 55h118c-16 -75 -77 -165 -204 -165z" />
    <glyph glyph-name="ibreve" unicode="&#x12d;" horiz-adv-x="245" 
d="M223 450l-79 -450h-143l79 450h143zM175 507c-121 0 -162 87 -159 166h117c-1 -32 20 -56 52 -56s56 23 65 56h117c-15 -77 -74 -166 -192 -166z" />
    <glyph glyph-name="Iogonek" unicode="&#x12e;" horiz-adv-x="288" 
d="M154 -88l15 -75c-26 -16 -68 -35 -116 -35c-63 0 -113 30 -113 83c0 52 38 89 86 115h-12l123 700h160l-123 -700h-21c-39 -13 -84 -35 -86 -71c-1 -17 14 -27 36 -27c21 0 36 4 51 10z" />
    <glyph glyph-name="iogonek" unicode="&#x12f;" horiz-adv-x="245" 
d="M151 -85l15 -72c-24 -16 -74 -38 -118 -38c-65 0 -113 27 -113 81c0 52 36 88 81 114h-15l79 450h143l-79 -450h-4c-28 -10 -80 -30 -80 -67c0 -19 19 -28 39 -28c18 0 36 3 52 10zM92 592c0 49 38 89 90 89c47 0 82 -34 82 -79c0 -50 -38 -91 -90 -91
c-49 0 -82 36 -82 81z" />
    <glyph glyph-name="Idotaccent" unicode="&#x130;" horiz-adv-x="288" 
d="M297 700l-123 -700h-160l123 700h160zM153 828c0 50 39 92 91 92c49 0 84 -35 84 -82c0 -50 -38 -92 -91 -92c-50 0 -84 36 -84 82z" />
    <glyph glyph-name="IJ" unicode="&#x132;" horiz-adv-x="896" 
d="M297 700l-123 -700h-160l123 700h160zM910 700l-80 -454c-31 -172 -130 -258 -289 -258c-171 0 -244 108 -239 239h156c-2 -54 24 -86 93 -86c62 0 107 35 124 132l75 427h160z" />
    <glyph glyph-name="ij" unicode="&#x133;" horiz-adv-x="494" 
d="M223 450l-79 -450h-143l79 450h143zM92 592c0 49 38 89 90 89c47 0 82 -34 82 -79c0 -50 -38 -91 -90 -91c-49 0 -82 36 -82 81zM245 -22l83 472h143l-88 -504c-18 -98 -60 -168 -175 -168c-28 0 -68 4 -88 9l22 127c10 -1 26 -2 37 -2c38 0 57 16 66 66zM339 592
c0 49 39 89 90 89c48 0 82 -34 82 -79c0 -50 -37 -91 -89 -91c-49 0 -83 36 -83 81z" />
    <glyph glyph-name="Jcircumflex" unicode="&#x134;" horiz-adv-x="608" 
d="M622 700l-80 -454c-31 -172 -130 -258 -289 -258c-171 0 -244 108 -239 239h156c-2 -54 24 -86 93 -86c62 0 107 35 124 132l75 427h160zM502 915h137l100 -165h-128l-52 70l-75 -70h-132z" />
    <glyph glyph-name="jcircumflex" unicode="&#x135;" horiz-adv-x="249" 
d="M1 -22l83 472h143l-88 -504c-18 -98 -60 -168 -175 -168c-28 0 -68 4 -88 9l22 127c10 -1 26 -2 37 -2c38 0 57 16 66 66zM121 676h138l98 -166h-128l-50 72l-74 -72h-133z" />
    <glyph glyph-name="Kcommaaccent" unicode="&#x136;" horiz-adv-x="715" 
d="M777 700l-347 -313l238 -387h-184l-173 280l-106 -96l-32 -184h-160l123 700h160l-53 -301l333 301h201zM410 -41l-89 -204h-121l58 204h152z" />
    <glyph glyph-name="kcommaaccent" unicode="&#x137;" horiz-adv-x="522" 
d="M552 450l-232 -193l155 -257h-156l-103 170l-50 -41l-22 -129h-143l123 700h143l-70 -394l172 144h183zM301 -41l-87 -201h-118l58 201h147z" />
    <glyph glyph-name="kgreenlandic" unicode="&#x138;" horiz-adv-x="522" 
d="M552 450l-232 -193l155 -257h-156l-103 170l-50 -41l-22 -129h-143l78 450h144l-26 -144l172 144h183z" />
    <glyph glyph-name="Lacute" unicode="&#x139;" horiz-adv-x="592" 
d="M519 0h-506l123 700h160l-98 -555h346zM329 970l79 -95l-184 -129l-51 63z" />
    <glyph glyph-name="lacute" unicode="&#x13a;" horiz-adv-x="245" 
d="M267 700l-123 -700h-143l123 700h143zM309 972l79 -95l-184 -129l-51 63z" />
    <glyph glyph-name="Lcommaaccent" unicode="&#x13b;" horiz-adv-x="592" 
d="M519 0h-506l123 700h160l-98 -555h346zM365 -41l-89 -204h-121l58 204h152z" />
    <glyph glyph-name="lcommaaccent" unicode="&#x13c;" horiz-adv-x="245" 
d="M267 700l-123 -700h-143l123 700h143zM140 -41l-87 -201h-118l58 201h147z" />
    <glyph glyph-name="Lcaron" unicode="&#x13d;" horiz-adv-x="592" 
d="M519 0h-506l123 700h160l-98 -555h346zM333 455l46 245h150l-80 -245h-116z" />
    <glyph glyph-name="lcaron" unicode="&#x13e;" horiz-adv-x="348" 
d="M267 700l-123 -700h-143l123 700h143zM263 458l45 242h150l-79 -242h-116z" />
    <glyph glyph-name="Ldot" unicode="&#x13f;" horiz-adv-x="592" 
d="M519 0h-506l123 700h160l-98 -555h346zM328 362c5 54 50 95 103 95c54 0 89 -39 85 -90c-5 -54 -49 -95 -103 -95s-89 39 -85 90z" />
    <glyph glyph-name="ldot" unicode="&#x140;" horiz-adv-x="396" 
d="M267 700l-123 -700h-143l123 700h143zM237 272c5 50 47 88 96 88c51 0 84 -36 80 -84c-5 -50 -46 -89 -97 -89c-50 0 -83 37 -79 85z" />
    <glyph glyph-name="Nacute" unicode="&#x143;" horiz-adv-x="764" 
d="M136 701h151l248 -449l80 448h159l-124 -701h-151l-249 449l-78 -448h-159zM567 970l79 -95l-184 -129l-51 63z" />
    <glyph glyph-name="nacute" unicode="&#x144;" horiz-adv-x="545" 
d="M345 462c110 0 170 -82 147 -212l-44 -250h-143l42 242c9 56 -13 89 -63 89c-52 0 -89 -36 -99 -96l-41 -235h-143l78 450h138l-8 -45c29 30 75 57 136 57zM427 731l78 -95l-189 -133l-51 63z" />
    <glyph glyph-name="Ncommaaccent" unicode="&#x145;" horiz-adv-x="764" 
d="M136 701h151l248 -449l80 448h159l-124 -701h-151l-249 449l-78 -448h-159zM403 -41l-89 -204h-121l58 204h152z" />
    <glyph glyph-name="ncommaaccent" unicode="&#x146;" horiz-adv-x="545" 
d="M345 462c110 0 170 -82 147 -212l-44 -250h-143l42 242c9 56 -13 89 -63 89c-52 0 -89 -36 -99 -96l-41 -235h-143l78 450h138l-8 -45c29 30 75 57 136 57zM294 -41l-87 -201h-118l58 201h147z" />
    <glyph glyph-name="Ncaron" unicode="&#x147;" horiz-adv-x="764" 
d="M136 701h151l248 -449l80 448h159l-124 -701h-151l-249 449l-78 -448h-159zM536 749h-138l-99 165h127l52 -70l75 70h132z" />
    <glyph glyph-name="ncaron" unicode="&#x148;" horiz-adv-x="545" 
d="M345 462c110 0 170 -82 147 -212l-44 -250h-143l42 242c9 56 -13 89 -63 89c-52 0 -89 -36 -99 -96l-41 -235h-143l78 450h138l-8 -45c29 30 75 57 136 57zM391 510h-139l-98 166h128l50 -72l74 72h134z" />
    <glyph glyph-name="napostrophe" unicode="&#x149;" horiz-adv-x="719" 
d="M519 462c110 0 170 -82 147 -212l-44 -250h-143l42 242c9 56 -13 89 -63 89c-52 0 -89 -36 -99 -96l-41 -235h-143l78 450h138l-8 -45c29 30 75 57 136 57zM36 390l99 320h164l-139 -320h-124z" />
    <glyph glyph-name="Eng" unicode="&#x14a;" horiz-adv-x="764" 
d="M505 -6l-254 454l-79 -448h-159l123 701h151l249 -445l79 444h159l-131 -745c-21 -118 -76 -177 -198 -177c-44 0 -89 4 -118 12l23 126c15 -2 39 -5 62 -5c58 0 82 16 91 70z" />
    <glyph glyph-name="eng" unicode="&#x14b;" horiz-adv-x="545" 
d="M300 -22l47 264c9 56 -13 89 -63 89c-52 0 -89 -36 -99 -96l-41 -235h-143l78 450h138l-8 -45c29 30 75 57 136 57c110 0 170 -82 147 -212l-54 -304c-18 -98 -60 -168 -175 -168c-28 0 -68 4 -88 9l23 127c10 -1 25 -2 36 -2c38 0 57 16 66 66z" />
    <glyph glyph-name="Omacron" unicode="&#x14c;" horiz-adv-x="840" 
d="M471 712c195 0 336 -143 336 -326c0 -226 -189 -398 -415 -398c-196 0 -336 143 -336 326c0 226 188 398 415 398zM407 141c125 0 233 102 233 236c0 108 -76 182 -184 182c-124 0 -233 -102 -233 -235c0 -108 76 -183 184 -183zM697 865l-20 -115h-351l21 115h350z" />
    <glyph glyph-name="omacron" unicode="&#x14d;" horiz-adv-x="541" 
d="M278 462c132 0 228 -97 228 -218c0 -144 -120 -256 -263 -256c-133 0 -228 100 -228 220c0 144 119 254 263 254zM250 119c62 0 107 50 107 119c0 56 -36 94 -86 94c-62 0 -107 -50 -107 -121c0 -55 37 -92 86 -92zM505 631l-20 -115h-347l21 115h346z" />
    <glyph glyph-name="Obreve" unicode="&#x14e;" horiz-adv-x="840" 
d="M471 712c195 0 336 -143 336 -326c0 -226 -189 -398 -415 -398c-196 0 -336 143 -336 326c0 226 188 398 415 398zM407 141c125 0 233 102 233 236c0 108 -76 182 -184 182c-124 0 -233 -102 -233 -235c0 -108 76 -183 184 -183zM512 746c-130 0 -167 87 -167 165h118
c-2 -32 20 -55 61 -55c40 0 64 22 74 55h118c-16 -75 -77 -165 -204 -165z" />
    <glyph glyph-name="obreve" unicode="&#x14f;" horiz-adv-x="541" 
d="M278 462c132 0 228 -97 228 -218c0 -144 -120 -256 -263 -256c-133 0 -228 100 -228 220c0 144 119 254 263 254zM250 119c62 0 107 50 107 119c0 56 -36 94 -86 94c-62 0 -107 -50 -107 -121c0 -55 37 -92 86 -92zM322 507c-130 0 -170 87 -168 166h118
c-2 -32 15 -56 56 -56c40 0 67 23 77 56h117c-16 -75 -73 -166 -200 -166z" />
    <glyph glyph-name="Ohungarumlaut" unicode="&#x150;" horiz-adv-x="840" 
d="M471 712c195 0 336 -143 336 -326c0 -226 -189 -398 -415 -398c-196 0 -336 143 -336 326c0 226 188 398 415 398zM407 141c125 0 233 102 233 236c0 108 -76 182 -184 182c-124 0 -233 -102 -233 -235c0 -108 76 -183 184 -183zM566 903l-144 -158l-71 46l111 179z
M773 903l-143 -158l-72 46l111 179z" />
    <glyph glyph-name="ohungarumlaut" unicode="&#x151;" horiz-adv-x="541" 
d="M278 462c132 0 228 -97 228 -218c0 -144 -120 -256 -263 -256c-133 0 -228 100 -228 220c0 144 119 254 263 254zM250 119c62 0 107 50 107 119c0 56 -36 94 -86 94c-62 0 -107 -50 -107 -121c0 -55 37 -92 86 -92zM377 663l-144 -160l-72 46l112 182zM580 663l-144 -160
l-72 46l112 182z" />
    <glyph glyph-name="Racute" unicode="&#x154;" horiz-adv-x="697" 
d="M212 223l-39 -223h-160l123 700h306c167 0 249 -92 249 -212c0 -128 -86 -221 -210 -253l135 -235h-173l-126 223h-105zM237 364h153c69 0 134 30 134 111c0 51 -42 81 -110 81h-143zM533 970l79 -95l-184 -129l-51 63z" />
    <glyph glyph-name="racute" unicode="&#x155;" horiz-adv-x="375" 
d="M386 451l-24 -138c-11 3 -29 5 -45 5c-76 0 -126 -49 -138 -118l-35 -200h-143l78 450h138l-10 -55c31 34 80 59 141 59c12 0 31 -1 38 -3zM355 731l78 -95l-189 -133l-51 63z" />
    <glyph glyph-name="Rcommaaccent" unicode="&#x156;" horiz-adv-x="697" 
d="M212 223l-39 -223h-160l123 700h306c167 0 249 -92 249 -212c0 -128 -86 -221 -210 -253l135 -235h-173l-126 223h-105zM237 364h153c69 0 134 30 134 111c0 51 -42 81 -110 81h-143zM371 -41l-89 -204h-121l58 204h152z" />
    <glyph glyph-name="rcommaaccent" unicode="&#x157;" horiz-adv-x="375" 
d="M386 451l-24 -138c-11 3 -29 5 -45 5c-76 0 -126 -49 -138 -118l-35 -200h-143l78 450h138l-10 -55c31 34 80 59 141 59c12 0 31 -1 38 -3zM140 -42l-87 -201h-118l58 201h147z" />
    <glyph glyph-name="Rcaron" unicode="&#x158;" horiz-adv-x="697" 
d="M212 223l-39 -223h-160l123 700h306c167 0 249 -92 249 -212c0 -128 -86 -221 -210 -253l135 -235h-173l-126 223h-105zM237 364h153c69 0 134 30 134 111c0 51 -42 81 -110 81h-143zM503 750h-138l-99 165h127l52 -70l75 70h132z" />
    <glyph glyph-name="rcaron" unicode="&#x159;" horiz-adv-x="370" 
d="M386 451l-24 -138c-11 3 -29 5 -45 5c-76 0 -126 -49 -138 -118l-35 -200h-143l78 450h138l-10 -55c31 34 80 59 141 59c12 0 31 -1 38 -3zM319 510h-139l-98 166h128l50 -72l74 72h134z" />
    <glyph glyph-name="Sacute" unicode="&#x15a;" horiz-adv-x="642" 
d="M301 130c47 0 128 11 128 78c0 33 -23 61 -94 74l-69 12c-129 23 -187 93 -187 190c0 145 124 227 289 227c169 0 259 -90 254 -207h-155c-2 40 -33 66 -104 66c-52 0 -121 -11 -121 -72c0 -39 31 -62 102 -74l68 -12c128 -24 182 -86 182 -182
c0 -154 -127 -241 -304 -241c-174 0 -277 86 -270 215h156c1 -46 34 -74 125 -74zM494 971l79 -95l-184 -129l-51 63z" />
    <glyph glyph-name="sacute" unicode="&#x15b;" horiz-adv-x="429" 
d="M183 98c25 0 56 7 56 38c0 22 -14 32 -57 39l-35 6c-76 14 -118 61 -118 125c0 92 82 156 193 156c132 0 180 -68 180 -148h-127c0 22 -17 38 -51 38c-22 0 -51 -7 -51 -36c0 -24 23 -33 64 -39l33 -5c73 -12 113 -54 113 -121c0 -102 -86 -162 -205 -162
c-122 0 -184 64 -184 149h129c0 -24 22 -40 60 -40zM358 731l78 -95l-189 -133l-51 63z" />
    <glyph glyph-name="Scircumflex" unicode="&#x15c;" horiz-adv-x="642" 
d="M301 130c47 0 128 11 128 78c0 33 -23 61 -94 74l-69 12c-129 23 -187 93 -187 190c0 145 124 227 289 227c169 0 259 -90 254 -207h-155c-2 40 -33 66 -104 66c-52 0 -121 -11 -121 -72c0 -39 31 -62 102 -74l68 -12c128 -24 182 -86 182 -182
c0 -154 -127 -241 -304 -241c-174 0 -277 86 -270 215h156c1 -46 34 -74 125 -74zM350 915h137l100 -165h-128l-52 70l-75 -70h-132z" />
    <glyph glyph-name="scircumflex" unicode="&#x15d;" horiz-adv-x="429" 
d="M183 98c25 0 56 7 56 38c0 22 -14 32 -57 39l-35 6c-76 14 -118 61 -118 125c0 92 82 156 193 156c132 0 180 -68 180 -148h-127c0 22 -17 38 -51 38c-22 0 -51 -7 -51 -36c0 -24 23 -33 64 -39l33 -5c73 -12 113 -54 113 -121c0 -102 -86 -162 -205 -162
c-122 0 -184 64 -184 149h129c0 -24 22 -40 60 -40zM206 676h138l98 -166h-128l-50 72l-74 -72h-133z" />
    <glyph glyph-name="Scedilla" unicode="&#x15e;" horiz-adv-x="642" 
d="M264 -166h-139l88 161c-127 22 -199 100 -193 209h156c1 -46 34 -74 125 -74c47 0 128 11 128 78c0 33 -23 61 -94 74l-69 12c-129 23 -187 93 -187 190c0 145 124 227 289 227c169 0 259 -90 254 -207h-155c-2 40 -33 66 -104 66c-52 0 -121 -11 -121 -72
c0 -39 31 -62 102 -74l68 -12c128 -24 182 -86 182 -182c0 -141 -106 -225 -258 -239z" />
    <glyph glyph-name="scedilla" unicode="&#x15f;" horiz-adv-x="429" 
d="M155 -163h-133l87 160c-76 19 -115 74 -115 141h129c0 -24 22 -40 60 -40c25 0 56 7 56 38c0 22 -14 32 -57 39l-35 6c-76 14 -118 61 -118 125c0 92 82 156 193 156c132 0 180 -68 180 -148h-127c0 22 -17 38 -51 38c-22 0 -51 -7 -51 -36c0 -24 23 -33 64 -39l33 -5
c73 -12 113 -54 113 -121c0 -88 -64 -145 -158 -158z" />
    <glyph glyph-name="Tcommaaccent" unicode="&#x162;" horiz-adv-x="609" 
d="M664 700l-25 -145h-208l-97 -555h-159l97 555h-207l26 145h573zM325 -41l-89 -204h-121l58 204h152z" />
    <glyph glyph-name="tcommaaccent" unicode="&#x163;" horiz-adv-x="411" 
d="M47 450h85l23 130h138l-23 -130h139l-23 -126h-138l-23 -129c-9 -52 12 -73 64 -73c21 0 49 4 66 9l-22 -126c-21 -7 -53 -15 -89 -15c-113 0 -189 48 -165 187l26 147h-80zM291 -41l-87 -201h-118l58 201h147z" />
    <glyph glyph-name="Tcaron" unicode="&#x164;" horiz-adv-x="609" 
d="M664 700l-25 -145h-208l-97 -555h-159l97 555h-207l26 145h573zM459 750h-138l-99 165h127l52 -70l75 70h132z" />
    <glyph glyph-name="tcaron" unicode="&#x165;" horiz-adv-x="411" 
d="M47 450h85l23 130h138l-23 -130h139l-23 -126h-138l-23 -129c-9 -52 12 -73 64 -73c21 0 49 4 66 9l-22 -126c-21 -7 -53 -15 -89 -15c-113 0 -189 48 -165 187l26 147h-80zM325 495l45 242h150l-79 -242h-116z" />
    <glyph glyph-name="Tbar" unicode="&#x166;" horiz-adv-x="609" 
d="M510 377l-21 -120h-110l-45 -257h-159l45 257h-111l21 120h111l31 178h-207l26 145h573l-25 -145h-208l-31 -178h110z" />
    <glyph glyph-name="tbar" unicode="&#x167;" horiz-adv-x="411" 
d="M293 580l-23 -130h139l-23 -126h-138l-9 -47h126l-16 -93h-126c-4 -44 18 -62 66 -62c21 0 49 4 66 9l-22 -126c-21 -7 -53 -15 -89 -15c-113 0 -189 48 -165 187l1 7h-75l17 93h74l9 47h-80l22 126h85l23 130h138z" />
    <glyph glyph-name="Utilde" unicode="&#x168;" horiz-adv-x="736" 
d="M333 -12c-180 0 -308 103 -273 299l73 413h161l-71 -400c-20 -110 24 -161 120 -161c93 0 157 47 176 158l72 403h159l-74 -415c-35 -203 -164 -297 -343 -297zM572 892l85 -18c-23 -62 -65 -128 -138 -128c-50 0 -83 37 -120 37c-22 0 -36 -13 -47 -36l-85 18
c23 63 66 129 138 129c51 0 84 -37 120 -37c23 0 36 12 47 35z" />
    <glyph glyph-name="utilde" unicode="&#x169;" horiz-adv-x="544" 
d="M178 -12c-109 0 -169 82 -146 212l44 250h144l-42 -241c-10 -56 12 -89 61 -89c53 0 89 36 99 96l41 234h144l-79 -450h-138l7 44c-29 -31 -74 -56 -135 -56zM516 637c-23 -63 -65 -130 -138 -130c-50 0 -80 37 -117 37c-22 0 -35 -13 -45 -35l-86 18
c23 63 65 130 137 130c51 0 82 -38 118 -38c23 0 35 13 47 36z" />
    <glyph glyph-name="Umacron" unicode="&#x16a;" horiz-adv-x="736" 
d="M333 -12c-180 0 -308 103 -273 299l73 413h161l-71 -400c-20 -110 24 -161 120 -161c93 0 157 47 176 158l72 403h159l-74 -415c-35 -203 -164 -297 -343 -297zM645 865l-20 -115h-351l21 115h350z" />
    <glyph glyph-name="umacron" unicode="&#x16b;" horiz-adv-x="544" 
d="M178 -12c-109 0 -169 82 -146 212l44 250h144l-42 -241c-10 -56 12 -89 61 -89c53 0 89 36 99 96l41 234h144l-79 -450h-138l7 44c-29 -31 -74 -56 -135 -56zM505 631l-20 -115h-347l21 115h346z" />
    <glyph glyph-name="Ubreve" unicode="&#x16c;" horiz-adv-x="736" 
d="M333 -12c-180 0 -308 103 -273 299l73 413h161l-71 -400c-20 -110 24 -161 120 -161c93 0 157 47 176 158l72 403h159l-74 -415c-35 -203 -164 -297 -343 -297zM460 746c-130 0 -167 87 -167 165h118c-2 -32 20 -55 61 -55c40 0 64 22 74 55h118
c-16 -75 -77 -165 -204 -165z" />
    <glyph glyph-name="ubreve" unicode="&#x16d;" horiz-adv-x="544" 
d="M178 -12c-109 0 -169 82 -146 212l44 250h144l-42 -241c-10 -56 12 -89 61 -89c53 0 89 36 99 96l41 234h144l-79 -450h-138l7 44c-29 -31 -74 -56 -135 -56zM322 507c-130 0 -170 87 -168 166h118c-2 -32 15 -56 56 -56c40 0 67 23 77 56h117
c-16 -75 -73 -166 -200 -166z" />
    <glyph glyph-name="Uring" unicode="&#x16e;" horiz-adv-x="736" 
d="M333 -12c-180 0 -308 103 -273 299l73 413h161l-71 -400c-20 -110 24 -161 120 -161c93 0 157 47 176 158l72 403h159l-74 -415c-35 -203 -164 -297 -343 -297zM468 819c30 0 56 24 56 56c0 27 -21 48 -50 48c-30 0 -55 -24 -55 -57c0 -27 20 -47 49 -47zM462 747
c-70 0 -119 52 -119 114c0 71 57 134 137 134c72 0 120 -52 120 -116c0 -71 -59 -132 -138 -132z" />
    <glyph glyph-name="uring" unicode="&#x16f;" horiz-adv-x="544" 
d="M178 -12c-109 0 -169 82 -146 212l44 250h144l-42 -241c-10 -56 12 -89 61 -89c53 0 89 36 99 96l41 234h144l-79 -450h-138l7 44c-29 -31 -74 -56 -135 -56zM322 503c-70 0 -119 51 -119 114c0 71 57 134 137 134c72 0 120 -52 120 -116c0 -71 -59 -132 -138 -132z
M328 575c30 0 56 24 56 55c0 28 -21 49 -50 49c-30 0 -55 -24 -55 -57c0 -28 20 -47 49 -47z" />
    <glyph glyph-name="Uhungarumlaut" unicode="&#x170;" horiz-adv-x="736" 
d="M333 -12c-180 0 -308 103 -273 299l73 413h161l-71 -400c-20 -110 24 -161 120 -161c93 0 157 47 176 158l72 403h159l-74 -415c-35 -203 -164 -297 -343 -297zM514 903l-144 -158l-71 46l111 179zM721 903l-143 -158l-72 46l111 179z" />
    <glyph glyph-name="uhungarumlaut" unicode="&#x171;" horiz-adv-x="544" 
d="M178 -12c-109 0 -169 82 -146 212l44 250h144l-42 -241c-10 -56 12 -89 61 -89c53 0 89 36 99 96l41 234h144l-79 -450h-138l7 44c-29 -31 -74 -56 -135 -56zM580 663l-144 -160l-72 46l112 182zM377 663l-144 -160l-72 46l112 182z" />
    <glyph glyph-name="Uogonek" unicode="&#x172;" horiz-adv-x="736" 
d="M474 -86l15 -74c-27 -17 -73 -38 -125 -38c-65 0 -120 32 -120 90c0 41 20 73 51 98c-160 13 -268 115 -235 297l73 413h161l-71 -400c-20 -110 24 -161 120 -161c93 0 157 47 176 158l72 403h159l-74 -415c-29 -169 -123 -262 -257 -289c-25 -13 -46 -33 -46 -60
c0 -21 22 -33 41 -33c24 0 40 3 60 11z" />
    <glyph glyph-name="uogonek" unicode="&#x173;" horiz-adv-x="544" 
d="M432 -84l14 -74c-24 -19 -70 -37 -115 -37c-66 0 -116 29 -116 80c0 56 42 94 92 120l7 39c-29 -31 -75 -56 -136 -56c-109 0 -169 82 -146 212l44 250h144l-42 -241c-10 -56 12 -89 61 -89c53 0 89 36 99 96l41 234h144l-79 -450h-14c-30 -10 -89 -32 -89 -69
c0 -19 16 -26 40 -26c18 0 35 4 51 11z" />
    <glyph glyph-name="Wcircumflex" unicode="&#x174;" horiz-adv-x="1121" 
d="M715 700l63 -475l234 475h167l-354 -701h-172l-59 476l-230 -476h-167l-109 701h171l64 -472l233 472h159zM598 915h137l100 -165h-128l-52 70l-75 -70h-132z" />
    <glyph glyph-name="wcircumflex" unicode="&#x175;" horiz-adv-x="821" 
d="M452 -1l-44 266l-143 -266h-137l-86 451h155l40 -263l148 263h132l40 -261l139 261h141l-245 -451h-140zM406 676h138l98 -166h-128l-50 72l-74 -72h-133z" />
    <glyph glyph-name="Ycircumflex" unicode="&#x176;" horiz-adv-x="721" 
d="M257 700l120 -296l224 296h187l-354 -447l-44 -253h-159l44 250l-197 450h179zM399 915h137l100 -165h-128l-52 70l-75 -70h-132z" />
    <glyph glyph-name="ycircumflex" unicode="&#x177;" horiz-adv-x="521" 
d="M196 450l56 -211l130 211h159l-420 -666h-157l187 292l-113 374h158zM260 676h138l98 -166h-128l-50 72l-74 -72h-133z" />
    <glyph glyph-name="Zacute" unicode="&#x179;" horiz-adv-x="663" 
d="M594 144l-25 -144h-576l20 114l431 442h-352l26 144h571l-20 -115l-430 -441h355zM516 970l79 -95l-184 -129l-51 63z" />
    <glyph glyph-name="zacute" unicode="&#x17a;" horiz-adv-x="479" 
d="M52 324l22 126h399l-18 -100l-248 -223h209l-22 -127h-409l16 99l250 225h-199zM394 731l78 -95l-189 -133l-51 63z" />
    <glyph glyph-name="Zdotaccent" unicode="&#x17b;" horiz-adv-x="663" 
d="M594 144l-25 -144h-576l20 114l431 442h-352l26 144h571l-20 -115l-430 -441h355zM340 828c0 50 39 92 91 92c49 0 84 -35 84 -82c0 -50 -38 -92 -91 -92c-50 0 -84 36 -84 82z" />
    <glyph glyph-name="zdotaccent" unicode="&#x17c;" horiz-adv-x="479" 
d="M52 324l22 126h399l-18 -100l-248 -223h209l-22 -127h-409l16 99l250 225h-199zM213 589c0 49 39 90 90 90c48 0 82 -35 82 -80c0 -50 -37 -91 -89 -91c-49 0 -83 36 -83 81z" />
    <glyph glyph-name="Aringacute" unicode="&#x1fa;" horiz-adv-x="766" 
d="M541 0l-32 143h-300l-81 -143h-169l418 701h159l171 -701h-166zM425 522l-133 -234h185z" />
    <glyph glyph-name="aringacute" unicode="&#x1fb;" horiz-adv-x="556" 
d="M14 202c0 137 103 260 237 260c59 0 106 -25 136 -68l10 56h138l-80 -450h-137l6 36c-32 -30 -72 -48 -117 -48c-116 0 -193 90 -193 214zM319 496c-70 0 -119 51 -119 114c0 71 57 134 137 134c72 0 120 -52 120 -116c0 -71 -59 -132 -138 -132zM250 117
c62 0 107 52 107 121c0 56 -36 95 -86 95c-62 0 -107 -51 -107 -122c0 -55 35 -94 86 -94zM465 996l78 -95l-189 -133l-51 63zM325 568c30 0 56 24 56 55c0 28 -21 49 -50 49c-30 0 -55 -24 -55 -57c0 -28 20 -47 49 -47z" />
    <glyph glyph-name="AEacute" unicode="&#x1fc;" horiz-adv-x="1123" 
d="M1145 700l-26 -144h-365l-24 -132h339l-25 -144h-339l-24 -136h369l-25 -144h-529l26 147h-264l-123 -147h-183l596 700h597zM778 970l79 -95l-184 -129l-51 63zM378 290h169l45 255z" />
    <glyph glyph-name="aeacute" unicode="&#x1fd;" horiz-adv-x="801" 
d="M0 119c0 106 91 146 198 146h110c4 16 10 31 16 46c-6 21 -25 34 -59 34c-47 0 -66 -18 -74 -41h-136c14 81 88 158 217 158c59 0 104 -19 134 -48c42 30 93 48 149 48c125 0 210 -87 210 -200c0 -32 -7 -63 -17 -87h-304c9 -43 40 -70 85 -70c38 0 66 15 78 43h133
c-24 -78 -93 -160 -223 -160c-65 0 -123 28 -163 73c-35 -37 -87 -71 -179 -71c-91 0 -175 45 -175 129zM552 731l78 -95l-189 -133l-51 63zM552 345c-50 0 -84 -34 -100 -80h177c-2 52 -37 80 -77 80zM198 98c55 0 97 20 108 65c-1 4 -2 8 -2 12h-96c-33 0 -68 -7 -68 -41
c0 -25 21 -36 58 -36z" />
    <glyph glyph-name="Oslashacute" unicode="&#x1fe;" horiz-adv-x="844" 
d="M472 712c83 0 156 -26 212 -70l84 73l70 -84l-80 -69c32 -51 50 -111 50 -176c0 -226 -188 -398 -414 -398c-83 0 -156 25 -213 69l-83 -72l-70 84l79 69c-32 50 -50 110 -50 176c0 226 189 398 415 398zM224 324c0 -28 5 -54 14 -76l324 282c-29 19 -65 29 -105 29
c-124 0 -233 -102 -233 -235zM409 141c125 0 232 102 232 236c0 27 -5 52 -14 75l-323 -283c29 -18 65 -28 105 -28zM607 971l79 -95l-184 -129l-51 63z" />
    <glyph glyph-name="oslashacute" unicode="&#x1ff;" horiz-adv-x="544" 
d="M279 462c55 0 104 -17 142 -46l44 38l50 -59l-41 -36c21 -33 33 -73 33 -115c0 -144 -119 -256 -262 -256c-56 0 -104 17 -142 46l-45 -39l-51 59l43 37c-22 34 -33 74 -33 117c0 144 118 254 262 254zM428 739l78 -95l-189 -133l-51 63zM252 119c62 0 106 50 106 119
c0 9 -1 17 -3 25l-150 -132c13 -8 29 -12 47 -12zM165 211c0 -9 1 -16 2 -24l150 132c-13 8 -28 13 -44 13c-62 0 -108 -50 -108 -121z" />
    <glyph glyph-name="Scommaaccent" unicode="&#x218;" horiz-adv-x="642" 
d="M301 130c47 0 128 11 128 78c0 33 -23 61 -94 74l-69 12c-129 23 -187 93 -187 190c0 145 124 227 289 227c169 0 259 -90 254 -207h-155c-2 40 -33 66 -104 66c-52 0 -121 -11 -121 -72c0 -39 31 -62 102 -74l68 -12c128 -24 182 -86 182 -182
c0 -154 -127 -241 -304 -241c-174 0 -277 86 -270 215h156c1 -46 34 -74 125 -74zM347 -37l-89 -204h-121l58 204h152z" />
    <glyph glyph-name="scommaaccent" unicode="&#x219;" horiz-adv-x="429" 
d="M183 98c25 0 56 7 56 38c0 22 -14 32 -57 39l-35 6c-76 14 -118 61 -118 125c0 92 82 156 193 156c132 0 180 -68 180 -148h-127c0 22 -17 38 -51 38c-22 0 -51 -7 -51 -36c0 -24 23 -33 64 -39l33 -5c73 -12 113 -54 113 -121c0 -102 -86 -162 -205 -162
c-122 0 -184 64 -184 149h129c0 -24 22 -40 60 -40zM239 -41l-87 -201h-118l58 201h147z" />
    <glyph glyph-name="uni021B" unicode="&#x21b;" horiz-adv-x="411" 
d="M47 450h85l23 130h138l-23 -130h139l-23 -126h-138l-23 -129c-9 -52 12 -73 64 -73c21 0 49 4 66 9l-22 -126c-21 -7 -53 -15 -89 -15c-113 0 -189 48 -165 187l26 147h-80zM291 -41l-87 -201h-118l58 201h147z" />
    <glyph glyph-name="dotlessj" unicode="&#x237;" horiz-adv-x="249" 
d="M1 -22l83 472h143l-88 -504c-18 -98 -60 -168 -175 -168c-28 0 -68 4 -88 9l22 127c10 -1 26 -2 37 -2c38 0 57 16 66 66z" />
    <glyph glyph-name="uni02C9" unicode="&#x2c9;" 
d="M484 631l-20 -115h-347l21 115h346z" />
    <glyph glyph-name="Wgrave" unicode="&#x1e80;" horiz-adv-x="1121" 
d="M715 700l63 -475l234 475h167l-354 -701h-172l-59 476l-230 -476h-167l-109 701h171l64 -472l233 472h159zM485 875l113 95l117 -161l-74 -63z" />
    <glyph glyph-name="wgrave" unicode="&#x1e81;" horiz-adv-x="821" 
d="M452 -1l-44 266l-143 -266h-137l-86 451h155l40 -263l148 263h132l40 -261l139 261h141l-245 -451h-140zM289 636l113 95l121 -165l-74 -63z" />
    <glyph glyph-name="Wacute" unicode="&#x1e82;" horiz-adv-x="1121" 
d="M715 700l63 -475l234 475h167l-354 -701h-172l-59 476l-230 -476h-167l-109 701h171l64 -472l233 472h159zM745 970l79 -95l-184 -129l-51 63z" />
    <glyph glyph-name="wacute" unicode="&#x1e83;" horiz-adv-x="821" 
d="M452 -1l-44 266l-143 -266h-137l-86 451h155l40 -263l148 263h132l40 -261l139 261h141l-245 -451h-140zM559 731l78 -95l-189 -133l-51 63z" />
    <glyph glyph-name="wdieresis" unicode="&#x1e85;" horiz-adv-x="821" 
d="M452 -1l-44 266l-143 -266h-137l-86 451h155l40 -263l148 263h132l40 -261l139 261h141l-245 -451h-140zM268 587c0 49 39 89 90 89c47 0 81 -34 81 -79c0 -49 -37 -89 -89 -89c-48 0 -82 35 -82 79zM489 587c0 49 38 89 89 89c48 0 81 -34 81 -79c0 -49 -36 -89 -88 -89
c-49 0 -82 35 -82 79z" />
    <glyph glyph-name="Ygrave" unicode="&#x1ef2;" horiz-adv-x="721" 
d="M257 700l120 -296l224 296h187l-354 -447l-44 -253h-159l44 250l-197 450h179zM286 875l113 95l117 -161l-74 -63z" />
    <glyph glyph-name="ygrave" unicode="&#x1ef3;" horiz-adv-x="521" 
d="M196 450l56 -211l130 211h159l-420 -666h-157l187 292l-113 374h158zM142 636l113 95l121 -165l-74 -63z" />
    <glyph glyph-name="afii61289" unicode="&#x2113;" horiz-adv-x="507" 
d="M496 561c-12 -145 -135 -268 -293 -342c-5 -62 24 -85 88 -85c36 0 78 13 112 33l29 -114c-57 -35 -114 -61 -196 -61c-98 0 -212 42 -177 228l47 270c23 126 110 227 241 227c108 0 156 -62 149 -156zM245 460l-21 -120c76 47 137 115 144 204c2 31 -5 53 -36 53
c-42 0 -71 -46 -87 -137z" />
    <glyph glyph-name="estimated" unicode="&#x212e;" horiz-adv-x="840" 
d="M420 670c-89 0 -168 -36 -224 -95v-205h453v200c-56 61 -136 100 -229 100zM675 141l35 -26c-67 -71 -159 -125 -286 -125c-205 0 -364 159 -364 360s159 360 360 360c200 0 360 -158 360 -360c0 -7 -1 -13 -1 -20h-583v-205c56 -59 132 -95 228 -95
c112 0 195 46 251 111z" />
    <glyph glyph-name="uni00A0" unicode="&#xa0;" horiz-adv-x="211" 
 />
    <glyph glyph-name="uniF8FF" unicode="&#xf8ff;" horiz-adv-x="1300" 
d="M282 463c0 -7 -6 -11 -15 -11c-13 0 -21 4 -21 15h-23c1 -24 17 -35 45 -35c21 0 38 10 38 32c0 16 -8 26 -26 30l-17 4c-8 2 -14 5 -14 11s5 10 16 10c12 0 17 -6 17 -13h23c-2 21 -17 33 -41 33c-25 0 -39 -13 -39 -30c0 -20 13 -26 29 -30l17 -4c8 -2 11 -6 11 -12z
M398 516v22h-87v-22h31v-82h25v82h31zM678 434v104h-26v-104h26zM740 470l25 -36h28l-38 53l37 51h-29l-23 -33l-23 33h-29l37 -51l-38 -53h28zM253 355h56v22h-81v-104h25v35h51v22h-51v25zM486 272c32 0 49 16 49 46v59h-25v-55c0 -19 -8 -28 -24 -28s-24 9 -24 28v55h-25
v-59c0 -30 17 -46 49 -46zM645 273v104h-24v-64l-47 64h-25v-104h24v64l47 -64h25zM659 273h42c33 0 53 22 53 52s-20 52 -53 52h-42v-104zM904 336l-24 41h-29l40 -64v-40h25v40l40 64h-27zM223 614h854c3 0 5 3 5 5s-2 4 -5 4h-854c-2 0 -4 -2 -4 -4s2 -5 4 -5zM1205 646
v-719c0 -70 -31 -91 -101 -91h-907c-70 0 -101 21 -101 91v719c0 70 31 91 101 91h907c70 0 101 -21 101 -91zM223 188h854c3 0 5 3 5 5s-2 4 -5 4h-854c-2 0 -4 -2 -4 -4s2 -5 4 -5zM447 538h-20l-44 -104h26l7 19h42l7 -19h26zM450 473h-26l13 34zM568 538h-23l-20 -70
l-29 70h-28l44 -104h25l20 69l26 -69h26l33 104h-28l-22 -71zM370 272c31 0 55 22 55 53s-24 53 -55 53s-55 -22 -55 -53s24 -53 55 -53zM370 294c-17 0 -30 12 -30 31s13 31 30 31s30 -12 30 -31s-13 -31 -30 -31zM699 295h-15v60h15c20 0 30 -13 30 -30s-10 -30 -30 -30z
M790 326v30h21c10 0 18 -4 18 -15s-8 -15 -18 -15h-21zM856 273l-26 34c15 5 24 17 24 34c0 22 -15 36 -41 36h-48v-104h25v32h15l23 -32h28z" />
    <glyph glyph-name="asciicircum" unicode="^" horiz-adv-x="613" 
d="M455 700l134 -364h-167l-68 206l-140 -206h-173l263 364h151z" />
    <glyph glyph-name="underscore" unicode="_" horiz-adv-x="436" 
d="M-74 -138l17 94h434l-16 -94h-435z" />
    <glyph glyph-name="grave" unicode="`" 
d="M140 636l113 95l121 -165l-74 -63z" />
    <glyph glyph-name="asciitilde" unicode="~" 
d="M372 321l89 -13c-23 -77 -66 -145 -140 -145c-36 0 -61 12 -85 24c-21 10 -40 21 -64 21c-33 0 -50 -19 -60 -46l-89 13c23 77 66 145 140 145c36 0 61 -12 85 -24c21 -10 40 -21 64 -21c33 0 50 19 60 46z" />
    <glyph glyph-name="dieresis" unicode="&#xa8;" 
d="M108 587c0 49 39 89 90 89c47 0 81 -34 81 -79c0 -49 -37 -89 -89 -89c-48 0 -82 35 -82 79zM329 587c0 49 38 89 89 89c48 0 81 -34 81 -79c0 -49 -36 -89 -88 -89c-49 0 -82 35 -82 79z" />
    <glyph glyph-name="ring" unicode="&#x2da;" 
d="M307 575c30 0 56 24 56 55c0 28 -21 49 -50 49c-30 0 -55 -24 -55 -57c0 -28 20 -47 49 -47zM301 503c-70 0 -119 51 -119 114c0 71 57 134 137 134c72 0 120 -52 120 -116c0 -71 -59 -132 -138 -132z" />
    <glyph glyph-name="cedilla" unicode="&#xb8;" 
d="M208 -161h-133l89 163h118z" />
    <glyph glyph-name="ogonek" unicode="&#x2db;" 
d="M273 -84l14 -74c-24 -19 -70 -37 -115 -37c-66 0 -116 29 -116 80c0 91 112 136 189 156l26 -41c-30 -10 -89 -32 -89 -69c0 -19 16 -26 40 -26c18 0 35 4 51 11z" />
    <glyph glyph-name="atilde" unicode="&#xe3;" horiz-adv-x="556" 
d="M14 202c0 137 103 260 237 260c59 0 106 -25 136 -68l10 56h138l-80 -450h-137l6 36c-32 -30 -72 -48 -117 -48c-116 0 -193 90 -193 214zM515 637c-23 -63 -65 -130 -138 -130c-50 0 -80 37 -117 37c-22 0 -35 -13 -45 -35l-86 18c23 63 65 130 137 130
c51 0 82 -38 118 -38c23 0 35 13 47 36zM250 117c62 0 107 52 107 121c0 56 -36 95 -86 95c-62 0 -107 -51 -107 -122c0 -55 35 -94 86 -94z" />
    <glyph glyph-name="fi" unicode="&#xfb01;" horiz-adv-x="615" 
d="M47 450h75l12 69c24 136 81 191 199 191c37 0 85 -7 102 -12l-22 -125c-15 3 -36 4 -54 4c-51 0 -76 -25 -87 -85l-8 -42h115l-23 -126h-114l-56 -324h-143l57 324h-75zM593 450l-79 -450h-143l79 450h143zM462 592c0 49 38 89 90 89c47 0 82 -34 82 -79
c0 -50 -38 -91 -90 -91c-49 0 -82 36 -82 81z" />
    <glyph glyph-name="fl" unicode="&#xfb02;" horiz-adv-x="615" 
d="M47 450h75l12 69c24 136 81 191 199 191c37 0 85 -7 102 -12l-22 -125c-15 3 -36 4 -54 4c-51 0 -76 -25 -87 -85l-8 -42h115l-23 -126h-114l-56 -324h-143l57 324h-75zM637 700l-123 -700h-143l123 700h143z" />
    <glyph glyph-name="Atilde" unicode="&#xc3;" horiz-adv-x="766" 
d="M541 0l-32 143h-300l-81 -143h-169l418 701h159l171 -701h-166zM586 892l85 -18c-23 -62 -65 -128 -138 -128c-50 0 -83 37 -120 37c-22 0 -36 -13 -47 -36l-85 18c23 63 66 129 138 129c51 0 84 -37 120 -37c23 0 36 12 47 35zM425 522l-133 -234h185z" />
    <glyph glyph-name="zero" unicode="0" horiz-adv-x="686" 
d="M399 712c162 0 260 -115 260 -289c0 -197 -110 -435 -350 -435c-163 0 -260 116 -260 291c0 196 112 433 350 433zM320 133c133 0 178 173 178 287c0 89 -39 147 -109 147c-132 0 -179 -173 -179 -285c0 -90 40 -149 110 -149z" />
    <glyph glyph-name="one" unicode="1" horiz-adv-x="507" 
d="M174 0l97 550l-158 -45l-20 122l224 74h136l-123 -701h-156z" />
    <glyph glyph-name="two" unicode="2" horiz-adv-x="623" 
d="M353 574c-80 0 -115 -47 -127 -107h-153c16 109 100 245 296 245c158 0 240 -87 240 -195c0 -120 -93 -195 -199 -272l-147 -106h289l-24 -139h-530l19 111l290 215c56 41 142 92 142 174c0 43 -35 74 -96 74z" />
    <glyph glyph-name="three" unicode="3" horiz-adv-x="635" 
d="M359 574c-82 0 -116 -39 -129 -96h-150c21 114 102 234 299 234c138 0 237 -76 237 -193c0 -77 -52 -137 -121 -159c53 -14 88 -67 88 -133c0 -157 -135 -239 -296 -239c-154 0 -274 79 -262 239h152c-6 -62 32 -101 121 -101c62 0 130 23 130 97c0 46 -37 69 -101 69
h-69l22 126h70c57 0 107 20 107 83c0 46 -42 73 -98 73z" />
    <glyph glyph-name="four" unicode="4" horiz-adv-x="679" 
d="M618 701l-72 -411h107l-24 -137h-107l-27 -153h-155l27 153h-359l21 118l442 430h147zM205 290h186l37 216z" />
    <glyph glyph-name="five" unicode="5" horiz-adv-x="616" 
d="M286 125c68 0 127 40 127 118c0 48 -35 89 -110 89c-46 0 -89 -13 -118 -30l-119 32l79 366h457l-25 -138h-312l-28 -130c26 15 64 25 114 25c134 0 220 -83 220 -203c0 -160 -128 -266 -294 -266c-193 0 -265 110 -257 233h151c-4 -56 31 -96 115 -96z" />
    <glyph glyph-name="six" unicode="6" horiz-adv-x="644" 
d="M381 467c131 0 222 -92 222 -209c0 -156 -131 -270 -289 -270c-156 0 -267 93 -267 282c0 196 111 442 356 442c148 0 221 -108 223 -196h-148c-6 37 -36 64 -90 64c-86 0 -138 -68 -163 -161c38 31 86 48 156 48zM313 123c70 0 134 48 134 124c0 58 -44 98 -111 98
c-68 0 -135 -45 -135 -118c0 -59 47 -104 112 -104z" />
    <glyph glyph-name="seven" unicode="7" horiz-adv-x="591" 
d="M605 589l-393 -589h-177l378 561h-325l25 139h512z" />
    <glyph glyph-name="eight" unicode="8" horiz-adv-x="650" 
d="M292 -12c-166 0 -271 77 -271 193c0 89 64 160 157 184c-47 20 -79 75 -79 134c0 146 131 213 280 213c158 0 252 -84 252 -186c0 -89 -57 -146 -133 -172c57 -18 98 -73 98 -139c0 -162 -142 -227 -304 -227zM318 291c-59 0 -137 -18 -137 -89c0 -46 46 -80 124 -80
c61 0 135 15 135 88c0 46 -45 81 -122 81zM355 415c54 0 117 20 117 88c0 48 -44 77 -104 77c-54 0 -117 -24 -117 -90c0 -43 39 -75 104 -75z" />
    <glyph glyph-name="nine" unicode="9" horiz-adv-x="646" 
d="M287 233c-131 0 -221 92 -221 209c0 156 130 270 289 270c155 0 266 -93 266 -282c0 -196 -111 -442 -356 -442c-147 0 -221 108 -223 196h149c6 -37 35 -64 89 -64c85 0 138 68 163 160c-38 -30 -87 -47 -156 -47zM355 577c-70 0 -134 -48 -134 -124
c0 -58 44 -98 111 -98c68 0 135 45 135 118c0 59 -47 104 -112 104z" />
    <glyph glyph-name="ellipsis" unicode="&#x2026;" horiz-adv-x="813" 
d="M6 80c0 54 41 98 98 98c53 0 90 -37 90 -87c0 -54 -40 -99 -98 -99c-54 0 -90 38 -90 88zM277 80c0 54 42 98 98 98c53 0 90 -37 90 -87c0 -54 -40 -99 -98 -99c-54 0 -90 38 -90 88zM548 80c0 54 42 98 98 98c53 0 90 -37 90 -87c0 -54 -40 -99 -98 -99
c-54 0 -90 38 -90 88z" />
    <glyph glyph-name="fraction" unicode="&#x2044;" horiz-adv-x="265" 
d="M-55 0h-137l535 700h137z" />
    <glyph glyph-name="Lslash" unicode="&#x141;" horiz-adv-x="600" 
d="M436 536l40 -101l-242 -128l-28 -162h346l-25 -145h-505l38 215l-28 -14l-41 101l92 48l62 350h159l-46 -258z" />
    <glyph glyph-name="lslash" unicode="&#x142;" horiz-adv-x="277" 
d="M275 476l41 -100l-99 -53l-57 -323h-143l42 240l-36 -19l-41 100l101 53l57 326h143l-43 -242z" />
    <glyph glyph-name="mu" unicode="&#xb5;" horiz-adv-x="547" 
d="M196 -12c-25 0 -41 7 -52 16l-38 -219h-143l116 665h144l-43 -242c-10 -56 12 -88 61 -88c52 0 90 36 99 93l42 237h144l-79 -450h-138l8 48c-30 -36 -73 -60 -121 -60z" />
    <glyph glyph-name="florin" unicode="&#x192;" horiz-adv-x="664" 
d="M189 359h93l44 156c43 146 102 195 226 195c39 0 86 -6 103 -12l-36 -128c-15 3 -37 5 -55 5c-53 0 -81 -23 -100 -85l-38 -131h124l-35 -128h-125l-80 -281c-31 -107 -82 -172 -197 -172c-28 0 -65 4 -85 9l37 130c10 -1 25 -2 35 -2c40 0 59 12 75 68l70 248h-91z" />
    <glyph glyph-name="notequal" unicode="&#x2260;" horiz-adv-x="618" 
d="M548 492l-55 -75h66l-21 -119h-133l-69 -95h185l-21 -119h-251l-93 -127l-94 53l54 74h-70l21 119h137l69 95h-189l21 119h256l94 128z" />
    <glyph glyph-name="infinity" unicode="&#x221e;" horiz-adv-x="782" 
d="M756 337c0 -106 -78 -180 -190 -180c-75 0 -132 30 -185 93c-68 -64 -110 -93 -184 -93c-94 0 -158 72 -158 155c0 105 79 180 190 180c76 0 130 -32 184 -96c69 65 111 95 186 95c93 0 157 -71 157 -154zM223 259c34 0 57 11 108 58c-37 49 -55 62 -91 62
c-41 0 -75 -21 -75 -67c0 -30 23 -53 58 -53zM556 270c40 0 75 20 75 65c0 30 -24 54 -59 54s-57 -11 -108 -59c37 -48 55 -60 92 -60z" />
    <glyph glyph-name="lessequal" unicode="&#x2264;" horiz-adv-x="618" 
d="M97 284l21 122l444 163l-26 -140l-267 -90l236 -90l-23 -133zM478 100l-16 -100h-415l17 100h414z" />
    <glyph glyph-name="greaterequal" unicode="&#x2265;" horiz-adv-x="618" 
d="M541 406l-21 -122l-443 -168l24 141l267 89l-235 90l23 133zM56 0l17 100h414l-17 -100h-414z" />
    <glyph glyph-name="partialdiff" unicode="&#x2202;" horiz-adv-x="632" 
d="M298 466c69 0 131 -25 162 -62c4 19 7 38 7 60c0 75 -32 118 -94 118c-49 0 -87 -25 -100 -59h-145c18 83 111 189 256 189c160 0 235 -123 235 -269c0 -214 -120 -455 -368 -455c-135 0 -234 90 -234 213c0 143 123 265 281 265zM274 122c71 0 142 54 142 133
c0 52 -43 92 -104 92c-71 0 -141 -52 -141 -132c0 -52 44 -93 103 -93z" />
    <glyph glyph-name="summation" unicode="&#x2211;" horiz-adv-x="663" 
d="M296 352l-187 244l19 104h557l-24 -136h-346l126 -169l-15 -86l-192 -173h357l-23 -136h-569l18 104z" />
    <glyph glyph-name="product" unicode="&#x220f;" horiz-adv-x="752" 
d="M80 563l24 137h690l-24 -137h-111l-99 -563h-155l99 563h-158l-99 -563h-155l98 563h-110z" />
    <glyph glyph-name="pi" unicode="&#x3c0;" horiz-adv-x="668" 
d="M54 450h610l-23 -126h-127l-24 -137c-8 -51 11 -70 55 -70c16 0 44 3 62 8l-21 -121c-23 -8 -57 -14 -88 -14c-108 0 -177 46 -153 186l26 148h-90l-102 -324h-147l102 324h-103z" />
    <glyph glyph-name="integral" unicode="&#x222b;" horiz-adv-x="420" 
d="M28 -52c70 0 91 98 103 203c13 93 2 192 16 289c18 170 72 315 215 315c35 0 81 -6 97 -12l-22 -124c-14 2 -31 4 -46 4c-70 0 -90 -98 -103 -203c-12 -93 -2 -192 -16 -289c-18 -170 -72 -315 -215 -315c-35 0 -80 6 -97 12l22 124c14 -2 31 -4 46 -4z" />
    <glyph glyph-name="uni03A9" unicode="&#x3a9;" horiz-adv-x="822" 
d="M464 712c207 0 342 -127 342 -286c0 -127 -72 -229 -181 -295h104l-22 -131h-300l19 106c106 64 208 148 208 286c0 98 -69 169 -180 169c-137 0 -242 -105 -242 -247c0 -87 48 -153 121 -208l-18 -106h-299l22 131h118c-50 36 -102 126 -102 224c0 210 183 357 410 357z
" />
    <glyph glyph-name="logicalnot" unicode="&#xac;" horiz-adv-x="563" 
d="M54 421h480l-52 -297h-144l29 167h-335z" />
    <glyph glyph-name="radical" unicode="&#x221a;" horiz-adv-x="656" 
d="M27 231l21 119h199l44 -223l288 653h149l-392 -862h-140l-70 313h-99z" />
    <glyph glyph-name="approxequal" unicode="&#x2248;" horiz-adv-x="618" 
d="M418 230l101 -9c-27 -90 -71 -152 -153 -152c-75 0 -113 48 -164 48c-33 0 -48 -19 -58 -49l-101 9c27 90 72 152 153 152c75 0 114 -48 165 -48c33 0 47 19 57 49zM455 439l101 -10c-27 -89 -72 -151 -153 -151c-75 0 -114 48 -165 48c-32 0 -47 -19 -57 -49l-101 9
c27 89 72 152 153 152c75 0 114 -48 165 -48c32 0 47 19 57 49z" />
    <glyph glyph-name="Delta" unicode="&#x2206;" horiz-adv-x="696" 
d="M462 134l-79 354l-203 -354h282zM613 0h-631l12 73l388 638h82l162 -638z" />
    <glyph glyph-name="lozenge" unicode="&#x25ca;" horiz-adv-x="622" 
d="M593 350l-296 -362h-78l-168 362l296 362h78zM442 350l-86 191l-154 -191l86 -191z" />
    <glyph glyph-name="Omega" unicode="&#x2126;" horiz-adv-x="822" 
d="M464 712c207 0 342 -127 342 -286c0 -127 -72 -229 -181 -295h104l-22 -131h-300l19 106c106 64 208 148 208 286c0 98 -69 169 -180 169c-137 0 -242 -105 -242 -247c0 -87 48 -153 121 -208l-18 -106h-299l22 131h118c-50 36 -102 126 -102 224c0 210 183 357 410 357z
" />
    <glyph glyph-name="onedotenleader" unicode="&#x2024;" horiz-adv-x="271" 
d="M6 80c0 54 41 98 98 98c53 0 90 -37 90 -87c0 -54 -40 -99 -98 -99c-54 0 -90 38 -90 88z" />
    <glyph glyph-name="twodotenleader" unicode="&#x2025;" horiz-adv-x="542" 
d="M6 80c0 54 41 98 98 98c53 0 90 -37 90 -87c0 -54 -40 -99 -98 -99c-54 0 -90 38 -90 88zM277 80c0 54 42 98 98 98c53 0 90 -37 90 -87c0 -54 -40 -99 -98 -99c-54 0 -90 38 -90 88z" />
    <glyph glyph-name="zero.superior" unicode="&#x2070;" horiz-adv-x="404" 
d="M293 898c104 0 170 -80 170 -179c0 -114 -86 -217 -207 -217c-103 0 -169 79 -169 177c0 115 83 219 206 219zM264 610c53 0 76 57 76 108c0 41 -20 72 -55 72c-54 0 -76 -60 -76 -110c0 -41 21 -70 55 -70z" />
    <glyph glyph-name="four.superior" unicode="&#x2074;" horiz-adv-x="404" 
d="M439 889l-38 -214h53l-18 -99h-52l-12 -65h-118l12 65h-191l15 85l247 228h102zM207 675h78l15 84z" />
    <glyph glyph-name="five.superior" unicode="&#x2075;" horiz-adv-x="404" 
d="M263 602c26 0 51 12 51 44c0 19 -16 37 -47 37c-24 0 -38 -8 -47 -17l-104 15l49 208h287l-19 -105h-185l-11 -46c17 8 42 15 70 15c86 0 126 -51 126 -110c0 -85 -72 -141 -171 -141c-110 0 -163 52 -158 135h109c1 -21 17 -35 50 -35z" />
    <glyph glyph-name="six.superior" unicode="&#x2076;" horiz-adv-x="404" 
d="M310 758c74 0 131 -47 131 -113c0 -86 -81 -143 -167 -143c-104 0 -170 61 -170 164c0 126 75 232 207 232c91 0 140 -60 144 -122h-100c-3 18 -20 28 -46 28c-48 0 -72 -29 -81 -71c18 15 50 25 82 25zM273 598c27 0 56 13 56 43c0 23 -20 38 -52 38
c-28 0 -57 -12 -57 -42c0 -23 22 -39 53 -39z" />
    <glyph glyph-name="seven.superior" unicode="&#x2077;" horiz-adv-x="404" 
d="M449 796l-202 -285h-134l194 273h-176l18 105h316z" />
    <glyph glyph-name="eight.superior" unicode="&#x2078;" horiz-adv-x="404" 
d="M297 898c95 0 157 -43 157 -103c0 -41 -28 -72 -68 -90c26 -10 48 -40 48 -76c0 -90 -89 -127 -181 -127c-95 0 -166 41 -166 108c0 48 34 83 79 99c-23 10 -40 40 -40 69c0 86 88 120 171 120zM261 599c22 0 54 7 54 35c0 18 -17 32 -50 32c-24 0 -55 -7 -55 -37
c0 -17 21 -30 51 -30zM285 739c21 0 47 7 47 32c0 17 -14 29 -43 29c-21 0 -47 -6 -47 -32c0 -16 18 -29 43 -29z" />
    <glyph glyph-name="nine.superior" unicode="&#x2079;" horiz-adv-x="404" 
d="M239 642c-73 0 -131 47 -131 113c0 86 82 143 168 143c103 0 170 -61 170 -164c0 -127 -76 -232 -208 -232c-90 0 -140 60 -144 122h101c2 -18 20 -28 45 -28c48 0 72 29 82 71c-18 -15 -51 -25 -83 -25zM276 802c-27 0 -56 -13 -56 -43c0 -23 21 -38 52 -38
c28 0 58 12 58 42c0 23 -22 39 -54 39z" />
    <glyph glyph-name="parenleft.superior" unicode="&#x207d;" horiz-adv-x="294" 
d="M111 659c0 152 112 271 271 292l-18 -104c-84 -16 -135 -90 -135 -182c0 -59 29 -102 83 -112l-18 -104c-119 14 -183 100 -183 210z" />
    <glyph glyph-name="parenright.superior" unicode="&#x207e;" horiz-adv-x="294" 
d="M329 741c0 -152 -113 -271 -271 -292l17 104c85 16 136 90 136 182c0 59 -30 102 -83 112l18 104c119 -14 183 -100 183 -210z" />
    <glyph glyph-name="zero.inferior" unicode="&#x2080;" horiz-adv-x="404" 
d="M170 198c104 0 170 -80 170 -179c0 -114 -86 -217 -207 -217c-103 0 -169 79 -169 177c0 115 83 219 206 219zM141 -90c53 0 76 57 76 108c0 41 -20 72 -55 72c-54 0 -76 -60 -76 -110c0 -41 21 -70 55 -70z" />
    <glyph glyph-name="one.inferior" unicode="&#x2081;" horiz-adv-x="404" 
d="M94 -189l45 258l-99 -26l-9 100l148 46h101l-67 -378h-119z" />
    <glyph glyph-name="two.inferior" unicode="&#x2082;" horiz-adv-x="404" 
d="M161 92c-36 0 -54 -21 -58 -51h-113c10 78 61 157 185 157c96 0 153 -51 152 -118c-1 -58 -40 -98 -100 -134l-49 -30h128l-19 -105h-330l15 82l171 101c29 18 61 34 61 65c0 21 -19 33 -43 33z" />
    <glyph glyph-name="three.inferior" unicode="&#x2083;" horiz-adv-x="404" 
d="M160 95c-38 0 -53 -18 -58 -43h-109c11 77 69 146 181 146c86 0 152 -43 152 -106c0 -46 -27 -74 -64 -87c27 -10 46 -34 46 -71c0 -82 -82 -132 -169 -132c-111 0 -175 53 -167 150h109c0 -29 16 -47 58 -47c24 0 50 8 50 36c0 18 -12 27 -39 27h-26l13 71h32
c17 0 35 7 35 29c0 18 -19 27 -44 27z" />
    <glyph glyph-name="four.inferior" unicode="&#x2084;" horiz-adv-x="404" 
d="M316 189l-38 -214h53l-18 -99h-52l-12 -65h-118l12 65h-191l15 85l247 228h102zM84 -25h78l15 84z" />
    <glyph glyph-name="five.inferior" unicode="&#x2085;" horiz-adv-x="404" 
d="M140 -98c26 0 51 12 51 44c0 19 -16 37 -47 37c-24 0 -38 -8 -47 -17l-104 15l49 208h287l-19 -105h-185l-11 -46c17 8 42 15 70 15c86 0 126 -51 126 -110c0 -85 -72 -141 -171 -141c-110 0 -163 52 -158 135h109c1 -21 17 -35 50 -35z" />
    <glyph glyph-name="six.inferior" unicode="&#x2086;" horiz-adv-x="404" 
d="M187 58c74 0 131 -47 131 -113c0 -86 -81 -143 -167 -143c-104 0 -170 61 -170 164c0 126 75 232 207 232c91 0 140 -60 144 -122h-100c-3 18 -20 28 -46 28c-48 0 -72 -29 -81 -71c18 15 50 25 82 25zM150 -102c27 0 56 13 56 43c0 23 -20 38 -52 38
c-28 0 -57 -12 -57 -42c0 -23 22 -39 53 -39z" />
    <glyph glyph-name="seven.inferior" unicode="&#x2087;" horiz-adv-x="404" 
d="M326 96l-202 -285h-134l194 273h-176l18 105h316z" />
    <glyph glyph-name="eight.inferior" unicode="&#x2088;" horiz-adv-x="404" 
d="M174 198c95 0 157 -43 157 -103c0 -41 -28 -72 -68 -90c26 -10 48 -40 48 -76c0 -90 -89 -127 -181 -127c-95 0 -166 41 -166 108c0 48 34 83 79 99c-23 10 -40 40 -40 69c0 86 88 120 171 120zM138 -101c22 0 54 7 54 35c0 18 -17 32 -50 32c-24 0 -55 -7 -55 -37
c0 -17 21 -30 51 -30zM162 39c21 0 47 7 47 32c0 17 -14 29 -43 29c-21 0 -47 -6 -47 -32c0 -16 18 -29 43 -29z" />
    <glyph glyph-name="nine.inferior" unicode="&#x2089;" horiz-adv-x="404" 
d="M116 -58c-73 0 -131 47 -131 113c0 86 82 143 168 143c103 0 170 -61 170 -164c0 -127 -76 -232 -208 -232c-90 0 -140 60 -144 122h101c2 -18 20 -28 45 -28c48 0 72 29 82 71c-18 -15 -51 -25 -83 -25zM153 102c-27 0 -56 -13 -56 -43c0 -23 21 -38 52 -38
c28 0 58 12 58 42c0 23 -22 39 -54 39z" />
    <glyph glyph-name="parenleft.inferior" unicode="&#x208d;" horiz-adv-x="294" 
d="M-12 -41c0 152 112 271 271 292l-18 -104c-84 -16 -135 -90 -135 -182c0 -59 29 -102 83 -112l-18 -104c-119 14 -183 100 -183 210z" />
    <glyph glyph-name="parenright.inferior" unicode="&#x208e;" horiz-adv-x="294" 
d="M206 41c0 -152 -113 -271 -271 -292l17 104c85 16 136 90 136 182c0 59 -30 102 -83 112l18 104c119 -14 183 -100 183 -210z" />
    <glyph glyph-name="onethird" unicode="&#x2153;" horiz-adv-x="958" 
d="M276 0h-137l535 700h137zM746 284c-38 0 -53 -18 -58 -43h-109c11 77 69 146 181 146c86 0 152 -43 152 -106c0 -46 -27 -74 -64 -87c27 -10 46 -34 46 -71c0 -82 -82 -132 -169 -132c-111 0 -175 53 -167 150h109c0 -29 16 -47 58 -47c24 0 50 8 50 36
c0 18 -12 27 -39 27h-26l13 71h32c17 0 35 7 35 29c0 18 -19 27 -44 27zM184 322l45 258l-99 -26l-9 100l148 46h101l-67 -378h-119z" />
    <glyph glyph-name="twothirds" unicode="&#x2154;" horiz-adv-x="958" 
d="M251 603c-36 0 -54 -21 -58 -51h-113c10 78 61 157 185 157c96 0 153 -51 152 -118c-1 -58 -40 -98 -100 -134l-49 -30h128l-19 -105h-330l15 82l171 101c29 18 61 34 61 65c0 21 -19 33 -43 33zM316 0h-137l535 700h137zM746 284c-38 0 -53 -18 -58 -43h-109
c11 77 69 146 181 146c86 0 152 -43 152 -106c0 -46 -27 -74 -64 -87c27 -10 46 -34 46 -71c0 -82 -82 -132 -169 -132c-111 0 -175 53 -167 150h109c0 -29 16 -47 58 -47c24 0 50 8 50 36c0 18 -12 27 -39 27h-26l13 71h32c17 0 35 7 35 29c0 18 -19 27 -44 27z" />
    <glyph glyph-name="oneeighth" unicode="&#x215b;" horiz-adv-x="958" 
d="M278 0h-137l535 700h137zM760 387c95 0 157 -43 157 -103c0 -41 -28 -72 -68 -90c26 -10 48 -40 48 -76c0 -90 -89 -127 -181 -127c-95 0 -166 41 -166 108c0 48 34 83 79 99c-23 10 -40 40 -40 69c0 86 88 120 171 120zM724 88c22 0 54 7 54 35c0 18 -17 32 -50 32
c-24 0 -55 -7 -55 -37c0 -17 21 -30 51 -30zM748 228c21 0 47 7 47 32c0 17 -14 29 -43 29c-21 0 -47 -6 -47 -32c0 -16 18 -29 43 -29zM184 322l45 258l-99 -26l-9 100l148 46h101l-67 -378h-119z" />
    <glyph glyph-name="threeeighths" unicode="&#x215c;" horiz-adv-x="958" 
d="M250 606c-38 0 -53 -18 -58 -43h-109c11 77 69 146 181 146c86 0 152 -43 152 -106c0 -46 -27 -74 -64 -87c27 -10 46 -34 46 -71c0 -82 -82 -132 -169 -132c-111 0 -175 53 -167 150h109c0 -29 16 -47 58 -47c24 0 50 8 50 36c0 18 -12 27 -39 27h-26l13 71h32
c17 0 35 7 35 29c0 18 -19 27 -44 27zM291 0h-137l535 700h137zM760 387c95 0 157 -43 157 -103c0 -41 -28 -72 -68 -90c26 -10 48 -40 48 -76c0 -90 -89 -127 -181 -127c-95 0 -166 41 -166 108c0 48 34 83 79 99c-23 10 -40 40 -40 69c0 86 88 120 171 120zM724 88
c22 0 54 7 54 35c0 18 -17 32 -50 32c-24 0 -55 -7 -55 -37c0 -17 21 -30 51 -30zM748 228c21 0 47 7 47 32c0 17 -14 29 -43 29c-21 0 -47 -6 -47 -32c0 -16 18 -29 43 -29z" />
    <glyph glyph-name="fiveeighths" unicode="&#x215d;" horiz-adv-x="958" 
d="M230 413c26 0 51 12 51 44c0 19 -16 37 -47 37c-24 0 -38 -8 -47 -17l-104 15l49 208h287l-19 -105h-185l-11 -46c17 8 42 15 70 15c86 0 126 -51 126 -110c0 -85 -72 -141 -171 -141c-110 0 -163 52 -158 135h109c1 -21 17 -35 50 -35zM289 0h-137l535 700h137zM760 387
c95 0 157 -43 157 -103c0 -41 -28 -72 -68 -90c26 -10 48 -40 48 -76c0 -90 -89 -127 -181 -127c-95 0 -166 41 -166 108c0 48 34 83 79 99c-23 10 -40 40 -40 69c0 86 88 120 171 120zM724 88c22 0 54 7 54 35c0 18 -17 32 -50 32c-24 0 -55 -7 -55 -37
c0 -17 21 -30 51 -30zM748 228c21 0 47 7 47 32c0 17 -14 29 -43 29c-21 0 -47 -6 -47 -32c0 -16 18 -29 43 -29z" />
    <glyph glyph-name="seveneighths" unicode="&#x215e;" horiz-adv-x="958" 
d="M416 607l-202 -285h-134l194 273h-176l18 105h316zM247 0h-137l535 700h137zM760 387c95 0 157 -43 157 -103c0 -41 -28 -72 -68 -90c26 -10 48 -40 48 -76c0 -90 -89 -127 -181 -127c-95 0 -166 41 -166 108c0 48 34 83 79 99c-23 10 -40 40 -40 69c0 86 88 120 171 120
zM724 88c22 0 54 7 54 35c0 18 -17 32 -50 32c-24 0 -55 -7 -55 -37c0 -17 21 -30 51 -30zM748 228c21 0 47 7 47 32c0 17 -14 29 -43 29c-21 0 -47 -6 -47 -32c0 -16 18 -29 43 -29z" />
    <glyph glyph-name="uni03BC" unicode="&#x3bc;" horiz-adv-x="547" 
d="M196 -12c-25 0 -41 7 -52 16l-38 -219h-143l116 665h144l-43 -242c-10 -56 12 -88 61 -88c52 0 90 36 99 93l42 237h144l-79 -450h-138l8 48c-30 -36 -73 -60 -121 -60z" />
    <glyph glyph-name="arrowleft" unicode="&#x2190;" horiz-adv-x="684" 
d="M19 246l292 249l50 -23l-69 -161l358 6l-25 -142l-355 6l12 -161l-58 -23z" />
    <glyph glyph-name="arrowup" unicode="&#x2191;" horiz-adv-x="702" 
d="M406 597l205 -249l-33 -54l-153 39l-55 -344h-142l66 345l-167 -40l-14 54z" />
    <glyph glyph-name="arrowright" unicode="&#x2192;" horiz-adv-x="684" 
d="M447 495l205 -249l-293 -249l-50 23l68 161l-357 -6l25 142l355 -6l-12 161z" />
    <glyph glyph-name="arrowdown" unicode="&#x2193;" horiz-adv-x="702" 
d="M284 -91l-204 249l32 54l153 -40l55 345h142l-67 -345l169 40l14 -54z" />
    <glyph glyph-name="arrowboth" unicode="&#x2194;" horiz-adv-x="895" 
d="M18 243l293 249l50 -23l-68 -160h317l-11 160l58 23l205 -249l-293 -249l-50 24l68 159h-318l12 -159l-58 -24z" />
    <glyph glyph-name="arrowupdn" unicode="&#x2195;" horiz-adv-x="702" 
d="M274 -152l-205 250l33 53l152 -40l49 285l-164 -39l-15 54l293 249l205 -249l-32 -54l-154 39l-50 -285l167 40l14 -53z" />
    <glyph glyph-name="arrowupleft" unicode="&#x2196;" horiz-adv-x="684" 
d="M147 473h353l12 -55l-162 -88l213 -248l-110 -93l-204 256l-113 -145l-51 21z" />
    <glyph glyph-name="arrowupright" unicode="&#x2197;" horiz-adv-x="684" 
d="M251 473h352l-62 -352l-58 -21l-63 145l-294 -256l-76 93l300 248l-130 88z" />
    <glyph glyph-name="arrowdownright" unicode="&#x2198;" horiz-adv-x="684" 
d="M520 0h-352l-12 55l161 88l-213 248l110 94l203 -257l113 146l52 -21z" />
    <glyph glyph-name="arrowdownleft" unicode="&#x2199;" horiz-adv-x="684" 
d="M417 0h-353l62 353l58 21l62 -146l294 257l77 -94l-300 -248l131 -88z" />
    <glyph glyph-name="Q" unicode="Q" horiz-adv-x="844" 
d="M392 0c-196 0 -336 145 -336 320c0 219 188 392 415 392c195 0 336 -144 336 -319c0 -106 -57 -196 -127 -251h98l-24 -142h-362zM407 153c125 0 233 104 233 230c0 101 -76 176 -184 176c-124 0 -233 -102 -233 -228c0 -100 78 -178 184 -178z" />
    <glyph glyph-name="a.alt" unicode="&#xe001;" horiz-adv-x="517" 
d="M262 345c-47 0 -64 -21 -71 -42h-137c14 80 84 159 221 159c145 0 210 -81 190 -200l-46 -262h-141l6 39c-28 -26 -70 -49 -131 -49c-78 0 -153 42 -153 127c0 102 90 143 197 143h126l1 7c9 49 -10 78 -62 78zM202 98c55 0 98 28 106 74h-102c-38 0 -66 -7 -66 -38
c0 -25 23 -36 62 -36z" />
    <glyph glyph-name="g.alt" unicode="&#xe002;" horiz-adv-x="526" 
d="M270 461c27 0 52 -5 76 -14l194 4l-20 -113h-63c4 -13 6 -26 6 -39c0 -116 -105 -190 -229 -190c-27 0 -52 4 -75 12c-15 -6 -28 -17 -28 -34c0 -20 19 -25 44 -25h110c92 0 147 -46 147 -116c0 -136 -127 -178 -254 -178c-135 0 -219 53 -219 124c0 51 39 93 86 106
c-25 9 -48 36 -48 70c0 50 40 84 86 102c-26 29 -42 64 -42 101c0 117 104 190 229 190zM246 219c42 0 82 26 82 73c0 34 -29 60 -70 60c-43 0 -82 -28 -82 -74c0 -34 29 -59 70 -59zM241 -42h-90c-32 0 -55 -13 -55 -40c0 -32 39 -44 98 -44c62 0 102 12 102 49
c0 23 -20 35 -55 35z" />
    <glyph glyph-name="n.superior" unicode="&#x207f;" horiz-adv-x="441" 
d="M368 898c88 0 139 -60 120 -164l-39 -223h-118l36 203c9 49 -10 76 -54 76c-46 0 -77 -31 -86 -80l-35 -199h-118l67 378h112l-7 -41c26 28 67 50 122 50z" />
    <glyph glyph-name="longs" unicode="&#x17f;" horiz-adv-x="301" 
d="M230 492l-86 -492h-143l90 519c24 136 82 191 200 191c36 0 85 -7 102 -12l-22 -125c-16 3 -36 4 -54 4c-51 0 -76 -25 -87 -85z" />
    <glyph glyph-name="uniE000" unicode="&#xe000;" horiz-adv-x="0" 
 />
    <glyph glyph-name="cr" 
 />
    <glyph glyph-name="acute" unicode="&#xb4;" 
d="M387 731l78 -95l-189 -133l-51 63z" />
    <glyph glyph-name="commaaccent" unicode="&#xf6c3;" 
d="M278 -41l-87 -201h-118l58 201h147z" />
    <glyph glyph-name="dieresis.alt" unicode="&#xe020;" 
d="M111 587c0 49 38 89 89 89c48 0 81 -34 81 -79c0 -49 -36 -89 -88 -89c-49 0 -82 35 -82 79zM326 587c0 49 39 89 90 89c47 0 81 -34 81 -79c0 -49 -37 -89 -89 -89c-48 0 -82 35 -82 79z" />
    <glyph glyph-name="circumflex.alt" unicode="&#xe021;" 
d="M248 677h134l88 -166h-126l-40 72l-64 -72h-131z" />
    <glyph glyph-name="tilde.alt" unicode="&#xe022;" 
d="M490 637c-23 -63 -65 -130 -136 -130c-48 0 -76 37 -110 37c-21 0 -34 -13 -44 -35l-86 18c23 63 65 130 136 130c48 0 76 -38 110 -38c21 0 34 13 46 36z" />
    <glyph glyph-name="macron.alt" unicode="&#xe023;" 
d="M472 635l-20 -115h-322l20 115h322z" />
    <glyph glyph-name="breve.alt" unicode="&#xe024;" 
d="M302 508c-121 0 -162 87 -159 166h117c-1 -32 20 -56 52 -56s56 23 65 56h117c-15 -77 -74 -166 -192 -166z" />
    <glyph glyph-name="ogonek.alt" unicode="&#xe025;" 
d="M316 -154c-27 -20 -74 -39 -122 -39c-66 0 -116 36 -116 91c0 91 106 132 187 154l18 -32c-33 -16 -83 -38 -83 -80c0 -21 21 -33 42 -33c20 0 40 4 56 12z" />
    <glyph glyph-name="ogonek.alt01" unicode="&#xe026;" 
d="M282 -85l15 -72c-24 -16 -74 -38 -118 -38c-65 0 -113 27 -113 81c0 87 100 129 179 154l26 -40c-28 -10 -80 -30 -80 -67c0 -19 19 -28 39 -28c18 0 36 3 52 10z" />
    <glyph glyph-name="caron.alt" unicode="&#xe027;" 
d="M212 458l45 242h150l-79 -242h-116z" />
    <glyph glyph-name="croat.alt" unicode="&#xe028;" 
d="M497 622l-19 -113h-377l19 113h377z" />
    <glyph glyph-name="bar.alt" unicode="&#xe029;" 
d="M497 622l-19 -113h-377l19 113h377z" />
    <glyph glyph-name="commaaccent.alt" unicode="&#xe02a;" 
d="M204 511l87 203h118l-58 -203h-147z" />
    <glyph glyph-name="aacute.alt" unicode="&#xe003;" horiz-adv-x="517" 
d="M262 345c-47 0 -64 -21 -71 -42h-137c14 80 84 159 221 159c145 0 210 -81 190 -200l-46 -262h-141l6 39c-28 -26 -70 -49 -131 -49c-78 0 -153 42 -153 127c0 102 90 143 197 143h126l1 7c9 49 -10 78 -62 78zM412 731l78 -95l-189 -133l-51 63zM202 98
c55 0 98 28 106 74h-102c-38 0 -66 -7 -66 -38c0 -25 23 -36 62 -36z" />
    <glyph glyph-name="agrave.alt" unicode="&#xe004;" horiz-adv-x="517" 
d="M262 345c-47 0 -64 -21 -71 -42h-137c14 80 84 159 221 159c145 0 210 -81 190 -200l-46 -262h-141l6 39c-28 -26 -70 -49 -131 -49c-78 0 -153 42 -153 127c0 102 90 143 197 143h126l1 7c9 49 -10 78 -62 78zM141 636l113 95l121 -165l-74 -63zM202 98
c55 0 98 28 106 74h-102c-38 0 -66 -7 -66 -38c0 -25 23 -36 62 -36z" />
    <glyph glyph-name="acircumflex.alt" unicode="&#xe005;" horiz-adv-x="517" 
d="M262 345c-47 0 -64 -21 -71 -42h-137c14 80 84 159 221 159c145 0 210 -81 190 -200l-46 -262h-141l6 39c-28 -26 -70 -49 -131 -49c-78 0 -153 42 -153 127c0 102 90 143 197 143h126l1 7c9 49 -10 78 -62 78zM259 676h138l98 -166h-128l-50 72l-74 -72h-133zM202 98
c55 0 98 28 106 74h-102c-38 0 -66 -7 -66 -38c0 -25 23 -36 62 -36z" />
    <glyph glyph-name="adieresis.alt" unicode="&#xe006;" horiz-adv-x="517" 
d="M262 345c-47 0 -64 -21 -71 -42h-137c14 80 84 159 221 159c145 0 210 -81 190 -200l-46 -262h-141l6 39c-28 -26 -70 -49 -131 -49c-78 0 -153 42 -153 127c0 102 90 143 197 143h126l1 7c9 49 -10 78 -62 78zM121 587c0 49 39 89 90 89c47 0 81 -34 81 -79
c0 -49 -37 -89 -89 -89c-48 0 -82 35 -82 79zM342 587c0 49 38 89 89 89c48 0 81 -34 81 -79c0 -49 -36 -89 -88 -89c-49 0 -82 35 -82 79zM202 98c55 0 98 28 106 74h-102c-38 0 -66 -7 -66 -38c0 -25 23 -36 62 -36z" />
    <glyph glyph-name="atilde.alt" unicode="&#xe007;" horiz-adv-x="517" 
d="M262 345c-47 0 -64 -21 -71 -42h-137c14 80 84 159 221 159c145 0 210 -81 190 -200l-46 -262h-141l6 39c-28 -26 -70 -49 -131 -49c-78 0 -153 42 -153 127c0 102 90 143 197 143h126l1 7c9 49 -10 78 -62 78zM508 637c-23 -63 -65 -130 -138 -130c-50 0 -80 37 -117 37
c-22 0 -35 -13 -45 -35l-86 18c23 63 65 130 137 130c51 0 82 -38 118 -38c23 0 35 13 47 36zM202 98c55 0 98 28 106 74h-102c-38 0 -66 -7 -66 -38c0 -25 23 -36 62 -36z" />
    <glyph glyph-name="aring.alt" unicode="&#xe008;" horiz-adv-x="517" 
d="M262 345c-47 0 -64 -21 -71 -42h-137c14 80 84 159 221 159c145 0 210 -81 190 -200l-46 -262h-141l6 39c-28 -26 -70 -49 -131 -49c-78 0 -153 42 -153 127c0 102 90 143 197 143h126l1 7c9 49 -10 78 -62 78zM314 503c-70 0 -119 51 -119 114c0 71 57 134 137 134
c72 0 120 -52 120 -116c0 -71 -59 -132 -138 -132zM202 98c55 0 98 28 106 74h-102c-38 0 -66 -7 -66 -38c0 -25 23 -36 62 -36zM320 575c30 0 56 24 56 55c0 28 -21 49 -50 49c-30 0 -55 -24 -55 -57c0 -28 20 -47 49 -47z" />
    <glyph glyph-name="amacron.alt" unicode="&#xe009;" horiz-adv-x="517" 
d="M262 345c-47 0 -64 -21 -71 -42h-137c14 80 84 159 221 159c145 0 210 -81 190 -200l-46 -262h-141l6 39c-28 -26 -70 -49 -131 -49c-78 0 -153 42 -153 127c0 102 90 143 197 143h126l1 7c9 49 -10 78 -62 78zM497 631l-20 -115h-347l21 115h346zM202 98
c55 0 98 28 106 74h-102c-38 0 -66 -7 -66 -38c0 -25 23 -36 62 -36z" />
    <glyph glyph-name="abreve.alt" unicode="&#xe00a;" horiz-adv-x="517" 
d="M262 345c-47 0 -64 -21 -71 -42h-137c14 80 84 159 221 159c145 0 210 -81 190 -200l-46 -262h-141l6 39c-28 -26 -70 -49 -131 -49c-78 0 -153 42 -153 127c0 102 90 143 197 143h126l1 7c9 49 -10 78 -62 78zM314 507c-130 0 -170 87 -168 166h118
c-2 -32 15 -56 56 -56c40 0 67 23 77 56h117c-16 -75 -73 -166 -200 -166zM202 98c55 0 98 28 106 74h-102c-38 0 -66 -7 -66 -38c0 -25 23 -36 62 -36z" />
    <glyph glyph-name="aogonek.alt" unicode="&#xe00b;" horiz-adv-x="517" 
d="M404 -84l14 -74c-24 -19 -70 -37 -115 -37c-66 0 -116 29 -116 80c0 56 42 94 92 120l5 34c-28 -26 -70 -49 -131 -49c-78 0 -153 42 -153 127c0 102 90 143 197 143h126l1 7c9 49 -10 78 -62 78c-47 0 -64 -21 -71 -42h-137c14 80 84 159 221 159
c145 0 210 -81 190 -200l-46 -262h-17c-30 -10 -89 -32 -89 -69c0 -19 16 -26 40 -26c18 0 35 4 51 11zM202 98c55 0 98 28 106 74h-102c-38 0 -66 -7 -66 -38c0 -25 23 -36 62 -36z" />
    <glyph glyph-name="aringacute.alt" unicode="&#xe00c;" horiz-adv-x="517" 
d="M262 345c-47 0 -64 -21 -71 -42h-137c14 80 84 159 221 159c145 0 210 -81 190 -200l-46 -262h-141l6 39c-28 -26 -70 -49 -131 -49c-78 0 -153 42 -153 127c0 102 90 143 197 143h126l1 7c9 49 -10 78 -62 78zM312 496c-70 0 -119 51 -119 114c0 71 57 134 137 134
c72 0 120 -52 120 -116c0 -71 -59 -132 -138 -132zM459 996l78 -95l-189 -133l-51 63zM202 98c55 0 98 28 106 74h-102c-38 0 -66 -7 -66 -38c0 -25 23 -36 62 -36zM318 568c30 0 56 24 56 55c0 28 -21 49 -50 49c-30 0 -55 -24 -55 -57c0 -28 20 -47 49 -47z" />
    <glyph glyph-name="gcircumflex.alt" unicode="&#xe00d;" horiz-adv-x="526" 
d="M270 461c27 0 52 -5 76 -14l194 4l-20 -113h-63c4 -13 6 -26 6 -39c0 -116 -105 -190 -229 -190c-27 0 -52 4 -75 12c-15 -6 -28 -17 -28 -34c0 -20 19 -25 44 -25h110c92 0 147 -46 147 -116c0 -136 -127 -178 -254 -178c-135 0 -219 53 -219 124c0 51 39 93 86 106
c-25 9 -48 36 -48 70c0 50 40 84 86 102c-26 29 -42 64 -42 101c0 117 104 190 229 190zM256 676h138l98 -166h-128l-50 72l-74 -72h-133zM246 219c42 0 82 26 82 73c0 34 -29 60 -70 60c-43 0 -82 -28 -82 -74c0 -34 29 -59 70 -59zM241 -42h-90c-32 0 -55 -13 -55 -40
c0 -32 39 -44 98 -44c62 0 102 12 102 49c0 23 -20 35 -55 35z" />
    <glyph glyph-name="gbreve.alt" unicode="&#xe00e;" horiz-adv-x="526" 
d="M270 461c27 0 52 -5 76 -14l194 4l-20 -113h-63c4 -13 6 -26 6 -39c0 -116 -105 -190 -229 -190c-27 0 -52 4 -75 12c-15 -6 -28 -17 -28 -34c0 -20 19 -25 44 -25h110c92 0 147 -46 147 -116c0 -136 -127 -178 -254 -178c-135 0 -219 53 -219 124c0 51 39 93 86 106
c-25 9 -48 36 -48 70c0 50 40 84 86 102c-26 29 -42 64 -42 101c0 117 104 190 229 190zM311 507c-130 0 -170 87 -168 166h118c-2 -32 15 -56 56 -56c40 0 67 23 77 56h117c-16 -75 -73 -166 -200 -166zM246 219c42 0 82 26 82 73c0 34 -29 60 -70 60
c-43 0 -82 -28 -82 -74c0 -34 29 -59 70 -59zM241 -42h-90c-32 0 -55 -13 -55 -40c0 -32 39 -44 98 -44c62 0 102 12 102 49c0 23 -20 35 -55 35z" />
    <glyph glyph-name="gdotaccent.alt" unicode="&#xe00f;" horiz-adv-x="526" 
d="M270 461c27 0 52 -5 76 -14l194 4l-20 -113h-63c4 -13 6 -26 6 -39c0 -116 -105 -190 -229 -190c-27 0 -52 4 -75 12c-15 -6 -28 -17 -28 -34c0 -20 19 -25 44 -25h110c92 0 147 -46 147 -116c0 -136 -127 -178 -254 -178c-135 0 -219 53 -219 124c0 51 39 93 86 106
c-25 9 -48 36 -48 70c0 50 40 84 86 102c-26 29 -42 64 -42 101c0 117 104 190 229 190zM228 589c0 49 39 90 90 90c48 0 82 -35 82 -80c0 -50 -37 -91 -89 -91c-49 0 -83 36 -83 81zM246 219c42 0 82 26 82 73c0 34 -29 60 -70 60c-43 0 -82 -28 -82 -74
c0 -34 29 -59 70 -59zM241 -42h-90c-32 0 -55 -13 -55 -40c0 -32 39 -44 98 -44c62 0 102 12 102 49c0 23 -20 35 -55 35z" />
    <glyph glyph-name="gcommaaccent.alt" unicode="&#xe010;" horiz-adv-x="526" 
d="M270 461c27 0 52 -5 76 -14l194 4l-20 -113h-63c4 -13 6 -26 6 -39c0 -116 -105 -190 -229 -190c-27 0 -52 4 -75 12c-15 -6 -28 -17 -28 -34c0 -20 19 -25 44 -25h110c92 0 147 -46 147 -116c0 -136 -127 -178 -254 -178c-135 0 -219 53 -219 124c0 51 39 93 86 106
c-25 9 -48 36 -48 70c0 50 40 84 86 102c-26 29 -42 64 -42 101c0 117 104 190 229 190zM220 511l87 203h118l-58 -203h-147zM246 219c42 0 82 26 82 73c0 34 -29 60 -70 60c-43 0 -82 -28 -82 -74c0 -34 29 -59 70 -59zM241 -42h-90c-32 0 -55 -13 -55 -40
c0 -32 39 -44 98 -44c62 0 102 12 102 49c0 23 -20 35 -55 35z" />
    <glyph glyph-name="grave.cap" unicode="&#xe011;" 
d="M187 875l113 95l117 -161l-74 -63z" />
    <glyph glyph-name="acute.cap" unicode="&#xe012;" 
d="M424 970l79 -95l-184 -129l-51 63z" />
    <glyph glyph-name="dieresis.cap" unicode="&#xe013;" 
d="M146 826c0 49 38 89 89 89c47 0 81 -34 81 -79c0 -49 -37 -90 -88 -90c-49 0 -82 35 -82 80zM375 826c0 49 38 89 89 89c47 0 81 -34 81 -79c0 -49 -37 -90 -89 -90c-48 0 -81 35 -81 80z" />
    <glyph glyph-name="circumflex.cap" unicode="&#xe014;" 
d="M288 915h137l100 -165h-128l-52 70l-75 -70h-132z" />
    <glyph glyph-name="tilde.cap" unicode="&#xe015;" 
d="M454 892l85 -18c-23 -62 -65 -128 -138 -128c-50 0 -83 37 -120 37c-22 0 -36 -13 -47 -36l-85 18c23 63 66 129 138 129c51 0 84 -37 120 -37c23 0 36 12 47 35z" />
    <glyph glyph-name="macron.cap" unicode="&#xe016;" 
d="M527 865l-20 -115h-351l21 115h350z" />
    <glyph glyph-name="breve.cap" unicode="&#xe017;" 
d="M342 746c-130 0 -167 87 -167 165h118c-2 -32 20 -55 61 -55c40 0 64 22 74 55h118c-16 -75 -77 -165 -204 -165z" />
    <glyph glyph-name="dotaccent.cap" unicode="&#xe018;" 
d="M259 828c0 50 39 92 91 92c49 0 84 -35 84 -82c0 -50 -38 -92 -91 -92c-50 0 -84 36 -84 82z" />
    <glyph glyph-name="ring.cap" unicode="&#xe019;" 
d="M350 819c30 0 56 24 56 56c0 27 -21 48 -50 48c-30 0 -55 -24 -55 -57c0 -27 20 -47 49 -47zM344 747c-70 0 -119 52 -119 114c0 71 57 134 137 134c72 0 120 -52 120 -116c0 -71 -59 -132 -138 -132z" />
    <glyph glyph-name="cedilla.cap" unicode="&#xe01a;" 
d="M209 -164h-139l91 166h124z" />
    <glyph glyph-name="hungarumlaut.cap" unicode="&#xe01b;" 
d="M371 904l-144 -158l-71 46l111 179zM578 904l-143 -158l-72 46l111 179z" />
    <glyph glyph-name="ogonek.cap" unicode="&#xe01c;" 
d="M274 -87l15 -74c-24 -17 -70 -37 -116 -37c-69 0 -120 30 -120 82c0 92 119 136 193 156l25 -40c-35 -11 -91 -34 -91 -71c0 -18 15 -27 38 -27c19 0 41 4 56 11z" />
    <glyph glyph-name="caron.cap" unicode="&#xe01d;" 
d="M405 750h-138l-99 165h127l52 -70l75 70h132z" />
    <glyph glyph-name="commaaccent.cap" unicode="&#xe01e;" 
d="M281 -41l-89 -204h-121l58 204h152z" />
    <glyph glyph-name="bar.cap" unicode="&#xe01f;" 
d="M502 638l-21 -120h-380l21 120h380z" />
    <glyph glyph-name="ogonek.calt" unicode="&#xe02b;" 
d="M280 -86l15 -74c-27 -17 -73 -38 -125 -38c-65 0 -120 32 -120 90c0 94 111 142 201 165l25 -40c-34 -11 -97 -35 -97 -81c0 -21 22 -33 41 -33c24 0 40 3 60 11z" />
    <glyph glyph-name="ogonek.calt01" unicode="&#xe02c;" 
d="M270 -88l15 -75c-26 -16 -68 -35 -116 -35c-63 0 -113 30 -113 83c0 87 106 131 188 155l25 -40c-39 -13 -84 -35 -86 -71c-1 -17 14 -27 36 -27c21 0 36 4 51 10z" />
    <glyph glyph-name="uni021A" unicode="&#x21a;" horiz-adv-x="609" 
d="M664 700l-25 -145h-208l-97 -555h-159l97 555h-207l26 145h573zM325 -41l-89 -204h-121l58 204h152z" />
    <glyph glyph-name="caron.calt" unicode="&#xe02d;" 
d="M211 455l46 245h150l-80 -245h-116z" />
    <glyph glyph-name="zero.old" unicode="&#xe030;" horiz-adv-x="611" 
d="M324 497c139 0 240 -101 240 -234c0 -154 -126 -274 -292 -274c-139 0 -240 101 -240 234c0 154 127 274 292 274zM284 122c73 0 127 56 127 137c0 61 -42 105 -99 105c-74 0 -127 -57 -127 -137c0 -61 42 -105 99 -105z" />
    <glyph glyph-name="one.old" unicode="&#xe031;" horiz-adv-x="513" 
d="M31 128h141l37 208l-118 -24l-15 117l175 56h133l-63 -357h134l-22 -128h-424z" />
    <glyph glyph-name="two.old" unicode="&#xe032;" horiz-adv-x="515" 
d="M266 370c-56 0 -77 -27 -85 -66h-142c14 95 88 193 245 193c131 0 199 -63 199 -148c0 -87 -64 -137 -150 -185l-65 -36h187l-22 -128h-435l19 111l208 116c46 25 103 54 103 102c0 25 -19 41 -62 41z" />
    <glyph glyph-name="three.old" unicode="&#xe033;" horiz-adv-x="615" 
d="M311 359c-76 0 -104 -43 -116 -90h-150c16 109 93 229 285 229c128 0 227 -74 227 -185c0 -77 -44 -136 -113 -160c51 -19 91 -62 91 -135c0 -154 -126 -245 -293 -245c-159 0 -268 89 -262 239h152c-3 -63 39 -100 120 -100c67 0 127 30 127 96c0 49 -34 74 -103 74h-71
l22 124h67c58 0 104 26 104 85c0 43 -37 68 -87 68z" />
    <glyph glyph-name="four.old" unicode="&#xe034;" horiz-adv-x="655" 
d="M551 485l-63 -357h120l-22 -128h-120l-38 -215h-154l37 215h-335l20 118l407 367h148zM167 128h167l32 181z" />
    <glyph glyph-name="five.old" unicode="&#xe035;" horiz-adv-x="613" 
d="M24 120l82 365h455l-24 -135h-311l-32 -133c26 14 74 26 125 26c133 0 217 -89 217 -203c0 -167 -131 -267 -297 -267c-180 0 -263 107 -257 235h151c-1 -56 33 -100 118 -100c71 0 130 43 130 118c0 52 -37 93 -113 93c-51 0 -91 -13 -119 -29z" />
    <glyph glyph-name="six.old" unicode="&#xe036;" horiz-adv-x="634" 
d="M376 458c124 0 216 -90 216 -203c0 -152 -123 -267 -282 -267c-148 0 -264 94 -264 281c0 200 118 443 356 443c144 0 216 -101 219 -195h-146c-5 36 -35 65 -85 65c-88 0 -140 -78 -168 -177c36 32 85 53 154 53zM310 123c67 0 128 45 128 121c0 54 -43 95 -106 95
c-67 0 -132 -44 -132 -118c0 -55 46 -98 110 -98z" />
    <glyph glyph-name="seven.old" unicode="&#xe037;" horiz-adv-x="575" 
d="M554 376l-393 -591h-178l378 564h-313l24 136h501z" />
    <glyph glyph-name="eight.old" unicode="&#xe038;" horiz-adv-x="637" 
d="M286 -12c-165 0 -262 77 -262 189c0 92 60 163 154 190c-45 21 -78 77 -78 135c0 143 128 210 275 210c158 0 243 -83 243 -184c0 -85 -56 -148 -132 -174c53 -16 96 -71 96 -138c0 -160 -133 -228 -296 -228zM313 293c-60 0 -131 -22 -131 -93c0 -48 42 -78 116 -78
c64 0 130 18 130 90c0 47 -40 81 -115 81zM348 413c54 0 114 24 114 90c0 49 -40 77 -98 77c-55 0 -114 -25 -114 -91c0 -43 36 -76 98 -76z" />
    <glyph glyph-name="nine.old" unicode="&#xe039;" horiz-adv-x="634" 
d="M243 28c-124 0 -216 89 -216 203c0 151 124 267 282 267c148 0 264 -94 264 -281c0 -204 -118 -444 -356 -444c-144 0 -216 102 -219 195h146c5 -35 35 -64 86 -64c87 0 140 77 167 175c-37 -31 -86 -51 -154 -51zM310 362c-68 0 -128 -45 -128 -120
c0 -54 42 -95 106 -95c66 0 132 44 132 117c0 55 -47 98 -110 98z" />
    <glyph glyph-name="zero.tab" unicode="&#xe03a;" horiz-adv-x="644" 
d="M377 712c156 0 255 -115 255 -289c0 -197 -110 -435 -343 -435c-156 0 -254 116 -254 291c0 196 111 435 342 433zM299 133c126 0 171 173 171 287c0 89 -38 147 -102 147c-125 0 -172 -173 -172 -285c0 -90 40 -149 103 -149z" />
    <glyph glyph-name="one.tab" unicode="&#xe03b;" horiz-adv-x="644" 
d="M249 0l97 550l-177 -53l-20 123l243 81h136l-123 -701h-156z" />
    <glyph glyph-name="two.tab" unicode="&#xe03c;" horiz-adv-x="644" 
d="M364 574c-80 0 -115 -47 -127 -107h-153c16 109 100 245 296 245c158 0 240 -87 240 -195c0 -120 -93 -195 -199 -272l-147 -106h289l-24 -139h-530l19 111l290 215c56 41 142 92 142 174c0 43 -35 74 -96 74z" />
    <glyph glyph-name="three.tab" unicode="&#xe03d;" horiz-adv-x="644" 
d="M365 574c-82 0 -116 -39 -129 -96h-150c21 114 102 234 299 234c138 0 237 -76 237 -193c0 -77 -52 -137 -121 -159c53 -14 88 -67 88 -133c0 -157 -135 -239 -296 -239c-154 0 -274 79 -262 239h152c-6 -62 32 -101 121 -101c62 0 130 23 130 97c0 46 -37 69 -101 69
h-69l22 126h70c57 0 107 20 107 83c0 46 -42 73 -98 73z" />
    <glyph glyph-name="four.tab" unicode="&#xe03e;" horiz-adv-x="644" 
d="M603 701l-72 -411h107l-24 -137h-107l-27 -153h-155l27 153h-359l21 118l442 430h147zM190 290h186l37 216z" />
    <glyph glyph-name="five.tab" unicode="&#xe03f;" horiz-adv-x="644" 
d="M306 125c68 0 127 40 127 118c0 48 -35 89 -110 89c-46 0 -89 -13 -118 -30l-119 32l79 366h457l-25 -138h-312l-28 -130c26 15 64 25 114 25c134 0 220 -83 220 -203c0 -160 -128 -266 -294 -266c-193 0 -265 110 -257 233h151c-4 -56 31 -96 115 -96z" />
    <glyph glyph-name="six.tab" unicode="&#xe040;" horiz-adv-x="644" 
d="M385 467c131 0 222 -92 222 -209c0 -156 -131 -270 -289 -270c-156 0 -267 93 -267 282c0 196 111 442 356 442c148 0 221 -108 223 -196h-148c-6 37 -36 64 -90 64c-86 0 -138 -68 -163 -161c38 31 86 48 156 48zM317 123c70 0 134 48 134 124c0 58 -44 98 -111 98
c-68 0 -135 -45 -135 -118c0 -59 47 -104 112 -104z" />
    <glyph glyph-name="seven.tab" unicode="&#xe041;" horiz-adv-x="644" 
d="M631 589l-393 -589h-177l378 561h-325l25 139h512z" />
    <glyph glyph-name="eight.tab" unicode="&#xe042;" horiz-adv-x="644" 
d="M289 -12c-166 0 -271 77 -271 193c0 89 64 160 157 184c-47 20 -79 75 -79 134c0 146 131 213 280 213c158 0 252 -84 252 -186c0 -89 -57 -146 -133 -172c57 -18 98 -73 98 -139c0 -162 -142 -227 -304 -227zM315 291c-59 0 -137 -18 -137 -89c0 -46 46 -80 124 -80
c61 0 135 15 135 88c0 46 -45 81 -122 81zM352 415c54 0 117 20 117 88c0 48 -44 77 -104 77c-54 0 -117 -24 -117 -90c0 -43 39 -75 104 -75z" />
    <glyph glyph-name="nine.tab" unicode="&#xe043;" horiz-adv-x="644" 
d="M287 233c-131 0 -221 92 -221 209c0 156 130 270 289 270c155 0 266 -93 266 -282c0 -196 -111 -442 -356 -442c-147 0 -221 108 -223 196h149c6 -37 35 -64 89 -64c85 0 138 68 163 160c-38 -30 -87 -47 -156 -47zM355 577c-70 0 -134 -48 -134 -124
c0 -58 44 -98 111 -98c68 0 135 45 135 118c0 59 -47 104 -112 104z" />
    <glyph glyph-name="zero.otab" unicode="&#xe044;" horiz-adv-x="644" 
d="M341 497c139 0 240 -101 240 -234c0 -154 -126 -274 -292 -274c-139 0 -240 101 -240 234c0 154 127 274 292 274zM301 122c73 0 127 56 127 137c0 61 -42 105 -99 105c-74 0 -127 -57 -127 -137c0 -61 42 -105 99 -105z" />
    <glyph glyph-name="one.otab" unicode="&#xe045;" horiz-adv-x="644" 
d="M87 128h161l37 208l-137 -31l-16 117l195 63h133l-63 -357h156l-22 -128h-466z" />
    <glyph glyph-name="two.otab" unicode="&#xe046;" horiz-adv-x="644" 
d="M327 370c-56 0 -77 -27 -85 -66h-142c14 95 88 193 245 193c131 0 199 -63 199 -148c0 -87 -64 -137 -150 -185l-65 -36h187l-22 -128h-435l19 111l208 116c46 25 103 54 103 102c0 25 -19 41 -62 41z" />
    <glyph glyph-name="three.otab" unicode="&#xe047;" horiz-adv-x="644" 
d="M328 359c-76 0 -104 -43 -116 -90h-150c16 109 93 229 285 229c128 0 227 -74 227 -185c0 -77 -44 -136 -113 -160c51 -19 91 -62 91 -135c0 -154 -126 -245 -293 -245c-159 0 -268 89 -262 239h152c-3 -63 39 -100 120 -100c67 0 127 30 127 96c0 49 -34 74 -103 74h-71
l22 124h67c58 0 104 26 104 85c0 43 -37 68 -87 68z" />
    <glyph glyph-name="four.otab" unicode="&#xe048;" horiz-adv-x="644" 
d="M547 485l-63 -357h120l-22 -128h-120l-38 -215h-154l37 215h-335l20 118l407 367h148zM163 128h167l32 181z" />
    <glyph glyph-name="five.otab" unicode="&#xe049;" horiz-adv-x="644" 
d="M48 120l82 365h455l-24 -135h-311l-32 -133c26 14 74 26 125 26c133 0 217 -89 217 -203c0 -167 -131 -267 -297 -267c-180 0 -263 107 -257 235h151c-1 -56 33 -100 118 -100c71 0 130 43 130 118c0 52 -37 93 -113 93c-51 0 -91 -13 -119 -29z" />
    <glyph glyph-name="six.otab" unicode="&#xe04a;" horiz-adv-x="644" 
d="M386 458c124 0 216 -90 216 -203c0 -152 -123 -267 -282 -267c-148 0 -264 94 -264 281c0 200 118 443 356 443c144 0 216 -101 219 -195h-146c-5 36 -35 65 -85 65c-88 0 -140 -78 -168 -177c36 32 85 53 154 53zM320 123c67 0 128 45 128 121c0 54 -43 95 -106 95
c-67 0 -132 -44 -132 -118c0 -55 46 -98 110 -98z" />
    <glyph glyph-name="seven.otab" unicode="&#xe04b;" horiz-adv-x="644" 
d="M589 376l-393 -591h-178l378 564h-313l24 136h501z" />
    <glyph glyph-name="eight.otab" unicode="&#xe04c;" horiz-adv-x="644" 
d="M290 -12c-165 0 -262 77 -262 189c0 92 60 163 154 190c-45 21 -78 77 -78 135c0 143 128 210 275 210c158 0 243 -83 243 -184c0 -85 -56 -148 -132 -174c53 -16 96 -71 96 -138c0 -160 -133 -228 -296 -228zM317 293c-60 0 -131 -22 -131 -93c0 -48 42 -78 116 -78
c64 0 130 18 130 90c0 47 -40 81 -115 81zM352 413c54 0 114 24 114 90c0 49 -40 77 -98 77c-55 0 -114 -25 -114 -91c0 -43 36 -76 98 -76z" />
    <glyph glyph-name="nine.otab" unicode="&#xe04d;" horiz-adv-x="644" 
d="M245 28c-124 0 -216 89 -216 203c0 151 124 267 282 267c148 0 264 -94 264 -281c0 -204 -118 -444 -356 -444c-144 0 -216 102 -219 195h146c5 -35 35 -64 86 -64c87 0 140 77 167 175c-37 -31 -86 -51 -154 -51zM312 362c-68 0 -128 -45 -128 -120
c0 -54 42 -95 106 -95c66 0 132 44 132 117c0 55 -47 98 -110 98z" />
    <glyph glyph-name="zero.num" unicode="&#xe074;" horiz-adv-x="404" 
d="M260 709c104 0 170 -80 170 -179c0 -114 -86 -217 -207 -217c-103 0 -169 79 -169 177c0 115 83 219 206 219zM231 421c53 0 76 57 76 108c0 41 -20 72 -55 72c-54 0 -76 -60 -76 -110c0 -41 21 -70 55 -70z" />
    <glyph glyph-name="one.num" unicode="&#xe075;" horiz-adv-x="404" 
d="M184 322l45 258l-99 -26l-9 100l148 46h101l-67 -378h-119z" />
    <glyph glyph-name="two.num" unicode="&#xe076;" horiz-adv-x="404" 
d="M251 603c-36 0 -54 -21 -58 -51h-113c10 78 61 157 185 157c96 0 153 -51 152 -118c-1 -58 -40 -98 -100 -134l-49 -30h128l-19 -105h-330l15 82l171 101c29 18 61 34 61 65c0 21 -19 33 -43 33z" />
    <glyph glyph-name="three.num" unicode="&#xe077;" horiz-adv-x="404" 
d="M250 606c-38 0 -53 -18 -58 -43h-109c11 77 69 146 181 146c86 0 152 -43 152 -106c0 -46 -27 -74 -64 -87c27 -10 46 -34 46 -71c0 -82 -82 -132 -169 -132c-111 0 -175 53 -167 150h109c0 -29 16 -47 58 -47c24 0 50 8 50 36c0 18 -12 27 -39 27h-26l13 71h32
c17 0 35 7 35 29c0 18 -19 27 -44 27z" />
    <glyph glyph-name="four.num" unicode="&#xe078;" horiz-adv-x="404" 
d="M406 700l-38 -214h53l-18 -99h-52l-12 -65h-118l12 65h-191l15 85l247 228h102zM174 486h78l15 84z" />
    <glyph glyph-name="five.num" unicode="&#xe079;" horiz-adv-x="404" 
d="M230 413c26 0 51 12 51 44c0 19 -16 37 -47 37c-24 0 -38 -8 -47 -17l-104 15l49 208h287l-19 -105h-185l-11 -46c17 8 42 15 70 15c86 0 126 -51 126 -110c0 -85 -72 -141 -171 -141c-110 0 -163 52 -158 135h109c1 -21 17 -35 50 -35z" />
    <glyph glyph-name="six.num" unicode="&#xe07a;" horiz-adv-x="404" 
d="M277 569c74 0 131 -47 131 -113c0 -86 -81 -143 -167 -143c-104 0 -170 61 -170 164c0 126 75 232 207 232c91 0 140 -60 144 -122h-100c-3 18 -20 28 -46 28c-48 0 -72 -29 -81 -71c18 15 50 25 82 25zM240 409c27 0 56 13 56 43c0 23 -20 38 -52 38
c-28 0 -57 -12 -57 -42c0 -23 22 -39 53 -39z" />
    <glyph glyph-name="seven.num" unicode="&#xe07b;" horiz-adv-x="404" 
d="M416 607l-202 -285h-134l194 273h-176l18 105h316z" />
    <glyph glyph-name="eight.num" unicode="&#xe07c;" horiz-adv-x="404" 
d="M264 709c95 0 157 -43 157 -103c0 -41 -28 -72 -68 -90c26 -10 48 -40 48 -76c0 -90 -89 -127 -181 -127c-95 0 -166 41 -166 108c0 48 34 83 79 99c-23 10 -40 40 -40 69c0 86 88 120 171 120zM228 410c22 0 54 7 54 35c0 18 -17 32 -50 32c-24 0 -55 -7 -55 -37
c0 -17 21 -30 51 -30zM252 550c21 0 47 7 47 32c0 17 -14 29 -43 29c-21 0 -47 -6 -47 -32c0 -16 18 -29 43 -29z" />
    <glyph glyph-name="nine.num" unicode="&#xe07d;" horiz-adv-x="404" 
d="M206 453c-73 0 -131 47 -131 113c0 86 82 143 168 143c103 0 170 -61 170 -164c0 -127 -76 -232 -208 -232c-90 0 -140 60 -144 122h101c2 -18 20 -28 45 -28c48 0 72 29 82 71c-18 -15 -51 -25 -83 -25zM243 613c-27 0 -56 -13 -56 -43c0 -23 21 -38 52 -38
c28 0 58 12 58 42c0 23 -22 39 -54 39z" />
    <glyph glyph-name="triagup" unicode="&#x25b2;" horiz-adv-x="564" 
d="M463 83h-433l281 369z" />
    <glyph glyph-name="triagrt" unicode="&#x25ba;" horiz-adv-x="564" 
d="M82 54l73 413l341 -207z" />
    <glyph glyph-name="triagdn" unicode="&#x25bc;" horiz-adv-x="564" 
d="M93 445h434l-282 -369z" />
    <glyph glyph-name="triaglf" unicode="&#x25c4;" horiz-adv-x="564" 
d="M473 467l-73 -413l-341 206z" />
    <glyph glyph-name="uni25E2" unicode="&#x25e2;" horiz-adv-x="564" 
d="M410 78h-385l453 385z" />
    <glyph glyph-name="uni25E3" unicode="&#x25e3;" horiz-adv-x="564" 
d="M466 78h-385l68 385z" />
    <glyph glyph-name="uni25E4" unicode="&#x25e4;" horiz-adv-x="564" 
d="M148 456h385l-453 -385z" />
    <glyph glyph-name="uni25E5" unicode="&#x25e5;" horiz-adv-x="564" 
d="M91 456h386l-68 -385z" />
    <glyph glyph-name="dollar.inferior" unicode="&#xe050;" horiz-adv-x="404" 
d="M244 238l-8 -49c63 -18 89 -62 88 -115h-107c-1 20 -19 31 -52 31c-24 0 -51 -4 -51 -28c0 -20 23 -28 60 -34l37 -5c68 -9 99 -49 99 -102c0 -80 -62 -120 -142 -130l-7 -44h-98l8 47c-71 15 -105 63 -103 121h108c0 -24 23 -35 58 -35c26 0 54 5 54 30
c0 16 -14 27 -50 32l-38 6c-72 12 -106 52 -106 106c0 78 63 119 145 127l7 42h98z" />
    <glyph glyph-name="cent.inferior" unicode="&#xe051;" horiz-adv-x="404" 
d="M247 238l-8 -48c76 -21 112 -87 111 -151h-120c1 27 -26 48 -62 48c-55 0 -86 -45 -86 -101c0 -42 30 -73 67 -73s58 22 68 49h121c-18 -72 -72 -141 -167 -156l-7 -44h-99l8 51c-69 25 -114 93 -114 168c0 104 73 193 182 212l7 45h99z" />
    <glyph glyph-name="sterling.inferior" unicode="&#xe052;" horiz-adv-x="404" 
d="M-24 27h39l4 19c16 94 81 152 180 152c106 0 145 -63 144 -137h-109c2 22 -11 40 -38 40c-34 0 -51 -22 -59 -68l-1 -6h113l-14 -78h-113l-8 -43h202l-17 -95h-361l16 95h41l7 43h-40z" />
    <glyph glyph-name="yen.inferior" unicode="&#xe053;" horiz-adv-x="404" 
d="M-13 -62h92l1 2l-10 26h-78l13 73h39l-54 150h130l37 -139l87 139h136l-108 -150h41l-13 -73h-81l-18 -26l-1 -2h95l-13 -73h-94l-9 -54h-121l9 54h-93z" />
    <glyph glyph-name="Euro.inferior" unicode="&#xe054;" horiz-adv-x="404" 
d="M-37 -11h30c0 8 1 14 2 22h-28l10 58h35c34 77 109 129 211 129c61 0 109 -21 136 -42l-55 -75c-18 13 -46 23 -80 23c-35 0 -62 -13 -80 -35h114l-10 -58h-129l-3 -22h104l-10 -58h-84c13 -22 37 -35 70 -35c31 0 56 9 79 22l30 -79c-30 -19 -71 -37 -129 -37
c-94 0 -163 51 -180 129h-43z" />
    <glyph glyph-name="comma.inferior" unicode="&#xe055;" horiz-adv-x="237" 
d="M-59 -257l54 170h127l-85 -170h-96z" />
    <glyph glyph-name="period.inferior" unicode="&#xe056;" horiz-adv-x="237" 
d="M39 -192c-42 0 -69 28 -69 64c0 46 36 81 84 81c43 0 69 -28 69 -63c0 -46 -35 -81 -84 -82z" />
    <glyph glyph-name="hyphen.inferior" unicode="&#xe057;" horiz-adv-x="280" 
d="M-34 -54l19 108h228l-20 -108h-227z" />
    <glyph glyph-name="parenleft.num" unicode="&#xe07e;" horiz-adv-x="294" 
d="M78 470c0 152 112 271 271 292l-18 -104c-84 -16 -135 -90 -135 -182c0 -59 29 -102 83 -112l-18 -104c-119 14 -183 100 -183 210z" />
    <glyph glyph-name="parenright.num" unicode="&#xe07f;" horiz-adv-x="294" 
d="M296 552c0 -152 -113 -271 -271 -292l17 104c85 16 136 90 136 182c0 59 -30 102 -83 112l18 104c119 -14 183 -100 183 -210z" />
    <glyph glyph-name="dollar.num" unicode="&#xe080;" horiz-adv-x="404" 
d="M334 749l-8 -49c63 -18 89 -62 88 -115h-107c-1 20 -19 31 -52 31c-24 0 -51 -4 -51 -28c0 -20 23 -28 60 -34l37 -5c68 -9 99 -49 99 -102c0 -80 -62 -121 -142 -131l-7 -43h-98l8 46c-71 16 -106 63 -103 122h108c0 -24 23 -35 58 -35c26 0 54 5 54 30
c0 16 -14 27 -50 32l-38 6c-72 12 -106 52 -106 106c0 78 63 119 145 127l7 42h98z" />
    <glyph glyph-name="cent.num" unicode="&#xe081;" horiz-adv-x="404" 
d="M337 749l-8 -48c76 -21 112 -87 111 -151h-120c1 27 -26 48 -62 48c-55 0 -86 -45 -86 -101c0 -42 30 -73 67 -73s58 22 68 49h121c-18 -73 -72 -141 -167 -156l-7 -44h-99l8 51c-69 24 -114 92 -114 168c0 104 73 193 182 212l7 45h99z" />
    <glyph glyph-name="sterling.num" unicode="&#xe082;" horiz-adv-x="404" 
d="M66 538h39l4 19c16 94 81 152 180 152c106 0 145 -63 144 -137h-109c2 22 -11 40 -38 40c-34 0 -51 -22 -59 -68l-1 -6h113l-14 -78h-113l-8 -43h202l-17 -95h-361l16 95h40l8 43h-40z" />
    <glyph glyph-name="yen.num" unicode="&#xe083;" horiz-adv-x="404" 
d="M77 449h92l1 2l-10 26h-78l13 73h39l-54 150h130l37 -139l87 139h136l-108 -150h41l-13 -73h-81l-18 -26l-1 -2h95l-13 -73h-94l-9 -54h-121l9 54h-93z" />
    <glyph glyph-name="Euro.num" unicode="&#xe084;" horiz-adv-x="404" 
d="M53 500h29l3 22h-28l10 58h35c34 77 109 129 211 129c61 0 109 -21 136 -42l-55 -75c-18 13 -46 23 -80 23c-35 0 -62 -13 -80 -35h114l-10 -58h-129l-3 -22h104l-10 -58h-84c13 -23 37 -35 70 -35c31 0 56 9 79 22l30 -79c-30 -19 -71 -37 -129 -37
c-94 0 -163 50 -180 129h-43z" />
    <glyph glyph-name="comma.num" unicode="&#xe085;" horiz-adv-x="237" 
d="M31 254l54 170h127l-85 -170h-96z" />
    <glyph glyph-name="period.num" unicode="&#xe086;" horiz-adv-x="237" 
d="M129 319c-42 0 -69 28 -69 64c0 46 36 81 84 81c43 0 69 -28 69 -63c0 -46 -35 -81 -84 -82z" />
    <glyph glyph-name="hyphen.num" unicode="&#xe087;" horiz-adv-x="280" 
d="M56 457l19 108h228l-20 -108h-227z" />
    <glyph glyph-name="dollar.superior" unicode="&#xe058;" horiz-adv-x="404" 
d="M367 938l-8 -49c63 -18 89 -62 88 -115h-107c-1 20 -19 31 -52 31c-24 0 -51 -4 -51 -28c0 -20 23 -28 60 -34l37 -5c68 -9 99 -49 99 -102c0 -80 -62 -121 -142 -131l-7 -43h-98l8 46c-71 16 -106 63 -103 122h108c0 -24 23 -35 58 -35c26 0 54 5 54 30
c0 16 -14 27 -50 32l-38 6c-72 12 -106 52 -106 106c0 78 63 119 145 127l7 42h98z" />
    <glyph glyph-name="cent.superior" unicode="&#xe059;" horiz-adv-x="404" 
d="M370 938l-8 -48c76 -21 112 -87 111 -151h-120c1 27 -26 48 -62 48c-55 0 -86 -45 -86 -101c0 -42 30 -73 67 -73s58 22 68 49h121c-18 -73 -72 -141 -167 -156l-7 -44h-99l8 51c-69 24 -114 92 -114 168c0 104 73 193 182 212l7 45h99z" />
    <glyph glyph-name="sterling.superior" unicode="&#xe05a;" horiz-adv-x="404" 
d="M99 727h39l4 19c16 94 81 152 180 152c106 0 145 -63 144 -137h-109c2 22 -11 40 -38 40c-34 0 -51 -22 -59 -68l-1 -6h113l-14 -78h-113l-8 -43h202l-17 -95h-361l16 95h40l8 43h-40z" />
    <glyph glyph-name="yen.superior" unicode="&#xe05b;" horiz-adv-x="404" 
d="M110 638h92l1 2l-10 26h-78l13 73h39l-54 150h130l37 -139l87 139h136l-108 -150h41l-13 -73h-81l-18 -26l-1 -2h95l-13 -73h-94l-9 -54h-121l9 54h-93z" />
    <glyph glyph-name="Euro.superior" unicode="&#xe05c;" horiz-adv-x="404" 
d="M86 689h29l3 22h-28l10 58h35c34 77 109 129 211 129c61 0 109 -21 136 -42l-55 -75c-18 13 -46 23 -80 23c-35 0 -62 -13 -80 -35h114l-10 -58h-129l-3 -22h104l-10 -58h-84c13 -23 37 -35 70 -35c31 0 56 9 79 22l30 -79c-30 -19 -71 -37 -129 -37
c-94 0 -163 50 -180 129h-43z" />
    <glyph glyph-name="comma.superior" unicode="&#xe05d;" horiz-adv-x="237" 
d="M64 443l54 170h127l-85 -170h-96z" />
    <glyph glyph-name="period.superior" unicode="&#xe05e;" horiz-adv-x="237" 
d="M162 508c-42 0 -69 28 -69 64c0 46 36 81 84 81c43 0 69 -28 69 -63c0 -46 -35 -81 -84 -82z" />
    <glyph glyph-name="hyphen.superior" unicode="&#xe05f;" horiz-adv-x="280" 
d="M89 646l19 108h228l-20 -108h-227z" />
    <glyph glyph-name="zero.denom" unicode="&#xe060;" horiz-adv-x="404" 
d="M203 386c104 0 170 -80 170 -179c0 -114 -86 -217 -207 -217c-103 0 -169 79 -169 177c0 115 83 219 206 219zM174 98c53 0 76 57 76 108c0 41 -20 72 -55 72c-54 0 -76 -60 -76 -110c0 -41 21 -70 55 -70z" />
    <glyph glyph-name="one.denom" unicode="&#xe061;" horiz-adv-x="404" 
d="M127 -1l45 258l-99 -26l-9 100l148 46h101l-67 -378h-119z" />
    <glyph glyph-name="two.denom" unicode="&#xe062;" horiz-adv-x="404" 
d="M194 280c-36 0 -54 -21 -58 -51h-113c10 78 61 157 185 157c96 0 153 -51 152 -118c-1 -58 -40 -98 -100 -134l-49 -30h128l-19 -105h-330l15 82l171 101c29 18 61 34 61 65c0 21 -19 33 -43 33z" />
    <glyph glyph-name="three.denom" unicode="&#xe063;" horiz-adv-x="404" 
d="M193 283c-38 0 -53 -18 -58 -43h-109c11 77 69 146 181 146c86 0 152 -43 152 -106c0 -46 -27 -74 -64 -87c27 -10 46 -34 46 -71c0 -82 -82 -132 -169 -132c-111 0 -175 53 -167 150h109c0 -29 16 -47 58 -47c24 0 50 8 50 36c0 18 -12 27 -39 27h-26l13 71h32
c17 0 35 7 35 29c0 18 -19 27 -44 27z" />
    <glyph glyph-name="four.denom" unicode="&#xe064;" horiz-adv-x="404" 
d="M349 377l-38 -214h53l-18 -99h-52l-12 -65h-118l12 65h-191l15 85l247 228h102zM117 163h78l15 84z" />
    <glyph glyph-name="five.denom" unicode="&#xe065;" horiz-adv-x="404" 
d="M173 90c26 0 51 12 51 44c0 19 -16 37 -47 37c-24 0 -38 -8 -47 -17l-104 15l49 208h287l-19 -105h-185l-11 -46c17 8 42 15 70 15c86 0 126 -51 126 -110c0 -85 -72 -141 -171 -141c-110 0 -163 52 -158 135h109c1 -21 17 -35 50 -35z" />
    <glyph glyph-name="six.denom" unicode="&#xe066;" horiz-adv-x="404" 
d="M220 246c74 0 131 -47 131 -113c0 -86 -81 -143 -167 -143c-104 0 -170 61 -170 164c0 126 75 232 207 232c91 0 140 -60 144 -122h-100c-3 18 -20 28 -46 28c-48 0 -72 -29 -81 -71c18 15 50 25 82 25zM183 86c27 0 56 13 56 43c0 23 -20 38 -52 38
c-28 0 -57 -12 -57 -42c0 -23 22 -39 53 -39z" />
    <glyph glyph-name="seven.denom" unicode="&#xe067;" horiz-adv-x="404" 
d="M359 284l-202 -285h-134l194 273h-176l18 105h316z" />
    <glyph glyph-name="eight.denom" unicode="&#xe068;" horiz-adv-x="404" 
d="M207 386c95 0 157 -43 157 -103c0 -41 -28 -72 -68 -90c26 -10 48 -40 48 -76c0 -90 -89 -127 -181 -127c-95 0 -166 41 -166 108c0 48 34 83 79 99c-23 10 -40 40 -40 69c0 86 88 120 171 120zM171 87c22 0 54 7 54 35c0 18 -17 32 -50 32c-24 0 -55 -7 -55 -37
c0 -17 21 -30 51 -30zM195 227c21 0 47 7 47 32c0 17 -14 29 -43 29c-21 0 -47 -6 -47 -32c0 -16 18 -29 43 -29z" />
    <glyph glyph-name="nine.denom" unicode="&#xe069;" horiz-adv-x="404" 
d="M149 130c-73 0 -131 47 -131 113c0 86 82 143 168 143c103 0 170 -61 170 -164c0 -127 -76 -232 -208 -232c-90 0 -140 60 -144 122h101c2 -18 20 -28 45 -28c48 0 72 29 82 71c-18 -15 -51 -25 -83 -25zM186 290c-27 0 -56 -13 -56 -43c0 -23 21 -38 52 -38
c28 0 58 12 58 42c0 23 -22 39 -54 39z" />
    <glyph glyph-name="parenleft.denom" unicode="&#xe06a;" horiz-adv-x="294" 
d="M21 147c0 152 112 271 271 292l-18 -104c-84 -16 -135 -90 -135 -182c0 -59 29 -102 83 -112l-18 -104c-119 14 -183 100 -183 210z" />
    <glyph glyph-name="parenright.denom" unicode="&#xe06b;" horiz-adv-x="294" 
d="M239 229c0 -152 -113 -271 -271 -292l17 104c85 16 136 90 136 182c0 59 -30 102 -83 112l18 104c119 -14 183 -100 183 -210z" />
    <glyph glyph-name="dollar.denom" unicode="&#xe06c;" horiz-adv-x="404" 
d="M277 426l-8 -49c63 -18 89 -62 88 -115h-107c-1 20 -19 31 -52 31c-24 0 -51 -4 -51 -28c0 -20 23 -28 60 -34l37 -5c68 -9 99 -49 99 -102c0 -80 -62 -121 -142 -130l-7 -44h-98l8 47c-71 15 -105 62 -103 121h108c0 -24 23 -35 58 -35c26 0 54 5 54 30
c0 16 -14 27 -50 32l-38 6c-72 12 -106 52 -106 106c0 78 63 119 145 127l7 42h98z" />
    <glyph glyph-name="cent.denom" unicode="&#xe06d;" horiz-adv-x="404" 
d="M280 426l-8 -48c76 -21 112 -87 111 -151h-120c1 27 -26 48 -62 48c-55 0 -86 -45 -86 -101c0 -42 30 -73 67 -73s58 22 68 49h121c-18 -73 -72 -141 -167 -156l-7 -44h-99l8 51c-69 24 -114 92 -114 168c0 104 73 193 182 212l7 45h99z" />
    <glyph glyph-name="sterling.denom" unicode="&#xe06e;" horiz-adv-x="404" 
d="M9 215h39l4 19c16 94 81 152 180 152c106 0 145 -63 144 -137h-109c2 22 -11 40 -38 40c-34 0 -51 -22 -59 -68l-1 -6h113l-14 -78h-113l-8 -43h202l-17 -95h-361l16 95h40l8 43h-40z" />
    <glyph glyph-name="yen.denom" unicode="&#xe06f;" horiz-adv-x="404" 
d="M20 126h92l1 2l-10 26h-78l13 73h39l-54 150h130l37 -139l87 139h136l-108 -150h41l-13 -73h-81l-18 -26l-1 -2h95l-13 -73h-94l-9 -54h-121l9 54h-93z" />
    <glyph glyph-name="Euro.denom" unicode="&#xe070;" horiz-adv-x="404" 
d="M-4 177h29l3 22h-28l10 58h35c34 77 109 129 211 129c61 0 109 -21 136 -42l-55 -75c-18 13 -46 23 -80 23c-35 0 -62 -13 -80 -35h114l-10 -58h-129l-3 -22h104l-10 -58h-84c13 -23 37 -35 70 -35c31 0 56 9 79 22l30 -79c-30 -19 -71 -37 -129 -37
c-94 0 -163 50 -180 129h-43z" />
    <glyph glyph-name="comma.denom" unicode="&#xe071;" horiz-adv-x="237" 
d="M-26 -69l54 170h127l-85 -170h-96z" />
    <glyph glyph-name="period.denom" unicode="&#xe072;" horiz-adv-x="237" 
d="M72 -3c-42 0 -69 28 -69 64c0 46 36 81 84 81c43 0 69 -28 69 -63c0 -46 -35 -81 -84 -82z" />
    <glyph glyph-name="hyphen.denom" unicode="&#xe073;" horiz-adv-x="280" 
d="M-1 134l19 108h228l-20 -108h-227z" />
    <glyph glyph-name="oneseventh" unicode="&#x2150;" horiz-adv-x="958" 
d="M263 0h-137l535 700h137zM912 285l-202 -285h-134l194 273h-176l18 105h316zM184 322l45 258l-99 -26l-9 100l148 46h101l-67 -378h-119z" />
    <glyph glyph-name="oneninth" unicode="&#x2151;" horiz-adv-x="958" 
d="M277 0h-137l535 700h137zM702 131c-73 0 -131 47 -131 113c0 86 82 143 168 143c103 0 170 -61 170 -164c0 -127 -76 -232 -208 -232c-90 0 -140 60 -144 122h101c2 -18 20 -28 45 -28c48 0 72 29 82 71c-18 -15 -51 -25 -83 -25zM739 291c-27 0 -56 -13 -56 -43
c0 -23 21 -38 52 -38c28 0 58 12 58 42c0 23 -22 39 -54 39zM184 322l45 258l-99 -26l-9 100l148 46h101l-67 -378h-119z" />
    <glyph glyph-name="onetenth" unicode="&#x2152;" horiz-adv-x="1272" 
d="M184 322l45 258l-99 -26l-9 100l148 46h101l-67 -378h-119zM258 0h-137l535 700h137zM649 0l45 258l-99 -26l-9 100l148 46h101l-67 -378h-119zM1071 387c104 0 170 -80 170 -179c0 -114 -86 -217 -207 -217c-103 0 -169 79 -169 177c0 115 83 219 206 219zM1042 99
c53 0 76 57 76 108c0 41 -20 72 -55 72c-54 0 -76 -60 -76 -110c0 -41 21 -70 55 -70z" />
    <glyph glyph-name="onefifth" unicode="&#x2155;" horiz-adv-x="958" 
d="M266 0h-137l535 700h137zM726 91c26 0 51 12 51 44c0 19 -16 37 -47 37c-24 0 -38 -8 -47 -17l-104 15l49 208h287l-19 -105h-185l-11 -46c17 8 42 15 70 15c86 0 126 -51 126 -110c0 -85 -72 -141 -171 -141c-110 0 -163 52 -158 135h109c1 -21 17 -35 50 -35zM184 322
l45 258l-99 -26l-9 100l148 46h101l-67 -378h-119z" />
    <glyph glyph-name="twofifths" unicode="&#x2156;" horiz-adv-x="958" 
d="M251 603c-36 0 -54 -21 -58 -51h-113c10 78 61 157 185 157c96 0 153 -51 152 -118c-1 -58 -40 -98 -100 -134l-49 -30h128l-19 -105h-330l15 82l171 101c29 18 61 34 61 65c0 21 -19 33 -43 33zM304 0h-137l535 700h137zM726 91c26 0 51 12 51 44c0 19 -16 37 -47 37
c-24 0 -38 -8 -47 -17l-104 15l49 208h287l-19 -105h-185l-11 -46c17 8 42 15 70 15c86 0 126 -51 126 -110c0 -85 -72 -141 -171 -141c-110 0 -163 52 -158 135h109c1 -21 17 -35 50 -35z" />
    <glyph glyph-name="threefifths" unicode="&#x2157;" horiz-adv-x="958" 
d="M250 606c-38 0 -53 -18 -58 -43h-109c11 77 69 146 181 146c86 0 152 -43 152 -106c0 -46 -27 -74 -64 -87c27 -10 46 -34 46 -71c0 -82 -82 -132 -169 -132c-111 0 -175 53 -167 150h109c0 -29 16 -47 58 -47c24 0 50 8 50 36c0 18 -12 27 -39 27h-26l13 71h32
c17 0 35 7 35 29c0 18 -19 27 -44 27zM282 0h-137l535 700h137zM726 91c26 0 51 12 51 44c0 19 -16 37 -47 37c-24 0 -38 -8 -47 -17l-104 15l49 208h287l-19 -105h-185l-11 -46c17 8 42 15 70 15c86 0 126 -51 126 -110c0 -85 -72 -141 -171 -141c-110 0 -163 52 -158 135
h109c1 -21 17 -35 50 -35z" />
    <glyph glyph-name="fourfifths" unicode="&#x2158;" horiz-adv-x="958" 
d="M406 700l-38 -214h53l-18 -99h-52l-12 -65h-118l12 65h-191l15 85l247 228h102zM174 486h78l15 84zM290 0h-137l535 700h137zM726 91c26 0 51 12 51 44c0 19 -16 37 -47 37c-24 0 -38 -8 -47 -17l-104 15l49 208h287l-19 -105h-185l-11 -46c17 8 42 15 70 15
c86 0 126 -51 126 -110c0 -85 -72 -141 -171 -141c-110 0 -163 52 -158 135h109c1 -21 17 -35 50 -35z" />
    <glyph glyph-name="onesixth" unicode="&#x2159;" horiz-adv-x="958" 
d="M289 0h-137l535 700h137zM773 247c74 0 131 -47 131 -113c0 -86 -81 -143 -167 -143c-104 0 -170 61 -170 164c0 126 75 232 207 232c91 0 140 -60 144 -122h-100c-3 18 -20 28 -46 28c-48 0 -72 -29 -81 -71c18 15 50 25 82 25zM736 87c27 0 56 13 56 43
c0 23 -20 38 -52 38c-28 0 -57 -12 -57 -42c0 -23 22 -39 53 -39zM184 322l45 258l-99 -26l-9 100l148 46h101l-67 -378h-119z" />
    <glyph glyph-name="fivesixths" unicode="&#x215a;" horiz-adv-x="958" 
d="M301 0h-137l535 700h137zM230 413c26 0 51 12 51 44c0 19 -16 37 -47 37c-24 0 -38 -8 -47 -17l-104 15l49 208h287l-19 -105h-185l-11 -46c17 8 42 15 70 15c86 0 126 -51 126 -110c0 -85 -72 -141 -171 -141c-110 0 -163 52 -158 135h109c1 -21 17 -35 50 -35zM773 247
c74 0 131 -47 131 -113c0 -86 -81 -143 -167 -143c-104 0 -170 61 -170 164c0 126 75 232 207 232c91 0 140 -60 144 -122h-100c-3 18 -20 28 -46 28c-48 0 -72 -29 -81 -71c18 15 50 25 82 25zM736 87c27 0 56 13 56 43c0 23 -20 38 -52 38c-28 0 -57 -12 -57 -42
c0 -23 22 -39 53 -39z" />
    <glyph glyph-name="fraction.alt" unicode="&#xe04e;" horiz-adv-x="265" 
d="M-55 0h-137l535 700h137z" />
    <glyph glyph-name="at.case" unicode="&#xe088;" horiz-adv-x="956" 
d="M635 74l-19 -107c-59 -22 -114 -33 -185 -33c-224 0 -382 153 -382 359c0 259 216 473 495 473c236 0 387 -147 387 -340c0 -134 -71 -284 -225 -284c-59 0 -102 30 -123 71c-35 -37 -81 -63 -134 -63c-96 0 -164 75 -164 173c0 113 83 229 206 229c46 0 83 -19 110 -49
l8 41h111l-39 -224c-7 -38 -3 -71 31 -71c77 0 95 114 95 178c0 139 -101 228 -268 228c-200 0 -364 -151 -364 -361c0 -144 102 -249 269 -249c65 0 137 10 191 29zM485 263c54 0 91 48 91 101c0 46 -30 75 -73 75c-52 0 -91 -47 -91 -104c0 -43 31 -72 73 -72z" />
    <glyph glyph-name="parenleft.case" unicode="&#xe089;" horiz-adv-x="410" 
d="M55 292c0 221 167 391 398 427l-25 -142c-125 -30 -212 -140 -212 -273c0 -103 57 -163 132 -181l-25 -142c-162 25 -268 146 -268 311z" />
    <glyph glyph-name="parenright.case" unicode="&#xe08a;" horiz-adv-x="410" 
d="M376 408c0 -221 -166 -391 -398 -427l25 142c126 30 213 140 213 273c0 103 -57 163 -133 181l25 142c162 -25 268 -146 268 -311z" />
    <glyph glyph-name="bracketright.case" unicode="&#xe08c;" horiz-adv-x="401" 
d="M105 700h304l-123 -700h-304l24 138h148l75 424h-148z" />
    <glyph glyph-name="braceleft.case" unicode="&#xe08d;" horiz-adv-x="431" 
d="M37 285l23 130c63 0 103 30 109 89l3 33c11 96 56 163 214 163h84l-24 -138h-50c-53 0 -71 -22 -76 -63l-4 -33c-6 -63 -38 -103 -101 -116c58 -13 76 -53 60 -116l-7 -33c-10 -41 1 -63 54 -63h49l-24 -138h-84c-158 0 -180 67 -157 163l8 33c16 59 -14 89 -77 89z" />
    <glyph glyph-name="braceright.case" unicode="&#xe08e;" horiz-adv-x="431" 
d="M417 415l-23 -130c-63 0 -104 -30 -109 -89l-3 -33c-11 -96 -56 -163 -214 -163h-84l24 138h49c53 0 73 22 77 63l3 33c7 63 39 103 101 116c-57 13 -75 53 -60 116l8 33c11 41 -1 63 -54 63h-50l25 138h84c158 0 180 -67 157 -163l-9 -33c-15 -59 15 -89 78 -89z" />
    <glyph glyph-name="plus.case" unicode="&#xe08f;" horiz-adv-x="618" 
d="M341 125h-123l29 166h-165l21 119h165l30 166h123l-30 -166h166l-21 -119h-166z" />
    <glyph glyph-name="minus.case" unicode="&#xe090;" horiz-adv-x="618" 
d="M557 410l-21 -119h-454l21 119h454z" />
    <glyph glyph-name="multiply.case" unicode="&#xe091;" horiz-adv-x="618" 
d="M131 475l101 85l102 -124l147 124l70 -85l-147 -125l103 -124l-100 -86l-103 125l-146 -125l-71 86l146 124z" />
    <glyph glyph-name="divide.case" unicode="&#xe092;" horiz-adv-x="618" 
d="M557 410l-21 -119h-454l21 119h454zM270 534c0 49 39 90 92 90c49 0 83 -34 83 -81c0 -50 -37 -91 -92 -91c-49 0 -83 35 -83 82zM204 159c0 49 39 90 92 90c49 0 83 -33 83 -80c0 -51 -37 -92 -91 -92c-50 0 -84 35 -84 82z" />
    <glyph glyph-name="equal.case" unicode="&#xe093;" horiz-adv-x="618" 
d="M576 517l-21 -119h-454l21 119h454zM538 303l-21 -119h-454l21 119h454z" />
    <glyph glyph-name="notequal.case" unicode="&#xe094;" horiz-adv-x="618" 
d="M565 592l-55 -75h66l-21 -119h-133l-69 -95h185l-21 -119h-251l-93 -127l-94 53l54 74h-70l21 119h137l69 95h-189l21 119h256l94 128z" />
    <glyph glyph-name="approxequal.case" unicode="&#xe095;" horiz-adv-x="618" 
d="M447 327l101 -9c-27 -90 -71 -152 -153 -152c-75 0 -113 48 -164 48c-33 0 -48 -19 -58 -49l-101 9c27 90 72 152 153 152c75 0 114 -48 165 -48c33 0 47 19 57 49zM484 536l101 -10c-27 -89 -72 -151 -153 -151c-75 0 -114 48 -165 48c-32 0 -47 -19 -57 -49l-101 9
c27 89 72 152 153 152c75 0 114 -48 165 -48c32 0 47 19 57 49z" />
    <glyph glyph-name="infinity.case" unicode="&#xe096;" horiz-adv-x="782" 
d="M760 363c0 -106 -78 -180 -190 -180c-75 0 -132 30 -185 93c-68 -64 -110 -93 -184 -93c-94 0 -158 72 -158 155c0 105 79 180 190 180c76 0 130 -32 184 -96c69 65 111 95 186 95c93 0 157 -71 157 -154zM227 285c34 0 57 11 108 58c-37 49 -55 62 -91 62
c-41 0 -75 -21 -75 -67c0 -30 23 -53 58 -53zM560 296c40 0 75 20 75 65c0 30 -24 54 -59 54s-57 -11 -108 -59c37 -48 55 -60 92 -60z" />
    <glyph glyph-name="less.case" unicode="&#xe097;" horiz-adv-x="618" 
d="M98 287l22 126l448 194l-26 -148l-271 -113l231 -113l-24 -139z" />
    <glyph glyph-name="greater.case" unicode="&#xe098;" horiz-adv-x="618" 
d="M543 413l-22 -126l-449 -193l26 147l271 114l-231 112l25 140z" />
    <glyph glyph-name="guilsinglleft.case" unicode="&#xe099;" horiz-adv-x="315" 
d="M327 543l-139 -193l71 -193h-148l-70 193l138 193h148z" />
    <glyph glyph-name="guilsinglright.case" unicode="&#xe09a;" horiz-adv-x="315" 
d="M9 157l139 193l-70 193h147l71 -193l-139 -193h-148z" />
    <glyph glyph-name="guillemotleft.case" unicode="&#xe09b;" horiz-adv-x="550" 
d="M327 543l-139 -193l71 -193h-148l-70 193l138 193h148zM562 543l-139 -193l71 -193h-148l-70 193l138 193h148z" />
    <glyph glyph-name="guillemotright.case" unicode="&#xe09c;" horiz-adv-x="550" 
d="M9 157l139 193l-70 193h147l71 -193l-139 -193h-148zM244 157l139 193l-70 193h147l71 -193l-139 -193h-148z" />
    <glyph glyph-name="bar.case" unicode="&#xe09d;" horiz-adv-x="328" 
d="M342 864l-181 -1028h-152l181 1028h152z" />
    <glyph glyph-name="brokenbar.case" unicode="&#xe09e;" horiz-adv-x="328" 
d="M342 864l-77 -432h-152l77 432h152zM237 268l-76 -432h-152l76 432h152z" />
    <glyph glyph-name="asciitilde.case" unicode="&#xe09f;" 
d="M391 430l89 -13c-23 -77 -66 -145 -140 -145c-36 0 -61 12 -85 24c-21 10 -40 21 -64 21c-33 0 -50 -19 -60 -46l-89 13c23 77 66 145 140 145c36 0 61 -12 85 -24c21 -10 40 -21 64 -21c33 0 50 19 60 46z" />
    <glyph glyph-name="bullet.case" unicode="&#xe0a0;" horiz-adv-x="447" 
d="M142 261c-42 47 -35 123 16 163c45 47 118 53 169 13c41 -47 33 -123 -17 -162c-45 -47 -117 -54 -168 -14z" />
    <glyph glyph-name="periodcentered.case" unicode="&#xe0a1;" horiz-adv-x="271" 
d="M53 348c5 54 50 95 103 95c54 0 89 -39 85 -90c-5 -54 -49 -95 -103 -95s-89 39 -85 90z" />
    <glyph glyph-name="hyphen.case" unicode="&#xe0a2;" horiz-adv-x="393" 
d="M38 286l22 127h331l-22 -127h-331z" />
    <glyph glyph-name="endash.case" unicode="&#xe0a3;" horiz-adv-x="484" 
d="M24 288l22 124h436l-22 -124h-436z" />
    <glyph glyph-name="emdash.case" unicode="&#xe0a4;" horiz-adv-x="594" 
d="M12 288l22 124h570l-22 -124h-570z" />
    <glyph glyph-name="questiondown.case" unicode="&#xe0a5;" horiz-adv-x="607" 
d="M27 180c0 128 107 193 218 219l16 66h121l-16 -138c-66 -10 -178 -40 -178 -125c0 -43 35 -75 96 -75c80 0 116 43 130 107h153c-15 -112 -96 -246 -300 -246c-156 0 -240 86 -240 192zM445 620c0 -53 -42 -97 -99 -97c-53 0 -90 37 -90 87c0 54 41 98 99 98
c53 0 90 -38 90 -88z" />
    <glyph glyph-name="exclamdown.case" unicode="&#xe0a6;" horiz-adv-x="300" 
d="M126 460h109c-2 -104 -18 -258 -38 -372l-15 -88h-164l15 88c20 114 59 268 93 372zM303 620c0 -53 -42 -97 -99 -97c-53 0 -90 37 -90 87c0 54 41 98 99 98c53 0 90 -38 90 -88z" />
    <glyph glyph-name="registered.case" unicode="&#xe0a7;" horiz-adv-x="820" 
d="M410 712c204 0 370 -161 370 -362s-166 -362 -370 -362s-370 161 -370 362s166 362 370 362zM410 94c145 0 257 112 257 256s-112 256 -257 256s-257 -112 -257 -256s112 -256 257 -256zM379 279v-106h-106v355h160c96 0 149 -51 149 -125c0 -60 -27 -95 -72 -112
l67 -118h-114l-59 106h-25zM379 366h50c35 0 48 13 48 37s-13 38 -48 38h-50v-75z" />
    <glyph glyph-name="arrowleft.case" unicode="&#xe0a8;" horiz-adv-x="684" 
d="M37 350l293 249l49 -23l-69 -161l358 6l-25 -142l-355 6l12 -160l-58 -24z" />
    <glyph glyph-name="arrowup.case" unicode="&#xe0a9;" horiz-adv-x="702" 
d="M424 701l206 -249l-33 -54l-154 39l-55 -344h-142l66 345l-167 -40l-13 54z" />
    <glyph glyph-name="arrowright.case" unicode="&#xe0aa;" horiz-adv-x="684" 
d="M465 599l205 -249l-292 -249l-51 24l68 160l-356 -6l25 142l354 -6l-11 161z" />
    <glyph glyph-name="arrowdown.case" unicode="&#xe0ab;" horiz-adv-x="702" 
d="M290 -60l-205 249l32 53l154 -40l55 345h141l-66 -345l168 40l14 -53z" />
    <glyph glyph-name="arrowboth.case" unicode="&#xe0ac;" horiz-adv-x="895" 
d="M36 347l293 249l50 -23l-68 -160h317l-11 160l58 23l205 -249l-292 -249l-50 24l67 159h-317l12 -159l-58 -24z" />
    <glyph glyph-name="arrowupdn.case" unicode="&#xe0ad;" horiz-adv-x="702" 
d="M292 -47l-204 250l32 54l152 -40l50 284l-165 -39l-15 54l294 249l204 -249l-32 -54l-153 39l-51 -284l167 40l15 -54z" />
    <glyph glyph-name="arrowupleft.case" unicode="&#xe0ae;" horiz-adv-x="684" 
d="M165 577h353l12 -55l-161 -87l212 -249l-110 -93l-203 256l-114 -145l-51 21z" />
    <glyph glyph-name="arrowupright.case" unicode="&#xe0af;" horiz-adv-x="684" 
d="M269 577h352l-62 -352l-58 -21l-62 145l-295 -256l-76 93l300 249l-130 87z" />
    <glyph glyph-name="arrowdownright.case" unicode="&#xe0b0;" horiz-adv-x="684" 
d="M538 106h-352l-12 55l161 88l-212 248l109 94l204 -257l114 146l51 -21z" />
    <glyph glyph-name="arrowdownleft.case" unicode="&#xe0b1;" horiz-adv-x="684" 
d="M435 106h-353l63 353l58 21l62 -146l294 257l77 -94l-301 -248l131 -88z" />
    <glyph glyph-name="triagup.case" unicode="&#xe0b2;" horiz-adv-x="564" 
d="M481 187h-433l282 369z" />
    <glyph glyph-name="triagrt.case" unicode="&#xe0b3;" horiz-adv-x="564" 
d="M100 158l73 413l342 -207z" />
    <glyph glyph-name="triagdn.case" unicode="&#xe0b4;" horiz-adv-x="564" 
d="M112 549h433l-282 -369z" />
    <glyph glyph-name="triaglf.case" unicode="&#xe0b5;" horiz-adv-x="564" 
d="M492 571l-74 -413l-340 206z" />
    <glyph glyph-name="uni25E2.case" unicode="&#xe0b6;" horiz-adv-x="564" 
d="M428 182h-385l454 385z" />
    <glyph glyph-name="uni25E3.case" unicode="&#xe0b7;" horiz-adv-x="564" 
d="M484 182h-385l69 385z" />
    <glyph glyph-name="uni25E4.case" unicode="&#xe0b8;" horiz-adv-x="564" 
d="M168 566h385l-454 -385z" />
    <glyph glyph-name="uni25E5.case" unicode="&#xe0b9;" horiz-adv-x="564" 
d="M111 566h386l-69 -385z" />
    <glyph glyph-name="quadspace" unicode="&#xe02e;" horiz-adv-x="53" 
 />
    <glyph glyph-name="halfspace" unicode="&#xe02f;" horiz-adv-x="106" 
 />
    <glyph glyph-name="bracketleft.case" unicode="&#xe08b;" horiz-adv-x="401" 
d="M138 700h304l-25 -138h-148l-75 -424h148l-23 -138h-304z" />
    <glyph glyph-name="CR" unicode="&#xd;" 
 />
    <glyph glyph-name="NULL" horiz-adv-x="0" 
 />
    <glyph glyph-name="NULL" horiz-adv-x="0" 
 />
    <glyph glyph-name="exclam.sc" unicode="&#xf720;" horiz-adv-x="272" 
d="M184 219h-119c2 66 11 154 25 234l13 71h150l-12 -71c-14 -80 -37 -168 -57 -234zM6 79c0 55 44 99 100 99c53 0 89 -37 89 -87c0 -55 -43 -99 -100 -99c-53 0 -89 38 -89 87z" />
    <glyph glyph-name="numbersign.sc" unicode="&#xf721;" horiz-adv-x="631" 
d="M77 313l20 109h91l38 102h132l-38 -102h99l37 102h133l-38 -102h73l-20 -109h-93l-37 -102h71l-19 -108h-92l-37 -103h-132l37 103h-99l-37 -103h-132l37 103h-72l20 108h92l37 102h-71zM280 313l-37 -102h99l37 102h-99z" />
    <glyph glyph-name="dollar.sc" unicode="&#xf722;" horiz-adv-x="566" 
d="M155 -100l16 95c-96 18 -149 76 -148 163h139c-1 -35 35 -52 95 -52c35 0 90 7 90 49c0 28 -19 44 -81 51l-43 5c-98 11 -161 73 -161 146c0 114 93 169 205 178l16 89h115l-18 -97c92 -21 134 -80 138 -154h-138c-2 28 -29 46 -84 46c-37 0 -82 -8 -82 -47
c0 -26 25 -42 87 -50l45 -5c100 -11 154 -65 154 -141c0 -123 -97 -177 -215 -186l-15 -90h-115z" />
    <glyph glyph-name="percent.sc" unicode="&#xf723;" horiz-adv-x="886" 
d="M293 0h-129l421 524h130zM230 531c89 0 151 -64 151 -144c0 -95 -77 -174 -181 -174c-89 0 -151 63 -151 143c0 95 76 175 181 175zM210 311c35 0 64 27 64 67c0 31 -22 55 -54 55c-35 0 -65 -28 -65 -68c0 -31 22 -54 55 -54zM678 312c89 0 151 -64 151 -143
c0 -96 -76 -175 -181 -175c-89 0 -151 63 -151 143c0 96 76 175 181 175zM658 92c35 0 64 27 64 68c0 31 -22 54 -54 54c-35 0 -65 -27 -65 -68c0 -30 23 -54 55 -54z" />
    <glyph glyph-name="ampersand.sc" unicode="&#xf724;" horiz-adv-x="573" 
d="M466 287l72 -72c-36 -39 -72 -76 -109 -109l84 -106h-145l-30 38c-51 -31 -102 -50 -155 -50c-98 0 -175 51 -175 139c0 85 58 118 132 161c-24 32 -42 70 -42 107c0 94 80 141 171 141c89 0 148 -47 148 -119c0 -68 -47 -105 -110 -143l-7 -4l63 -81c31 27 64 59 103 98
zM200 105c23 0 46 6 70 18l-69 87c-28 -17 -56 -33 -56 -66c0 -23 20 -39 55 -39zM222 398c0 -16 7 -34 18 -51c23 12 64 29 64 61c0 16 -14 30 -38 30s-44 -12 -44 -40z" />
    <glyph glyph-name="parenleft.sc" unicode="&#xf725;" horiz-adv-x="398" 
d="M33 196c0 225 151 418 398 465l-23 -128c-143 -36 -226 -188 -226 -337c0 -103 45 -186 131 -205l-23 -128c-164 28 -257 172 -257 333z" />
    <glyph glyph-name="parenright.sc" unicode="&#xf726;" horiz-adv-x="398" 
d="M357 328c0 -224 -152 -417 -398 -465l22 128c144 36 227 188 227 337c0 103 -45 186 -131 205l22 128c164 -27 258 -172 258 -333z" />
    <glyph glyph-name="asterisk.sc" unicode="&#xf727;" horiz-adv-x="367" 
d="M275 524l-32 -93l94 42l10 -91l-99 -10l65 -56l-82 -68l-40 80l-68 -80l-58 68l84 56l-95 10l42 91l79 -42l1 93h99z" />
    <glyph glyph-name="slash.sc" unicode="&#xf728;" horiz-adv-x="461" 
d="M512 594l-431 -664h-139l429 664h141z" />
    <glyph glyph-name="zero.sc" unicode="&#xf729;" horiz-adv-x="567" 
d="M309 536c140 0 229 -102 229 -240c0 -155 -106 -308 -288 -308c-140 0 -230 103 -230 242c0 156 108 306 289 306zM261 124c87 0 125 92 125 172c0 65 -38 104 -89 104c-86 0 -125 -90 -125 -171c0 -66 38 -105 89 -105z" />
    <glyph glyph-name="one.sc" unicode="&#xf72a;" horiz-adv-x="567" 
d="M219 0l66 376l-148 -46l-25 113l212 82h135l-92 -525h-148z" />
    <glyph glyph-name="two.sc" unicode="&#xf72b;" horiz-adv-x="567" 
d="M297 403c-59 0 -84 -33 -92 -77h-143c14 101 85 210 255 210c129 0 204 -68 204 -157c0 -97 -58 -141 -146 -193l-89 -54h199l-24 -132h-446l19 112l234 141c39 23 99 53 99 103c0 31 -27 47 -70 47z" />
    <glyph glyph-name="three.sc" unicode="&#xf72c;" horiz-adv-x="567" 
d="M289 408c-54 0 -76 -24 -85 -62h-139c16 100 94 190 247 190c116 0 200 -57 200 -149c0 -57 -32 -100 -84 -122c35 -11 63 -45 63 -94c0 -122 -115 -183 -247 -183c-129 0 -221 61 -215 194h141c-4 -44 23 -66 82 -66c40 0 88 15 88 57c0 26 -22 41 -70 41h-43l19 104h46
c38 0 68 11 68 47c0 29 -29 43 -71 43z" />
    <glyph glyph-name="four.sc" unicode="&#xf72d;" horiz-adv-x="567" 
d="M503 525l-51 -290h80l-24 -132h-79l-18 -103h-148l18 103h-277l22 122l339 300h138zM175 235h129l23 135z" />
    <glyph glyph-name="five.sc" unicode="&#xf72e;" horiz-adv-x="567" 
d="M262 117c41 0 83 20 83 66c0 37 -30 58 -76 58c-40 0 -65 -10 -85 -25l-118 22l63 286h390l-24 -131h-261l-18 -76c23 12 58 23 108 23c106 0 172 -65 172 -150c0 -122 -107 -202 -241 -202c-155 0 -216 88 -212 184h141c2 -34 28 -55 78 -55z" />
    <glyph glyph-name="six.sc" unicode="&#xf72f;" horiz-adv-x="567" 
d="M326 348c105 0 179 -67 179 -155c0 -127 -104 -205 -236 -205c-129 0 -220 80 -220 223c0 157 104 325 282 325c124 0 189 -73 194 -156h-127c-3 21 -22 37 -62 37c-62 0 -102 -39 -122 -97c30 18 65 28 112 28zM276 109c43 0 87 26 87 78c0 35 -30 62 -79 62
c-44 0 -91 -23 -91 -75c0 -40 35 -65 83 -65z" />
    <glyph glyph-name="seven.sc" unicode="&#xf730;" horiz-adv-x="567" 
d="M522 411l-283 -411h-165l272 393h-257l23 131h429z" />
    <glyph glyph-name="eight.sc" unicode="&#xf731;" horiz-adv-x="567" 
d="M308 536c136 0 215 -65 215 -146c0 -68 -44 -105 -104 -125c43 -16 76 -54 76 -105c0 -129 -124 -172 -246 -172c-131 0 -225 57 -225 156c0 68 49 113 117 129c-36 16 -63 59 -63 103c0 119 118 160 230 160zM263 109c40 0 82 13 82 55c0 27 -26 50 -82 50
c-40 0 -86 -10 -86 -54c0 -32 35 -51 86 -51zM294 315c33 0 76 12 76 53c0 27 -25 48 -72 48c-35 0 -74 -12 -74 -53c0 -27 24 -48 70 -48z" />
    <glyph glyph-name="nine.sc" unicode="&#xf732;" horiz-adv-x="567" 
d="M232 177c-105 0 -179 66 -179 154c0 127 104 205 236 205c129 0 220 -80 220 -223c0 -157 -104 -325 -282 -325c-124 0 -189 73 -194 157h127c3 -22 22 -37 62 -37c61 0 102 39 121 96c-29 -17 -65 -27 -111 -27zM283 415c-44 0 -87 -25 -87 -77c0 -36 30 -63 78 -63
c44 0 91 24 91 76c0 40 -35 64 -82 64z" />
    <glyph glyph-name="question.sc" unicode="&#xf733;" horiz-adv-x="507" 
d="M490 395c0 -84 -77 -127 -158 -148l-9 -28h-124l9 73c45 7 125 28 125 79c0 25 -23 42 -66 42c-61 0 -90 -34 -95 -70h-135c8 92 76 193 251 193c130 0 202 -62 202 -141zM139 79c0 55 43 99 100 99c53 0 88 -37 88 -87c0 -55 -43 -99 -100 -99c-52 0 -88 38 -88 87z" />
    <glyph glyph-name="at.sc" unicode="&#xf734;" horiz-adv-x="670" 
d="M187 247c0 75 50 151 140 151c28 0 54 -11 74 -28l4 22h82l-26 -148c-5 -33 4 -48 22 -48c51 0 61 66 61 112c0 92 -69 153 -183 153c-130 0 -240 -94 -240 -231c0 -96 73 -166 186 -166c41 0 83 5 125 18l-14 -76c-32 -13 -76 -20 -126 -20c-153 0 -260 101 -260 240
c0 179 146 313 336 313c161 0 263 -98 263 -229c0 -93 -45 -188 -151 -188c-41 0 -72 18 -89 44c-22 -23 -51 -38 -84 -38c-63 0 -120 51 -120 119zM336 316c-33 0 -56 -22 -56 -60c0 -26 23 -47 49 -47c33 0 54 24 54 61c0 25 -22 46 -47 46z" />
    <glyph glyph-name="bracketleft.sc" unicode="&#xf735;" horiz-adv-x="363" 
d="M129 661h267l-22 -128h-124l-95 -542h123l-23 -128h-266z" />
    <glyph glyph-name="backslash.sc" unicode="&#xf736;" horiz-adv-x="461" 
d="M257 -70l-196 664h134l196 -664h-134z" />
    <glyph glyph-name="bracketright.sc" unicode="&#xf737;" horiz-adv-x="363" 
d="M99 661h267l-140 -798h-267l22 128h124l95 542h-123z" />
    <glyph glyph-name="braceleft.sc" unicode="&#xf738;" horiz-adv-x="413" 
d="M16 202l21 121c72 2 97 29 105 101l6 49c17 134 82 188 239 188h59l-22 -128h-51c-59 0 -79 -26 -85 -77l-4 -41c-10 -98 -46 -139 -109 -153c59 -13 79 -54 55 -153l-11 -41c-12 -51 0 -77 58 -77h51l-22 -128h-59c-157 0 -204 54 -173 188l11 50c17 72 2 99 -69 101z
" />
    <glyph glyph-name="braceright.sc" unicode="&#xf739;" horiz-adv-x="413" 
d="M389 323l-21 -121c-72 -2 -97 -29 -105 -101l-6 -50c-17 -134 -82 -188 -239 -188h-59l22 128h51c59 0 79 26 85 77l4 41c10 99 46 140 109 153c-59 14 -79 55 -55 153l10 41c12 51 1 77 -57 77h-51l22 128h59c157 0 204 -54 173 -188l-11 -49c-18 -72 -2 -99 69 -101z
" />
    <glyph glyph-name="currency.sc" unicode="&#xf73a;" horiz-adv-x="650" 
d="M144 491l58 -59c35 24 77 39 123 39s88 -15 122 -39l59 59l49 -49l-59 -59c25 -34 39 -76 39 -121c0 -46 -14 -88 -39 -122l59 -58l-49 -49l-59 58c-34 -24 -76 -38 -122 -38s-88 14 -123 38l-58 -58l-49 49l58 58c-24 34 -38 76 -38 122c0 45 14 87 38 121l-58 59z
M325 111c81 0 143 64 143 151s-62 151 -143 151s-143 -64 -143 -151s62 -151 143 -151z" />
    <glyph glyph-name="cent.sc" unicode="&#xf73b;" horiz-adv-x="566" 
d="M167 -100l16 97c-93 26 -156 107 -156 203c0 129 101 240 238 259l17 91h114l-17 -97c99 -26 145 -105 144 -184h-144c-2 34 -34 60 -87 60c-65 0 -117 -47 -117 -119c0 -54 40 -88 92 -88c53 0 85 24 97 59h145c-15 -83 -89 -172 -212 -189l-16 -92h-114z" />
    <glyph glyph-name="sterling.sc" unicode="&#xf73c;" horiz-adv-x="566" 
d="M41 296h59l7 36c18 105 88 204 245 204c145 0 195 -91 191 -188h-144c4 34 -17 55 -58 55c-54 0 -79 -32 -90 -97l-2 -10h148l-18 -100h-147l-11 -64h287l-23 -132h-495l23 132h59l11 64h-60z" />
    <glyph glyph-name="yen.sc" unicode="&#xf73d;" horiz-adv-x="566" 
d="M52 172h136l3 18l-10 23h-122l17 90h66l-95 221h162l81 -195l148 195h164l-174 -221h69l-17 -90h-122l-18 -23l-3 -18h136l-15 -90h-137l-14 -82h-149l14 82h-136z" />
    <glyph glyph-name="Euro.sc" unicode="&#xf73e;" horiz-adv-x="566" 
d="M16 249h49c1 9 2 18 4 27h-48l13 78h58c48 106 159 182 297 182c91 0 154 -30 190 -63l-79 -100c-23 18 -57 35 -113 35c-51 0 -94 -21 -124 -54h184l-14 -78h-210c-2 -9 -3 -18 -4 -27h158l-15 -78h-127c20 -34 58 -54 107 -54c52 0 92 16 119 35l44 -103
c-42 -31 -100 -61 -186 -61c-131 0 -224 73 -248 183h-69z" />
    <glyph glyph-name="florin.sc" unicode="&#xf73f;" horiz-adv-x="566" 
d="M133 278h82l24 84c39 131 93 173 209 173c38 0 90 -6 106 -11l-33 -118c-15 3 -42 4 -60 4c-47 0 -71 -20 -87 -71l-18 -61h120l-35 -124h-120l-46 -162c-27 -96 -71 -157 -180 -157c-27 0 -71 4 -90 8l34 120c9 -1 28 -2 37 -2c36 0 53 15 66 62l37 131h-82z" />
    <glyph glyph-name="section.sc" unicode="&#xf740;" horiz-adv-x="566" 
d="M221 -29c36 0 74 5 74 39c0 22 -18 36 -72 44l-46 9c-86 14 -131 61 -131 129c0 62 43 100 98 122c-15 21 -23 46 -23 73c0 104 99 149 202 149c127 0 183 -61 181 -138h-115c-2 22 -18 39 -66 39c-42 0 -74 -10 -74 -41c0 -23 23 -39 70 -46l47 -9
c88 -14 126 -53 126 -118c0 -68 -40 -105 -93 -128c15 -19 23 -42 23 -68c0 -108 -99 -155 -212 -155c-124 0 -193 56 -189 143h118c0 -29 23 -44 82 -44zM295 146c3 -1 7 -2 10 -2c30 7 57 25 57 57c0 25 -15 40 -68 48l-46 8l-18 3c-31 -7 -55 -26 -55 -55
c0 -31 23 -41 74 -50z" />
    <glyph glyph-name="registered.sc" unicode="&#xf741;" horiz-adv-x="639" 
d="M319 536c157 0 282 -124 282 -274s-125 -274 -282 -274s-281 124 -281 274s124 274 281 274zM319 67c113 0 198 86 198 195c0 110 -85 196 -198 196c-112 0 -198 -86 -198 -196c0 -109 86 -195 198 -195zM294 205v-76h-88v267h130c77 0 120 -38 120 -96
c0 -45 -21 -72 -56 -85l50 -86h-93l-42 76h-21zM293 274h39c27 0 37 8 37 26s-10 26 -37 26h-39v-52z" />
    <glyph glyph-name="copyright.sc" unicode="&#xf742;" horiz-adv-x="639" 
d="M319 536c157 0 282 -124 282 -274s-125 -274 -282 -274s-281 124 -281 274s124 274 281 274zM319 67c113 0 198 86 198 195c0 110 -85 196 -198 196c-112 0 -198 -86 -198 -196c0 -109 86 -195 198 -195zM175 262c0 82 65 145 147 145c91 0 138 -59 143 -120h-95
c-3 16 -18 30 -46 30c-31 0 -52 -20 -52 -55s21 -55 52 -55c28 0 43 14 46 31h95c-5 -62 -51 -120 -143 -120c-82 0 -147 63 -147 144z" />
    <glyph glyph-name="ordfeminine.sc" unicode="&#xf743;" horiz-adv-x="442" 
d="M317 525l98 -365h-115l-17 67h-143l-40 -67h-118l227 365h108zM240 396l-47 -79h67z" />
    <glyph glyph-name="ordmasculine.sc" unicode="&#xf744;" horiz-adv-x="458" 
d="M229 256c53 0 98 42 98 99c0 47 -32 77 -78 77c-55 0 -98 -45 -98 -103c0 -45 32 -73 78 -73zM217 152c-106 0 -181 77 -181 171c0 119 94 213 224 213c107 0 182 -78 182 -173c0 -119 -98 -211 -225 -211z" />
    <glyph glyph-name="Omega.sc" unicode="&#xf745;" horiz-adv-x="687" 
d="M366 536c174 0 287 -93 287 -215c0 -97 -56 -169 -138 -216h81l-18 -105h-253l16 91c77 38 154 102 154 193c0 76 -52 120 -139 120c-92 0 -171 -55 -171 -159c0 -71 42 -123 93 -154l-16 -91h-253l18 105h92c-37 26 -83 88 -83 163c0 169 155 268 330 268z" />
    <glyph glyph-name="questiondown.sc" unicode="&#xf746;" horiz-adv-x="505" 
d="M8 129c0 84 77 127 158 148l9 28h124l-9 -73c-44 -7 -125 -28 -125 -79c0 -25 23 -42 66 -42c61 0 90 34 96 70h134c-8 -92 -76 -193 -251 -193c-129 0 -202 62 -202 141zM359 445c0 -55 -43 -99 -100 -99c-52 0 -88 37 -88 86c0 56 43 100 100 100c52 0 88 -38 88 -87z
" />
    <glyph glyph-name="exclamdown.sc" unicode="&#xf747;" horiz-adv-x="272" 
d="M80 306h120c-3 -66 -12 -155 -26 -234l-13 -72h-150l13 72c14 79 36 168 56 234zM258 446c0 -55 -44 -99 -100 -99c-53 0 -88 37 -88 86c0 55 43 99 100 99c52 0 88 -37 88 -86z" />
    <glyph glyph-name="dagger.sc" unicode="&#xf748;" horiz-adv-x="499" 
d="M480 381l-22 -125h-143l-63 -356h-141l63 356h-144l22 125h144l25 143h141l-25 -143h143z" />
    <glyph glyph-name="daggerdbl.sc" unicode="&#xf749;" horiz-adv-x="499" 
d="M439 148l-22 -125h-144l-21 -123h-141l21 123h-143l22 125h143l23 128h-143l21 125h144l22 123h141l-22 -123h143l-21 -125h-144l-23 -128h144z" />
    <glyph glyph-name="quoteleft.sc" unicode="&#xf74a;" horiz-adv-x="251" 
d="M264 530l-80 -256h-154l111 256h123z" />
    <glyph glyph-name="quoteright.sc" unicode="&#xf74b;" horiz-adv-x="251" 
d="M27 274l81 256h153l-111 -256h-123z" />
    <glyph glyph-name="quotesinglbase.sc" unicode="&#xf74c;" horiz-adv-x="251" 
d="M-44 -132l81 256h153l-111 -256h-123z" />
    <glyph glyph-name="quotedblleft.sc" unicode="&#xf74d;" horiz-adv-x="463" 
d="M264 530l-80 -256h-154l111 256h123zM477 530l-80 -256h-154l111 256h123z" />
    <glyph glyph-name="quotedblright.sc" unicode="&#xf74e;" horiz-adv-x="463" 
d="M27 274l81 256h153l-111 -256h-123zM240 274l81 256h153l-111 -256h-123z" />
    <glyph glyph-name="quotedblbase.sc" unicode="&#xf74f;" horiz-adv-x="463" 
d="M-44 -132l81 256h153l-111 -256h-123zM167 -132l81 256h153l-111 -256h-123z" />
    <glyph glyph-name="perthousand.sc" unicode="&#xf750;" horiz-adv-x="1258" 
d="M293 0h-129l421 524h130zM230 531c89 0 151 -64 151 -144c0 -95 -77 -174 -181 -174c-89 0 -151 63 -151 143c0 95 76 175 181 175zM210 311c35 0 64 27 64 67c0 31 -22 55 -54 55c-35 0 -65 -28 -65 -68c0 -31 22 -54 55 -54zM678 312c89 0 151 -64 151 -143
c0 -96 -76 -175 -181 -175c-89 0 -151 63 -151 143c0 96 76 175 181 175zM658 92c35 0 64 27 64 68c0 31 -22 54 -54 54c-35 0 -65 -27 -65 -68c0 -30 23 -54 55 -54zM1049 312c89 0 151 -64 151 -143c0 -96 -76 -175 -181 -175c-89 0 -151 63 -151 143c0 96 76 175 181 175
zM1029 92c35 0 65 27 65 68c0 31 -23 54 -55 54c-35 0 -65 -27 -65 -68c0 -30 23 -54 55 -54z" />
    <glyph glyph-name="bullet.sc" unicode="&#xf751;" horiz-adv-x="447" 
d="M127 174c-42 47 -35 123 16 163c45 47 118 53 169 13c41 -47 33 -123 -17 -162c-45 -47 -117 -54 -168 -14z" />
    <glyph glyph-name="periodcentered.sc" unicode="&#xf752;" horiz-adv-x="271" 
d="M37 257c0 54 41 98 98 98c53 0 90 -37 90 -87c0 -54 -40 -99 -98 -99c-54 0 -90 38 -90 88z" />
    <glyph glyph-name="hyphen.sc" unicode="&#xf753;" horiz-adv-x="405" 
d="M21 198l22 127h331l-22 -127h-331z" />
    <glyph glyph-name="endash.sc" unicode="&#xf754;" horiz-adv-x="484" 
d="M8 200l22 124h436l-22 -124h-436z" />
    <glyph glyph-name="emdash.sc" unicode="&#xf755;" horiz-adv-x="594" 
d="M-4 200l22 124h570l-22 -124h-570z" />
    <glyph glyph-name="plus.sc" unicode="&#xf756;" horiz-adv-x="618" 
d="M325 37h-123l29 166h-165l21 119h165l30 166h123l-30 -166h166l-21 -119h-166z" />
    <glyph glyph-name="minus.sc" unicode="&#xf757;" horiz-adv-x="618" 
d="M541 322l-21 -119h-454l21 119h454z" />
    <glyph glyph-name="multiply.sc" unicode="&#xf758;" horiz-adv-x="618" 
d="M115 387l101 85l102 -124l147 124l70 -85l-147 -125l103 -124l-100 -86l-103 125l-146 -125l-71 86l146 124z" />
    <glyph glyph-name="divide.sc" unicode="&#xf759;" horiz-adv-x="618" 
d="M541 322l-21 -119h-454l21 119h454zM254 446c0 49 39 90 92 90c49 0 83 -34 83 -81c0 -50 -37 -91 -92 -91c-49 0 -83 35 -83 82zM188 71c0 49 39 90 92 90c49 0 83 -33 83 -80c0 -51 -37 -92 -91 -92c-50 0 -84 35 -84 82z" />
    <glyph glyph-name="equal.sc" unicode="&#xf75a;" horiz-adv-x="618" 
d="M560 429l-21 -119h-454l21 119h454zM522 215l-21 -119h-454l21 119h454z" />
    <glyph glyph-name="notequal.sc" unicode="&#xf75b;" horiz-adv-x="618" 
d="M549 504l-55 -75h66l-21 -119h-133l-69 -95h185l-21 -119h-251l-93 -127l-94 53l54 74h-70l21 119h137l69 95h-189l21 119h256l94 128z" />
    <glyph glyph-name="approxequal.sc" unicode="&#xf75c;" horiz-adv-x="618" 
d="M432 239l101 -9c-27 -90 -71 -152 -153 -152c-75 0 -113 48 -164 48c-33 0 -48 -19 -58 -49l-101 9c27 90 72 152 153 152c75 0 114 -48 165 -48c33 0 47 19 57 49zM469 448l101 -10c-27 -89 -72 -151 -153 -151c-75 0 -114 48 -165 48c-32 0 -47 -19 -57 -49l-101 9
c27 89 72 152 153 152c75 0 114 -48 165 -48c32 0 47 19 57 49z" />
    <glyph glyph-name="less.sc" unicode="&#xf75d;" horiz-adv-x="618" 
d="M82 199l22 126l448 194l-26 -148l-271 -113l231 -113l-24 -139z" />
    <glyph glyph-name="greater.sc" unicode="&#xf75e;" horiz-adv-x="618" 
d="M527 325l-22 -126l-449 -193l26 147l271 114l-231 112l25 140z" />
    <glyph glyph-name="guilsinglleft.sc" unicode="&#xf75f;" horiz-adv-x="315" 
d="M311 455l-139 -193l71 -193h-148l-70 193l138 193h148z" />
    <glyph glyph-name="guilsinglright.sc" unicode="&#xf760;" horiz-adv-x="315" 
d="M-7 69l139 193l-70 193h147l71 -193l-139 -193h-148z" />
    <glyph glyph-name="guillemotleft.sc" unicode="&#xf761;" horiz-adv-x="550" 
d="M311 455l-139 -193l71 -193h-148l-70 193l138 193h148zM547 455l-139 -193l71 -193h-148l-70 193l138 193h148z" />
    <glyph glyph-name="guillemotright.sc" unicode="&#xf762;" horiz-adv-x="550" 
d="M-7 69l139 193l-70 193h147l71 -193l-139 -193h-148zM229 69l139 193l-70 193h147l71 -193l-139 -193h-148z" />
    <glyph glyph-name="a.sc" unicode="&#xf763;" horiz-adv-x="616" 
d="M417 525l142 -525h-149l-24 99h-218l-59 -99h-152l326 525h134zM322 358l-80 -133h113z" />
    <glyph glyph-name="b.sc" unicode="&#xf764;" horiz-adv-x="577" 
d="M99 524h249c126 0 202 -52 202 -136c0 -62 -36 -104 -92 -124c41 -11 69 -45 69 -94c0 -119 -115 -170 -236 -170h-284zM193 209l-17 -89h116c40 0 83 10 83 48c0 30 -25 41 -78 41h-104zM227 405l-15 -87h103c43 0 81 8 81 47c0 27 -22 40 -68 40h-101z" />
    <glyph glyph-name="c.sc" unicode="&#xf765;" horiz-adv-x="627" 
d="M30 237c0 170 139 299 314 299c149 0 249 -109 247 -218h-146c-10 39 -46 74 -115 74c-82 0 -146 -60 -146 -144c0 -65 48 -115 119 -115c70 0 108 33 124 74h151c-22 -112 -122 -219 -290 -219c-151 0 -258 111 -258 249z" />
    <glyph glyph-name="d.sc" unicode="&#xf766;" horiz-adv-x="615" 
d="M270 141c82 0 152 56 152 144c0 58 -46 98 -119 98h-79l-43 -242h89zM576 294c0 -167 -141 -294 -320 -294h-249l92 524h217c163 0 260 -97 260 -230z" />
    <glyph glyph-name="e.sc" unicode="&#xf767;" horiz-adv-x="538" 
d="M450 0h-443l92 524h438l-22 -125h-289l-13 -75h261l-21 -122h-261l-14 -77h293z" />
    <glyph glyph-name="f.sc" unicode="&#xf768;" horiz-adv-x="523" 
d="M156 0h-149l92 524h431l-24 -137h-282l-17 -97h260l-24 -137h-260z" />
    <glyph glyph-name="g.sc" unicode="&#xf769;" horiz-adv-x="632" 
d="M590 344h-149c-11 29 -42 56 -105 56c-87 0 -152 -67 -152 -158c0 -69 49 -120 125 -120c56 0 101 25 119 73h-126l19 106h270c7 -171 -104 -313 -295 -313c-155 0 -266 112 -266 248c0 171 134 300 312 300c147 0 238 -101 248 -192z" />
    <glyph glyph-name="h.sc" unicode="&#xf76a;" horiz-adv-x="627" 
d="M214 331h215l34 193h149l-92 -524h-149l34 195h-215l-34 -195h-149l92 524h149z" />
    <glyph glyph-name="i.sc" unicode="&#xf76b;" horiz-adv-x="264" 
d="M249 524l-92 -524h-149l92 524h149z" />
    <glyph glyph-name="j.sc" unicode="&#xf76c;" horiz-adv-x="517" 
d="M503 524l-59 -338c-24 -138 -108 -198 -235 -198c-160 0 -208 104 -202 205h145c-3 -38 16 -61 64 -61c45 0 74 27 83 80l55 312h149z" />
    <glyph glyph-name="k.sc" unicode="&#xf76d;" horiz-adv-x="594" 
d="M632 524l-263 -233l177 -291h-168l-121 193l-80 -71l-21 -122h-149l92 524h149l-36 -204l230 204h190z" />
    <glyph glyph-name="l.sc" unicode="&#xf76e;" horiz-adv-x="496" 
d="M430 0h-423l92 524h149l-68 -387h274z" />
    <glyph glyph-name="m.sc" unicode="&#xf76f;" horiz-adv-x="757" 
d="M99 524h145l130 -267l224 267h143l-92 -524h-149l51 288l-156 -187h-98l-91 188l-50 -289h-149z" />
    <glyph glyph-name="n.sc" unicode="&#xf770;" horiz-adv-x="639" 
d="M392 0l-184 302l-52 -302h-149l92 524h140l182 -302l54 302h149l-92 -524h-140z" />
    <glyph glyph-name="o.sc" unicode="&#xf771;" horiz-adv-x="640" 
d="M344 536c151 0 258 -109 258 -247c0 -171 -138 -301 -314 -301c-151 0 -258 111 -258 248c0 171 139 300 314 300zM300 131c84 0 148 66 148 150c0 67 -47 113 -116 113c-84 0 -148 -66 -148 -150c0 -67 47 -113 116 -113z" />
    <glyph glyph-name="p.sc" unicode="&#xf772;" horiz-adv-x="558" 
d="M205 279h97c45 0 87 18 87 68c0 34 -25 49 -72 49h-92zM182 151l-26 -151h-149l92 524h241c127 0 201 -68 201 -165c0 -126 -103 -208 -235 -208h-124z" />
    <glyph glyph-name="q.sc" unicode="&#xf773;" horiz-adv-x="644" 
d="M344 536c151 0 258 -111 258 -238c0 -71 -30 -129 -72 -172h63l-21 -126h-284c-151 0 -258 109 -258 242c0 166 139 294 314 294zM300 143c84 0 148 64 148 143c0 62 -47 108 -116 108c-84 0 -148 -65 -148 -145c0 -62 47 -106 116 -106z" />
    <glyph glyph-name="r.sc" unicode="&#xf774;" horiz-adv-x="570" 
d="M183 156l-27 -156h-149l92 524h248c127 0 204 -68 204 -164c0 -97 -64 -166 -156 -192l98 -168h-157l-89 156h-64zM205 280h104c45 0 90 19 90 68c0 33 -28 49 -75 49h-98z" />
    <glyph glyph-name="s.sc" unicode="&#xf775;" horiz-adv-x="526" 
d="M233 106c38 0 89 9 89 49c0 29 -20 45 -81 52l-43 5c-94 11 -152 74 -152 148c0 121 108 176 233 176c147 0 209 -72 214 -163h-138c-2 28 -25 46 -77 46c-43 0 -80 -10 -80 -47c0 -27 26 -44 88 -50l44 -6c97 -10 145 -65 145 -138c0 -135 -115 -190 -250 -190
c-141 0 -219 65 -219 170h138c-1 -35 32 -52 89 -52z" />
    <glyph glyph-name="t.sc" unicode="&#xf776;" horiz-adv-x="495" 
d="M523 524l-24 -137h-159l-68 -387h-149l68 387h-159l24 137h467z" />
    <glyph glyph-name="u.sc" unicode="&#xf777;" horiz-adv-x="613" 
d="M283 132c65 0 105 31 117 100l52 292h148l-54 -310c-27 -154 -134 -226 -285 -226c-152 0 -246 83 -218 235l53 301h151l-51 -287c-13 -74 22 -105 87 -105z" />
    <glyph glyph-name="v.sc" unicode="&#xf778;" horiz-adv-x="603" 
d="M184 -1l-135 525h160l75 -330l190 330h164l-320 -525h-134z" />
    <glyph glyph-name="w.sc" unicode="&#xf779;" horiz-adv-x="924" 
d="M566 524l61 -315l171 315h155l-292 -525h-134l-61 313l-173 -313h-135l-104 525h156l56 -315l178 315h122z" />
    <glyph glyph-name="x.sc" unicode="&#xf77a;" horiz-adv-x="602" 
d="M635 524l-243 -261l156 -263h-176l-92 161l-146 -161h-180l249 267l-152 257h176l86 -154l143 154h179z" />
    <glyph glyph-name="y.sc" unicode="&#xf77b;" horiz-adv-x="581" 
d="M210 524l88 -198l156 198h166l-273 -338l-32 -186h-149l32 186l-154 338h166z" />
    <glyph glyph-name="z.sc" unicode="&#xf77c;" horiz-adv-x="542" 
d="M477 135l-23 -135h-465l20 114l294 275h-245l24 135h453l-20 -113l-295 -276h257z" />
    <glyph glyph-name="dotlessj.sc" unicode="&#xf77d;" horiz-adv-x="517" 
d="M503 524l-59 -338c-24 -138 -108 -198 -235 -198c-160 0 -208 104 -202 205h145c-3 -38 16 -61 64 -61c45 0 74 27 83 80l55 312h149z" />
    <glyph glyph-name="grave.sc" unicode="&#xf77e;" 
d="M155 705l113 96l120 -163l-75 -64z" />
    <glyph glyph-name="acute.sc" unicode="&#xf77f;" 
d="M396 801l79 -96l-186 -131l-52 64z" />
    <glyph glyph-name="dieresis.sc" unicode="&#xf780;" 
d="M120 654c0 48 38 88 89 88c46 0 80 -34 80 -78c0 -49 -37 -89 -88 -89c-48 0 -81 34 -81 79zM343 654c0 48 38 88 88 88c47 0 80 -34 80 -78c0 -49 -36 -89 -88 -89c-47 0 -80 34 -80 79z" />
    <glyph glyph-name="circumflex.sc" unicode="&#xf781;" 
d="M396 743l99 -165h-129l-51 71l-74 -71h-133l150 165h138z" />
    <glyph glyph-name="tilde.sc" unicode="&#xf782;" 
d="M376 686c23 0 36 12 47 36l85 -18c-22 -63 -65 -130 -138 -130c-50 0 -82 38 -119 38c-22 0 -36 -13 -46 -36l-86 18c23 63 67 129 139 129c50 0 82 -37 118 -37z" />
    <glyph glyph-name="macron.sc" unicode="&#xf783;" 
d="M495 692l-19 -113h-349l20 113h348z" />
    <glyph glyph-name="breve.sc" unicode="&#xf784;" 
d="M314 575c-130 0 -169 87 -167 166h116c-1 -32 16 -56 57 -56c40 0 68 22 77 56h117c-17 -76 -73 -166 -200 -166z" />
    <glyph glyph-name="dotaccent.sc" unicode="&#xf785;" 
d="M230 656c0 49 38 89 90 89c48 0 82 -34 82 -79c0 -50 -37 -91 -90 -91c-49 0 -82 35 -82 81z" />
    <glyph glyph-name="ring.sc" unicode="&#xf786;" 
d="M319 645c30 0 56 24 56 56c0 27 -21 48 -50 48c-30 0 -55 -24 -55 -57c0 -27 20 -47 49 -47zM313 573c-70 0 -119 51 -119 114c0 71 57 134 137 134c71 0 120 -52 120 -116c0 -71 -59 -132 -138 -132z" />
    <glyph glyph-name="cedilla.sc" unicode="&#xf787;" 
d="M209 -163h-136l92 165h119z" />
    <glyph glyph-name="hungarumlaut.sc" unicode="&#xf788;" 
d="M238 803l104 -68l-144 -158l-71 46zM443 803l104 -68l-143 -158l-72 46z" />
    <glyph glyph-name="ogonek.sc" unicode="&#xf789;" 
d="M273 -85l15 -73c-25 -19 -68 -38 -117 -38c-61 0 -116 30 -116 81c0 93 113 133 192 155l25 -40c-29 -10 -90 -33 -90 -70c0 -19 18 -26 39 -26c19 0 37 4 52 11z" />
    <glyph glyph-name="caron.sc" unicode="&#xf78a;" 
d="M524 743l-149 -165h-139l-99 165h129l51 -71l74 71h133z" />
    <glyph glyph-name="commaaccent.sc" unicode="&#xf78b;" 
d="M281 -40l-88 -199h-120l58 199h150z" />
    <glyph glyph-name="bar.sc" unicode="&#xf78c;" 
d="M484 687l-17 -98h-327l17 98h327z" />
    <glyph glyph-name="germandbls.sc" unicode="&#xf78d;" horiz-adv-x="1046" 
d="M233 106c38 0 89 9 89 49c0 29 -20 45 -81 52l-43 5c-94 11 -152 74 -152 148c0 121 108 176 233 176c147 0 209 -72 214 -163h-138c-2 28 -25 46 -77 46c-43 0 -80 -10 -80 -47c0 -27 26 -44 88 -50l44 -6c97 -10 145 -65 145 -138c0 -135 -115 -190 -250 -190
c-141 0 -219 65 -219 170h138c-1 -35 32 -52 89 -52zM753 106c38 0 89 9 89 49c0 29 -20 45 -81 52l-43 5c-94 11 -152 74 -152 148c0 121 108 176 233 176c147 0 209 -72 214 -163h-138c-2 28 -25 46 -77 46c-43 0 -80 -10 -80 -47c0 -27 26 -44 88 -50l44 -6
c97 -10 145 -65 145 -138c0 -135 -115 -190 -250 -190c-141 0 -219 65 -219 170h138c-1 -35 32 -52 89 -52z" />
    <glyph glyph-name="aacute.sc" unicode="&#xf78e;" horiz-adv-x="616" 
d="M417 525l142 -525h-149l-24 99h-218l-59 -99h-152l326 525h134zM465 801l79 -96l-186 -131l-52 64zM322 358l-80 -133h113z" />
    <glyph glyph-name="agrave.sc" unicode="&#xf78f;" horiz-adv-x="616" 
d="M417 525l142 -525h-149l-24 99h-218l-59 -99h-152l326 525h134zM200 705l113 96l120 -163l-75 -64zM322 358l-80 -133h113z" />
    <glyph glyph-name="acircumflex.sc" unicode="&#xf790;" horiz-adv-x="616" 
d="M417 525l142 -525h-149l-24 99h-218l-59 -99h-152l326 525h134zM453 743l99 -165h-129l-51 71l-74 -71h-133l150 165h138zM322 358l-80 -133h113z" />
    <glyph glyph-name="adieresis.sc" unicode="&#xf791;" horiz-adv-x="616" 
d="M417 525l142 -525h-149l-24 99h-218l-59 -99h-152l326 525h134zM177 654c0 48 38 88 89 88c46 0 80 -34 80 -78c0 -49 -37 -89 -88 -89c-48 0 -81 34 -81 79zM400 654c0 48 38 88 88 88c47 0 80 -34 80 -78c0 -49 -36 -89 -88 -89c-47 0 -80 34 -80 79zM322 358l-80 -133
h113z" />
    <glyph glyph-name="atilde.sc" unicode="&#xf792;" horiz-adv-x="616" 
d="M417 525l142 -525h-149l-24 99h-218l-59 -99h-152l326 525h134zM433 686c23 0 36 12 47 36l85 -18c-22 -63 -65 -130 -138 -130c-50 0 -82 38 -119 38c-22 0 -36 -13 -46 -36l-86 18c23 63 67 129 139 129c50 0 82 -37 118 -37zM322 358l-80 -133h113z" />
    <glyph glyph-name="aring.sc" unicode="&#xf793;" horiz-adv-x="616" 
d="M417 525l142 -525h-149l-24 99h-218l-59 -99h-152l326 525h134zM369 572c-70 0 -119 51 -119 114c0 71 57 134 137 134c71 0 120 -52 120 -116c0 -71 -59 -132 -138 -132zM375 644c30 0 56 24 56 56c0 27 -21 48 -50 48c-30 0 -55 -24 -55 -57c0 -27 20 -47 49 -47z
M322 358l-80 -133h113z" />
    <glyph glyph-name="amacron.sc" unicode="&#xf794;" horiz-adv-x="616" 
d="M417 525l142 -525h-149l-24 99h-218l-59 -99h-152l326 525h134zM552 692l-19 -113h-349l20 113h348zM322 358l-80 -133h113z" />
    <glyph glyph-name="abreve.sc" unicode="&#xf795;" horiz-adv-x="616" 
d="M417 525l142 -525h-149l-24 99h-218l-59 -99h-152l326 525h134zM370 574c-130 0 -169 87 -167 166h116c-1 -32 16 -56 57 -56c40 0 68 22 77 56h117c-17 -76 -73 -166 -200 -166zM322 358l-80 -133h113z" />
    <glyph glyph-name="aogonek.sc" unicode="&#xf796;" horiz-adv-x="616" 
d="M543 -85l15 -73c-25 -19 -68 -38 -117 -38c-61 0 -116 30 -116 81c0 54 38 90 85 115l-24 99h-218l-59 -99h-152l326 525h134l142 -525h-17c-29 -10 -90 -33 -90 -70c0 -19 18 -26 39 -26c19 0 37 4 52 11zM322 358l-80 -133h113z" />
    <glyph glyph-name="aringacute.sc" unicode="&#xf797;" horiz-adv-x="616" 
d="M417 525l142 -525h-149l-24 99h-218l-59 -99h-152l326 525h134zM368 562c-70 0 -119 51 -119 114c0 71 57 134 137 134c71 0 120 -52 120 -116c0 -71 -59 -132 -138 -132zM514 1065l79 -96l-186 -131l-52 64zM374 634c30 0 56 24 56 56c0 27 -21 48 -50 48
c-30 0 -55 -24 -55 -57c0 -27 20 -47 49 -47zM322 358l-80 -133h113z" />
    <glyph glyph-name="ae.sc" unicode="&#xf798;" horiz-adv-x="917" 
d="M829 0h-442l17 97h-198l-87 -97h-170l480 524h488l-22 -125h-289l-14 -75h261l-20 -122h-262l-14 -77h294zM318 223h108l26 149z" />
    <glyph glyph-name="aeacute.sc" unicode="&#xf799;" horiz-adv-x="917" 
d="M829 0h-442l17 97h-198l-87 -97h-170l480 524h488l-22 -125h-289l-14 -75h261l-20 -122h-262l-14 -77h294zM625 801l79 -96l-186 -131l-52 64zM318 223h108l26 149z" />
    <glyph glyph-name="ccedilla.sc" unicode="&#xf79a;" horiz-adv-x="627" 
d="M259 -165h-136l90 163c-110 29 -183 125 -183 239c0 170 139 299 314 299c149 0 249 -109 247 -218h-146c-10 39 -46 74 -115 74c-82 0 -146 -60 -146 -144c0 -65 48 -115 119 -115c70 0 108 33 124 74h151c-20 -103 -106 -201 -249 -216z" />
    <glyph glyph-name="cacute.sc" unicode="&#xf79b;" horiz-adv-x="627" 
d="M30 237c0 170 139 299 314 299c149 0 249 -109 247 -218h-146c-10 39 -46 74 -115 74c-82 0 -146 -60 -146 -144c0 -65 48 -115 119 -115c70 0 108 33 124 74h151c-22 -112 -122 -219 -290 -219c-151 0 -258 111 -258 249zM481 802l79 -96l-186 -131l-52 64z" />
    <glyph glyph-name="ccircumflex.sc" unicode="&#xf79c;" horiz-adv-x="627" 
d="M30 237c0 170 139 299 314 299c149 0 249 -109 247 -218h-146c-10 39 -46 74 -115 74c-82 0 -146 -60 -146 -144c0 -65 48 -115 119 -115c70 0 108 33 124 74h151c-22 -112 -122 -219 -290 -219c-151 0 -258 111 -258 249zM469 744l99 -165h-129l-51 71l-74 -71h-133
l150 165h138z" />
    <glyph glyph-name="cdotaccent.sc" unicode="&#xf79d;" horiz-adv-x="627" 
d="M30 237c0 170 139 299 314 299c149 0 249 -109 247 -218h-146c-10 39 -46 74 -115 74c-82 0 -146 -60 -146 -144c0 -65 48 -115 119 -115c70 0 108 33 124 74h151c-22 -112 -122 -219 -290 -219c-151 0 -258 111 -258 249zM303 656c0 49 38 89 90 89c48 0 82 -34 82 -79
c0 -50 -37 -91 -90 -91c-49 0 -82 35 -82 81z" />
    <glyph glyph-name="ccaron.sc" unicode="&#xf79e;" horiz-adv-x="627" 
d="M30 237c0 170 139 299 314 299c149 0 249 -109 247 -218h-146c-10 39 -46 74 -115 74c-82 0 -146 -60 -146 -144c0 -65 48 -115 119 -115c70 0 108 33 124 74h151c-22 -112 -122 -219 -290 -219c-151 0 -258 111 -258 249zM597 744l-149 -165h-139l-99 165h129l51 -71
l74 71h133z" />
    <glyph glyph-name="eth.sc" unicode="&#xf79f;" horiz-adv-x="617" 
d="M578 294c0 -167 -141 -294 -320 -294h-249l37 212h-53l17 98h53l38 214h217c163 0 260 -97 260 -230zM337 310l-17 -98h-125l-12 -71h89c82 0 152 56 152 144c0 58 -46 98 -119 98h-79l-13 -73h124z" />
    <glyph glyph-name="dcaron.sc" unicode="&#xf7a0;" horiz-adv-x="615" 
d="M270 141c82 0 152 56 152 144c0 58 -46 98 -119 98h-79l-43 -242h89zM576 294c0 -167 -141 -294 -320 -294h-249l92 524h217c163 0 260 -97 260 -230zM580 744l-149 -165h-139l-99 165h129l51 -71l74 71h133z" />
    <glyph glyph-name="dcroat.sc" unicode="&#xf7a1;" horiz-adv-x="617" 
d="M578 294c0 -167 -141 -294 -320 -294h-249l37 212h-53l17 98h53l38 214h217c163 0 260 -97 260 -230zM337 310l-17 -98h-125l-12 -71h89c82 0 152 56 152 144c0 58 -46 98 -119 98h-79l-13 -73h124z" />
    <glyph glyph-name="eacute.sc" unicode="&#xf7a2;" horiz-adv-x="538" 
d="M450 0h-443l92 524h438l-22 -125h-289l-13 -75h261l-21 -122h-261l-14 -77h293zM440 801l79 -96l-186 -131l-52 64z" />
    <glyph glyph-name="egrave.sc" unicode="&#xf7a3;" horiz-adv-x="538" 
d="M450 0h-443l92 524h438l-22 -125h-289l-13 -75h261l-21 -122h-261l-14 -77h293zM175 705l113 96l120 -163l-75 -64z" />
    <glyph glyph-name="ecircumflex.sc" unicode="&#xf7a4;" horiz-adv-x="538" 
d="M450 0h-443l92 524h438l-22 -125h-289l-13 -75h261l-21 -122h-261l-14 -77h293zM428 743l99 -165h-129l-51 71l-74 -71h-133l150 165h138z" />
    <glyph glyph-name="edieresis.sc" unicode="&#xf7a5;" horiz-adv-x="538" 
d="M450 0h-443l92 524h438l-22 -125h-289l-13 -75h261l-21 -122h-261l-14 -77h293zM152 654c0 48 38 88 89 88c46 0 80 -34 80 -78c0 -49 -37 -89 -88 -89c-48 0 -81 34 -81 79zM375 654c0 48 38 88 88 88c47 0 80 -34 80 -78c0 -49 -36 -89 -88 -89c-47 0 -80 34 -80 79z
" />
    <glyph glyph-name="emacron.sc" unicode="&#xf7a6;" horiz-adv-x="538" 
d="M450 0h-443l92 524h438l-22 -125h-289l-13 -75h261l-21 -122h-261l-14 -77h293zM527 692l-19 -113h-349l20 113h348z" />
    <glyph glyph-name="ebreve.sc" unicode="&#xf7a7;" horiz-adv-x="538" 
d="M450 0h-443l92 524h438l-22 -125h-289l-13 -75h261l-21 -122h-261l-14 -77h293zM346 574c-130 0 -169 87 -167 166h116c-1 -32 16 -56 57 -56c40 0 68 22 77 56h117c-17 -76 -73 -166 -200 -166z" />
    <glyph glyph-name="edotaccent.sc" unicode="&#xf7a8;" horiz-adv-x="538" 
d="M450 0h-443l92 524h438l-22 -125h-289l-13 -75h261l-21 -122h-261l-14 -77h293zM262 655c0 49 38 89 90 89c48 0 82 -34 82 -79c0 -50 -37 -91 -90 -91c-49 0 -82 35 -82 81z" />
    <glyph glyph-name="eogonek.sc" unicode="&#xf7a9;" horiz-adv-x="538" 
d="M419 -85l15 -73c-25 -19 -68 -38 -117 -38c-61 0 -116 30 -116 81c0 54 38 90 85 115h-279l92 524h438l-22 -125h-289l-13 -75h261l-21 -122h-261l-14 -77h293l-21 -125h-32c-29 -10 -90 -33 -90 -70c0 -19 18 -26 39 -26c19 0 37 4 52 11z" />
    <glyph glyph-name="ecaron.sc" unicode="&#xf7aa;" horiz-adv-x="538" 
d="M450 0h-443l92 524h438l-22 -125h-289l-13 -75h261l-21 -122h-261l-14 -77h293zM556 743l-149 -165h-139l-99 165h129l51 -71l74 71h133z" />
    <glyph glyph-name="iacute.sc" unicode="&#xf7b1;" horiz-adv-x="264" 
d="M249 524l-92 -524h-149l92 524h149zM290 801l79 -96l-186 -131l-52 64z" />
    <glyph glyph-name="igrave.sc" unicode="&#xf7b2;" horiz-adv-x="264" 
d="M249 524l-92 -524h-149l92 524h149zM25 705l113 96l120 -163l-75 -64z" />
    <glyph glyph-name="icircumflex.sc" unicode="&#xf7b3;" horiz-adv-x="264" 
d="M249 524l-92 -524h-149l92 524h149zM278 743l99 -165h-129l-51 71l-74 -71h-133l150 165h138z" />
    <glyph glyph-name="idieresis.sc" unicode="&#xf7b4;" horiz-adv-x="264" 
d="M249 524l-92 -524h-149l92 524h149zM2 654c0 48 38 88 89 88c46 0 80 -34 80 -78c0 -49 -37 -89 -88 -89c-48 0 -81 34 -81 79zM225 654c0 48 38 88 88 88c47 0 80 -34 80 -78c0 -49 -36 -89 -88 -89c-47 0 -80 34 -80 79z" />
    <glyph glyph-name="itilde.sc" unicode="&#xf7b5;" horiz-adv-x="264" 
d="M249 524l-92 -524h-149l92 524h149zM258 686c23 0 36 12 47 36l85 -18c-22 -63 -65 -130 -138 -130c-50 0 -82 38 -119 38c-22 0 -36 -13 -46 -36l-86 18c23 63 67 129 139 129c50 0 82 -37 118 -37z" />
    <glyph glyph-name="imacron.sc" unicode="&#xf7b6;" horiz-adv-x="264" 
d="M249 524l-92 -524h-149l92 524h149zM377 692l-19 -113h-349l20 113h348z" />
    <glyph glyph-name="ibreve.sc" unicode="&#xf7b7;" horiz-adv-x="264" 
d="M249 524l-92 -524h-149l92 524h149zM196 574c-130 0 -169 87 -167 166h116c-1 -32 16 -56 57 -56c40 0 68 22 77 56h117c-17 -76 -73 -166 -200 -166z" />
    <glyph glyph-name="iogonek.sc" unicode="&#xf7b8;" horiz-adv-x="264" 
d="M154 -85l15 -73c-25 -19 -68 -38 -117 -38c-61 0 -116 30 -116 81c0 54 38 90 85 115h-13l92 524h149l-92 -524h-4c-29 -10 -90 -33 -90 -70c0 -19 18 -26 39 -26c19 0 37 4 52 11z" />
    <glyph glyph-name="ij.sc" unicode="&#xf7ba;" horiz-adv-x="781" 
d="M249 524l-92 -524h-149l92 524h149zM767 524l-59 -338c-24 -138 -108 -198 -235 -198c-160 0 -208 104 -202 205h145c-3 -38 16 -61 64 -61c45 0 74 27 83 80l55 312h149z" />
    <glyph glyph-name="kcommaaccent.sc" unicode="&#xf7bc;" horiz-adv-x="594" 
d="M632 524l-263 -233l177 -291h-168l-121 193l-80 -71l-21 -122h-149l92 524h149l-36 -204l230 204h190zM338 -40l-88 -199h-120l58 199h150z" />
    <glyph glyph-name="kgreenlandic.sc" unicode="&#xf7bd;" horiz-adv-x="594" 
d="M632 524l-263 -233l177 -291h-168l-121 193l-80 -71l-21 -122h-149l92 524h149l-36 -204l230 204h190z" />
    <glyph glyph-name="lacute.sc" unicode="&#xf7be;" horiz-adv-x="496" 
d="M430 0h-423l92 524h149l-68 -387h274zM290 801l79 -96l-186 -131l-52 64z" />
    <glyph glyph-name="lcommaaccent.sc" unicode="&#xf7bf;" horiz-adv-x="496" 
d="M430 0h-423l92 524h149l-68 -387h274zM303 -40l-88 -199h-120l58 199h150z" />
    <glyph glyph-name="lcaron.sc" unicode="&#xf7c0;" horiz-adv-x="496" 
d="M430 0h-423l92 524h149l-68 -387h274zM263 275l81 256h153l-111 -256h-123z" />
    <glyph glyph-name="ldot.sc" unicode="&#xf7c1;" horiz-adv-x="496" 
d="M430 0h-423l92 524h149l-68 -387h274zM271 289c5 51 47 89 97 89s83 -36 80 -84c-5 -51 -46 -89 -97 -89s-84 36 -80 84z" />
    <glyph glyph-name="lslash.sc" unicode="&#xf7c2;" horiz-adv-x="504" 
d="M345 434l36 -88l-174 -91l-21 -118h274l-24 -137h-423l30 170l-29 -15l-35 88l84 44l42 237h149l-27 -152z" />
    <glyph glyph-name="nacute.sc" unicode="&#xf7c4;" horiz-adv-x="639" 
d="M392 0l-184 302l-52 -302h-149l92 524h140l182 -302l54 302h149l-92 -524h-140zM478 801l79 -96l-186 -131l-52 64z" />
    <glyph glyph-name="ncommaaccent.sc" unicode="&#xf7c5;" horiz-adv-x="639" 
d="M392 0l-184 302l-52 -302h-149l92 524h140l182 -302l54 302h149l-92 -524h-140zM336 -40l-88 -199h-120l58 199h150z" />
    <glyph glyph-name="ncaron.sc" unicode="&#xf7c6;" horiz-adv-x="639" 
d="M392 0l-184 302l-52 -302h-149l92 524h140l182 -302l54 302h149l-92 -524h-140zM594 743l-149 -165h-139l-99 165h129l51 -71l74 71h133z" />
    </font>
</defs>
</svg>
