<svg width="28" height="28" viewBox="0 0 28 28" fill="none" xmlns="http://www.w3.org/2000/svg">
<path d="M21.72 0H5.8C2.59675 0 0 2.59675 0 5.8V21.72C0 24.9233 2.59675 27.52 5.8 27.52H21.72C24.9233 27.52 27.52 24.9233 27.52 21.72V5.8C27.52 2.59675 24.9233 0 21.72 0Z" fill="#FFCF25"/>
<path d="M8.15673 13.0459H7C7.05508 11.9836 7.63738 11 9.28985 11C10.6748 11 11.4695 11.8184 11.4695 12.8492C11.4695 13.88 10.8794 14.3522 10.1004 15.0131L8.84133 16.0912H11.5561V17.122H7.04721V16.2958L9.25051 14.4387C9.88789 13.8643 10.2971 13.4944 10.2971 12.8885C10.2971 12.3692 9.92724 12.0308 9.26625 12.0308C8.50296 12.0308 8.21181 12.4164 8.1646 13.0459H8.15673Z" fill="white"/>
<path d="M16.4979 14.7299H17.4421V15.745H16.4979V17.1221H15.3254V15.745H12.1621V14.8873L15.3962 11.0945H16.4979V14.7299ZM15.3254 14.7299V12.5974L13.5156 14.7299H15.3254Z" fill="white"/>
<path d="M21.9116 14.7695V17.1223H20.8493V15.0449C20.8493 14.5019 20.5738 14.1636 20.0781 14.1636C19.5824 14.1636 19.2361 14.5334 19.2361 15.0921V17.1301H18.1738V11.1183H19.2361V13.6993C19.4801 13.416 19.8893 13.2035 20.4165 13.2035C21.345 13.2035 21.9194 13.8567 21.9194 14.7852L21.9116 14.7695Z" fill="white"/>
</svg>
