<svg width="28" height="28" viewBox="0 0 28 28" fill="none" xmlns="http://www.w3.org/2000/svg">
<path d="M21.72 0H5.8C2.59675 0 0 2.59675 0 5.8V21.72C0 24.9233 2.59675 27.52 5.8 27.52H21.72C24.9233 27.52 27.52 24.9233 27.52 21.72V5.8C27.52 2.59675 24.9233 0 21.72 0Z" fill="#666666"/>
<path d="M8.94347 13.6687H8C8.04493 12.8023 8.51987 12 9.86769 12C10.9973 12 11.6455 12.6675 11.6455 13.5083C11.6455 14.349 11.1642 14.7341 10.5288 15.2733L9.50185 16.1526H11.7161V16.9933H8.03851V16.3194L9.8356 14.8047C10.3555 14.3362 10.6892 14.0346 10.6892 13.5404C10.6892 13.1168 10.3876 12.8408 9.84843 12.8408C9.22587 12.8408 8.9884 13.1553 8.94989 13.6687H8.94347Z" fill="white"/>
<path d="M15.7464 15.0423H16.5165V15.8703H15.7464V16.9935H14.7901V15.8703H12.21V15.1707L14.8478 12.0771H15.7464V15.0423ZM14.7901 15.0423V13.303L13.3139 15.0423H14.7901Z" fill="white"/>
<path d="M20.1629 15.0742V16.9933H19.2964V15.2989C19.2964 14.856 19.0718 14.58 18.6675 14.58C18.2631 14.58 17.9807 14.8817 17.9807 15.3374V16.9997H17.1143V12.0962H17.9807V14.2013C18.1797 13.9703 18.5134 13.797 18.9434 13.797C19.7008 13.797 20.1693 14.3297 20.1693 15.0871L20.1629 15.0742Z" fill="white"/>
</svg>
