<svg xmlns="http://www.w3.org/2000/svg" viewBox="0 0 614.56 336.43"><defs><style>.cls-1{fill:#231f20;opacity:0.25;}.cls-2{fill:#808184;}.cls-3{fill:#929497;}.cls-4{fill:#d0d2d3;}.cls-5{fill:#a6a8ab;}.cls-6{fill:#4d3e38;}.cls-7{fill:#f37c20;}.cls-8{fill:#f17c21;}.cls-9{fill:#fff;}</style></defs><g id="Layer_2" data-name="Layer 2"><g id="Layer_1-2" data-name="Layer 1"><path class="cls-1" d="M614.56,236.3l-71.9-4L377,19.51l-15-9.57L360.12,7.2,341.8,16.36l1.47,2.12L299.43,38.41l-36.75,25.8L164.59,53.87,6.48,93.37v102c-2.87,2.6,0,92.14,0,92.14l67,17.48c0,.19,0,.36,0,.56l27.29,5,127.3,25.92L407.2,310.36l28,23.69,85.63-1.61Z"/><polygon class="cls-2" points="0 92.68 167.47 55.28 167.47 239.82 0 92.68"/><polygon class="cls-3" points="375.59 77.23 167.47 55.28 167.47 239.82 375.59 77.23"/><polygon class="cls-4" points="227.63 120.32 227.63 322.74 0 276.41 0 92.68 227.63 120.32"/><polygon class="cls-5" points="227.63 120.32 227.63 322.74 375.59 263.4 375.59 77.23 227.63 120.32"/><polygon class="cls-4" points="256.89 67.47 295.1 40.65 481.27 295.1 439.81 324.37 256.89 67.47"/><polygon class="cls-5" points="384.53 0 295.1 40.65 481.27 295.1 549.56 226.81 384.53 0"/><path class="cls-6" d="M164.93,131.7h0a5,5,0,0,0,7.6,1.89h0c2.93-2.53,7.89-.36,8.09,3.57h0a5.17,5.17,0,0,0,6.71,4.43h0c3.84-1.28,7.85,2.48,6.54,6.15h0c-1.07,3,1.42,6.27,4.83,6.43h0c4.25.2,6.72,5,4,7.91h0c-2.19,2.31-1.05,6.2,2.22,7.55h0c4.06,1.69,4.58,6.94.83,8.56h0c-3,1.31-3.4,5.21-.75,7.58h0c3.29,2.95,1.76,7.84-2.49,8h0a4.25,4.25,0,0,0-3.64,6.49h0c2.05,3.79-1.29,7.58-5.44,6.2h0c-3.34-1.12-6.4,1.18-6,4.46h0c.54,4.06-4.1,6.23-7.56,3.55h0c-2.78-2.15-6.59-1.2-7.39,1.84h0c-1,3.75-6.25,4-8.56.47h0c-1.87-2.87-5.87-3.37-7.76-1h0c-2.33,2.94-7.44,1.35-8.35-2.59h0c-.74-3.17-4.37-5-7-3.57h0c-3.3,1.77-7.6-1.41-7.05-5.2h0a5.08,5.08,0,0,0-5.44-5.61h0c-3.79.41-6.76-3.91-4.86-7.07h0c1.53-2.55-.12-6.11-3.19-6.89h0c-3.78-1-5.07-5.85-2.12-8h0c2.39-1.74,2.09-5.49-.58-7.27h0c-3.28-2.19-2.76-7,.85-7.92h0a4.2,4.2,0,0,0,2.09-6.77h0a4.17,4.17,0,0,1,3.7-6.86h0a4.12,4.12,0,0,0,4.48-5.41h0a4.22,4.22,0,0,1,6.12-4.95h0a4.27,4.27,0,0,0,6.36-3.36h0c.25-3.79,5-5.25,7.8-2.36h0c2.26,2.34,6.11,1.92,7.46-.83h0C158.09,127.7,163.29,128.05,164.93,131.7Z"/><path class="cls-6" d="M198.53,177.12c-.14,20.43-17.67,34.88-38.61,32.22-20.37-2.58-36.2-20.45-35.86-39.87s16.58-33.64,36.76-32.05C181.55,139.05,198.67,156.8,198.53,177.12Z"/><path class="cls-7" d="M159.91,210.18c-20.8-2.65-37-21-36.67-40.79s17-34.41,37.59-32.79c21.18,1.65,38.75,19.84,38.61,40.61S181.31,212.91,159.91,210.18Zm.9-71.94c-19.69-1.56-35.6,12.46-35.93,31.31S140.06,206,159.93,208.5c20.41,2.58,37.56-11.56,37.7-31.48S181,139.84,160.81,138.24Z"/><path class="cls-8" d="M143.07,184.8l-3.45-.7a1.93,1.93,0,0,0,1.7,1.92,3.86,3.86,0,0,0,1.31,0l.14.87a5.3,5.3,0,0,1-1.55,0,3,3,0,0,1-2.44-3.19c.05-1.42.91-2.54,2.35-2.26a2.64,2.64,0,0,1,2,2.91A2.07,2.07,0,0,1,143.07,184.8Zm-.77-.91a1.63,1.63,0,0,0-1.25-1.69c-.76-.15-1.24.3-1.37,1.17Z"/><path class="cls-8" d="M147.81,188.12v-.56a1.71,1.71,0,0,1-1.51.35,2,2,0,0,1-1.69-2.06,1.34,1.34,0,0,1,1.76-1.29,3.68,3.68,0,0,1,1.45.64v-.31a1.36,1.36,0,0,0-1.23-1.56,2.93,2.93,0,0,0-1.26,0l-.13-.88a4.86,4.86,0,0,1,1.52,0,2.28,2.28,0,0,1,2,2.63l-.06,3.16Zm0-2.09a2.8,2.8,0,0,0-1.3-.69c-.62-.12-1,.1-1,.69s.38,1,1.09,1.13a1.29,1.29,0,0,0,1.23-.41Z"/><path class="cls-8" d="M152.1,189.11a3.27,3.27,0,0,1-1.75-1.07l.48-.61a2.52,2.52,0,0,0,1.24.85c.57.12.85-.12.86-.59,0-1.05-2.29-1.25-2.26-2.84a1.3,1.3,0,0,1,1.7-1.26,3.32,3.32,0,0,1,1.42.79l-.42.67a2.21,2.21,0,0,0-1.05-.65c-.56-.11-.8.14-.81.52,0,.9,2.28,1.17,2.26,2.84A1.33,1.33,0,0,1,152.1,189.11Z"/><path class="cls-8" d="M156.56,192.75l-.95-.2,1.55-3-2.06-5.31,1,.2,1.5,4.18,1.55-3.58,1,.2Z"/><path class="cls-9" d="M164.26,191.64a3.6,3.6,0,0,1-1.51-.73v3.16l-1-.21,0-8.32.91.18v.54a2.2,2.2,0,0,1,1.74-.31,3.29,3.29,0,0,1,2.46,3.31A2.16,2.16,0,0,1,164.26,191.64Zm0-4.86a1.66,1.66,0,0,0-1.51.35v2.7a2.44,2.44,0,0,0,1.5.94c1,.21,1.7-.51,1.7-1.69A2.25,2.25,0,0,0,164.26,186.78Z"/><path class="cls-9" d="M169.54,185.8a.81.81,0,0,1-.63-.77.51.51,0,0,1,.62-.55.85.85,0,0,1,.64.79A.52.52,0,0,1,169.54,185.8Z"/><polygon class="cls-9" points="169.08 192.53 169.05 186.96 170.04 187.15 170.09 192.74 169.08 192.53"/><path class="cls-9" d="M175.22,193.91a3.71,3.71,0,0,1-3-3.51,2.26,2.26,0,0,1,2.88-2.36A4.38,4.38,0,0,1,177,189l-.4.72a3.79,3.79,0,0,0-1.54-.77c-1.06-.21-1.84.38-1.83,1.67a2.52,2.52,0,0,0,2,2.38,2.59,2.59,0,0,0,1.53-.15l.37.88A3.09,3.09,0,0,1,175.22,193.91Z"/><path class="cls-9" d="M182.54,195.32,180,192l.06,2.83-1.05-.22-.2-9.9,1,.19.14,6.72,2.31-2.05,1.31.26-2.65,2.13,2.93,3.67Z"/><path class="cls-7" d="M158.22,162.31c-.59-.22-5.14-2.67-5.68-6a3.28,3.28,0,0,1-.69,1.93s1.33-2.72-.92-4.52a2.79,2.79,0,0,0-1.14,2.74,1.39,1.39,0,0,1-.18-1.38,18.23,18.23,0,0,1-1.9,1.18,5.85,5.85,0,0,0-3.7,4.54s-.6,1.09,0,1.62a3.65,3.65,0,0,0,3.65.47c1.38-.69,1.84,1.83,0,1.61s-4.4-1.27-4.23,1.37c0,0,2.07.82,2.15-.06a29.63,29.63,0,0,1,3.93,2.95,1.2,1.2,0,0,0,1.84.2c.94-.9,4.21-3.86,5.82-.64,0,0-2-2.9-6,1.93,0,0-1.7,1.65,1.94,7.47,0,0-2.61-.94-2.85,1.42l10.87,2s-1.42-1.49.37-4.68S166,165.82,158.22,162.31ZM147,159.62a.62.62,0,0,1-.5-.61.47.47,0,0,1,.53-.47.62.62,0,0,1,.5.61A.47.47,0,0,1,147,159.62Z"/><path class="cls-7" d="M162.48,181.43s12.65,4.23,7.89-12.24c-.72-2.38-1.35-7.73,5.11-6.2-2.31-.44-4.41.49-4.78,2.71a6.44,6.44,0,0,0,4.34,6.81c3.66,1.23,7.12-.68,7.67-4.27.69-4.45-2.82-9.19-7.32-10.55a9.49,9.49,0,0,0-12,7.35s2.81,5.19-.14,10.11S162.48,181.43,162.48,181.43Z"/><path class="cls-9" d="M144.25,167.08a1.42,1.42,0,0,1,1.12,1.44,1,1,0,0,1-1.19,1.06,1.44,1.44,0,0,1-1.13-1.44,1,1,0,0,1,1.2-1.06m0-.61a1.53,1.53,0,0,0-1.77,1.57,2.13,2.13,0,0,0,1.67,2.15,1.53,1.53,0,0,0,1.78-1.58,2.13,2.13,0,0,0-1.68-2.14Z"/><polygon class="cls-9" points="143.73 176.58 143.36 176.51 143.56 169.53 143.93 169.59 143.73 176.58"/><polygon class="cls-9" points="144.56 173.71 144.19 173.64 144.3 169.65 144.67 169.71 144.56 173.71"/><polygon class="cls-9" points="144.05 174.02 143.99 176.21 145.55 176.49 145.58 175.45 144.48 175.25 144.5 174.75 145.21 174.88 145.23 174.23 144.05 174.02"/></g></g></svg>