<svg width="28" height="28" viewBox="0 0 28 28" fill="none" xmlns="http://www.w3.org/2000/svg">
<g clip-path="url(#clip0_123_19)">
<path d="M21.72 0H5.8C2.59675 0 0 2.59675 0 5.8V21.72C0 24.9233 2.59675 27.52 5.8 27.52H21.72C24.9233 27.52 27.52 24.9233 27.52 21.72V5.8C27.52 2.59675 24.9233 0 21.72 0Z" fill="#02AFAE"/>
<path d="M18.6998 12.6499C17.9998 10.9599 17.0498 9.39995 16.0998 7.83995C15.8898 7.49995 15.6898 7.15995 15.3798 6.89995C14.9098 6.51995 14.3498 6.32995 13.7998 6.31995C13.2498 6.31995 12.6898 6.50995 12.2198 6.88995C11.8998 7.14995 11.6998 7.48995 11.4898 7.81995C10.5298 9.36995 9.56983 10.9199 8.84983 12.6099C8.44983 13.5599 8.13983 14.5299 8.09983 15.5599C8.03983 16.9899 8.50983 18.2399 9.47983 19.2699C10.6898 20.5499 12.1198 21.2099 13.7498 21.1899C15.3798 21.2199 16.8098 20.5799 18.0298 19.2999C19.0098 18.2799 19.4898 17.0299 19.4398 15.5999C19.4098 14.5699 19.0998 13.5899 18.7098 12.6399L18.6998 12.6499ZM12.4498 8.43995C12.6298 8.10995 12.7998 7.75995 13.1498 7.55995C13.3498 7.44995 13.5698 7.38995 13.7898 7.38995C14.0098 7.38995 14.2298 7.44995 14.4298 7.56995C14.7798 7.77995 14.9498 8.11995 15.1298 8.45995C15.2698 8.71995 15.1198 8.95995 14.8198 8.96995C14.4898 8.96995 14.1498 8.96995 13.8198 8.96995C13.8198 8.96995 13.7998 8.96995 13.7898 8.96995C13.7898 8.96995 13.7698 8.96995 13.7598 8.96995C13.4298 8.96995 13.0898 8.96995 12.7598 8.96995C12.4598 8.96995 12.3098 8.71995 12.4498 8.45995V8.43995ZM13.7298 19.9699C11.3298 19.9499 9.39983 17.9899 9.40983 15.5899C9.42983 13.1899 11.3898 11.2599 13.7898 11.2699C16.1898 11.2899 18.1198 13.2499 18.1098 15.6499C18.0898 18.0499 16.1298 19.9799 13.7298 19.9699Z" fill="white"/>
<path d="M13.7601 19.52C15.9085 19.52 17.6501 17.7784 17.6501 15.63C17.6501 13.4816 15.9085 11.74 13.7601 11.74C11.6117 11.74 9.87012 13.4816 9.87012 15.63C9.87012 17.7784 11.6117 19.52 13.7601 19.52Z" fill="white"/>
</g>
<defs>
<clipPath id="clip0_123_19">
<rect width="27.52" height="27.52" fill="white"/>
</clipPath>
</defs>
</svg>
