<svg xmlns="http://www.w3.org/2000/svg" viewBox="0 0 420.26 258.06"><defs><style>.cls-1{fill:#050505;}.cls-2{fill:#f37c20;}.cls-3{fill:#fff;}.cls-4{fill:none;stroke:#212121;stroke-miterlimit:10;stroke-width:2px;opacity:0.5;}.cls-5{fill:#ed7608;}</style></defs><g id="Layer_2" data-name="Layer 2"><g id="Layer_1-2" data-name="Layer 1"><path class="cls-1" d="M194.71,160.11c-1-17.75-6.46-34.4-13.57-50.54-12.66-28.79-29.48-55.22-46.34-81.63-3.67-5.75-7.27-11.54-12.75-15.87A42.18,42.18,0,0,0,67.81,13c-5.35,4.51-8.75,10.41-12.24,16.28-16,27-31.93,53.91-43.63,83.1C5.36,128.71.4,145.52,0,163.3c-.52,24.5,8,45.84,25,63.21C46.33,248.14,71,258.85,99,258c28-.08,52.26-11.59,72.83-33.92C188.28,206.19,196,184.58,194.71,160.11ZM72.37,39.52c3-5.79,5.74-11.83,11.79-15.43a21.44,21.44,0,0,1,21.91-.36c6.16,3.4,9.07,9.35,12.28,15,2.52,4.48,0,8.64-5.2,8.8-5.72.18-11.44.21-17.16.3H95c-5.72.1-11.44.27-17.16.27C72.68,48.16,70,44.09,72.37,39.52Z"/><path class="cls-2" d="M55.68,190.45l-9.37.12c.3,2.19,1.54,3.82,4.83,3.78a12.23,12.23,0,0,0,3.52-.75l.45,2a16.07,16.07,0,0,1-4.16.79c-4.59.06-6.94-2.8-7-6.48-.05-3.5,2.16-6.73,6.12-6.78,3.62,0,5.63,2.61,5.68,6.07A5.65,5.65,0,0,1,55.68,190.45Zm-2.15-1.79c-.18-2-1.33-3.52-3.58-3.49-2.07,0-3.33,1.38-3.57,3.58Z"/><path class="cls-2" d="M68.56,196l0-1.34a5.55,5.55,0,0,1-3.93,1.63c-2.53,0-4.65-1.43-4.68-4.05,0-2.31,1.92-4,4.54-4a8.93,8.93,0,0,1,3.87.8v-.76c0-2.16-1-3.15-3.38-3.12a9.47,9.47,0,0,0-3.34.68l-.42-2.06a14.77,14.77,0,0,1,4-.72c3.66-.05,5.41,1.66,5.46,5.34l.1,7.61Zm-.19-5a6.33,6.33,0,0,0-3.48-1c-1.64,0-2.7.76-2.68,2.19s1.09,2.18,3,2.16a4.23,4.23,0,0,0,3.2-1.63Z"/><path class="cls-2" d="M79.75,196.05a7.13,7.13,0,0,1-4.58-1.62l1.19-1.72a5.29,5.29,0,0,0,3.24,1.39c1.49,0,2.19-.73,2.17-1.85,0-2.5-6-1.78-6-5.62,0-2,1.59-3.82,4.3-3.85a7.18,7.18,0,0,1,3.72,1.16l-1,1.81a4.87,4.87,0,0,0-2.75-1c-1.46,0-2.06.76-2,1.67,0,2.16,6,1.63,6,5.58A4.09,4.09,0,0,1,79.75,196.05Z"/><path class="cls-2" d="M91.3,202.22l-2.4,0,3.73-7.83-5.54-11.49,2.68,0,4,9.11,3.72-9.21,2.58,0Z"/><path class="cls-3" d="M110.32,195.65a7.55,7.55,0,0,1-3.72-.89l.09,7.26-2.4,0L104,182.71l2.28,0,0,1.28a6.31,6.31,0,0,1,4.26-1.58c3.38,0,6.06,2.6,6.11,6.46A6.45,6.45,0,0,1,110.32,195.65Zm-.15-11.26a5,5,0,0,0-3.72,1.57l.08,6.3a4.93,4.93,0,0,0,3.7,1.41c2.47,0,4.14-2,4.11-4.76C114.31,186.38,112.7,184.36,110.17,184.39Z"/><path class="cls-3" d="M123,179.57a1.54,1.54,0,1,1,1.5-1.54A1.53,1.53,0,0,1,123,179.57Z"/><rect class="cls-3" x="121.91" y="182.46" width="2.4" height="12.78" transform="translate(-2.43 1.61) rotate(-0.74)"/><path class="cls-3" d="M136.51,195.31a6.56,6.56,0,0,1-7-6.48,6.66,6.66,0,0,1,6.82-6.78,8.44,8.44,0,0,1,4.36,1.25l-.95,1.84a7.09,7.09,0,0,0-3.6-1,4.25,4.25,0,0,0-4.32,4.68,4.43,4.43,0,0,0,4.59,4.44,7.09,7.09,0,0,0,3.57-1.11l.85,1.82A8.56,8.56,0,0,1,136.51,195.31Z"/><path class="cls-3" d="M153.35,194.85l-5.8-6.22.08,6.3-2.4,0-.29-22.3,2.41,0,.19,15.15,5.34-5.7,3,0-6.1,6,6.56,6.73Z"/><path class="cls-2" d="M93.85,127.79c-1.53-.33-13.71-4.74-15.44-13.13,0,0,.29,1.94-1.68,5.26,0,0,3.35-7.55-2.86-11.38,0,0-3.93,3.1-2.88,7.58a3.32,3.32,0,0,1-.6-3.53,61.82,61.82,0,0,1-5.09,3.82c-2.43,1.58-8.09,4.33-9.7,13.32,0,0-1.56,3.08,0,4.22s6.37,2,10.05-.34,5.14,3.9.09,4.14-12.18-1.36-11.4,5.34c0,0,5.75,1.2,5.9-1.09a69.23,69.23,0,0,1,10.89,5.73,3.22,3.22,0,0,0,4.92-.32c2.42-2.67,10.8-11.49,15.21-4.13,0,0-5.29-6.4-15.69,7.45,0,0-4.37,4.89,5.66,17.53,0,0-6.91-1-7.35,4.83l28-.36s-3.66-2.88.71-11.39S113.93,133.4,93.85,127.79Zm-30.13-2.36A1.41,1.41,0,1,1,65.11,124,1.41,1.41,0,0,1,63.72,125.43Z"/><path class="cls-2" d="M105.58,172.69s30.76,3.91,19.25-32.86c-1.8-5.5-3.43-18.41,12.5-17.1-5.65-.2-10.82,2.9-11.72,8.48a12.8,12.8,0,0,0,10.59,14.66,16,16,0,0,0,18.33-13.25c1.75-10.9-6.48-21.14-17.38-22.89-13.62-2.19-27.66,9.16-29.85,22.78a25.64,25.64,0,0,1,0,24.8C100.12,170.36,105.58,172.69,105.58,172.69Z"/><path class="cls-3" d="M56.93,145.8A3.19,3.19,0,1,1,53.78,149a3.19,3.19,0,0,1,3.15-3.23m0-1.55a4.74,4.74,0,1,0,4.81,4.68,4.74,4.74,0,0,0-4.81-4.68Z"/><rect class="cls-3" x="55.46" y="152.32" width="1" height="17.62" transform="translate(-2.08 0.74) rotate(-0.74)"/><rect class="cls-3" x="57.43" y="152.3" width="1" height="10.09" transform="translate(-2.03 0.76) rotate(-0.74)"/><polygon class="cls-3" points="57.16 163.42 57.23 168.9 61.47 168.84 61.43 166.25 58.46 166.28 58.44 165.03 60.38 165 60.36 163.38 57.16 163.42"/><circle class="cls-4" cx="96.72" cy="156.77" r="82.27"/><path class="cls-1" d="M420.12,152.32c-.92-17.18-6.26-33.27-13.12-48.89C394.75,75.59,378.48,50,362.17,24.48c-3.56-5.57-7-11.17-12.33-15.36a40.82,40.82,0,0,0-52.47.86c-5.18,4.36-8.46,10.07-11.83,15.75-15.47,26.07-30.89,52.15-42.21,80.38C237,122,232.17,138.21,231.8,155.4c-.5,23.7,7.69,44.34,24.21,61.14,20.59,20.93,44.45,31.28,71.48,30.48,27-.08,50.55-11.21,70.44-32.81C413.9,196.89,421.4,176,420.12,152.32ZM301.79,35.68c2.92-5.6,5.54-11.45,11.4-14.93a20.78,20.78,0,0,1,21.19-.35c6,3.29,8.77,9.05,11.87,14.55,2.45,4.34,0,8.36-5,8.51-5.53.18-11.07.21-16.6.29h-.94c-5.53.09-11.06.25-16.6.26C302.08,44,299.49,40.09,301.79,35.68Z"/><path class="cls-3" d="M298.83,106h-1.08V93.16h1.08Z"/><path class="cls-3" d="M303.15,98.06v-1.5c0-2.29.86-3.49,2.8-3.49a5.69,5.69,0,0,1,1.18.13v.89a6.71,6.71,0,0,0-1-.09c-1.46,0-1.92.86-1.92,2.71v1.35H307V99h-2.78v7h-1V99h-1.63v-.92Z"/><path class="cls-3" d="M314.16,98.06v-1.5c0-2.29.86-3.49,2.8-3.49a5.89,5.89,0,0,1,1.19.13v.89a7,7,0,0,0-1-.09c-1.46,0-1.92.86-1.92,2.71v1.35H318V99h-2.78v7h-1V99h-1.63v-.92Z"/><path class="cls-3" d="M327.18,102a4.1,4.1,0,1,1-4.09-4.08A4.06,4.06,0,0,1,327.18,102Zm-1.06,0a3,3,0,1,0-6.09,0,3,3,0,1,0,6.09,0Z"/><path class="cls-3" d="M329.45,102.82V98.06h1v4.43c0,1.66.82,2.67,2.48,2.67a2.52,2.52,0,0,0,2.62-2.72V98.06h1V106h-1v-1.36a3.15,3.15,0,0,1-2.84,1.48A3.08,3.08,0,0,1,329.45,102.82Z"/><path class="cls-3" d="M346.76,101.23V106h-1v-4.43c0-1.67-.84-2.65-2.5-2.65a2.51,2.51,0,0,0-2.64,2.7V106h-1V98.06h1v1.39a3.37,3.37,0,0,1,6.19,1.78Z"/><path class="cls-3" d="M353.05,97.93a3.82,3.82,0,0,1,3.05,1.52V93.16h1V106h-1v-1.41a3.81,3.81,0,0,1-3.07,1.53,4.08,4.08,0,0,1,0-8.16Zm.05,7.25a3.16,3.16,0,0,0,0-6.31,3.16,3.16,0,0,0,0,6.31Z"/><path class="cls-3" d="M269.33,127.92h-1.08V115.11h5.25c2.87,0,4.46,1.48,4.46,3.91s-1.66,4-4.52,4h-4.11Zm4-5.91c2.33,0,3.51-1,3.51-3s-1.17-2.94-3.51-2.94h-4V122Z"/><path class="cls-3" d="M281.49,127.92h-1V115.11h1Z"/><path class="cls-3" d="M283.92,124a3.87,3.87,0,1,1,7.72,0,4.3,4.3,0,0,1,0,.46H285a2.83,2.83,0,0,0,3,2.78,2.47,2.47,0,0,0,2.58-1.58h.95a3.45,3.45,0,0,1-3.55,2.45A3.87,3.87,0,0,1,283.92,124Zm1-.42h5.66a2.83,2.83,0,0,0-5.66,0Z"/><path class="cls-3" d="M297.44,119.88a3.78,3.78,0,0,1,3.07,1.56V120h1v7.91h-1v-1.41a3.81,3.81,0,0,1-3.07,1.53,4.08,4.08,0,0,1,0-8.16Zm.05,7.25a3.16,3.16,0,0,0,0-6.31,3.16,3.16,0,0,0,0,6.31Z"/><path class="cls-3" d="M308.82,125.78c0-.75-.44-1.1-1.65-1.34l-1-.2c-1.48-.31-2.29-.93-2.29-2.14s1.18-2.2,2.77-2.2c1.83,0,2.81.9,3,2.07h-1c-.11-.69-.84-1.21-2-1.21s-1.78.52-1.78,1.28.62,1.14,1.59,1.36l1,.2c1.5.29,2.33,1,2.33,2.16,0,1.42-1.27,2.28-3,2.28-1.9,0-3-.91-3.2-2.19h1c.13.8,1,1.32,2.23,1.32S308.82,126.65,308.82,125.78Z"/><path class="cls-3" d="M311.45,124a3.87,3.87,0,1,1,7.72,0,4.3,4.3,0,0,1,0,.46h-6.66a2.83,2.83,0,0,0,3,2.78,2.47,2.47,0,0,0,2.58-1.58H319a3.45,3.45,0,0,1-3.55,2.45A3.87,3.87,0,0,1,311.45,124Zm1-.42h5.66a2.83,2.83,0,0,0-5.66,0Z"/><path class="cls-3" d="M329.49,119.88a3.48,3.48,0,0,1,3.73,2.77h-1a2.52,2.52,0,0,0-2.66-1.83,3.15,3.15,0,0,0,0,6.29,2.5,2.5,0,0,0,2.66-1.83h1c-.22,1.5-1.56,2.76-3.72,2.76a4.08,4.08,0,0,1,0-8.16Z"/><path class="cls-3" d="M343.1,124a4.1,4.1,0,1,1-4.1-4.08A4.06,4.06,0,0,1,343.1,124ZM342,124a3.05,3.05,0,1,0-3,3.17A3,3,0,0,0,342,124Z"/><path class="cls-3" d="M352.66,123.18v4.74h-1v-4.43a2.32,2.32,0,0,0-2.51-2.65,2.51,2.51,0,0,0-2.63,2.7v4.38h-1V120h1v1.39a3.37,3.37,0,0,1,6.18,1.78Z"/><path class="cls-3" d="M356.16,120v-2.49h1V120h3.15v.92h-3.15v4.39c0,1.32.57,1.75,1.76,1.75a4.28,4.28,0,0,0,1.43-.25v.91a4.23,4.23,0,0,1-1.58.3c-1.68,0-2.63-.74-2.63-2.57v-4.53h-1.61V120Z"/><path class="cls-3" d="M365.83,119.88a3.81,3.81,0,0,1,3.08,1.56V120h1v7.91h-1v-1.41a3.84,3.84,0,0,1-3.08,1.53,4.08,4.08,0,0,1,0-8.16Zm.06,7.25a3.16,3.16,0,0,0,0-6.31,3.16,3.16,0,0,0,0,6.31Z"/><path class="cls-3" d="M376.37,119.88a3.48,3.48,0,0,1,3.73,2.77h-1a2.52,2.52,0,0,0-2.65-1.83,3.15,3.15,0,0,0,0,6.29,2.49,2.49,0,0,0,2.65-1.83h1a3.44,3.44,0,0,1-3.71,2.76,4.08,4.08,0,0,1,0-8.16Z"/><path class="cls-3" d="M383.08,120v-2.49h1V120h3.15v.92h-3.15v4.39c0,1.32.57,1.75,1.76,1.75a4.18,4.18,0,0,0,1.42-.25v.91a4.14,4.14,0,0,1-1.57.3c-1.68,0-2.64-.74-2.64-2.57v-4.53h-1.61V120Z"/><path class="cls-3" d="M258.19,144.18,256,149.89h-1.51l-3.06-8.07h1.89l2,5.67,2.14-5.67h1.55l2,5.71,2.1-5.71h1.72l-3.05,8.07h-1.56Z"/><path class="cls-3" d="M272.42,144.18l-2.14,5.71h-1.52l-3.06-8.07h1.89l2,5.67,2.14-5.67h1.56l2,5.71,2.1-5.71h1.72l-3,8.07h-1.56Z"/><path class="cls-3" d="M286.65,144.18l-2.14,5.71H283l-3.06-8.07h1.89l2,5.67,2.14-5.67h1.56l2,5.71,2.11-5.71h1.72l-3.06,8.07h-1.55Z"/><path class="cls-3" d="M295.24,147.45a1.27,1.27,0,1,1-1.26,1.26A1.23,1.23,0,0,1,295.24,147.45Z"/><path class="cls-3" d="M298.21,145.84a4,4,0,0,1,4.06-4.21,4.25,4.25,0,0,1,4,4.83H300a2.35,2.35,0,0,0,2.42,2.11c1.06,0,1.83-.46,2-1.17h1.68a3.57,3.57,0,0,1-3.76,2.65A4,4,0,0,1,298.21,145.84Zm1.79-.66h4.52a2.16,2.16,0,0,0-2.21-2.06A2.25,2.25,0,0,0,300,145.18Z"/><path class="cls-3" d="M311.71,141.63a3.49,3.49,0,0,1,2.73,1.27v-1.08h1.7v8.05h-1.7v-1.08a3.48,3.48,0,0,1-2.73,1.26,4.22,4.22,0,0,1,0-8.42Zm.24,6.87a2.67,2.67,0,0,0,0-5.31,2.67,2.67,0,0,0,0,5.31Z"/><path class="cls-3" d="M322.76,147.64c0-.61-.3-.85-1.41-1.07l-.81-.18c-1.61-.31-2.43-1-2.43-2.34,0-1.46,1.21-2.4,3-2.4,2.2,0,3,1.06,3.16,2.36h-1.61c-.07-.56-.53-.95-1.5-.95s-1.37.35-1.37.93.53.88,1.45,1.07l.78.16c1.58.29,2.44,1,2.44,2.36,0,1.52-1.21,2.45-3.24,2.45s-3.2-1-3.35-2.43h1.61c.09.64.68,1,1.72,1S322.76,148.29,322.76,147.64Z"/><path class="cls-3" d="M329.62,147l2.34-5.16h1.9l-5.63,12h-1.89l2.36-5-3.47-7h1.92Z"/><path class="cls-3" d="M339.81,150.05a3.44,3.44,0,0,1-2.66-1.19v5H335.4v-12h1.7v1.1a3.41,3.41,0,0,1,2.72-1.29,4.22,4.22,0,0,1,0,8.42Zm-.22-6.86a2.66,2.66,0,0,0,0,5.31,2.67,2.67,0,0,0,0-5.31Z"/><path class="cls-3" d="M346.68,138.07a1.11,1.11,0,1,1,0,2.21,1.11,1.11,0,0,1,0-2.21Zm.88,11.8h-1.75v-8.05h1.75Z"/><path class="cls-3" d="M353.78,141.63a3.68,3.68,0,0,1,4,3.1H356a2,2,0,0,0-2.14-1.5,2.62,2.62,0,0,0,0,5.23,2,2,0,0,0,2.14-1.52h1.77a3.65,3.65,0,0,1-4,3.11,4.21,4.21,0,1,1,0-8.42Z"/><path class="cls-3" d="M363.62,145.18l3.7,4.69h-2.09l-2.8-3.57-1.06,1v2.6h-1.75V137.06h1.75v8.16l3.62-3.4h2.27Z"/><path class="cls-3" d="M369.9,147.45a1.27,1.27,0,1,1-1.27,1.26A1.23,1.23,0,0,1,369.9,147.45Z"/><path class="cls-3" d="M376.83,141.63a3.49,3.49,0,0,1,2.73,1.27v-1.08h1.7v8.05h-1.7v-1.08a3.48,3.48,0,0,1-2.73,1.26,4.22,4.22,0,0,1,0-8.42Zm.24,6.87a2.67,2.67,0,0,0,0-5.31,2.67,2.67,0,0,0,0,5.31Z"/><path class="cls-3" d="M388.15,150.05a3.43,3.43,0,0,1-2.65-1.19v5h-1.76v-12h1.7v1.1a3.43,3.43,0,0,1,2.73-1.29,4.22,4.22,0,0,1,0,8.42Zm-.22-6.86a2.67,2.67,0,1,0,2.4,2.65A2.43,2.43,0,0,0,387.93,143.19Z"/><path class="cls-3" d="M398.54,150.05a3.43,3.43,0,0,1-2.65-1.19v5h-1.76v-12h1.7v1.1a3.43,3.43,0,0,1,2.73-1.29,4.22,4.22,0,0,1,0,8.42Zm-.22-6.86a2.67,2.67,0,1,0,2.4,2.65A2.43,2.43,0,0,0,398.32,143.19Z"/><circle class="cls-5" cx="326.64" cy="194.6" r="7.31"/><path class="cls-5" d="M301.36,217a1.54,1.54,0,0,1-1.19-.56,34.39,34.39,0,0,1-.22-43.37,1.55,1.55,0,1,1,2.41,1.94,30.93,30.93,0,0,0-6.91,19.61,31.33,31.33,0,0,0,7.11,19.85,1.55,1.55,0,0,1-1.2,2.53Z"/><path class="cls-5" d="M308,211.42a1.57,1.57,0,0,1-1.2-.57,25.79,25.79,0,0,1-5.89-16.4,25.52,25.52,0,0,1,5.63-16.08A1.55,1.55,0,0,1,309,180.3a22.43,22.43,0,0,0-4.95,14.15,22.7,22.7,0,0,0,5.18,14.43,1.56,1.56,0,0,1-1.19,2.54Z"/><path class="cls-5" d="M352.13,216.54a1.54,1.54,0,0,1-1.2-2.52,31,31,0,0,0,6.9-19.61,31.32,31.32,0,0,0-7.1-19.85,1.55,1.55,0,0,1,2.39-2,34.37,34.37,0,0,1,.21,43.37A1.53,1.53,0,0,1,352.13,216.54Z"/><path class="cls-5" d="M345.49,211.24a1.55,1.55,0,0,1-1.2-2.51,22.45,22.45,0,0,0,4.95-14.15,22.75,22.75,0,0,0-5.18-14.44,1.54,1.54,0,0,1,2.38-2,25.79,25.79,0,0,1,5.89,16.4,25.46,25.46,0,0,1-5.63,16.08A1.53,1.53,0,0,1,345.49,211.24Z"/></g></g></svg>