<svg width="48" height="48" viewBox="0 0 48 48" fill="none" xmlns="http://www.w3.org/2000/svg">
<path d="M0 10C0 4.47715 4.47715 0 10 0H38C43.5228 0 48 4.47715 48 10V38C48 43.5228 43.5228 48 38 48H10C4.47715 48 0 43.5228 0 38V10Z" fill="#00988A"/>
<path d="M31.3252 29.7179C29.7797 33.8563 25.172 35.9583 21.0336 34.4129C16.8952 32.8674 14.7932 28.2597 16.3387 24.1213C17.8841 19.9829 22.4918 17.8809 26.6302 19.4263C30.7686 20.9718 32.8706 25.5795 31.3252 29.7179Z" fill="#F9F9F9"/>
<path fill-rule="evenodd" clip-rule="evenodd" d="M25.7399 9.83117C26.4441 10.2008 27.0429 10.7431 27.4801 11.4074C31.6942 17.8312 34.5835 22.7754 34.6732 27.1574C34.7986 32.8361 29.7517 37.5607 24.0709 37.6817C18.3901 37.8027 13.1482 33.3114 13.024 27.6294C12.9295 23.2604 15.5883 18.1751 19.5254 11.5829C19.9329 10.9 20.5072 10.3317 21.1943 9.93143C21.8815 9.53116 22.6591 9.31197 23.4542 9.29444C24.2493 9.2769 25.0358 9.46158 25.7399 9.83117ZM21.3935 12.5756L20.9445 13.3927L20.9493 13.3797C20.892 13.4829 20.8629 13.5995 20.8651 13.7175C20.8673 13.8356 20.9006 13.9509 20.9617 14.052C21.0227 14.153 21.1094 14.2362 21.213 14.2929C21.3165 14.3497 21.4332 14.3781 21.5512 14.3753L25.475 14.2879C25.6113 14.2875 25.7451 14.2507 25.8625 14.1815C25.9799 14.1122 26.0767 14.0129 26.143 13.8937C26.2093 13.7746 26.2426 13.6399 26.2396 13.5036C26.2365 13.3673 26.1972 13.2343 26.1257 13.1183L25.726 12.4601C25.4972 12.0845 25.1733 11.7761 24.787 11.5659C24.4008 11.3557 23.9659 11.2512 23.5263 11.2629C23.0867 11.2746 22.658 11.4022 22.2835 11.6326C21.909 11.8631 21.602 12.1884 21.3935 12.5756ZM19.1834 34.3076C20.6714 35.2269 22.3985 35.6845 24.1466 35.6224C26.4916 35.5373 28.7069 34.5246 30.3056 32.8068C31.9042 31.0891 32.7554 28.8068 32.6721 26.4617C32.6086 24.7137 32.0283 23.0238 31.0045 21.6056C29.9808 20.1874 28.5595 19.1046 26.9204 18.494C25.2813 17.8834 23.498 17.7725 21.7959 18.1752C20.0938 18.578 18.5493 19.4764 17.3577 20.7568C16.1661 22.0372 15.3808 23.6422 15.1012 25.3688C14.8216 27.0954 15.0602 28.8662 15.7868 30.4572C16.5134 32.0483 17.6954 33.3882 19.1834 34.3076Z" fill="#F9F9F9"/>
</svg>
