<svg xmlns="http://www.w3.org/2000/svg" viewBox="0 0 398.48 522.35"><defs><style>.cls-1{fill:#050505;}.cls-2{fill:#f37c20;}.cls-3{fill:#fff;}.cls-4{fill:none;stroke:#212121;stroke-miterlimit:10;stroke-width:2px;opacity:0.5;}</style></defs><g id="Layer_2" data-name="Layer 2"><g id="Layer_1-2" data-name="Layer 1"><path class="cls-1" d="M398.19,322c-2-36.3-13.23-70.34-27.75-103.35-25.9-58.87-60.29-112.93-94.77-166.92C268.15,40,260.8,28.15,249.59,19.29a86.26,86.26,0,0,0-110.93,1.82c-10.94,9.22-17.88,21.28-25,33.29C81,109.51,48.35,164.65,24.41,224.34,11,257.83.82,292.2.05,328.56-1,378.66,16.29,422.29,51.21,457.81c43.54,44.25,94,66.14,151.13,64.45,57.18-.18,106.88-23.7,148.94-69.37C385,416.27,400.89,372.08,398.19,322ZM148,75.43c6.18-11.84,11.73-24.19,24.1-31.55a43.87,43.87,0,0,1,44.8-.74c12.6,7,18.56,19.12,25.11,30.75,5.17,9.17,0,17.67-10.62,18-11.69.38-23.4.43-35.1.62h-2c-11.7.21-23.4.54-35.1.55C148.62,93.09,143.15,84.77,148,75.43Z"/><path class="cls-2" d="M113.86,384.08l-19.16.25c.62,4.47,3.15,7.8,9.87,7.72a24.42,24.42,0,0,0,7.2-1.53l.92,4.16a32.63,32.63,0,0,1-8.5,1.6C94.8,396.4,90,390.55,89.9,383c-.1-7.16,4.42-13.75,12.51-13.85,7.4-.1,11.52,5.32,11.61,12.41A11.16,11.16,0,0,1,113.86,384.08Zm-4.4-3.67c-.36-4-2.71-7.19-7.31-7.13-4.23.06-6.81,2.83-7.31,7.32Z"/><path class="cls-2" d="M140.2,395.32l0-2.74a11.31,11.31,0,0,1-8,3.34c-5.17.07-9.5-2.93-9.57-8.28-.06-4.72,3.94-8.2,9.29-8.26a18.12,18.12,0,0,1,7.92,1.63l0-1.55c-.05-4.42-2.13-6.44-6.92-6.38a18.83,18.83,0,0,0-6.83,1.39l-.86-4.22a30.41,30.41,0,0,1,8.25-1.47c7.47-.1,11.06,3.4,11.16,10.92l.2,15.56Zm-.38-10.2c-2.64-1.4-4.26-2.06-7.12-2-3.36.05-5.52,1.57-5.48,4.49s2.23,4.45,6.09,4.4a8.66,8.66,0,0,0,6.55-3.32Z"/><path class="cls-2" d="M163.09,395.52a14.59,14.59,0,0,1-9.38-3.3l2.45-3.52a10.73,10.73,0,0,0,6.63,2.84c3.05,0,4.46-1.49,4.43-3.79-.06-5.1-12.24-3.64-12.34-11.48-.06-4.1,3.26-7.81,8.79-7.88a14.68,14.68,0,0,1,7.63,2.38l-2.14,3.7a9.75,9.75,0,0,0-5.62-2.1c-3,0-4.21,1.54-4.19,3.41.06,4.42,12.18,3.33,12.28,11.41A8.35,8.35,0,0,1,163.09,395.52Z"/><path class="cls-2" d="M186.7,408.15l-4.91.07,7.63-16L178.11,368.7l5.47-.07,8.21,18.62,7.59-18.83,5.29-.07Z"/><path class="cls-3" d="M225.6,394.71a15.33,15.33,0,0,1-7.61-1.83l.19,14.87-4.92.06-.51-39.56,4.67-.06,0,2.61a13,13,0,0,1,8.73-3.22c6.91-.09,12.39,5.31,12.49,13.21C238.77,388.44,233.38,394.61,225.6,394.71Zm-.3-23a10.3,10.3,0,0,0-7.61,3.21l.17,12.88a10,10,0,0,0,7.56,2.89c5-.06,8.47-4.16,8.4-9.75C233.76,375.75,230.47,371.62,225.3,371.69Z"/><path class="cls-3" d="M251.55,361.83a3.11,3.11,0,0,1-3.15-3.06,3.11,3.11,0,1,1,6.22-.08A3.11,3.11,0,0,1,251.55,361.83Z"/><rect class="cls-3" x="249.31" y="367.75" width="4.92" height="26.13" transform="translate(-4.9 3.28) rotate(-0.74)"/><path class="cls-3" d="M279.15,394c-8.27.11-14.2-5.73-14.29-13.25S270.53,367,278.8,366.9a17.33,17.33,0,0,1,8.93,2.56l-1.94,3.76a14.63,14.63,0,0,0-7.37-2.08c-5.1.06-8.91,3.59-8.84,9.56a9.09,9.09,0,0,0,9.39,9.09,14.69,14.69,0,0,0,7.32-2.27l1.72,3.71A17.4,17.4,0,0,1,279.15,394Z"/><path class="cls-3" d="M313.6,393.08l-11.86-12.73.17,12.88-4.92.06-.59-45.6,4.92-.06.4,31L312.64,367l6.1-.08-12.47,12.36L319.7,393Z"/><path class="cls-2" d="M191.92,255.94c-3.14-.67-28-9.7-31.57-26.85,0,0,.58,4-3.43,10.76,0,0,6.85-15.44-5.85-23.28,0,0-8,6.33-5.89,15.49a6.79,6.79,0,0,1-1.24-7.21,122.81,122.81,0,0,1-10.4,7.81c-5,3.24-16.55,8.85-19.84,27.24,0,0-3.18,6.31.11,8.65s13,4.06,20.54-.71,10.51,8,.2,8.46-24.91-2.78-23.32,10.92c0,0,11.76,2.46,12-2.22a142,142,0,0,1,22.29,11.71c.8.52,5.09,4.79,10.05-.66s22.1-23.48,31.11-8.43c0,0-10.83-13.09-32.08,15.23,0,0-9,10,11.57,35.84,0,0-14.14-2.11-15,9.9l57.32-.75s-7.48-5.9,1.46-23.3S233,267.4,191.92,255.94Zm-61.62-4.82a2.88,2.88,0,1,1,2.84-2.91A2.89,2.89,0,0,1,130.3,251.12Z"/><path class="cls-2" d="M215.91,347.75s62.91,8,39.36-67.19c-3.67-11.24-7-37.66,25.58-35-11.57-.4-22.15,5.93-24,17.34a26.15,26.15,0,0,0,21.67,30A32.68,32.68,0,0,0,316,265.81c3.59-22.28-13.24-43.22-35.52-46.81-27.86-4.48-56.58,18.74-61.06,46.59,0,0,14.8,23.71,0,50.71C204.75,343,215.91,347.75,215.91,347.75Z"/><path class="cls-3" d="M116.42,292.76a6.53,6.53,0,1,1-6.44,6.61,6.55,6.55,0,0,1,6.44-6.61m0-3.17a9.7,9.7,0,1,0,9.83,9.57,9.7,9.7,0,0,0-9.83-9.57Z"/><rect class="cls-3" x="113.41" y="306.11" width="2.05" height="36.04" transform="translate(-4.18 1.5) rotate(-0.74)"/><rect class="cls-3" x="117.45" y="306.06" width="2.05" height="20.63" transform="translate(-4.08 1.56) rotate(-0.74)"/><polygon class="cls-3" points="116.89 328.81 117.03 340 125.7 339.89 125.63 334.58 119.55 334.66 119.51 332.08 123.48 332.03 123.44 328.72 116.89 328.81"/><circle class="cls-4" cx="197.79" cy="315.19" r="168.23"/></g></g></svg>