<?xml version="1.0" encoding="utf-8"?>
<!-- Generator: Adobe Illustrator 25.2.1, SVG Export Plug-In . SVG Version: 6.00 Build 0)  -->
<svg version="1.1" id="Layer_1" xmlns="http://www.w3.org/2000/svg" xmlns:xlink="http://www.w3.org/1999/xlink" x="0px" y="0px"
	 viewBox="0 0 347.7 116.6" style="enable-background:new 0 0 347.7 116.6;" xml:space="preserve">
<style type="text/css">
	.st0{fill:#DAB997;}
</style>
<g id="Layer_2_1_">
	<g>
		<g id="Layer_1-2_8_">
			<path class="st0" d="M13,18.5H2.6c0.3,2.4,1.7,4.2,5.3,4.2c1.3-0.1,2.7-0.3,3.9-0.8l0.5,2.3c-1.5,0.5-3.1,0.8-4.6,0.8
				C2.6,25,0,21.8,0,17.7c0-3.9,2.5-7.4,6.9-7.4c4,0,6.2,3,6.2,6.8C13.1,17.6,13.1,18,13,18.5z M10.6,16.5c-0.2-2.2-1.4-3.9-3.9-3.9
				c-2.3,0-3.7,1.5-4,3.9H10.6z"/>
			<path class="st0" d="M27.2,24.7v-1.5C26,24.4,24.4,25,22.8,25c-2.8,0-5.1-1.7-5.1-4.5c0-2.6,2.2-4.4,5.1-4.4c1.5,0,2.9,0.3,4.2,1
				v-0.8c0-2.4-1.1-3.5-3.7-3.5c-1.3,0-2.5,0.2-3.7,0.7L19.2,11c1.5-0.5,3-0.7,4.5-0.7c4,0,6,1.9,6,6v8.4L27.2,24.7z M27,19.2
				c-1.1-0.8-2.4-1.2-3.8-1.2c-1.8,0-3,0.8-3,2.4s1.2,2.4,3.3,2.4c1.4,0,2.6-0.7,3.5-1.7V19.2z"/>
			<path class="st0" d="M39.6,25c-1.9,0-3.6-0.7-5.1-1.9l1.3-1.9c1,0.9,2.2,1.5,3.6,1.6c1.7,0,2.4-0.8,2.4-2c0-2.8-6.6-2.1-6.6-6.3
				c0-2.2,1.8-4.2,4.8-4.2c1.5,0.1,2.9,0.5,4.1,1.3l-1.2,2c-0.9-0.7-1.9-1.1-3-1.2c-1.6,0-2.3,0.8-2.3,1.8c0,2.4,6.6,1.9,6.6,6.3
				C44.2,23.1,42.2,25.1,39.6,25C39.6,25,39.6,25,39.6,25z"/>
			<path class="st0" d="M52.3,32h-2.7l4.2-8.6l-6-12.8h3l4.3,10.2l4.2-10.1h2.8L52.3,32z"/>
			<path class="st0" d="M73.5,25c-1.4,0-2.8-0.3-4.1-1v8h-2.7V10.6h2.5V12c1.3-1.1,3-1.8,4.8-1.7c3.7,0,6.7,3,6.7,7.3
				c0.2,3.9-2.9,7.3-6.8,7.5C73.7,25,73.6,25,73.5,25z M73.5,12.5c-1.6,0-3.1,0.6-4.1,1.7v7c1.1,1.1,2.6,1.7,4.1,1.6
				c2.7,0,4.6-2.2,4.6-5.2C78,14.8,76.3,12.5,73.5,12.5L73.5,12.5z"/>
			<path class="st0" d="M87.8,7.3c-0.9,0-1.7-0.7-1.7-1.7C86,4.7,86.8,4,87.7,4s1.7,0.7,1.7,1.7c0,0,0,0,0,0
				C89.4,6.6,88.7,7.3,87.8,7.3z"/>
			<rect x="86.4" y="10.6" class="st0" width="2.7" height="14.2"/>
			<path class="st0" d="M102.5,25c-4,0.2-7.4-2.9-7.6-6.9c0-0.1,0-0.2,0-0.4c0-4.1,3.3-7.4,7.3-7.4c0.1,0,0.2,0,0.3,0
				c1.7,0,3.4,0.5,4.8,1.4l-1.1,2c-1.2-0.7-2.6-1.2-4-1.2c-2.8,0-4.8,1.9-4.8,5.1c0,2.7,2.1,5,4.9,5c0,0,0.1,0,0.1,0
				c1.4,0,2.8-0.4,4-1.2l0.9,2C105.9,24.4,104.2,24.9,102.5,25z"/>
			<path class="st0" d="M121.2,24.7l-6.3-7v7h-2.7V0h2.7v16.8l6-6.2h3.3l-6.8,6.6l7.2,7.5L121.2,24.7z"/>
			<path class="st0" d="M42.5,95.4c0-4.7-3.2-7.6-11.8-9.2l-8-1.6C8.1,81.7,1.3,74.7,1.3,63.8C1.3,51.1,10.8,43,27.8,43
				c16.4,0,25.7,8.1,26.9,20.1H41c-0.9-4.9-5.8-7.7-13.2-7.7c-7.6,0-12.4,2.8-12.4,8.4c0,5.2,4.1,7.4,12.9,9.1l8.1,1.6
				c14.5,2.9,20.4,9.5,20.4,20.1c0,14.6-11.2,22-27.9,22c-17.1,0-27.9-8-29-21.2h13.8c0.7,5.6,6.1,8.8,15.3,8.8
				C37.3,104.2,42.5,100.9,42.5,95.4z"/>
			<path class="st0" d="M116.7,73.1v-29h14.2v71.4h-14.2V86.1H82.5v29.4H68.3V44.1h14.2v29L116.7,73.1z"/>
			<path class="st0" d="M193.2,99.5h-32.6l-6.5,16h-14.5L170.2,44h13.5l30.6,71.5h-14.6L193.2,99.5z M165.8,86.6h22.1l-11-27.1
				L165.8,86.6z"/>
			<path class="st0" d="M237.1,115.5H223V44.1h32.1c17.9,0,27.2,9.8,27.2,23.7c0,11.2-6.6,19.9-18.9,22.8l19.3,25h-15.9l-18.5-24
				h-11.2V115.5z M253.8,79c9.3,0,14.2-4,14.2-11.2c0-7-4.9-11.1-14.2-11.1h-16.7V79H253.8z"/>
			<path class="st0" d="M294.7,115.5V44.1h52.5v12.7h-38.4v16.5h35.8v12.6h-35.8v16.9h38.9v12.6H294.7z"/>
		</g>
	</g>
</g>
</svg>
