<?xml version="1.0" encoding="UTF-8"?><svg id="Layer_2" xmlns="http://www.w3.org/2000/svg" viewBox="0 0 404.51 116.74"><defs><style>.cls-1{fill:#43b47c;}.cls-2{fill:#2b2b2b;}.cls-3{fill:#f9f9f9;}</style></defs><g id="Layer_1-2"><g><path class="cls-2" d="M14.64,19.37H3.73c.32,2.55,1.74,4.46,5.56,4.46,1.24,0,2.73-.35,4.11-.82l.49,2.37c-1.7,.5-3.47,.85-4.85,.85-5.35,0-8.04-3.37-8.04-7.65s2.62-7.79,7.22-7.79c4.21,0,6.52,3.12,6.52,7.15,0,.5,0,.89-.11,1.42Zm-2.48-2.12c-.18-2.3-1.49-4.11-4.11-4.11-2.41,0-3.9,1.56-4.21,4.11H12.16Z"/><path class="cls-2" d="M29.55,25.96v-1.56c-1.2,1.17-2.76,1.84-4.6,1.84-2.94,0-5.38-1.74-5.38-4.78,0-2.69,2.3-4.64,5.35-4.64,2.05,0,3.22,.46,4.5,.99v-.88c0-2.51-1.17-3.68-3.9-3.68-1.42,0-2.87,.32-3.89,.74l-.46-2.41c1.38-.42,3.22-.78,4.71-.78,4.25,0,6.27,2.02,6.27,6.3v8.86h-2.59Zm-.14-5.81c-1.49-.82-2.41-1.2-4.04-1.2-1.91,0-3.15,.85-3.15,2.51s1.24,2.55,3.44,2.55c1.56,0,2.83-.78,3.75-1.84v-2.02Z"/><path class="cls-2" d="M42.58,26.25c-2.05,0-3.82-.75-5.31-1.95l1.42-1.98c1.13,1.03,2.62,1.66,3.75,1.66,1.73,0,2.55-.82,2.55-2.13,0-2.9-6.94-2.16-6.94-6.62,0-2.33,1.91-4.42,5.06-4.42,1.56,0,3.19,.67,4.32,1.42l-1.24,2.09c-.96-.67-1.98-1.24-3.19-1.24-1.7,0-2.41,.85-2.41,1.91,0,2.52,6.91,1.99,6.91,6.59,0,2.44-1.98,4.68-4.92,4.68Z"/><path class="cls-2" d="M55.93,33.61h-2.8l4.46-9.07-6.27-13.46h3.12l4.53,10.66,4.46-10.66h3.01l-10.52,22.52Z"/><path class="cls-2" d="M78.17,26.25c-1.59,0-3.05-.39-4.32-1.1v8.46h-2.8V11.09h2.66v1.49c1.2-1.06,2.87-1.77,4.99-1.77,3.93,0,7.01,3.12,7.01,7.61s-3.12,7.83-7.54,7.83Zm0-13.11c-1.88,0-3.26,.67-4.36,1.77v7.33c.92,1.06,2.55,1.7,4.29,1.7,2.87,0,4.85-2.3,4.85-5.49,0-2.94-1.84-5.31-4.78-5.31Z"/><path class="cls-2" d="M93.18,7.72c-.99,0-1.77-.81-1.77-1.77s.78-1.81,1.77-1.81,1.77,.81,1.77,1.81-.78,1.77-1.77,1.77Z"/><rect class="cls-2" x="91.76" y="11.09" width="2.8" height="14.87"/><path class="cls-2" d="M108.65,26.25c-4.71,0-8.04-3.37-8.04-7.65s3.33-7.79,8.04-7.79c1.84,0,3.72,.67,5.06,1.52l-1.13,2.13c-1.2-.71-2.66-1.24-4.18-1.24-2.9,0-5.1,1.98-5.1,5.38,0,3.22,2.55,5.24,5.28,5.24,1.52,0,2.98-.53,4.18-1.24l.96,2.12c-1.35,.85-3.22,1.52-5.06,1.52Z"/><path class="cls-2" d="M128.27,25.96l-6.66-7.33v7.33h-2.8V0h2.8V17.64l6.3-6.55h3.47l-7.19,6.94,7.54,7.93h-3.47Z"/></g><g><path class="cls-2" d="M56.84,58.4h-21.5v57.15h-13.84V58.4H0v-12.55H56.84v12.55Z"/><path class="cls-2" d="M113.33,74.13v-28.28h13.84V115.55h-13.84v-28.67h-33.36v28.67h-13.84V45.86h13.84v28.28h33.36Z"/><path class="cls-2" d="M155.49,115.55h-13.84V45.86h13.84V115.55Z"/><path class="cls-2" d="M182.88,45.76l35.84,47.99V45.86h13.54V115.65h-12.94l-35.74-47.99v47.89h-13.64V45.76h12.95Z"/><path class="cls-2" d="M302.29,87.87h-21v-11.65h34.54c.41,2.19,.5,4.18,.5,5.97,0,22.7-16.63,34.55-35.05,34.55-20.61,0-36.34-15.83-36.34-36.04s15.93-36.04,36.54-36.04c16.63,0,30.27,9.85,33.46,24.29h-14.54c-2.79-6.67-8.76-11.55-18.62-11.55-13.04,0-22.6,9.76-22.6,23.29s9.36,23.3,22.3,23.3c11.45,0,19.72-6.77,20.81-16.13Z"/></g><path class="cls-1" d="M332.76,59.35c0-8.26,6.69-14.95,14.95-14.95h41.85c8.26,0,14.95,6.69,14.95,14.95v41.85c0,8.26-6.69,14.95-14.95,14.95h-41.85c-8.26,0-14.95-6.69-14.95-14.95V59.35Z"/><path class="cls-3" d="M368.59,78.53l18.25-9.45s.03-.02,.04-.04c.01-.02,.02-.04,.02-.06s0-.04-.02-.06c-.01-.02-.02-.03-.04-.04l-18.16-10.52s-.04-.01-.05-.01-.04,0-.05,.01l-18.32,10.59s-.03,.02-.04,.04c-.01,.02-.02,.04-.02,.06s0,.04,.02,.06c.01,.02,.02,.03,.04,.04l18.24,9.38s.03,.01,.05,.01,.03,0,.05-.01Z"/><path class="cls-3" d="M369.45,79.99v22.11s0,.03,.01,.05c0,.01,.02,.03,.04,.03,.01,0,.03,.01,.05,.01,.02,0,.03,0,.05-.01l18.2-10.51s.03-.02,.04-.03c.01-.01,.02-.03,.02-.05v-21.04s0-.03-.01-.05c0-.01-.02-.03-.03-.04-.01,0-.03-.01-.05-.01-.02,0-.03,0-.05,.01l-18.22,9.43s-.03,.02-.04,.04c0,.02-.01,.03-.01,.05Z"/><path class="cls-3" d="M367.7,79.96l-17.98-9.23s-.07-.03-.11-.03c-.04,0-.07,.01-.1,.03-.03,.02-.06,.05-.08,.08-.02,.03-.03,.07-.03,.11v20.61s.01,.07,.03,.11c.02,.03,.05,.06,.08,.08l17.96,10.37s.07,.03,.11,.03,.08,0,.11-.03,.06-.05,.08-.08c.02-.03,.03-.07,.03-.11v-21.75s0-.08-.02-.11c-.02-.03-.04-.06-.08-.08Z"/></g></svg>