<?xml version="1.0" encoding="UTF-8"?><svg id="Layer_2" xmlns="http://www.w3.org/2000/svg" viewBox="0 0 286 116.88"><defs><style>.cls-1{fill-rule:evenodd;}.cls-1,.cls-2{fill:#f9f9f9;}.cls-3{fill:#2b2b2b;}.cls-4{fill:#00988a;}</style></defs><g id="Layer_1-2"><g><path class="cls-3" d="M14.31,19.37H3.4c.32,2.55,1.74,4.46,5.56,4.46,1.24,0,2.73-.35,4.11-.82l.49,2.37c-1.7,.5-3.47,.85-4.85,.85-5.35,0-8.04-3.37-8.04-7.65s2.62-7.79,7.22-7.79c4.21,0,6.52,3.12,6.52,7.15,0,.5,0,.89-.11,1.42Zm-2.48-2.12c-.18-2.3-1.49-4.11-4.11-4.11-2.41,0-3.9,1.56-4.21,4.11H11.83Z"/><path class="cls-3" d="M29.22,25.96v-1.56c-1.2,1.17-2.76,1.84-4.6,1.84-2.94,0-5.38-1.74-5.38-4.78,0-2.69,2.3-4.64,5.35-4.64,2.05,0,3.22,.46,4.5,.99v-.88c0-2.51-1.17-3.68-3.9-3.68-1.42,0-2.87,.32-3.89,.74l-.46-2.41c1.38-.42,3.22-.78,4.71-.78,4.25,0,6.27,2.02,6.27,6.3v8.86h-2.59Zm-.14-5.81c-1.49-.82-2.41-1.2-4.04-1.2-1.91,0-3.15,.85-3.15,2.51s1.24,2.55,3.44,2.55c1.56,0,2.83-.78,3.75-1.84v-2.02Z"/><path class="cls-3" d="M42.25,26.25c-2.05,0-3.82-.75-5.31-1.95l1.42-1.98c1.13,1.03,2.62,1.66,3.75,1.66,1.73,0,2.55-.82,2.55-2.13,0-2.9-6.94-2.16-6.94-6.62,0-2.33,1.91-4.42,5.06-4.42,1.56,0,3.19,.67,4.32,1.42l-1.24,2.09c-.96-.67-1.98-1.24-3.19-1.24-1.7,0-2.41,.85-2.41,1.91,0,2.52,6.91,1.99,6.91,6.59,0,2.44-1.98,4.68-4.92,4.68Z"/><path class="cls-3" d="M55.6,33.61h-2.8l4.46-9.07-6.27-13.46h3.12l4.53,10.66,4.46-10.66h3.01l-10.52,22.52Z"/><path class="cls-3" d="M77.84,26.25c-1.59,0-3.05-.39-4.32-1.1v8.46h-2.8V11.09h2.66v1.49c1.2-1.06,2.87-1.77,4.99-1.77,3.93,0,7.01,3.12,7.01,7.61s-3.12,7.83-7.54,7.83Zm0-13.11c-1.88,0-3.26,.67-4.36,1.77v7.33c.92,1.06,2.55,1.7,4.29,1.7,2.87,0,4.85-2.3,4.85-5.49,0-2.94-1.84-5.31-4.78-5.31Z"/><path class="cls-3" d="M92.85,7.72c-.99,0-1.77-.81-1.77-1.77s.78-1.81,1.77-1.81,1.77,.81,1.77,1.81-.78,1.77-1.77,1.77Z"/><rect class="cls-3" x="91.43" y="11.09" width="2.8" height="14.87"/><path class="cls-3" d="M108.32,26.25c-4.71,0-8.04-3.37-8.04-7.65s3.33-7.79,8.04-7.79c1.84,0,3.72,.67,5.06,1.52l-1.13,2.13c-1.2-.71-2.66-1.24-4.18-1.24-2.9,0-5.1,1.98-5.1,5.38,0,3.22,2.55,5.24,5.28,5.24,1.52,0,2.98-.53,4.18-1.24l.96,2.12c-1.35,.85-3.22,1.52-5.06,1.52Z"/><path class="cls-3" d="M127.94,25.96l-6.66-7.33v7.33h-2.8V0h2.8V17.64l6.3-6.55h3.47l-7.19,6.94,7.54,7.93h-3.47Z"/></g><g><path class="cls-3" d="M33.11,77.64l30.89,39.24h-16.9l-23.14-29.58-9.96,10.56v19.01H0V46.45H13.98v33.51l31.39-33.51h17.11l-29.38,31.19Z"/><path class="cls-3" d="M71.58,116.88V46.45h51.82v12.48h-37.83v16.3h35.32v12.48h-35.32v16.7h38.34v12.48h-52.32Z"/><path class="cls-3" d="M164.99,77.64l19.22-31.19h15.79l-28.08,44.47v25.96h-13.89v-25.86l-27.97-44.57h15.9l19.01,31.19Z"/></g><path class="cls-4" d="M214,59.4c0-8.28,6.72-15,15-15h42c8.28,0,15,6.72,15,15v42c0,8.28-6.72,15-15,15h-42c-8.28,0-15-6.72-15-15V59.4Z"/><path class="cls-2" d="M260.99,88.98c-2.32,6.21-9.23,9.36-15.44,7.04-6.21-2.32-9.36-9.23-7.04-15.44,2.32-6.21,9.23-9.36,15.44-7.04,6.21,2.32,9.36,9.23,7.04,15.44Z"/><path class="cls-1" d="M252.61,59.15c1.06,.55,1.95,1.37,2.61,2.36,6.32,9.64,10.66,17.05,10.79,23.62,.19,8.52-7.38,15.6-15.9,15.79-8.52,.18-16.38-6.56-16.57-15.08-.14-6.55,3.85-14.18,9.75-24.07,.61-1.02,1.47-1.88,2.5-2.48,1.03-.6,2.2-.93,3.39-.96,1.19-.03,2.37,.25,3.43,.81Zm-6.52,4.12l-.67,1.23v-.02c-.08,.15-.12,.33-.12,.51,0,.18,.05,.35,.14,.5,.09,.15,.22,.28,.38,.36,.16,.09,.33,.13,.51,.12l5.89-.13c.2,0,.41-.06,.58-.16,.18-.1,.32-.25,.42-.43,.1-.18,.15-.38,.14-.59,0-.2-.06-.4-.17-.58l-.6-.99c-.34-.56-.83-1.03-1.41-1.34-.58-.32-1.23-.47-1.89-.45-.66,.02-1.3,.21-1.86,.55-.56,.35-1.02,.83-1.34,1.41Zm-3.32,32.6c2.23,1.38,4.82,2.07,7.44,1.97,3.52-.13,6.84-1.65,9.24-4.22,2.4-2.58,3.67-6,3.55-9.52-.1-2.62-.97-5.16-2.5-7.28-1.54-2.13-3.67-3.75-6.13-4.67-2.46-.92-5.13-1.08-7.69-.48-2.55,.6-4.87,1.95-6.66,3.87-1.79,1.92-2.97,4.33-3.38,6.92-.42,2.59-.06,5.25,1.03,7.63,1.09,2.39,2.86,4.4,5.09,5.78Z"/></g></svg>