<svg xmlns="http://www.w3.org/2000/svg" viewBox="0 0 560.38 116.72"><defs><style>.cls-1{fill:#49443c;}</style></defs><g id="Layer_2" data-name="Layer 2"><g id="Layer_1-2" data-name="Layer 1"><path class="cls-1" d="M13,18.45H2.6c.3,2.42,1.65,4.25,5.29,4.25a13.1,13.1,0,0,0,3.91-.78l.47,2.26A17.85,17.85,0,0,1,7.65,25C2.56,25,0,21.78,0,17.7c0-3.87,2.49-7.41,6.88-7.41,4,0,6.2,3,6.2,6.81A6.33,6.33,0,0,1,13,18.45Zm-2.36-2c-.17-2.19-1.41-3.91-3.91-3.91-2.29,0-3.71,1.48-4,3.91Z"/><path class="cls-1" d="M27.17,24.72V23.23A6.1,6.1,0,0,1,22.79,25c-2.8,0-5.12-1.66-5.12-4.55,0-2.57,2.19-4.42,5.09-4.42A9.91,9.91,0,0,1,27,17v-.84c0-2.39-1.11-3.51-3.71-3.51a10.34,10.34,0,0,0-3.71.71L19.18,11a16.48,16.48,0,0,1,4.49-.74c4,0,6,1.92,6,6v8.43ZM27,19.19A7,7,0,0,0,23.2,18c-1.83,0-3,.81-3,2.4s1.18,2.42,3.28,2.42A4.72,4.72,0,0,0,27,21.11Z"/><path class="cls-1" d="M39.58,25a7.89,7.89,0,0,1-5.06-1.86l1.35-1.88a5.89,5.89,0,0,0,3.58,1.58c1.65,0,2.42-.78,2.42-2,0-2.77-6.61-2.06-6.61-6.31,0-2.22,1.83-4.21,4.83-4.21a8,8,0,0,1,4.11,1.34l-1.18,2a5.31,5.31,0,0,0-3-1.18c-1.62,0-2.3.81-2.3,1.82,0,2.4,6.58,1.89,6.58,6.28A4.53,4.53,0,0,1,39.58,25Z"/><path class="cls-1" d="M52.29,32H49.63l4.25-8.63-6-12.81h3l4.32,10.15,4.25-10.15H62.3Z"/><path class="cls-1" d="M73.46,25a8.32,8.32,0,0,1-4.11-1V32H66.68V10.56h2.54V12A7,7,0,0,1,74,10.29c3.74,0,6.68,3,6.68,7.25A7.15,7.15,0,0,1,73.46,25Zm0-12.48a5.55,5.55,0,0,0-4.14,1.69v7A5.43,5.43,0,0,0,73.4,22.8c2.73,0,4.62-2.2,4.62-5.23C78,14.77,76.26,12.51,73.46,12.51Z"/><path class="cls-1" d="M87.76,7.35a1.7,1.7,0,1,1,1.68-1.68A1.69,1.69,0,0,1,87.76,7.35Z"/><rect class="cls-1" x="86.41" y="10.56" width="2.66" height="14.16"/><path class="cls-1" d="M102.49,25a7.29,7.29,0,0,1-7.65-7.29,7.38,7.38,0,0,1,7.65-7.41,9.43,9.43,0,0,1,4.82,1.45l-1.08,2a7.9,7.9,0,0,0-4-1.18c-2.76,0-4.85,1.89-4.85,5.12a4.93,4.93,0,0,0,5,5,8,8,0,0,0,4-1.18l.91,2A9.43,9.43,0,0,1,102.49,25Z"/><path class="cls-1" d="M121.17,24.72l-6.34-7v7h-2.67V0h2.67V16.79l6-6.23h3.31l-6.85,6.61,7.18,7.55Z"/><path class="cls-1" d="M0,86.32V44.09H14.28v40.6c0,13.26,6.53,19,16.83,19s16.83-5.71,16.83-19V44.09H62V86.32c0,20.4-13.67,30.4-31,30.4S0,106.72,0,86.32Z"/><path class="cls-1" d="M89.66,44l36.72,49.17V44.09h13.87V115.6H127L90.37,66.43V115.5h-14V44Z"/><path class="cls-1" d="M155,115.5V44.09h14.18v58.55h36.62V115.5Z"/><path class="cls-1" d="M230.42,115.5H216.24V44.09h14.18Z"/><path class="cls-1" d="M259.18,67.45V115.5h-14V44h13.87l25.8,44.17L310.59,44h13.57V115.5H310.08V67.76l-20.09,35H279.48Z"/><path class="cls-1" d="M353.22,115.5H339V44.09h14.18Z"/><path class="cls-1" d="M421.05,57H399V115.5H384.84V57h-22V44.09h58.24Z"/><path class="cls-1" d="M430.54,115.5V44.09h52.53V56.74H444.71V73.27h35.81V85.91H444.71v16.94h38.87V115.5Z"/><path class="cls-1" d="M523.25,115.5H496.33V44.09h26.92c21.63,0,37.13,15.61,37.13,35.7S544.88,115.5,523.25,115.5Zm-.51-12.86c14,0,23.16-9.69,23.16-22.85S536.72,57,522.74,57H510.5v45.69Z"/></g></g></svg>