<svg width="857" height="117" viewBox="0 0 857 117" fill="none" xmlns="http://www.w3.org/2000/svg">
<g clip-path="url(#clip0_134_64)">
<path d="M466.31 19.37H455.4C455.72 21.92 457.14 23.83 460.96 23.83C462.2 23.83 463.69 23.48 465.07 23.01L465.56 25.38C463.86 25.88 462.09 26.23 460.71 26.23C455.36 26.23 452.67 22.86 452.67 18.58C452.67 14.3 455.29 10.79 459.89 10.79C464.1 10.79 466.41 13.91 466.41 17.94C466.41 18.44 466.41 18.83 466.3 19.36L466.31 19.37ZM463.83 17.25C463.65 14.95 462.34 13.14 459.72 13.14C457.31 13.14 455.82 14.7 455.51 17.25H463.83Z" fill="#2B2B2B"/>
<path d="M481.22 25.96V24.4C480.02 25.57 478.46 26.24 476.62 26.24C473.68 26.24 471.24 24.5 471.24 21.46C471.24 18.77 473.54 16.82 476.59 16.82C478.64 16.82 479.81 17.28 481.09 17.81V16.93C481.09 14.42 479.92 13.25 477.19 13.25C475.77 13.25 474.32 13.57 473.3 13.99L472.84 11.58C474.22 11.16 476.06 10.8 477.55 10.8C481.8 10.8 483.82 12.82 483.82 17.1V25.96H481.23H481.22ZM481.08 20.15C479.59 19.33 478.67 18.95 477.04 18.95C475.13 18.95 473.89 19.8 473.89 21.46C473.89 23.12 475.13 24.01 477.33 24.01C478.89 24.01 480.16 23.23 481.08 22.17V20.15Z" fill="#2B2B2B"/>
<path d="M494.249 26.2501C492.199 26.2501 490.429 25.5001 488.939 24.3001L490.359 22.3201C491.489 23.3501 492.979 23.9801 494.109 23.9801C495.839 23.9801 496.659 23.1601 496.659 21.8501C496.659 18.9501 489.719 19.6901 489.719 15.2301C489.719 12.9001 491.629 10.8101 494.779 10.8101C496.339 10.8101 497.969 11.4801 499.099 12.2301L497.859 14.3201C496.899 13.6501 495.879 13.0801 494.669 13.0801C492.969 13.0801 492.259 13.9301 492.259 14.9901C492.259 17.5101 499.169 16.9801 499.169 21.5801C499.169 24.0201 497.189 26.2601 494.249 26.2601V26.2501Z" fill="#2B2B2B"/>
<path d="M507.6 33.61H504.8L509.26 24.54L502.99 11.08H506.11L510.64 21.74L515.1 11.08H518.11L507.59 33.6L507.6 33.61Z" fill="#2B2B2B"/>
<path d="M529.84 26.2501C528.25 26.2501 526.79 25.8601 525.52 25.1501V33.6101H522.72V11.0901H525.38V12.5801C526.58 11.5201 528.25 10.8101 530.37 10.8101C534.3 10.8101 537.38 13.9301 537.38 18.4201C537.38 22.9101 534.26 26.2501 529.84 26.2501ZM529.84 13.1401C527.96 13.1401 526.58 13.8101 525.48 14.9101V22.2401C526.4 23.3001 528.03 23.9401 529.77 23.9401C532.64 23.9401 534.62 21.6401 534.62 18.4501C534.62 15.5101 532.78 13.1401 529.84 13.1401Z" fill="#2B2B2B"/>
<path d="M544.85 7.72001C543.86 7.72001 543.08 6.91001 543.08 5.95001C543.08 4.99001 543.86 4.14001 544.85 4.14001C545.84 4.14001 546.62 4.95001 546.62 5.95001C546.62 6.95001 545.84 7.72001 544.85 7.72001Z" fill="#2B2B2B"/>
<path d="M546.23 11.09H543.43V25.96H546.23V11.09Z" fill="#2B2B2B"/>
<path d="M560.32 26.2501C555.61 26.2501 552.28 22.8801 552.28 18.6001C552.28 14.3201 555.61 10.8101 560.32 10.8101C562.16 10.8101 564.04 11.4801 565.38 12.3301L564.25 14.4601C563.05 13.7501 561.59 13.2201 560.07 13.2201C557.17 13.2201 554.97 15.2001 554.97 18.6001C554.97 21.8201 557.52 23.8401 560.25 23.8401C561.77 23.8401 563.23 23.3101 564.43 22.6001L565.39 24.7201C564.04 25.5701 562.17 26.2401 560.33 26.2401L560.32 26.2501Z" fill="#2B2B2B"/>
<path d="M579.94 25.96L573.28 18.63V25.96H570.479V0H573.28V17.64L579.58 11.09H583.049L575.859 18.03L583.4 25.96H579.93H579.94Z" fill="#2B2B2B"/>
<path d="M508.51 58.4H487.01V115.55H473.17V58.4H451.66V45.85H508.5V58.4H508.51Z" fill="#2B2B2B"/>
<path d="M565 74.13V45.85H578.84V115.55H565V86.88H531.64V115.55H517.8V45.86H531.64V74.14H565V74.13Z" fill="#2B2B2B"/>
<path d="M607.16 115.55H593.32V45.86H607.16V115.55Z" fill="#2B2B2B"/>
<path d="M634.55 45.76L670.39 93.75V45.86H683.93V115.65H670.99L635.25 67.66V115.55H621.61V45.76H634.56H634.55Z" fill="#2B2B2B"/>
<path d="M753.96 87.87H732.96V76.22H767.5C767.91 78.41 768 80.4 768 82.19C768 104.89 751.37 116.74 732.95 116.74C712.34 116.74 696.61 100.91 696.61 80.7C696.61 60.49 712.54 44.66 733.15 44.66C749.78 44.66 763.42 54.51 766.61 68.95H752.07C749.28 62.28 743.31 57.4 733.45 57.4C720.41 57.4 710.85 67.16 710.85 80.69C710.85 94.22 720.21 103.99 733.15 103.99C744.6 103.99 752.87 97.22 753.96 87.86V87.87Z" fill="#2B2B2B"/>
<path d="M14.3099 19.37H3.39992C3.71992 21.92 5.13992 23.83 8.95992 23.83C10.1999 23.83 11.6899 23.48 13.0699 23.01L13.5599 25.38C11.8599 25.88 10.0899 26.23 8.70992 26.23C3.35992 26.23 0.669922 22.86 0.669922 18.58C0.669922 14.3 3.28992 10.79 7.88992 10.79C12.0999 10.79 14.4099 13.91 14.4099 17.94C14.4099 18.44 14.4099 18.83 14.2999 19.36L14.3099 19.37ZM11.8299 17.25C11.6499 14.95 10.3399 13.14 7.71992 13.14C5.30992 13.14 3.81992 14.7 3.50992 17.25H11.8299Z" fill="#2B2B2B"/>
<path d="M29.2202 25.96V24.4C28.0202 25.57 26.4602 26.24 24.6202 26.24C21.6802 26.24 19.2402 24.5 19.2402 21.46C19.2402 18.77 21.5402 16.82 24.5902 16.82C26.6402 16.82 27.8102 17.28 29.0902 17.81V16.93C29.0902 14.42 27.9202 13.25 25.1902 13.25C23.7702 13.25 22.3202 13.57 21.3002 13.99L20.8402 11.58C22.2202 11.16 24.0602 10.8 25.5502 10.8C29.8002 10.8 31.8202 12.82 31.8202 17.1V25.96H29.2302H29.2202ZM29.0802 20.15C27.5902 19.33 26.6702 18.95 25.0402 18.95C23.1302 18.95 21.8902 19.8 21.8902 21.46C21.8902 23.12 23.1302 24.01 25.3302 24.01C26.8902 24.01 28.1602 23.23 29.0802 22.17V20.15Z" fill="#2B2B2B"/>
<path d="M42.2495 26.2501C40.1995 26.2501 38.4295 25.5001 36.9395 24.3001L38.3595 22.3201C39.4895 23.3501 40.9795 23.9801 42.1095 23.9801C43.8395 23.9801 44.6595 23.1601 44.6595 21.8501C44.6595 18.9501 37.7195 19.6901 37.7195 15.2301C37.7195 12.9001 39.6295 10.8101 42.7795 10.8101C44.3395 10.8101 45.9695 11.4801 47.0995 12.2301L45.8595 14.3201C44.8995 13.6501 43.8795 13.0801 42.6695 13.0801C40.9695 13.0801 40.2595 13.9301 40.2595 14.9901C40.2595 17.5101 47.1695 16.9801 47.1695 21.5801C47.1695 24.0201 45.1895 26.2601 42.2495 26.2601V26.2501Z" fill="#2B2B2B"/>
<path d="M55.6002 33.61H52.8002L57.2602 24.54L50.9902 11.08H54.1102L58.6402 21.74L63.1002 11.08H66.1102L55.5902 33.6L55.6002 33.61Z" fill="#2B2B2B"/>
<path d="M77.8397 26.2501C76.2497 26.2501 74.7897 25.8601 73.5197 25.1501V33.6101H70.7197V11.0901H73.3797V12.5801C74.5797 11.5201 76.2497 10.8101 78.3697 10.8101C82.2997 10.8101 85.3797 13.9301 85.3797 18.4201C85.3797 22.9101 82.2597 26.2501 77.8397 26.2501ZM77.8397 13.1401C75.9597 13.1401 74.5797 13.8101 73.4797 14.9101V22.2401C74.3997 23.3001 76.0297 23.9401 77.7697 23.9401C80.6397 23.9401 82.6197 21.6401 82.6197 18.4501C82.6197 15.5101 80.7797 13.1401 77.8397 13.1401Z" fill="#2B2B2B"/>
<path d="M92.8501 7.72001C91.8601 7.72001 91.0801 6.91001 91.0801 5.95001C91.0801 4.99001 91.8601 4.14001 92.8501 4.14001C93.8401 4.14001 94.6201 4.95001 94.6201 5.95001C94.6201 6.95001 93.8401 7.72001 92.8501 7.72001Z" fill="#2B2B2B"/>
<path d="M94.2297 11.09H91.4297V25.96H94.2297V11.09Z" fill="#2B2B2B"/>
<path d="M108.32 26.2501C103.61 26.2501 100.28 22.8801 100.28 18.6001C100.28 14.3201 103.61 10.8101 108.32 10.8101C110.16 10.8101 112.04 11.4801 113.38 12.3301L112.25 14.4601C111.05 13.7501 109.59 13.2201 108.07 13.2201C105.17 13.2201 102.97 15.2001 102.97 18.6001C102.97 21.8201 105.52 23.8401 108.25 23.8401C109.77 23.8401 111.23 23.3101 112.43 22.6001L113.39 24.7201C112.04 25.5701 110.17 26.2401 108.33 26.2401L108.32 26.2501Z" fill="#2B2B2B"/>
<path d="M127.939 25.96L121.279 18.63V25.96H118.479V0H121.279V17.64L127.579 11.09H131.049L123.859 18.03L131.399 25.96H127.929H127.939Z" fill="#2B2B2B"/>
<path d="M33.11 77.6399L64 116.88H47.1L23.96 87.3L14 97.86V116.87H0V46.45H13.98V79.9599L45.37 46.45H62.48L33.1 77.6399H33.11Z" fill="#2B2B2B"/>
<path d="M71.5801 116.88V46.45H123.4V58.93H85.5701V75.23H120.89V87.7099H85.5701V104.41H123.91V116.89H71.5901L71.5801 116.88Z" fill="#2B2B2B"/>
<path d="M164.99 77.6399L184.21 46.45H200L171.92 90.9199V116.88H158.03V91.0199L130.06 46.45H145.96L164.97 77.6399H164.99Z" fill="#2B2B2B"/>
<path d="M214 59.4C214 51.12 220.72 44.4 229 44.4H271C279.28 44.4 286 51.12 286 59.4V101.4C286 109.68 279.28 116.4 271 116.4H229C220.72 116.4 214 109.68 214 101.4V59.4Z" fill="#00988A"/>
<path d="M260.99 88.98C258.67 95.19 251.76 98.34 245.55 96.02C239.34 93.7 236.19 86.79 238.51 80.58C240.83 74.37 247.74 71.22 253.95 73.54C260.16 75.86 263.31 82.77 260.99 88.98Z" fill="#F9F9F9"/>
<path fill-rule="evenodd" clip-rule="evenodd" d="M252.61 59.1501C253.67 59.7001 254.56 60.5201 255.22 61.5101C261.54 71.1501 265.88 78.5601 266.01 85.1301C266.2 93.6501 258.63 100.73 250.11 100.92C241.59 101.1 233.73 94.3601 233.54 85.8401C233.4 79.2901 237.39 71.6601 243.29 61.7701C243.9 60.7501 244.76 59.8901 245.79 59.2901C246.82 58.6901 247.99 58.3601 249.18 58.3301C250.37 58.3001 251.55 58.5801 252.61 59.1401V59.1501ZM246.09 63.2701L245.42 64.5001V64.4801C245.34 64.6301 245.3 64.8101 245.3 64.9901C245.3 65.1701 245.35 65.3401 245.44 65.4901C245.53 65.6401 245.66 65.7701 245.82 65.8501C245.98 65.9401 246.15 65.9801 246.33 65.9701L252.22 65.8401C252.42 65.8401 252.63 65.7801 252.8 65.6801C252.98 65.5801 253.12 65.4301 253.22 65.2501C253.32 65.0701 253.37 64.8701 253.36 64.6601C253.36 64.4601 253.3 64.2601 253.19 64.0801L252.59 63.0901C252.25 62.5301 251.76 62.0601 251.18 61.7501C250.6 61.4301 249.95 61.2801 249.29 61.3001C248.63 61.3201 247.99 61.5101 247.43 61.8501C246.87 62.2001 246.41 62.6801 246.09 63.2601V63.2701ZM242.77 95.8701C245 97.2501 247.59 97.9401 250.21 97.8401C253.73 97.7101 257.05 96.1901 259.45 93.6201C261.85 91.0401 263.12 87.6201 263 84.1001C262.9 81.4801 262.03 78.9401 260.5 76.8201C258.96 74.6901 256.83 73.0701 254.37 72.1501C251.91 71.2301 249.24 71.0701 246.68 71.6701C244.13 72.2701 241.81 73.6201 240.02 75.5401C238.23 77.4601 237.05 79.8701 236.64 82.4601C236.22 85.0501 236.58 87.7101 237.67 90.0901C238.76 92.4801 240.53 94.4901 242.76 95.8701H242.77Z" fill="#F9F9F9"/>
<path d="M784.43 59.35C784.43 51.09 791.12 44.4 799.38 44.4H841.23C849.49 44.4 856.18 51.09 856.18 59.35V101.2C856.18 109.46 849.49 116.15 841.23 116.15H799.38C791.12 116.15 784.43 109.46 784.43 101.2V59.35Z" fill="#43B47C"/>
<path d="M820.26 78.53L838.51 69.08C838.51 69.08 838.54 69.06 838.55 69.04C838.56 69.02 838.57 69 838.57 68.98C838.57 68.96 838.57 68.94 838.55 68.92C838.54 68.9 838.53 68.89 838.51 68.88L820.35 58.36C820.35 58.36 820.31 58.35 820.3 58.35C820.29 58.35 820.26 58.35 820.25 58.36L801.93 68.95C801.93 68.95 801.9 68.97 801.89 68.99C801.88 69.01 801.87 69.03 801.87 69.05C801.87 69.07 801.87 69.09 801.89 69.11C801.9 69.13 801.91 69.14 801.93 69.15L820.17 78.53C820.17 78.53 820.2 78.54 820.22 78.54C820.24 78.54 820.25 78.54 820.27 78.53H820.26Z" fill="#F9F9F9"/>
<path d="M821.12 79.99V102.1C821.12 102.1 821.12 102.13 821.13 102.15C821.13 102.16 821.15 102.18 821.17 102.18C821.18 102.18 821.2 102.19 821.22 102.19C821.24 102.19 821.25 102.19 821.27 102.18L839.47 91.67C839.47 91.67 839.5 91.65 839.51 91.64C839.52 91.63 839.53 91.61 839.53 91.59V70.55C839.53 70.55 839.53 70.52 839.52 70.5C839.52 70.49 839.5 70.47 839.49 70.46C839.48 70.46 839.46 70.45 839.44 70.45C839.42 70.45 839.41 70.45 839.39 70.46L821.17 79.89C821.17 79.89 821.14 79.91 821.13 79.93C821.13 79.95 821.12 79.96 821.12 79.98V79.99Z" fill="#F9F9F9"/>
<path d="M819.37 79.96L801.39 70.73C801.39 70.73 801.32 70.7 801.28 70.7C801.24 70.7 801.21 70.71 801.18 70.73C801.15 70.75 801.12 70.78 801.1 70.81C801.08 70.84 801.07 70.88 801.07 70.92V91.53C801.07 91.53 801.08 91.6 801.1 91.64C801.12 91.67 801.15 91.7 801.18 91.72L819.14 102.09C819.14 102.09 819.21 102.12 819.25 102.12C819.29 102.12 819.33 102.12 819.36 102.09C819.39 102.06 819.42 102.04 819.44 102.01C819.46 101.98 819.47 101.94 819.47 101.9V80.15C819.47 80.15 819.47 80.07 819.45 80.04C819.43 80.01 819.41 79.98 819.37 79.96Z" fill="#F9F9F9"/>
<g opacity="0.7">
<path d="M393.24 81.58C390.09 85.53 387.09 89.19 384.16 92.34L394.34 103.4H383.28L378.3 97.98C373.47 101.93 368.49 104.28 362.63 104.28C353.55 104.28 346.3 99.37 346.3 90C346.3 82.17 351.28 78.72 356.99 74.77C353.84 71.48 351.13 68.4 351.13 63.42C351.13 55.66 356.69 51.41 365.04 51.41C373.39 51.41 378.73 55.66 378.73 62.76C378.73 69.06 374.92 72.42 369.43 76.16L378.51 86.12C380.93 83.41 383.64 80.04 386.78 76.09L393.22 81.58H393.24ZM372.67 91.9L362.64 80.92C358.69 83.78 356.34 85.68 356.34 89.71C356.34 93.52 359.49 95.71 363.44 95.71C366.66 95.71 369.59 94.47 372.67 91.9ZM363.88 70.08C367.61 67.66 369.96 66.2 369.96 63.27C369.89 60.63 367.91 58.88 365.13 58.88C362.05 58.88 360.3 60.71 360.3 63.42C360.3 65.62 361.98 67.89 363.89 70.08H363.88Z" fill="black"/>
</g>
<g clip-path="url(#clip1_134_64)">
<path d="M840.615 44H798.385C789.888 44 783 50.8882 783 59.3852V101.615C783 110.112 789.888 117 798.385 117H840.615C849.112 117 856 110.112 856 101.615V59.3852C856 50.8882 849.112 44 840.615 44Z" fill="#A1D97D"/>
<path d="M825.893 101.588C826.609 102.092 827.458 102.384 828.333 102.384C828.997 102.384 829.66 102.225 830.296 101.907L837.458 98.1134C837.962 97.8481 838.413 97.4767 838.758 97.0523C840.031 95.8852 840.509 94.0018 839.793 92.3041C836.795 85.3278 832.471 77.5291 824.805 75.0091C824.805 75.0091 824.832 75.0091 824.858 75.0091C827.299 75.0091 829.288 72.9666 829.288 70.6853C829.288 69.5712 828.811 68.6163 828.042 67.9531C828.042 67.794 828.042 67.6613 828.042 67.5022C828.042 66.0167 827.67 64.5578 826.981 63.3376C827.113 62.8866 827.219 62.4622 827.272 61.8786C827.352 61.0033 827.352 59.73 827.272 59.0138C827.007 57.157 826.211 55.9898 825.707 55.7246C824.938 55.3001 822.975 57.4222 822.047 59.7035C821.304 59.5178 820.482 59.4117 819.606 59.4117C818.731 59.4117 817.829 59.5178 817.06 59.73C816.105 57.4488 814.142 55.3532 813.373 55.8041C812.55 56.2551 811.197 59.7035 812.099 63.5233C811.463 64.7169 811.118 66.0963 811.118 67.5287C811.118 67.8205 811.144 68.1123 811.197 68.4041C810.667 69.0407 810.375 69.8365 810.375 70.7118C810.375 72.8339 812.099 74.7438 814.328 75.0091C806.608 77.476 802.258 85.3278 799.261 92.3307C798.544 94.0283 799.022 95.9117 800.295 97.0789C800.64 97.5033 801.064 97.8746 801.595 98.1399L808.757 101.933C809.394 102.278 810.057 102.411 810.72 102.411C811.648 102.411 812.524 102.119 813.267 101.562L819.553 105.355M813.956 82.1977L816.025 83.3914L823.797 87.8212L819.553 89.9964L812.418 86.2562L809.553 84.7707L813.983 82.2242L813.956 82.1977ZM825.442 86.9724L818.068 82.7547L815.521 81.2958L816.184 80.8979L819.659 78.8819L823.002 80.8183L829.792 84.7442L826.768 86.2827L825.442 86.9724ZM818.704 103.71L813.903 100.925C814.115 100.686 814.301 100.448 814.434 100.156C815.521 98.1134 814.725 95.5669 812.683 94.4793L808.677 92.3572V86.1766L811.357 87.5825L818.704 91.4288V103.737V103.71ZM830.562 92.2776L826.423 94.4528C824.381 95.5403 823.585 98.0868 824.673 100.129C824.832 100.448 825.044 100.739 825.283 100.978L820.349 103.816V91.3492L827.803 87.5294L830.668 86.0705V92.145L830.562 92.198V92.2776Z" fill="white"/>
</g>
</g>
<defs>
<clipPath id="clip0_134_64">
<rect width="856.18" height="116.88" fill="white"/>
</clipPath>
<clipPath id="clip1_134_64">
<rect width="73" height="73" fill="white" transform="translate(783 44)"/>
</clipPath>
</defs>
</svg>
