<svg xmlns="http://www.w3.org/2000/svg" viewBox="0 0 153.81 167.82"><defs><style>.cls-1{fill:#fff;}</style></defs><g id="Layer_2" data-name="Layer 2"><g id="Layer_1-2" data-name="Layer 1"><path class="cls-1" d="M77,66.65c2.56-2.29,7.37-7.94,2.19-12.88-.41-.34-3.33-3.59-2.64-6.55a3.29,3.29,0,0,1-1.22,1.45s2-2,.78-4.06a2.8,2.8,0,0,0-1.89,2,1.27,1.27,0,0,1,.33-1.21,19.17,19.17,0,0,1-2,.49,5.9,5.9,0,0,0-4.67,2.88s-.9.77-.61,1.38a3,3,0,0,0,2.91,1.36c1.4-.23.91,2-.58,1.37s-3.27-2.24-4,.07c0,0,1.46,1.26,1.84.52A23.6,23.6,0,0,1,69.67,57a1,1,0,0,0,1.48.64c1.1-.53,4.83-2.23,5.06.93,0,0-.63-3-5.69.12,0,0-2,1-1,6.94,0,0-1.88-1.46-2.91.53l8.44,4.42S74.4,69,77,66.65ZM71.4,48.31a.45.45,0,0,1-.6.26.49.49,0,0,1-.21-.65.44.44,0,0,1,.6-.26A.5.5,0,0,1,71.4,48.31Z"/><path class="cls-1" d="M94.53,54.25c-3.82-2.77-9.52-1.1-12,3.14A10.58,10.58,0,0,1,79,66c-4.09,3.49-2.78,5.22-2.78,5.22s9,6.63,10.58-8.55c.21-2.19,1.47-6.85,6.13-4a3.31,3.31,0,0,0-4.71,1.09,5.38,5.38,0,0,0,1.25,6.81,5,5,0,0,0,7.49-1.74A8.51,8.51,0,0,0,94.53,54.25Z"/><path class="cls-1" d="M66.08,53.72a1.54,1.54,0,0,0-2.06.89,1.86,1.86,0,0,0,.23,1.94l-2.5,5.64.3.15,2.45-5.56.18.12.11,0-1.3,3,.29.15,1.33-3a1.62,1.62,0,0,0,1.65-1A1.76,1.76,0,0,0,66.08,53.72Zm.23,2.05a1.06,1.06,0,0,1-1.4.61,1.19,1.19,0,0,1-.44-1.54,1,1,0,0,1,1.39-.6A1.18,1.18,0,0,1,66.31,55.77Z"/><polygon class="cls-1" points="63.92 61.24 64.16 60.68 63.23 60.2 62.4 62.09 63.64 62.73 64.03 61.83 63.16 61.38 63.35 60.95 63.92 61.24"/><path class="cls-1" d="M149.83,9.39c-1.09-.26-51-8.76-53.64-9.14S91.83-.42,90,2L7.23,105.52a14.94,14.94,0,0,0-2.65,5.09S.47,125.07.14,126.32a3.32,3.32,0,0,0,1,3.52C2.33,130.85,48,166,48,166s2.4,1.8,3.76,1.8,2.72-1.61,2.72-1.61h-.06l62.47-76.14c-3.65-1.86-5.39-5.19-8.15-5.72L125.24,59.4A16.59,16.59,0,0,1,132.09,63l21.57-46.49C154.07,15.94,153.85,10.3,149.83,9.39ZM130.7,25.49c-.91,1.59-56.15,80.17-57,81.38a3.8,3.8,0,0,1-4.85,1.51c-2.2-1.06-34.56-18.18-36-19a2.7,2.7,0,0,1-1-4.16c1.21-1.75,53.27-67.67,53.27-67.67,1.74-2.27,3.64-3.26,6.21-2.73s36.6,7.13,38,7.43A2.09,2.09,0,0,1,130.7,25.49Z"/><path class="cls-1" d="M125.55,60.28l-15.9,23.84c3.81.72,5.59,6.94,13.71,6.67,5.59-.11,10.08-9.45,10.08-9.45s3.51-6.19,2.2-11.83C133.22,62.45,128.4,61.26,125.55,60.28Z"/></g></g></svg>