<svg width="24" height="24" viewBox="0 0 24 24" fill="none" xmlns="http://www.w3.org/2000/svg">
<path fill-rule="evenodd" clip-rule="evenodd" d="M13.3044 1.37338C13.8325 1.65057 14.2816 2.05735 14.6095 2.55558C17.7701 7.37339 19.9371 11.0816 20.0043 14.368C20.0984 18.6271 16.3132 22.1706 12.0526 22.2613C7.79203 22.352 3.86063 18.9835 3.76746 14.722C3.69656 11.4453 5.69068 7.63133 8.6435 2.68717C8.94912 2.17497 9.37982 1.74878 9.89521 1.44858C10.4106 1.14837 10.9938 0.983981 11.5901 0.970827C12.1864 0.957674 12.7763 1.09619 13.3044 1.37338ZM10.0445 3.43168L9.70781 4.04449L9.71144 4.03478C9.66843 4.1122 9.64665 4.19959 9.64827 4.28813C9.6499 4.37667 9.67488 4.46321 9.72069 4.53899C9.76651 4.61478 9.83152 4.67711 9.90917 4.7197C9.98681 4.76228 10.0743 4.7836 10.1629 4.78149L13.1057 4.7159C13.2079 4.7156 13.3082 4.68806 13.3963 4.6361C13.4844 4.58415 13.557 4.50966 13.6067 4.4203C13.6564 4.33095 13.6814 4.22996 13.6791 4.12773C13.6768 4.02551 13.6473 3.92574 13.5937 3.8387L13.294 3.34504C13.1223 3.06341 12.8794 2.83208 12.5897 2.67443C12.3 2.51677 11.9738 2.43838 11.6442 2.44717C11.3145 2.45596 10.9929 2.55162 10.7121 2.72449C10.4312 2.89735 10.2009 3.1413 10.0445 3.43168ZM8.38698 19.7307C9.50298 20.4202 10.7984 20.7634 12.1094 20.7168C13.8681 20.653 15.5296 19.8935 16.7286 18.6051C17.9276 17.3168 18.566 15.6051 18.5035 13.8463C18.4559 12.5353 18.0207 11.2679 17.2528 10.2042C16.485 9.14057 15.4191 8.32844 14.1898 7.8705C12.9604 7.41256 11.623 7.32936 10.3464 7.63144C9.0698 7.93351 7.91143 8.60728 7.01771 9.56759C6.124 10.5279 5.53506 11.7316 5.32535 13.0266C5.11563 14.3215 5.29456 15.6496 5.83952 16.8429C6.38447 18.0362 7.27098 19.0411 8.38698 19.7307ZM17.4933 16.2884C16.3342 19.3922 12.8785 20.9687 9.77466 19.8096C6.67085 18.6506 5.09434 15.1948 6.25344 12.091C7.41253 8.98718 10.8683 7.41067 13.9721 8.56976C17.0759 9.72885 18.6524 13.1846 17.4933 16.2884Z" fill="#F9F9F9"/>
</svg>
