<svg width="24" height="24" viewBox="0 0 24 24" fill="none" xmlns="http://www.w3.org/2000/svg">
<path fill-rule="evenodd" clip-rule="evenodd" d="M12.7038 23.6993C17.2538 18.9658 20.7981 13.4229 20.7981 8.79942C20.7981 3.93963 16.8584 0 11.9986 0C7.13885 0 3.19922 3.93963 3.19922 8.79942C3.19922 13.4229 6.74346 18.9658 11.2935 23.6993C11.679 24.1002 12.3183 24.1002 12.7038 23.6993ZM11.9986 13.1991C14.4285 13.1991 16.3984 11.2293 16.3984 8.79942C16.3984 6.36953 14.4285 4.39971 11.9986 4.39971C9.56875 4.39971 7.59893 6.36953 7.59893 8.79942C7.59893 11.2293 9.56875 13.1991 11.9986 13.1991Z" fill="#F9F9F9"/>
</svg>
