<svg width="40" height="50" viewBox="0 0 40 50" fill="none" xmlns="http://www.w3.org/2000/svg">
<path d="M26.1805 45.3746C26.8759 45.8639 27.7 46.1472 28.5499 46.1472C29.1938 46.1472 29.8376 45.9927 30.4557 45.6836L37.4094 42.0008C37.8987 41.7432 38.3366 41.3827 38.6714 40.9706C39.9076 39.8374 40.3711 38.0088 39.6758 36.3606C36.7655 29.5872 32.5676 22.0154 25.1246 19.5688C25.1246 19.5688 25.1504 19.5688 25.1761 19.5688C27.5455 19.5688 29.4771 17.5857 29.4771 15.3708C29.4771 14.2892 29.0135 13.362 28.2666 12.7181C28.2666 12.5636 28.2666 12.4348 28.2666 12.2803C28.2666 10.8381 27.9061 9.42159 27.2365 8.23689C27.3652 7.79907 27.4683 7.387 27.5198 6.82041C27.597 5.97052 27.597 4.73431 27.5198 4.03895C27.2622 2.23615 26.4896 1.10296 26.0003 0.845416C25.2534 0.433347 23.3476 2.49369 22.4462 4.70856C21.725 4.52828 20.9267 4.42526 20.0768 4.42526C19.2269 4.42526 18.3512 4.52828 17.6044 4.73431C16.6772 2.51944 14.7714 0.484855 14.0245 0.922678C13.2261 1.3605 11.9127 4.70856 12.7883 8.41718C12.1702 9.57612 11.8354 10.9153 11.8354 12.3061C11.8354 12.5894 11.8612 12.8727 11.9127 13.156C11.3976 13.7741 11.1143 14.5467 11.1143 15.3966C11.1143 17.4569 12.7883 19.3112 14.9517 19.5688C7.45718 21.9639 3.23347 29.5872 0.32324 36.3863C-0.372126 38.0346 0.0914507 39.8632 1.32766 40.9963C1.66246 41.4084 2.07453 41.769 2.58962 42.0265L9.54327 45.7094C10.1614 46.0442 10.8052 46.173 11.4491 46.173C12.3505 46.173 13.2004 45.8897 13.9215 45.3488L20.0253 49.0317M14.5911 26.5482L16.5999 27.7071L24.1459 32.0081L20.0253 34.1199L13.0974 30.4886L10.3159 29.0464L14.6169 26.5739L14.5911 26.5482ZM25.7427 31.184L18.583 27.089L16.1106 25.6725L16.7545 25.2862L20.1283 23.3289L23.3733 25.209L29.9664 29.0206L27.0304 30.5143L25.7427 31.184ZM19.2011 47.4349L14.5396 44.7307C14.7456 44.4989 14.9259 44.2671 15.0547 43.9838C16.1106 42.0008 15.338 39.5283 13.3549 38.4724L9.46601 36.4121V30.4113L12.0672 31.7763L19.2011 35.5107V47.4607V47.4349ZM30.7133 36.3348L26.6956 38.4467C24.7125 39.5026 23.9399 41.975 24.9958 43.9581C25.1504 44.2671 25.3564 44.5504 25.5882 44.7822L20.7979 47.5379V35.4334L28.0348 31.7248L30.8163 30.3083V36.206L30.7133 36.2576V36.3348Z" fill="white"/>
</svg>
