<svg xmlns="http://www.w3.org/2000/svg" viewBox="0 0 162.33 135.73"><defs><style>.cls-1{fill:#fff;}</style></defs><g id="Layer_2" data-name="Layer 2"><g id="Layer_1-2" data-name="Layer 1"><path class="cls-1" d="M9,107.41c-5.72,0-9,4.62-9,9.68,0,5.32,3.34,9.5,10,9.5a23,23,0,0,0,6-1.06l-.62-3a16.91,16.91,0,0,1-5.1,1c-4.75,0-6.51-2.38-6.9-5.55H16.93a8.21,8.21,0,0,0,.13-1.76C17.06,111.28,14.2,107.41,9,107.41Zm-5.45,8c.39-3.17,2.24-5.11,5.23-5.11,3.25,0,4.88,2.25,5.1,5.11Z"/><path class="cls-1" d="M30.87,107.41a21.58,21.58,0,0,0-5.85,1l.57,3a13.29,13.29,0,0,1,4.84-.92c3.38,0,4.83,1.45,4.83,4.57v1.1a12.77,12.77,0,0,0-5.58-1.23c-3.78,0-6.64,2.42-6.64,5.76,0,3.78,3,5.94,6.68,5.94a8,8,0,0,0,5.72-2.29v1.93h3.21v-11C38.65,109.92,36.14,107.41,30.87,107.41Zm4.39,14.12a6.12,6.12,0,0,1-4.66,2.28c-2.72,0-4.26-1.14-4.26-3.16s1.54-3.12,3.91-3.12a9.12,9.12,0,0,1,5,1.49Z"/><path class="cls-1" d="M49.16,112.6c0-1.32.87-2.38,3-2.38a6.93,6.93,0,0,1,4,1.54l1.54-2.59a10.39,10.39,0,0,0-5.36-1.76c-3.92,0-6.29,2.6-6.29,5.5,0,5.54,8.62,4.62,8.62,8.22,0,1.63-1,2.64-3.17,2.64a7.63,7.63,0,0,1-4.66-2.06L45,124.16a10.3,10.3,0,0,0,6.6,2.43,5.9,5.9,0,0,0,6.11-5.81C57.73,115.06,49.16,115.72,49.16,112.6Z"/><polygon class="cls-1" points="71.98 121 66.35 107.76 62.48 107.76 70.26 124.47 64.72 135.73 68.19 135.73 81.25 107.76 77.52 107.76 71.98 121"/><path class="cls-1" d="M96.47,107.41a9.12,9.12,0,0,0-6.2,2.2v-1.85H87v28h3.47V125.22a10.93,10.93,0,0,0,5.37,1.37c5.49,0,9.36-4.32,9.36-9.72C105.17,111.28,101.35,107.41,96.47,107.41Zm-.75,16.32a7.09,7.09,0,0,1-5.32-2.12v-9.1a7.28,7.28,0,0,1,5.41-2.2c3.65,0,5.93,3,5.93,6.6C101.74,120.87,99.28,123.73,95.72,123.73Z"/><path class="cls-1" d="M114.45,99.14a2.22,2.22,0,1,0,2.2,2.25A2.22,2.22,0,0,0,114.45,99.14Z"/><rect class="cls-1" x="112.69" y="107.76" width="3.47" height="18.47"/><path class="cls-1" d="M133.35,110.4a10.45,10.45,0,0,1,5.2,1.54l1.4-2.64a12.35,12.35,0,0,0-6.29-1.89,9.63,9.63,0,0,0-10,9.68c0,5.32,4.13,9.5,10,9.5a12.26,12.26,0,0,0,6.29-1.9l-1.19-2.63a10.48,10.48,0,0,1-5.19,1.54,6.42,6.42,0,0,1-6.55-6.51C127,112.86,129.75,110.4,133.35,110.4Z"/><polygon class="cls-1" points="152.96 116.38 161.89 107.76 157.58 107.76 149.75 115.9 149.75 94 146.28 94 146.28 126.23 149.75 126.23 149.75 117.13 158.02 126.23 162.33 126.23 152.96 116.38"/><path class="cls-1" d="M73.27,28.19c-2.21-.5-19.73-7.1-22.07-19.26,0,0,.38,2.81-2.52,7.58,0,0,5-10.86-3.93-16.51,0,0-5.74,4.4-4.3,10.9a4.82,4.82,0,0,1-.81-5.12,86.82,86.82,0,0,1-7.42,5.43C28.67,13.45,20.44,17.32,18,30.28c0,0-2.31,4.43,0,6.11s9.16,3,14.52-.31,7.36,5.73.06,6S15,39.87,16,49.57c0,0,8.29,1.84,8.54-1.46a99.69,99.69,0,0,1,15.65,8.48c.56.37,3.55,3.43,7.1-.37s15.84-16.4,22.07-5.68c0,0-7.53-9.35-22.81,10.47,0,0-6.42,7,7.85,25.44,0,0-10-1.63-10.72,6.85H84.15s-5.24-4.24,1.25-16.45S102.19,36.67,73.27,28.19Zm-43.51-4a2,2,0,1,1,2-2A2,2,0,0,1,29.76,24.23Z"/><path class="cls-1" d="M136.21,21.69c-8.17-.38-15.7,4-17.1,12a18.48,18.48,0,0,0,15,21.38,23.11,23.11,0,0,0,26.73-18.8c2.73-15.72-9-30.68-24.68-33.41C116.55-.52,96,15.62,92.62,35.27a37.05,37.05,0,0,1-.48,35.84C81.54,89.84,89.39,93.3,89.39,93.3s44.39,6.24,28.43-47.12C115.32,38.2,113.21,19.5,136.21,21.69Z"/><path class="cls-1" d="M19.57,65l.51,0V77.53h1.45V64.72a6.86,6.86,0,1,0-4.38-.16V88.42H18.6V64.93A7.77,7.77,0,0,0,19.57,65ZM15,58.15a4.62,4.62,0,1,1,4.61,4.61A4.62,4.62,0,0,1,15,58.15Z"/><polygon class="cls-1" points="25.7 83.17 21.4 83.17 21.4 81.35 24.2 81.35 24.2 79.01 19.57 79.01 19.57 86.92 25.7 86.92 25.7 83.17"/></g></g></svg>