<svg width="24" height="24" viewBox="0 0 24 24" fill="none" xmlns="http://www.w3.org/2000/svg">
<path d="M16.4209 5.83816C16.1249 5.62175 15.7788 5.48406 15.415 5.43801C15.0513 5.39196 14.6818 5.43905 14.3412 5.57487C14.0006 5.71069 13.7001 5.93079 13.4678 6.21452C13.2356 6.49825 13.0792 6.83633 13.0134 7.19703C12.3761 10.6794 12.048 13.3048 12.7935 15.1766C13.7637 17.6108 16.7522 18.7052 19.1864 17.7366C21.6206 16.7681 23.0384 13.9133 22.0683 11.4807C21.3227 9.60254 19.2772 7.93302 16.4209 5.83816ZM13.9182 7.74982L13.9803 7.32448C14.008 7.12362 14.0881 6.9336 14.2127 6.77364C14.3373 6.61368 14.5019 6.48944 14.6898 6.41347C14.8778 6.3375 15.0825 6.3125 15.2833 6.341C15.484 6.36949 15.6736 6.45047 15.8331 6.57574L16.1118 6.79558C16.1615 6.83417 16.1999 6.88528 16.2232 6.94366C16.2465 7.00204 16.2538 7.06558 16.2444 7.12773C16.235 7.18988 16.2092 7.2484 16.1697 7.29726C16.1301 7.34612 16.0783 7.38356 16.0194 7.40572L14.3388 8.07639C14.2882 8.09665 14.2333 8.10319 14.1794 8.09537C14.1255 8.08754 14.0747 8.06562 14.032 8.03183C13.9893 7.99804 13.9563 7.95358 13.9363 7.90294C13.9163 7.8523 13.9101 7.79728 13.9182 7.74345V7.74982ZM18.8869 16.835C18.1419 17.1437 17.3221 17.2247 16.5311 17.0676C15.7401 16.9105 15.0134 16.5224 14.443 15.9524C13.8725 15.3824 13.4838 14.656 13.3261 13.8651C13.1684 13.0743 13.2486 12.2544 13.5568 11.5091C13.865 10.7639 14.3872 10.1267 15.0574 9.67822C15.7276 9.2297 16.5158 8.98997 17.3222 8.98931C18.1287 8.98866 18.9172 9.22712 19.5882 9.67455C20.2591 10.122 20.7823 10.7583 21.0917 11.503C21.506 12.5025 21.5064 13.6256 21.093 14.6254C20.6796 15.6252 19.8861 16.42 18.8869 16.835V16.835Z" fill="#F9F9F9"/>
<path d="M17.3481 16.8142C19.3848 16.8142 21.036 15.1631 21.036 13.1263C21.036 11.0895 19.3848 9.43842 17.3481 9.43842C15.3113 9.43842 13.6602 11.0895 13.6602 13.1263C13.6602 15.1631 15.3113 16.8142 17.3481 16.8142Z" fill="#F9F9F9"/>
<path d="M13.9208 8.82348C14.052 9.51134 14.0138 10.2208 13.8097 10.8906C13.6056 11.5605 13.2416 12.1706 12.7491 12.6684C12.2566 13.1662 11.6505 13.5368 10.9829 13.7481C10.3152 13.9594 9.60625 14.0052 8.91702 13.8814L7.9357 15.6752L8.36104 17.0659L6.65648 17.5438L7.14714 18.9776L6.69471 19.798L5.14946 20.1963L5.38523 21.2588L4.94555 22.1191L2.37118 23L2.03186 22.5874L2 21.0438L6.59435 12.6532C6.05889 12.1066 5.67839 11.4274 5.49184 10.6853C5.3053 9.9432 5.31942 9.16485 5.53275 8.43001C5.74609 7.69516 6.15097 7.03025 6.70591 6.50342C7.26084 5.97659 7.94587 5.60677 8.6908 5.43188C8.84263 6.18703 9.19102 6.88876 9.7008 7.4662C9.64061 7.67447 9.64669 7.8963 9.71818 8.10096C9.78967 8.30562 9.92304 8.48298 10.0998 8.60847C10.2766 8.73396 10.488 8.80137 10.7048 8.80136C10.9216 8.80135 11.133 8.73392 11.3098 8.60841C11.4425 8.51809 11.5517 8.39739 11.6284 8.25635C11.6379 8.23883 11.6459 8.21971 11.6555 8.20059C11.7612 7.97849 11.7852 7.7262 11.7232 7.48814C11.6613 7.25008 11.5173 7.04151 11.3167 6.89914C11.1161 6.75677 10.8717 6.68974 10.6265 6.70983C10.3814 6.72993 10.1511 6.83586 9.97639 7.00899C9.58363 6.52629 9.31361 5.95564 9.18943 5.34585C10.1852 5.23085 11.19 5.46649 12.0308 6.01223C12.8717 6.55796 13.496 7.37968 13.7965 8.336C13.8459 8.49531 13.8873 8.65939 13.9208 8.82348ZM3.19638 21.7877L7.7748 13.4258L7.51195 13.284L2.93512 21.6459L3.19638 21.7877Z" fill="#F9F9F9"/>
<path d="M12.7962 8.59889C11.8077 8.59845 10.8584 8.21264 10.1498 7.52342C9.44125 6.8342 9.02933 5.89588 9.00155 4.9078C8.98011 4.15665 9.1819 3.41601 9.5814 2.77954C9.9809 2.14307 10.5602 1.63936 11.2459 1.33211C11.9317 1.02486 12.6932 0.92786 13.4341 1.05339C14.175 1.17891 14.862 1.52132 15.4083 2.03732C15.9546 2.55331 16.3356 3.21972 16.5032 3.95226C16.6707 4.6848 16.6173 5.45057 16.3497 6.15275C16.082 6.85492 15.6121 7.46195 14.9995 7.89708C14.3868 8.3322 13.6589 8.57588 12.9077 8.5973L12.7962 8.59889ZM12.7962 1.73604H12.707C11.8947 1.75979 11.125 2.10498 10.567 2.6958C10.0091 3.28663 9.70844 4.07476 9.73116 4.88709V4.88709C9.74807 5.48914 9.94198 6.07287 10.2887 6.56536C10.6354 7.05786 11.1195 7.4373 11.6805 7.6563C12.2416 7.87529 12.8547 7.92413 13.4434 7.79671C14.032 7.6693 14.5701 7.37128 14.9904 6.93987C15.4107 6.50847 15.6946 5.9628 15.8065 5.37102C15.9185 4.77923 15.8537 4.16757 15.6201 3.61242C15.3866 3.05727 14.9946 2.58323 14.4932 2.24952C13.9918 1.91581 13.4033 1.73722 12.801 1.73604H12.7962Z" fill="#F9F9F9"/>
</svg>
