<svg xmlns="http://www.w3.org/2000/svg" viewBox="0 0 44.93 44.93"><defs><style>.cls-1{fill:#fff;}</style></defs><g id="Layer_2" data-name="Layer 2"><g id="Layer_1-2" data-name="Layer 1"><path class="cls-1" d="M22.47,18a4.44,4.44,0,1,0,4.44,4.44A4.44,4.44,0,0,0,22.47,18Z"/><path class="cls-1" d="M32.86,14.6a4.32,4.32,0,0,0-1-1.53,4.23,4.23,0,0,0-1.53-1,7.55,7.55,0,0,0-2.48-.46c-1.41-.06-1.83-.07-5.38-.07h-1.2c-2.48,0-3,0-4.19.07a7.49,7.49,0,0,0-2.48.46,4.46,4.46,0,0,0-2.53,2.53,7.55,7.55,0,0,0-.46,2.48c-.06,1.41-.07,1.83-.07,5.39s0,4,.07,5.38a7.49,7.49,0,0,0,.46,2.48,4.23,4.23,0,0,0,1,1.53,4.32,4.32,0,0,0,1.53,1,7.55,7.55,0,0,0,2.48.46c1.41.06,1.83.07,5.39.07s4,0,5.38-.07a7.49,7.49,0,0,0,2.48-.46,4.46,4.46,0,0,0,2.53-2.53,7.55,7.55,0,0,0,.46-2.48c.06-1.41.07-1.83.07-5.38s0-4-.07-5.39A7.49,7.49,0,0,0,32.86,14.6ZM22.47,29.31a6.85,6.85,0,1,1,6.84-6.84A6.85,6.85,0,0,1,22.47,29.31ZM29.58,17a1.6,1.6,0,1,1,1.6-1.6A1.59,1.59,0,0,1,29.58,17Z"/><path class="cls-1" d="M22.47,0A22.47,22.47,0,1,0,44.93,22.47,22.47,22.47,0,0,0,22.47,0ZM35.72,28a10.09,10.09,0,0,1-.62,3.23,6.67,6.67,0,0,1-1.54,2.37,6.51,6.51,0,0,1-2.36,1.54,9.94,9.94,0,0,1-3.24.62c-1.42.06-1.88.08-5.49.08s-4.08,0-5.5-.08a9.87,9.87,0,0,1-3.23-.62,6.54,6.54,0,0,1-2.37-1.54A6.41,6.41,0,0,1,9.83,31.2,9.82,9.82,0,0,1,9.21,28c-.07-1.43-.08-1.88-.08-5.5s0-4.07.08-5.49a9.68,9.68,0,0,1,.62-3.24,6.73,6.73,0,0,1,1.54-2.36,6.41,6.41,0,0,1,2.37-1.54A9.82,9.82,0,0,1,17,9.22c1.42-.07,1.88-.08,5.5-.08s4.07,0,5.48.08a9.94,9.94,0,0,1,3.24.62,6.83,6.83,0,0,1,3.91,3.9A10.21,10.21,0,0,1,35.72,17c.07,1.42.08,1.88.08,5.49S35.78,26.55,35.72,28Z"/></g></g></svg>