<svg xmlns="http://www.w3.org/2000/svg" viewBox="0 0 194.86 671.16"><defs><style>.cls-1{fill:#aaa9a9;}.cls-2{fill:#050505;}.cls-3{fill:#f37c20;}.cls-4{fill:#fff;}.cls-5{fill:none;stroke:#212121;stroke-miterlimit:10;stroke-width:2px;opacity:0.5;}</style></defs><g id="Layer_2" data-name="Layer 2"><g id="Layer_1-2" data-name="Layer 1"><path class="cls-1" d="M94.14,451.1a66.5,66.5,0,1,1,66.5-66.5A66.57,66.57,0,0,1,94.14,451.1Zm0-124a57.5,57.5,0,1,0,57.5,57.5A57.57,57.57,0,0,0,94.14,327.1Z"/><path class="cls-1" d="M67,52.45l12.62,14.7L58.72,86.28,58.53,103l19.6,18.32L55.41,143l18.28,18.29-.46,36.3a76.69,76.69,0,0,0,8.92,148.29,79.25,79.25,0,0,1,58.8-138,75.89,75.89,0,0,0-21-10.4l2-170-13.35-24L99.8,0l-33,35.26ZM102.27,26l-2,169.35L95,195.23,97,25.89Z"/><path class="cls-1" d="M79.75,347.29a77.16,77.16,0,1,0-57.53-92.73A77.17,77.17,0,0,0,79.75,347.29Zm18.64-40.92a15.43,15.43,0,1,1-18.55,11.5A15.44,15.44,0,0,1,98.39,306.37Z"/><path class="cls-2" d="M194.71,573.21c-1-17.76-6.46-34.4-13.57-50.54-12.66-28.79-29.48-55.22-46.34-81.63-3.67-5.75-7.27-11.54-12.75-15.87a42.18,42.18,0,0,0-54.24.89c-5.35,4.5-8.75,10.41-12.24,16.28-16,27-31.93,53.91-43.63,83.1C5.36,541.81.4,558.62,0,576.4c-.52,24.5,8,45.84,25,63.21C46.33,661.24,71,672,99,671.12c28-.09,52.26-11.59,72.83-33.92C188.28,619.29,196,597.68,194.71,573.21ZM72.37,452.62c3-5.79,5.74-11.83,11.79-15.43a21.44,21.44,0,0,1,21.91-.36c6.16,3.4,9.07,9.35,12.28,15,2.52,4.48,0,8.64-5.2,8.8-5.72.18-11.44.21-17.16.3H95c-5.72.1-11.44.27-17.16.27C72.68,461.26,70,457.19,72.37,452.62Z"/><path class="cls-3" d="M55.68,603.55l-9.37.12c.3,2.19,1.54,3.82,4.83,3.78a12.23,12.23,0,0,0,3.52-.75l.45,2a16.07,16.07,0,0,1-4.16.79c-4.59.06-6.94-2.8-7-6.49-.05-3.49,2.16-6.72,6.12-6.77,3.62,0,5.63,2.61,5.68,6.07A5.69,5.69,0,0,1,55.68,603.55Zm-2.15-1.8c-.18-2-1.33-3.51-3.58-3.48-2.07,0-3.33,1.38-3.57,3.58Z"/><path class="cls-3" d="M68.56,609.05l0-1.34a5.55,5.55,0,0,1-3.93,1.63c-2.53,0-4.65-1.43-4.68-4.05,0-2.31,1.92-4,4.54-4a8.93,8.93,0,0,1,3.87.8v-.76c0-2.16-1-3.15-3.38-3.12a9.26,9.26,0,0,0-3.34.68l-.42-2.06a14.77,14.77,0,0,1,4-.72c3.66-.05,5.41,1.66,5.46,5.34l.1,7.61Zm-.19-5a6.25,6.25,0,0,0-3.48-1c-1.64,0-2.7.76-2.68,2.19s1.09,2.18,3,2.16a4.27,4.27,0,0,0,3.2-1.63Z"/><path class="cls-3" d="M79.75,609.15a7.13,7.13,0,0,1-4.58-1.62l1.19-1.72a5.29,5.29,0,0,0,3.24,1.39c1.49,0,2.19-.73,2.17-1.85,0-2.5-6-1.78-6-5.62,0-2,1.59-3.82,4.3-3.85A7.18,7.18,0,0,1,83.76,597l-1,1.81a4.8,4.8,0,0,0-2.75-1c-1.46,0-2.06.76-2,1.67,0,2.16,6,1.63,6,5.58A4.09,4.09,0,0,1,79.75,609.15Z"/><path class="cls-3" d="M91.3,615.32l-2.4,0,3.73-7.83L87.09,596l2.68,0,4,9.11,3.72-9.21,2.58,0Z"/><path class="cls-4" d="M110.32,608.75a7.45,7.45,0,0,1-3.72-.9l.09,7.27-2.4,0L104,595.81l2.28,0,0,1.28a6.27,6.27,0,0,1,4.26-1.58c3.38,0,6.06,2.6,6.11,6.46A6.45,6.45,0,0,1,110.32,608.75Zm-.15-11.26a5,5,0,0,0-3.72,1.57l.08,6.3a4.93,4.93,0,0,0,3.7,1.41c2.47,0,4.14-2,4.11-4.77C114.31,599.48,112.7,597.46,110.17,597.49Z"/><path class="cls-4" d="M123,592.67a1.54,1.54,0,1,1,1.5-1.54A1.53,1.53,0,0,1,123,592.67Z"/><rect class="cls-4" x="121.91" y="595.56" width="2.4" height="12.78" transform="translate(-7.76 1.64) rotate(-0.74)"/><path class="cls-4" d="M136.51,608.41a6.56,6.56,0,0,1-7-6.48,6.66,6.66,0,0,1,6.82-6.78,8.44,8.44,0,0,1,4.36,1.25l-.95,1.84a7.09,7.09,0,0,0-3.6-1,4.25,4.25,0,0,0-4.32,4.68,4.43,4.43,0,0,0,4.59,4.44,7.09,7.09,0,0,0,3.57-1.11l.85,1.82A8.56,8.56,0,0,1,136.51,608.41Z"/><path class="cls-4" d="M153.35,608l-5.8-6.22.08,6.3-2.4,0-.29-22.3,2.41,0,.19,15.15,5.34-5.7,3,0-6.1,6,6.56,6.73Z"/><path class="cls-3" d="M93.85,540.89c-1.53-.33-13.71-4.74-15.44-13.13,0,0,.29,1.94-1.68,5.26,0,0,3.35-7.55-2.86-11.38,0,0-3.93,3.09-2.88,7.57a3.3,3.3,0,0,1-.6-3.52,60.36,60.36,0,0,1-5.09,3.81c-2.43,1.59-8.09,4.34-9.7,13.33,0,0-1.56,3.08,0,4.22s6.37,2,10.05-.34,5.14,3.9.09,4.14-12.18-1.36-11.4,5.34c0,0,5.75,1.2,5.9-1.09a69.23,69.23,0,0,1,10.89,5.73,3.22,3.22,0,0,0,4.92-.32c2.42-2.67,10.8-11.49,15.21-4.13,0,0-5.29-6.4-15.69,7.45,0,0-4.37,4.89,5.66,17.52,0,0-6.91-1-7.35,4.84l28-.36s-3.66-2.88.71-11.39S113.93,546.5,93.85,540.89Zm-30.13-2.36a1.41,1.41,0,1,1,1.39-1.42A1.41,1.41,0,0,1,63.72,538.53Z"/><path class="cls-3" d="M105.58,585.78s30.76,3.92,19.25-32.85c-1.8-5.5-3.43-18.41,12.5-17.1-5.65-.2-10.82,2.9-11.72,8.48A12.78,12.78,0,0,0,136.2,559a16,16,0,0,0,18.33-13.24c1.75-10.9-6.48-21.14-17.38-22.89-13.62-2.19-27.66,9.16-29.85,22.78a25.64,25.64,0,0,1,0,24.8C100.12,583.46,105.58,585.78,105.58,585.78Z"/><path class="cls-4" d="M56.93,558.9a3.19,3.19,0,1,1-3.15,3.23,3.19,3.19,0,0,1,3.15-3.23m0-1.55A4.74,4.74,0,1,0,61.72,562a4.74,4.74,0,0,0-4.81-4.68Z"/><rect class="cls-4" x="55.46" y="565.42" width="1" height="17.62" transform="translate(-7.41 0.77) rotate(-0.74)"/><rect class="cls-4" x="57.43" y="565.4" width="1" height="10.09" transform="translate(-7.36 0.8) rotate(-0.74)"/><polygon class="cls-4" points="57.16 576.52 57.23 582 61.47 581.94 61.43 579.35 58.46 579.38 58.44 578.12 60.38 578.1 60.36 576.48 57.16 576.52"/><circle class="cls-5" cx="96.72" cy="569.86" r="82.27"/></g></g></svg>