<svg width="28" height="28" viewBox="0 0 28 28" fill="none" xmlns="http://www.w3.org/2000/svg">
<path d="M27.52 5.81V21.72C27.52 24.92 24.92 27.53 21.72 27.53H5.81C2.6 27.53 0 24.92 0 21.72V5.81C0 2.61 2.6 0 5.81 0H21.72C24.92 0 27.52 2.61 27.52 5.81ZM26.52 21.72V5.81C26.52 3.16 24.37 1 21.72 1H5.81C3.16 1 1 3.16 1 5.81V21.72C1 24.37 3.16 26.53 5.81 26.53H21.72C24.37 26.53 26.52 24.37 26.52 21.72Z" fill="white"/>
<path d="M26.52 5.81V21.72C26.52 24.37 24.37 26.53 21.72 26.53H5.81C3.16 26.53 1 24.37 1 21.72V5.81C1 3.16 3.16 1 5.81 1H21.72C24.37 1 26.52 3.16 26.52 5.81Z" fill="#414141"/>
<path d="M14.7207 21.0297L20.3307 17.9197V9.59967L14.7207 12.3597V21.0297Z" fill="white"/>
<path d="M20.3302 9.07969L12.9202 5.17969L7.4502 8.23969L14.4602 11.9097L20.3302 9.07969Z" fill="white"/>
<path d="M14.2004 12.3597L7.19043 8.6897V16.8797L8.05043 17.3797L11.0304 22.3397H11.3504V19.2797L14.2004 20.9197V12.3497V12.3597ZM13.5804 20.0897L11.3504 18.7997V14.1897L8.13043 9.9297L13.5804 12.7797V20.0797V20.0897Z" fill="white"/>
</svg>
