<svg xmlns="http://www.w3.org/2000/svg" xmlns:xlink="http://www.w3.org/1999/xlink" viewBox="0 0 50.76 42.44"><defs><style>.cls-1{fill:#f37c20;}.cls-2{fill:#e6e7e8;}.cls-3{fill:url(#linear-gradient);}.cls-4{fill:url(#linear-gradient-2);}</style><linearGradient id="linear-gradient" x1="16.97" y1="34.35" x2="16.97" y2="-9.36" gradientUnits="userSpaceOnUse"><stop offset="0" stop-color="#f59120"/><stop offset="1" stop-color="#ec3724"/></linearGradient><linearGradient id="linear-gradient-2" x1="38.76" y1="34.35" x2="38.76" y2="-9.36" xlink:href="#linear-gradient"/></defs><g id="Layer_2" data-name="Layer 2"><g id="Layer_1-2" data-name="Layer 1"><path class="cls-1" d="M5.29,36.92H1.06c.12,1,.67,1.73,2.16,1.73a5.29,5.29,0,0,0,1.59-.32l.2.92a7,7,0,0,1-1.89.34,3,3,0,0,1-.31-6,2.51,2.51,0,0,1,2.53,2.78A2.13,2.13,0,0,1,5.29,36.92Zm-1-.83A1.54,1.54,0,0,0,2.74,34.5,1.6,1.6,0,0,0,1.1,36.09Z"/><path class="cls-1" d="M11.08,39.48v-.61a2.51,2.51,0,0,1-1.79.72,1.85,1.85,0,1,1,0-3.66,4.13,4.13,0,0,1,1.75.38V36c0-1-.46-1.43-1.52-1.43A4.06,4.06,0,0,0,8,34.83l-.18-.94a7,7,0,0,1,1.83-.3A2.14,2.14,0,0,1,12.09,36v3.44ZM11,37.22a2.85,2.85,0,0,0-1.57-.47c-.74,0-1.22.33-1.22,1s.48,1,1.33,1A1.92,1.92,0,0,0,11,38Z"/><path class="cls-1" d="M16.14,39.59a3.2,3.2,0,0,1-2.06-.76l.55-.77a2.37,2.37,0,0,0,1.46.64c.67,0,1-.31,1-.82,0-1.13-2.7-.84-2.7-2.57a1.8,1.8,0,0,1,2-1.72,3.26,3.26,0,0,1,1.68.55l-.49.81a2.17,2.17,0,0,0-1.23-.48c-.66,0-.94.33-.94.74,0,1,2.68.77,2.68,2.56A1.85,1.85,0,0,1,16.14,39.59Z"/><path class="cls-1" d="M21.32,42.44H20.24L22,38.92,19.54,33.7h1.21l1.76,4.14,1.73-4.14h1.17Z"/><path class="cls-2" d="M30,39.59a3.49,3.49,0,0,1-1.68-.43v3.28H27.2V33.7h1v.58a2.8,2.8,0,0,1,1.94-.69,2.77,2.77,0,0,1,2.72,3A2.92,2.92,0,0,1,30,39.59Zm0-5.09a2.28,2.28,0,0,0-1.69.68V38a2.23,2.23,0,0,0,1.66.66,1.94,1.94,0,0,0,1.89-2.13A1.9,1.9,0,0,0,30,34.5Z"/><path class="cls-2" d="M35.79,32.39a.69.69,0,0,1-.69-.69.69.69,0,1,1,.69.69Z"/><rect class="cls-2" x="35.24" y="33.7" width="1.09" height="5.78"/><path class="cls-2" d="M41.8,39.59a3,3,0,0,1-3.12-3,3,3,0,0,1,3.12-3,3.83,3.83,0,0,1,2,.59l-.44.83a3.18,3.18,0,0,0-1.62-.49,1.92,1.92,0,0,0-2,2.09,2,2,0,0,0,2.05,2,3.27,3.27,0,0,0,1.62-.48l.37.82A3.84,3.84,0,0,1,41.8,39.59Z"/><path class="cls-2" d="M49.42,39.48l-2.59-2.85v2.85H45.74V29.39h1.09v6.85l2.45-2.54h1.35l-2.8,2.69,2.93,3.09Z"/><path class="cls-3" d="M22.91,8.82c-.69-.16-6.17-2.23-6.9-6a4,4,0,0,1-.79,2.37S16.78,1.77,14,0a3.65,3.65,0,0,0-1.34,3.41,1.52,1.52,0,0,1-.25-1.6A27.65,27.65,0,0,1,10.08,3.5a8.15,8.15,0,0,0-4.47,6s-.72,1.38,0,1.91a4.63,4.63,0,0,0,4.54-.1c1.68-1,2.3,1.8,0,1.87S4.68,12.47,5,15.5c0,0,2.59.58,2.67-.46a31.3,31.3,0,0,1,4.89,2.66,1.45,1.45,0,0,0,2.22-.12c1.12-1.19,5-5.13,6.9-1.78,0,0-2.35-2.92-7.13,3.28,0,0-2,2.18,2.46,8,0,0-3.12-.5-3.36,2.15H26.31s-1.63-1.33.39-5.15S32,11.47,22.91,8.82ZM9.31,7.58a.64.64,0,1,1,0-1.28.64.64,0,0,1,0,1.28Z"/><path class="cls-4" d="M28,29.18s13.88,1.95,8.89-14.74C36.06,12,35.4,6.1,42.6,6.78,40,6.66,37.68,8,37.25,10.55A5.77,5.77,0,0,0,42,17.23a7.22,7.22,0,0,0,8.36-5.88C51.16,6.44,47.5,1.76,42.59.91,36.45-.16,30,4.89,29,11a11.57,11.57,0,0,1-.15,11.21C25.5,28.09,28,29.18,28,29.18Z"/><path class="cls-2" d="M6.12,16.74a1.45,1.45,0,1,1-1.44,1.44,1.44,1.44,0,0,1,1.44-1.44m0-.7a2.15,2.15,0,1,0,2.15,2.14A2.14,2.14,0,0,0,6.12,16Z"/><rect class="cls-2" x="5.36" y="19.68" width="0.45" height="7.97"/><rect class="cls-2" x="6.28" y="19.68" width="0.45" height="4.56"/><polygon class="cls-2" points="6.12 24.71 6.12 27.18 8.04 27.18 8.04 26.01 6.69 26.01 6.69 25.44 7.57 25.44 7.57 24.71 6.12 24.71"/></g></g></svg>