<svg width="48" height="48" viewBox="0 0 48 48" fill="none" xmlns="http://www.w3.org/2000/svg">
<g clip-path="url(#clip0_2_2)">
<path d="M38 0H10C4.47715 0 0 4.47715 0 10V38C0 43.5228 4.47715 48 10 48H38C43.5228 48 48 43.5228 48 38V10C48 4.47715 43.5228 0 38 0Z" fill="#888888"/>
<path d="M37.9963 21.4548C37.9963 25.1259 38.0136 28.6746 37.9732 32.2227C37.9684 32.6426 37.7824 33.2728 37.4519 33.4452C33.6046 35.4512 29.7134 37.388 25.6012 39.4604C25.6012 38.9659 25.6012 38.6658 25.6012 38.3656C25.6012 33.308 25.6236 28.2501 25.5786 23.1928C25.5713 22.3745 25.8545 21.9753 26.6676 21.6263C29.9557 20.2148 33.2029 18.7248 36.469 17.271C36.8987 17.0798 37.3508 16.9301 37.9963 16.6833C37.9963 18.3514 37.9963 19.8419 37.9963 21.4548Z" fill="white"/>
<path d="M20.8146 20.4197C23.8325 21.2156 24.7614 22.8733 24.563 25.6713C24.2496 30.0909 24.4796 34.5421 24.4796 39.2116C22.3402 38.1242 20.379 37.1275 18.1556 35.9974C18.1556 38.166 18.1556 40.0875 18.1556 42.0089C18.0353 42.0523 17.9151 42.0956 17.7949 42.139C17.503 41.8435 17.1524 41.5805 16.9286 41.2475C15.0814 38.4983 13.2623 35.7336 11.4211 32.9811C11.192 32.6386 10.9504 32.159 10.5998 32.0519C8.92276 31.5399 8.99139 30.3717 9.00377 29.1105C9.04541 24.8683 9.01961 20.6255 9.01961 16.383C9.01961 15.9428 9.01961 15.5026 9.01961 14.797C13.0637 16.7261 16.894 18.5531 20.8146 20.4197ZM18.1718 30.8922C18.1722 31.9927 18.1454 33.0941 18.1894 34.1932C18.2026 34.525 18.3009 35.0087 18.55 35.1524C19.9656 35.969 21.4386 36.7037 23.0131 37.5297C23.0718 37.1557 23.1162 37.0041 23.1164 36.8526C23.1208 32.4913 23.1477 28.1297 23.0786 23.7693C23.0719 23.3474 22.5677 22.7646 22.1213 22.5427C19.0119 20.9975 15.8593 19.5234 12.7123 18.041C12.4079 17.8976 12.0467 17.8534 11.4219 17.685C12.7458 19.2736 13.7176 20.7257 14.9922 21.9098C17.6571 24.3858 18.737 27.2486 18.1718 30.8922Z" fill="white"/>
<path d="M26.534 20.5732C25.4376 21.2454 24.5543 21.0536 23.498 20.5336C18.9966 18.3177 14.4347 16.2027 9.77338 13.9932C10.0465 13.7734 10.2295 13.5654 10.4665 13.4446C13.9143 11.6866 17.3615 9.92725 20.8339 8.20978C21.2088 8.02436 21.8415 7.91844 22.1825 8.07798C27.3647 10.5022 32.5181 12.977 37.9576 15.5732C34.0171 17.2954 30.3196 18.9114 26.534 20.5732Z" fill="white"/>
</g>
<defs>
<clipPath id="clip0_2_2">
<rect width="48" height="48" fill="white"/>
</clipPath>
</defs>
</svg>
