<svg xmlns="http://www.w3.org/2000/svg" viewBox="0 0 556.96 799.64"><defs><style>.cls-1{fill:#231f20;opacity:0.25;}.cls-2{fill:#754c24;}.cls-3{fill:#c69c6d;}.cls-4{fill:#a67c52;}.cls-5{fill:#736357;}.cls-6{fill:#a17549;}.cls-7{fill:#534741;}.cls-20,.cls-8{fill:#332926;}.cls-9{fill:#b88c59;}.cls-10{fill:#3a302d;}.cls-11{fill:#51403b;}.cls-12{fill:#262322;}.cls-13{opacity:0.5;}.cls-14{fill:#fff;}.cls-15{opacity:0.7;}.cls-16{fill:#f37c20;}.cls-17{fill:#e6e7e8;}.cls-18,.cls-19{fill:none;}.cls-19{stroke:#332926;stroke-miterlimit:10;}.cls-20{opacity:0.4;}</style></defs><g id="Layer_2" data-name="Layer 2"><g id="Layer_1-2" data-name="Layer 1"><path class="cls-1" d="M552.65,325.76c1.89-5.66,11.91-35.7-7.16-55.22-10.25-10.49-27.45-16.46-42.95-11.25a13.68,13.68,0,0,0-3.09,1.53c21.86-87.22,39.62-167.21,43.42-185.7,7.53-36.68-12.28-48.06-26.14-50.34-21.19-3.5-89.16-8-120-10.28a236.4,236.4,0,0,0-38.33,0,20.27,20.27,0,0,0-4.1.45h-.06c-16.8,3.67-23.65,27.65-23.65,27.65S319.38,86.18,304.34,144.5c-22.82-4.35-46.73,28.05-49,31.24-18,25-11.93,43.56-20,69.74-14,45.14-41.41,74.29-77.43,112.66-48.24,51.38-43.24,108.5-39.35,155.28.29,3.48-17.28,30.94-18.93,32.77-2,2.15-11.43,2.06-12.45,1.9.78.3,6.69,2.62,6.83,4.71a2.73,2.73,0,0,1-.8,2c-.68.48-19.86-3.5-19.86-3.5S84,562.92,83.52,567.9c-.09.88-.14.83-.86,1.36s-11.07-1.5-11.07-1.5,7.53,6,6,7.89c-3.55,4.49-23.51,29.45-42.43,51.53C21.37,643.29.81,654.92.81,654.92-9.89,738.5,87.65,811.6,148.19,798c19.69-32.76,167.29-192.57,183.28-195.25,18-3,78-19,106.39-31.87,3.63-1.64,7,14.33,7,14.33s2.85-15.13,2.28-17.33c-.51-2,2.68-2.9,4.62-2.46,5.71,1.3,13.22,18.05,13.22,18.05s-.49-10.48-.67-26c0-2.86,4.49-5.29,7.21-4.55,3.68,1,6.68,13.7,6.68,13.7s2.66-4.83,2.66-15.31c0-7.56,9.08-13,18.17-22.78,17-18.22,31.41-50.47,24.3-77.76a59.9,59.9,0,0,0-3.63-9.94s0,0,0-.05v0c1.48-1.52,3-3.15,4.43-5a97.27,97.27,0,0,0,10.72-16.25c.6-1.31,5.7.89,5.7.89a40.24,40.24,0,0,0-3.36-4.31c-.76-.62-.09-2.25.76-2.68,2.36-1.21,10,2.5,10,2.5s-.61-2.57-6.89-9.83c-.68-.78-.44-3.36.4-3.91,1.18-.78,5.55.86,5.55.86s-3.18-4.89-3.77-5.28c-1.38-.92.37-24.4-1.71-34a50.84,50.84,0,0,0-5.65-11.55A66.56,66.56,0,0,0,552.65,325.76Z"/><path class="cls-2" d="M499.93,310.72c-22.36-37.12-68.8-45.12-89.66-48.71-14.34-2.47-107.54-16.64-143.91,42.07-32.64,52.7.68,131.61,53.14,167.15,6.44,4.36,56.19,36.94,109.59,17.71C498.3,464,533.54,366.5,499.93,310.72Z"/><path class="cls-3" d="M63.88,561.92c1.5-1.89-6-7.9-6-7.9s10.22,2.13,11.07,1.5.78-.48.86-1.36c.48-5-10.24-16.6-10.24-16.6s19.19,4,19.86,3.5a2.71,2.71,0,0,0,.8-2c-.14-2.09-6-4.4-6.83-4.7,1,.15,10.5.24,12.45-1.91,1.65-1.82,19.22-29.29,18.93-32.77-3.89-46.78-8.89-103.9,39.35-155.28,36-38.37,63.44-67.52,77.43-112.66,8.11-26.18,2.07-44.78,20-69.74,2.4-3.33,28.4-38.59,52.1-30.45,16.63,5.7,21.7,29.19,22.45,32.86l74.7,326c43.64-12,43.08-23.84,43-30.54-.09-7.66,12.61-61.44,25.52-67.05,17.86-7.76,44.07,20.71,50.22,44.29,7.12,27.29-7.27,59.55-24.29,77.76-9.1,9.74-18.18,15.23-18.18,22.78,0,10.48-2.66,15.31-2.66,15.31s-3-12.71-6.68-13.7c-2.72-.74-7.24,1.69-7.21,4.55.18,15.49.67,26,.67,26S443.71,553,438,551.68c-1.94-.44-5.12.51-4.62,2.46.57,2.2-2.28,17.33-2.28,17.33s-3.35-16-7-14.32C395.77,570,335.75,586,317.73,589c-16,2.68-170.07,171.89-189.76,204.65-54.7.49-137-74.42-126.29-158,0,0,6-6.1,19.77-22.22C40.37,591.36,60.33,566.4,63.88,561.92Z"/><path class="cls-3" d="M73.37,534.36c-.08,0-.11,0-.09,0Z"/><path class="cls-4" d="M261.5,428.27c3.67,9.4,7.86,24.45,3.69,40.66-10.35,40.24-65.35,60.72-66.11,59.54-.43-.65,16.19-7.47,32.44-26.28C253.17,477.12,259.5,447.76,261.5,428.27Z"/><path class="cls-5" d="M340.51,1.23S357-1.19,383,.76C413.83,3.06,481.8,7.55,503,11c13.86,2.28,33.67,13.66,26.14,50.34s-70,315.14-110.4,412.43c-8.79,21.16-20.29,33.75-52.16,29.12-17.46-2.54-104.06-23.37-138.06-34.58-9.15-3-19.16-12.69-16.22-35,1.64-12.41,11.78-45.42,11.78-45.42"/><path class="cls-6" d="M507.21,349.86c5.7-3.29,24-14.82,31.7-37.84,1.89-5.66,11.91-35.7-7.16-55.22-10.25-10.49-27.44-16.46-42.95-11.25-20,6.72-22,61.47-16.46,87"/><path class="cls-7" d="M346.33.81S459.82,10.64,500,14.14c12.77,1.11,23.16,9.12,20.35,28.78S449.17,368.48,411.69,474.48c-3.35,9.47-11.92,22.86-40,21.46S225.62,462.6,225.62,462.6s-19.65-7-11.23-37.9c9.86-36.13,102.47-395.82,102.47-395.82S325.28-.6,346.33.81Z"/><polygon class="cls-8" points="506.88 67.75 318.87 50.48 225.44 401.17 413.35 443.99 506.88 67.75"/><path class="cls-3" d="M239.78,260.55c10.83,2,4.66,63.46-6.05,104.35-12.73,48.62-39.3,88.88-51.22,78.41-17.27-15.16,6.9-134.92,28.69-168.19C213.07,272.25,236.76,260,239.78,260.55Z"/><path class="cls-9" d="M455.43,391.71c.14-21.09-4.64-21.69-4.28-38.8.37-17.41,17.19-40.35,43.69-34.63,23.94,5.17,32.69,30.63,32.94,31.78,2.08,9.61.34,33.09,1.71,34,.59.39,3.77,5.28,3.77,5.28s-4.37-1.64-5.54-.86c-.85.56-1.09,3.13-.41,3.91,6.28,7.27,6.89,9.83,6.89,9.83s-7.67-3.7-10-2.5c-.85.43-1.52,2.06-.76,2.68a40.24,40.24,0,0,1,3.36,4.31s-5.09-2.2-5.7-.89a97.75,97.75,0,0,1-10.71,16.25c-13.94,17.29-28.86,20.05-37,22.79l-34.92-28.45C443.16,411.09,455.37,401.84,455.43,391.71Z"/><path class="cls-3" d="M428.18,473.6c5.28-8.23-.12-21-.16-24.55-.08-7.66,13.74-61,26.64-66.62,17.86-7.76,45.12,21.07,51.27,44.64,3,11.4.43,24.09-3.54,36.75Z"/><polygon class="cls-10" points="350.35 292.27 259.47 276.72 233 375.78 323.99 394.7 350.35 292.27"/><polygon class="cls-10" points="401.44 93.75 310.83 84.52 285.41 179.65 376.16 191.98 401.44 93.75"/><polygon class="cls-11" points="447.22 308.86 350.35 292.27 323.99 394.7 421.05 414.88 447.22 308.86"/><polygon class="cls-8" points="420.97 414.87 233 375.78 225.75 402.93 413.79 443.94 420.97 414.87"/><polygon class="cls-8" points="503.59 80.2 316.68 62.61 310.83 84.52 497.82 103.57 503.59 80.2"/><polygon class="cls-11" points="376.16 191.98 285.41 179.65 259.47 276.72 350.35 292.27 376.16 191.98"/><polygon class="cls-10" points="472.83 205.12 376.16 191.98 350.35 292.27 447.22 308.86 472.83 205.12"/><polygon class="cls-11" points="497.9 103.58 401.44 93.75 376.16 191.98 472.83 205.12 497.9 103.58"/><polygon class="cls-12" points="316.71 62.53 503.69 80.12 506.88 67.24 319.94 50.44 316.71 62.53"/><g id="wireless-1" class="cls-13"><path class="cls-14" d="M422.57,68a2.11,2.11,0,0,1,1.49-.5,1.49,1.49,0,0,1,1.17.74l-1.71,1.38Zm-.44-.75a3.1,3.1,0,0,1,2.18-.73A2.19,2.19,0,0,1,426,67.58l1.05-.85a3.09,3.09,0,0,0-2.44-1.54,4.41,4.41,0,0,0-3.09,1Zm-1-1.74a5.37,5.37,0,0,1,3.78-1.26,3.8,3.8,0,0,1,3,1.88l1.08-.87a4.74,4.74,0,0,0-3.73-2.35,6.68,6.68,0,0,0-4.71,1.58Z"/></g><g id="battery-6"><path class="cls-14" d="M465.42,72.53l1.1-4.4,9,.82-1.1,4.42Zm-1.33,1,11.08,1L476.83,68l-11.08-1Zm.72-5-.39,0a.82.82,0,0,0-.83.63l-.49,1.92a.57.57,0,0,0,.49.75l.39,0Zm7.6,4.08,1.59.14.83-3.3-1.59-.15Zm-2.11-.2,1.58.15.83-3.31-1.58-.14Zm-2.11-.19,1.58.14.83-3.3L469,68.93Z"/></g><path class="cls-14" d="M482.86,69.87l-1.27.27-.06-.65,1.62-.38.66.06-1.31,5.26-.76-.07Z"/><path class="cls-14" d="M485.69,70.92l-.75-.06a2,2,0,0,1,2.26-1.45c.92.09,1.63.67,1.41,1.58a1.43,1.43,0,0,1-1,1.09c.46.15.73.6.55,1.32a2,2,0,0,1-2.3,1.42c-1.26-.11-1.69-.85-1.53-1.79l.74.07c-.09.58.18,1,1,1a1.15,1.15,0,0,0,1.37-.83c.15-.59-.17-.87-.78-.93l-.57-.05.16-.64.5,0a.92.92,0,0,0,1.12-.74c.12-.51-.27-.82-.82-.87A1.14,1.14,0,0,0,485.69,70.92Z"/><path class="cls-14" d="M489.93,71.69a.41.41,0,0,1,.37.56.59.59,0,0,1-.62.47.41.41,0,0,1-.37-.56A.6.6,0,0,1,489.93,71.69Zm-.58,2.36a.42.42,0,0,1,.37.56.61.61,0,0,1-.63.48.43.43,0,0,1-.37-.57A.6.6,0,0,1,489.35,74.05Z"/><path class="cls-14" d="M494.33,73.54l.82.07-.17.69-.82-.07-.31,1.25-.75-.07.31-1.25-2.77-.26.15-.6,3.66-3.15.71.07Zm-.75-.07.57-2.29-2.45,2.11Z"/><path class="cls-14" d="M500.17,73.37c-.41,1.69-1.5,2.64-2.77,2.53S495.55,74.67,496,73s1.49-2.64,2.77-2.52S500.59,71.69,500.17,73.37Zm-.78-.07c.31-1.28,0-2-.82-2.12s-1.5.6-1.82,1.88,0,2,.83,2.12S499.07,74.58,499.39,73.3Z"/><path class="cls-14" d="M325,54.63a1.75,1.75,0,0,1,1.7,2l-.71-.07a1.15,1.15,0,0,0-1.17-1.21,2.13,2.13,0,0,0-2.16,1.7c-.29,1.07.2,1.91,1.17,2a1.78,1.78,0,0,0,1.76-.95l.71.07a2.68,2.68,0,0,1-2.66,1.59A2,2,0,0,1,321.92,57,3.05,3.05,0,0,1,325,54.63Z"/><path class="cls-14" d="M329.82,58.29l-.51,1.91-.63-.06.46-1.72c.14-.52,0-.88-.48-.92a1,1,0,0,0-1,.81L327.22,60l-.63,0,1.33-5,.62.06-.6,2.25A1.28,1.28,0,0,1,329,56.9C329.7,57,330,57.52,329.82,58.29Z"/><path class="cls-14" d="M330.4,58.7a1.88,1.88,0,0,1,1.88-1.5c.85.07,1.24.84,1,1.73a2.14,2.14,0,0,1-.09.27L331,59a.71.71,0,0,0,.64.89.81.81,0,0,0,.84-.38l.6.05a1.61,1.61,0,0,1-1.62.91C330.58,60.39,330.15,59.64,330.4,58.7Zm.71-.2,1.6.15c.08-.53-.16-.84-.57-.88A1,1,0,0,0,331.11,58.5Z"/><path class="cls-14" d="M335.26,59.86c.06-.23,0-.34-.39-.46l-.27-.1c-.54-.17-.76-.48-.63-1a1.18,1.18,0,0,1,1.33-.83c.78.07,1,.51.88,1l-.57,0c0-.22-.09-.39-.44-.42a.5.5,0,0,0-.59.32c-.07.27.1.36.41.46l.26.09c.53.16.77.47.63,1a1.21,1.21,0,0,1-1.41.84c-.77-.07-1-.51-.94-1.05l.57.05c0,.25.14.42.51.45S335.19,60.12,335.26,59.86Z"/><path class="cls-14" d="M338,60.11c.06-.23,0-.34-.39-.46l-.27-.1c-.54-.17-.76-.48-.63-1a1.17,1.17,0,0,1,1.33-.83c.78.07,1,.51.88,1l-.57,0c0-.22-.09-.39-.44-.42a.5.5,0,0,0-.59.32c-.07.27.1.36.41.46l.26.09c.54.16.77.47.63,1a1.2,1.2,0,0,1-1.41.84c-.77-.07-1-.51-.94-1.05l.57.05c0,.25.14.42.51.46S337.9,60.37,338,60.11Z"/><path class="cls-14" d="M445.29,71l-.79-.07,3.29-4.28-2.65-.24.18-.7,3.49.32-.15.56Z"/><path class="cls-14" d="M451.4,69.85a.85.85,0,0,0-.86-1.12,1.91,1.91,0,0,0-1.07.19l-.58-.27.76-2.57,3.05.27-.18.7-2.37-.22-.43,1.43a2.26,2.26,0,0,1,1.1-.15,1.36,1.36,0,0,1,1.33,1.79,2.12,2.12,0,0,1-2.28,1.58c-1.19-.11-1.62-.86-1.45-1.75l.71.07c-.08.5.2.93.91,1A1.26,1.26,0,0,0,451.4,69.85Z"/><path class="cls-14" d="M456,68a1.62,1.62,0,0,1-1.66,1.26,1.11,1.11,0,0,1-.95-1.5A1.61,1.61,0,0,1,455,66.52,1.11,1.11,0,0,1,456,68Zm-.61-.06a.61.61,0,0,0-.5-.84.87.87,0,0,0-.89.72c-.11.45.08.81.49.84A.88.88,0,0,0,455.35,68Zm-1.68,3.8L458,66.84l.7.06-4.34,4.91Zm5.37-.86a1.61,1.61,0,0,1-1.65,1.25,1.11,1.11,0,0,1-1-1.49,1.62,1.62,0,0,1,1.66-1.26A1.11,1.11,0,0,1,459,70.89Zm-.61-.06c.11-.45-.09-.81-.5-.85a.89.89,0,0,0-.9.72.62.62,0,0,0,.51.85A.89.89,0,0,0,458.43,70.83Z"/><path class="cls-14" d="M406.49,65.43l.76.07-.17.67-.77-.07L406,67.32l-.71-.06L405.6,66,403,65.8l.15-.59,3.51-3.06.67.06Zm-.71-.06.57-2.22L404,65.2Z"/><path class="cls-14" d="M412.07,65.69l-1.61-.14.17-.68,2.33.22a3.06,3.06,0,0,1-.07.37,2.86,2.86,0,0,1-3,2.3,2.11,2.11,0,0,1-1.8-2.86,3.14,3.14,0,0,1,3.18-2.41,1.85,1.85,0,0,1,1.8,1.95l-.77-.07a1.18,1.18,0,0,0-1.21-1.15A2.21,2.21,0,0,0,408.8,65c-.28,1.11.23,2,1.25,2.07A1.91,1.91,0,0,0,412.07,65.69Z"/><path class="cls-14" d="M414.55,67.81l.3-1.2-1.12-.11.15-.6L415,66l.31-1.2.6,0-.31,1.21,1.13.1-.16.61-1.13-.11-.3,1.2Z"/><g class="cls-15"><polygon class="cls-14" points="438.11 70.79 439.49 70.92 441.27 63.93 439.88 63.8 438.11 70.79"/></g><polygon class="cls-14" points="435.92 70.59 437.31 70.72 438.67 65.37 437.28 65.25 435.92 70.59"/><polygon class="cls-14" points="436.18 66.76 434.8 66.64 433.84 70.4 435.22 70.52 436.18 66.76"/><polygon class="cls-14" points="433.71 68.07 432.33 67.94 431.76 70.2 433.14 70.33 433.71 68.07"/><path class="cls-11" d="M442.78,135.22a4.73,4.73,0,0,1-4.86,3.63,3.44,3.44,0,0,1-2.79-4.51,4.73,4.73,0,0,1,4.85-3.62A3.43,3.43,0,0,1,442.78,135.22Z"/><path class="cls-14" d="M356.11,424.77a6.14,6.14,0,0,1-.86-.12,5.64,5.64,0,0,1-2-.89,4.7,4.7,0,0,1-3.82.13l-1.22-.52,1.31-.48a3.54,3.54,0,0,0,1.7-1.56,7.56,7.56,0,0,1-.42-5.11c1-3.85,4.56-6.43,8-5.75h.07c3.48.74,5.51,4.52,4.52,8.43a8.18,8.18,0,0,1-2.21,3.86A6.75,6.75,0,0,1,356.11,424.77Zm-2.79-2.26.25.19a4.74,4.74,0,0,0,1.94.91,5.61,5.61,0,0,0,5-1.61,7,7,0,0,0,1.88-3.29c.84-3.33-.88-6.55-3.84-7.18s-6.08,1.6-6.91,4.89a6.38,6.38,0,0,0,.47,4.57l.13.24-.12.27a5.57,5.57,0,0,1-1.23,1.65,3.13,3.13,0,0,0,2.12-.45ZM358.7,411l0,.12Z"/><polygon class="cls-16" points="252.04 386.33 244.88 390.44 242.26 400.27 246.48 401.19 250.07 401.96 254.31 402.88 256.92 393 252.04 386.33"/><path class="cls-14" d="M391.51,428.26a3.09,3.09,0,0,1-.52-.07,3.42,3.42,0,0,1-2.31-1.76,4.62,4.62,0,0,1,1.45-5.82,3.51,3.51,0,0,1,5.24,1.11h0a4.39,4.39,0,0,1,.36,3.14,4.67,4.67,0,0,1-1.82,2.69A3.8,3.8,0,0,1,391.51,428.26Zm.89-7.3a2.85,2.85,0,0,0-1.79.54,3.43,3.43,0,0,0-1.08,4.32,2.59,2.59,0,0,0,1.72,1.32,2.79,2.79,0,0,0,2.18-.49,3.46,3.46,0,0,0,1.35-2,3.29,3.29,0,0,0-.27-2.34h0A2.57,2.57,0,0,0,392.4,421Z"/><path class="cls-14" d="M390.61,432.84l-.2,0-1.26-.28a1.39,1.39,0,0,1-1-1.56l.08-.83c-.15-.11-.29-.21-.43-.33l-.73.36a1.36,1.36,0,0,1-.86.11,1.29,1.29,0,0,1-.85-.65l-.64-1.19a1.67,1.67,0,0,1,.34-2l.59-.57c0-.2-.06-.41-.08-.61l-.7-.3a1.44,1.44,0,0,1-.76-1.74l.35-1.4a1.59,1.59,0,0,1,1.51-1.25l.74,0a6.18,6.18,0,0,1,.36-.53l-.27-.77a1.71,1.71,0,0,1,.63-1.92l1.15-.8a1.34,1.34,0,0,1,1.07-.24,1.24,1.24,0,0,1,.72.44l.47.6.58-.13.33-.8a1.51,1.51,0,0,1,1.66-1l1.26.26a1.37,1.37,0,0,1,1,1.55l-.07.82a4.2,4.2,0,0,1,.49.37l.72-.35a1.36,1.36,0,0,1,.86-.12,1.29,1.29,0,0,1,.86.65l.65,1.19a1.67,1.67,0,0,1-.34,2l-.6.58a6.18,6.18,0,0,1,.07.62l.7.29a1.44,1.44,0,0,1,.76,1.75l-.35,1.4a1.57,1.57,0,0,1-1.51,1.26l-.77,0c-.11.17-.23.35-.36.52l.27.77a1.72,1.72,0,0,1-.64,1.93l-1.15.8a1.34,1.34,0,0,1-1.07.24,1.28,1.28,0,0,1-.73-.45l-.48-.61a5.41,5.41,0,0,1-.58.12l-.32.79A1.55,1.55,0,0,1,390.61,432.84ZM388,428.58l.22.2a4,4,0,0,0,.77.58l.25.16L389.1,431a.41.41,0,0,0,.31.47l1.27.28a.43.43,0,0,0,.5-.3l.58-1.39.31,0a5.57,5.57,0,0,0,1-.22l.3-.1.86,1.08a.44.44,0,0,0,.22.14.4.4,0,0,0,.33-.07l1.15-.81a.52.52,0,0,0,.19-.58l-.47-1.36.21-.26a6.46,6.46,0,0,0,.62-.92l.16-.3,1.37,0a.47.47,0,0,0,.46-.38l.35-1.41a.44.44,0,0,0-.23-.53h0l-1.24-.52v-.33a6.38,6.38,0,0,0-.12-1.08l-.07-.32,1.07-1a.51.51,0,0,0,.1-.6l-.65-1.18a.37.37,0,0,0-.26-.2.34.34,0,0,0-.26,0l-1.29.62-.22-.2a4.85,4.85,0,0,0-.83-.62l-.26-.16.14-1.47a.42.42,0,0,0-.31-.48l-1.27-.26a.44.44,0,0,0-.5.3l-.59,1.4-.3,0a4.9,4.9,0,0,0-1,.23l-.3.1-.86-1.08a.41.41,0,0,0-.22-.13.36.36,0,0,0-.31.07l-1.15.81a.51.51,0,0,0-.2.58l.47,1.36-.21.26a6.67,6.67,0,0,0-.61.92l-.16.29-1.35,0a.48.48,0,0,0-.45.38l-.36,1.41a.44.44,0,0,0,.23.52l1.25.53v.33a6.49,6.49,0,0,0,.12,1.07l.07.32-1.06,1a.51.51,0,0,0-.1.59l.65,1.19a.34.34,0,0,0,.25.2.39.39,0,0,0,.26,0Z"/><path class="cls-16" d="M390.78,82.14l-2.84-.28c-.1.72.13,1.29,1.12,1.39a3.82,3.82,0,0,0,1.13-.12l0,.68a5,5,0,0,1-1.33.11,1.68,1.68,0,0,1-1.53-2.35,2.44,2.44,0,0,1,2.44-2c1.1.11,1.47,1,1.18,2.17A1.49,1.49,0,0,1,390.78,82.14Zm-.49-.66c.12-.64-.09-1.18-.77-1.25a1.38,1.38,0,0,0-1.4,1Z"/><path class="cls-16" d="M394.2,84.37l.11-.44a1.89,1.89,0,0,1-1.34.4,1.12,1.12,0,0,1-1.06-1.48,1.61,1.61,0,0,1,1.73-1.16,2.29,2.29,0,0,1,1.11.39l.06-.24c.18-.71,0-1.06-.75-1.13a2.85,2.85,0,0,0-1.07.1l.05-.68a4.33,4.33,0,0,1,1.29-.1c1.11.11,1.49.73,1.18,1.92l-.64,2.49Zm.38-1.63a1.56,1.56,0,0,0-1-.44.84.84,0,0,0-1,.62c-.12.46.13.75.71.8a1.47,1.47,0,0,0,1.11-.42Z"/><path class="cls-16" d="M397.58,84.79a1.83,1.83,0,0,1-1.25-.69l.52-.52a1.29,1.29,0,0,0,.86.57.69.69,0,0,0,.82-.53c.21-.82-1.66-.79-1.34-2a1.54,1.54,0,0,1,1.65-1.11,1.77,1.77,0,0,1,1,.51l-.47.55a1.22,1.22,0,0,0-.75-.43.65.65,0,0,0-.77.48c-.18.7,1.67.73,1.33,2A1.58,1.58,0,0,1,397.58,84.79Z"/><path class="cls-16" d="M400.55,87.2l-.73-.07,1.83-2.43L401,80.76l.82.08.42,3.11,2-2.88.79.08Z"/><path class="cls-17" d="M406.94,85.71a1.94,1.94,0,0,1-1.06-.42l-.61,2.38-.74-.07,1.63-6.33.7.06-.11.42a2.15,2.15,0,0,1,1.44-.37c1,.1,1.63,1.06,1.3,2.33A2.5,2.5,0,0,1,406.94,85.71Zm.95-3.68a1.75,1.75,0,0,0-1.28.38l-.53,2.06a1.22,1.22,0,0,0,1,.59,1.67,1.67,0,0,0,1.67-1.42C409,82.82,408.66,82.1,407.89,82Z"/><path class="cls-17" d="M412.24,80.89a.42.42,0,0,1-.34-.55.6.6,0,0,1,.6-.46.41.41,0,0,1,.34.55A.62.62,0,0,1,412.24,80.89Z"/><polygon class="cls-17" points="410.55 85.99 411.62 81.8 412.36 81.87 411.29 86.06 410.55 85.99"/><path class="cls-17" d="M415,86.51a1.78,1.78,0,0,1-1.58-2.37,2.6,2.6,0,0,1,2.69-2,2.2,2.2,0,0,1,1.24.57l-.46.57a1.78,1.78,0,0,0-1-.46,1.65,1.65,0,0,0-1.74,1.38,1.21,1.21,0,0,0,1,1.62,2.38,2.38,0,0,0,1.2-.24l.1.62A2.77,2.77,0,0,1,415,86.51Z"/><path class="cls-17" d="M420.23,87,419,84.7l-.53,2.07-.75-.07,1.88-7.33.74.07-1.27,5,2.15-1.69.92.09-2.41,1.78L421.15,87Z"/><path class="cls-14" d="M410.56,164.23l1.67-6.56,1.21.15-1.37,5.38,3.14.39-.3,1.19Z"/><path class="cls-14" d="M420.29,163.28a2.53,2.53,0,0,1-2.64,1.95,1.87,1.87,0,0,1-1.53-2.46,2.53,2.53,0,0,1,2.64-2A1.88,1.88,0,0,1,420.29,163.28Zm-1.12-.13c.17-.7-.13-1.22-.67-1.28a1.23,1.23,0,0,0-1.26,1c-.18.7.13,1.21.67,1.28A1.22,1.22,0,0,0,419.17,163.15Z"/><path class="cls-14" d="M423.5,163.36l1.17,2.64-1.3-.17-.8-1.82-.5.36-.32,1.26-1.08-.13,1.66-6.59,1.09.13-1,4,1.9-1.37,1.39.17Z"/><path class="cls-14" d="M427.8,161.93a1.3,1.3,0,0,1,1.07.74l.12-.47,1.06.13L429,166.54l-1.06-.14.12-.47a1.71,1.71,0,0,1-2.69-2A2.42,2.42,0,0,1,427.8,161.93Zm-.66,3.42a1.25,1.25,0,0,0,1.29-1c.18-.71-.12-1.24-.69-1.31a1.25,1.25,0,0,0-1.25,1.06C426.31,164.76,426.61,165.29,427.14,165.35Z"/><path class="cls-14" d="M432.34,165.72c.06-.26,0-.37-.49-.52l-.33-.12a1.12,1.12,0,0,1-.89-1.45,1.59,1.59,0,0,1,1.87-1.11c1.14.14,1.41.81,1.29,1.53l-1-.13c0-.25-.12-.43-.45-.47s-.57.06-.63.3.14.41.54.53l.33.1a1.1,1.1,0,0,1,.85,1.45,1.62,1.62,0,0,1-2,1.12c-1.07-.13-1.46-.8-1.33-1.57l1,.13c0,.29.18.48.55.52S432.27,166,432.34,165.72Z"/><path class="cls-14" d="M435,162.94l1.1.14-1.18,4.68c-.25,1-.79,1.59-1.76,1.47a2.83,2.83,0,0,1-.61-.16l.26-1a1.3,1.3,0,0,0,.33.07c.38,0,.59-.13.71-.62Zm1.07-2a.59.59,0,0,1,.49.79.81.81,0,0,1-.85.64.6.6,0,0,1-.48-.81A.78.78,0,0,1,436.09,160.93Z"/><path class="cls-14" d="M440.72,165.83a2.53,2.53,0,0,1-2.67,1.95,1.89,1.89,0,0,1-1.55-2.48,2.56,2.56,0,0,1,2.67-2A1.91,1.91,0,0,1,440.72,165.83Zm-1.13-.15c.17-.7-.14-1.22-.69-1.29a1.25,1.25,0,0,0-1.27,1.05c-.17.7.14,1.22.69,1.28A1.23,1.23,0,0,0,439.59,165.68Z"/><path class="cls-14" d="M445.65,165.94l-.65,2.6-1.11-.14.58-2.3c.15-.59,0-1-.56-1.07a1.05,1.05,0,0,0-1.13.91l-.56,2.25-1.11-.14,1.06-4.22,1.06.13-.12.5a1.74,1.74,0,0,1,1.42-.46C445.49,164.12,445.91,164.91,445.65,165.94Z"/><path class="cls-14" d="M446.41,166.53a2.54,2.54,0,0,1,2.62-2,1.86,1.86,0,0,1,1.51,2.43,3.31,3.31,0,0,1-.14.44l-2.95-.37a.88.88,0,0,0,.78,1,.89.89,0,0,0,.94-.39l1.07.13a2.15,2.15,0,0,1-2.32,1.22A1.87,1.87,0,0,1,446.41,166.53Zm1.24-.26,1.86.24a.81.81,0,0,0-.68-1A1.16,1.16,0,0,0,447.65,166.27Z"/><path class="cls-14" d="M454.3,166.45l-.39-.07a1.34,1.34,0,0,0-1.44,1.17l-.47,1.86-1.11-.13L452,165l1.07.14-.17.65a1.59,1.59,0,0,1,1.42-.54,1.21,1.21,0,0,1,.3.07Z"/><path class="cls-14" d="M300.75,250.73c.11-.43-.08-.73-.74-1l-.6-.26a1.68,1.68,0,0,1-1.24-2.16,2.14,2.14,0,0,1,2.64-1.56,1.77,1.77,0,0,1,1.7,2.17l-1.11-.17c0-.46-.29-.77-.88-.86s-1.07.09-1.2.6.15.73.82,1l.62.25a1.59,1.59,0,0,1,1.16,2.09,2.24,2.24,0,0,1-2.78,1.66c-1.38-.23-2.06-1.09-1.83-2.31l1.11.17c-.08.52.29.88,1,1S300.62,251.23,300.75,250.73Z"/><path class="cls-14" d="M302.72,251.28l.67-2.55,1,.17-.58,2.24c-.16.6,0,1,.47,1.09s.91-.28,1.07-.88l.58-2.21,1,.17-1.09,4.15-1-.16.12-.49a1.5,1.5,0,0,1-1.32.41C302.81,253.07,302.46,252.28,302.72,251.28Z"/><path class="cls-14" d="M309,254.07a1.21,1.21,0,0,1-1-.7l-.64,2.44-1-.17,1.63-6.17,1,.16-.12.47a1.55,1.55,0,0,1,1.3-.4c1,.16,1.52,1.24,1.2,2.48A2.26,2.26,0,0,1,309,254.07Zm.7-3.37a1.15,1.15,0,0,0-1.23,1c-.19.71.09,1.23.62,1.31s1-.31,1.21-1S310.25,250.78,309.74,250.7Z"/><path class="cls-14" d="M313.81,254.84a1.23,1.23,0,0,1-1-.7l-.64,2.44-1-.17,1.62-6.18,1,.16-.12.47a1.55,1.55,0,0,1,1.3-.4c1,.16,1.53,1.24,1.21,2.48A2.28,2.28,0,0,1,313.81,254.84Zm.71-3.38a1.16,1.16,0,0,0-1.24,1c-.19.71.09,1.23.62,1.32s1-.31,1.21-1S315,251.54,314.52,251.46Z"/><path class="cls-14" d="M320.82,253.68a2.41,2.41,0,0,1-2.57,1.87,1.9,1.9,0,0,1-1.41-2.51,2.41,2.41,0,0,1,2.56-1.88A1.91,1.91,0,0,1,320.82,253.68Zm-1.07-.17c.18-.7-.11-1.22-.62-1.3a1.17,1.17,0,0,0-1.22,1c-.18.7.1,1.22.62,1.3A1.18,1.18,0,0,0,319.75,253.51Z"/><path class="cls-14" d="M324.39,253.19l-.36-.07c-.67-.11-1.18.36-1.38,1.11l-.48,1.84-1-.16,1.09-4.18,1,.16-.17.64a1.44,1.44,0,0,1,1.35-.5,1.36,1.36,0,0,1,.28.08Z"/><path class="cls-14" d="M325.84,252.3l.33-1.26,1,.16-.33,1.26,1.22.2-.27,1-1.21-.2-.4,1.52c-.14.52,0,.71.48.79a2.08,2.08,0,0,0,.61,0l-.26,1a2.68,2.68,0,0,1-.85,0c-.89-.14-1.38-.6-1.07-1.78l.44-1.7-.68-.11.27-1Z"/><path class="cls-14" d="M318.34,219.24h-.1c-5.17-.71-10.56,3.35-12.08,9.12a10.63,10.63,0,0,0,.77,7.82,7.38,7.38,0,0,1-3.48,3.52,7,7,0,0,0,5.94-.72,8,8,0,0,0,3.41,1.37,10.45,10.45,0,0,0,8.88-3.27,12.94,12.94,0,0,0,3.36-5.86C326.57,225.37,323.56,220,318.34,219.24ZM310,230.45a1.25,1.25,0,0,1-.92-1.66,1.6,1.6,0,0,1,1.68-1.25,1.24,1.24,0,0,1,.92,1.65A1.63,1.63,0,0,1,310,230.45Zm5.18.78a1.25,1.25,0,0,1-.92-1.65,1.62,1.62,0,0,1,1.69-1.26,1.26,1.26,0,0,1,.92,1.66A1.61,1.61,0,0,1,315.19,231.23Zm4.9.75a1.25,1.25,0,0,1-.92-1.66,1.62,1.62,0,0,1,1.69-1.26,1.25,1.25,0,0,1,.92,1.66A1.61,1.61,0,0,1,320.09,232Z"/><path class="cls-14" d="M329.54,234.86a12.94,12.94,0,0,0,4.72-7.05c1.52-5.85-1.51-11.22-6.76-12a10.27,10.27,0,0,0-7.87,2.41c5.34,1.17,8.36,6.86,6.74,13a14.25,14.25,0,0,1-3.09,5.8,9.61,9.61,0,0,0,2.55-.34c1.54,2.57,5.18,2.45,5.18,2.45A5.74,5.74,0,0,1,329.54,234.86Z"/><path class="cls-14" d="M389.14,262.1l-1.26,5-.92-.15,1.71-6.72.9.14,1.28,4.78,3.52-4,.89.14-1.7,6.74-.94-.15,1.27-5-3,3.44-.69-.12Z"/><path class="cls-14" d="M395.88,268.37l-.85-.13L396.1,264l.85.14ZM397,262.1a.49.49,0,0,1,.39.67.61.61,0,0,1-.68.5.49.49,0,0,1-.38-.67A.61.61,0,0,1,397,262.1Z"/><path class="cls-14" d="M401.52,266.58l-.65,2.59L400,269l.59-2.34c.18-.71,0-1.22-.67-1.32a1.23,1.23,0,0,0-1.34,1.05l-.58,2.29-.84-.14,1.07-4.23.82.13-.15.58a1.68,1.68,0,0,1,1.47-.48A1.46,1.46,0,0,1,401.52,266.58Z"/><path class="cls-14" d="M406.35,270.15a1.46,1.46,0,0,1-1.13-.83l-.66,2.62-.85-.14,1.6-6.33.83.13-.15.58a1.77,1.77,0,0,1,1.49-.47,1.9,1.9,0,0,1,1.37,2.53A2.33,2.33,0,0,1,406.35,270.15Zm.81-3.63a1.43,1.43,0,0,0-1.54,1.21,1.18,1.18,0,0,0,.83,1.59A1.44,1.44,0,0,0,408,268.1C408.18,267.27,407.83,266.62,407.16,266.52Z"/><path class="cls-14" d="M412.64,267.53a1.42,1.42,0,0,0-.34-.08c-.81-.13-1.35.38-1.57,1.23l-.5,2-.85-.14,1.07-4.25.83.13-.19.72a1.56,1.56,0,0,1,1.48-.56,1.3,1.3,0,0,1,.29.08Z"/><path class="cls-14" d="M417,269.54a2.44,2.44,0,0,1-2.63,1.9,2,2,0,0,1-1.51-2.56,2.43,2.43,0,0,1,2.63-1.9A2,2,0,0,1,417,269.54Zm-.89-.14a1.17,1.17,0,0,0-.83-1.59A1.45,1.45,0,0,0,413.7,269a1.17,1.17,0,0,0,.84,1.58A1.43,1.43,0,0,0,416.07,269.4Z"/><path class="cls-14" d="M418.91,267.63l.17-.7c.32-1.27,1-1.82,2-1.66a2.41,2.41,0,0,1,.67.21l-.2.79a3.81,3.81,0,0,0-.51-.12c-.59-.09-.89.24-1.09,1l-.15.59L421,268l-.21.83-1.22-.2-.87,3.44-.85-.13.86-3.44-.72-.12.21-.82Z"/><path class="cls-14" d="M421.68,272.52l-.86-.14,1.07-4.27.86.13Zm1.14-6.33a.5.5,0,0,1,.4.67.61.61,0,0,1-.69.5.5.5,0,0,1-.4-.67A.62.62,0,0,1,422.82,266.19Z"/><path class="cls-14" d="M423.84,272.86l-.86-.14,1.7-6.79.87.13Z"/><path class="cls-14" d="M413.08,243.86c-6-.9-12.09,3.09-14.54,9.15a1.56,1.56,0,0,0,1.08,2.23l20.46,3.2a2,2,0,0,0,2.11-1.76C422.86,250.3,419.08,244.77,413.08,243.86Z"/><path class="cls-14" d="M416.73,229.39c-3.37-.49-6.85,2.06-7.77,5.71s1.06,7,4.44,7.52,6.87-2,7.79-5.7S420.11,229.89,416.73,229.39Zm1.92,10.36a6.73,6.73,0,0,1-4.93,1.31,5.43,5.43,0,0,1-3.91-2.64.88.88,0,0,1,.28-1.11.68.68,0,0,1,1,.15c1.36,2.3,4.39,2.75,6.77,1a.71.71,0,0,1,1,.16A.88.88,0,0,1,418.65,239.75Z"/><path class="cls-14" d="M265.11,352.61l-1.14-.23,1.75-6.62,1.14.23Z"/><path class="cls-14" d="M270.55,351l-.68,2.6-1-.2.61-2.3c.16-.6,0-1-.49-1.12s-.91.25-1.07.86l-.6,2.25-1-.2,1.12-4.22,1,.19-.13.5a1.48,1.48,0,0,1,1.33-.39C270.46,349.1,270.82,349.93,270.55,351Z"/><path class="cls-14" d="M275.17,351.86l-.69,2.6-1-.2.6-2.3c.16-.6,0-1-.48-1.13s-.92.25-1.08.87l-.6,2.25-1-.2,1.12-4.23,1,.19-.13.5a1.48,1.48,0,0,1,1.33-.39C275.08,350,275.44,350.83,275.17,351.86Z"/><path class="cls-14" d="M277.62,353.81c.07-.26,0-.37-.45-.56l-.3-.14a1.19,1.19,0,0,1-.8-1.53,1.43,1.43,0,0,1,1.79-1,1.28,1.28,0,0,1,1.17,1.63l-.93-.19c0-.25-.11-.45-.42-.51s-.53,0-.59.27.11.43.48.58l.31.12a1.17,1.17,0,0,1,.77,1.53,1.48,1.48,0,0,1-1.91,1,1.36,1.36,0,0,1-1.21-1.68l1,.18c-.06.3.14.5.49.57S277.55,354.09,277.62,353.81Z"/><path class="cls-14" d="M280.51,351.19l.34-1.29,1,.2-.34,1.28,1.21.24-.28,1-1.2-.23-.41,1.53c-.14.53,0,.74.47.82a2.08,2.08,0,0,0,.6,0l-.26,1a3.1,3.1,0,0,1-.85,0c-.87-.18-1.35-.66-1-1.86l.46-1.72-.67-.14.27-1Z"/><path class="cls-14" d="M283.5,356.24l-1-.2,1.12-4.25,1,.2Zm1.15-6.45a.63.63,0,0,1,.44.84.72.72,0,0,1-.82.6.62.62,0,0,1-.43-.84A.73.73,0,0,1,284.65,349.79Z"/><path class="cls-14" d="M285.56,356.65l-1-.21,1.75-6.67,1,.2Z"/><path class="cls-14" d="M287.66,357.06l-1-.2,1.75-6.68,1,.2Z"/><path class="cls-14" d="M289.74,357.47l-1-.2,1.12-4.26,1,.2Zm1.14-6.46a.62.62,0,0,1,.44.84.72.72,0,0,1-.81.6.63.63,0,0,1-.44-.85A.72.72,0,0,1,290.88,351Z"/><path class="cls-14" d="M295.14,355.78l-.69,2.62-1-.2.61-2.32c.16-.6,0-1-.5-1.13s-.93.25-1.09.87l-.59,2.27-1-.21,1.12-4.26,1,.2-.13.5a1.53,1.53,0,0,1,1.35-.39C295,353.91,295.41,354.75,295.14,355.78Z"/><path class="cls-14" d="M298.4,358.55a1.52,1.52,0,0,1-1.32.36,1.9,1.9,0,0,1-1.22-2.54,2.21,2.21,0,0,1,2.36-1.84,1.35,1.35,0,0,1,1,.83l.13-.48,1,.19-1.1,4.22a2.09,2.09,0,0,1-2.49,1.71,1.67,1.67,0,0,1-1.47-2l1,.21c-.05.36.14.64.69.75s1-.16,1.26-1Zm-.27-2.93a1.15,1.15,0,0,0-1.22,1,1,1,0,0,0,.62,1.33,1.14,1.14,0,0,0,1.25-1A1,1,0,0,0,298.13,355.62Z"/><path class="cls-14" d="M300.67,357.38a2.3,2.3,0,0,1,2.52-1.87,2,2,0,0,1,1.36,2.57,2.29,2.29,0,0,1-.14.44l-2.77-.55a.92.92,0,0,0,.7,1.07.81.81,0,0,0,.91-.34l1,.19A1.93,1.93,0,0,1,302,360,2,2,0,0,1,300.67,357.38Zm1.17-.19,1.76.34a.87.87,0,0,0-.62-1A1.06,1.06,0,0,0,301.84,357.19Z"/><path class="cls-14" d="M308.13,357.76a3.35,3.35,0,0,0-.37-.09c-.67-.13-1.19.33-1.39,1.11l-.49,1.88-1.05-.21,1.12-4.28,1,.2-.17.66a1.4,1.4,0,0,1,1.36-.47,1.2,1.2,0,0,1,.28.08Z"/><path class="cls-14" d="M298.57,345.53l-20.12-3.88c-3.18-.61-5-4.07-4-7.7l.05-.18c1-3.63,4.32-6.1,7.5-5.5l20.11,3.78c3.23.6,5.08,4.09,4.13,7.76l-.05.18C305.21,343.66,301.8,346.15,298.57,345.53Zm-16.9-16.08c-2.61-.49-5.37,1.54-6.16,4.52l0,.18c-.79,3,.69,5.81,3.29,6.31l20.12,3.87c2.65.51,5.45-1.53,6.24-4.54l0-.18c.79-3-.73-5.87-3.38-6.37Z"/><path class="cls-14" d="M303.06,339.13a3.72,3.72,0,0,1-4,2.94,3.17,3.17,0,0,1-2.18-4.13,3.71,3.71,0,0,1,4-2.93A3.16,3.16,0,0,1,303.06,339.13Z"/><path class="cls-14" d="M306.24,318.34l-21.08-3.85c-2.89-.53-6,1.73-6.82,5s.78,6.43,3.66,7l21.08,3.94c2.94.55,6.05-1.72,6.92-5.05S309.17,318.88,306.24,318.34Zm-23,6c-1.69-.31-2.64-2.13-2.13-4.06a3.7,3.7,0,0,1,4-2.93c1.69.31,2.65,2.13,2.14,4.06A3.7,3.7,0,0,1,283.28,324.29Z"/><path class="cls-14" d="M364.6,371l1.74-6.87,1.23.24L366.14,370l3.16.62-.31,1.23Z"/><path class="cls-14" d="M374.43,370.62a2.4,2.4,0,0,1-2.68,1.89,2.1,2.1,0,0,1-1.52-2.71,2.4,2.4,0,0,1,2.68-1.9A2.11,2.11,0,0,1,374.43,370.62Zm-1.13-.22c.19-.73-.12-1.29-.66-1.4a1.16,1.16,0,0,0-1.28,1c-.19.73.12,1.29.66,1.4A1.16,1.16,0,0,0,373.3,370.4Z"/><path class="cls-14" d="M377.86,373a1.62,1.62,0,0,1-1.39.37,2,2,0,0,1-1.32-2.62,2.25,2.25,0,0,1,2.46-1.88,1.44,1.44,0,0,1,1.07.85l.12-.5,1.07.21-1.1,4.34a2.16,2.16,0,0,1-2.59,1.76,1.76,1.76,0,0,1-1.57-2l1.08.21c-.05.38.16.66.73.78s1.1-.16,1.32-1Zm-.33-3a1.18,1.18,0,0,0-1.27,1,1,1,0,0,0,.67,1.37,1.17,1.17,0,0,0,1.3-1A1,1,0,0,0,377.53,369.93Z"/><path class="cls-14" d="M383,374a1.59,1.59,0,0,1-1.39.37,2,2,0,0,1-1.33-2.62,2.27,2.27,0,0,1,2.46-1.89,1.46,1.46,0,0,1,1.08.85l.12-.49,1.07.21-1.09,4.35a2.16,2.16,0,0,1-2.6,1.75,1.76,1.76,0,0,1-1.58-2l1.08.22c0,.37.16.66.74.77s1.11-.15,1.32-1Zm-.33-3a1.16,1.16,0,0,0-1.27,1,1,1,0,0,0,.67,1.38,1.18,1.18,0,0,0,1.3-1A1,1,0,0,0,382.63,370.93Z"/><path class="cls-14" d="M387.42,373.7l.68-2.71,1.11.22-.6,2.39c-.15.63,0,1.08.53,1.18s1-.26,1.15-.9l.58-2.35,1.12.22-1.11,4.42L389.8,376l.13-.52a1.57,1.57,0,0,1-1.41.38C387.55,375.63,387.16,374.76,387.42,373.7Z"/><path class="cls-14" d="M393.55,372.06l.34-1.34,1.08.21-.34,1.34,1.3.25-.27,1.08-1.3-.25-.4,1.59c-.14.56,0,.77.52.87a2.42,2.42,0,0,0,.65,0l-.27,1.06a3.12,3.12,0,0,1-.9,0c-.95-.19-1.48-.7-1.16-1.95l.45-1.79-.73-.14.27-1.08Z"/><path class="cls-14" d="M389.7,332.34c-7-1.27-14.2,3.93-16.15,11.62s2.1,15.05,9.08,16.39,14.32-3.86,16.27-11.64S396.71,333.62,389.7,332.34Zm-1.92,4.55a.72.72,0,0,1,.86-.43.6.6,0,0,1,.56.69l-2,8a.72.72,0,0,1-.86.43.6.6,0,0,1-.56-.69Zm-3.27,16.18c-3.35-.63-5.32-4.17-4.38-7.87a7.61,7.61,0,0,1,4.67-5.32l.26,1.18a6.23,6.23,0,0,0-3.82,4.34c-.77,3,.84,5.92,3.58,6.44s5.62-1.53,6.39-4.57a5.41,5.41,0,0,0-1.43-5.36l.8-1a6.61,6.61,0,0,1,1.74,6.56C391.39,351.2,387.88,353.71,384.51,353.07Z"/><path class="cls-14" d="M319,148.42l-1.13,4.28-1.12-.14,1.68-6.36,1.11.14,1,4.18,3.11-3.67,1.09.13-1.68,6.37-1.13-.14,1.12-4.25-2.44,2.91-.85-.1Z"/><path class="cls-14" d="M325.32,153.63l-1-.13,1.07-4.06,1,.13Zm1.09-6.13a.55.55,0,0,1,.44.76.76.76,0,0,1-.8.62.56.56,0,0,1-.44-.77A.78.78,0,0,1,326.41,147.5Z"/><path class="cls-14" d="M330.63,151.71l-.66,2.5-1-.13.58-2.21c.15-.57,0-1-.5-1a1,1,0,0,0-1.06.89l-.57,2.16-1-.13,1.07-4.06,1,.12-.13.48a1.62,1.62,0,0,1,1.33-.45C330.52,150,330.89,150.73,330.63,151.71Z"/><path class="cls-14" d="M331.33,152.28a2.41,2.41,0,0,1,2.46-1.91,1.73,1.73,0,0,1,1.35,2.32,2.28,2.28,0,0,1-.14.42l-2.72-.34a.81.81,0,0,0,.7,1,.84.84,0,0,0,.88-.38l1,.12a2,2,0,0,1-2.18,1.18A1.74,1.74,0,0,1,331.33,152.28Zm1.15-.26,1.72.22a.77.77,0,0,0-.61-.93A1.12,1.12,0,0,0,332.48,152Z"/><path class="cls-14" d="M341.6,153.07l-.65,2.51-1-.13.58-2.21c.15-.58,0-1-.51-1a1,1,0,0,0-1.07.89l-.57,2.17-1-.13,1.07-4.08,1,.13-.13.48a1.63,1.63,0,0,1,1.34-.45C341.49,151.32,341.86,152.09,341.6,153.07Z"/><path class="cls-14" d="M345.88,152.24l.33-.26.34.51-.34.28a2.11,2.11,0,0,1,.07,1.37,2.47,2.47,0,0,1-2.54,1.9,1.67,1.67,0,0,1-1-.49l-.35.27-.34-.53.34-.26a2.16,2.16,0,0,1-.07-1.39,2.47,2.47,0,0,1,2.55-1.9A1.68,1.68,0,0,1,345.88,152.24Zm-2.55,2.09L345,153a.74.74,0,0,0-.43-.22,1.21,1.21,0,0,0-1.22,1A1.54,1.54,0,0,0,343.33,154.33Zm1.89-.33a1.42,1.42,0,0,0,0-.53l-1.69,1.35a.72.72,0,0,0,.43.2A1.21,1.21,0,0,0,345.22,154Z"/><path class="cls-14" d="M349.35,154.21l1.08,2.56-1.23-.16-.74-1.77-.48.35-.32,1.23-1-.13,1.68-6.42,1,.13-1,3.84,1.83-1.33,1.32.16Z"/><path class="cls-14" d="M352.06,157l-1-.13,1.68-6.43,1,.13Z"/><path class="cls-14" d="M353.46,155a2.44,2.44,0,0,1,2.5-1.92,1.76,1.76,0,0,1,1.38,2.34c0,.17-.1.32-.14.43l-2.77-.35a.83.83,0,0,0,.72,1,.85.85,0,0,0,.89-.38l1,.13a2.09,2.09,0,0,1-2.21,1.19A1.78,1.78,0,0,1,353.46,155Zm1.17-.25,1.75.21a.77.77,0,0,0-.63-.93A1.11,1.11,0,0,0,354.63,154.78Z"/><path class="cls-14" d="M360.89,154.92l-.37-.06a1.3,1.3,0,0,0-1.37,1.13l-.47,1.81-1-.13,1.07-4.11,1,.13-.17.63a1.49,1.49,0,0,1,1.35-.52.9.9,0,0,1,.28.06Z"/><path class="cls-14" d="M322.81,418.21l-2.45-.53-.65-1,.35-1.05-.93-.09-.43-.82.45-1.05-1.33-.1.39-1.78-1.32-2.4a3.91,3.91,0,0,1-4.42-2,5.22,5.22,0,0,1-.48-3.26,5.78,5.78,0,0,1,.12-.57,5.63,5.63,0,0,1,2.11-3.11,4.4,4.4,0,0,1,2.66-.9l.49,0a4,4,0,0,1,3,2.1,5.47,5.47,0,0,1-.46,5.63l4.27,8,0,2.05ZM321,416.72l1.75.38.47-.33v-1.15l-4.47-8.37.24-.31a4.41,4.41,0,0,0,.55-4.7,3.12,3.12,0,0,0-2.32-1.66l-.42,0a3.63,3.63,0,0,0-2.1.71,4.52,4.52,0,0,0-1.66,2.46,3.78,3.78,0,0,0-.1.46,4.11,4.11,0,0,0,.38,2.58,3.1,3.1,0,0,0,3.76,1.53l.33-.1,1.83,3.34L319,412.6l1.58.13-.78,1.81,1.57.15-.58,1.74Zm-5.74-12.44a1.17,1.17,0,0,1-.62-.2,1.33,1.33,0,0,1-.43-.48,1.84,1.84,0,0,1,.56-2.24,1.33,1.33,0,0,1,1.71.06,1.87,1.87,0,0,1,.37.65h0a1.83,1.83,0,0,1-.68,1.92A1.37,1.37,0,0,1,315.22,404.28Zm.3-2.16a.5.5,0,0,0-.34.1.64.64,0,0,0-.21.75.5.5,0,0,0,.17.2.47.47,0,0,0,.53,0,.63.63,0,0,0,.24-.67.8.8,0,0,0-.16-.26A.32.32,0,0,0,315.52,402.12Z"/><line class="cls-14" x1="429.44" y1="151.98" x2="440.21" y2="153.28"/><path class="cls-14" d="M440,153.92l-10.76-1.3a.62.62,0,0,1-.6-.73.84.84,0,0,1,.92-.55l10.77,1.3a.61.61,0,0,1,.59.73A.83.83,0,0,1,440,153.92Z"/><path class="cls-14" d="M441.56,125.79c-4.41-.49-9.35,2.86-10.54,7.53s1.58,8.55,4.31,17.16c6.81-7.49,11.35-10.54,12.53-15.24A7.46,7.46,0,0,0,441.56,125.79Zm-3.28,13.1a3.44,3.44,0,0,1-2.8-4.51,4.74,4.74,0,0,1,4.85-3.62,3.43,3.43,0,0,1,2.81,4.5A4.73,4.73,0,0,1,438.28,138.89Z"/><g id="location-1"><path class="cls-14" d="M282.26,409.62l-.56-2.18c-1.13-4.37-1.95-7.53-1.29-10a6,6,0,0,1,2.43-3.41,4.67,4.67,0,0,1,7.14,5.44c-.65,2.52-3,5-6.12,8.46Zm3.51-15.51a4.19,4.19,0,0,0-2.52.75,4.74,4.74,0,0,0-2,2.73c-.58,2.22.21,5.26,1.3,9.47l.17.66.49-.54c3.06-3.32,5.27-5.71,5.85-7.93a4.07,4.07,0,0,0-2.8-5.07h0A3.07,3.07,0,0,0,285.77,394.11Zm-1,7-.3,0h0a2.18,2.18,0,0,1-1.44-2.82,2.74,2.74,0,0,1,1-1.56,2.13,2.13,0,0,1,1.65-.39,1.88,1.88,0,0,1,1.28,1,2.62,2.62,0,0,1,.17,1.82,2.81,2.81,0,0,1-1.05,1.55A2.17,2.17,0,0,1,284.8,401.09Zm.51-3.81a1.19,1.19,0,0,0-.77.24,1.58,1.58,0,0,0-.6.89,1.25,1.25,0,0,0,.83,1.62h0a1.13,1.13,0,0,0,.94-.22,1.6,1.6,0,0,0,.61-.89,1.47,1.47,0,0,0-.1-1,1.08,1.08,0,0,0-.74-.58Z"/></g><path class="cls-18" d="M339.37,125.73a1,1,0,0,0-1,.71l0,.1a.68.68,0,0,0,.51.92l1.72.24a7.34,7.34,0,0,1-.23-1.83Z"/><path class="cls-18" d="M342.36,127a.73.73,0,0,0-.22-.79,5.33,5.33,0,0,0,.19.9h0Z"/><path class="cls-18" d="M334.69,130.93c-2,2.36-2,5.66-.12,7.37a4,4,0,0,0,2.18,1,5.63,5.63,0,0,0,4.86-2.15,5.7,5.7,0,0,0,.83-6.51,5.36,5.36,0,0,1-1-1.05C339.56,128.1,336.58,128.68,334.69,130.93Zm6.16,5.53c-1.54,1.84-4,2.26-5.51.91s-1.44-3.92.1-5.77a4.4,4.4,0,0,1,3.79-1.68,3,3,0,0,1,1.71.76C342.44,132,342.4,134.61,340.85,136.46Z"/><path class="cls-14" d="M335.44,131.6c-1.54,1.85-1.59,4.43-.1,5.77s4,.93,5.51-.91,1.59-4.44.09-5.78a3,3,0,0,0-1.71-.76A4.4,4.4,0,0,0,335.44,131.6Z"/><path class="cls-14" d="M342.14,126.2a.73.73,0,0,1,.22.79l0,.1h0a4.89,4.89,0,0,0,.3.75,4.07,4.07,0,0,0,2,1.89c-.15-.61-.31-1.19-.45-1.71-.4-1.52-.83-3-2-3.75v0A5.82,5.82,0,0,0,342.14,126.2Z"/><path class="cls-10" d="M341.85,126.07l-1.47-.2a7.34,7.34,0,0,0,.23,1.83l.76.11a1,1,0,0,0,1-.71,5.33,5.33,0,0,1-.19-.9A.51.51,0,0,0,341.85,126.07Z"/><path class="cls-10" d="M341.72,129.75l-.24-.18a5.36,5.36,0,0,0,1,1.05A4.56,4.56,0,0,0,341.72,129.75Z"/><path class="cls-10" d="M342.24,124.28c.05-.2.11-.41.17-.61a6.92,6.92,0,0,1,2.58-3.48l-.76-1.47a9.15,9.15,0,0,0-3.44,4.63c-.05.16-.09.31-.13.47a2,2,0,0,1,.35,0A2.86,2.86,0,0,1,342.24,124.28Z"/><path class="cls-14" d="M340,125a3.87,3.87,0,0,1-.55-.25c-2.24-1.22-2.78-4.34-1.21-7a6.29,6.29,0,0,1,3.2-2.73,4.46,4.46,0,0,1,3.71.15,4.07,4.07,0,0,1,2.06,3,5.94,5.94,0,0,1-.82,4,6.37,6.37,0,0,1-3.22,2.73,5,5,0,0,1-1.54.32l.13-1.14a3.85,3.85,0,0,0,1.22-.25,5,5,0,0,0,2.52-2.14,4.57,4.57,0,0,0,.64-3.16,3.17,3.17,0,0,0-1.6-2.31,3.34,3.34,0,0,0-1.16-.36,3.85,3.85,0,0,0-1.75.24,5,5,0,0,0-2.51,2.13,4.62,4.62,0,0,0-.65,3.15,3.19,3.19,0,0,0,1.6,2.32,2.41,2.41,0,0,0,.33.15Z"/><path class="cls-14" d="M341.61,137.13a5.63,5.63,0,0,1-4.86,2.15,4,4,0,0,1-2.18-1c-1.9-1.71-1.85-5,.12-7.37s4.87-2.83,6.79-1.36a6.89,6.89,0,0,1-.4-.64,6.26,6.26,0,0,1-.47-1.23l-1.72-.24a.68.68,0,0,1-.51-.92l0-.1a1,1,0,0,1,1-.71l1,.14a8,8,0,0,1,.18-1.67c0-.13.07-.25.1-.38-2,0-3.49,1.66-4.87,3.11-1.81,1.9-3.46,3.59-4.07,5.73-1.12,4,.89,7.63,4.51,8.15s7.48-2.31,8.6-6.31a7.36,7.36,0,0,0,.2-2.68,5.43,5.43,0,0,1-2.59-1.2A5.7,5.7,0,0,1,341.61,137.13Z"/><path class="cls-14" d="M357.42,140l-6-11.52a7,7,0,0,0,1.29-7.63,4.78,4.78,0,0,0-3.8-2.58l-.69,0a6.57,6.57,0,0,0-3.62,1.25,8,8,0,0,0-3,4.05,6.21,6.21,0,0,0-.2.74,6.11,6.11,0,0,0,.46,4.14,5,5,0,0,0,6.24,2.32l2.15,4-.55,2.05,2.16.11-1,2.1.28.55,1.9.12-.79,2,.53,1.1,3.17.38,1.37-.91ZM346.6,123.3a1.39,1.39,0,0,1-1.54.12,1.08,1.08,0,0,1-.42-.45.3.3,0,0,0,0-.08,1.81,1.81,0,0,1,.71-2.09,1.36,1.36,0,0,1,1.72,0,1.6,1.6,0,0,1-.43,2.49Zm9.09,19.1-6.23-12.5a5.69,5.69,0,0,0,.79-.53l6.23,12.5Z"/><polygon class="cls-19" points="413.79 443.94 225.44 401.17 318.87 50.48 506.88 67.75 413.79 443.94"/><ellipse class="cls-20" cx="304.65" cy="452.72" rx="15.18" ry="11.63" transform="matrix(0.27, -0.96, 0.96, 0.27, -213.28, 624.5)"/><rect class="cls-20" x="400.55" y="21.85" width="38.74" height="6.64" rx="1.81" transform="matrix(1, 0.08, -0.08, 1, 3.32, -33.21)"/></g></g></svg>