<svg width="48" height="48" viewBox="0 0 48 48" fill="none" xmlns="http://www.w3.org/2000/svg">
<path fill-rule="evenodd" clip-rule="evenodd" d="M25.409 47.3985C34.5091 37.9316 41.5976 26.8459 41.5976 17.5988C41.5976 7.87927 33.7183 0 23.9987 0C14.2792 0 6.3999 7.87927 6.3999 17.5988C6.3999 26.8459 13.4884 37.9316 22.5885 47.3985C23.3594 48.2005 24.6381 48.2005 25.409 47.3985ZM23.9987 26.3983C28.8585 26.3983 32.7982 22.4586 32.7982 17.5988C32.7982 12.7391 28.8585 8.79942 23.9987 8.79942C19.139 8.79942 15.1993 12.7391 15.1993 17.5988C15.1993 22.4586 19.139 26.3983 23.9987 26.3983Z" fill="#F37C20"/>
</svg>
