<svg width="36" height="48" viewBox="0 0 36 48" fill="none" xmlns="http://www.w3.org/2000/svg">
<path fill-rule="evenodd" clip-rule="evenodd" d="M19.0091 47.3985C28.1092 37.9316 35.1977 26.8459 35.1977 17.5988C35.1977 7.87927 27.3184 0 17.5988 0C7.87927 0 0 7.87927 0 17.5988C0 26.8459 7.08848 37.9316 16.1886 47.3985C16.9595 48.2005 18.2382 48.2005 19.0091 47.3985ZM17.5988 26.3983C22.4586 26.3983 26.3983 22.4586 26.3983 17.5988C26.3983 12.7391 22.4586 8.79942 17.5988 8.79942C12.7391 8.79942 8.79942 12.7391 8.79942 17.5988C8.79942 22.4586 12.7391 26.3983 17.5988 26.3983Z" fill="#666666"/>
</svg>
