<svg width="48" height="48" viewBox="0 0 48 48" fill="none" xmlns="http://www.w3.org/2000/svg">
<path fill-rule="evenodd" clip-rule="evenodd" d="M41.5976 17.5988C41.5976 26.8459 34.5091 37.9316 25.409 47.3985C24.6381 48.2005 23.3594 48.2005 22.5885 47.3985C13.4884 37.9316 6.3999 26.8459 6.3999 17.5988C6.3999 7.87927 14.2792 0 23.9987 0C33.7183 0 41.5976 7.87927 41.5976 17.5988ZM23.9999 7.60001C25.5061 7.60001 26.7272 8.82105 26.7272 10.3273V14.8727H31.2726C32.7789 14.8727 33.9999 16.0938 33.9999 17.6C33.9999 19.1062 32.7789 20.3273 31.2726 20.3273H26.7272V24.8727C26.7272 26.379 25.5061 27.6 23.9999 27.6C22.4937 27.6 21.2726 26.379 21.2726 24.8727V20.3273H16.7272C15.2209 20.3273 13.9999 19.1062 13.9999 17.6C13.9999 16.0938 15.2209 14.8727 16.7272 14.8727L21.2726 14.8727V10.3273C21.2726 8.82105 22.4937 7.60001 23.9999 7.60001Z" fill="#43B47C"/>
</svg>
