<svg xmlns="http://www.w3.org/2000/svg" viewBox="0 0 55.8 64.43"><defs><style>.cls-1{fill:#fff;}</style></defs><g id="Layer_2" data-name="Layer 2"><g id="Layer_1-2" data-name="Layer 1"><path class="cls-1" d="M27.9,0,0,16.11V48.32L27.9,64.43,55.8,48.32V16.11Zm.82,46.55a2.76,2.76,0,1,1,2.76-2.76A2.69,2.69,0,0,1,28.72,46.55Zm2-12.16-.32,3.4h-3.2l-.36-5.12c3.2-1.16,7-3,7-6.32,0-2.83-1.92-4.75-5.76-4.75-4.2,0-6,2.08-6.24,5.35H17.72c.28-5,3.28-9.07,10.44-9.07,6.4,0,9.92,3.56,9.92,8.19S33.76,33.15,30.68,34.39Z"/></g></g></svg>