<svg xmlns="http://www.w3.org/2000/svg" viewBox="0 0 920.13 895.13"><defs><style>.cls-1{fill:#231f20;opacity:0.25;}.cls-2{fill:#808184;}.cls-3{fill:#929497;}.cls-4{fill:#d0d2d3;}.cls-5{fill:#a6a8ab;}.cls-6{fill:#4d3e38;}.cls-7{fill:#f37c20;}.cls-8{fill:#f17c21;}.cls-9{fill:#fff;}.cls-10,.cls-11{fill:#2b2b2b;}.cls-10,.cls-11,.cls-13,.cls-15{stroke:#f2f1f0;}.cls-10,.cls-11,.cls-12,.cls-13,.cls-14,.cls-15{stroke-miterlimit:10;}.cls-11{stroke-width:2px;}.cls-12{fill:#ccc;stroke:#332926;stroke-width:0.25px;}.cls-13{fill:#434444;}.cls-14,.cls-15{fill:none;}.cls-14{stroke:#2b2b2b;stroke-linecap:round;stroke-width:5px;}.cls-16{font-size:36px;fill:#f15a24;font-family:SoinSansNeue-Medium, Soin Sans Neue;font-weight:500;}.cls-17{letter-spacing:-0.02em;}.cls-18{letter-spacing:-0.01em;}.cls-19,.cls-20{font-family:SoinSansNeue-Bold, Soin Sans Neue;font-weight:700;}.cls-19{letter-spacing:-0.02em;}</style></defs><g id="Layer_2" data-name="Layer 2"><g id="Layer_1-2" data-name="Layer 1"><path class="cls-1" d="M920.12,705.81l-34.48-1.94-79.44-102-7.18-4.6-.93-1.31-8.79,4.4.71,1-21,9.56-17.63,12.37-47-5-75.83,19v48.9c-1.38,1.25,0,44.19,0,44.19l32.15,8.39c0,.09,0,.17,0,.27l13.08,2.39,61.06,12.43,85.88-12.5L834.1,752.7l41.08-.78Z"/><polygon class="cls-2" points="625.37 636.93 705.69 618.99 705.69 707.5 625.37 636.93"/><polygon class="cls-3" points="805.51 629.52 705.69 618.99 705.69 707.5 805.51 629.52"/><polygon class="cls-4" points="734.54 650.18 734.54 747.27 625.37 725.05 625.37 636.93 734.54 650.18"/><polygon class="cls-5" points="734.54 650.18 734.54 747.27 805.51 718.81 805.51 629.52 734.54 650.18"/><polygon class="cls-4" points="748.58 624.84 766.91 611.97 856.2 734.02 836.31 748.05 748.58 624.84"/><polygon class="cls-5" points="809.8 592.48 766.91 611.97 856.2 734.02 888.95 701.26 809.8 592.48"/><path class="cls-6" d="M704.47,655.64h0a2.38,2.38,0,0,0,3.65.91h0a2.41,2.41,0,0,1,3.88,1.71h0a2.48,2.48,0,0,0,3.21,2.13h0a2.44,2.44,0,0,1,3.14,2.94h0a2.44,2.44,0,0,0,2.32,3.09h0c2,.09,3.22,2.42,1.92,3.79h0a2.3,2.3,0,0,0,1.07,3.63h0c2,.8,2.19,3.32.4,4.1h0a2.13,2.13,0,0,0-.37,3.64h0a2.11,2.11,0,0,1-1.19,3.82h0a2,2,0,0,0-1.75,3.11h0a2.07,2.07,0,0,1-2.6,3h0a2.06,2.06,0,0,0-2.87,2.14h0c.26,2-2,3-3.62,1.7h0a2.18,2.18,0,0,0-3.55.88h0c-.48,1.8-3,1.94-4.11.23h0a2.33,2.33,0,0,0-3.71-.47h0c-1.12,1.41-3.57.65-4-1.24h0A2.45,2.45,0,0,0,692.9,693h0a2.42,2.42,0,0,1-3.38-2.5h0a2.44,2.44,0,0,0-2.61-2.69h0a2.36,2.36,0,0,1-2.34-3.39h0a2.3,2.3,0,0,0-1.52-3.3h0c-1.82-.47-2.44-2.81-1-3.84h0a2.14,2.14,0,0,0-.28-3.49h0a2.08,2.08,0,0,1,.41-3.8h0a2,2,0,0,0,1-3.24h0a2,2,0,0,1,1.78-3.3h0a2,2,0,0,0,2.15-2.59h0A2,2,0,0,1,690,658.5h0a2,2,0,0,0,3.05-1.61h0a2.13,2.13,0,0,1,3.74-1.14h0a2.22,2.22,0,0,0,3.58-.39h0A2.28,2.28,0,0,1,704.47,655.64Z"/><path class="cls-6" d="M720.59,677.43c-.07,9.8-8.48,16.73-18.52,15.45-9.77-1.24-17.36-9.81-17.2-19.12s8-16.14,17.63-15.37C712.44,659.17,720.66,667.68,720.59,677.43Z"/><path class="cls-7" d="M702.06,693.29c-10-1.28-17.75-10.06-17.58-19.57s8.14-16.5,18-15.73c10.16.8,18.59,9.52,18.52,19.48S712.33,694.59,702.06,693.29Zm.43-34.51c-9.44-.75-17.07,6-17.23,15s7.28,17.48,16.81,18.68c9.79,1.24,18-5.54,18.08-15.1S712.19,659.55,702.49,658.78Z"/><path class="cls-8" d="M694,681.11l-1.66-.33a.94.94,0,0,0,.82.92,1.91,1.91,0,0,0,.63,0l.06.41a2.61,2.61,0,0,1-.74,0,1.43,1.43,0,0,1-1.17-1.54c0-.67.44-1.21,1.13-1.08a1.28,1.28,0,0,1,1,1.39A1.94,1.94,0,0,1,694,681.11Zm-.37-.43a.8.8,0,0,0-.6-.82c-.36-.07-.6.15-.66.56Z"/><path class="cls-8" d="M696.26,682.7v-.26a.84.84,0,0,1-.73.16,1,1,0,0,1-.81-1,.64.64,0,0,1,.85-.62,1.76,1.76,0,0,1,.69.3v-.15a.64.64,0,0,0-.59-.74,1.33,1.33,0,0,0-.6,0L695,680a2.24,2.24,0,0,1,.73,0,1.09,1.09,0,0,1,1,1.26l0,1.52Zm0-1a1.34,1.34,0,0,0-.62-.33c-.3-.06-.49,0-.5.33s.18.47.52.54a.62.62,0,0,0,.59-.19Z"/><path class="cls-8" d="M698.32,683.18a1.6,1.6,0,0,1-.84-.51l.23-.3a1.18,1.18,0,0,0,.59.41c.28.06.41-.06.42-.28,0-.51-1.1-.6-1.09-1.37a.63.63,0,0,1,.82-.6,1.64,1.64,0,0,1,.68.38l-.2.32a1.14,1.14,0,0,0-.51-.31c-.27,0-.38.07-.38.25,0,.43,1.09.56,1.08,1.36A.64.64,0,0,1,698.32,683.18Z"/><path class="cls-8" d="M700.46,684.92l-.46-.09.74-1.45-1-2.54.5.1.71,2,.75-1.72.49.1Z"/><path class="cls-9" d="M704.15,684.39a1.62,1.62,0,0,1-.72-.35v1.52l-.47-.1,0-4,.44.08v.26a1.09,1.09,0,0,1,.83-.15,1.58,1.58,0,0,1,1.18,1.59A1,1,0,0,1,704.15,684.39Zm0-2.33a.82.82,0,0,0-.73.17v1.3a1.21,1.21,0,0,0,.72.45c.48.1.82-.25.82-.82A1.1,1.1,0,0,0,704.15,682.06Z"/><path class="cls-9" d="M706.68,681.59a.38.38,0,0,1-.3-.37.25.25,0,0,1,.3-.26.39.39,0,0,1,.3.38A.24.24,0,0,1,706.68,681.59Z"/><polygon class="cls-9" points="706.46 684.82 706.45 682.15 706.92 682.24 706.95 684.92 706.46 684.82"/><path class="cls-9" d="M709.41,685.48A1.78,1.78,0,0,1,708,683.8a1.08,1.08,0,0,1,1.38-1.13,2,2,0,0,1,.9.45l-.2.34a1.87,1.87,0,0,0-.73-.37c-.51-.1-.89.19-.88.8a1.22,1.22,0,0,0,.94,1.15,1.27,1.27,0,0,0,.73-.08l.18.43A1.53,1.53,0,0,1,709.41,685.48Z"/><path class="cls-9" d="M712.92,686.16l-1.24-1.61,0,1.36-.5-.11-.09-4.75.49.1.07,3.22,1.11-1,.62.12-1.26,1,1.4,1.76Z"/><path class="cls-7" d="M701.25,670.33c-.28-.11-2.46-1.28-2.72-2.89a1.57,1.57,0,0,1-.33.93,1.8,1.8,0,0,0-.44-2.16,1.32,1.32,0,0,0-.55,1.31.67.67,0,0,1-.09-.66,7.77,7.77,0,0,1-.91.56,2.81,2.81,0,0,0-1.77,2.18s-.29.52,0,.78a1.75,1.75,0,0,0,1.75.22c.66-.33.88.88,0,.77s-2.11-.6-2,.66c0,0,1,.4,1,0a15.28,15.28,0,0,1,1.89,1.42.57.57,0,0,0,.88.09c.45-.43,2-1.85,2.79-.3,0,0-.94-1.39-2.89.92,0,0-.82.79.93,3.58,0,0-1.26-.44-1.37.69l5.21,1s-.68-.72.18-2.25S705,672,701.25,670.33Zm-5.37-1.3a.29.29,0,0,1-.24-.29.21.21,0,0,1,.25-.22.29.29,0,0,1,.24.29A.22.22,0,0,1,695.88,669Z"/><path class="cls-7" d="M703.3,679.5s6.06,2,3.78-5.88c-.34-1.14-.65-3.7,2.45-3a1.77,1.77,0,0,0-2.29,1.3,3.06,3.06,0,0,0,2.08,3.26,2.66,2.66,0,0,0,3.68-2,4.91,4.91,0,0,0-3.51-5.06,4.54,4.54,0,0,0-5.75,3.52,5.26,5.26,0,0,1-.07,4.85C702.26,678.82,703.3,679.5,703.3,679.5Z"/><path class="cls-9" d="M694.55,672.61a.68.68,0,0,1,.54.69.49.49,0,0,1-.57.51.68.68,0,0,1-.54-.69.49.49,0,0,1,.57-.51m0-.29a.74.74,0,0,0-.85.75,1,1,0,0,0,.8,1,.73.73,0,0,0,.85-.75,1,1,0,0,0-.8-1Z"/><polygon class="cls-9" points="694.3 677.17 694.13 677.14 694.22 673.79 694.4 673.82 694.3 677.17"/><polygon class="cls-9" points="694.7 675.79 694.52 675.76 694.58 673.85 694.75 673.88 694.7 675.79"/><polygon class="cls-9" points="694.46 675.94 694.43 676.99 695.18 677.13 695.19 676.63 694.66 676.53 694.67 676.29 695.01 676.35 695.02 676.04 694.46 675.94"/><polygon class="cls-10" points="230.63 193.5 230.63 320.5 393.63 320.5 393.63 193.5 455.63 237.5 491.63 180.5 387.63 95.5 230.63 95.5 116.63 190.5 167.63 237.5 230.63 193.5"/><polygon class="cls-10" points="521.63 532.14 521.63 568 602.63 568 602.63 532.14 588.63 512.5 538.63 512.5 521.63 532.14"/><polyline class="cls-10" points="588.63 512.5 588.63 453.5 538.63 453.5 538.63 512.5"/><polygon class="cls-10" points="588.63 453.5 606.63 435.5 606.63 416.5 592.63 402.5 509.63 402.5 509.63 453.5 588.63 453.5"/><polygon class="cls-10" points="507.63 410.5 507.63 447.5 480.63 447.5 465.63 435.5 465.63 415.5 479.63 408.5 507.63 408.5 507.63 410.5"/><polygon class="cls-10" points="463.63 429.5 419.63 429.5 413.63 423.5 419.63 419.5 463.63 419.5 463.63 429.5"/><rect class="cls-10" x="526.63" y="453.5" width="12" height="20"/><rect class="cls-10" x="521.63" y="569.5" width="81" height="17"/><rect class="cls-10" x="672.63" y="130.5" width="134" height="271" rx="12"/><circle class="cls-11" cx="687.63" cy="380.5" r="34"/><rect class="cls-11" x="774.13" y="402" width="14" height="9"/><rect class="cls-11" x="684.13" y="15" width="14" height="115"/><rect class="cls-11" x="678.13" y="1" width="25" height="14"/><rect class="cls-9" x="349.74" y="272.49" width="23.9" height="23.9" transform="translate(58.23 -61.45) rotate(10.56)"/><rect class="cls-9" x="763.32" y="144.39" width="26.13" height="26.13" transform="translate(41.99 -139.58) rotate(10.56)"/><rect class="cls-9" x="547.45" y="524.73" width="26.75" height="26.75" transform="translate(108.08 -93.64) rotate(10.56)"/><circle class="cls-12" cx="191.13" cy="704" r="191"/><polygon class="cls-13" points="188.72 539.98 343.28 637.55 200.81 718.71 47.98 622.87 188.72 539.98"/><path class="cls-9" d="M268.16,473.5A116.5,116.5,0,0,0,151.59,590.06L264.7,654c0-64.43,52.14-121.75,116.57-121.75Z"/><line class="cls-14" x1="139.51" y1="583.16" x2="266.43" y2="653.96"/><polygon class="cls-13" points="47.98 622.87 200.81 718.71 343.28 637.55 343.28 754.98 202.54 856 47.98 753.25 47.98 622.87"/><path class="cls-10" d="M459.14,306H429.73a3.4,3.4,0,0,0-3.4,3.4v4.15A15.73,15.73,0,0,1,415,328.66l-41.8,12a31.77,31.77,0,0,1-8.72,1.22h0a17.81,17.81,0,0,0-17.81,17.82v6a7.73,7.73,0,0,0,7.72,7.73H462.79a3,3,0,0,0,3-3l-1.26-59.21A5.36,5.36,0,0,0,459.14,306Z"/><line class="cls-15" x1="346.63" y1="365.6" x2="465.83" y2="365.6"/><rect class="cls-9" x="430.74" y="333.72" width="22.78" height="22.78" transform="translate(975.47 518.65) rotate(160.05)"/><rect class="cls-9" x="126.13" y="739" width="391" height="56" rx="28"/><text class="cls-16" transform="translate(188.39 777.17)"><tspan class="cls-17">P</tspan><tspan x="24.08" y="0">ay</tspan><tspan class="cls-18" x="62.71" y="0"> </tspan><tspan x="70.52" y="0">with</tspan><tspan class="cls-19" x="141.05" y="0"> </tspan><tspan class="cls-20" x="148.25" y="0">Vipps ;)</tspan></text></g></g></svg>