<svg width="48" height="48" viewBox="0 0 48 48" fill="none" xmlns="http://www.w3.org/2000/svg">
<g clip-path="url(#clip0_3_55)">
<path d="M38 0H10C4.47715 0 0 4.47715 0 10V38C0 43.5228 4.47715 48 10 48H38C43.5228 48 48 43.5228 48 38V10C48 4.47715 43.5228 0 38 0Z" fill="#888888"/>
<g clip-path="url(#clip1_3_55)">
<path fill-rule="evenodd" clip-rule="evenodd" d="M14.5553 30.7795C15.9653 30.7795 17.1107 31.9229 17.1107 33.3349C17.1107 34.7448 15.9673 35.8902 14.5553 35.8902C13.1434 35.8882 12 34.7448 12 33.3349C12 31.9229 13.1434 30.7795 14.5553 30.7795ZM19.135 30.9525H36.7091C36.8698 30.9525 37 31.0827 37 31.2434V35.2982C37 35.4589 36.8698 35.5891 36.7091 35.5891H19.135C18.9743 35.5891 18.8441 35.4589 18.8441 35.2982V31.2434C18.8441 31.0827 18.9763 30.9525 19.135 30.9525ZM19.135 22.0942H36.7091C36.8698 22.0942 37 22.2244 37 22.3852V26.4399C37 26.6007 36.8698 26.7309 36.7091 26.7309H19.135C18.9743 26.7309 18.8441 26.6007 18.8441 26.4399V22.3852C18.8441 22.2244 18.9763 22.0942 19.135 22.0942ZM19.135 13.236H36.7091C36.8698 13.236 37 13.3662 37 13.5269V17.5817C37 17.7424 36.8698 17.8726 36.7091 17.8726H19.135C18.9743 17.8726 18.8441 17.7424 18.8441 17.5817V13.5269C18.8441 13.3662 18.9763 13.236 19.135 13.236ZM14.5553 21.8887C15.9653 21.8887 17.1107 23.0321 17.1107 24.4441C17.1107 25.854 15.9673 26.9994 14.5553 26.9994C13.1434 26.9994 12 25.856 12 24.4441C12 23.0342 13.1434 21.8887 14.5553 21.8887ZM14.5553 13C15.9653 13 17.1107 14.1434 17.1107 15.5553C17.1107 16.9652 15.9673 18.1107 14.5553 18.1107C13.1434 18.1086 12 16.9652 12 15.5553C12 14.1434 13.1434 13 14.5553 13Z" fill="white"/>
</g>
</g>
<defs>
<clipPath id="clip0_3_55">
<rect width="48" height="48" fill="white"/>
</clipPath>
<clipPath id="clip1_3_55">
<rect width="25" height="22.8882" fill="white" transform="translate(12 13)"/>
</clipPath>
</defs>
</svg>
