<svg width="50" height="51" viewBox="0 0 50 51" fill="none" xmlns="http://www.w3.org/2000/svg">
<path d="M50 10.556V39.4622C50 45.2762 45.2762 50.0182 39.4622 50.0182H10.556C4.72384 50.0182 0 45.2762 0 39.4622V10.556C0 4.74201 4.72384 0 10.556 0H39.4622C45.2762 0 50 4.74201 50 10.556ZM48.1831 39.4622V10.556C48.1831 5.74128 44.2769 1.81686 39.4622 1.81686H10.556C5.74128 1.81686 1.81686 5.74128 1.81686 10.556V39.4622C1.81686 44.2769 5.74128 48.2013 10.556 48.2013H39.4622C44.2769 48.2013 48.1831 44.2769 48.1831 39.4622Z" fill="white"/>
<path d="M26.7441 38.2082L36.9367 32.5577V17.4415L26.7441 22.456V38.2082Z" fill="white"/>
<path d="M36.9363 16.4966L23.4734 9.41083L13.5352 14.9704L26.2713 21.6383L36.9363 16.4966Z" fill="white"/>
<path d="M25.7997 22.4559L13.0635 15.788V30.6681L14.626 31.5765L20.0402 40.5882H20.6216V35.0286L25.7997 38.0082V22.4377V22.4559ZM24.6732 36.5002L20.6216 34.1565V25.7808L14.7713 18.0409L24.6732 23.219V36.4821V36.5002Z" fill="white"/>
</svg>
