<svg xmlns="http://www.w3.org/2000/svg" xmlns:xlink="http://www.w3.org/1999/xlink" viewBox="0 0 502.61 711.07"><defs><style>.cls-1{fill:url(#linear-gradient);}.cls-2{fill:url(#linear-gradient-2);}.cls-3{fill:url(#radial-gradient);}.cls-4{fill:url(#radial-gradient-2);}.cls-27,.cls-5{fill:none;}.cls-6{fill:#1a1a1a;opacity:0.1;}.cls-7{fill:#878787;}.cls-8{fill:#b17f4a;}.cls-9{fill:#676465;}.cls-10{fill:#f9f9fa;}.cls-11{opacity:0.23;}.cls-12{clip-path:url(#clip-path);}.cls-13{clip-path:url(#clip-path-2);}.cls-14{mask:url(#mask);}.cls-15{fill:url(#linear-gradient-3);}.cls-16{clip-path:url(#clip-path-3);}.cls-17{fill:url(#linear-gradient-4);}.cls-18{opacity:0.38;}.cls-19{clip-path:url(#clip-path-4);}.cls-20{fill:#706f6f;}.cls-21{fill:#9d9d9c;}.cls-22{fill:#575756;}.cls-23{fill:#cf4117;}.cls-24{fill:#e84e0f;}.cls-25{fill:#9a6439;}.cls-26{clip-path:url(#clip-path-5);}.cls-27{stroke:#706f6f;stroke-miterlimit:10;stroke-width:0.25px;}.cls-28{opacity:0.31;}.cls-29{clip-path:url(#clip-path-6);}.cls-30{clip-path:url(#clip-path-7);}.cls-31{mask:url(#mask-2);}.cls-32{fill:url(#linear-gradient-5);}.cls-33{fill:#ea5b0c;}.cls-34{clip-path:url(#clip-path-8);}.cls-35{fill:#a9a8a9;}.cls-36{opacity:0.8;}.cls-37{clip-path:url(#clip-path-9);}.cls-38{fill:#7e7e7d;}.cls-39{opacity:0.55;}.cls-40{clip-path:url(#clip-path-10);}.cls-41{clip-path:url(#clip-path-11);}.cls-42{mask:url(#mask-3);}.cls-43{fill:url(#radial-gradient-3);}.cls-44{clip-path:url(#clip-path-12);}.cls-45{fill:#a3a2a3;}.cls-46{clip-path:url(#clip-path-13);}.cls-47{fill:url(#linear-gradient-6);}.cls-48{clip-path:url(#clip-path-14);}.cls-49{fill:#8a8989;}.cls-50{clip-path:url(#clip-path-15);}.cls-51{fill:#e7e8e9;}.cls-52{fill:#f1f2f4;}.cls-53{opacity:0.2;}.cls-54{clip-path:url(#clip-path-16);}.cls-55{fill:#683c11;}.cls-56{fill:#7d4e24;}.cls-57{fill:#ca9e67;}.cls-58{fill:#ededed;}.cls-59{fill:#ac9175;}.cls-60{fill:#dadada;}.cls-61{clip-path:url(#clip-path-17);}.cls-62{clip-path:url(#clip-path-18);}.cls-63{fill:#ddb87d;}.cls-64{fill:#634e42;}.cls-65{fill:#fff;}.cls-66{clip-path:url(#clip-path-19);}.cls-67{fill:url(#linear-gradient-7);}.cls-68{clip-path:url(#clip-path-20);}.cls-69{fill:#6b6b6a;}.cls-70{clip-path:url(#clip-path-21);}.cls-71{clip-path:url(#clip-path-22);}.cls-72{clip-path:url(#clip-path-23);}.cls-73{clip-path:url(#clip-path-24);}.cls-74{opacity:0.3;}.cls-75{clip-path:url(#clip-path-25);}.cls-76{clip-path:url(#clip-path-26);}.cls-77{clip-path:url(#clip-path-27);}.cls-78{clip-path:url(#clip-path-28);}.cls-79{opacity:0.24;}.cls-80{clip-path:url(#clip-path-29);}.cls-81{clip-path:url(#clip-path-30);}.cls-82{mask:url(#mask-4);}.cls-83{fill:url(#radial-gradient-4);}.cls-84{clip-path:url(#clip-path-31);}.cls-85{fill:#3c3c3b;}.cls-86{clip-path:url(#clip-path-32);}.cls-87{opacity:0.29;}.cls-88{clip-path:url(#clip-path-33);}.cls-89{clip-path:url(#clip-path-34);}.cls-90{fill:url(#linear-gradient-8);}.cls-91{fill:#baaea6;}.cls-92{fill:url(#linear-gradient-9);}.cls-93{clip-path:url(#clip-path-35);}.cls-94{fill:url(#linear-gradient-10);}.cls-95{clip-path:url(#clip-path-36);}.cls-96{fill:url(#linear-gradient-11);}.cls-97{clip-path:url(#clip-path-37);}.cls-98{fill:url(#linear-gradient-12);}.cls-99{clip-path:url(#clip-path-38);}.cls-100{fill:url(#linear-gradient-13);}.cls-101{clip-path:url(#clip-path-39);}.cls-102{fill:url(#linear-gradient-14);}.cls-103{clip-path:url(#clip-path-40);}.cls-104{fill:url(#linear-gradient-15);}.cls-105{clip-path:url(#clip-path-41);}.cls-106{fill:url(#linear-gradient-16);}.cls-107{clip-path:url(#clip-path-42);}.cls-108{fill:url(#linear-gradient-17);}.cls-109{clip-path:url(#clip-path-43);}.cls-110{fill:url(#linear-gradient-18);}.cls-111{clip-path:url(#clip-path-44);}.cls-112{fill:url(#linear-gradient-19);}.cls-113{clip-path:url(#clip-path-45);}.cls-114{fill:url(#linear-gradient-20);}.cls-115{clip-path:url(#clip-path-48);}.cls-116{fill:url(#linear-gradient-23);}.cls-117{clip-path:url(#clip-path-49);}.cls-118{fill:url(#linear-gradient-24);}.cls-119{clip-path:url(#clip-path-50);}.cls-120{fill:url(#linear-gradient-25);}.cls-121{clip-path:url(#clip-path-51);}.cls-122{fill:url(#linear-gradient-26);}.cls-123{clip-path:url(#clip-path-52);}.cls-124{fill:url(#linear-gradient-27);}.cls-125{clip-path:url(#clip-path-53);}.cls-126{fill:url(#linear-gradient-28);}.cls-127{clip-path:url(#clip-path-54);}.cls-128{fill:url(#linear-gradient-29);}.cls-129{clip-path:url(#clip-path-55);}.cls-130{fill:url(#linear-gradient-30);}.cls-131{clip-path:url(#clip-path-56);}.cls-132{fill:url(#linear-gradient-31);}.cls-133{fill:#ed7602;}</style><linearGradient id="linear-gradient" x1="-4760.84" y1="3241.43" x2="-4756.93" y2="3241.43" gradientTransform="matrix(27.8, 0, 0, -27.8, 132604.52, 90606.65)" gradientUnits="userSpaceOnUse"><stop offset="0"/><stop offset="0.11"/><stop offset="0.13" stop-color="#050505"/><stop offset="0.23" stop-color="#2f2f2f"/><stop offset="0.33" stop-color="#545454"/><stop offset="0.44" stop-color="#727272"/><stop offset="0.56" stop-color="#898989"/><stop offset="0.68" stop-color="#999"/><stop offset="0.82" stop-color="#a3a3a3"/><stop offset="1" stop-color="#a6a6a6"/><stop offset="1" stop-color="#aaa"/><stop offset="1" stop-color="#c9c9c9"/><stop offset="1" stop-color="#e0e0e0"/><stop offset="1" stop-color="#ededed"/><stop offset="1" stop-color="#f2f2f2"/></linearGradient><linearGradient id="linear-gradient-2" x1="-4967.48" y1="3236.2" x2="-4963.58" y2="3236.2" gradientTransform="matrix(-65.88, 0, 0, 65.88, -326986.94, -212717.36)" xlink:href="#linear-gradient"/><radialGradient id="radial-gradient" cx="-4571.99" cy="3323.91" r="3.9" gradientTransform="matrix(13.2, 0, 0, -13.2, 60611.01, 44302.7)" gradientUnits="userSpaceOnUse"><stop offset="0" stop-color="#f2f2f2"/><stop offset="0.02" stop-color="#ececec"/><stop offset="0.17" stop-color="#aeaeae"/><stop offset="0.33" stop-color="#797979"/><stop offset="0.48" stop-color="#4e4e4e"/><stop offset="0.63" stop-color="#2c2c2c"/><stop offset="0.77" stop-color="#141414"/><stop offset="0.89" stop-color="#050505"/><stop offset="1"/></radialGradient><radialGradient id="radial-gradient-2" cx="-2323.59" cy="4292.84" r="3.9" gradientTransform="matrix(1.84, 0, 0, -1.84, 4635.67, 8293.96)" gradientUnits="userSpaceOnUse"><stop offset="0" stop-color="#f2f2f2"/><stop offset="0.7" stop-color="#f2f2f2"/><stop offset="0.74" stop-color="#ededed"/><stop offset="0.77" stop-color="#e0e0e0"/><stop offset="0.81" stop-color="#c9c9c9"/><stop offset="0.86" stop-color="#a9a9a9"/><stop offset="0.9" stop-color="gray"/><stop offset="0.94" stop-color="#4e4e4e"/><stop offset="0.99" stop-color="#141414"/><stop offset="1"/></radialGradient><clipPath id="clip-path"><rect class="cls-5" x="232.2" y="342.88" width="109.25" height="280.94"/></clipPath><clipPath id="clip-path-2"><path class="cls-5" d="M236.85,448.57a38.64,38.64,0,0,1,11.94-.35,8.53,8.53,0,0,1,5.85,4c5.26,8.84,35,61.34,39.49,74.41.29,2.12,3.86,27.72,8.28,42.28,3.12,10.24,9.29,31.13,8.1,41.27-.13,1.11.71,13,.29,14.56,0,0,4.71-.22,9.38-.83a13.14,13.14,0,0,0,6.87-3.58c3.56-3.34,9.67-3.33,12.24-4.07,0,0-5.12-20.58-5.21-21.21-.85-6.18-5.81-54.61-6.25-60.43-1.2-16.21-6.17-29.74-9.83-50.67-.2-1.08-.09-36.75-9.08-65.74C304.19,403,290,375.62,293.13,364.3c1.55-5.56-4.06-14.36-9.83-14.23,0,0-17.77-15.9-38.54,7.09-24.74,27.38-9.36,91.8-7.91,91.41"/></clipPath><mask id="mask" x="220.02" y="334.17" width="121.44" height="290.61" maskUnits="userSpaceOnUse"><rect class="cls-1" x="220.02" y="334.17" width="119.27" height="290.61"/></mask><linearGradient id="linear-gradient-3" x1="-4760.81" y1="3241.43" x2="-4756.86" y2="3241.43" gradientTransform="matrix(27.8, 0, 0, -27.8, 132604.52, 90606.65)" gradientUnits="userSpaceOnUse"><stop offset="0" stop-color="#161412"/><stop offset="0.11" stop-color="#161412"/><stop offset="0.21" stop-color="#161412"/><stop offset="1" stop-color="#161412"/><stop offset="1" stop-color="#302f2d"/><stop offset="1" stop-color="#454544"/><stop offset="1" stop-color="#535251"/><stop offset="1" stop-color="#575756"/></linearGradient><clipPath id="clip-path-3"><path class="cls-5" d="M245.07,169.6s-5.15.42-6.71,14.75c-1.72,15.68-1.72,47.28-1.72,47.28l7.19,17.65,10.85-15s-.63-32.13-1.77-49.9c-.94-14.82-6.3-12.29-7.84-14.75-.08-.13-.15-.24-.21-.35l.21.35m-.21-.35-.12-.19.12.19m-.12-.19,0-.06,0,.06m0-.06s0,0,0,0,0,0,0,0m0,0h0m0,0a.41.41,0,0,1,0-.09.41.41,0,0,0,0,.09m0-.09v0m0,0-.21-.33.21.33"/></clipPath><linearGradient id="linear-gradient-4" x1="-3915.79" y1="3647.91" x2="-3911.57" y2="3647.91" gradientTransform="matrix(4.62, 0, 0, -4.62, 18342.84, 17076.32)" gradientUnits="userSpaceOnUse"><stop offset="0" stop-color="#f29101"/><stop offset="1" stop-color="#e42d15"/></linearGradient><clipPath id="clip-path-4"><rect class="cls-5" x="134.65" y="366.29" width="23.41" height="19.51"/></clipPath><clipPath id="clip-path-5"><rect class="cls-5" x="232.2" y="362.39" width="15.61" height="85.84"/></clipPath><clipPath id="clip-path-6"><rect class="cls-5" x="142.46" y="366.29" width="42.92" height="257.53"/></clipPath><clipPath id="clip-path-7"><path class="cls-5" d="M187.82,367.13S165.62,420.8,173,436a28.37,28.37,0,0,1,.2,11.17c-2.48,1.65-4.91,7.36-5,10.24,1.41,3.35,1.15,4.78,1.15,4.78-.8,9.46-4.44,31.91-4.13,37.65,1.95,37.1-11.77,126.8-11.77,126.8a76.88,76.88,0,0,0-10-.47c.83-4.46,2.2-7.27,2.6-11.07,2.94-28.09,3.87-37.84,3.83-39-.36-1.94-.32-12.12,1.24-24.06a65.71,65.71,0,0,0,.23-15.46s-1.31-2,.71-30.16c-.16-6.76-.87-14.54-.86-20.31.15-61.4,2.82-68.13,2.82-68.13s-8.45-20,2.13-33.44c6.33-8,31.69-17.32,31.69-17.32"/></clipPath><mask id="mask-2" x="119.17" y="362.98" width="92.91" height="267.77" maskUnits="userSpaceOnUse"><rect class="cls-2" x="34.38" y="462.58" width="262.49" height="68.56" transform="matrix(0.09, -1, 1, 0.09, -344.6, 615.09)"/></mask><linearGradient id="linear-gradient-5" x1="-4967.48" y1="3236.2" x2="-4963.58" y2="3236.2" gradientTransform="matrix(-65.88, 0, 0, 65.88, -326986.94, -212717.36)" xlink:href="#linear-gradient-3"/><clipPath id="clip-path-8"><rect class="cls-5" x="154.16" y="307.76" width="101.45" height="89.74"/></clipPath><clipPath id="clip-path-9"><rect class="cls-5" x="181.48" y="139.97" width="70.24" height="156.08"/></clipPath><clipPath id="clip-path-10"><rect class="cls-5" x="232.2" y="377.99" width="85.84" height="117.06"/></clipPath><clipPath id="clip-path-11"><path class="cls-5" d="M242.32,447.8c-5.72-3.2-14.11-12.85-10.06-56.12,5.07-30.11,78.1-1,78.1-1l6.75,52s-2.51,52.48-36.78,53l-25.69-43.38s-1.64-5-12.32-4.46"/></clipPath><mask id="mask-3" x="228.21" y="361.57" width="89.83" height="134.07" maskUnits="userSpaceOnUse"><rect class="cls-3" x="228.21" y="361.57" width="88.89" height="134.07"/></mask><radialGradient id="radial-gradient-3" cx="-4571.95" cy="3323.91" r="3.88" gradientTransform="matrix(13.2, 0, 0, -13.2, 60611, 44302.7)" gradientUnits="userSpaceOnUse"><stop offset="0" stop-color="#575756"/><stop offset="0.23" stop-color="#403f3e"/><stop offset="0.51" stop-color="#292726"/><stop offset="0.78" stop-color="#1b1917"/><stop offset="1" stop-color="#161412"/></radialGradient><clipPath id="clip-path-12"><rect class="cls-5" x="247.81" y="147.78" width="101.45" height="292.65"/></clipPath><clipPath id="clip-path-13"><path class="cls-5" d="M307.3,209.32c-2.1.52-3.6,5.67-4.68,6.39-1.5,1-9.81,10.19-9.81,10.19s31.87,0,30.41-1.53c-9.89-13.05-9.8-18.73-9.8-18.73s-5.32,3.47-6.12,3.68"/></clipPath><linearGradient id="linear-gradient-6" x1="-4323.26" y1="3451.92" x2="-4319.44" y2="3451.92" gradientTransform="matrix(7.81, 0, 0, -7.81, 34042.57, 27162.16)" xlink:href="#linear-gradient-4"/><clipPath id="clip-path-14"><rect class="cls-5" x="271.22" y="225.82" width="54.63" height="11.71"/></clipPath><clipPath id="clip-path-15"><rect class="cls-5" x="247.81" y="136.07" width="58.53" height="159.98"/></clipPath><clipPath id="clip-path-16"><rect class="cls-5" x="197.09" y="124.37" width="97.55" height="35.12"/></clipPath><clipPath id="clip-path-17"><rect class="cls-5" x="197.09" y="89.25" width="46.82" height="39.02"/></clipPath><clipPath id="clip-path-18"><rect class="cls-5" x="240.01" y="89.25" width="46.82" height="39.02"/></clipPath><clipPath id="clip-path-19"><path class="cls-5" d="M364.8,413.19c-2.63,3.16-.52,17.27.18,21.5a2.45,2.45,0,0,1-.31,1.49c-1.1,2.21.95,15.81,1.85,21.38a2.83,2.83,0,0,0,2.8,2.37h1.43a2.83,2.83,0,0,0,2.84-2.91c-.08-2.46-.12-6.24.13-10.45.38-6.69-2.51-23-3-25.8a2.64,2.64,0,0,1,0-.84c1.11-8.53,7.46.73,8.07,1.63l.08.14,8.16,14a9,9,0,0,1,1.2,4.07l0,.69c0,.06,0,.12,0,.18l1.93,16.83a2.84,2.84,0,0,0,5.66-.46c-.3-5.94-1.25-19.26-1.53-20.15-.37-1.18-2.07-6.8-11.59-20.3-4.37-6.19-7.84-8.2-10.61-8.2-3.3,0-5.62,2.85-7.3,4.87"/></clipPath><linearGradient id="linear-gradient-7" x1="-4844.06" y1="2792.12" x2="-4840.16" y2="2792.12" gradientTransform="matrix(0, -13.48, -13.48, 0, 38005.73, -64818.05)" gradientUnits="userSpaceOnUse"><stop offset="0" stop-color="#312214"/><stop offset="0.14" stop-color="#483015"/><stop offset="0.32" stop-color="#5f3e17"/><stop offset="0.51" stop-color="#704818"/><stop offset="0.73" stop-color="#7a4e19"/><stop offset="1" stop-color="#7d5019"/></linearGradient><clipPath id="clip-path-20"><rect class="cls-5" x="357.07" y="381.89" width="31.22" height="11.71"/></clipPath><clipPath id="clip-path-21"><rect class="cls-5" x="306.34" y="331.17" width="39.02" height="19.51"/></clipPath><clipPath id="clip-path-22"><rect class="cls-5" x="154.16" y="319.46" width="35.12" height="23.41"/></clipPath><clipPath id="clip-path-23"><rect class="cls-5" x="294.63" y="221.91" width="27.31" height="7.8"/></clipPath><clipPath id="clip-path-24"><rect class="cls-5" x="150.26" y="417.01" width="42.92" height="42.92"/></clipPath><clipPath id="clip-path-25"><rect class="cls-5" x="154.16" y="358.48" width="58.53" height="7.8"/></clipPath><clipPath id="clip-path-26"><rect class="cls-5" x="181.48" y="272.64" width="27.31" height="39.02"/></clipPath><clipPath id="clip-path-27"><rect class="cls-5" x="298.54" y="268.74" width="35.12" height="50.73"/></clipPath><clipPath id="clip-path-28"><rect class="cls-5" x="193.18" y="440.42" width="113.16" height="136.57"/></clipPath><clipPath id="clip-path-29"><rect class="cls-5" x="364.87" y="401.4" width="7.8" height="19.51"/></clipPath><clipPath id="clip-path-30"><path class="cls-5" d="M373.12,412.79c-.72-1.54-2.9-2.53-4.67-3.1a4.57,4.57,0,0,1-3.09-3.45l-1.09-4.46s1.32,7.94-.38,10.52l2.74.18a2.7,2.7,0,0,1,3.39,1.08c.38.62-2,6.06-2,6.06,7.56-4.55,5.11-6.83,5.11-6.83"/></clipPath><mask id="mask-4" x="363.89" y="401.4" width="12.69" height="19.51" maskUnits="userSpaceOnUse"><rect class="cls-4" x="363.89" y="401.78" width="11.69" height="17.84"/></mask><radialGradient id="radial-gradient-4" cx="-2323.05" cy="4292.59" r="4.14" gradientTransform="matrix(1.84, 0, 0, -1.84, 4635.67, 8293.96)" gradientUnits="userSpaceOnUse"><stop offset="0" stop-color="#161412"/><stop offset="0.7" stop-color="#161412"/><stop offset="1" stop-color="#161412"/></radialGradient><clipPath id="clip-path-31"><rect class="cls-5" x="193.18" y="65.84" width="39.02" height="23.41"/></clipPath><clipPath id="clip-path-32"><rect class="cls-5" x="255.61" y="65.84" width="39.02" height="23.41"/></clipPath><clipPath id="clip-path-33"><rect class="cls-5" x="224.4" y="22.91" width="58.53" height="19.51"/></clipPath><clipPath id="clip-path-34"><polygon class="cls-5" points="358.05 426.79 365.57 432.13 363.59 419.76 358.05 426.79"/></clipPath><linearGradient id="linear-gradient-8" x1="-5512.68" y1="5081.46" x2="-5508.78" y2="5081.46" gradientTransform="matrix(0, 2.6, 2.6, 0, -12861.2, 14766.06)" gradientUnits="userSpaceOnUse"><stop offset="0" stop-color="#5b4031"/><stop offset="0.19" stop-color="#614433"/><stop offset="0.43" stop-color="#715037"/><stop offset="0.71" stop-color="#8c643f"/><stop offset="1" stop-color="#b17f4a"/></linearGradient><linearGradient id="linear-gradient-9" x1="-1253.78" y1="-5182.32" x2="-1249.88" y2="-5182.32" gradientTransform="matrix(0.01, -0.57, -0.57, -0.01, -2597.35, -273.29)" gradientUnits="userSpaceOnUse"><stop offset="0" stop-color="#311f13"/><stop offset="0.04" stop-color="#311f13"/><stop offset="0.27" stop-color="#4c2d13"/><stop offset="0.52" stop-color="#603713"/><stop offset="0.76" stop-color="#6d3e13"/><stop offset="1" stop-color="#714013"/></linearGradient><clipPath id="clip-path-35"><polygon class="cls-5" points="405.15 471.64 407.44 471.64 409.36 470.48 408.14 469.57 405.5 469.27 405.15 471.64"/></clipPath><linearGradient id="linear-gradient-10" x1="4666.18" y1="-19177.31" x2="4672.56" y2="-19177.31" gradientTransform="matrix(0, -0.21, -0.21, 0, -3717.81, 1437.43)" xlink:href="#linear-gradient-7"/><clipPath id="clip-path-36"><path class="cls-5" d="M355.82,415.86c-3.66,3.24-15.63,20.58-15.63,20.58l7.46,16.48s0-22.12,10.52-32.41,8.93,4.65,8.64,6.72-3.29,13.29-3.29,13.29l4.28,1.69s3.34-1,2-17.1c-.28-3.24,1-7.49,0-9.17-1.17-2-1.41-3.06-3.1-3.47a8,8,0,0,0-1.89-.21,15.15,15.15,0,0,0-9,3.6"/></clipPath><linearGradient id="linear-gradient-11" x1="-5273.11" y1="1422.92" x2="-5269.21" y2="1422.92" gradientTransform="matrix(0, -2.92, -2.92, 0, 4509.66, -14965.43)" xlink:href="#linear-gradient-7"/><clipPath id="clip-path-37"><path class="cls-5" d="M355.82,415.86c-3.66,3.24-.65,6.34,2.35,4.65,12.81-7.21,8.93,4.65,8.64,6.72s4-9.61,3-11.29c-1.17-2-1.41-3.06-3.1-3.47a8,8,0,0,0-1.89-.21,15.15,15.15,0,0,0-9,3.6"/></clipPath><linearGradient id="linear-gradient-12" x1="-5546.38" y1="20.1" x2="-5542.48" y2="20.1" gradientTransform="matrix(0, -1.62, -1.62, 0, 394.12, -8573.34)" xlink:href="#linear-gradient-7"/><clipPath id="clip-path-38"><path class="cls-5" d="M351,436.53c-4.63.16-14.31,7.47-14.31,7.47s2.38,82.9,3.18,102.23,8.65,20.31,8.65,20.31L404,541l3.82-69.52V456.3c0-7.81-4.45-10.79-4.45-10.79l-15.16-5s-31.33-4-36.87-4h-2.05"/></clipPath><linearGradient id="linear-gradient-13" x1="-4754.39" y1="2763.33" x2="-4750.44" y2="2763.33" gradientTransform="matrix(11.76, 0, 0, -11.76, 56306.51, 32993.56)" xlink:href="#linear-gradient-7"/><clipPath id="clip-path-39"><path class="cls-5" d="M406.16,470s5.58.85,0,1.46c-4.85.53-52.56,1-64.77,1.06a5.23,5.23,0,0,0-5.16,5.69l7.19,82.46a5.22,5.22,0,0,0,3.21,4.37l.2.09a5,5,0,0,0,1.57.39c7.51.5,18.5-5.33,19.1-5.51a221.78,221.78,0,0,0,31.2-13.79c11.36-6.43,9.57-16.15,9.42-20s2.14-54.54,1.54-55.74c-.19-.4-1.47-.48-2.43-.48-.6,0-1.07,0-1.07,0"/></clipPath><linearGradient id="linear-gradient-14" x1="-4859" y1="2967.56" x2="-4855.1" y2="2967.56" gradientTransform="matrix(0, -24.24, -24.24, 0, 72310.33, -117220.21)" gradientUnits="userSpaceOnUse"><stop offset="0" stop-color="#312214"/><stop offset="0.25" stop-color="#4d3315"/><stop offset="0.5" stop-color="#613f15"/><stop offset="0.76" stop-color="#6e4616"/><stop offset="1" stop-color="#724916"/></linearGradient><clipPath id="clip-path-40"><path class="cls-5" d="M403,445.72l-.09-.08Zm-55.19-11.18a1.28,1.28,0,0,1-.34.07c-2,.16-19.82,1.63-23.37,3-3.77,1.41-8.32,3.61-9.27,15.07-.31,3.86-.81,11.93-1.19,22.08-.75,20-1.07,48.1,1.19,68.15,0,0,1.1,11.06,1.9,13.77.19.68.35,1.32.55,1.93a6,6,0,0,0,4.61,3.92l19.69,3.68a5,5,0,0,0,.66.09,14.09,14.09,0,0,0,3.61-.14l3.64-.6s-3.12,0-3.54-1.26c-.83-2.57-1.9-8.16-2.86-20.24,0,0-6-68.93-4.87-69.87s1.11-21.47,3.93-28.89c2.52-6.62,3.39-8.47,13.35-8.16,9.64.3,29.65,1.45,40.95,5.95,1.11.44,5.31,1.57,6.46,2.58l-.8-.75a5.84,5.84,0,0,0-.92-.72c-1.79-1.13-7.81-4.74-12.11-5.2-.13,0-29.21-4.66-38.74-4.66a9.41,9.41,0,0,0-2.53.23"/></clipPath><linearGradient id="linear-gradient-15" x1="-4871.81" y1="3033.49" x2="-4867.97" y2="3033.49" gradientTransform="matrix(35.04, 0, 0, -35.04, 171036.62, 106783.95)" xlink:href="#linear-gradient-9"/><clipPath id="clip-path-41"><path class="cls-5" d="M364.87,459.93h7.8V446.57s-6.32,10.63-6.79,13.36"/></clipPath><linearGradient id="linear-gradient-16" x1="-4457.75" y1="2005.53" x2="-4454.32" y2="2005.53" gradientTransform="matrix(-0.06, -4.14, -4.14, 0.06, 8381.69, -18115.87)" xlink:href="#linear-gradient-7"/><clipPath id="clip-path-42"><path class="cls-5" d="M367.1,459.93l6.48,0c-1-3-8.46-13.68-8.46-13.68Z"/></clipPath><linearGradient id="linear-gradient-17" x1="-4588.86" y1="1823.13" x2="-4584.96" y2="1823.13" gradientTransform="matrix(0, -3.74, -3.74, 0, 7194.81, -16717.74)" xlink:href="#linear-gradient-7"/><clipPath id="clip-path-43"><path class="cls-5" d="M367.82,413.11c-1,0-2.1,1.9-3.09,3.08-2.67,3.21-.53,17.6.19,21.92a2.45,2.45,0,0,1-.31,1.51c-1.13,2.26,1.37,18.54,2.28,24.22h6.93c-.07-2.51-.24-9.34,0-13.63.4-6.81-2.55-23.44-3.06-26.29a2.55,2.55,0,0,1,0-.87c.77-5.93-.76-9.94-2.85-9.94h.89"/></clipPath><linearGradient id="linear-gradient-18" x1="-4836.04" y1="2758.16" x2="-4832.14" y2="2758.16" gradientTransform="matrix(0, -12.34, -12.34, 0, 34408.49, -59225.32)" xlink:href="#linear-gradient-7"/><clipPath id="clip-path-44"><path class="cls-5" d="M367.82,413.11c-.94,0-2.05,1.86-3,3-2.63,3.15-1.58,7-.88,11.19.09.52,7.29-.81,6.79-3.61a2.64,2.64,0,0,1,0-.84c.76-5.82-.74-9.76-2.8-9.76h.89"/></clipPath><linearGradient id="linear-gradient-19" x1="-4577.87" y1="1653.44" x2="-4573.97" y2="1653.44" gradientTransform="matrix(0, -3.35, -3.35, 0, 5900, -14894.83)" gradientUnits="userSpaceOnUse"><stop offset="0" stop-color="#7a4f18"/><stop offset="0.3" stop-color="#764d19"/><stop offset="0.57" stop-color="#6b471c"/><stop offset="0.84" stop-color="#583d21"/><stop offset="1" stop-color="#493525"/></linearGradient><clipPath id="clip-path-45"><path class="cls-5" d="M381.19,425.75l5.8,9.91a9,9,0,0,1,1.2,4.07l0,.69c0,.06,0,.12,0,.18l2.22,19.33H396c-.29-5.93-1.46-22-1.67-23.11-.47-2.44-3-7.1-9.22-16.78.38,1.54-3,5.57-3.89,5.71"/></clipPath><linearGradient id="linear-gradient-20" x1="-4816.35" y1="2668.54" x2="-4812.45" y2="2668.54" gradientTransform="matrix(0, -10.16, -10.16, 0, 27500.64, -48473.54)" xlink:href="#linear-gradient-7"/><clipPath id="clip-path-48"><path class="cls-5" d="M392.18,459.93H396l-.86-13.34s-4.25,10.61-4.65,13.34"/></clipPath><linearGradient id="linear-gradient-23" x1="-4457.49" y1="1999.99" x2="-4454.07" y2="1999.99" gradientTransform="matrix(-0.06, -4.14, -4.14, 0.06, 8378.59, -18101.46)" xlink:href="#linear-gradient-7"/><clipPath id="clip-path-49"><path class="cls-5" d="M390.61,461.3l5.36.19c-.8-3-6.88-13.63-6.88-13.63Z"/></clipPath><linearGradient id="linear-gradient-24" x1="-4582.86" y1="1791.87" x2="-4578.96" y2="1791.87" gradientTransform="matrix(0, -3.67, -3.67, 0, 6971.06, -16362.5)" xlink:href="#linear-gradient-7"/><clipPath id="clip-path-50"><path class="cls-5" d="M345.23,433.52c-9.11.28-13.47,4.15-15.24,6.39a23.37,23.37,0,0,1-2.35,2.52c-6.8,6.32-6.8,29.21-6.8,29.21H329l1-14.43c2.32-19.87,12.25-21.94,12.25-21.94l7.78-2.22s-2.69.4-4.81.47"/></clipPath><linearGradient id="linear-gradient-25" x1="-4836.21" y1="2953.68" x2="-4832.31" y2="2953.68" gradientTransform="matrix(22.02, -0.01, -0.01, -22.02, 106835.58, 65459.73)" xlink:href="#linear-gradient-9"/><clipPath id="clip-path-51"><path class="cls-5" d="M322,467.74h3.6s.33-31.18,22.1-32.1a9.28,9.28,0,0,0-1.26-.07c-4.61,0-20.4,2.22-22.83,32.17"/></clipPath><linearGradient id="linear-gradient-26" x1="-4678.67" y1="2600.05" x2="-4674.96" y2="2600.05" gradientTransform="matrix(8.32, 0, 0, -8.32, 39251.95, 22095.96)" gradientUnits="userSpaceOnUse"><stop offset="0" stop-color="#312214"/><stop offset="0.09" stop-color="#3e2a19"/><stop offset="0.32" stop-color="#5b3d24"/><stop offset="0.55" stop-color="#6f4a2c"/><stop offset="0.78" stop-color="#7c5230"/><stop offset="1" stop-color="#805532"/></linearGradient><clipPath id="clip-path-52"><path class="cls-5" d="M322.32,467.74l-.13,2a1.76,1.76,0,0,0-1.08,2.86s3.23,1.38,4.74.22,0-2.87,0-2.87l0-2.23Z"/></clipPath><linearGradient id="linear-gradient-27" x1="-3473.9" y1="-132.58" x2="-3469.06" y2="-132.58" gradientTransform="matrix(0.02, -1.43, -1.43, -0.02, 202.87, -4503.91)" xlink:href="#linear-gradient-9"/><clipPath id="clip-path-53"><path class="cls-5" d="M321.87,472.68l.74-.56a1.37,1.37,0,0,1,.13-1,1.73,1.73,0,0,1,2.85.33c0,.16,0,.94,0,.94l.73.6c.34-2.07,0-3.21-2.47-3.21-2.95,0-2,2.89-2,2.89"/></clipPath><linearGradient id="linear-gradient-28" x1="-2367.98" y1="-2640.89" x2="-2363.29" y2="-2640.89" gradientTransform="matrix(0.01, -0.81, -0.81, -0.01, -1797.36, -1482.51)" xlink:href="#linear-gradient-9"/><clipPath id="clip-path-54"><path class="cls-5" d="M324.42,471.64c-.05.26-.81.22-.87.48-2.45,11.44-9.41,14.1-9.41,14.1v1h6.77c6.4-2.61,8-13.45,7.58-14.78a3.78,3.78,0,0,1-.83-.83Z"/></clipPath><linearGradient id="linear-gradient-29" x1="-5874.46" y1="3911.2" x2="-5870.55" y2="3911.2" gradientTransform="matrix(-4.3, 0, 0, 4.3, -24906.29, -16321.91)" xlink:href="#linear-gradient-9"/><clipPath id="clip-path-55"><path class="cls-5" d="M323.56,467.74s-.6,2.55-.28,2.93,2.09.39,2.09.39l.18-3.32Z"/></clipPath><linearGradient id="linear-gradient-30" x1="-2485.03" y1="-2377.46" x2="-2480.44" y2="-2377.46" gradientTransform="matrix(0.01, -0.85, -0.85, -0.01, -1672.4, -1671.91)" xlink:href="#linear-gradient-9"/><clipPath id="clip-path-56"><path class="cls-5" d="M318.05,483.35h-3.91v3.9h5.13c0-.79,6.25-2.75,7.14-14.72l-.82-1.07s.37,9.74-6.42,14"/></clipPath><linearGradient id="linear-gradient-31" x1="-3425.89" y1="-295.42" x2="-3421.83" y2="-295.42" gradientTransform="matrix(0.01, -1.37, -1.37, -0.01, -47.89, -4204.75)" xlink:href="#linear-gradient-7"/></defs><g id="Layer_2" data-name="Layer 2"><g id="Layer_1-2" data-name="Layer 1"><path class="cls-6" d="M502.61,670.06c0,22.65-112.51,41-251.31,41S0,692.71,0,670.06s115.19-49.12,254-49.12S502.61,647.41,502.61,670.06Z"/><path class="cls-7" d="M134,388.8s1.66,5,5.05,1.86,1-17.67,1-17.67-6.42,4.21-6.06,15.81"/><path class="cls-8" d="M136.83,383.22s-2,15.37,16.79,34.3,13.19-50.17,13.19-50.17-34-3.31-30,15.87"/><path class="cls-8" d="M276.7,169.85l0,0c-.47-55.93-16.44-87-32.41-87s-29,30.6-29.43,86.52h0v.6c0,.85-1.84,1.7-1.84,2.55a373.4,373.4,0,0,0,2.32,38.06c.23,2.41.47,4.68.74,6.85,3.84,31.81,10.06,40.05,12.4,94.17,1.38,31.87,13,40.33,15.82,40.33s15.82-8.1,15.82-40.33h0c3.84-60.34,7.32-50.53,12.8-86.44,2-14.37,4.19-39.66,4.19-52.21,0-.49.07-1,.07-1.47s-.46-1.11-.46-1.69"/><path class="cls-8" d="M252.21,287.85c-.82-.05-1.64-.08-2.47-.08s-1.64,0-2.44.08l0-.14c.8,0,1.61.06,2.42.06"/><path class="cls-9" d="M348.5,619.21s-8.81,17.94-37.7,5.57c0,0,31.45-18.37,37.7-5.57"/><path class="cls-8" d="M330.63,612.57c1.83-11.9,13.65-42.2,10.28-54L322.42,563c13.3,35.65-3,71.86-.14,75.58,3.57,4.66,69.64,39.19,70.08,33.6,3.25-41.67-62.4-55.31-61.73-59.64"/><path class="cls-9" d="M143.43,626.13c-.65,4.58,29.58,19,34.43,12.71,0,0-18.74-17-34.43-12.71"/><path class="cls-8" d="M155.23,593c.36,10.22.25,25.76-.65,33.5-.39,3.21-81.18,5.23-74.22,46.32,16.36,4.37,86.06-27.95,87.66-31.36,1.48-3.16-.49-28.71,15.69-52.11Z"/><polygon class="cls-10" points="250.71 297.47 203.32 366.29 281.5 366.29 250.71 297.47"/><path class="cls-7" d="M162.75,357.47a215.5,215.5,0,0,0-5,22,16.12,16.12,0,0,1-1.64,5c-2.16,4.1-9.39,16.75-2.25,31,.58,1.17.2,2.59-.14,3.84-2.22,8.37-2.23,45-2.56,66.74-.07,5,.72,15.28.86,20.31.29,10.81-1.92,17.54-.71,30.16,1,10-2.38,30.62-1.52,38.12.05.46-1.71,27.32-3.78,40.45a106.68,106.68,0,0,1-2.6,11.07,77.73,77.73,0,0,1,8.82.31c3.69.4,7.48,1.44,9.78,3.86l.92.79c2.09,2.14,12.28,5.66,14.91,7.75.77-.53,3.08-8.11,3.84-12.68a41,41,0,0,0,2.74-11.77c.43-4.94,5.44-18.44,6.61-23.25,2.5-10.21,5.79-33.53,6.35-34.76,1.46-3.23,14.11-49.54,33.69-102.51a8.55,8.55,0,0,1,5.76-5.3,39,39,0,0,1,11.94-.35,8.53,8.53,0,0,1,5.85,4c5.26,8.85,34.93,61.34,39.44,74.41.28,2.12,3.85,27.72,8.28,42.28,3.11,10.24,9.28,31.13,8.09,41.27-.13,1.11.77,13,.34,14.56,0,0,4.72-.22,9.39-.83a13.11,13.11,0,0,0,6.86-3.58c3.58-3.33,6.09-2.64,8.67-3.38a15.54,15.54,0,0,1,12.79,2.22s-4.41-18.86-4.49-19.49c-.86-6.17-3.33-53.79-3.77-59.61-1.19-16.21-1.6-19.72-.71-42.16,0-1.1,0-17.17,0-18.28.1-13.3,9.14-61.47-4.85-80.36-9.5-12.83-2.39-29.62.77-40.93A8.58,8.58,0,0,0,327,347.47l-156.22,3.71a8.57,8.57,0,0,0-8.06,6.29"/><g class="cls-11"><g class="cls-12"><g class="cls-13"><g class="cls-14"><rect class="cls-15" x="220.5" y="335.07" width="120.96" height="288.74"/></g></g></g></g><path class="cls-10" d="M274.75,143.35s1.35,35.45,1.34,40.25-27.6,70.26-27.6,70.26-28.86-23.44-33.39-44.63-8.26-45.09-4.31-58.65c2.5-8.57,12.62.94,22.74,4.86,6.11,2.36,15.13,5.33,19.38.35Z"/><g class="cls-16"><rect class="cls-17" x="236.1" y="167.29" width="19.51" height="81.94"/></g><g class="cls-18"><g class="cls-19"><path class="cls-20" d="M136.09,374.39a12,12,0,0,1,.5,4.29,13.87,13.87,0,0,0,.24,4.54,19.28,19.28,0,0,0-.05,2.11s6.46-13.87,19.28-12.65c0,0-.19-1.45,1.54-6.25s-21.43,7.79-21.51,8"/></g></g><path class="cls-7" d="M209.83,168.83s26.54,62.21,40.88,78S236,302.16,236,302.16Z"/><path class="cls-21" d="M148.62,171.22s-8.33-1.69-10.59,22.94-1.61,33.33-4.18,49.44S129,259.87,129,266.07c0,5.64-2.4,7.75-2.34,15.37a2.85,2.85,0,0,1-1.54,2.45c-1.12.62-2.63,2.69-3.85,8.76,0,0-5.16,10.23,1.93,21.83,0,0-5.22,7.24,1.87,13,0,0-2.48,23.52,2.67,27.39s6.3,33.89,6.3,33.89-.59-26.2,32.26-19,6.75-58.05,6.75-58.05,2.53-5.95-7.8-17.29c0,0,10.75-6.75,12.9-28.39,2.07-20.87-29.54-94.85-29.54-94.85"/><polygon class="cls-22" points="237.54 353.14 171.95 347.39 169.35 357.33 238.92 361.88 237.54 353.14"/><path class="cls-23" d="M236.66,165.05s-7.45-1.49-8.78-3,3.49-6.88,3.49-6.88l13.75,4.59,13.35-7.14.41,10.31a10,10,0,0,1-7.13,2.45c-4.23-.32-15.09-.31-15.09-.31"/><path class="cls-24" d="M253.3,164.24c-.93,1.58-2.1,5.21-3.22,6.37-.44.45-2.31.57-3,.58l-4.66,0a2.55,2.55,0,0,1-2-.92c-2.93-3.42-4-3.9-4.25-5.18-.18-.82-.84-7.21-.84-7.21.77-1.19.34-2.25,1.83-2.34l9,0c1.26-.08,6-.14,7,.66,1.54,1.29.93,6.66.16,8"/><polygon class="cls-25" points="323.65 348.07 255.73 352.56 256.8 361.74 325.99 357.44 323.65 348.07"/><polygon class="cls-22" points="254.98 352.95 236.57 353.44 238.92 362.38 257.73 362.14 254.98 352.95"/><g class="cls-18"><g class="cls-26"><path class="cls-27" d="M246.29,447.17c-23.38,2.44-13.23-67.8-7.78-85.06"/></g></g><g class="cls-28"><g class="cls-29"><g class="cls-30"><g class="cls-31"><rect class="cls-32" x="34.38" y="462.58" width="262.49" height="68.56" transform="matrix(0.09, -1, 1, 0.09, -344.6, 615.09)"/></g></g></g></g><path class="cls-27" d="M232.55,423.34c6.59,1.88,15.45-1,14.23-12.27-.06-.58-.06-1.16-.11-1.74-1.6-21.22,2.13-45.92,2.13-45.92"/><path class="cls-33" d="M254.08,350.68H232.2v15.61h23.71Zm-18,11.71V350.68h14.83l1.2,11.71Z"/><path class="cls-7" d="M276.57,168.83s-15.46,56.32-30.18,74.72c0,0-6.26,5.16-2.95,36.44.83,7.83,6,74.06,13.16,83.34,8.38,10.85,18.52-1.27,18.52-1.27Z"/><path class="cls-27" d="M276.57,168.83s-15.46,56.32-30.18,74.72c0,0-6.26,5.16-2.95,36.44.83,7.83,6,74.06,13.16,83.34,8.38,10.85,18.52-1.27,18.52-1.27Z"/><path class="cls-22" d="M247.55,283.77a2.21,2.21,0,1,1,3.13,0,2.2,2.2,0,0,1-3.13,0"/><g class="cls-18"><g class="cls-34"><path class="cls-20" d="M156.61,383.1l-.55,14.77L213,375.47s19.48-7,25.88-21.42c0,0,23.72-39,15.47-44.8,0,0-97.22,66.68-97.75,73.85"/></g></g><path class="cls-35" d="M211.43,143.35s-4.25,7.26-15.37,9.87l-47.44,18s-1.64,6.54,5.56,20.61c0,0,8.56,33.46,18.16,50,0,0,2.64,18.23,8.64,31.43,0,0-3.84,14.15.48,26.15,0,0-14.44,7.47-16.94,21.4,0,0-19.48,21.81-5.18,39.68,0,0-4.82-.58-5.35,6.59,0,0-5.26,21.92-7.27,21.7L215,362.67s19.48-7,25.88-21.43c0,0,23.71-38.95,15.47-44.8,0,0-77.22-113-44.9-153.09"/><g class="cls-36"><g class="cls-37"><path class="cls-38" d="M214.6,142.75S207.52,153.59,197,157.3c0,0-6.5,4.84-9.1,10.78l9.85,3.16-15.24,8.92s25,72.84,70.38,117a53.06,53.06,0,0,0-2.54-8.06C240.53,267.38,202,180.94,214.6,142.75"/></g></g><g class="cls-39"><g class="cls-40"><g class="cls-41"><g class="cls-42"><rect class="cls-43" x="228.3" y="362.39" width="89.74" height="132.67"/></g></g></g></g><g class="cls-18"><g class="cls-44"><path class="cls-20" d="M285,148.27l64.23,15.87L332,234.25l1.27,41.16s-5.07,32,5.38,50.34S342,432.36,342,432.36s-26.64,8-31.37,8-16.11,6.12-27.93-17.19c-26.35-52-32.67-107.31-34.39-121.06C252.2,288.29,285,148.27,285,148.27"/></g></g><path class="cls-45" d="M285,143.35l64.23,15.87L332,229.33l1.27,41.16s-5.07,32,5.38,50.33S351,426,351,426s-35.66,9.45-40.39,9.45-16.11,6.13-27.93-17.19c-26.35-52-32.67-107.3-34.39-121C252.2,283.37,285,143.35,285,143.35"/><g class="cls-46"><rect class="cls-47" x="294.63" y="206.31" width="31.22" height="19.51"/></g><g class="cls-36"><g class="cls-48"><path class="cls-49" d="M273.62,237.47l52.14-3.17s2.4-6.81,0-9.93l-50.65,3.51Z"/></g></g><path class="cls-21" d="M274.6,235.5l52.15-3.18s2.4-7.79,0-10.91l-50.66,3.51Z"/><g class="cls-36"><g class="cls-50"><path class="cls-38" d="M272.08,138s6.91,3.34,9,5.7c7.83,9,15.65,5.53,22,20.16L293,167l15.13,6.36-19.88,50.75L289,224l-4.71,10.88-.6,0s-27.36,60.3-34.86,62.14a1.5,1.5,0,0,0-.46.36l0-.28s.2-1.05,1.05-3.92c5.65-19,29.43-103.51,22.74-155.22"/></g></g><path class="cls-21" d="M272.08,133.11s6.91,3.33,9,5.7c7.83,9,15.65,5.52,22,20.16L293,162l15.13,6.36s-46.33,120.48-58.83,125.09c0,0,30.71-99.47,22.82-160.38"/><path class="cls-22" d="M258.42,298.31a3.86,3.86,0,1,1-3.86-3.85,3.86,3.86,0,0,1,3.86,3.85"/><path class="cls-22" d="M238.17,337.61c-.88-1.06-3.14-.65-5,.93s-2.71,3.72-1.83,4.78,3.15.66,5-.92,2.72-3.72,1.83-4.79"/><path class="cls-22" d="M260.41,343a37.6,37.6,0,0,0,11.09-2.24c1.24-.45.12-1.24-.79-.91a34,34,0,0,1-10.08,2c-1,0-1.53,1.24-.22,1.18"/><path class="cls-22" d="M246.92,255.43a2.22,2.22,0,1,1,3.14,0,2.22,2.22,0,0,1-3.14,0"/><path class="cls-51" d="M244.93,157.26s-5.07,1-24.75,27.09c0,0-14.73-23.49-4.64-46.65,0,0,7.39,19.89,29.39,19.56"/><path class="cls-52" d="M244.93,157.26s-5.07-2-24.75,24.13c0,0-14.73-23.49-4.64-46.65,0,0,7.39,22.85,29.39,22.52"/><path class="cls-51" d="M244.93,157.26s6.56,1.49,23.83,25.5c0,0,4.47-13.33,4.63-19.23a281.92,281.92,0,0,0-.8-28.45s-12.16,20.27-27.66,22.18"/><path class="cls-52" d="M244.93,157.26s6.56-1.47,23.83,22.54c0,0,4.47-13.33,4.63-19.23a282.1,282.1,0,0,0-.8-28.45s-12.16,23.23-27.66,25.14"/><path class="cls-22" d="M257.49,297.42l5.92.28c.65,0,2-.89.78-.95l-5.93-.29c-.65,0-2.05.9-.77,1"/><g class="cls-53"><g class="cls-54"><path class="cls-55" d="M287.51,143.91l7,1.79c-9.06,5.79-35.81,13.56-48.58,13.54-13.53,0-38.24-3.58-47.05-7.62,0,0,5-1.46,13-10.23,3.17-3.5,2.13-15.9,35.46-15.9,17,0,25.7,4.46,29.84,9.59,3.59,4.45,10.35,8.83,10.35,8.83"/></g></g><path class="cls-8" d="M197.39.83c6.59-3.67,25,17.46,30.09,37.12,0,0-27.68,58.23-37.85,27.08S190.8,4.5,197.39.83"/><path class="cls-56" d="M199.55,13.3c4.3-2.39,16.31,11.37,19.6,24.18,0,0-18,37.94-24.66,17.65s.76-39.44,5.06-41.83"/><path class="cls-8" d="M289.5.41C283-3.2,264.84,17.61,259.86,37c0,0,27.26,57.34,37.28,26.67,2.2-6.71,3.53-10.63,4.18-17.26A105.08,105.08,0,0,0,301.15,25c-2-13.85-8-22.57-11.65-24.61"/><path class="cls-56" d="M287.32,10.85c-4.23-2.36-16,13.05-19.26,25.66,0,0,17.76,37.37,24.29,17.38,2.83-8.64,3.92-17.11,2.94-24.08-1.29-9.16-5.58-17.62-8-19"/><path class="cls-57" d="M307.18,85.41c0,31.94-44.83,62.53-63.32,62.53s-63.32-30.59-63.32-62.53,21.84-60.47,63.32-60.47,63.32,28.52,63.32,60.47"/><path class="cls-8" d="M239,97.05s-2.38-24.39-4.19-31.5c-3.49-13.73-20.52-20.12-35.52-13.39-14.51,6.52-16.23,26.35-16.23,26.35s-2.2,26.58-2.2,0,23.08-56.87,62.84-56.87c6.35,0,11.31-1.37,16.8,0,28.86,7.2,46.36,33.71,46.36,56.87,0,24.55-2.2,0-2.2,0s.6-11.7-7.53-20.08a28.45,28.45,0,0,0-8.7-6.27c-15-6.73-35.14-1.46-35.52,13.39-.19,7.34-4.19,31.5-4.19,31.5Z"/><path class="cls-57" d="M318,103.9c0,19.93-17.4,38-38.93,38-1.74,0-5.52.59-7.2.39-19.11-2.33-31.78-18.15-31.78-36.48,0-19.93,17.45-36.09,39-36.09S318,84,318,103.9"/><path class="cls-57" d="M248.59,106.63c0,20.4-17.87,36.93-39.9,36.93-18.37,0-34.3-12.34-38.92-28.5-.93-3.23-.9-7.31-.9-10.71,0-20.4,17.79-34.65,39.82-34.65s39.9,16.53,39.9,36.93"/><path class="cls-58" d="M251.71,128.27h-14.5a1.11,1.11,0,0,1-1.11-1.11v-10.6h15.61v10.77c0,.47-.35.94-1.23.94"/><path class="cls-8" d="M238.23,97.05s-1.55-24.39-3.36-31.5c-3.5-13.73,19.51-14.1,18.09,0-.92,9.09-4.23,31.5-4.23,31.5Z"/><path class="cls-59" d="M209.09,32.51c.86.32,1.17-2.85-.14-4.56,1.8.31,3.69,1,3.15,3.34l-4.44,3.25L203,38a3.16,3.16,0,0,1-.42-1.79c.17-.78.67-2.29-.12-3.12a4.42,4.42,0,0,1,2.33,1.48c1,1.22,2.54-1.59-.44-4.66,5.08.05,4.26,2.34,4.77,2.63"/><polygon class="cls-60" points="251.71 124.04 236.1 125.41 236.1 116.56 251.71 116.56 251.71 124.04"/><g class="cls-53"><g class="cls-61"><path class="cls-55" d="M243.66,107.74c0,11.57-7,21.65-20.44,21.65s-26.44-7.58-26.44-19.15,11.64-20.51,25.07-20.51,21.81,6.45,21.81,18"/></g></g><g class="cls-53"><g class="cls-62"><path class="cls-55" d="M286.21,113.77c-2.95,11.19-12.31,19.15-25.29,15.73s-23.64-14.07-20.69-25.25,16.49-16.88,29.48-13.45,19.44,11.8,16.5,23"/></g></g><path class="cls-63" d="M247.77,107.74c0,11.57-12.6,19.86-26,19.86s-22.6-8.29-22.6-19.86S210,86.8,223.45,86.8s24.32,9.38,24.32,20.94"/><path class="cls-63" d="M287.87,106.45c0,11.56-10.66,22.38-24.09,22.38s-24.31-9.37-24.31-20.94S250.35,87,263.78,87s24.09,7.94,24.09,19.5"/><path class="cls-56" d="M255.05,98.26c0,4.81-8.08,9.48-11.31,9.48s-11.31-4.67-11.31-9.48,5.06-8.7,11.31-8.7,11.31,3.89,11.31,8.7"/><path class="cls-58" d="M284.25,67.71c3.18,11.51-16.51,21.87-26.06,10.84-3.54-5.23-1.87-10.47,8.8-14.18,6.59-2.3,15.79-1.19,17.26,3.34"/><path class="cls-64" d="M258.57,70.3c-1.82,5,1.34,10.3,7.06,11.89s11.83-1.17,13.65-6.14-1.34-10.3-7.06-11.88-11.83,1.16-13.65,6.13"/><path class="cls-8" d="M285.81,69a38.67,38.67,0,0,0-27.33-.46s8.38-9.6,23.35-5.78c8.24,2.1,4,6.24,4,6.24"/><path class="cls-60" d="M261.85,71a1.57,1.57,0,0,0,1.19,2,1.92,1.92,0,0,0,2.31-1,1.57,1.57,0,0,0-1.2-2,1.91,1.91,0,0,0-2.3,1"/><path class="cls-65" d="M274.29,79.62c-.13-.43-1.64-.19-2.13-.07a.79.79,0,0,0-.64,1c.13.43.69.42,1.18.3s1.73-.79,1.59-1.22"/><path class="cls-58" d="M202.71,67.79c-2.77,11.6,17.3,21.41,26.44,10.12,3.35-5.32,1.49-10.52-9.31-13.94-6.67-2.11-15.83-.74-17.13,3.82"/><path class="cls-64" d="M228.47,69.68c2,4.92-1,10.33-6.62,12.07S210,80.91,208,76s1-10.33,6.62-12.07,11.87.84,13.87,5.76"/><path class="cls-8" d="M201.2,69.15a38.57,38.57,0,0,1,27.3-1.21S219.77,58.58,205,62.8c-8.16,2.33-3.75,6.35-3.75,6.35"/><path class="cls-60" d="M225.22,70.51a1.54,1.54,0,0,1-1.12,2,1.91,1.91,0,0,1-2.34-1,1.55,1.55,0,0,1,1.12-2,1.92,1.92,0,0,1,2.34,1"/><path class="cls-65" d="M213.09,79.42c.12-.43,1.63-.23,2.13-.13a.82.82,0,0,1,.69,1c-.13.44-.68.44-1.18.34s-1.76-.75-1.64-1.18"/><path class="cls-7" d="M345.48,383.28s16.11,7.38,45.48,7.38c0,0-27.86-23-45.48-7.38"/><g class="cls-66"><rect class="cls-67" x="357.88" y="407.31" width="42.32" height="56.76" transform="translate(-71.01 73.82) rotate(-10.18)"/></g><path class="cls-8" d="M386.71,377c-.08,3.38,0,11.1,0,12.65a2.39,2.39,0,0,0,.06.53c.4,2,3,15.16,3,19.36s-4.38,12.81-9.24,18.53a15.73,15.73,0,0,1-8.48,4.89,9.3,9.3,0,0,1-7.49-1.52L356.87,426a2.92,2.92,0,0,1-.39-4.42l2.39-2.42a2.9,2.9,0,0,1,4.26.12l0,0a2.93,2.93,0,0,0,3,.88l.54-.15a2.93,2.93,0,0,0,1.9-1.67c.68-1.62,1.71-4.24,1.45-4.76-1-1.95-3.4-1.08-3.4-1.08a6,6,0,0,0-1.55.24l-1.19-.42-4.15,9.87a2.92,2.92,0,0,1-5.39,0L352,416.51a7,7,0,0,1-.49-2,27.33,27.33,0,0,1,.6-9.23c.46-1.69-2.14-6.51,2.15-15.67,3.44-7.33,4.86-11,5.28-12.2a3.29,3.29,0,0,0,.18-.87l.26-6.67"/><g class="cls-18"><g class="cls-68"><path class="cls-20" d="M354.46,389.24s8.83-2.16,33.13,5.16l-1.27-6.92-29-4.28Z"/></g></g><path class="cls-21" d="M349.26,159.22s5.57-1,9.54,7.88c2.55,5.69,5.48,12.52,7.26,16.68A22.11,22.11,0,0,1,367.8,191a42.71,42.71,0,0,0,1.71,10c1.83,5.51,13.43,40.78,14.36,62.68a86.8,86.8,0,0,1,.07,9.82,3.25,3.25,0,0,0,.12,1.2c.78,2.79,3.91,14.31,4.71,24.45.91,11.62,3.09,41.48.81,58.15-.27,2-.78,10.64-.85,12.53a102.36,102.36,0,0,0-.06,10.52L391,390.66s-24.33-7.53-45.48-7.38c2.46-6.29,1.91-15.44,2.77-21.34.84-5.68-3.26-18.07,2.07-29.6a4.5,4.5,0,0,0,.22-3.17c-3.31-11.14-14.27-21.18-11.45-47l-5.82-11.72L332,229.33Z"/><path class="cls-69" d="M387.4,369.75c-.9-.05-1.59-1.07-1.53-2.3s.83-2.18,1.74-2.13,1.58,1.07,1.53,2.29-.84,2.18-1.74,2.14"/><path class="cls-69" d="M387.87,380.22c-.92.07-1.75-.86-1.84-2.08a2,2,0,0,1,1.5-2.34c.93-.07,1.75.86,1.85,2.08a2,2,0,0,1-1.51,2.34"/><g class="cls-36"><g class="cls-70"><path class="cls-38" d="M341.2,330.08l3.09,10.63s.58,2.84-.11,3l-31.09,6.46s-4.12,1.2-5.91-4.84c-1.12-3.79-2.44-9.58-3.25-11.17-.38-.72,35.93-4.88,35.93-4.88a1.19,1.19,0,0,1,1.34.81"/></g></g><path class="cls-21" d="M341.2,327.13l3.87,12.08a1.19,1.19,0,0,1-.89,1.53l-31.09,6.47s-4.12,1.2-5.91-4.84a47.75,47.75,0,0,0-3.25-8.22,1.19,1.19,0,0,1,.85-1.72l35.08-6.11a1.18,1.18,0,0,1,1.34.81"/><g class="cls-36"><g class="cls-71"><path class="cls-38" d="M164.07,324.31c.29-.35.29-6.35,27.12-.57l-7.69,15.18a10.4,10.4,0,0,1-3.36,3.37,5.7,5.7,0,0,1-4.22.92c-3.3-.84-15.36-9.33-19.86-5.08a53.33,53.33,0,0,1,8-13.82"/></g></g><path class="cls-21" d="M164.07,321.35c.29-.35.29-3.4,27.12,2.38L183.5,336a10.5,10.5,0,0,1-3.36,3.37,5.7,5.7,0,0,1-4.22.91c-3.3-.83-15.36-9.32-19.86-5.08a53.5,53.5,0,0,1,8-13.82"/><g class="cls-18"><g class="cls-72"><path class="cls-20" d="M294.89,223.62s17.81,2.17,19.62,4.13c0,0,3.23-5.71,6.81-6l-26.43,1.83"/></g></g><g class="cls-18"><g class="cls-73"><path class="cls-20" d="M154,417.89s5.28,13.94,22.93,20.54,17.43,21.28,17.43,21.28-10.51-3.47-14-7.19c-2.84-3.07-5.51-5.52-10.6-6.22-2.47-.34-4.41-7-6.55-9.49-6.94-8.15-10.59-9.87-10.52-10.34a70.53,70.53,0,0,1,1.27-8.58"/></g></g><g class="cls-74"><g class="cls-75"><path class="cls-20" d="M213.42,359.08c-43,1.13-59.43,8-59.43,8s0-6.46,5.34-6.59c12.6-2.56,41.51-2.13,54.09-1.42"/></g></g><g class="cls-74"><g class="cls-76"><path class="cls-20" d="M181,273.27s19.84,16.07,23.17,19-.61,7.84,1.36,14.14l2,6.31a8.79,8.79,0,0,1-8.33-7.21c-1.58-7.2,3-10.27-4.92-13.24a109.31,109.31,0,0,0-14.79-4.37A33.51,33.51,0,0,1,181,273.27"/></g></g><g class="cls-74"><g class="cls-77"><path class="cls-20" d="M333.27,270.48s-4.31,18.51-10,19.26-26.75,16.58-23,30.5c0,0,18.29-21.25,21.39-20.82S332,294.67,332,294.67Z"/></g></g><g class="cls-18"><g class="cls-78"><path class="cls-20" d="M255.05,445c8.82,11.76,31.5,55.09,38.83,57.44,0,0,.55,11.72,6.57,17.49,0,0,6.41,58.3,6.09,57.29-7.12-22.42-10.38-48.59-10.75-50.63-.47-2.65-42.58-78.33-42.58-78.33s-7.93-3.05-20.22,1.69c-.85.33-3.43,8-21.83,62.09-.49,1.44-9,30.69-13.76,44.38-.08.23-.57,3-2.76,12.61-.09.39,5.59-44.42,5.66-44.92.31-2.26,5.18-19.26,5.5-19.84,12.61-23.86,18.7-48,21.75-59.17a6.31,6.31,0,0,1,6.18-4.67l12.6.13a11.12,11.12,0,0,1,8.72,4.44"/></g></g><g class="cls-79"><g class="cls-80"><g class="cls-81"><g class="cls-82"><rect class="cls-83" x="364.87" y="401.4" width="11.71" height="19.51"/></g></g></g></g><path class="cls-22" d="M304.25,61a.56.56,0,0,0-.54-.43,89.79,89.79,0,0,1-9.3-.57,45.85,45.85,0,0,0-9.74,0c-2.26.1-28.59-.3-30.46.14a13.74,13.74,0,0,0-1.8.62,4.31,4.31,0,0,1-2.37.61c-1.46,0-3.77-.07-6.32-.14s-4.86.12-6.32.14a4.25,4.25,0,0,1-2.36-.61,14.11,14.11,0,0,0-1.81-.62c-1.87-.44-28.2,0-30.45-.14A45.86,45.86,0,0,0,193,60c-3.13.51-8,.86-9.69,1a.59.59,0,0,0-.51.44l-.69,3.19a.39.39,0,0,0,.37.48c1.17,0,1.95.52,2.1,1.21.3,1.34.78,3.41,1.17,5.1.57,2.5.78,5.79,2.77,11.19,2.07,5.61,3.08,6.34,7.55,8.3s9.54,2.5,17.92,2.5c0,0,10.11-.42,12.75-1.11,5-1.31,6.85-2.49,8.42-5.84.78-1.66,3.28-12.29,4-15.43a2.3,2.3,0,0,1,1.14-1.45,5.58,5.58,0,0,1,6.68,0A2.33,2.33,0,0,1,248.2,71c.76,3.14,3.26,13.77,4,15.43,1.57,3.35,3.43,4.53,8.42,5.84,2.64.69,12.75,1.11,12.75,1.11,8.38,0,13.45-.55,17.92-2.5s5.48-2.69,7.55-8.3c2-5.4,2.2-8.69,2.78-11.19.39-1.69.85-3.76,1.16-5.1.15-.69,1.43-1.4,2.16-1.49a.34.34,0,0,0,.27-.43ZM232.74,78.3c-.5,2.78-1.28,5.56-3.58,7.58s-5.82,2.77-8.74,3c-1,.07-11,.28-13.8,0-3.15-.32-8.23-1.8-9.93-4C192,78.62,193.45,70,194,67.73c.68-3,3.64-2.93,4.55-3.12,2.76-.57,26.8-.28,29.72,0a4.72,4.72,0,0,1,4.29,4.44,29.6,29.6,0,0,1,.23,9.25m58,6.5c-1.71,2.25-6.79,3.73-9.94,4-2.76.28-12.78.07-13.8,0-2.92-.2-6.57-1.06-8.73-3-2.31-2-3.08-4.8-3.59-7.58a29.31,29.31,0,0,1,.24-9.25,4.7,4.7,0,0,1,4.28-4.44c2.92-.28,27-.57,29.72,0,.92.19,3.87.08,4.55,3.12.5,2.23,1.95,10.89-2.73,17.07"/><g class="cls-74"><g class="cls-84"><path class="cls-85" d="M232.74,78.3c-.5,2.78-1.28,5.56-3.58,7.58s-5.82,2.77-8.73,3c-1,.07-11.05.29-13.81,0-3.15-.32-8.22-1.8-9.93-4C192,78.62,193.46,70,194,67.73c.68-3,3.63-2.93,4.55-3.12,2.76-.56,26.8-.28,29.72,0a4.72,4.72,0,0,1,4.29,4.44,29.31,29.31,0,0,1,.23,9.25"/></g></g><g class="cls-74"><g class="cls-86"><path class="cls-85" d="M290.76,84.8c-1.71,2.25-6.79,3.73-9.94,4-2.76.28-12.78.07-13.8,0-2.92-.2-6.57-1.06-8.73-3-2.31-2-3.08-4.8-3.59-7.58a29.31,29.31,0,0,1,.24-9.25,4.7,4.7,0,0,1,4.28-4.44c2.92-.28,27-.57,29.72,0,.92.19,3.87.08,4.55,3.12.5,2.23,1.95,10.89-2.73,17.07"/></g></g><g class="cls-87"><g class="cls-88"><path class="cls-22" d="M223.09,28.14s-2.64,8.43,5.25,11.78,23.5-8.54,35.68-5-.42,9.34-.42,9.34,24.25-9.91,16.13-13.12C273,28.5,266,29.54,264.57,26.87a5,5,0,0,0-3.94-2.34c-13.07-1.68-35.33-3-37.54,3.61"/></g></g><g class="cls-89"><rect class="cls-90" x="357.39" y="419.38" width="8.84" height="13.13" transform="translate(-44.64 42.36) rotate(-6.31)"/></g><path class="cls-91" d="M222.09,26.17S219.38,34.6,227.47,38s24.09-8.54,36.59-5-.42,9.34-.42,9.34,24.85-9.91,16.52-13.12c-6.87-2.65-14.11-1.61-15.54-4.28a5.13,5.13,0,0,0-4-2.34c-13.4-1.68-36.22-3-38.49,3.61"/><path class="cls-92" d="M313.65,474.74s8.47-1,15.57-1a36,36,0,0,1,6.62.47h0a36,36,0,0,0-6.62-.47c-7.1,0-15.57,1-15.57,1Z"/><g class="cls-93"><rect class="cls-94" x="403.89" y="467.74" width="3.9" height="3.9"/></g><g class="cls-95"><rect class="cls-96" x="330.84" y="405.22" width="49.65" height="52.71" transform="translate(-181.57 276.23) rotate(-34.38)"/></g><g class="cls-97"><rect class="cls-98" x="348.99" y="408.43" width="25.16" height="24.7" transform="translate(-174.44 277.68) rotate(-34.38)"/></g><g class="cls-99"><rect class="cls-100" x="304.68" y="462.41" width="132.09" height="73.08" transform="translate(-131.19 865.66) rotate(-89.54)"/></g><g class="cls-101"><rect class="cls-102" x="333.74" y="468.08" width="80.38" height="99.77" transform="matrix(1, -0.05, 0.05, 1, -25.79, 19.63)"/></g><g class="cls-103"><rect class="cls-104" x="291.34" y="453.02" width="131.46" height="91.87" transform="translate(-146.69 849.21) rotate(-89.22)"/></g><g class="cls-105"><rect class="cls-106" x="364.87" y="448.23" width="7.8" height="11.71"/></g><g class="cls-107"><rect class="cls-108" x="364.12" y="447.03" width="10.44" height="14.81" transform="translate(-64.81 61.45) rotate(-8.75)"/></g><g class="cls-109"><rect class="cls-110" x="357.87" y="411.07" width="20.53" height="51.09" transform="translate(-71.34 71.9) rotate(-10.18)"/></g><g class="cls-111"><rect class="cls-112" x="360.95" y="411.03" width="11.72" height="16.13" transform="translate(-68.27 71.39) rotate(-10.18)"/></g><g class="cls-113"><rect class="cls-114" x="377.78" y="420.61" width="21.59" height="41.87" transform="translate(-71.89 75.59) rotate(-10.18)"/></g><g class="cls-105"><rect class="cls-106" x="364.87" y="448.23" width="7.8" height="11.71"/></g><g class="cls-107"><rect class="cls-108" x="364.12" y="447.03" width="10.44" height="14.81" transform="translate(-64.81 61.45) rotate(-8.75)"/></g><g class="cls-115"><rect class="cls-116" x="392.18" y="448.23" width="3.9" height="11.71"/></g><g class="cls-117"><rect class="cls-118" x="388.09" y="447.42" width="8.87" height="14.52" transform="translate(-64.58 64.98) rotate(-8.75)"/></g><g class="cls-119"><rect class="cls-120" x="314.26" y="436.68" width="38.79" height="30.89" transform="translate(-121.26 781.98) rotate(-89.52)"/></g><g class="cls-121"><rect class="cls-122" x="322.1" y="440.63" width="30.9" height="23" transform="translate(-119.01 783.66) rotate(-89.24)"/></g><g class="cls-123"><rect class="cls-124" x="321.95" y="463.84" width="7.8" height="7.8"/></g><g class="cls-125"><rect class="cls-126" x="321.95" y="467.74" width="3.9" height="3.9"/></g><g class="cls-127"><rect class="cls-128" x="310.04" y="469.47" width="19.59" height="19.27" transform="translate(-254.12 528.14) rotate(-61.16)"/></g><g class="cls-129"><rect class="cls-130" x="321.95" y="467.74" width="3.9" height="3.9"/></g><g class="cls-131"><rect class="cls-132" x="310.24" y="471.64" width="15.61" height="15.61"/></g><path class="cls-133" d="M387.38,524.41l-3.77,1.7,0-1.16,2.34-1a1,1,0,0,0,.48-.79l.08-2.94c0-.33-.19-.51-.43-.42l-4,1.53.37-10.56c4.57-1.85,7.83-7.09,7.94-12.45.13-5.72-3.37-10.46-8.37-10.74-5.74-.31-11.41,5.25-11.84,12.64-.39,6.78,3.86,11.46,9.16,11.24l-1,23.58h0c0,1.21.73,1.77,1.67,1.25a4.09,4.09,0,0,0,1.75-3l5.41-2.89a1.06,1.06,0,0,0,.46-.83l.12-4.73c0-.32-.18-.49-.42-.38m-13.69-24.55c.27-5.12,4.14-9.18,8.22-9.12,3.7.05,6.36,3.5,6.25,7.76s-3.06,8.48-6.9,9.26c-4.24.87-7.84-2.67-7.57-7.9"/><path class="cls-8" d="M353,416.54a1.63,1.63,0,0,1,.42-1.72c4.2-4,11.47-3.33,11.47-3.33v.7c-.06.6.11,3.89,0,4.81-.37,3.15-.37,4.34-.8,7-.27,1.64-.18,3.24-1.6,4.32-2.06,1.55-4.8-.72-5.51-1.55-.59-.68-3.08-7.68-4-10.23"/><path class="cls-69" d="M131.54,365.92c-.45.06-.94-.87-1.1-2.09s.08-2.24.53-2.3.94.88,1.09,2.09-.07,2.24-.52,2.3"/><path class="cls-69" d="M133.4,374.74c-.45,0-.89-.93-1-2.15s.2-2.24.65-2.27.89.92,1,2.14-.19,2.24-.64,2.28"/></g></g></svg>