<?xml version="1.0" encoding="utf-8"?>
<!-- Generator: Adobe Illustrator 25.2.1, SVG Export Plug-In . SVG Version: 6.00 Build 0)  -->
<svg version="1.1" id="Layer_1" xmlns="http://www.w3.org/2000/svg" xmlns:xlink="http://www.w3.org/1999/xlink" x="0px" y="0px"
	 viewBox="0 0 534.5 700.1" style="enable-background:new 0 0 534.5 700.1;" xml:space="preserve">
<style type="text/css">
	.st0{opacity:0.15;fill:#C7B299;enable-background:new    ;}
	.st1{opacity:0.25;fill:#231F20;enable-background:new    ;}
	.st2{fill:#775641;}
	.st3{fill:#805D43;}
	.st4{fill:none;}
	.st5{opacity:0.1;fill:#1A1A1A;enable-background:new    ;}
	.st6{fill:#A77D50;}
	.st7{opacity:0.25;fill:#775641;enable-background:new    ;}
	.st8{fill:#3F4040;}
	.st9{fill:#4D4E4E;}
	.st10{opacity:0.15;fill:#78583B;enable-background:new    ;}
	.st11{opacity:0.3;fill:#775641;enable-background:new    ;}
	.st12{fill:#754E29;}
	.st13{fill:#C1966B;}
	.st14{fill:#E7E5E4;}
	.st15{fill:#5C4C43;}
	.st16{fill:#CFD0D1;}
	.st17{fill:#FFFFFF;}
	.st18{opacity:0.1;fill:#603B19;enable-background:new    ;}
	.st19{opacity:0.2;fill:#603B19;enable-background:new    ;}
	.st20{fill:#D6B17E;}
	.st21{opacity:0.5;fill:#FFFFFF;enable-background:new    ;}
	.st22{opacity:0.2;fill:#775641;enable-background:new    ;}
	.st23{fill:#59351A;}
	.st24{opacity:0.35;fill:#59351A;enable-background:new    ;}
	.st25{fill:#492B1A;}
	.st26{opacity:0.35;fill:#492B1A;enable-background:new    ;}
	.st27{fill:#20140E;}
	.st28{fill:#694119;}
	.st29{fill:#BF9262;}
	.st30{opacity:0.35;}
	.st31{fill:#A77C4F;}
	.st32{fill:#986841;}
	.st33{fill:#422815;}
	.st34{fill:#5B381A;}
	.st35{fill:#854A16;}
	.st36{fill:#269A48;}
	.st37{opacity:0.15;fill:#1B301B;enable-background:new    ;}
	.st38{fill:#633D1F;}
	.st39{opacity:0.5;}
	.st40{fill:#7A5A3C;}
	.st41{opacity:0.1;fill:#775641;enable-background:new    ;}
	.st42{opacity:0.25;}
</style>
<g id="Layer_2_1_">
	<g id="Layer_1-2">
		<path class="st0" d="M250.4,609.4c139.7,0,255.7,26.7,255.7,49.5s-113.3,41.3-253,41.3s-253-18.5-253-41.3
			C0.1,636,110.7,609.4,250.4,609.4z"/>
		<path class="st1" d="M29.2,81.9c0,3.5,0.3,10.4,1.3,11.9s4.7,10.9,5.1,12.6s2,5.8,3.9,7.4c1.2,1.1,0.6,1.7,1.5,2.6
			c0.4,0.4,1.2,0.3,1.6,0.7s0.9,0.9,1.3,1.3c2.9,2.8,6.4,5.9,7.9,5.7c1.3,0,2.6,0.2,3.9,0.7c0.1,0.3,0.3,0.5,0.5,0.7
			c0.5,0.5,1.6,0.4,2.2,1l1.8,1.8c3.9,3.9,8.6,7.9,10.6,7.7c1.7-0.2,4.1,0.7,7.1,1.3h0.1c0.2,0.1,0.4,0.2,0.6,0.4
			c0.7,0.7,1.5,1.5,2.3,2.3c5.1,4.9,11.1,10.2,13.7,9.9c2.2-0.3,5.3,0.9,9.2,1.7c0.8-0.3,1.7-0.5,2.6-0.6c0.3,0.2,0.1,1.1,0.2,1.1
			l0,0v0.1c0.5-0.2,6.6,0.8,10.2-0.1c3.8-0.9,9.1-0.9,13.7-0.9l1.3,0.1c1.3,0.1,2.6,0,3.9-0.1l1.4-0.1c0.4,0,0.7-0.1,1-0.3
			c6.6-1.4,11.9-4.7,15.3-5c1-0.1,2.4-1.1,4-2.7h0.3v-0.3c2.7-2.9,5.1-6,7.3-9.3c0.6-0.9,1.3-1.8,1.8-2.6s2.1-1,2.5-1.7
			c1.2-1.8-0.1-2.6,1.7-4.8c2.8-3.4,4.2-10.8,4.4-13.9s3.5-20.4,4.8-23.2c0.6-1.5,0.5-5.7,0-10.1l5.2-0.3
			c-0.5,5.8,1.1,11.9,7.7,13.4c-0.9,21.1-3.7,95.7,1,116.2c2.1,8.9,6.3,34.2,13,47.9c-0.3,0.5-0.6,1.1-0.9,1.6
			c-1.1,2-14.1,24.4,0,41.4c1.5,10.8,4.2,16.7,6,19.8c0,6.6,1.4,13.2,4,19.2c-0.7,5,1.8,18.1,2.4,20.3c0.4,1.5,2.2,4.4,3.4,6h-0.3
			c0,4-0.4,13,3.4,23.1c-0.5,1.3-1.2,2.9-2,5.1c-18.6,48.9-15.6,56.5-15.3,90.1l1.4,0.3c-0.5,18.1,1.4,50.1,17,83.1
			c25.1,52.7,25.2,71.6,14.1,71.9c-84.9,2.6-63.4,23.1-60.5,26.1c30.3,8.3,79-2.8,91.2-11.2c-5.3-32-7.9-64.4-7.8-96.8
			c0.1,0.2,0.2,0.5,0.2,0.7c0,0-0.2-1-0.2-2.9s0.1-3.7,0.1-5.5c3,12.1,7.2,24,12.5,35.3c25.1,52.7,28.3,75,17.4,76.6
			c-72.7,10.7-50.4,31.6-47.5,34.6c30.3,8.4,62.8-15.9,75-24.3c-9.6-74.3,2.8-165.2,5.3-181.6c0.8-0.2,1.5-0.6,2.2-1
			c0,0,0.3-1.5,0.8-4l0.5-0.1c0.4-3.4,0.8-6.7,1.1-9.9c0.4-3.1,0.9-6.5,1.2-10.3c25.7-0.2,52.7-11.5,66.9-44.5
			c24-55.9-21.9-75.1-7.4-120.1c10.3-32.2,21.3-33.5,29.1-30c6.2,2.8,3.4,11.9-4.5,11.8c5.9,2.7,29.3,19.9,47.5-16.1
			c11-21.8-7.1-51.8-34.2-64.6c-28.5-13.4-57.7-8-82.3,9.5c0.2-1,0.4-1.9,0.6-2.9c0,0-2.7,1.6-6,4c1.7-8.1,2.6-16.3,1.7-23.4
			c-2-14.8,6.7-53.6,4.1-66.1c-1.5-7-1.1-14.2,1.1-21c4.6-0.4,8.5-3.4,10-7.7c0.9-2.1,1.6-4.3,2.1-6.6l4.2,0.4
			c-0.5,6.4-0.8,13.2,0.3,15.4c1.5,3.1,6.1,22,6.5,25.4c0.4,3.4,2.4,11.6,5.6,15.2c2.2,2.4,0.7,3.3,2.2,5.3c0.6,0.8,2.2,0.9,2.9,1.8
			c0.7,0.9,1.4,1.8,2.2,2.8c4.8,6.3,10.6,12.9,13.5,13c4.8,0.2,13.4,6.7,24,5.7c5.9-0.6,14.6,1.1,20.3,1.8l0.7,0.1l1,0.1
			c1.4,0.1,2.8,0.1,4.2-0.1c6.7-0.6,11-2.4,15.4-4c0.2-0.1,0.6-0.9,1-1.8l3.4,0.2l0,0c0,0.1,0.1,0.1,0.1,0.1
			c1.1-0.4,2.2-0.6,3.4-0.8c3.5-0.2,11.2-6.7,14.9-12.5l0.8-0.3c0.4-0.4,0.6-0.9,0.8-1.4l2.7,0.2l0,0c0.1,0,0.1,0,0.1,0
			c0.9-0.3,1.7-0.5,2.6-0.6c3.2-0.1,11-7.1,12.9-12.1v-0.1l0,0c2.4-0.1,8-5.2,9.4-8.9c1.4-3.7,3.1-8.3,5.2-12.7
			c2.1-4.6,3.4-9.6,3.7-14.6c2.7,0.2,5.4,0.4,8.2,0.5h0.7h0.4c0.3,0.1,0.5,0.2,0.7,0.1c2-1.4-5.5-8.5-5.8-8.6
			c-0.2-0.1-0.2,0-0.3,0.2l0,0l0,0H528c-1.3-0.1-2.6-0.2-3.8-0.2c-0.1-4-0.2-8.1-0.4-10.3c-0.3-3.6-0.3-11.2-2.4-14.6
			c-1.4-2.2-3.8-6-5.6-8.9c-0.3-1.5-0.9-3-1.7-4.3c-2.6-4.1-7.8-12.4-9.9-15.7c-0.3-0.4-1.6,0.4-1.8,0.1s0.5-1.9,0.1-2.4
			c-0.3-0.4-0.7-0.8-0.9-1.1s-2.2,2.1-2.5,1.7s0.9-3.5,0.5-3.9c-2.7-2.8-6.3-5.8-9.5-6.6l-3.1-0.7c-0.6-0.9-1.2-1.8-1.6-2.4
			c-0.4-0.6-2,0.5-2.3,0.1c-0.3-0.4,0.7-2.3,0.1-3c-0.4-0.4-0.9-1-1.2-1.4s-2.8,2.7-3.2,2.2s1.2-4.4,0.7-4.9c-3.4-3.6-8-7.4-12-8.3
			c-6.8-1.6-19.7-3.7-22.5-5.2c-0.3-0.1-0.7-0.2-1.1-0.2h-0.1c-6.9-1.6-22.2-0.9-25-2.4s-21,2.3-24.1,8.2
			c-3.1,5.9-11.6,16.5-17.1,24.1c-3.6,5.1-4.5,6.1-5.7,9.5c-0.1,0.6-0.1,1.2,0,1.8l0,0c0,0.8,0.1,1.5,0.3,2.3l-0.1-0.1l0.7,5l-1,0.8
			c0.3-0.2,0.7-0.4,1-0.5v0.1c0,0.1-0.2,0.2-0.5,0.3l-2.2,0.4l0.2,0.1c-0.6,0.1-1.1,0.2-1.1,0.2c0-0.3,0.1-1,0-0.4
			c-0.8,6.5-3.3,17.8-4.1,23.8v0.2l-4.2-0.2c-0.1-0.9-0.3-1.8-0.6-2.7c0.4-0.8,0.1-1.8-0.6-2.2c-3.5-2.7-13.6-9.9-30.5-4.3
			c-2.6,0.7-4.2,3.4-3.7,6.1c-1.9-0.3-3.8-0.6-5.7-0.9c-1.6-0.3-3.2-0.6-4.8-1c-1.6-0.4-3.2-0.8-4.9-1c-6.6-0.9-13.2-1.2-19.8-1.4
			s-13.2-0.4-19.8-0.5s-13.2-0.2-19.8-0.6c-3.3-0.3-6.6-0.3-9.9-0.3s-6.6,0.1-9.9,0.2c-1.8,0.1-3.6,0.1-5.4,0.2
			c-0.1-1-0.2-1.9-0.5-2.9c0-0.1,0-0.2-0.1-0.3s-0.1-0.4-0.1-0.4s-0.1-0.1-0.1-0.1c-0.6-1.5-1.9-2.7-3.5-3.1
			c-17.2-5.5-27.7,1-31.3,3.5c-0.9,0.5-2,2.4-3,5c-2.6,0.1-5.2,0.2-7.7,0.3c-0.2-1.3-0.4-2.6-0.6-3.7c-1-5.4-3.7-15.5-4.7-21.3
			c-0.1-0.5,0,0.1,0,0.4c0,0-0.9-0.1-1.7-0.2l-1.5-3.6c0.2-2.2,0.5-4.8,0.2-5.4c-1.2-3-2.1-3.8-5.6-8.3c-5.3-6.6-13.4-15.9-16.5-21
			s-19.7-7.8-22.1-6.3c-2.4,1-4.8,1.8-7.3,2.4c-0.8-0.8-1.9-1.4-3.1-1.5c-6.3-0.6-20,2-22.7,1S75.3,6.9,73.2,12.5
			c-1.3,3.1-2.7,6.1-4.4,9c-3.8,0.5-13.2,4.2-14.6,8c-1.5,3.5-3.2,6.8-5,10.1c-3.2,0.8-8.7,3.2-9.6,5.7c-1.2,3.2-4.8,9.3-7.1,13.6
			c-1.5,2.9-1.9,3.5-2.3,5.3l-0.7,5.5c0-0.2,0-0.5,0-0.2C29.6,72.8,29.1,78.8,29.2,81.9z M212.7,89.4c4.2-1.4,10.2-7.5,12.2-15
			c3.2,0,6.4,0.2,9.6,0.3l20.9,0.8c6.9,0.3,13.9,0.6,20.8,1c1.7,0.1,3.4,0.3,5.2,0.5l5.2,0.6l10.3,1.2c6.9,0.8,13.8,1.6,20.8,2.3
			c1.7,0.2,3.5,0.3,5.2,0.5c0.6,0.1,1.2,0.1,1.8,0.1c0.3,4.4,2.3,11.2,6.5,14.2c0,0-12.3,53.6-23.1,78.6c0-4.4-0.7-8.7-2.2-12.8
			c-0.3-0.9-0.7-1.7-1.1-2.6l0,0c0.8-3.9,1.1-7.9,1.1-11.9c-0.3-7.9-3.1-13.5-4.9-15c-2.3-1.9-8.2,2.1-12.9,8.1
			c-7.1-5.3-14.7-9-20-9.7l-1.8-0.2c-0.7-0.3-1.4-0.5-2.1-0.6c-1.4-0.2-3-0.3-4.6-0.4l0.1-0.1c-0.4,0-0.8,0-1.2,0
			c-0.7-0.1-1.4-0.2-2.1-0.4c-2.4-0.5-4.7-1.2-6.9-2.1c-2.2-0.8-4.3-2-6.2-3.4c-0.9-0.7-1.8-1.5-2.5-2.4c-0.7-0.9-1.2-1.9-1.6-3
			l-0.9-2.8l-0.6,2.8c-0.2,1.2-0.3,2.4-0.1,3.7c0.2,1.2,0.6,2.4,1.2,3.5c0.1,0.3,0.3,0.5,0.4,0.7c-0.6-0.6-1.1-1.3-1.5-2
			c-1.5-2.6-2.6-5.3-3.3-8.3l-0.5-2.1l-1.1,1.8c-2,3.3-3.6,6.8-4.7,10.5c-1.1,3.5-1.3,7.1-0.6,10.7c-2.2-2.1-4.8-3.3-7.7-2.8
			c-0.2,0-0.6,0.7-0.9,1.9c0-0.2-0.1-0.3-0.1-0.5c-0.9-8.8-2-17-3.7-22.9C214.5,110.8,212.9,90.8,212.7,89.4z"/>
		<path class="st2" d="M420.7,276.6l6.4-23.5l-4,1.3l-58.8,1.4L333.5,449l-68.5-35.5c0,0,4.8-123.9,48.8-181.3
			C341.5,196,382.5,178,422,196.7c26.9,12.6,44.7,42.4,33.9,64c-17.9,35.7-41.2,18.7-47,16"/>
		<path class="st3" d="M286.6,441.8c68.3-3.4,46.5-50.8,34.6-112.6c-26.5-136.6,129.2-117.2,112-66c-6.5,19.3-24.3,13.4-24.3,13.4
			c7.9,0.1,10.5-8.9,4.4-11.6c-7.7-3.5-18.6-2.1-28.8,29.7c-14.3,44.6,31.1,63.6,7.3,119C363.8,479.2,285,458.4,267,436.2"/>
		<line class="st4" x1="444.3" y1="254.8" x2="450.5" y2="255.9"/>
		<path class="st5" d="M330.8,457.3c2.4-23.4,2.6-58.1-12.6-79.2c-2.1-2.9-4-5.9-5.8-9c2.2-6.4-2.5-21.6-5.5-27.1l-0.9,0.4
			c-0.3-15.9,14.6-49.8,12.9-65.9c0.4-3.2,0.4-6.4,0.2-9.6c2.2-7.4,5.5-14.6,6.9-18.3c1.6-4.4,11.5-25.3,15-45.4
			c0,0-13.9,8.6-17.8,15.1c-3.9,6.5-48.5,99.1-48.5,99.1l36.9,140.4h9.7C322.7,458,330.8,457.3,330.8,457.3z"/>
		<polyline class="st6" points="245.4,236.4 232.1,224.7 223.1,226 223.1,240 		"/>
		<path class="st6" d="M185.4,64.2c0,0,33.7-3.2,34.5-0.2c3.3,11.3-6.1,23-12.1,24.9c0.2,1.3,1.7,21.1,2.2,22.7
			c3.5,12.3,4.4,34.8,6.9,52.3s21.6,44.2,21.6,44.2c-2.9,3.2-9.7,7.2-12.8,21.6c-1.7,8.4-3.1,14-3.5,32.7
			c-4.9,1.4-10.3,0.4-14.3-2.7c-9.8-7.5-15.8-44.1-18.4-55.2c-4.7-20.3-1.9-94.2-1-115.1C175.5,86.5,182.1,66,185.4,64.2z"/>
		<path class="st6" d="M205.4,462c0,0-7.9,47.6,15.7,97.2c24.8,52.3,24.9,70.9,14,71.3c-84.1,2.6-62.8,22.8-59.9,25.8
			c30,8.3,78.3-2.7,90.4-11c-15.9-97-2.4-164.4-2.4-164.4L205.4,462z"/>
		<path class="st7" d="M253.9,485.4c-0.5,2.3,4.1,64.7,4.1,64.7c-11.7-35.8-9.9-71.3-9.9-71.3h8.4"/>
		<path class="st6" d="M252.1,477.3c0,0-5.5,49.8,18.1,99.5c24.8,52.2,28,74.3,17.2,75.9c-72,10.6-49.9,31.3-47.1,34.3
			c30,8.3,62.2-15.8,74.3-24.1c-10.5-81.2,5.6-182.6,5.6-182.6L252.1,477.3z"/>
		<path class="st6" d="M273.5,221.5c-4.2-2.7-2.8-9.9-2.8-9.9s-37.4,0-37.4,4.3s-3.8,10.7-6,11.8"/>
		<path class="st6" d="M312.8,279.6l1-3.1l-0.9,2.7l-5.8,10.6l-76.7,67.7c-3.3-12.7-4.8-25.8-4.5-38.9c0.3-12.5-7.8-24.1-11.1-34.4
			c-8.8-27.4,6.5-50.7,16-54.8c40.7-23.2,64.6-8.2,69.7-6.9l2.6,7.1c3.9,6,12.9,29.9,10.7,46.9"/>
		<path class="st8" d="M239.2,444.8l11.5-1.3c0,0-2.7,34-4.4,35.2c-1.2,0.7-2.7,0.9-4,0.5C240.2,476.5,239.2,444.8,239.2,444.8z"/>
		<path class="st9" d="M201.5,253.6c8.4-15.5,21.2-27.1,30.3-31.1c-1.5,2.3-20.5,14.5-19,34.8c1,13.7,22.1,10.3,30.7-5.4
			c8-14.7,28.7-34.7,30.9-35.1c2-0.2,4,0.1,5.8,1c-19.3,11-27.6,27.2-27.5,38.4c0,0,0.6,30.9,24.6,31.5c0,0,29.1,3.7,36.4-11.2
			c2,18.3-17.4,59.1-11.9,71.2c5.4,12.1-2.8,11,11.2,30.4c24.4,33.8,9,103.7,9,103.7c-5.6,3.9-40.7,7.4-77.1-2.5
			c-0.4-3.5-0.9-37.9,1.8-43c-1.8,4-4.4,38.1-2.2,42.3c-10.5,3.2-28.7,0.8-41.8-2c-0.2-33.2-3.2-40.7,15.2-89.2
			c5.3-13.9,3.1-4.9-0.2-26.6c0,0-3.6-5.1-4.2-7.2s-3.1-15.2-2.4-20.1c-2.5-6.1-3.8-12.6-3.8-19.1c-1.8-3.1-4.5-8.9-6-19.6
			C187.5,277.8,200.3,255.7,201.5,253.6z"/>
		<path class="st10" d="M248.9,236.3L248.9,236.3c15.9-0.3,30.4-9.3,29.4-9.8c-1.6-0.8-4-1.8-4-1.8l-53.4-2.5
			c0.6,0.8,1.1,1.6,1.8,2.4l-0.3-0.1C209.7,236.6,245,237.1,248.9,236.3z"/>
		<path class="st11" d="M217.1,220.9c0.6,0.8,1.2,1.7,2,2.7c1.4,2.1,3.3,3.9,5.4,5.2h0c0.2,0.1,0.5,0.3,0.7,0.4c1,0.5,2,0.9,3.1,1.1
			l0.6,0.1h0.3l0.8,0.1c0.6,0,1.2,0,1.8-0.1h0.2c0.2,0,0.4-0.1,0.6-0.1c1.8-0.3,3.6-0.9,5.2-1.7l0,0l0.8-0.3
			c12.6,1.6,29.8-0.2,44.6-15.1l-0.6,0.7c2.1-1.9,3.9-4,5.5-6.3c2.7-3.6,4.7-7.8,5.9-12.1c2.1-4,7.5-21.9,2.3-35.9
			c-0.3-0.9-0.7-1.7-1.1-2.6l0,0c0.7-3.9,1.1-7.9,1.1-11.8c-0.3-7.9-9.8,12-11.6,10.5c-2.3-1.9-2.7-20.2-7.3-14.3
			c-7-5.3-13.2-12-18.5-12.7c-1.4-0.2-2.9-0.3-4.6-0.4l0.1-0.1c-14.7-1-14,10.1-15.8,4.4c-1.4,6.4-3.8-4.1-3.8-4.1
			c-5.5-2.1-2.8,11-4.4,4.6c-5.6,9.3-15.9,2.6-14.5,7.7c-2.4-2.6-0.7-9.6-4.9-8.9c-0.8,0.1-2.9,7.9-0.6,19.3
			c-1.1,2.6-1.9,5.3-2.4,8.1c0,0-1.7,10.7-0.5,14.7c0.1,0.2,0.1,0.3,0.2,0.3c-1,4.8-1.7,9.7-2.1,14.6l0,0c-0.7,2.2-1.2,4.5-1.4,6.8
			c-0.1,1-0.2,1.9-0.2,2.9l0,0v0.1c0,1,0,2,0.1,3v0.1c0.1,0.3,0.1,0.6,0.1,0.9c0.6,6.2,2.6,10.4,5,13.2c1.8,2.5,4.5,4.2,7.6,4.8
			L217.1,220.9z"/>
		<path class="st6" d="M216.2,160.2c5.4,15.7,15.2-6.9,15.2-6.9c-2.8-9.8-8.5-21.6-16.8-20.4C213.7,133,210.8,144.5,216.2,160.2z"/>
		<path class="st12" d="M217.6,153.6c2.8,8.3,8-3.6,8-3.6c-1.5-5.2-4.5-11.4-8.9-10.7C216.2,139.3,214.8,145.4,217.6,153.6z"/>
		<path class="st6" d="M224.8,223.9c3.3,2.3,39.7,17.3,65.8-13.7c15.9-18.9,6.8-45.7,0.3-55.9s-24.6-23.3-46.3-20.7
			c-32.7,3.8-35.3,56.2-35.3,56.2L224.8,223.9z"/>
		<path class="st13" d="M212.5,184.7c0,0,0.3-11.2,4.7-17.1c3.2-4.3,10.4-5.6,12.5,1.5c3.1,10.1-0.9,22-0.9,22L212.5,184.7z"/>
		<path class="st13" d="M250.9,197.8c0,0,26.2-3.8,24.3-10.6c-0.6-2.1-0.8-15.9-8.7-20.5c-6.6-3.8-12.1-3.8-18.6,0.3
			c-7.1,4.5-9.3,15.4-8.2,23.4C240.3,194.6,250.9,197.8,250.9,197.8z"/>
		<path class="st14" d="M253.5,169.6c-8.8,1.2-11.8,8.4-9.8,13.7c5.6,10.1,24.2,4.6,23.2-6C266.3,173,259.2,168.8,253.5,169.6z"/>
		<path class="st15" d="M257.6,171.4c0.4,0.1,0.7,0.3,1,0.5c3.5,2,4.7,6.6,2.7,10.1c-2.1,4-8.6,5.4-13,3.5c-0.6-0.2-1.2-0.6-1.7-1
			c-3.1-2.4-3.6-6.8-1.2-9.9C248.3,171,253.3,169.7,257.6,171.4z"/>
		<path class="st3" d="M256,167.4c-7.5,1.6-11.3,4.2-13.7,7.6c-0.6,1,0.2,6.3,1,5.3c8.7-11.4,21.4-5.5,22.1-7.5
			C266.1,171.2,262.5,166,256,167.4z"/>
		<path class="st13" d="M265.7,184.5c-7,0.3-17,4.4-19.7,7.1c-0.7,0.8,5.2,3,6.2,2.5c9.9-5.8,20-1.7,21-3.3
			C274,189.4,271.6,184.2,265.7,184.5z"/>
		<path class="st16" d="M250.3,179.7C250.3,179.7,250.3,179.7,250.3,179.7c0.9,0.4,1.2,1.4,0.8,2.3c-0.4,0.9-1.5,1.2-2.4,0.8
			c0,0,0,0,0,0c-0.8-0.4-1.2-1.4-0.8-2.3C248.4,179.6,249.4,179.2,250.3,179.7z"/>
		<path class="st17" d="M260.2,174.7c0.3,0.4,0.5,0.9,0.1,1.1c-0.4,0.3-0.9,0.2-1.2-0.2c-0.3-0.4-1.1-1.6-0.7-1.9
			C258.8,173.4,260,174.3,260.2,174.7z"/>
		<polyline class="st17" points="229.8,206.4 233.2,207.3 232.3,213.8 229,213.3 		"/>
		<path class="st14" d="M225.1,172.1c4.1,3.2,3.9,7.5,2,10.5c-2.8,4.4-5.3,3.7-7.6,3c-5.1-1.6-6.4-7.3-3.5-12.7
			C217.6,170.5,222.6,170.1,225.1,172.1z"/>
		<path class="st15" d="M220.2,171.1c-2.7,1.1-4.7,5.1-4.6,8.9s3.6,6.4,6.3,5.2c3.5-1.4,5.2-5.2,5-8.9
			C226.8,172.5,222.9,170,220.2,171.1z"/>
		<path class="st16" d="M223.7,179.6C223.7,179.6,223.7,179.6,223.7,179.6c0.6,0.3,0.9,1.1,0.5,1.7c0,0,0,0,0,0
			c-0.3,0.6-1.1,0.8-1.7,0.5c0,0,0,0,0,0c-0.6-0.3-0.8-1.1-0.5-1.7C222.3,179.5,223.1,179.3,223.7,179.6z"/>
		<path class="st17" d="M218.5,173.9c-0.3,0.3-0.6,0.7-0.3,1c0,0,0,0,0,0c0.3,0.3,0.7,0.3,1,0c0.3-0.3,1.2-1.2,0.9-1.6
			C219.9,173,218.9,173.6,218.5,173.9z"/>
		<path class="st3" d="M227.1,172.9c-4-2.3-5.8-3.2-8.5-2.6c-0.7,0.2-4.1,3.6-3.3,3.4c9.6-3,12,6.2,13.2,5.6
			C229.6,178.8,230.5,174.9,227.1,172.9z"/>
		<path class="st18" d="M290.4,160.5l1.9-3.9c14.8,30.2,3,50.4-5.8,58.2C304.4,194.3,290.4,160.5,290.4,160.5z"/>
		<path class="st19" d="M269.2,137.2l-4.6,3.6l10.7,5.4l3.1-4C278.4,142.2,275.6,140,269.2,137.2z"/>
		<path class="st6" d="M254.6,141.9c1.7,2.5,0.8,6.6,0.2,5.6c-0.6-0.8-1.5-1.5-2.4-1.9c0.4,0.7,0.1,4.2-0.3,4.9s0.3,1,0.3,1l6.8-1.8
			l3.6-6.1c1.1-2.2-2.1-3-3.5-3.1c0.6,1.4,0.9,3.9,0.2,3.6C259.2,143.9,259,141.4,254.6,141.9z"/>
		<path class="st19" d="M224.2,191c-7.3-0.1-13.7,4.8-13.9,11.2s6.8,10.8,14.1,11s11.2-5.4,11.4-11.9S231.5,191.1,224.2,191z"/>
		<path class="st19" d="M246,192.1c-8.3,0.9-15,6.9-14.2,13.9s9.3,10.7,17.7,9.9c8.3-0.8,12-7.3,11.3-14.3
			C260,194.6,254.3,191.2,246,192.1z"/>
		<path class="st19" d="M236.4,223c2.8,0.1,21.6,3.1,21.1-3.2c2-0.3,4-0.7,5.9-1.2c5.6-2.1,15.3-7.5,15.1-21.2
			c-0.1-12.9-12.9-18.1-22.3-13.2c-8.2,4.2-24.6,11.9-22.3,18.6C235.5,207.4,239.5,223.1,236.4,223z"/>
		<path class="st19" d="M234,223.4h0.5H234z"/>
		<path class="st13" d="M276.4,199.2c-0.4,11.5-7.4,18-17.9,21.9c-1.8,0.7-6,1.8-9.2,4.4c-2.8,2.3-11.1,5.4-13.4,5.7
			c-7.9,0.9-12.3-5.9-14.9-9.6c-6.5-2.4-13.8-12.4-13-25c0.4-7,2.6-12.2,8.1-13.1c9.3-1.6,14.2,7.4,14.2,7.4l6.7,1.9
			c1.4-0.5,2.2-2.6,3.5-2.9c3.9-5.2,14.5-8,21.2-7.9C268.4,182.3,276.8,187.7,276.4,199.2z"/>
		<polygon class="st17" points="237.9,216.7 230.2,217 228.6,211.1 239,211.2 		"/>
		<polygon class="st16" points="238.1,213.2 229.5,212.1 228.1,207.7 238.7,207.5 		"/>
		<path class="st20" d="M224.1,189.1c-7.1-0.1-11.2,3.9-11.4,11.1s5.8,14,12.8,14.1s10.5-4.2,10.6-11.3
			C236.2,195.9,231.1,189.2,224.1,189.1z"/>
		<path class="st20" d="M243.7,189.9c-7.7,0.9-10.8,5.3-12,15.2c-1,8.9,10.6,11.4,17.2,10.6c7.7-0.9,10.9-8.6,10.2-16.4
			C258.5,191.4,251.4,189,243.7,189.9z"/>
		<path class="st12" d="M232,188.7c-2.8,0.5-6.8,3.2-4.6,7.2c2.9,5.4,4,5.4,5.2,5.4c0.6,0,1.9-2,3.7-3.8c1.6-1.6,4-4.5,3.1-6.2
			C238.3,189.3,234.8,188.2,232,188.7z"/>
		<path class="st21" d="M229.6,192c-0.3,0.3-0.5,0.7-0.3,1.1c0,0.1,0.1,0.1,0.2,0.2c0.3,0.2,0.6,0.1,0.8-0.2
			c0.3-0.3,1.1-1.4,0.8-1.7S229.8,191.7,229.6,192z"/>
		<path class="st3" d="M235.2,148.1c-3.8-2.6-8.7-3-10.3-1.9c-7.7,5.4-7,13.3-8.5,14.8s-4.5,16.4-5.2,14c-1.2-4,0.5-14.7,0.5-14.7
			c1.6-9.3,6.3-16.1,12.8-22.2c8.1-7.8,27.1-9.9,38.2-8.5c11.1,1.4,32.1,16,37.6,30.9s-1,34.4-2.7,36.5
			c-12.4,0.3-15.3-6.3-17.6-15.6c-0.4-1.4-7.1-12.6-5.9-18.1c1.5-5.8-0.7-12-5.5-15.6c-5.3-3.8-17.4,2.8-31,0.9"/>
		<path class="st3" d="M258.1,129.1c-14.7-1-23.1-6.1-24.9-11.8c-1.4,6.4,5.3,12.1,5.3,12.1c-5.5-2.1-8.5-8-10.2-14.3
			c-11.5,19-3.5,28.3,4,31.9c3.3,1.6,6.5,2,7.8,1.7"/>
		<path class="st2" d="M237.3,148.7c-0.9-0.1-1.9-0.3-2.8-0.6c-1.8-0.6-3.6-1.4-5.2-2.4c-3.3-2.1-5.7-5.3-6.8-9.1
			c-0.9-3.8-0.8-7.8,0.4-11.5c1.1-3.7,2.7-7.2,4.7-10.4l1-1.8l0.5,2c0.7,2.9,1.8,5.6,3.3,8.2c1.4,2.5,3.6,4.5,6.3,5.6L238,130
			c-0.9-0.8-1.7-1.7-2.4-2.7c-0.7-1-1.4-2-1.9-3.1c-0.5-1.1-0.9-2.3-1.1-3.5c-0.2-1.2-0.2-2.5,0.1-3.7l0.6-2.8l0.9,2.8
			c0.3,1.1,0.9,2.1,1.5,3c0.7,0.9,1.6,1.7,2.5,2.4c1.9,1.4,4,2.6,6.2,3.4c2.2,0.9,4.5,1.6,6.9,2.1c2.3,0.5,4.7,0.8,7.1,1.2
			c-2.4-0.1-4.8-0.3-7.2-0.6c-2.4-0.4-4.8-0.9-7.1-1.7c-2.3-0.8-4.6-1.9-6.6-3.3c-1-0.7-2-1.6-2.8-2.6c-0.8-1-1.5-2.1-1.9-3.4
			l1.4-0.1c-0.2,1-0.2,2.1,0,3.1c0.2,1,0.6,2,1.1,3c0.5,1,1.1,1.9,1.8,2.8c0.7,0.9,1.4,1.7,2.2,2.4l3.4,3.1l-4.3-1.6
			c-1.5-0.6-2.9-1.4-4.1-2.5c-1.2-1.1-2.2-2.3-3-3.7c-1.6-2.7-2.8-5.6-3.5-8.7l1.6,0.2c-1.9,3.1-3.5,6.5-4.7,10
			c-1.2,3.5-1.4,7.2-0.7,10.7c0.4,1.8,1.2,3.4,2.2,4.9c1.1,1.5,2.4,2.8,3.8,3.9c1.5,1.1,3.1,2,4.9,2.6c0.9,0.3,1.8,0.6,2.7,0.8
			c0.9,0.2,1.9,0.3,2.8,0.2C239.2,148.9,238.2,148.9,237.3,148.7z"/>
		<path class="st6" d="M300.2,146.1c0,4-0.3,7.9-1.1,11.8c-0.7,3.1-1.7,6.2-3.2,9.1c-7.1,15.8-18.5-18.8-18.5-18.8
			c3.7-10.2,14.6-19.7,17.9-16.9C297.1,132.7,299.9,138.2,300.2,146.1z"/>
		<path class="st12" d="M294.3,145.3c-0.4,3.6-1.7,7.1-3.7,10.1c-5.4,8.4-9.8-8.2-9.8-8.2c3-5.3,10.2-12.7,12-11.6
			C293.9,136.3,294.7,141.3,294.3,145.3z"/>
		<path class="st11" d="M213.4,204.5c0.8-0.3,1.7-1.9,2.5-2c13.4-2.1,27.1-1.6,40.2,1.5c1.7,0.4,2.4,2.8,2.4,2.8
			c9-1.5,17.7-10.6,17.7-10.6c2.2,21.6-20.6,25.9-21.8,26.4c-1.8,0.8-3.6,1.8-5.2,3c-2.4,1.5-4.9,2.8-7.5,3.9c0,0-4.2,2.1-7.8,1.9
			s-8.6-2.2-12.7-9.7c-2.8-0.7-13.4-7.9-13.4-22.2C209.2,201.6,211.1,203.4,213.4,204.5z"/>
		<path class="st22" d="M273.5,253.8c0,0,29.6-62.9,29.2-74.3c-0.4-11.4-1.5-13.7-1.5-13.7c-2.6,7.1-5.3,12.9-7.7,16.4
			c-7.6,10.7-26.4,45.3-26.4,45.3s-7.6,8.4-12.2,23.1"/>
		<path class="st6" d="M254.9,250.5c3.1-9.1,8.7-17.2,16.3-23.1c0,0,18.8-34.6,26.4-45.3c11.6-16.4,27.6-86.8,27.6-86.8
			c-6.2-4.5-7.6-17.8-5.8-18c0,0,47.5-26.1,32.4,12.7c-1.5,4.3-5.4,7.3-9.9,7.7c-2.2,6.7-2.6,13.9-1.1,20.8
			c2.5,12.4-6,50.8-4.1,65.5c3.1,23.4-13.7,58.7-15.9,64.5c-2,5.3-7.9,17.6-8.9,27.6"/>
		<polyline class="st23" points="84.5,117.8 83.1,117.7 82.2,119.6 84.3,119.4 		"/>
		<path class="st23" d="M26.4,69.2c0-0.2,0-0.5,0-0.2c0,3.4-0.4,9.3-0.4,12.4c0,3.5,0.3,10.3,1.3,11.8s4.6,10.8,5.1,12.5
			s2,5.7,3.9,7.3c1.2,1.1,0.6,1.6,1.5,2.5c0.4,0.4,1.2,0.3,1.6,0.7s0.8,0.8,1.3,1.3c2.9,2.8,6.3,5.8,7.8,5.7c1.2-0.1,3,0.5,5.2,1
			c0.5-0.2,1-0.3,1.5-0.4c0.2,0.1,0.1,0.7,0.1,0.7c0.3-0.1,3.8,0.5,5.8,0c3.3-0.8,8.8-0.3,11.5-0.6s-3.7-3.4-3.5-3.9
			c0.1-0.1,0.2-0.1,0.2-0.2c0.3-0.2,0.6-0.5,0.8-0.7l0.2,0.3c0,0.1,0.1,0.2,0.2,0.2c0.1,0.1,0.1,0.2,0.2,0.2l0,0l0,0c0,0,0,0,0,0
			c0.5-0.3,1.1-0.5,1.7-0.6c2.1-0.4,6.5-5.6,7.3-9s1.7-7.8,3-11.9s2.2-10.2,1.4-14.7S82.5,72,81.8,68.9s-1.6-9.9-3.9-12.6
			c-2-2.4-6.1-7.4-7.8-9.3c-0.2-0.3-1,0.4-1.1,0.2s0.1-1.4-0.1-1.6S68.3,45.2,68,45s-1.2,1.6-1.5,1.3s0.3-2.3,0-2.6
			c-2-1.6-3.5-4.8-5.6-5c-3.6-0.3-11.4,1.1-12.9,0.5S37.5,42,36.3,45.2s-4.8,9.2-7,13.5c-1.5,2.9-1.9,3.4-2.3,5.2"/>
		<path class="st23" d="M46.8,50c-1.3,2.2-4.4,7.8-6,10.5c-1.8,3.1-1.4,9.9-1.5,13.1s0.2,10.3,0.3,14.9s2.1,10.4,4.1,14.2
			s3.8,7.9,5.2,11.2s6.7,7.5,8.8,7.5c0.6,0,1.2,0.1,1.7,0.3c0.1,0,0.1-0.1,0.2-0.3c0.2-0.5,0.5-1.3,0.7-1.2s1.1,2.2,1.4,2.2
			c2.6,0.9,5.3,1.5,8,1.7c5.5,0.2,9.8-2.9,12.3-3.1c1.5-0.1,4.3-3.7,6.6-7c0.3-0.5,0.7-1,1-1.5s1.2-0.6,1.4-1c0.7-1,0-1.5,1-2.8
			c1.6-1.9,2.4-6.2,2.5-7.9s2-11.6,2.7-13.2s-0.3-8.4-0.9-11.9c-0.5-3.1-2.1-8.8-2.7-12.1c-0.1-0.4,0,0.6,0,0.2c0,0-1.9-0.1-1.9-0.4
			c-0.1-0.7,0.5-4.2,0.2-4.8c-0.7-1.7-1.2-2.2-3.2-4.7c-3-3.8-7.6-9.1-9.4-12s-11.2-4.4-12.6-3.6s-7.9,2.2-11.4,3.2
			c-2.1,0.6-4.3,2.7-6,4.6c-0.2,0.3,0.7,2.3,0.5,2.5s-1.5-1.2-1.7-1l-0.6,0.8c-0.3,0.4,0.3,1.3,0.1,1.6C47.7,50.1,46.8,49.7,46.8,50
			z"/>
		
			<ellipse transform="matrix(0.9979 -6.418397e-02 6.418397e-02 0.9979 -5.0733 4.5282)" class="st23" cx="67.9" cy="81.2" rx="27.1" ry="40.2"/>
		
			<ellipse transform="matrix(0.9979 -6.418397e-02 6.418397e-02 0.9979 -5.0733 4.5282)" class="st24" cx="67.9" cy="81.2" rx="3.2" ry="4.8"/>
		
			<ellipse transform="matrix(0.9979 -6.418397e-02 6.418397e-02 0.9979 -5.0275 4.5233)" class="st24" cx="67.9" cy="80.5" rx="6.6" ry="9.8"/>
		
			<ellipse transform="matrix(0.9979 -6.418397e-02 6.418397e-02 0.9979 -5.0405 4.5223)" class="st24" cx="67.9" cy="80.7" rx="12" ry="17.8"/>
		
			<ellipse transform="matrix(0.9979 -6.418397e-02 6.418397e-02 0.9979 -4.9939 4.5207)" class="st24" cx="67.9" cy="80" rx="12.4" ry="18.5"/>
		
			<ellipse transform="matrix(0.9979 -6.418397e-02 6.418397e-02 0.9979 -4.989 4.5219)" class="st24" cx="67.9" cy="79.9" rx="16.4" ry="24.3"/>
		
			<ellipse transform="matrix(0.9979 -6.418397e-02 6.418397e-02 0.9979 -5.0037 4.5142)" class="st24" cx="67.8" cy="80.1" rx="19.5" ry="28.9"/>
		
			<ellipse transform="matrix(0.9979 -6.418397e-02 6.418397e-02 0.9979 -5.1138 4.5275)" class="st24" cx="67.9" cy="81.9" rx="22.2" ry="33"/>
		
			<ellipse transform="matrix(0.9979 -6.418397e-02 6.418397e-02 0.9979 -5.1095 4.5322)" class="st24" cx="68" cy="81.8" rx="25.9" ry="38.4"/>
		
			<ellipse transform="matrix(0.9979 -6.418397e-02 6.418397e-02 0.9979 -5.0875 4.5321)" class="st24" cx="68" cy="81.4" rx="26.2" ry="35.6"/>
		
			<ellipse transform="matrix(0.9979 -6.418397e-02 6.418397e-02 0.9979 -5.0796 4.5236)" class="st24" cx="67.9" cy="81.3" rx="10.8" ry="16"/>
		<path class="st23" d="M92.6,63.7c-1.2,0.1-2.3,0.8-2.9,1.8c-0.7,1.2-3,2.5-4.4,3.3s-3.1,3.9-4.9,5.8s-5.3,2.2-3.5,1.4
			s6-5.9,5.3-5.7S82,71.4,78.1,73s-3.9,0.7-3.9,0.7c1.5,0.1,2.9-0.5,3.8-1.7c1.9-2.1,5.7-3.2,7.9-4.3s6-6.1,6-6.1"/>
		<path class="st23" d="M57.3,122.2c-0.6,0.1-3.7,2-3.7,2s1.3-0.5,1.5-0.4s0.1,0.6,0.1,0.6c0.8-0.2,1.5-0.5,2.2-0.9
			c1.3-0.5,2.6-1,4-1.4c0,0-0.3-3.6,0.2-4.9s1.7-3.3,1.7-4.9c-0.1-0.8,0.3-1.7,1-2.2c0,0-0.3-0.4-1.4,1.8s-0.5,2.3-0.8,2.8
			s1.1-12,1.6-13s-2.4,9-2.4,10.5s0.5,3.4,0.2,4.3s-1.4,1.7-1.2,2.5c0.1,0.9-0.3,1.8-1,2.4C58.6,121.9,57.9,122.1,57.3,122.2z"/>
		<path class="st23" d="M69.6,83.8c-2.4,1.6-4-0.5-3.4-3.2c0.6-3.2,2.9-2.9,3.3-2.4"/>
		<polyline class="st25" points="115.9,127.6 114,127.5 112.8,130 115.7,129.8 		"/>
		<path class="st25" d="M37.5,62c0-0.2,0-0.7,0-0.3c0,4.6-0.6,12.6-0.6,16.8c0.1,4.8,0.4,14,1.8,16s6.3,14.6,6.9,16.9
			s2.7,7.7,5.3,9.9c1.7,1.4,0.8,2.2,2,3.4c0.5,0.5,1.6,0.4,2.2,1l1.8,1.7c3.9,3.8,8.5,7.8,10.5,7.6c1.6-0.2,4,0.7,7,1.3
			c0.6-0.2,1.3-0.4,2-0.5c0.3,0.1,0.1,0.9,0.2,0.9c0.4-0.1,5,0.6,7.8,0c4.5-1.1,11.9-0.5,15.6-0.8s-5-4.6-4.8-5.3l0.3-0.2
			c0.4-0.3,0.8-0.7,1.1-1l0.3,0.4c0.1,0.1,0.1,0.2,0.2,0.3c0.1,0.1,0.2,0.2,0.3,0.3l0,0l0,0c0,0,0.1,0,0.1,0
			c0.7-0.4,1.5-0.7,2.2-0.8c2.8-0.5,8.7-7.5,9.8-12.2s2.3-10.5,4.1-16.1s2.9-13.8,1.9-19.9s-2.4-15.7-3.3-19.8s-2.1-13.3-5.3-17
			c-2.8-3.3-8.3-9.9-10.5-12.5c-0.3-0.4-1.3,0.5-1.5,0.3s0.2-1.7-0.2-2.1c-0.3-0.3-0.7-0.7-1-0.9s-1.6,2.1-2,1.8s0.4-3.2,0-3.5
			c-2.7-2.1-4.7-6.5-7.6-6.8c-4.9-0.5-15.4,1.4-17.4,0.7s-14.2,3.6-15.8,7.9S44.4,42,41.4,47.7c-2,3.8-2.5,4.6-3,7"/>
		<path class="st25" d="M64.8,35.9c-1.7,2.9-5.9,10.5-8.1,14.2c-2.4,4.2-1.9,13.4-2.1,17.7S54.9,81.8,55,88s2.8,14,5.5,19.3
			s5.1,10.7,7,15.1s9,10.2,11.9,10.2c0.8,0,1.6,0.2,2.4,0.4c0.1,0,0.2-0.1,0.3-0.4c0.4-0.6,0.8-1.8,1-1.7c0.4,0.1,1.4,2.9,1.9,3.1
			c3.5,1.3,7.1,2,10.8,2.2c7.4,0.3,13.3-3.9,16.6-4.2c2-0.2,5.8-5,8.9-9.4c0.5-0.7,1-1.4,1.4-2s1.6-0.8,2-1.3c0.9-1.4-0.1-2,1.3-3.7
			c2.1-2.6,3.2-8.3,3.4-10.7S132,89,133,86.8s-0.4-11.3-1.2-16c-0.7-4.1-2.8-11.9-3.6-16.4c-0.1-0.6,0.1,0.8,0.1,0.3
			c0,0-2.5-0.2-2.5-0.5c-0.2-0.9,0.6-5.7,0.3-6.5c-1-2.3-1.6-3-4.3-6.4c-4-5.1-10.3-12.2-12.6-16.1s-15.1-6-17-4.9s-10.7,3-15.4,4.4
			c-2.8,0.8-5.8,3.6-8.1,6.2c-0.4,0.4,0.9,3.1,0.6,3.4s-2-1.7-2.3-1.4s-0.5,0.7-0.8,1c-0.4,0.5,0.4,1.8,0.2,2.1
			C66.2,36.2,65,35.6,64.8,35.9z"/>
		
			<ellipse transform="matrix(0.9979 -6.418400e-02 6.418400e-02 0.9979 -4.8261 6.1676)" class="st25" cx="93.6" cy="78.2" rx="36.6" ry="54.3"/>
		
			<ellipse transform="matrix(0.9979 -6.418397e-02 6.418397e-02 0.9979 -4.8261 6.1676)" class="st26" cx="93.6" cy="78.2" rx="4.3" ry="6.5"/>
		
			<ellipse transform="matrix(0.9979 -6.418397e-02 6.418397e-02 0.9979 -4.7645 6.1614)" class="st26" cx="93.5" cy="77.2" rx="8.9" ry="13.2"/>
		
			<ellipse transform="matrix(0.9979 -6.418397e-02 6.418397e-02 0.9979 -4.7811 6.1592)" class="st26" cx="93.5" cy="77.5" rx="16.2" ry="24.1"/>
		
			<ellipse transform="matrix(0.9979 -6.418397e-02 6.418397e-02 0.9979 -4.7194 6.1564)" class="st26" cx="93.5" cy="76.5" rx="16.8" ry="25"/>
		
			<ellipse transform="matrix(0.9979 -6.418397e-02 6.418397e-02 0.9979 -4.711 6.1595)" class="st26" cx="93.5" cy="76.4" rx="22.1" ry="32.9"/>
		
			<ellipse transform="matrix(0.9982 -5.989229e-02 5.989229e-02 0.9982 -4.3509 5.8264)" class="st26" cx="95" cy="75.5" rx="26.3" ry="39.1"/>
		
			<ellipse transform="matrix(0.9979 -6.418397e-02 6.418397e-02 0.9979 -4.8804 6.1661)" class="st26" cx="93.5" cy="79" rx="30" ry="44.6"/>
		
			<ellipse transform="matrix(0.9979 -6.418397e-02 6.418397e-02 0.9979 -4.8753 6.1734)" class="st26" cx="93.6" cy="79" rx="34.9" ry="51.9"/>
		
			<ellipse transform="matrix(0.9982 -5.989224e-02 5.989224e-02 0.9982 -4.4561 5.8481)" class="st26" cx="95.3" cy="77.3" rx="35.5" ry="48.2"/>
		
			<ellipse transform="matrix(0.9979 -6.418389e-02 6.418389e-02 0.9979 -4.8345 6.1617)" class="st26" cx="93.5" cy="78.3" rx="14.6" ry="21.6"/>
		<path class="st25" d="M126.9,54.5c-1.6,0.2-3.1,1.1-3.9,2.5c-1,1.7-4,3.4-6,4.5s-4.2,5.2-6.6,7.8s-7.2,3-4.7,1.9s8.1-8,7.2-7.7
			s-0.4,1.4-5.7,3.6s-5.3,1-5.3,1s2.6,0.6,5.1-2.2c2.5-2.8,7.7-4.3,10.7-5.8s8.1-8.2,8.1-8.2"/>
		<path class="st25" d="M79.3,133.6c-0.8,0.2-5,2.8-5,2.8s1.7-0.7,2-0.5s0.1,0.9,0.2,0.9c1-0.3,2-0.7,2.9-1.2
			c1.7-0.7,3.5-1.4,5.4-1.9c0,0-0.4-4.8,0.3-6.6s2.3-4.5,2.3-6.6c-0.1-1.1,0.4-2.2,1.3-2.9c0,0-0.5-0.5-1.9,2.5s-0.7,3.3-1,3.7
			s1.5-16.2,2.1-17.6s-3.2,12.2-3.3,14.2s0.7,4.6,0.2,5.9s-1.9,2.3-1.6,3.4c0.1,1.3-0.4,2.5-1.4,3.3
			C80.9,133.2,80.1,133.4,79.3,133.6z"/>
		<path class="st25" d="M95.8,81.7c-3.3,2.1-5.3-0.7-4.6-4.3c0.8-4.4,4-4,4.5-3.2"/>
		<polyline class="st27" points="153.6,139.2 151.1,139.1 149.6,142.3 153.3,142 		"/>
		<path class="st23" d="M52.3,54.6c0-0.3,0-0.9,0-0.4c0.1,5.9-0.8,16.2-0.7,21.6c0.1,6.1,0.6,18,2.3,20.6s8.1,18.8,8.9,21.8
			s3.5,10,6.8,12.8c2.2,1.9,1.1,2.9,2.6,4.4c0.6,0.6,2.1,0.5,2.8,1.2s1.5,1.5,2.3,2.2c5,4.9,11,10.1,13.6,9.9
			c2.2-0.2,5.2,0.9,9.1,1.7c0.8-0.3,1.7-0.5,2.6-0.6c0.4,0.1,0.1,1.1,0.2,1.1c0.5-0.2,6.5,0.8,10.1-0.1c5.8-1.4,15.4-0.6,20.1-1
			s-6.4-6-6.2-6.8l0.4-0.3c0.5-0.4,1-0.9,1.5-1.3l0.4,0.5l0.3,0.4c0.1,0.1,0.2,0.3,0.4,0.4l0,0l0,0c0,0,0.1,0,0.1,0
			c0.9-0.5,1.9-0.8,2.9-1.1c3.7-0.7,11.3-9.7,12.7-15.7s3-13.5,5.3-20.8s3.8-17.9,2.5-25.7s-3.1-20.2-4.3-25.6s-2.8-17.2-6.8-22
			c-3.6-4.2-10.7-12.8-13.6-16.2c-0.4-0.5-1.7,0.7-2,0.4s0.3-2.2-0.3-2.7c-0.4-0.3-0.9-0.8-1.2-1.1s-2.1,2.7-2.6,2.3s0.5-4.1,0-4.5
			c-3.5-2.7-6.1-8.4-9.8-8.7c-6.3-0.6-19.8,1.9-22.5,0.9S71.7,7,69.7,12.6s-8.3,16-12.2,23.5c-2.6,5-3.3,6-3.9,9.1"/>
		<path class="st28" d="M87.6,20.9c-2.2,3.8-7.7,13.6-10.4,18.4c-3.1,5.5-2.4,17.3-2.7,22.9s0.3,18.1,0.4,26s3.6,18.1,7.1,24.8
			s6.5,13.8,9,19.4s11.6,13.1,15.4,13.1c1,0.1,2,0.2,3,0.5c0.1,0,0.3-0.2,0.4-0.5c0.4-0.8,1-2.3,1.3-2.2c0.5,0.1,1.9,3.8,2.4,3.9
			c4.5,1.6,9.2,2.6,14,2.9c9.5,0.4,17.1-5.1,21.4-5.4c2.5-0.2,7.5-6.4,11.5-12.2c0.6-0.9,1.2-1.8,1.8-2.6s2-1,2.5-1.7
			c1.2-1.8-0.1-2.6,1.7-4.8c2.7-3.4,4.1-10.8,4.3-13.8s3.5-20.1,4.7-23s-0.5-14.7-1.5-20.7c-0.9-5.3-3.7-15.3-4.7-21.1
			c-0.1-0.7,0.1,1,0.1,0.4c0,0-3.2-0.2-3.3-0.7c-0.2-1.2,0.8-7.4,0.4-8.5c-1.2-3-2.1-3.8-5.5-8.2c-5.2-6.6-13.3-15.7-16.3-20.8
			s-19.5-7.8-21.9-6.3S109,4.6,103,6.3c-3.6,1-7.5,4.7-10.4,8c-0.4,0.5,1.2,4,0.8,4.4s-2.6-2.3-3-1.8s-0.7,0.9-1,1.3
			c-0.5,0.6,0.5,2.3,0.2,2.7C89.4,21.2,87.9,20.4,87.6,20.9z"/>
		
			<ellipse transform="matrix(0.9979 -6.418397e-02 6.418397e-02 0.9979 -4.5845 8.1649)" class="st29" cx="124.8" cy="75.4" rx="47.2" ry="70.1"/>
		<g class="st30">
			
				<ellipse transform="matrix(0.9982 -5.989229e-02 5.989229e-02 0.9982 -4.2217 7.7005)" class="st31" cx="126.3" cy="74.3" rx="5.6" ry="8.3"/>
			<path class="st32" d="M130.4,77.7c-0.1,0.9-0.3,1.8-0.7,2.7c-0.3,0.9-0.9,1.7-1.6,2.4c-0.7,0.7-1.7,1.2-2.7,1.3
				c-1,0.1-2.1-0.2-2.9-0.7c-0.8-0.5-1.5-1.2-2.1-2c-2-3.3-2.2-7.4-0.7-11c0.4-0.9,1-1.7,1.7-2.3c0.7-0.7,1.6-1.1,2.6-1.2
				c1-0.1,1.9,0.2,2.7,0.8c0.8,0.5,1.4,1.2,1.9,2c0.9,1.6,1.5,3.4,1.6,5.2C130.5,75.9,130.5,76.8,130.4,77.7z M128.6,69.8
				c-0.5-0.8-1.1-1.4-1.9-1.9c-0.7-0.5-1.6-0.7-2.5-0.6c-1.8,0.3-3.2,1.6-3.8,3.3c-0.7,1.7-1,3.5-0.8,5.2c0.1,1.8,0.7,3.5,1.7,5
				c0.9,1.5,2.4,2.4,4.1,2.4c1.7-0.3,3.2-1.4,3.9-3c0.8-1.6,1.2-3.5,1.1-5.3C130.2,73.1,129.6,71.4,128.6,69.8z"/>
		</g>
		<g class="st30">
			<path class="st32" d="M129.8,59.1c1.5,1.2,2.8,2.6,3.8,4.3c2,3.3,3,7.1,3.1,11c0.2,3.9-0.7,7.7-2.5,11.2
				c-0.9,1.7-2.2,3.2-3.8,4.3c-1.6,1.1-3.6,1.7-5.5,1.6c-1.9-0.2-3.8-1-5.2-2.2c-1.5-1.2-2.7-2.7-3.7-4.3c-1.9-3.3-3-7.1-3.1-10.9
				c-0.2-3.9,0.7-7.7,2.6-11.1c0.9-1.7,2.2-3.1,3.8-4.2c1.6-1.1,3.5-1.7,5.4-1.6C126.5,57.2,128.3,57.9,129.8,59.1z M119.4,58.9
				c-1.5,1.2-2.7,2.6-3.5,4.3c-1.6,3.4-2.4,7.1-2.3,10.8c0,1.9,0.2,3.7,0.6,5.5c0.4,1.8,1.1,3.6,2,5.2c0.9,1.7,2.1,3.1,3.6,4.3
				c1.4,1.2,3.2,1.9,5.1,2c1.8,0,3.6-0.6,5.1-1.7c1.5-1.1,2.6-2.6,3.5-4.2c1.7-3.3,2.5-7,2.3-10.7c-0.1-3.7-1-7.4-2.7-10.7
				c-0.8-1.7-2-3.1-3.4-4.4c-1.4-1.2-3.2-2-5.1-2.2C122.7,57.1,120.9,57.7,119.4,58.9z"/>
		</g>
		<g class="st30">
			<path class="st32" d="M133.9,47.3c2.7,2.2,5,4.8,6.7,7.8c1.8,3,3.1,6.2,4,9.6c0.9,3.4,1.4,6.8,1.4,10.3c0.1,3.5-0.2,6.9-0.9,10.3
				c-0.7,3.4-1.9,6.7-3.6,9.8c-1.6,3.1-4,5.8-6.8,7.8c-2.9,2.1-6.3,3.1-9.9,2.9c-3.5-0.4-6.8-1.8-9.5-4c-2.7-2.2-4.9-4.9-6.6-7.9
				c-3.4-6.1-5.3-12.8-5.5-19.8c-0.1-3.5,0.2-6.9,0.9-10.3c0.7-3.4,1.9-6.7,3.6-9.7c1.7-3.1,4-5.7,6.8-7.7c2.8-2,6.3-3,9.7-2.9
				C127.9,43.8,131.2,45.1,133.9,47.3z M124.4,43.6c-3.4-0.1-6.8,1-9.6,3.1c-2.7,2.1-4.9,4.8-6.5,7.8c-3,6.1-4.5,12.9-4.3,19.7
				c0,3.4,0.5,6.8,1.3,10.1c0.8,3.3,2,6.5,3.7,9.5c1.6,3,3.9,5.7,6.5,7.8c2.6,2.2,5.9,3.5,9.3,3.7c3.4,0.1,6.7-1,9.4-3
				c2.7-2.1,4.9-4.7,6.5-7.7c3.1-6.1,4.6-12.8,4.3-19.7c-0.1-3.4-0.5-6.8-1.4-10.1c-0.8-3.3-2-6.5-3.6-9.5c-1.6-3-3.8-5.7-6.4-7.9
				C131.1,45.3,127.9,43.9,124.4,43.6L124.4,43.6z"/>
		</g>
		<g class="st30">
			<path class="st32" d="M111.1,46.8c2.4-2.7,5.5-4.7,9-5.7c3.6-0.9,7.3-0.5,10.6,1.2c3.2,1.7,6.1,4.1,8.2,7
				c4.4,5.8,6.7,12.9,7.5,20c0.4,3.6,0.4,7.2-0.1,10.7c-0.4,3.6-1.3,7.1-2.6,10.4c-1.3,3.3-3.2,6.4-5.6,9.1c-2.4,2.7-5.6,4.6-9,5.5
				l-0.6,0.2l-0.7,0.1l-1.3,0.2c-0.5,0-0.9,0-1.4,0c-0.5,0-0.9,0-1.4-0.1l-1.3-0.2c-0.4-0.1-0.9-0.2-1.3-0.3
				c-0.4-0.2-0.9-0.2-1.3-0.4l-1.2-0.6c-3.2-1.6-6.1-4-8.2-6.9c-4.3-5.8-6.8-12.7-7.5-19.9c-0.4-3.6-0.3-7.2,0.1-10.7
				c0.4-3.5,1.3-7,2.5-10.4C106.9,52.7,108.8,49.6,111.1,46.8z M105.8,56.1c-2.5,6.7-3.3,13.9-2.3,21c0.5,3.5,1.3,6.9,2.5,10.3
				c1.2,3.3,2.9,6.4,5,9.3c2.1,2.9,4.7,5.2,7.9,6.9c3.1,1.7,6.8,2.2,10.2,1.4c3.4-0.9,6.6-2.8,8.9-5.4c2.3-2.7,4.2-5.7,5.4-9.1
				c2.4-6.7,3.2-13.8,2.3-20.9c-0.4-3.5-1.2-6.9-2.4-10.3c-1.2-3.3-2.9-6.4-5-9.2c-2.1-2.8-4.8-5.2-7.9-6.8
				c-3.1-1.6-6.7-2.1-10.1-1.4c-3.4,0.8-6.6,2.7-8.9,5.3C108.9,49.7,107,52.8,105.8,56.1L105.8,56.1z"/>
		</g>
		<g class="st30">
			<path class="st32" d="M102,97.2c-2.1-4.2-3.7-8.7-4.7-13.2c-2.1-9.2-2-18.8,0.3-28c1.1-4.6,3-9,5.5-13c2.5-4.1,6-7.5,10.1-9.9
				c2.1-1.2,4.4-2,6.7-2.4c2.4-0.4,4.8-0.3,7.1,0.1c4.7,1,8.9,3.4,12.3,6.8c3.4,3.3,6.2,7.2,8.2,11.4c2,4.2,3.5,8.7,4.5,13.3
				c0.2,1.2,0.5,2.3,0.6,3.5s0.4,2.3,0.5,3.5l0.3,3.5l0.1,3.5c0,4.7-0.6,9.4-1.8,14c-1.1,4.6-3,9-5.5,13c-2.5,4.1-6,7.4-10.1,9.8
				c-2.1,1.1-4.3,1.9-6.7,2.3c-2.3,0.4-4.7,0.3-7-0.1c-4.6-1-8.8-3.4-12.2-6.7C106.9,105.3,104.1,101.5,102,97.2z M122.6,115
				c2.3,0.4,4.6,0.4,6.9,0c2.3-0.4,4.5-1.3,6.5-2.4c4-2.4,7.3-5.8,9.7-9.7c1.2-2,2.3-4,3.2-6.2c0.9-2.1,1.6-4.4,2.2-6.6
				c2.4-9.1,2.7-18.6,0.7-27.7c-0.9-4.6-2.5-9-4.6-13.2c-2.1-4.2-4.8-8-8.2-11.2c-3.4-3.2-7.5-5.5-12.1-6.4c-2.3-0.4-4.6-0.4-6.9,0
				c-2.3,0.4-4.4,1.2-6.4,2.4c-4,2.4-7.4,5.7-9.8,9.6c-2.4,4-4.3,8.3-5.4,12.8c-2.3,9.1-2.5,18.5-0.6,27.7c0.9,4.6,2.4,9,4.4,13.3
				c2,4.2,4.8,8.1,8.1,11.3C113.7,111.8,117.9,114,122.6,115z"/>
		</g>
		<g class="st30">
			<path class="st32" d="M103.3,32.3c3.7-4.3,8.6-7.3,14.1-8.8c5.6-1.3,11.4-0.6,16.5,2c5,2.6,9.4,6.3,12.7,10.9
				c3.4,4.5,6.1,9.5,8,14.8c1.9,5.3,3.1,10.8,3.8,16.3c0.6,5.6,0.6,11.2,0,16.8c-0.6,5.6-2,11-4,16.3c-2,5.2-5,10.1-8.7,14.2
				c-1.9,2.1-4.1,3.9-6.4,5.4c-2.4,1.5-5,2.6-7.7,3.3c-2.7,0.7-5.6,0.8-8.4,0.4c-2.8-0.4-5.5-1.2-8-2.4c-5-2.6-9.4-6.3-12.7-10.8
				c-3.4-4.5-6.1-9.5-7.9-14.8c-1.9-5.3-3.1-10.8-3.8-16.3c-0.6-5.6-0.5-11.2,0.1-16.7c0.6-5.5,2-11,4-16.2
				C96.7,41.4,99.6,36.5,103.3,32.3z M94.9,46.7c-3.9,10.5-5.1,21.8-3.6,32.8c0.7,5.5,2,10.9,3.9,16.1c1.9,5.2,4.5,10.1,7.8,14.6
				c3.3,4.5,7.5,8.2,12.4,10.8c4.9,2.6,10.7,3.4,16.1,2.1c5.4-1.4,10.3-4.3,14-8.6c3.7-4.2,6.6-9,8.5-14.2c3.8-10.5,5-21.7,3.7-32.8
				c-0.7-5.5-2-10.9-3.9-16.1c-1.9-5.2-4.5-10.1-7.8-14.5l-1.3-1.6c-0.4-0.6-0.9-1.1-1.4-1.6l-1.5-1.5c-0.5-0.5-1-1-1.5-1.4
				c-2.1-1.8-4.3-3.4-6.8-4.6c-4.9-2.6-10.6-3.3-16-2.1c-5.4,1.3-10.3,4.3-14,8.4C99.8,36.6,96.9,41.4,94.9,46.7L94.9,46.7z"/>
		</g>
		<g class="st30">
			<path class="st32" d="M159.5,53.4c4,12.2,5.2,25.1,3.5,37.8c-0.8,6.3-2.5,12.6-5,18.5c-2.5,5.9-6.1,11.3-10.7,15.9
				c-2.3,2.2-4.9,4.2-7.8,5.7c-2.9,1.5-6,2.5-9.2,3c-3.2,0.4-6.5,0.3-9.6-0.4c-3.1-0.7-6.2-2-8.9-3.6c-5.5-3.4-10.2-7.9-13.7-13.3
				c-3.6-5.3-6.4-11.1-8.3-17.2c-4-12.2-5.1-25.1-3.2-37.8c0.9-6.3,2.6-12.5,5.1-18.4c2.5-5.9,6.1-11.2,10.7-15.8
				c2.3-2.2,4.9-4.1,7.7-5.6c2.8-1.5,5.9-2.5,9.1-2.9c3.2-0.4,6.4-0.3,9.5,0.4c3.1,0.7,6.1,1.9,8.9,3.6c5.4,3.3,10.1,7.8,13.6,13.2
				C154.7,41.6,157.5,47.4,159.5,53.4z M151.1,36.4c-3.5-5.3-8.2-9.8-13.6-13.2c-2.7-1.6-5.7-2.8-8.8-3.5c-3.1-0.7-6.3-0.8-9.5-0.4
				c-3.1,0.5-6.2,1.4-9,2.9c-2.8,1.5-5.4,3.4-7.6,5.6C98,32.4,94.5,37.7,92,43.6c-2.5,5.8-4.2,12-5,18.3
				c-1.8,12.6-0.6,25.5,3.3,37.5c2,6,4.8,11.8,8.3,17c3.5,5.3,8.1,9.7,13.5,13c2.7,1.6,5.6,2.8,8.7,3.5c3.1,0.7,6.2,0.8,9.3,0.4
				c3.1-0.4,6.1-1.4,8.9-2.9c2.8-1.5,5.3-3.3,7.6-5.5c4.5-4.5,8.1-9.8,10.5-15.6c2.5-5.8,4.3-11.9,5.1-18.2
				c1.9-12.6,0.8-25.5-3.1-37.6C157.4,47.4,154.6,41.7,151.1,36.4L151.1,36.4z"/>
		</g>
		<g class="st30">
			<path class="st32" d="M96.9,21.7c2.5-2.8,5.3-5.2,8.5-7.2c3.1-2,6.6-3.5,10.2-4.4c7.4-1.7,15.1-0.8,21.8,2.6
				c6.7,3.5,12.4,8.4,16.9,14.4c4.5,6,8,12.6,10.5,19.6c2.5,7,4.2,14.3,5,21.7c1.8,14.8,0,29.9-5.3,43.8c-2.7,7-6.6,13.4-11.5,18.9
				c-2.5,2.7-5.4,5.1-8.5,7.1c-3.1,2-6.6,3.5-10.2,4.4c-7.3,1.7-15,0.8-21.7-2.7c-6.6-3.4-12.4-8.3-16.9-14.3
				c-4.5-5.9-8-12.5-10.5-19.6c-2.5-7-4.2-14.3-5-21.7c-1.7-14.8,0.1-29.8,5.4-43.8C88.1,33.7,91.9,27.3,96.9,21.7z M85.5,40.7
				c-2.6,6.9-4.4,14.2-5.1,21.5c-0.7,7.4-0.7,14.8,0.2,22.1c0.9,7.3,2.6,14.6,5.2,21.5c2.5,6.9,6,13.5,10.4,19.4
				c4.4,6,10,10.9,16.6,14.3c6.6,3.4,14.2,4.4,21.4,2.8c7.2-1.6,13.6-5.9,18.6-11.4c4.9-5.6,8.8-12,11.3-18.9
				c2.6-6.9,4.3-14.1,5.1-21.5c0.8-7.3,0.7-14.7-0.1-22.1c-0.9-7.3-2.6-14.5-5.1-21.5c-2.5-6.9-6-13.5-10.4-19.4
				c-4.4-5.9-10-10.8-16.6-14.3c-6.6-3.4-14.1-4.4-21.3-2.8c-3.6,0.8-7,2.3-10.1,4.3c-3.1,1.9-6,4.3-8.5,7
				C92.1,27.4,88.2,33.7,85.5,40.7L85.5,40.7z"/>
		</g>
		<g class="st30">
			<path class="st32" d="M94.8,121.2c-4.5-5.5-8.1-11.8-10.6-18.4c-5.1-13.4-6.7-27.8-4.6-42c1.1-7.1,3.1-13.9,6.2-20.4
				c3-6.5,7.3-12.4,12.6-17.2c2.7-2.4,5.7-4.5,8.9-6.1c3.2-1.6,6.7-2.8,10.2-3.4c7.2-1.2,14.6-0.1,21.2,3
				c6.5,3.2,12.2,7.8,16.7,13.5c4.5,5.6,8,11.9,10.5,18.6c5,13.5,6.5,28,4.2,42.2c-1.1,7.1-3.2,13.9-6.3,20.4
				c-3.1,6.5-7.4,12.2-12.7,17c-2.7,2.4-5.6,4.4-8.8,6c-3.2,1.6-6.6,2.7-10.1,3.3c-7.1,1.1-14.3,0-20.8-3.2
				C105,131.3,99.3,126.8,94.8,121.2z M111.5,134.3c6.4,3.1,13.6,4.2,20.7,3.1c3.5-0.6,6.9-1.7,10.1-3.3c3.2-1.6,6.1-3.6,8.8-6
				c5.3-4.8,9.5-10.6,12.5-17c3-6.4,5.1-13.3,6.1-20.3c2.2-14.1,0.7-28.5-4.4-41.8c-2.5-6.7-6.1-12.9-10.5-18.4
				c-4.4-5.6-10-10.1-16.4-13.2c-6.4-3.1-13.6-4.2-20.7-3.1c-3.5,0.6-6.9,1.7-10.1,3.3c-3.2,1.6-6.1,3.6-8.8,6
				c-5.3,4.8-9.5,10.6-12.5,17c-3,6.4-5.1,13.2-6.2,20.3c-2.2,14.1-0.7,28.5,4.4,41.8c2.5,6.6,6.1,12.9,10.5,18.4
				C99.4,126.7,105,131.2,111.5,134.3L111.5,134.3z"/>
		</g>
		<g class="st30">
			<path class="st32" d="M115.4,50.6c2.5-1.9,5.5-3,8.6-3c3.1,0.1,6.1,1.2,8.6,3.1c2.5,1.9,4.6,4.3,6.1,7c3.1,5.4,4.9,11.5,5.1,17.8
				c0.3,6.3-1,12.5-3.7,18.2c-1.4,2.8-3.5,5.3-6,7.2c-2.5,2-5.6,3-8.9,3c-3.2-0.2-6.2-1.3-8.7-3.3c-2.4-2-4.5-4.4-6-7.1
				c-3-5.5-4.6-11.5-4.8-17.8c-0.3-6.2,1-12.4,3.8-17.9C111,55,113,52.5,115.4,50.6z M105.9,75.8c0.2,6.2,2,12.2,5,17.6
				c1.5,2.6,3.6,5,6,6.8c2.4,1.8,5.3,2.9,8.4,3c3,0,6-1,8.3-2.9c2.4-1.9,4.3-4.3,5.7-7c2.7-5.5,4-11.6,3.7-17.7
				c-0.1-6.1-1.8-12.2-4.7-17.6c-1.5-2.7-3.5-5.1-5.9-7c-2.4-1.9-5.4-3-8.4-3.2c-3.1,0-6.1,1-8.6,2.9c-2.4,1.9-4.4,4.3-5.8,7.1
				C106.9,63.3,105.6,69.5,105.9,75.8z"/>
		</g>
		<path class="st33" d="M167.8,45c-2.1,0.2-3.9,1.4-5,3.2c-1.2,2.2-5.1,4.4-7.7,5.8s-5.4,6.8-8.5,10.1s-9.3,3.9-6.1,2.5
			s10.5-10.3,9.3-10s-0.5,1.9-7.3,4.6s-6.9,1.2-6.9,1.2s3.4,0.8,6.6-2.8S152.1,54,156,52s10.4-10.6,10.4-10.6"/>
		<path class="st33" d="M106.3,146.9c-1,0.3-6.5,3.6-6.5,3.6s2.2-0.9,2.6-0.6s0.1,1.1,0.2,1.1c1.3-0.3,2.6-0.9,3.8-1.5
			c2.3-0.9,4.6-1.8,6.9-2.4c0,0-0.5-6.2,0.4-8.5s3-5.8,3-8.5c-0.1-1.5,0.5-2.9,1.7-3.8c0,0-0.6-0.6-2.5,3.2s-0.9,4.2-1.3,4.8
			s1.9-20.9,2.7-22.8s-4.2,15.7-4.2,18.3s0.9,6,0.3,7.6s-2.4,3-2.1,4.4c0.1,1.6-0.6,3.2-1.8,4.3
			C108.5,146.4,107.4,146.7,106.3,146.9z"/>
		<path class="st34" d="M127.6,80c-4.2,2.8-6.9-0.8-6-5.6c1.1-5.6,5.1-5.2,5.8-4.2"/>
		<path class="st35" d="M446.4,91.2c-0.9,0.1-27.2-2.5-33.6-2.9c-6.4-0.5-34.3-1.2-38.9-2.8s-47.6-4.6-54.4-4.7
			c-6.8-0.1-43.3-4.7-47.4-5s-39.9-1.8-49.4-2.1s-58.8,3.7-65.9,3.3S128.9,79,126.2,78c-0.3-0.3-0.5-0.7-0.7-1.1
			c-1.1-2.4-0.1-5.2,2.4-6.4c2.1-0.3,25.7-1.1,29.2-0.5s72.4-3.5,86.8-2.4c14.4,1.1,53.1,0.6,64.4,3.5s29.7,4.4,53.8,5.7
			c24.1,1.3,35.3,1.8,45.3,3.7s33.5,2.7,33.5,2.7S447.3,91.1,446.4,91.2z"/>
		<path class="st35" d="M444.2,87.4c0.5,0.7,1,1.4,1.5,2.1c0.2,0.4,0.5,0.7,0.7,1.1c0.1,0.2,0.2,0.4,0.2,0.7c0,0.1-0.1,0.1-0.2,0.1
			h-0.5c-3.5-0.2-6.9-0.5-10.3-0.8l-20.6-1.8c-3.4-0.3-6.9-0.4-10.3-0.6l-10.4-0.6c-3.4-0.2-6.9-0.4-10.3-0.6
			c-1.7-0.1-3.4-0.3-5.2-0.5c-1.7-0.1-3.5-0.4-5.1-0.9c-1.6-0.4-3.3-0.7-5-0.8c-1.7-0.2-3.4-0.4-5.1-0.6c-3.4-0.3-6.9-0.6-10.3-0.9
			c-6.9-0.6-13.7-1-20.6-1.5c-3.4-0.2-6.9-0.4-10.3-0.6c-1.7-0.1-3.4-0.1-5.2-0.3s-3.4-0.3-5.2-0.5c-6.9-0.7-13.7-1.5-20.6-2.3
			l-10.3-1.2l-5.1-0.6c-1.7-0.2-3.4-0.4-5.1-0.5c-6.9-0.4-13.8-0.6-20.7-0.9l-20.7-0.8c-3.4-0.1-6.9-0.3-10.3-0.2s-6.9,0.3-10.3,0.4
			c-13.8,0.8-27.5,1.7-41.3,2.4c-3.4,0.2-6.9,0.3-10.4,0.3c-3.4-0.1-6.9,0-10.3,0.2l-10.3,0.7c-1.7,0.1-3.5,0.2-5.2,0.3
			c-0.9,0.1-1.7,0.1-2.6,0.1c-0.9,0-1.8-0.1-2.7-0.2h-0.1v-0.1c-0.5-0.6-0.8-1.3-1.1-2c-0.2-0.8-0.2-1.5,0-2.3c0.2-0.7,0.5-1.4,1-2
			c0.5-0.6,1.1-1.1,1.8-1.4h0.1c3.3-0.3,6.6-0.4,9.8-0.4s6.5-0.2,9.8-0.2c1.6,0,3.3,0,4.9,0c1.6,0,3.3,0.1,4.9,0.3
			c1.6,0.1,3.2,0,4.9,0l4.9-0.2c13.1-0.5,26.1-1.1,39.2-1.7c6.5-0.3,13.1-0.5,19.6-0.7c3.3-0.1,6.5-0.1,9.8-0.2s6.6,0,9.8,0.3
			c6.5,0.4,13.1,0.5,19.6,0.6s13.1,0.2,19.6,0.5c6.5,0.3,13.1,0.5,19.6,1.4c1.6,0.2,3.2,0.6,4.8,1c1.6,0.4,3.2,0.7,4.8,1
			c3.2,0.6,6.4,1.1,9.7,1.5c13,1.6,26,2.3,39.1,3.1l19.6,1.1c6.5,0.4,13.1,0.8,19.5,1.7c3.3,0.4,6.5,1.2,9.7,1.6
			c3.2,0.4,6.5,0.7,9.7,1c6.5,0.5,13,0.9,19.6,1.2C442.1,84.7,443.1,86,444.2,87.4z M440.9,83.4c-6.5-0.2-13.1-0.5-19.5-1
			c-3.3-0.2-6.5-0.6-9.8-0.9c-3.3-0.4-6.5-1.1-9.7-1.6c-6.5-0.9-13-1.3-19.5-1.7l-19.6-1c-13.1-0.8-26.1-1.5-39.1-3
			c-3.2-0.4-6.5-0.9-9.7-1.5c-0.8-0.1-1.6-0.3-2.4-0.5s-1.6-0.4-2.4-0.6c-1.6-0.4-3.2-0.8-4.8-1c-6.5-0.9-13-1.2-19.5-1.5
			c-6.5-0.3-13.1-0.4-19.6-0.6s-13.1-0.3-19.6-0.7c-3.3-0.3-6.5-0.3-9.8-0.3s-6.5,0.1-9.8,0.1c-6.5,0.1-13.1,0.4-19.6,0.6L167.2,70
			l-4.9,0.2c-1.6,0-3.2,0.1-4.9,0c-1.6-0.2-3.2-0.3-4.9-0.2c-1.6,0-3.3,0-4.9,0c-3.3,0-6.6,0.1-9.8,0.2s-6.5,0.2-9.8,0.5h0.1
			c-0.6,0.3-1.2,0.8-1.6,1.3c-0.5,0.5-0.8,1.2-1,1.9c-0.2,0.7-0.2,1.4,0,2.1c0.2,0.7,0.6,1.3,1,1.9l-0.1-0.1
			c0.8,0.2,1.6,0.2,2.5,0.2c0.9,0,1.7-0.1,2.6-0.1c1.7-0.1,3.4-0.2,5.1-0.3l10.3-0.7c3.4-0.3,6.9-0.4,10.4-0.3
			c3.4,0,6.9-0.2,10.3-0.3c13.8-0.8,27.5-1.8,41.3-2.6c3.4-0.2,6.9-0.3,10.3-0.4s6.9,0.1,10.4,0.2l20.7,0.8
			c6.9,0.3,13.8,0.6,20.7,0.9c1.7,0.1,3.5,0.3,5.2,0.5l5.1,0.6l10.3,1.2c6.9,0.8,13.7,1.6,20.6,2.2c1.7,0.2,3.4,0.3,5.1,0.4
			c1.7,0.1,3.4,0.2,5.2,0.2c3.4,0.2,6.9,0.4,10.3,0.6c6.9,0.5,13.8,1,20.6,1.6c3.4,0.3,6.9,0.6,10.3,1c1.7,0.2,3.4,0.4,5.1,0.6
			c1.7,0.2,3.5,0.5,5.1,0.9c1.6,0.4,3.3,0.7,5,0.9c1.7,0.2,3.4,0.4,5.1,0.5c3.4,0.3,6.9,0.5,10.3,0.7l10.3,0.5
			c3.4,0.2,6.9,0.3,10.3,0.6c6.9,0.7,13.7,1.3,20.6,2c3.4,0.3,6.9,0.7,10.3,0.9h0.3c0.1,0,0.2,0,0.2,0c0-0.2-0.1-0.4-0.2-0.5
			c-0.2-0.4-0.4-0.7-0.7-1.1c-0.5-0.7-1-1.4-1.5-2.1C443.1,86.1,442,84.7,440.9,83.4L440.9,83.4z"/>
		<polyline class="st27" points="461.2,160.9 458.5,160.4 456.4,163.7 460.5,163.9 		"/>
		<path class="st23" d="M358.5,99.1c1.5,3.1,6.1,21.8,6.4,25.2s2.4,11.4,5.5,15c2.1,2.4,0.7,3.3,2.1,5.2c0.6,0.8,2.2,0.8,2.9,1.8
			s1.4,1.9,2.1,2.8c4.8,6.2,10.6,12.8,13.4,12.9c4.8,0.2,13.3,6.7,23.8,5.7c6.6-0.6,16.9,1.6,22.2,1.9s-6.1-7.5-5.7-8.4l0.5-0.3
			c0.6-0.4,1.2-0.8,1.8-1.2l0.4,0.6c0.1,0.2,0.2,0.3,0.3,0.5c0.1,0.2,0.2,0.3,0.4,0.5v0.1l0,0c0,0.1,0.1,0.1,0.1,0.1
			c1.1-0.4,2.2-0.6,3.3-0.8c4.1-0.2,13.8-8.9,16.3-15.3c2.4-6.4,5.4-14.4,8.9-22s6.8-19,6.6-27.8s-0.4-22.6-0.9-28.7
			s-0.4-19.2-4.2-25.1c-3.3-5.2-9.8-15.7-12.5-19.8c-0.4-0.5-2,0.5-2.2,0.1c-0.3-0.4,0.7-2.3,0.1-3c-0.4-0.4-0.8-1-1.2-1.4
			c-0.4-0.4-2.8,2.6-3.2,2.1s1.2-4.4,0.7-4.9c-3.4-3.5-5.4-10.1-9.4-11c-6.8-1.6-22-0.9-24.8-2.4c-2.8-1.5-20.8,2.4-23.9,8.2
			s-11.5,16.3-16.9,23.9c-3.6,5.1-4.5,6.1-5.7,9.4c-0.1,1.3,0,2.7,0.2,4l-0.1-0.1l0.7,5.4c0,0.1-0.2,0.2-0.5,0.3l-2.2,0.3l0.2,0.1
			c-0.6,0.1-1.1,0.2-1.1,0.2c0-0.3,0.1-1,0-0.4c-0.8,6.5-3.2,17.6-4,23.6C358.2,82.9,356.9,96,358.5,99.1z"/>
		<path class="st28" d="M478.1,24.6c2.7,4.1,9.2,14.6,12.4,19.8c3.7,5.9,3.6,19,4.2,25.1s0.6,19.9,0.9,28.7c0.3,8.8-2.9,20-6.5,27.7
			c-3.6,7.7-6.5,15.7-8.9,22c-2.4,6.3-12.2,15.1-16.3,15.3c-1.1,0.1-2.2,0.4-3.3,0.7c-0.1,0-0.3-0.2-0.5-0.5
			c-0.5-0.9-1.2-2.4-1.5-2.3c-0.5,0.2-1.9,4.3-2.4,4.5c-4.4,1.6-8.7,3.3-15.3,3.9c-10.5,1-19.2-4.7-23.9-4.9
			c-2.9-0.1-8.6-6.7-13.4-12.9c-0.8-0.9-1.5-1.9-2.1-2.8c-0.7-0.9-2.3-1-2.9-1.8c-1.4-1.9,0-2.9-2.1-5.2c-3.2-3.5-5.2-11.6-5.5-15
			c-0.4-3.4-4.9-22.1-6.4-25.2s-0.3-16.2,0.6-22.9c0.7-6,3.2-17.1,4-23.6c0.1-0.8-0.1,1.1-0.1,0.4c0,0,3.5-0.4,3.6-0.9
			c0.1-1.3-1.3-8.1-0.9-9.3c1.2-3.4,2.1-4.4,5.7-9.4c5.4-7.6,13.8-18.1,16.9-23.9s21.1-9.6,23.9-8.1c2.8,1.4,15.5,3.6,22.3,5.2
			c4,0.9,8.5,4.7,11.9,8.3c0.5,0.5-1.1,4.4-0.7,4.9c0.4,0.4,2.8-2.7,3.2-2.1s0.8,1,1.2,1.4c0.5,0.6-0.4,2.6-0.1,3
			C476.1,25,477.8,24.1,478.1,24.6z"/>
		
			<ellipse transform="matrix(1.588180e-02 -0.9999 0.9999 1.588180e-02 346.1185 525.249)" class="st29" cx="439.9" cy="86.8" rx="77.5" ry="52.2"/>
		<g class="st30">
			
				<ellipse transform="matrix(1.588183e-02 -0.9999 0.9999 1.588183e-02 346.1185 525.249)" class="st31" cx="439.9" cy="86.8" rx="9.2" ry="6.2"/>
			<path class="st32" d="M435.2,92.4c1,1.7,2.6,3.1,4.5,3.2c1.9,0.1,3.5-1.3,4.5-2.9c1-1.7,1.5-3.6,1.6-5.6c0.1-2-0.3-4-1.2-5.8
				c-0.4-0.9-1-1.7-1.8-2.3c-0.7-0.6-1.7-1-2.6-1.1c-1,0-1.9,0.2-2.8,0.8c-0.8,0.6-1.5,1.3-2,2.2c-1,1.8-1.6,3.7-1.6,5.8
				C433.7,88.6,434.2,90.6,435.2,92.4z M433.6,86.6c0.1-2,0.6-4,1.5-5.8c0.5-0.9,1.2-1.7,2-2.3c0.9-0.7,1.9-1,3-1
				c1.1,0.1,2.1,0.5,2.9,1.2c0.8,0.7,1.5,1.5,2,2.4c0.9,1.9,1.4,3.9,1.4,6c0,2.1-0.5,4.2-1.5,6c-0.5,0.9-1.3,1.8-2.1,2.4
				c-1.8,1.4-4.4,1.3-6.1-0.3c-0.8-0.7-1.4-1.6-1.9-2.5c-0.4-1-0.7-2-0.9-3C433.7,88.6,433.6,87.6,433.6,86.6L433.6,86.6z"/>
		</g>
		<g class="st30">
			<path class="st32" d="M433.7,69.3c-1.5,1.4-2.7,3.1-3.6,5c-0.9,1.9-1.5,3.8-1.9,5.8c-0.4,2-0.6,4.1-0.5,6.1
				c0,4.1,1.1,8.2,3.1,11.7c1,1.8,2.4,3.3,4.1,4.4c1.7,1.1,3.7,1.7,5.7,1.6c2.1-0.2,4-1.1,5.6-2.5c1.6-1.4,2.8-3,3.7-4.9
				c0.9-1.9,1.6-3.8,1.9-5.9c0.4-2,0.5-4.1,0.4-6.2c-0.1-4.1-1.1-8.2-3.1-11.8c-1-1.8-2.4-3.4-4.1-4.6c-1.7-1.2-3.8-1.7-5.9-1.6
				C437.1,66.9,435.2,67.9,433.7,69.3z M439.2,66.6c2.1-0.2,4.2,0.3,6,1.4c1.8,1.1,3.3,2.7,4.4,4.5c2.2,3.6,3.4,7.8,3.4,12.1
				c0,4.2-0.9,8.4-2.8,12.2c-1,1.9-2.2,3.6-3.8,5c-1.6,1.5-3.5,2.4-5.7,2.7c-2.2,0.2-4.3-0.3-6.2-1.4c-1.8-1.2-3.3-2.7-4.4-4.6
				c-2.2-3.7-3.3-7.9-3.4-12.2c-0.1-4.3,0.8-8.5,2.8-12.3c1-1.9,2.3-3.5,3.9-4.9C435.1,67.7,437.1,66.8,439.2,66.6L439.2,66.6z"/>
		</g>
		<g class="st30">
			<path class="st32" d="M428.6,56.4c-2.8,2.6-5,5.6-6.6,9.1c-1.6,3.4-2.8,7-3.6,10.7c-0.8,3.7-1.1,7.4-1,11.2
				c0.2,7.5,1.9,15.1,5.8,21.5c1.9,3.2,4.5,6,7.6,8.2c3.1,2.1,6.9,3.1,10.6,2.8c3.8-0.5,7.3-2.1,10.1-4.6c2.8-2.5,5.1-5.6,6.8-9
				c1.7-3.4,2.9-7,3.6-10.7c0.7-3.7,1-7.5,0.9-11.2c-0.1-7.6-2.1-15-5.8-21.6c-1.9-3.3-4.5-6.1-7.6-8.3c-3.2-2.1-7-3.1-10.8-2.8
				C434.9,52.1,431.3,53.8,428.6,56.4z M449.5,54.2c3.2,2.1,5.9,4.9,7.9,8.2c2,3.3,3.6,6.8,4.5,10.5c1,3.7,1.5,7.5,1.5,11.3
				c0.1,7.7-1.6,15.3-5,22.1c-1.7,3.4-4,6.5-6.9,9.1c-2.8,2.6-6.4,4.3-10.2,4.9c-3.9,0.4-7.7-0.6-11-2.7c-3.2-2.1-5.9-5-7.9-8.3
				c-2-3.3-3.5-6.8-4.5-10.6c-0.9-3.7-1.5-7.5-1.5-11.4c-0.1-3.8,0.3-7.7,1.1-11.4c0.8-3.8,2.1-7.4,3.9-10.8c1.7-3.4,4.1-6.5,7-9
				c2.9-2.6,6.4-4.2,10.2-4.7C442.4,51.1,446.3,52.1,449.5,54.2z"/>
		</g>
		<g class="st30">
			<path class="st32" d="M453.3,54.7c-2.8-2.8-6.3-4.6-10.2-5.4c-3.8-0.6-7.8,0.1-11.1,2.1c-3.3,2-6.2,4.7-8.3,7.9
				c-2.2,3.2-3.9,6.8-5,10.5c-1.2,3.7-1.9,7.6-2.2,11.5c-0.6,7.8,0.6,15.7,3.6,22.9c1.5,3.6,3.7,6.9,6.4,9.7
				c2.7,2.8,6.2,4.8,10.1,5.6c3.9,0.7,7.9,0,11.2-2.1c3.3-2,6.2-4.7,8.3-8c2.2-3.2,3.9-6.8,5-10.5c1.2-3.8,1.9-7.6,2.2-11.6
				c0.7-7.8-0.5-15.7-3.6-23C458.3,60.8,456.1,57.5,453.3,54.7z M460,64.4c1.6,3.6,2.7,7.4,3.3,11.3c0.7,3.9,0.9,7.9,0.7,11.8
				c-0.5,7.9-2.7,15.8-7.2,22.4c-2.2,3.3-5.2,6-8.7,8l-1.3,0.7c-0.4,0.2-0.9,0.3-1.4,0.5c-0.5,0.2-0.9,0.3-1.4,0.5l-1.5,0.3
				c-0.5,0.1-1,0.2-1.5,0.2c-0.5,0-1,0.1-1.5,0.1l-1.4-0.2h-0.7l-0.7-0.2c-3.9-0.8-7.5-2.8-10.3-5.6c-2.8-2.8-5-6.1-6.7-9.8
				c-1.6-3.6-2.8-7.4-3.4-11.3c-0.7-3.9-0.9-7.9-0.6-11.8c0.6-7.9,2.7-15.8,7.2-22.4c2.2-3.3,5.2-6.1,8.7-8.1
				c3.5-2,7.6-2.7,11.6-1.9c3.9,0.9,7.5,2.9,10.2,5.8C456.2,57.5,458.4,60.8,460,64.4L460,64.4z"/>
		</g>
		<g class="st30">
			<path class="st32" d="M466.1,109.6c2-4.8,3.4-9.8,4.2-14.9c1.6-10.2,0.8-20.6-2.2-30.5c-0.8-2.5-1.7-4.9-2.8-7.2
				c-1.1-2.3-2.4-4.6-3.9-6.7c-2.9-4.3-6.8-7.7-11.3-10.2c-2.3-1.2-4.7-1.9-7.2-2.3c-2.5-0.3-5.1-0.2-7.6,0.4c-5,1.3-9.5,4-13,7.8
				c-3.6,3.8-6.4,8.1-8.5,12.9c-2.1,4.7-3.5,9.7-4.3,14.8c-1.7,10.2-0.9,20.7,2.2,30.6c0.8,2.5,1.7,4.8,2.8,7.2
				c1.1,2.3,2.4,4.5,3.9,6.7c2.9,4.3,6.8,7.8,11.3,10.2c2.3,1.2,4.7,2,7.3,2.3c2.6,0.3,5.2,0.2,7.7-0.4c5-1.3,9.6-4,13.1-7.9
				C461.2,118.8,464.1,114.4,466.1,109.6z M444.6,130.7c-2.5,0.6-5.2,0.8-7.8,0.5c-2.6-0.3-5.1-1.1-7.5-2.2
				c-4.7-2.4-8.7-6-11.7-10.3c-3-4.3-5.2-9.1-6.7-14.1c-1.5-5-2.4-10.1-2.7-15.3l-0.1-3.9l0.1-3.9c0-1.3,0.2-2.6,0.3-3.9
				c0.1-1.3,0.3-2.6,0.5-3.9c0.8-5.1,2.3-10.1,4.3-14.9c2-4.8,4.9-9.2,8.4-13c3.6-3.9,8.1-6.7,13.2-8.1c2.6-0.6,5.2-0.8,7.8-0.5
				c2.6,0.3,5.2,1.1,7.5,2.3c4.7,2.4,8.7,6,11.7,10.4c3,4.3,5.3,9.1,6.8,14.1c1.5,5,2.5,10.2,2.8,15.4c0.3,5.2,0,10.4-0.9,15.6
				c-0.9,5.1-2.4,10.1-4.5,14.9c-2.1,4.8-5,9.2-8.6,12.9C454.2,126.5,449.6,129.3,444.6,130.7z"/>
		</g>
		<g class="st30">
			<path class="st32" d="M461.1,38.2c-4.3-4.4-9.9-7.4-15.9-8.6c-6.1-1-12.3,0.1-17.6,3.2c-2.6,1.5-5.1,3.3-7.3,5.5
				c-0.6,0.5-1,1.1-1.6,1.7l-1.5,1.7c-0.5,0.6-1,1.2-1.4,1.8l-1.4,1.8c-3.4,5.1-6.1,10.6-7.8,16.5c-1.8,5.8-3,11.9-3.4,18
				c-0.9,12.3,1.1,24.6,5.8,36c2.4,5.7,5.9,10.8,10.2,15.2c4.3,4.5,9.8,7.5,15.9,8.7c6.1,1.1,12.4-0.1,17.7-3.2
				c2.7-1.5,5.1-3.4,7.3-5.5c0.6-0.5,1-1.1,1.6-1.7l1.5-1.8c0.5-0.6,1-1.2,1.4-1.8l1.3-1.8c3.4-5.1,6.1-10.7,7.8-16.5
				c1.8-5.9,3-11.9,3.5-18c1-12.3-1-24.7-5.8-36.1C469,47.8,465.5,42.6,461.1,38.2z M471.5,53.4c2.5,5.6,4.3,11.6,5.3,17.7
				c1,6.1,1.4,12.3,1,18.5c-0.4,6.2-1.5,12.3-3.3,18.2c-1.8,6-4.5,11.6-8,16.7c-3.5,5.2-8.1,9.5-13.5,12.6c-2.7,1.5-5.7,2.6-8.7,3.1
				c-3.1,0.6-6.2,0.6-9.2,0c-3-0.6-6-1.7-8.7-3.2c-2.7-1.5-5.2-3.4-7.4-5.6c-4.4-4.4-7.9-9.6-10.4-15.3c-2.5-5.7-4.3-11.7-5.3-17.8
				c-1-6.1-1.3-12.3-0.9-18.5c0.4-6.2,1.5-12.3,3.4-18.2c1.8-6,4.5-11.6,8-16.8c3.4-5.2,8.1-9.6,13.5-12.7c5.5-3.1,11.9-4.2,18.1-3
				c3.1,0.6,6,1.7,8.7,3.3c2.7,1.6,5.1,3.5,7.3,5.7C465.6,42.5,469.1,47.7,471.5,53.4L471.5,53.4z"/>
		</g>
		<g class="st30">
			<path class="st32" d="M400.6,64.4c-3.7,13.6-4.2,27.9-1.4,41.7c1.3,6.9,3.6,13.6,6.6,19.8c3,6.3,7.2,12,12.4,16.7
				c2.6,2.3,5.5,4.2,8.7,5.7c3.2,1.5,6.5,2.4,10,2.7c3.5,0.3,6.9,0,10.3-0.9c3.3-0.9,6.5-2.4,9.4-4.3c5.8-3.9,10.7-9.1,14.3-15.1
				c3.7-6,6.4-12.5,8.3-19.2c3.8-13.6,4.3-27.8,1.7-41.7c-1.3-6.9-3.5-13.6-6.5-19.9c-3-6.4-7.2-12.1-12.4-16.8
				c-2.6-2.3-5.6-4.3-8.7-5.8c-3.2-1.5-6.6-2.4-10.1-2.8c-3.5-0.3-7,0.1-10.4,1c-3.4,1-6.6,2.4-9.5,4.4c-5.8,4-10.7,9.2-14.4,15.2
				C405.2,51.1,402.4,57.6,400.6,64.4z M423.1,29.8c2.9-1.9,6.2-3.4,9.6-4.4c3.4-0.9,7-1.3,10.5-1c3.5,0.3,7,1.2,10.2,2.7
				c3.2,1.5,6.2,3.4,8.8,5.8c5.3,4.7,9.6,10.5,12.7,16.9c3.1,6.3,5.3,13.1,6.6,20c2.7,13.9,2.2,28.3-1.6,41.9
				c-1.8,6.8-4.6,13.4-8.3,19.4c-3.7,6.1-8.6,11.4-14.5,15.4c-3,2-6.2,3.5-9.7,4.5c-3.4,1-7,1.3-10.6,1c-3.6-0.3-7-1.3-10.3-2.8
				c-3.2-1.5-6.2-3.5-8.9-5.8c-5.3-4.8-9.6-10.6-12.6-17c-3.1-6.4-5.3-13.1-6.5-20.1c-1.3-6.9-1.8-14-1.5-21.1
				c0.3-7,1.4-14,3.3-20.8c1.9-6.8,4.7-13.3,8.4-19.3C412.4,39,417.3,33.8,423.1,29.8z"/>
		</g>
		<g class="st30">
			<path class="st32" d="M467.7,26.1c-2.9-2.9-6.2-5.3-9.8-7.3c-3.5-2-7.4-3.4-11.4-4.1l-1.5-0.2l-1.5-0.1c-1-0.1-2-0.1-3-0.1
				c-2,0-4,0.2-6,0.6c-4,0.8-7.8,2.2-11.4,4.2c-7,4.1-13,9.8-17.5,16.6c-4.6,6.8-8.1,14.2-10.5,22c-2.4,7.8-3.9,15.9-4.5,24
				c-0.6,8.1-0.2,16.3,1,24.4c1.2,8.1,3.5,16,6.8,23.5c3.2,7.5,7.8,14.4,13.5,20.2c2.9,2.9,6.1,5.4,9.7,7.4c3.5,2,7.4,3.4,11.4,4.2
				l1.5,0.3l1.5,0.1c1,0.1,2,0.1,3,0.1c2,0,4.1-0.2,6.1-0.6c4-0.7,7.9-2.2,11.4-4.2c7-4.2,13-9.9,17.6-16.7c4.5-6.8,8-14.2,10.4-22
				c2.4-7.8,3.9-15.9,4.5-24c0.6-8.2,0.3-16.4-0.9-24.5c-1.3-8.1-3.5-16-6.8-23.5C478.1,38.8,473.5,32,467.7,26.1z M481.5,46.3
				c6.7,15,9.2,31.7,8.1,48c-0.5,8.2-2,16.3-4.4,24.2c-2.4,7.9-6,15.4-10.6,22.2c-4.6,6.9-10.7,12.6-17.9,16.8
				c-7.2,4.1-15.7,5.6-23.9,4.1c-4-0.8-7.9-2.2-11.5-4.3c-3.6-2-6.9-4.5-9.8-7.4c-5.8-5.9-10.4-12.7-13.8-20.3
				c-6.7-15-9.2-31.8-8.2-48.1c0.5-8.2,2-16.3,4.4-24.2c2.4-7.9,6-15.4,10.6-22.2c4.7-6.8,10.6-12.8,17.9-16.8
				c7.3-4.2,15.8-5.6,24-4.1c4.1,0.8,8,2.3,11.6,4.4c3.6,2,6.8,4.6,9.7,7.5C473.6,31.9,478.3,38.8,481.5,46.3L481.5,46.3z"/>
		</g>
		<g class="st30">
			<path class="st32" d="M475.2,135.6c4.6-6.4,8.1-13.4,10.5-20.9c4.8-15,5.6-30.9,2.4-46.3c-1.6-7.7-4.2-15-7.9-21.9
				c-3.7-6.9-8.7-13-14.7-17.9c-3-2.4-6.3-4.4-9.9-6c-3.5-1.5-7.3-2.6-11.1-3c-7.7-0.8-15.5,0.8-22.3,4.5
				c-6.8,3.7-12.7,8.9-17.3,15.2c-4.6,6.3-8.2,13.3-10.6,20.7c-4.9,14.9-5.8,30.8-2.8,46.2c1.5,7.7,4.1,15.1,7.8,22
				c3.6,6.9,8.6,13.1,14.6,18.1c3,2.5,6.4,4.5,9.9,6.2c3.6,1.6,7.4,2.6,11.2,3.1c7.8,0.9,15.8-0.7,22.7-4.4
				C464.7,147.3,470.6,142,475.2,135.6z M457.8,151.2c-7,3.8-14.9,5.4-22.8,4.5c-3.9-0.5-7.7-1.5-11.3-3.1c-3.6-1.6-6.9-3.7-10-6.2
				c-6.1-5-11.1-11.2-14.8-18.1c-3.7-6.9-6.4-14.4-7.9-22.1c-3.1-15.5-2.3-31.5,2.6-46.5c2.4-7.5,6.1-14.6,10.7-20.9
				c4.6-6.4,10.6-11.7,17.5-15.5c7-3.8,14.9-5.3,22.8-4.5c3.9,0.5,7.7,1.5,11.3,3.1c3.6,1.6,6.9,3.7,10,6.2
				c6.1,5,11.1,11.2,14.8,18.2c3.7,6.9,6.4,14.4,7.9,22.1c3.1,15.5,2.2,31.5-2.7,46.5c-2.4,7.5-6,14.5-10.6,20.9
				C470.7,142.1,464.7,147.4,457.8,151.2L457.8,151.2z"/>
		</g>
		<g class="st30">
			<path class="st32" d="M448.9,59c-2.8-2-6.2-3-9.7-2.8c-3.4,0.4-6.6,1.7-9.2,4c-2.6,2.2-4.6,5-6.2,8c-3,6.1-4.5,12.9-4.3,19.7
				c0,6.8,1.8,13.5,5.1,19.4c1.6,2.9,3.9,5.5,6.7,7.4c2.7,1.9,6,2.9,9.4,2.7c3.4-0.3,6.5-1.6,9.1-3.8c2.6-2.2,4.7-4.9,6.3-7.9
				c3.1-6.1,4.7-12.8,4.6-19.7c0-6.9-1.7-13.6-5-19.6C454.1,63.5,451.7,61,448.9,59z M460.9,86.1c0.2,6.9-1.3,13.7-4.4,19.9
				c-1.5,3.1-3.7,5.8-6.2,8.1c-2.6,2.3-5.9,3.8-9.4,4.1c-3.5,0.2-7-0.8-9.9-2.8c-2.9-2-5.3-4.6-7-7.7c-3.3-6.1-5.1-12.9-5.1-19.8
				c0-3.4,0.4-6.9,1.1-10.2c0.7-3.4,1.9-6.6,3.5-9.7c1.6-3.1,3.8-5.8,6.4-8c2.6-2.2,5.9-3.6,9.3-3.9c3.4-0.2,6.9,0.8,9.7,2.8
				c2.8,2,5.1,4.6,6.8,7.6C459.1,72.5,460.9,79.2,460.9,86.1z"/>
		</g>
		<path class="st33" d="M458.5,161.1l1.9,2.9c0,0-10.4-34.5-12.2-39c-1.8-4.5-3.2-13.2-3.2-13.6c-0.1-0.4-1,0.2,2.4,15.5
			c2,9.1,4.5,18,7.5,26.8c0.1,0.7,1,11.1,1.2,11.9L458.5,161.1z"/>
		<path class="st33" d="M392,51.5l0.5,3.5l-2.7,0.5c0,0,24.6,9.6,28.1,10.4s8.9,4.6,9.2,4.8s0.5-1.2-9.6-7c-6-3.3-12.3-6.1-18.8-8.2
			c-0.4-0.3-6.5-5.8-7-6L392,51.5z"/>
		<path class="st33" d="M406.6,61.4l-1.4-0.1c0,0,11.6,7.5,13.3,8.3c1.6,0.9,3,2.1,4.3,3.4c0.1,0.1,0.3-0.5-4.3-4.5
			c-2.8-2.3-5.7-4.4-8.8-6.2c-0.2-0.2-2.9-3.6-3.1-3.7L406.6,61.4z"/>
		<path class="st28" d="M387.2,47.7c-1-0.2-2-0.5-3-0.6c-2-0.4-4-0.6-6-0.8c-0.9-0.1-2,0-3-0.1s-2.1-0.1-3.1-0.3c-1-0.1-2-0.3-3-0.6
			c-1-0.2-2-0.7-2.8-1.4c0.9,0.5,1.8,0.9,2.9,1c1,0.2,2,0.3,3,0.3c2,0.1,4,0.1,6.1,0.1c2.1,0.1,4.1,0.5,6.1,1c2,0.4,4,1.2,5.8,2.2
			C389.2,48.2,388.2,47.9,387.2,47.7z"/>
		<path class="st33" d="M367.1,51.3l-1.5,1.3c0.8-0.5,1.6-0.7,2.5-0.8c1.6-0.1,19.1,3.3,20.1,3.4c1,0.2,1.6,0.2,1.6,0.2l2.4,0.1
			l1.7-0.4c0,0-1.5-5.3-2.1-5.8c-0.6-0.4-2.4-1.9-12.3-2.2s-13.8-2.7-13.8-2.7C365.5,45.8,367.1,51.3,367.1,51.3z"/>
		<polyline class="st27" points="483.4,146.9 481.3,146.5 479.7,149.1 482.8,149.2 		"/>
		<path class="st25" d="M402.7,98.3c1.1,2.4,4.7,17.1,5,19.8c0.3,2.7,1.9,9,4.4,11.8c1.7,1.8,0.6,2.6,1.7,4.1
			c0.4,0.6,1.7,0.7,2.3,1.4s1.1,1.5,1.7,2.2c3.8,4.9,8.3,10,10.5,10.1c3.7,0.1,10.5,5.2,18.7,4.4c5.2-0.5,13.3,1.3,17.4,1.5
			s-4.8-5.9-4.5-6.6c0.1-0.1,0.3-0.1,0.4-0.2c0.5-0.3,0.9-0.6,1.4-0.9l0.3,0.5c0.1,0.1,0.1,0.2,0.2,0.4c0.1,0.1,0.2,0.3,0.3,0.4l0,0
			l0,0c0.1,0.1,0.1,0.1,0.1,0.1c0.8-0.3,1.7-0.5,2.6-0.6c3.2-0.1,10.9-7,12.8-12c1.9-5,4.2-11.3,7-17.3c2.8-6,5.4-14.9,5.2-21.8
			s-0.3-17.8-0.7-22.6c-0.4-4.8-0.4-15.1-3.3-19.7c-2.6-4.1-7.7-12.3-9.8-15.5c-0.3-0.4-1.5,0.4-1.8,0.1s0.5-1.8,0.1-2.4
			c-0.3-0.3-0.7-0.8-0.9-1.1s-2.2,2.1-2.5,1.7c-0.3-0.4,0.9-3.5,0.5-3.8c-2.7-2.8-4.3-7.9-7.4-8.7c-5.3-1.2-17.3-0.7-19.5-1.9
			s-16.3,1.8-18.8,6.4c-2.4,4.6-9.1,12.8-13.3,18.8c-2.8,4-3.5,4.8-4.5,7.4c-0.1,1.1,0,2.1,0.2,3.2l-0.1-0.1l0.6,4.2
			c0,0.1-0.2,0.2-0.4,0.2l-1.7,0.3l0.2,0.1l-0.9,0.1c0-0.2,0.1-0.8,0-0.3c-0.6,5.1-2.6,13.9-3.2,18.5
			C402.4,85.6,401.6,95.9,402.7,98.3z"/>
		<path class="st28" d="M496.6,39.8c2.1,3.2,7.2,11.5,9.8,15.5c2.9,4.6,2.8,15,3.3,19.7c0.4,4.8,0.5,15.7,0.7,22.6
			s-2.4,15.8-5.2,21.8c-2.8,6-5.1,12.3-7,17.3c-1.9,5-9.6,11.8-12.8,12c-0.9,0.1-1.8,0.3-2.6,0.6c-0.1,0-0.2-0.1-0.4-0.4
			c-0.4-0.7-0.9-1.9-1.2-1.8c-0.4,0.1-1.5,3.3-1.9,3.5c-3.8,1.6-7.9,2.7-12,3.1c-8.2,0.8-15.1-3.7-18.8-3.8
			c-2.2-0.1-6.8-5.2-10.5-10.1c-0.6-0.8-1.2-1.5-1.7-2.2c-0.5-0.7-1.8-0.8-2.2-1.4c-1.1-1.5,0-2.2-1.7-4.1
			c-2.5-2.8-4.1-9.2-4.4-11.8s-3.8-17.4-5-19.8s-0.2-12.7,0.4-18c0.6-4.7,2.5-13.5,3.2-18.6c0.1-0.7,0,0.9,0,0.3
			c0,0,2.8-0.3,2.8-0.7c0.1-1-1-6.3-0.7-7.3c1-2.6,1.6-3.4,4.5-7.4c4.3-6,10.9-14.2,13.3-18.8c2.4-4.6,16.6-7.4,18.8-6.4
			c2.2,1.1,12.2,2.8,17.5,4c3.2,0.7,6.7,3.7,9.4,6.5c0.4,0.4-0.9,3.5-0.5,3.8s2.2-2.1,2.5-1.7c0.3,0.4,0.7,0.8,0.9,1.1
			c0.4,0.5-0.3,2-0.1,2.4C495.1,40,496.4,39.3,496.6,39.8z"/>
		
			<ellipse transform="matrix(1.588181e-02 -0.9999 0.9999 1.588181e-02 370.6465 553.7996)" class="st29" cx="466.7" cy="88.6" rx="60.9" ry="41"/>
		<g class="st30">
			
				<ellipse transform="matrix(1.588183e-02 -0.9999 0.9999 1.588183e-02 370.6465 553.7996)" class="st31" cx="466.7" cy="88.6" rx="7.2" ry="4.9"/>
			<path class="st32" d="M463,93c0.7,1.3,2,2.2,3.5,2.4c1.5-0.1,2.8-0.9,3.4-2.3c0.8-1.3,1.2-2.8,1.3-4.4c0.1-1.6-0.2-3.1-0.9-4.5
				c-0.6-1.4-1.9-2.4-3.4-2.7c-1.6,0-3,0.9-3.7,2.3c-0.8,1.4-1.3,2.9-1.3,4.5C461.8,90,462.2,91.6,463,93z M462.9,83.8
				c0.4-0.7,0.9-1.4,1.6-1.9c0.7-0.5,1.5-0.8,2.3-0.8c0.9,0,1.7,0.4,2.3,0.9c0.6,0.5,1.2,1.2,1.6,1.9c1.5,3,1.4,6.6-0.2,9.6
				c-0.4,0.7-1,1.4-1.6,1.9c-0.7,0.5-1.6,0.8-2.5,0.8c-0.9-0.1-1.7-0.4-2.4-1.1c-0.6-0.6-1.1-1.2-1.5-2c-0.6-1.5-0.9-3.1-0.9-4.8
				C461.8,86.8,462.2,85.2,462.9,83.8z"/>
		</g>
		<g class="st30">
			<path class="st32" d="M461.8,74.9c-1.2,1.1-2.1,2.5-2.8,3.9c-1.3,2.9-1.9,6.2-1.8,9.4c0,3.2,0.9,6.4,2.4,9.2
				c0.8,1.4,1.9,2.6,3.2,3.5c1.3,0.9,2.9,1.3,4.5,1.2c1.6-0.2,3.1-0.9,4.3-1.9c1.2-1.1,2.2-2.4,2.9-3.8c0.7-1.5,1.2-3,1.5-4.6
				c0.8-4.8,0.1-9.7-2.1-14.1c-0.8-1.4-1.9-2.7-3.2-3.6c-1.3-0.9-3-1.4-4.6-1.2C464.5,73,463,73.7,461.8,74.9z M466.1,72.7
				c1.7-0.2,3.3,0.2,4.8,1.1c1.4,0.9,2.6,2.1,3.5,3.5c1.8,2.9,2.7,6.2,2.7,9.5c0,3.3-0.8,6.6-2.3,9.6c-0.8,1.5-1.8,2.9-3,4
				c-1.2,1.1-2.8,1.9-4.5,2.2c-1.7,0.2-3.4-0.2-4.9-1.1c-1.4-0.9-2.6-2.2-3.5-3.6c-1.7-2.9-2.7-6.2-2.6-9.6
				c-0.1-3.4,0.7-6.7,2.2-9.7c0.8-1.5,1.9-2.8,3.1-3.9C462.9,73.6,464.4,72.9,466.1,72.7L466.1,72.7z"/>
		</g>
		<g class="st30">
			<path class="st32" d="M457.8,64.7c-2.2,2-3.9,4.4-5.2,7.1c-1.3,2.7-2.2,5.5-2.8,8.3c-0.6,2.9-0.8,5.8-0.8,8.8
				c0,5.9,1.6,11.8,4.6,16.9c1.5,2.5,3.5,4.7,5.9,6.3c2.4,1.7,5.4,2.4,8.3,2.2c2.9-0.4,5.7-1.6,7.9-3.6c2.2-2,4-4.3,5.3-7
				c1.3-2.7,2.3-5.5,2.8-8.4c0.6-2.9,0.8-5.9,0.7-8.8c-0.1-5.9-1.7-11.8-4.6-16.9c-1.5-2.6-3.5-4.8-5.9-6.5
				c-2.5-1.7-5.5-2.4-8.4-2.2C462.7,61.4,460,62.7,457.8,64.7z M474.2,63c2.5,1.6,4.7,3.8,6.2,6.4c1.6,2.6,2.8,5.4,3.6,8.3
				c0.8,2.9,1.2,5.9,1.2,8.9c0.1,6-1.2,12-3.9,17.4c-1.4,2.7-3.2,5.1-5.4,7.2c-2.2,2.1-5,3.4-8,3.9c-3.1,0.3-6.1-0.4-8.7-2.1
				c-2.6-1.7-4.7-3.9-6.2-6.5c-1.6-2.6-2.8-5.4-3.5-8.3c-0.8-2.9-1.2-6-1.2-9c-0.2-6.1,1.1-12.1,3.9-17.5c1.4-2.7,3.3-5.1,5.5-7.1
				c2.2-2,5-3.3,8-3.7C468.6,60.6,471.7,61.3,474.2,63z"/>
		</g>
		<g class="st30">
			<path class="st32" d="M477.2,63.4c-2.2-2.2-5-3.6-8-4.2c-3-0.5-6.1,0.1-8.7,1.7c-2.6,1.6-4.8,3.7-6.5,6.2c-1.7,2.5-3,5.3-3.9,8.2
				c-0.9,2.9-1.5,5.9-1.7,9c-0.5,6.1,0.5,12.3,2.8,18c1.2,2.8,2.9,5.4,5,7.7c2.1,2.2,4.9,3.7,7.9,4.3c3,0.5,6.2,0,8.8-1.6
				c2.6-1.6,4.8-3.7,6.5-6.3c1.7-2.6,3-5.3,3.9-8.2c0.9-2.9,1.5-5.9,1.8-9c0.6-6.2-0.4-12.4-2.8-18.1
				C481.1,68.2,479.4,65.6,477.2,63.4z M485.1,79.8c0.6,3.1,0.8,6.2,0.6,9.3c-0.2,6.3-2.2,12.4-5.6,17.6c-1.8,2.6-4.1,4.8-6.9,6.3
				l-1.1,0.5c-0.3,0.2-0.7,0.3-1.1,0.4c-0.4,0.1-0.7,0.3-1.1,0.4l-1.2,0.2c-0.4,0.1-0.8,0.1-1.2,0.1c-0.4,0.1-0.8,0.1-1.2,0.1
				l-1.2-0.1h-0.6l-0.6-0.1c-3.1-0.6-5.9-2.2-8.1-4.4c-2.2-2.2-4-4.8-5.3-7.7c-2.5-5.7-3.6-12-3.2-18.3c0.3-6.3,2.3-12.4,5.7-17.7
				c1.7-2.6,4.1-4.8,6.9-6.4c2.8-1.6,6.1-2.1,9.2-1.5c3.1,0.7,5.9,2.3,8.1,4.6c2.1,2.3,3.9,4.9,5.1,7.7
				C483.7,73.8,484.6,76.8,485.1,79.8z"/>
		</g>
		<g class="st30">
			<path class="st32" d="M487.2,106.5c1.6-3.7,2.7-7.7,3.2-11.7c1.2-8,0.6-16.2-1.7-24c-1.2-3.9-2.9-7.5-5.2-10.8
				c-2.3-3.3-5.3-6-8.8-7.9c-0.4-0.2-0.9-0.5-1.3-0.7l-1.4-0.5l-0.7-0.2c-0.2-0.1-0.5-0.2-0.7-0.2l-1.5-0.3c-2-0.2-4-0.1-5.9,0.3
				c-3.9,1-7.5,3.1-10.2,6c-2.8,2.9-5.1,6.3-6.7,10.1c-1.6,3.7-2.8,7.6-3.4,11.7c-1.3,8-0.7,16.3,1.8,24c1.2,3.9,3,7.5,5.2,10.8
				c2.3,3.3,5.3,6.1,8.8,8c0.5,0.2,0.9,0.5,1.4,0.7l1.4,0.5l0.7,0.2c0.2,0.1,0.5,0.2,0.7,0.2l1.5,0.3c2,0.3,4,0.2,6-0.3
				c4-1,7.5-3.1,10.3-6.1C483.4,113.7,485.6,110.3,487.2,106.5z M480.7,116.8c-2.8,3-6.4,5.2-10.3,6.3c-2,0.5-4.1,0.7-6.1,0.5
				l-1.5-0.3c-0.2-0.1-0.5-0.1-0.8-0.1l-0.7-0.2l-1.5-0.5c-0.5-0.2-0.9-0.4-1.4-0.7c-3.7-1.9-6.9-4.6-9.2-8.1
				c-2.3-3.4-4.1-7.1-5.3-11.1c-1.2-3.9-1.9-8-2.1-12.1l-0.1-3.1l0.1-3.1c0.1-2,0.4-4.1,0.7-6.1c0.7-4,1.8-8,3.4-11.7
				c1.6-3.8,3.8-7.3,6.6-10.3c2.8-3.1,6.4-5.3,10.4-6.4c2-0.5,4.1-0.7,6.2-0.4l1.5,0.3c0.3,0.1,0.5,0.1,0.8,0.2l0.7,0.2l1.5,0.5
				c0.5,0.2,0.9,0.4,1.4,0.7c3.7,1.9,6.9,4.7,9.2,8.1c2.3,3.4,4.1,7.1,5.3,11.1c2.4,7.9,2.9,16.2,1.4,24.3c-0.7,4-1.9,8-3.6,11.7
				C485.8,110.4,483.5,113.8,480.7,116.8L480.7,116.8z"/>
		</g>
		<g class="st30">
			<path class="st32" d="M483.3,50.4c-3.4-3.4-7.8-5.8-12.5-6.7c-4.7-0.8-9.6,0.1-13.8,2.5c-2.1,1.2-4,2.6-5.7,4.3
				c-0.9,0.8-1.6,1.8-2.4,2.6c-0.4,0.4-0.8,0.9-1.1,1.4l-1.1,1.5c-2.7,4-4.7,8.4-6.2,13c-1.4,4.6-2.3,9.3-2.7,14.1
				c-0.7,9.6,0.8,19.3,4.5,28.3c1.9,4.5,4.6,8.5,8,12c3.4,3.5,7.7,5.9,12.5,6.9c4.8,0.8,9.7,0,13.9-2.5c4.1-2.5,7.6-5.9,10.3-9.9
				c2.7-4,4.7-8.4,6.1-13c1.4-4.6,2.4-9.4,2.7-14.2c0.8-9.7-0.7-19.4-4.5-28.4C489.5,57.9,486.7,53.9,483.3,50.4z M491.5,62.3
				c1.9,4.4,3.3,9.1,4.1,13.9c0.8,4.8,1.1,9.7,0.8,14.5c-0.3,4.9-1.1,9.7-2.6,14.3c-1.4,4.7-3.5,9.1-6.3,13.2
				c-2.7,4.1-6.4,7.4-10.6,9.9c-2.1,1.2-4.5,2-6.9,2.4c-2.4,0.5-4.9,0.5-7.3,0c-2.4-0.5-4.7-1.3-6.8-2.5c-2.1-1.2-4.1-2.7-5.8-4.4
				c-3.4-3.5-6.2-7.5-8.2-12c-2-4.5-3.4-9.2-4.2-14c-0.8-4.8-1.1-9.7-0.8-14.6c0.3-4.9,1.2-9.7,2.6-14.4c1.4-4.7,3.5-9.1,6.3-13.2
				c2.7-4.1,6.4-7.5,10.6-10c4.3-2.5,9.4-3.3,14.3-2.4c4.8,1.1,9.2,3.5,12.6,7.1C486.9,53.8,489.6,57.9,491.5,62.3L491.5,62.3z"/>
		</g>
		<g class="st30">
			<path class="st32" d="M435.8,71c-2.9,10.7-3.3,21.9-1.1,32.8c1,5.4,2.8,10.6,5.2,15.6c2.4,5,5.7,9.4,9.8,13.1
				c2,1.8,4.3,3.3,6.8,4.5c2.5,1.2,5.1,1.9,7.8,2.1c2.7,0.2,5.4,0,8.1-0.7c2.6-0.7,5.1-1.9,7.4-3.4c4.5-3.1,8.4-7.1,11.2-11.8
				c2.9-4.7,5.1-9.8,6.5-15.1c3-10.7,3.4-21.8,1.3-32.7c-1-5.4-2.7-10.7-5.1-15.6c-2.4-5-5.7-9.5-9.8-13.2c-2.1-1.8-4.4-3.4-6.9-4.5
				c-2.5-1.2-5.2-1.9-7.9-2.2c-2.7-0.2-5.5,0-8.2,0.7c-2.7,0.8-5.2,1.9-7.5,3.4c-4.6,3.1-8.4,7.2-11.3,11.9
				C439.4,60.6,437.2,65.7,435.8,71z M442.2,55.8c2.8-4.8,6.6-8.9,11.2-12c2.3-1.5,4.9-2.7,7.5-3.5c2.7-0.7,5.5-1,8.2-0.8
				c2.8,0.2,5.5,1,8,2.1c2.5,1.2,4.9,2.7,7,4.5c4.2,3.7,7.6,8.2,10,13.2c2.4,5,4.2,10.3,5.2,15.8c2.1,10.9,1.7,22.2-1.2,33
				c-1.4,5.4-3.6,10.5-6.5,15.3c-2.9,4.8-6.7,9-11.3,12.2c-2.3,1.6-4.9,2.7-7.6,3.5c-2.7,0.8-5.6,1-8.4,0.8c-2.8-0.3-5.6-1-8.1-2.2
				c-2.5-1.2-4.9-2.8-7-4.6c-4.2-3.8-7.6-8.3-10-13.4c-2.4-5-4.1-10.4-5.1-15.8c-1-5.5-1.4-11-1.2-16.6c0.3-5.5,1.1-11,2.6-16.4
				C437,65.7,439.3,60.6,442.2,55.8L442.2,55.8z"/>
		</g>
		<g class="st30">
			<path class="st32" d="M488.5,41c-4.5-4.6-10.3-7.7-16.6-9c-6.3-1.1-12.8,0.1-18.4,3.3c-2.8,1.6-5.3,3.5-7.6,5.7
				c-0.6,0.5-1.1,1.2-1.6,1.7l-1.6,1.8c-0.5,0.6-1,1.2-1.5,1.9l-1.4,1.9c-3.6,5.3-6.3,11.1-8.2,17.2c-1.9,6.1-3.1,12.5-3.6,18.8
				c-1,12.8,1.1,25.7,6.1,37.6c2.5,5.9,6.1,11.3,10.6,15.9c4.5,4.7,10.3,7.8,16.6,9.1c6.4,1.1,12.9,0,18.5-3.3
				c2.8-1.6,5.3-3.5,7.6-5.8c0.6-0.6,1.1-1.2,1.6-1.8l1.6-1.8c0.5-0.6,1-1.2,1.5-1.9l1.4-1.9c3.6-5.3,6.3-11.1,8.2-17.3
				c1.9-6.1,3.1-12.5,3.6-18.8c1.1-12.9-1-25.8-6-37.7C496.7,50.9,493.1,45.6,488.5,41z M499.4,56.8c2.6,5.9,4.4,12.1,5.5,18.5
				c1.1,6.4,1.4,12.8,1.1,19.3c-0.4,6.4-1.6,12.8-3.4,19c-1.9,6.2-4.7,12.1-8.3,17.5c-3.6,5.4-8.4,9.9-14.1,13.2
				c-2.8,1.6-5.9,2.7-9.1,3.2c-3.2,0.6-6.5,0.6-9.7,0c-3.2-0.6-6.2-1.7-9.1-3.4c-2.8-1.6-5.4-3.5-7.7-5.8c-4.5-4.6-8.2-10-10.8-15.9
				c-2.6-5.9-4.5-12.2-5.5-18.5c-2.2-12.8-1.3-26,2.5-38.4c1.9-6.2,4.7-12.1,8.3-17.5c3.6-5.4,8.4-10,14.1-13.3
				c5.7-3.3,12.4-4.4,18.9-3.2c3.2,0.6,6.3,1.8,9.1,3.4c2.8,1.6,5.4,3.6,7.6,5.9C493.2,45.4,496.8,50.9,499.4,56.8L499.4,56.8z"/>
		</g>
		<g class="st30">
			<path class="st32" d="M494.4,127c3.6-5,6.4-10.6,8.2-16.5c3.8-11.8,4.4-24.3,1.9-36.4c-1.2-6-3.3-11.8-6.2-17.2
				c-2.9-5.4-6.8-10.1-11.5-14c-2.4-1.9-5-3.5-7.7-4.7c-2.8-1.2-5.7-2-8.7-2.3c-6-0.6-12.1,0.6-17.4,3.5c-5.3,2.9-10,7-13.5,11.9
				c-3.6,4.9-6.4,10.4-8.3,16.2c-3.9,11.7-4.6,24.2-2.2,36.3c1.2,6,3.2,11.9,6.1,17.3c2.8,5.5,6.7,10.3,11.5,14.2
				c2.4,1.9,5,3.6,7.8,4.9c8.6,3.9,18.4,3.5,26.7-1C486.1,136.2,490.8,132,494.4,127z M480.8,139.2c-5.5,3-11.7,4.2-17.9,3.5
				c-3.1-0.4-6.1-1.2-8.9-2.4c-2.8-1.3-5.5-2.9-7.9-4.8c-4.8-3.9-8.8-8.8-11.7-14.3c-2.9-5.5-5-11.3-6.2-17.4
				c-2.5-12.2-1.8-24.8,2.1-36.6c1.9-5.9,4.7-11.4,8.4-16.5c3.6-5,8.4-9.2,13.8-12.2c5.5-3,11.7-4.2,17.9-3.5
				c3.1,0.4,6.1,1.2,8.9,2.5c2.8,1.3,5.5,2.9,7.9,4.8c4.8,3.9,8.7,8.8,11.6,14.3c2.9,5.5,5,11.3,6.2,17.4
				c2.5,12.2,1.8,24.8-2.1,36.6c-1.9,5.9-4.7,11.4-8.4,16.4C490.9,132.1,486.2,136.3,480.8,139.2L480.8,139.2z"/>
		</g>
		<g class="st30">
			<path class="st32" d="M473.8,66.7c-2.2-1.5-4.9-2.3-7.6-2.1c-2.7,0.3-5.2,1.4-7.2,3.2c-2,1.8-3.6,3.9-4.8,6.3
				c-2.3,4.8-3.5,10.1-3.4,15.5c0,5.3,1.4,10.6,4,15.2c1.3,2.3,3.1,4.3,5.2,5.8c2.1,1.5,4.7,2.3,7.3,2.1c2.6-0.2,5.1-1.3,7.1-3
				c2-1.7,3.7-3.8,4.9-6.2c2.5-4.8,3.7-10.1,3.7-15.4c0-5.4-1.3-10.7-3.9-15.4C477.8,70.3,476,68.2,473.8,66.7z M483.2,88
				c0.2,5.4-1,10.7-3.3,15.6c-1.2,2.4-2.9,4.6-4.9,6.4c-2.1,1.8-4.7,3-7.4,3.3c-2.8,0.2-5.6-0.6-7.9-2.2c-2.3-1.6-4.1-3.6-5.5-6
				c-2.6-4.8-4-10.2-4-15.6c-0.1-5.4,1.2-10.8,3.7-15.7c1.2-2.4,2.9-4.5,5-6.3c2.1-1.8,4.7-2.8,7.4-3.1c2.7-0.1,5.4,0.6,7.6,2.2
				c2.2,1.6,4,3.6,5.3,6C481.8,77.3,483.2,82.6,483.2,88z"/>
		</g>
		<polyline class="st27" points="496.8,135.3 495.3,135 494.1,136.9 496.4,137 		"/>
		<path class="st23" d="M437.8,99.9c0.9,1.8,3.5,12.5,3.7,14.5s1.4,6.6,3.2,8.6c1.2,1.3,0.4,1.9,1.2,3c0.3,0.4,1.3,0.5,1.7,1
			c0.4,0.5,0.8,1.1,1.2,1.6c2.7,3.5,6.1,7.3,7.7,7.4c2.7,0.1,7.7,3.8,13.7,3.2c3.7-0.4,9.7,0.9,12.7,1.1c3,0.2-3.5-4.3-3.3-4.8
			l0.3-0.2c0.3-0.2,0.7-0.5,1-0.7l0.2,0.3c0,0.1,0.1,0.2,0.2,0.3c0.1,0.1,0.1,0.2,0.2,0.3l0,0l0,0c0.1,0,0.1,0,0.1,0
			c0.6-0.2,1.3-0.4,1.9-0.4c2.3-0.1,7.9-5.2,9.3-8.8c1.4-3.6,3.1-8.2,5.1-12.6s3.9-11,3.8-16c-0.1-5-0.2-12.9-0.5-16.4
			c-0.3-3.5-0.2-11.1-2.4-14.4c-1.9-3-5.6-9-7.2-11.3c-0.2-0.4-1.1,0.2-1.3,0c-0.2-0.2,0.3-1.5,0.1-1.7c-0.2-0.2-0.5-0.6-0.7-0.8
			c-0.2-0.2-1.6,1.5-1.8,1.2c-0.3-0.3,0.7-2.5,0.4-2.8c-2-2-3.1-5.8-5.4-6.3c-3.9-0.9-12.7-0.5-14.3-1.3s-11.9,1.3-13.7,4.7
			s-6.6,9.4-9.7,13.7c-2.1,2.9-2.6,3.5-3.3,5.4c-0.1,0.8,0,1.6,0.1,2.3H442l0.4,3.1c0,0.1-0.1,0.1-0.3,0.2l-1.2,0.2h0.1
			c-0.3,0.1-0.6,0.1-0.6,0.1c0-0.2,0-0.6,0-0.2c-0.5,3.7-1.9,10.1-2.3,13.6C437.6,90.5,436.9,98.1,437.8,99.9z"/>
		<path class="st28" d="M506.5,56.9c1.5,2.3,5.3,8.3,7.2,11.3c2.1,3.4,2.1,10.9,2.4,14.4c0.3,3.5,0.4,11.4,0.5,16.5
			c0.1,5.1-1.7,11.6-3.8,16c-2.1,4.4-3.8,9-5.1,12.6s-7,8.7-9.3,8.8c-0.7,0.1-1.3,0.2-1.9,0.4c-0.1,0-0.2-0.1-0.3-0.3
			c-0.3-0.5-0.6-1.4-0.9-1.3c-0.3,0.1-1.1,2.5-1.4,2.6c-2.8,1.2-5.8,1.9-8.8,2.3c-6,0.6-11-2.7-13.8-2.8c-1.6-0.1-4.9-3.8-7.7-7.4
			c-0.4-0.5-0.9-1.1-1.2-1.6s-1.3-0.5-1.6-1c-0.8-1.1,0-1.7-1.2-3c-1.8-2.1-3-6.7-3.2-8.6s-2.8-12.7-3.7-14.5s-0.2-9.3,0.3-13.2
			c0.4-3.4,1.8-9.9,2.3-13.6c0.1-0.5,0,0.6,0,0.2c0,0,2.1-0.2,2.1-0.5c0.1-0.8-0.8-4.7-0.5-5.4c0.7-1.9,1.2-2.5,3.3-5.4
			c3.1-4.4,7.9-10.4,9.7-13.7c1.8-3.3,12.1-5.6,13.7-4.7c1.6,0.9,8.9,2.1,12.8,3c2.3,0.5,4.9,2.8,6.9,4.8c0.3,0.3-0.6,2.6-0.4,2.8
			c0.2,0.2,1.6-1.5,1.8-1.2s0.4,0.4,0.7,0.8s-0.2,1.5-0.1,1.7C505.4,57.2,506.3,56.6,506.5,56.9z"/>
		
			<ellipse transform="matrix(1.588180e-02 -0.9999 0.9999 1.588180e-02 384.1822 575.6995)" class="st29" cx="484.5" cy="92.7" rx="44.5" ry="30"/>
		<g class="st30">
			
				<ellipse transform="matrix(1.588183e-02 -0.9999 0.9999 1.588183e-02 384.1822 575.6995)" class="st31" cx="484.5" cy="92.7" rx="5.3" ry="3.6"/>
			<path class="st32" d="M481.9,95.8c0.5,0.9,1.4,1.6,2.5,1.7c1-0.1,1.9-0.7,2.4-1.6c0.6-1,0.9-2,0.9-3.1c0.1-1.1-0.2-2.2-0.6-3.2
				c-0.4-1-1.3-1.8-2.4-1.9c-1.1,0-2.2,0.6-2.7,1.6c-0.6,1-0.9,2.1-0.9,3.3C481,93.7,481.3,94.9,481.9,95.8z M481.8,89.2
				c0.3-0.5,0.7-1,1.1-1.4c0.5-0.4,1.1-0.6,1.8-0.6c1.3,0.1,2.4,0.9,2.9,2.1c0.6,1.1,0.9,2.3,0.9,3.5c0,1.2-0.3,2.5-0.9,3.6
				c-0.3,0.6-0.7,1.1-1.3,1.5c-1.1,0.9-2.7,0.8-3.7-0.2c-0.5-0.4-0.8-1-1.1-1.6c-0.4-1.1-0.6-2.3-0.6-3.5
				C481,91.4,481.3,90.2,481.8,89.2z"/>
		</g>
		<g class="st30">
			<path class="st32" d="M481,82.6c-0.8,0.8-1.5,1.8-2,2.9c-0.9,2.2-1.4,4.5-1.3,6.8c0,2.3,0.6,4.6,1.7,6.7c0.6,1,1.3,1.9,2.3,2.6
				c0.9,0.6,2.1,1,3.2,0.9c1.2-0.1,2.3-0.6,3.1-1.4c0.9-0.8,1.6-1.7,2.1-2.8c1-2.2,1.4-4.5,1.2-6.9c-0.1-2.3-0.7-4.6-1.7-6.7
				c-0.5-1-1.3-2-2.3-2.7c-1-0.7-2.2-1-3.4-0.9C483,81.3,481.9,81.8,481,82.6z M484.1,81c1.2-0.1,2.4,0.2,3.5,0.8
				c1.1,0.7,2,1.5,2.7,2.6c1.3,2.1,2,4.5,2,7c0,2.4-0.6,4.8-1.7,7c-0.5,1.1-1.3,2.1-2.2,2.9c-0.9,0.8-2.1,1.4-3.3,1.6
				c-1.3,0.2-2.6-0.1-3.6-0.8c-1.1-0.7-2-1.6-2.6-2.7c-1.3-2.1-2-4.6-2-7.1c-0.1-2.5,0.5-4.9,1.7-7.1
				C479.6,83.1,481.7,81.5,484.1,81L484.1,81z"/>
		</g>
		<g class="st30">
			<path class="st32" d="M478.1,75.2c-1.6,1.5-2.8,3.3-3.7,5.2c-0.9,1.9-1.6,4-2,6.1c-0.4,2.1-0.6,4.3-0.5,6.4
				c0,4.3,1.2,8.5,3.3,12.3c1.1,1.8,2.5,3.4,4.3,4.7c1.8,1.2,3.9,1.8,6,1.6c2.1-0.3,4.1-1.2,5.8-2.6c1.6-1.4,3-3.2,3.9-5.1
				c1-1.9,1.6-4,2-6.1c0.4-2.1,0.6-4.3,0.5-6.4c-0.1-4.3-1.2-8.6-3.3-12.4c-1-1.9-2.5-3.5-4.3-4.8c-1.8-1.2-4-1.8-6.2-1.6
				C481.7,72.8,479.7,73.8,478.1,75.2z M483.8,72.4c2.2-0.2,4.4,0.3,6.3,1.5c1.9,1.2,3.5,2.8,4.6,4.7c2.3,3.8,3.6,8.2,3.5,12.6
				c0,4.4-1,8.8-3,12.7c-1,2-2.3,3.7-3.9,5.2c-1.6,1.5-3.7,2.5-5.9,2.8c-2.3,0.2-4.5-0.3-6.4-1.5c-1.9-1.2-3.5-2.9-4.6-4.8
				c-2.3-3.8-3.5-8.2-3.5-12.7c-0.1-4.4,0.9-8.9,2.9-12.8c1-2,2.4-3.7,4.1-5.1C479.6,73.6,481.6,72.7,483.8,72.4L483.8,72.4z"/>
		</g>
		<g class="st30">
			<path class="st32" d="M492.2,74.3c-1.6-1.6-3.6-2.6-5.8-3c-2.2-0.3-4.4,0.1-6.3,1.2c-1.9,1.1-3.5,2.7-4.7,4.5
				c-2.4,3.8-3.8,8.1-4.1,12.6c-0.4,4.5,0.3,9,2,13.1c0.9,2.1,2.1,4,3.7,5.6c1.6,1.6,3.6,2.7,5.8,3.2c2.2,0.4,4.5-0.1,6.4-1.2
				c1.9-1.2,3.5-2.7,4.7-4.6c2.4-3.8,3.8-8.1,4.2-12.6c0.5-4.5-0.2-9.1-2-13.2C495.1,77.8,493.8,75.9,492.2,74.3z M496.1,79.8
				c0.9,2,1.6,4.2,2,6.4c0.4,2.2,0.6,4.5,0.5,6.8c-0.1,4.6-1.6,9.1-4.1,13c-1.3,1.9-3,3.5-5.1,4.7c-2,1.1-4.4,1.5-6.7,1.1
				c-2.3-0.5-4.4-1.6-6-3.2c-1.6-1.6-2.9-3.5-3.9-5.6c-1.9-4.2-2.7-8.8-2.4-13.4c0.2-4.6,1.6-9.1,4.2-13c1.3-1.9,3-3.6,5.1-4.7
				c2.1-1.2,4.5-1.6,6.8-1.1c2.3,0.5,4.3,1.7,5.9,3.4C494,75.8,495.2,77.7,496.1,79.8L496.1,79.8z"/>
		</g>
		<g class="st30">
			<path class="st32" d="M499.5,105.8c1.1-2.7,1.9-5.6,2.3-8.5c0.9-5.9,0.4-11.8-1.3-17.5c-0.9-2.8-2.1-5.5-3.8-7.9
				c-1.6-2.4-3.8-4.4-6.4-5.8l-1-0.5l-1-0.3l-0.5-0.2c-0.2-0.1-0.4-0.1-0.5-0.1l-1.1-0.2c-1.4-0.2-2.9-0.1-4.3,0.2
				c-2.8,0.7-5.4,2.2-7.4,4.4c-2.1,2.1-3.7,4.6-4.9,7.3c-1.2,2.7-2.1,5.6-2.5,8.5c-0.9,5.9-0.5,11.9,1.4,17.5
				c0.9,2.8,2.2,5.5,3.8,7.9c1.6,2.4,3.8,4.4,6.4,5.8c0.4,0.2,0.7,0.3,1,0.5l1,0.4l0.5,0.2l0.5,0.1l1.1,0.2c1.5,0.2,2.9,0.1,4.4-0.2
				c2.9-0.7,5.5-2.3,7.6-4.4C496.8,111,498.4,108.5,499.5,105.8z M487.2,117.9c-1.5,0.4-3,0.5-4.5,0.4l-1.1-0.2
				c-0.2,0-0.4,0-0.6-0.1l-0.5-0.2l-1.1-0.3c-0.3-0.1-0.7-0.3-1-0.5c-2.7-1.4-5.1-3.4-6.8-5.9c-1.7-2.5-3-5.2-3.9-8.1
				c-0.8-2.9-1.4-5.9-1.5-8.9c-0.1-3,0-6,0.5-8.9c0.5-3,1.3-5.8,2.5-8.6c1.2-2.8,2.8-5.3,4.8-7.6c2.1-2.3,4.7-3.9,7.6-4.7
				c1.5-0.4,3-0.5,4.6-0.3c0.8,0.1,1.5,0.2,2.3,0.5l1.1,0.3c0.3,0.2,0.6,0.3,1,0.5c2.7,1.4,5.1,3.5,6.8,6c1.7,2.5,3.1,5.2,3.9,8.2
				c1.8,5.8,2.1,11.9,1,17.8c-0.5,3-1.4,5.8-2.7,8.6c-1.2,2.7-2.9,5.2-4.9,7.4C492.8,115.5,490.1,117.1,487.2,117.9z"/>
		</g>
		<g class="st30">
			<path class="st32" d="M496.8,64.8c-2.5-2.5-5.7-4.2-9.1-4.8c-3.5-0.6-7,0.1-10,1.9c-3,1.8-5.6,4.2-7.5,7.1
				c-2,2.9-3.5,6.1-4.5,9.4c-3.2,10.1-2.7,21.1,1.3,30.9c1.4,3.2,3.3,6.2,5.8,8.7c2.5,2.6,5.6,4.3,9.1,5c3.5,0.6,7.1,0,10.1-1.9
				c3-1.8,5.6-4.3,7.5-7.2c1.9-2.9,3.4-6.1,4.5-9.5c1-3.4,1.7-6.8,2-10.3c0.6-7.1-0.5-14.2-3.2-20.7
				C501.2,70.3,499.2,67.3,496.8,64.8z M502.7,73.5c1.4,3.2,2.4,6.6,3,10.1c0.6,3.5,0.8,7.1,0.7,10.6c-0.3,7.2-2.5,14.2-6.5,20.2
				c-2,3-4.7,5.5-7.8,7.2l-1.2,0.6c-0.4,0.2-0.8,0.3-1.3,0.5c-0.4,0.2-0.8,0.3-1.3,0.4l-1.3,0.3c-0.4,0.1-0.9,0.2-1.3,0.2l-1.3,0.1
				l-1.3-0.1h-0.7l-0.7-0.1c-3.5-0.7-6.7-2.5-9.3-5c-2.5-2.5-4.5-5.5-6-8.8c-1.5-3.3-2.5-6.7-3.1-10.2c-0.6-3.5-0.8-7.1-0.6-10.7
				c0.5-7.1,2.4-14.2,6.5-20.2c2-3,4.7-5.5,7.8-7.3c3.2-1.8,6.9-2.4,10.5-1.7c3.5,0.8,6.7,2.6,9.2,5.2
				C499.3,67.2,501.3,70.2,502.7,73.5L502.7,73.5z"/>
		</g>
		<g class="st30">
			<path class="st32" d="M460.4,91.8c-0.1,4,0.2,8.1,1,12c0.8,3.9,2,7.8,3.8,11.3c1.7,3.6,4.1,6.8,7.1,9.5c3,2.7,6.7,4.3,10.6,4.8
				c4,0.3,7.9-0.8,11.2-3c3.3-2.2,6.1-5.2,8.2-8.6c4.1-6.9,6.4-14.8,6.6-22.9c0.4-8.1-1.2-16.1-4.6-23.5c-1.7-3.6-4.1-6.9-7.1-9.6
				c-3-2.7-6.8-4.4-10.8-4.9c-4-0.3-8.1,0.8-11.4,3c-3.4,2.3-6.2,5.3-8.3,8.7C462.7,75.8,460.5,83.7,460.4,91.8z M466.6,68.7
				c2.1-3.5,4.9-6.5,8.3-8.8c3.4-2.3,7.4-3.4,11.5-3.1c4.1,0.4,7.9,2.1,11,4.9c3,2.7,5.5,6,7.3,9.7c1.8,3.7,3.1,7.5,3.8,11.5
				c0.8,4,1.1,8.1,1,12.1c-0.2,8.2-2.5,16.2-6.6,23.3c-2.1,3.5-5,6.6-8.4,8.9c-3.4,2.3-7.6,3.5-11.7,3.2c-4.1-0.5-8-2.2-11.1-5
				c-3.1-2.8-5.5-6.1-7.3-9.8c-3.5-7.4-5-15.6-4.5-23.8c0.2-4.1,0.9-8.1,2-12C462.9,75.9,464.5,72.2,466.6,68.7L466.6,68.7z"/>
		</g>
		<g class="st30">
			<path class="st32" d="M500.6,57.9c-3.3-3.3-7.5-5.6-12.2-6.5c-4.6-0.8-9.3,0.1-13.4,2.5c-2,1.2-3.9,2.6-5.5,4.2
				c-0.8,0.8-1.6,1.7-2.4,2.6c-0.4,0.4-0.7,0.9-1.1,1.4l-1,1.4c-2.6,3.9-4.6,8.1-6,12.6c-1.4,4.5-2.3,9.1-2.6,13.7
				c-0.7,9.4,0.8,18.8,4.4,27.5c1.8,4.3,4.5,8.2,7.7,11.6c3.2,3.4,7.4,5.7,12,6.7c4.6,0.8,9.4,0,13.5-2.4c4-2.4,7.4-5.7,10-9.6
				c2.6-3.9,4.6-8.1,6-12.6c1.4-4.5,2.3-9.1,2.7-13.7c0.8-9.4-0.7-18.9-4.4-27.6C506.5,65.1,503.9,61.2,500.6,57.9z M508.5,69.4
				c1.9,4.3,3.2,8.9,4,13.5c0.8,4.7,1.1,9.4,0.8,14.1c-0.3,4.7-1.1,9.4-2.5,14c-1.4,4.5-3.4,8.8-6.1,12.7c-2.7,4-6.2,7.3-10.3,9.6
				c-2.1,1.2-4.3,2-6.7,2.4c-2.3,0.4-4.7,0.4-7.1,0c-2.3-0.4-4.6-1.3-6.6-2.4c-2.1-1.2-4-2.6-5.6-4.3c-3.3-3.4-6-7.3-7.9-11.7
				c-1.9-4.3-3.3-8.9-4.1-13.6c-1.6-9.4-1-19,1.8-28.1c1.4-4.6,3.4-8.9,6.1-12.8c2.6-4,6.2-7.3,10.3-9.7c4.2-2.4,9.1-3.2,13.9-2.3
				c4.7,1,8.9,3.4,12.2,6.9C504,61.1,506.6,65.1,508.5,69.4L508.5,69.4z"/>
		</g>
		<g class="st30">
			<path class="st32" d="M504.8,120.7c2.6-3.7,4.7-7.7,6-12c2.7-8.6,3.1-17.8,1.2-26.6c-0.9-4.4-2.5-8.6-4.6-12.5
				c-2.1-3.9-5-7.3-8.4-10.1c-0.2-0.2-0.4-0.4-0.6-0.5l-0.6-0.5l-1.4-0.9c-0.9-0.5-1.9-1-2.9-1.5l-1.5-0.6c-0.5-0.2-1-0.4-1.5-0.5
				c-1.1-0.3-2.1-0.5-3.2-0.6c-4.4-0.5-8.8,0.4-12.6,2.5c-3.9,2.1-7.2,5.1-9.8,8.6c-2.6,3.6-4.7,7.6-6.1,11.8
				c-2.8,8.5-3.4,17.6-1.7,26.4c0.8,4.4,2.3,8.7,4.4,12.6c2,4,4.9,7.5,8.3,10.4c0.2,0.2,0.4,0.4,0.6,0.5l0.7,0.5l1.4,0.9
				c0.9,0.6,1.9,1.1,2.9,1.6l1.6,0.6c0.5,0.2,1,0.4,1.6,0.5c1.1,0.3,2.2,0.5,3.3,0.6c4.5,0.5,9-0.4,13-2.5
				C498.8,127.4,502.2,124.4,504.8,120.7z M494.9,129.7c-4,2.2-8.6,3.1-13.1,2.7c-1.1-0.1-2.2-0.3-3.3-0.6c-0.6-0.1-1.1-0.3-1.6-0.5
				l-1.6-0.6c-1-0.5-2-1-3-1.6l-1.4-1l-0.7-0.5c-0.2-0.2-0.4-0.4-0.7-0.5c-3.5-2.9-6.4-6.5-8.5-10.5c-2.1-4-3.7-8.3-4.6-12.7
				c-1.8-8.9-1.3-18.1,1.5-26.8c1.4-4.3,3.5-8.3,6.1-12c2.7-3.7,6.1-6.7,10.1-8.9c4-2.2,8.6-3,13.1-2.5c1.1,0.1,2.2,0.3,3.3,0.6
				c0.5,0.1,1.1,0.2,1.6,0.4l1.6,0.6c1,0.5,2,1,3,1.6l1.4,1l0.7,0.5c0.2,0.2,0.4,0.4,0.7,0.5c3.5,2.9,6.4,6.4,8.5,10.5
				c2.1,4,3.7,8.3,4.5,12.7c1.8,8.9,1.2,18.1-1.6,26.8c-1.4,4.3-3.5,8.3-6.1,12C502.2,124.5,498.8,127.5,494.9,129.7L494.9,129.7z"
				/>
		</g>
		<g class="st30">
			<path class="st32" d="M489.7,76.7c-1.6-1.1-3.6-1.7-5.5-1.5c-1.9,0.2-3.8,1-5.2,2.3c-1.5,1.3-2.6,2.9-3.5,4.6
				c-1.7,3.5-2.5,7.4-2.4,11.2c0,3.9,1,7.6,2.9,11c0.9,1.7,2.2,3.1,3.8,4.2c1.5,1.1,3.4,1.6,5.3,1.6c1.9-0.2,3.7-0.9,5.2-2.1
				c1.5-1.2,2.7-2.8,3.6-4.5c3.7-7.1,3.6-15.5-0.1-22.5C492.7,79.3,491.4,77.9,489.7,76.7z M496.6,92.3c0.1,4-0.7,7.9-2.4,11.5
				c-0.9,1.8-2.1,3.4-3.6,4.7c-1.5,1.4-3.5,2.2-5.5,2.4c-2.1,0.1-4.1-0.4-5.8-1.6c-1.7-1.2-3-2.7-4.1-4.4c-1.9-3.5-2.9-7.5-2.9-11.5
				c0-4,0.9-7.9,2.8-11.5c0.9-1.8,2.2-3.3,3.7-4.6c1.5-1.3,3.4-2.1,5.4-2.2c2-0.1,4,0.5,5.6,1.6c1.6,1.2,2.9,2.6,3.9,4.4
				C495.6,84.4,496.6,88.3,496.6,92.3z"/>
		</g>
		<path class="st36" d="M495.1,89.2c3.9-22.5,18-9.4,16.3-10.1c-1.6-0.7-4.7,2.7-4.8,7s-5.4,4.9-10.1,4.2"/>
		<path class="st37" d="M496.1,88.7c0,0,6.8-0.9,7-5.5s3.4-5.2,5.3-5.3c-8-4.8-11.9,7.9-12.1,9.4"/>
		<path class="st34" d="M487.9,98.5c-4.4,2.3-6.8-1.5-5.4-6.2c1.6-5.5,5.9-4.5,6.2-3.3"/>
		<path class="st35" d="M484.2,95.5c-0.3-4.9,2.5-4.9,2.5-4.9c10,2,33.6,2.7,33.6,2.7s6.5,7.8,5.5,7.9s-27.2-2.4-33.6-2.9
			C490,98.1,484.4,98.8,484.2,95.5z"/>
		<path class="st35" d="M488.3,98.3c-0.6,0-1.3-0.1-1.9-0.3c-0.7-0.1-1.3-0.4-1.8-0.9c-0.5-0.5-0.7-1.2-0.7-1.8c0-0.7,0-1.3,0.1-2
			c0.1-0.7,0.4-1.4,0.8-1.9c0.5-0.6,1.2-1,2-1.1h0.1c2.7,0.5,5.5,0.8,8.3,1.1c2.8,0.3,5.6,0.6,8.4,0.8c5.6,0.4,11.2,0.8,16.8,1.1
			h0.1l0,0c1.2,1.4,2.3,2.8,3.4,4.3c0.5,0.7,1.1,1.4,1.6,2.2c0.3,0.4,0.5,0.8,0.7,1.2c0,0.1,0,0.2,0,0.3c0,0.1-0.1,0.1-0.2,0.2
			c-0.1,0-0.1,0-0.1,0h-0.3h-0.7c-3.6-0.2-7.2-0.4-10.9-0.7c-1.8-0.1-3.6-0.3-5.4-0.5s-3.6-0.4-5.4-0.6l-5.4-0.7l-5.4-0.5
			C490.9,98.3,489.6,98.4,488.3,98.3z M497.6,98.7l5.4,0.5c1.8,0.1,3.6,0.2,5.4,0.4s3.6,0.3,5.4,0.5c3.6,0.3,7.2,0.8,10.8,1.1h0.7
			h0.3c0.1,0,0,0,0,0s0-0.1,0-0.1c-0.2-0.4-0.4-0.8-0.6-1.2c-0.5-0.8-1-1.5-1.5-2.2c-1.1-1.4-2.2-2.8-3.4-4.2l0.1,0.1
			c-5.6-0.1-11.2-0.2-16.8-0.6c-2.8-0.2-5.6-0.4-8.4-0.7c-2.8-0.3-5.6-0.6-8.4-1.2h0.1c-0.5,0.1-1,0.3-1.3,0.7
			c-0.4,0.5-0.6,1-0.7,1.6c-0.1,0.6-0.2,1.2-0.2,1.8c-0.1,0.6,0.1,1.2,0.5,1.6c0.4,0.4,1,0.8,1.5,0.9c0.6,0.2,1.2,0.3,1.9,0.4
			c1.3,0.2,2.5,0.1,3.8,0.2L497.6,98.7z"/>
		<path class="st35" d="M497,92.3c-1.4-1-0.1-3.9-0.1-3.9s-2.3-1.5-2.7-1.8c-0.2,0.3-2.5,3.9-4.3,4.3"/>
		<path class="st38" d="M496.8,88.5c0.2-0.2-0.3-0.9-1-1.4c-0.4-0.4-1-0.6-1.6-0.5c-0.1,0.1,0.3,0.8,1,1.4
			C495.9,88.5,496.7,88.8,496.8,88.5z"/>
		<path class="st38" d="M520.7,93c-0.3-0.2-0.2,0.1-0.4,0.6s0.2,0.7,0.8,2.8c0.6,2,4.6,5.7,5.3,5.2C528.5,100.1,521,93.2,520.7,93z"
			/>
		<path class="st36" d="M494.2,90.6c0.3,0.1,1.2-0.2,0-0.7s-1.3-1.2-1.5-2.2C485.5,62,473.3,72.8,475,72.4s5.1,4.2,5.5,9
			c0.4,4.8,5.9,7.4,10.8,7.2C492.2,88.6,493.9,90.5,494.2,90.6z"/>
		<path class="st37" d="M491.2,88.1c0,0-9-1.9-8.8-8.1s-3.9-7.2-6.5-7.6c11.1-5.5,15,11.8,15.2,13.8"/>
		<path class="st6" d="M319.9,82.3c0.8-1.1,5.8-2.2,7.7-2.1s4.3,0.3,11.4,0.8c4.1,0.2,8.2,1.4,11.8,3.5"/>
		<path class="st6" d="M319.9,82c0.8-1.1,5.8-2.2,7.7-2.1s4.3,0.3,11.4,0.8c4.1,0.2,8.2,1.4,11.8,3.4"/>
		<g class="st39">
			<path class="st40" d="M343.2,81.5c-1.3-0.2-2.6-0.4-3.9-0.4l-4-0.2c-2.6-0.2-5.3-0.4-7.9-0.7c-1.3,0-2.5,0-3.8,0.3
				c-0.6,0.1-1.3,0.2-1.9,0.4c-0.6,0.1-1.3,0.4-1.8,0.7c0.4-0.5,1-0.9,1.6-1.2c0.6-0.3,1.2-0.5,1.9-0.8c1.3-0.5,2.7-0.7,4.1-0.8
				c2.7,0,5.3,0.2,8,0.3c1.3,0.1,2.6,0.2,4,0.3c1.4,0.1,2.7,0.4,4,0.7c2.6,0.7,5.1,1.9,7.3,3.5C348.3,82.6,345.8,81.9,343.2,81.5z"
				/>
		</g>
		<path class="st6" d="M185.7,76.6c0.7-1.1,5.6-2.7,7.5-2.7s4.4,0,11.4-0.1c4.1-0.1,8.3,0.8,12,2.6"/>
		<g class="st39">
			<path class="st40" d="M209,74.4c-1.3-0.1-2.6-0.2-3.9-0.1l-4,0.1c-2.7,0-5.4,0-8-0.1c-1.3,0.1-2.5,0.2-3.8,0.6
				c-0.6,0.1-1.3,0.3-1.9,0.5c-0.6,0.2-1.2,0.5-1.7,0.9c0.4-0.6,0.9-1,1.5-1.3c0.6-0.3,1.2-0.6,1.8-0.9c1.3-0.6,2.6-0.9,4-1.1
				c2.7-0.2,5.3-0.2,8-0.2c1.3,0,2.6,0,4,0c1.4,0,2.7,0.2,4.1,0.4c2.7,0.5,5.2,1.5,7.5,3C214.1,75.2,211.6,74.6,209,74.4z"/>
		</g>
		<g class="st39">
			<path class="st40" d="M318.4,253.8c-0.6,1.8-1.2,3.6-1.8,5.3c-0.6,1.8-1.1,3.6-1.7,5.4s-0.9,3.6-1.6,5.4
				c-0.6,1.8-1.4,3.5-2.2,5.2h-0.2c-0.1-1.9,0.2-3.8,0.6-5.7c0.5-1.8,1.2-3.6,2-5.3c1.4-3.5,3-6.9,4.7-10.3L318.4,253.8z"/>
		</g>
		<g class="st39">
			<path class="st40" d="M255.4,250.9c0.6-2.3,1.5-4.5,2.6-6.7c1.1-2.1,2.4-4.2,3.8-6.1c1.4-2,2.8-3.9,4.4-5.7
				c1.5-1.9,3.2-3.6,5.1-5.1l-0.2,0.3c0.5-1,1.1-2,1.7-3c0.7-1,1.4-1.8,2.3-2.6l0.1,0.1c-0.6,1-1.1,2-1.5,3c-0.4,1-0.8,2.1-1.2,3.1
				v0.1l-0.1,0.2l-4.9,5c-1.6,1.7-3.2,3.5-4.7,5.3c-1.5,1.9-2.8,3.8-4.1,5.8c-1.3,2-2.3,4.1-3.1,6.3L255.4,250.9z"/>
		</g>
		<path class="st41" d="M310.3,289c-5.9,1.6-12.9,0.9-14.5,1.2c-0.8,0.2-14.3,34.8-14.8,42.4s2.9,32.1,16,56s10.7,84.3,11.2,90.8
			c5.1-0.1,10.1-0.6,15.1-1.6c7.1-52.3-6.7-86.7-11.9-92.5c-5.2-5.9-12.1-31-14.2-44.9C295.1,326.5,310.3,288.9,310.3,289"/>
		<path class="st8" d="M307.3,371c-15.8,6.3-80.5,13-87.4,11.5c-3.8-10.1-3.4-19.1-3.4-23c40.7,5.4,85.3-15.6,85.3-15.6
			C304.8,349.4,309.6,364.6,307.3,371z"/>
		<path class="st41" d="M303.5,370.9c-3.8,1.5-12.6,2.2-13.9,2.6c-1.5-2.4-5.9-19.8-6.1-20.9c4.4-1,14.6-4.9,14.6-4.9
			C302.2,352.3,303.5,370.5,303.5,370.9z"/>
		<g class="st42">
			<path class="st40" d="M243.5,243.4c-0.2,0.6-0.6,1.2-1.1,1.6c-0.5,0.3-1,0.5-1.6,0.6c-0.5,0.2-1.1,0.4-1.7,0.5
				c-0.6,0.1-1.1,0.2-1.7,0.3l-0.1-0.2l2.8-1.9c0.4-0.4,0.9-0.7,1.4-0.9c0.6-0.2,1.2-0.2,1.8-0.1L243.5,243.4z"/>
		</g>
		<g class="st42">
			<path class="st40" d="M226.1,248.1c-0.9-0.4-1.8-0.9-2.7-1.5c-0.9-0.6-1.7-1.2-2.4-1.9c-0.8-0.6-1.5-1.4-2.1-2.3
				c-0.5-0.9-0.9-1.9-1-3l0.2-0.1c0.8,0.6,1.6,1.2,2.2,2c0.7,0.7,1.1,1.6,1.7,2.3s1.2,1.5,1.9,2.2c0.7,0.7,1.4,1.4,2.2,2
				L226.1,248.1z"/>
		</g>
		<path class="st6" d="M320.8,68.5c-1.9,2.1-1.7,5.4,0.4,7.2c2.7,2.2,17.5,3.7,22.4,3.6c4.9-0.1,13.3-5.4,9.9-8.1
			c-3.4-2.7-13.5-9.8-30.3-4.3C322.4,67.3,321.5,67.8,320.8,68.5z"/>
		<path class="st6" d="M218.4,69c-2.9,2.1-17.9,3.1-23,3s-13.6-5.3-10-7.7s14-8.9,31-3.4C220.9,62.2,221.3,66.9,218.4,69z"/>
		<g class="st39">
			<path class="st8" d="M246.5,310.9c-0.2,0.4-0.6,0.8-1,1c-0.4,0.3-0.8,0.5-1.3,0.7c-0.9,0.4-1.8,0.7-2.7,1
				c-1.9,0.5-3.8,0.9-5.7,1.1c-3.9,0.4-7.7,0.4-11.6-0.2l-0.3,0l-0.2-0.3c-0.8-1.2-1.5-2.5-2-3.8c-0.5-1.3-0.9-2.7-1.1-4.2
				c-0.2-1.4-0.3-2.9-0.2-4.3c0.1-1.4,0.4-2.8,0.8-4.2h0.2c0,1.4,0,2.8,0.1,4.1c0.1,1.3,0.3,2.7,0.7,4c0.3,1.3,0.7,2.6,1.2,3.8
				c0.4,1.2,1,2.4,1.7,3.6l-0.5-0.4c3.7,0.8,7.4,1.1,11.2,0.8c1.9-0.1,3.8-0.3,5.6-0.7c0.9-0.2,1.8-0.4,2.7-0.8
				c0.4-0.2,0.9-0.3,1.3-0.6c0.4-0.2,0.7-0.5,1-0.9L246.5,310.9z"/>
		</g>
		<g class="st39">
			<path class="st8" d="M224.3,313.7c-1.5,0.7-3.1,1.2-4.7,1.4c-1.7,0.2-3.3,0.2-5-0.1c-1.8-0.2-3.4-1-4.7-2.3
				c-1.2-1.3-1.8-3-1.8-4.8h0.2c0.7,1.4,1.7,2.6,2.8,3.6c1.1,1,2.4,1.7,3.8,2.2c1.5,0.4,3.1,0.6,4.6,0.6c1.6,0,3.2-0.2,4.7-0.7
				L224.3,313.7z"/>
		</g>
		<g class="st39">
			<path class="st8" d="M249.9,328.6c-0.3,0.4-0.6,0.8-1,1c-0.4,0.3-0.8,0.5-1.3,0.7c-0.9,0.4-1.8,0.7-2.7,1
				c-1.9,0.5-3.8,0.9-5.7,1.1c-3.9,0.4-7.7,0.4-11.6-0.2h-0.3l-0.2-0.3c-0.8-1.2-1.5-2.5-2-3.8c-0.5-1.3-0.9-2.8-1.1-4.2
				c-0.2-1.4-0.3-2.8-0.2-4.3c0.1-1.4,0.4-2.8,0.8-4.2h0.2c0,1.4,0,2.8,0.1,4.1c0.2,2.7,0.9,5.3,1.8,7.8c0.5,1.2,1,2.5,1.7,3.6
				l-0.5-0.4c3.7,0.8,7.4,1.1,11.2,0.8c1.9-0.1,3.8-0.3,5.6-0.7c0.9-0.2,1.8-0.4,2.7-0.8c0.4-0.2,0.9-0.4,1.3-0.6
				c0.4-0.2,0.8-0.5,1-0.9L249.9,328.6z"/>
		</g>
		<g class="st39">
			<path class="st8" d="M227.7,331.5c-1.5,0.7-3.1,1.2-4.7,1.4c-1.7,0.2-3.3,0.2-5-0.1c-1.8-0.2-3.4-1-4.7-2.3
				c-1.2-1.3-1.9-3.1-1.8-4.8h0.2c0.7,1.4,1.7,2.6,2.8,3.6c1.1,1,2.4,1.7,3.8,2.2c1.5,0.4,3.1,0.6,4.6,0.6c1.6,0,3.2-0.2,4.7-0.7
				L227.7,331.5z"/>
		</g>
		<g class="st39">
			<path class="st8" d="M251.8,348.8c-0.4,0.8-1,1.5-1.8,2c-0.7,0.5-1.5,0.9-2.4,1.2c-1.6,0.7-3.4,1.1-5.1,1.5
				c-1.8,0.3-3.5,0.5-5.3,0.6c-1.8,0.1-3.6,0.1-5.3,0h-0.4l-0.2-0.4c-0.9-1.6-1.7-3.3-2.3-5c-0.6-1.7-1.1-3.5-1.4-5.3
				c-0.3-1.8-0.4-3.6-0.4-5.5c0-1.8,0.2-3.6,0.6-5.4h0.2c0.1,1.8,0.2,3.6,0.4,5.3s0.5,3.5,0.9,5.2s0.8,3.4,1.3,5.1
				c0.5,1.7,1.1,3.3,1.9,4.9l-0.6-0.4c1.7,0.1,3.5,0.3,5.2,0.3c1.7,0,3.5-0.1,5.2-0.3c1.7-0.2,3.4-0.6,5.1-1.1
				c0.8-0.3,1.6-0.6,2.4-1c0.8-0.4,1.4-1,1.8-1.8L251.8,348.8z"/>
		</g>
		<g class="st39">
			<path class="st8" d="M232,353.5c-1.4,0.8-2.9,1.5-4.4,1.9c-1.6,0.5-3.2,0.7-4.9,0.7c-0.4,0-0.9,0-1.3-0.1c-0.4,0-0.9-0.1-1.3-0.2
				l-0.6-0.2c-0.2-0.1-0.4-0.2-0.6-0.3l-0.6-0.3c-0.2-0.1-0.4-0.3-0.5-0.4c-1.3-1.2-2.1-2.8-2.1-4.6h0.2c0.8,1.3,1.8,2.4,3,3.2
				c1.2,0.8,2.5,1.3,3.9,1.6c1.5,0.2,3.1,0.1,4.6-0.1c1.6-0.2,3.1-0.6,4.5-1.2L232,353.5z"/>
		</g>
		<g class="st39">
			<path class="st8" d="M279.6,268.7c-1.1,4.3-3.3,8.3-6.4,11.5c-3.2,3.2-7,5.6-11.2,7.2c-1.1,0.4-2.1,0.8-3.2,1.1l-3.2,0.9
				c-2.2,0.4-4.4,0.9-6.6,1.2c-4.4,0.7-8.9,0.9-13.4,0.6c-1.1-0.1-2.2-0.2-3.4-0.4l-1.7-0.4c-0.5-0.1-1.1-0.3-1.6-0.5
				s-1.1-0.5-1.6-0.7c-0.5-0.3-1-0.6-1.5-0.9c-0.5-0.3-1-0.7-1.4-1.2c-0.2-0.2-0.4-0.5-0.6-0.8c-0.1-0.1-0.2-0.3-0.3-0.5l-0.1-0.3
				c0,0,0-0.1-0.1-0.1c0-0.1,0-0.1,0-0.2c0-0.1,0-0.2,0-0.2c0-0.1,0,0,0,0s0,0.1,0,0l-0.2-0.4c-0.1-0.3-0.2-0.5-0.4-0.8
				c-0.2-0.5-0.4-1.1-0.6-1.6c-0.2-0.6-0.3-1.1-0.4-1.7s-0.2-1.1-0.3-1.7c-0.2-2.2-0.3-4.5-0.2-6.8c0.4-4.5,1.1-8.9,2.3-13.2
				c0.5-2.1,1.2-4.3,1.9-6.4s1.5-4.2,2.2-6.2l0.2,0.1c-1.1,4.3-2.2,8.5-3.1,12.9c-0.9,4.3-1.5,8.6-1.7,13c-0.1,2.1,0,4.3,0.2,6.4
				l0.2,1.6c0.1,0.5,0.2,1,0.4,1.5c0.1,0.5,0.3,1,0.5,1.5c0.1,0.2,0.2,0.5,0.3,0.7l0.2,0.4c0.1,0.1,0.1,0.3,0.1,0.4v0.2l0,0l0,0v0
				l0,0.1c0,0.1,0.1,0.2,0.1,0.3c0.1,0.2,0.3,0.4,0.4,0.5c0.3,0.4,0.7,0.7,1.1,1c0.4,0.3,0.8,0.6,1.3,0.8c0.4,0.2,0.9,0.5,1.4,0.6
				s1,0.4,1.5,0.5l1.5,0.4c1.1,0.2,2.1,0.4,3.2,0.5c4.4,0.4,8.7,0.2,13.1-0.4c2.2-0.2,4.3-0.6,6.5-1l3.2-0.8c1.1-0.2,2.1-0.7,3.1-1
				c4.1-1.4,7.9-3.7,11.1-6.7c3.2-3.1,5.5-6.9,6.6-11.2L279.6,268.7z"/>
		</g>
		<g class="st39">
			<path class="st8" d="M221.3,285.3c-0.7,0.9-1.5,1.7-2.4,2.5c-0.9,0.8-1.8,1.5-2.9,2c-0.5,0.3-1.1,0.5-1.7,0.5
				c-0.6,0.1-1.2,0.2-1.7,0.2c-1.2,0.1-2.3,0.1-3.5,0.1c-2.4,0-4.7-0.2-7-0.7c-0.3-0.1-0.6-0.2-0.9-0.3c-0.3-0.1-0.7-0.3-0.9-0.5
				c-0.1-0.1-0.2-0.2-0.2-0.3l-0.1-0.2l-0.2-0.4c-0.2-0.2-0.3-0.5-0.5-0.7c-0.6-1-1.2-2.1-1.6-3.2c-1.5-4.5-1.9-9.3-1-14
				c0.9-4.6,2.4-9,4.6-13.1l0.2,0.1c-1.3,4.4-2.3,8.8-3,13.3c-0.3,2.2-0.5,4.4-0.4,6.7c0,2.2,0.3,4.4,1,6.5c0.3,1,0.8,2,1.3,3
				c0.1,0.2,0.3,0.5,0.4,0.7l0.2,0.4l0.1,0.2c0,0,0,0,0,0c0.4,0.3,0.8,0.5,1.3,0.6c2.2,0.5,4.4,0.8,6.7,0.9c1.1,0.1,2.3,0.1,3.4,0.1
				c1.1,0.1,2.2-0.1,3.3-0.5c1-0.5,2-1.1,2.8-1.8c0.9-0.7,1.7-1.5,2.5-2.3L221.3,285.3z"/>
		</g>
		<g class="st39">
			<path class="st8" d="M273.3,281.4c-0.2,3.1-0.8,6.2-1.7,9.2c-0.9,3-2.1,5.9-3.6,8.7c-0.4,0.7-0.7,1.4-1.2,2.1s-0.8,1.3-1.2,2
				c-0.9,1.3-1.9,2.6-3,3.7c-2.2,2.3-4.7,4.2-7.5,5.7l-0.1-0.1c2.2-2.3,4.4-4.4,6.3-6.8c1-1.1,1.9-2.4,2.9-3.5
				c0.9-1.2,1.8-2.5,2.6-3.8c1.6-2.6,2.9-5.4,4-8.3c1.1-2.9,1.9-5.9,2.4-9L273.3,281.4z"/>
		</g>
		<g class="st39">
			<path class="st40" d="M293.4,256.5c6.9-2.2,13.2-6.1,18.4-11.2c5.2-5.1,9.2-11.2,11.7-18c2.4-6.8,3.9-13.9,4.2-21.1
				c0.5-7.2,0.3-14.5-0.4-21.7h0.2c1.6,7.2,2.3,14.5,2,21.9c-0.3,7.4-1.9,14.7-4.7,21.5c-2.8,6.9-7,13-12.4,18.1
				c-5.4,5-11.9,8.7-19,10.7L293.4,256.5z"/>
		</g>
		<g class="st39">
			<path class="st40" d="M326.8,169.4c1.6-3.6,3-7.4,4.1-11.2c1.2-3.8,2.2-7.6,3-11.5c0.8-3.9,1.2-7.8,1.7-11.7s0.7-7.9,1-11.9h0.2
				c0.2,1,0.3,2,0.4,3l0.2,1.5l0.1,1.5c0.1,1,0.1,2,0.1,3l-0.1,3c-0.1,2-0.4,4-0.8,6c-0.4,2-0.8,3.9-1.3,5.9
				c-1,3.9-2.1,7.7-3.5,11.5c-1.4,3.8-3,7.4-4.8,11L326.8,169.4z"/>
		</g>
		<g class="st39">
			<path class="st40" d="M204.8,240c-3-5.2-5.6-10.6-7.7-16.2c-2.1-5.6-3.8-11.4-5.1-17.3l-0.5-2.2c-0.2-0.7-0.3-1.5-0.4-2.2
				c-0.2-1.5-0.5-3-0.7-4.5c-0.4-3-0.6-6-0.7-9c0-1.5-0.1-3,0-4.5s0.2-3,0.3-4.5c0.1-0.8,0.1-1.5,0.2-2.2l0.3-2.2
				c0.2-1.4,0.5-3,0.8-4.4h0.2c0,1.5-0.1,3-0.1,4.5l-0.1,2.2c0,0.7,0,1.5,0,2.2c0,1.5,0,3,0,4.5s0.2,3,0.2,4.4s0.1,3,0.3,4.4
				l0.4,4.4c0.2,1.4,0.4,2.9,0.6,4.4c0.1,0.7,0.2,1.5,0.3,2.2l0.4,2.2c1.1,5.9,2.6,11.6,4.5,17.3c1.9,5.7,4.2,11.2,7,16.5H204.8z"/>
		</g>
		<g class="st39">
			<path class="st40" d="M191.2,151.5c-0.6-4.7-1.1-9.4-1.4-14s-0.5-9.3-0.6-14c-0.2-4.7,0-9.4,0.5-14.1c0.3-2.4,0.8-4.7,1.4-7
				c0.6-2.3,1.5-4.5,2.8-6.5l0.2,0.1c-0.8,2.2-1.4,4.4-1.7,6.7c-0.4,2.3-0.6,4.6-0.8,6.9c-0.4,4.6-0.8,9.2-0.9,13.9s-0.1,9.3,0.1,14
				s0.3,9.4,0.7,14L191.2,151.5z"/>
		</g>
		<g class="st42">
			<path class="st40" d="M259.3,474.7c-0.9,6.3-1.3,12.7-1.3,19c0,6.4,0.3,12.7,1.1,19l0.3,2.4l0.4,2.3c0.3,1.6,0.5,3.1,0.8,4.7
				l0.9,4.7c0.2,1.6,0.7,3.1,1,4.7s0.6,3.1,1,4.6s0.8,3,1.2,4.6s0.9,3.1,1.3,4.6s0.9,3.1,1.3,4.6l-0.2,0.1
				c-2.7-5.8-4.8-11.9-6.4-18.1c-0.4-1.6-0.8-3.1-1.1-4.7l-0.8-4.7c-0.2-1.6-0.4-3.2-0.6-4.8l-0.3-2.4l-0.2-2.4
				c-0.6-6.4-0.8-12.8-0.6-19.2c0.2-6.4,0.9-12.8,2-19.1L259.3,474.7z"/>
		</g>
		<g class="st42">
			<path class="st40" d="M211.6,485.3c0,6.3,0.3,12.7,1,19l0.2,2.4l0.3,2.4c0.2,1.6,0.4,3.1,0.7,4.7c0.6,3.1,1,6.3,1.8,9.4
				c1.2,6.2,3.1,12.3,4.9,18.5c-2.6-5.9-4.7-11.9-6.3-18.1c-0.9-3.1-1.4-6.3-2.1-9.4c-0.3-1.6-0.5-3.2-0.7-4.8l-0.4-2.4l-0.2-2.4
				c-0.1-1.6-0.3-3.2-0.4-4.8l-0.3-4.8l-0.1-4.8c0-1.6,0.1-3.2,0.1-4.8c0.2-6.4,1-12.8,2.3-19C211.9,472.5,211.5,478.9,211.6,485.3z
				"/>
		</g>
		<g class="st39">
			<path class="st40" d="M315,464.2c0.2,7.4,0,14.8-0.6,22.1c-0.6,7.4-1.7,14.7-3.2,22c-0.8,3.6-1.7,7.2-2.9,10.8
				c-0.6,1.8-1.2,3.5-1.9,5.2c-0.3,0.9-0.7,1.7-1.1,2.6c-0.4,0.9-0.8,1.7-1.2,2.5c-1.7,3.3-3.7,6.5-6.1,9.4l-0.9,1.1
				c-0.3,0.3-0.7,0.7-1,1c-0.6,0.7-1.3,1.4-2,2c-0.7,0.6-1.4,1.2-2.2,1.8c-0.8,0.6-1.5,1-2.3,1.6l-0.1-0.1c0.7-0.6,1.4-1.2,2.1-1.8
				s1.3-1.4,1.9-2c0.6-0.7,1.2-1.3,1.8-2.1c0.3-0.3,0.6-0.7,0.9-1l0.8-1.1c2.1-2.9,4-6.1,5.5-9.4c0.4-0.8,0.8-1.6,1.1-2.5
				s0.7-1.7,1.1-2.5c0.8-1.7,1.4-3.4,2-5.1c1.2-3.5,2.2-7,3.1-10.5c1.7-7.1,3-14.4,3.7-21.7c0.8-7.3,1.2-14.7,1.2-22.1L315,464.2z"
				/>
		</g>
		<g class="st39">
			<path class="st40" d="M248.7,501l-4.4,18.2c-0.7,3.1-1.3,6.1-2.2,9.1s-1.9,5.9-2.9,8.9h-0.2c0.2-3.1,0.6-6.2,1.4-9.3
				c0.6-3.1,1.7-6,2.6-9l2.7-8.9l2.9-8.9L248.7,501z"/>
		</g>
		<g class="st39">
			<path class="st40" d="M234.2,564.1c0.7,3.5,1.4,6.9,2.3,10.3s1.5,6.8,2.5,10.2s2.1,6.7,3.4,9.9c0.6,1.7,1.3,3.3,2,4.9
				s1.5,3.2,2.2,4.8l-0.2,0.1c-0.8-1.5-1.8-3.1-2.5-4.6s-1.6-3.1-2.3-4.8c-1.5-3.2-2.8-6.5-4-9.8c-1.2-3.3-2.2-6.8-2.9-10.2
				c-0.7-3.5-0.9-7.1-0.7-10.6L234.2,564.1z"/>
		</g>
		<g class="st39">
			<path class="st40" d="M280.7,575.8c0.7,3.5,1.4,6.9,2.3,10.2s1.5,6.8,2.5,10.2s2.1,6.7,3.4,9.9c0.6,1.7,1.3,3.3,2,4.9
				c0.7,1.6,1.5,3.2,2.2,4.8l-0.2,0.1c-0.8-1.5-1.8-3-2.5-4.6s-1.6-3.1-2.3-4.8c-1.5-3.2-2.8-6.5-4-9.8c-1.2-3.3-2.2-6.7-2.9-10.2
				c-0.7-3.5-0.9-7.1-0.7-10.6L280.7,575.8z"/>
		</g>
	</g>
</g>
</svg>
