<svg xmlns="http://www.w3.org/2000/svg" xmlns:xlink="http://www.w3.org/1999/xlink" viewBox="0 0 575 465.63"><defs><style>.cls-1{fill:none;}.cls-13,.cls-2{fill:#231f20;}.cls-2{opacity:0.25;}.cls-3{fill:#808184;}.cls-4{fill:#929497;}.cls-5{fill:#a77c4f;}.cls-6{fill:#d0d2d3;}.cls-7{fill:#a6a8ab;}.cls-8{fill:#cc6601;}.cls-9{fill:#f37c20;}.cls-10{fill:#4d3e38;}.cls-11{fill:#f17c21;}.cls-12{fill:#fff;}.cls-14{fill:#90633f;}.cls-15{fill:#9a7249;}.cls-16,.cls-69{opacity:0.2;}.cls-17{fill:#603917;}.cls-18{fill:#c1976b;}.cls-19{opacity:0.1;}.cls-20{fill:#754d29;}.cls-21{fill:#5b4a42;}.cls-22{clip-path:url(#clip-path);}.cls-23{fill:#9f754b;}.cls-24{fill:#9f734b;}.cls-25{fill:#9e724b;}.cls-26{fill:#9e714b;}.cls-27{fill:#9f704b;}.cls-28{fill:#9f6f4b;}.cls-29{fill:#9f6e4c;}.cls-30{fill:#9e6d4b;}.cls-31{fill:#9f6c4b;}.cls-32{fill:#9f6b4d;}.cls-33{fill:#9e6b4c;}.cls-34{fill:#9e6a4c;}.cls-35{fill:#9f6a4c;}.cls-36{fill:#9e674c;}.cls-37{fill:#9e664b;}.cls-38{fill:#9e664c;}.cls-39{fill:#9e654c;}.cls-40{fill:#9e634b;}.cls-41{fill:#9e634c;}.cls-42{fill:#9e624b;}.cls-43{fill:#9e614c;}.cls-44{fill:#9e5f4b;}.cls-45{fill:#9d5e4b;}.cls-46{fill:#9e5e4b;}.cls-47{fill:#9d5e4c;}.cls-48{fill:#9e5e4a;}.cls-49{fill:#9e5d4b;}.cls-50{fill:#9e5b4b;}.cls-51{fill:#9e5a4b;}.cls-52{fill:#9d594b;}.cls-53{fill:#9e584b;}.cls-54{fill:#9e574b;}.cls-55{fill:#9e574a;}.cls-56{fill:#9e564b;}.cls-57{fill:#9e554a;}.cls-58{fill:#9e554b;}.cls-59{fill:#9e544a;}.cls-60{fill:#9e544b;}.cls-61{fill:#9d534a;}.cls-62{fill:#9c534a;}.cls-63{clip-path:url(#clip-path-2);}.cls-64{fill:#e5e6e6;}.cls-65{fill:#f18c20;}.cls-66{fill:#cfd1d2;}.cls-67{fill:#d6b17d;}.cls-68{fill:#f59120;}.cls-69{fill:#d8df25;}.cls-70{opacity:0.55;}.cls-71{isolation:isolate;}.cls-72{clip-path:url(#clip-path-3);}.cls-73{fill:#3a3230;}.cls-74{clip-path:url(#clip-path-4);}.cls-75{fill:#6f6764;}.cls-76{clip-path:url(#clip-path-5);}.cls-77{clip-path:url(#clip-path-6);}.cls-78{fill:#6e6663;}.cls-79{fill:#6d6462;}.cls-80{fill:#6d6461;}.cls-81{fill:#6c6360;}.cls-82{fill:#6b625f;}.cls-83{fill:#6a615e;}.cls-84{fill:#69615e;}.cls-85{fill:#68605d;}.cls-86{fill:#685f5c;}.cls-87{fill:#675e5b;}.cls-88{fill:#665d5a;}.cls-89{fill:#665d59;}.cls-90{fill:#655b58;}.cls-91{fill:#645a57;}.cls-92{fill:#635a57;}.cls-93{fill:#625956;}.cls-94{fill:#615855;}.cls-95{fill:#605754;}.cls-96{fill:#5f5653;}.cls-97{fill:#5e5552;}.cls-98{fill:#5d5451;}.cls-99{fill:#5d5350;}.cls-100{fill:#5c524f;}.cls-101{fill:#5b514e;}.cls-102{fill:#5a504d;}.cls-103{fill:#594f4c;}.cls-104{fill:#584e4b;}.cls-105{fill:#574d4a;}.cls-106{fill:#564c49;}.cls-107{fill:#554b48;}.cls-108{fill:#544a47;}.cls-109{fill:#534945;}.cls-110{fill:#514744;}.cls-111{fill:#504643;}.cls-112{fill:#4f4542;}.cls-113{fill:#4e4441;}.cls-114{fill:#4d433f;}.cls-115{fill:#4c413e;}.cls-116{fill:#4a403d;}.cls-117{fill:#493e3b;}.cls-118{fill:#473d39;}.cls-119{fill:#453b38;}.cls-120{fill:#433936;}.cls-121{fill:#413734;}.cls-122{fill:#3f3531;}.cls-123{fill:#3c322f;}.cls-124{fill:#382d2a;}.cls-125{fill:#332926;}.cls-126{fill:#342926;}.cls-127{fill:#342a27;}.cls-128{fill:#352b27;}.cls-129{fill:#342b27;}.cls-130{fill:#352b28;}.cls-131{fill:#352b29;}.cls-132{fill:#352c29;}.cls-133{fill:#362d2a;}.cls-134{fill:#372d2b;}.cls-135{fill:#372e2b;}.cls-136{fill:#372e2c;}.cls-137{fill:#372f2c;}.cls-138{fill:#382f2d;}.cls-139{fill:#38302d;}.cls-140{fill:#39302e;}.cls-141{fill:#39312e;}.cls-142{fill:#3a312f;}.cls-143{fill:#39312f;}.cls-144{fill:#39322f;}.cls-145{clip-path:url(#clip-path-7);}.cls-146{fill:#3b3331;}.cls-147{clip-path:url(#clip-path-8);}.cls-148{clip-path:url(#clip-path-9);}.cls-149{opacity:0.08;}.cls-150{fill:#cfa779;}</style><clipPath id="clip-path"><ellipse class="cls-1" cx="205.65" cy="203.01" rx="16.49" ry="18.2"/></clipPath><clipPath id="clip-path-2"><ellipse class="cls-1" cx="100.63" cy="203.22" rx="16.49" ry="17.99"/></clipPath><clipPath id="clip-path-3"><path class="cls-1" d="M249.6,344.42v15.49c0-.67,0-1.33-.06-2V342.42C249.58,343.09,249.6,343.76,249.6,344.42Z"/></clipPath><clipPath id="clip-path-4"><path class="cls-1" d="M154,293.3V277.81l11.43,0,5.53,0V293.3c-1.84,0-3.69,0-5.53,0Z"/></clipPath><clipPath id="clip-path-5"><path class="cls-1" d="M153.55,293.3V277.81H154V293.3h-.48Z"/></clipPath><clipPath id="clip-path-6"><path class="cls-1" d="M177.2,274.79v15.48c0,1.71-2.41,3-6.21,3V277.82C174.79,277.79,177.2,276.5,177.2,274.79Z"/></clipPath><clipPath id="clip-path-7"><path class="cls-1" d="M129.94,290.23V274.75c0,1.71,2.39,3,6.18,3,2.68,0,5.35,0,8,0h9.4V293.3h-9.4c-2.68,0-5.35,0-8,0C132.33,293.23,129.94,291.94,129.94,290.23Z"/></clipPath><clipPath id="clip-path-8"><path class="cls-1" d="M153.63,267.65V252.17a65,65,0,0,1,26.79,5.62c5.33,2.52,8.78,5.83,12.31,9.13,16.18,15.13,32.32,30.29,44.31,46.73,6.73,9.21,11.88,18.7,12.5,28.77V357.9c-.62-10.07-5.77-19.55-12.5-28.77-12-16.44-28.13-31.59-44.31-46.72-3.53-3.3-7-6.62-12.31-9.13A65,65,0,0,0,153.63,267.65Z"/></clipPath><clipPath id="clip-path-9"><path class="cls-1" d="M57.09,359.91V344.43c0-.73,0-1.47.08-2.21.69-10.07,5.88-19.54,12.68-28.75,12.09-16.41,28.32-31.53,44.6-46.63,3.55-3.29,7-6.61,12.37-9.1a65,65,0,0,1,26.81-5.57v15.48a65.18,65.18,0,0,0-26.81,5.57c-5.37,2.5-8.82,5.81-12.37,9.1-16.28,15.1-32.51,30.22-44.6,46.63-6.8,9.22-12,18.69-12.68,28.75C57.12,358.44,57.09,359.18,57.09,359.91Z"/></clipPath></defs><g id="Layer_2" data-name="Layer 2"><g id="Layer_1-2" data-name="Layer 1"><path class="cls-2" d="M575,222.44l-34.49-1.94-79.43-102-7.19-4.59-.93-1.31L444.18,117l.7,1-21,9.55L406.23,139.9l-47.05-5-75.83,18.95v48.9c-1.38,1.24,0,44.19,0,44.19l32.16,8.38c0,.1,0,.18,0,.27l13.09,2.4,61.06,12.43L475.55,258,489,269.32l41.07-.77Zm-321.95-4.16a3.88,3.88,0,0,1,.15-.61l7.29,1.21a77.69,77.69,0,0,1-6.94,6.36C252.71,223.38,252.67,221.13,253.05,218.28Z"/><polygon class="cls-3" points="280.24 153.55 360.56 135.62 360.56 224.13 280.24 153.55"/><polygon class="cls-4" points="460.38 146.15 360.56 135.62 360.56 224.13 460.38 146.15"/><path class="cls-5" d="M281.51,347.28c-1.25,1.28,4.89,4.29,8.85,3.57-3,2.29-6.87.69-9.09,3.28l-2.17-11.56-3.81-9.84s3.85,3.36,6.49,0c0,0,.45,2.86-.42,4.38-1.48,2.6,2.36,3.52,10,2.59C287.29,349.18,282.4,346.62,281.51,347.28Z"/><polygon class="cls-6" points="389.42 166.81 389.42 263.9 280.24 241.67 280.24 153.55 389.42 166.81"/><polygon class="cls-7" points="389.42 166.81 389.42 263.9 460.38 235.44 460.38 146.15 389.42 166.81"/><polygon class="cls-6" points="403.45 141.47 421.78 128.6 511.07 250.64 491.19 264.68 403.45 141.47"/><polygon class="cls-7" points="464.67 109.1 421.78 128.6 511.07 250.64 543.82 217.89 464.67 109.1"/><path class="cls-8" d="M342.63,254.15c0-26.12-5.85-57.32-25.35-57.71-10.52,0-12.21,4.81-12.21,4.81s11.82-1.95,14.16,48.61Z"/><path class="cls-9" d="M286.87,195.14c5.07-3.12,13.91-1.43,16.38-.91s14.51,2.29,14.51,2.29-12-1.71-26.86,20.46c-13.4,19.94-32.21,5.55-32.21,5.55s8.56-5.81,17.78-18.55A32.87,32.87,0,0,1,286.87,195.14Z"/><path class="cls-8" d="M323.55,217l-21.83-3.64s2.5-7.22,16.76-4.94C321.56,208.89,323.94,212.56,323.55,217Z"/><path class="cls-8" d="M418,252.33c-.13-17.94-1-32.23,6.63-41.2s19.24-7.67,22-7.28c0,0-6.76,6-7.93,20.41s-1,20.79-1,20.79Z"/><path class="cls-9" d="M445.31,201s-13.5,4.52-13.73,4.8S448,203.85,448,203.85Z"/><path class="cls-8" d="M440.59,226.17l17.77-7.6,3.09,4s-2.31,12.1-12.08,11.4C443.91,233.58,440.59,226.17,440.59,226.17Z"/><path class="cls-9" d="M465.66,228.8l-13.06,5s6.59-2.49,8.85-11.2Z"/><polygon class="cls-8" points="437.57 190.98 457.65 176.75 495.6 151.6 510.42 172.14 475 202.1 454.14 216.33 437.57 190.98"/><polygon class="cls-8" points="457.65 142.5 525.69 237.19 533.1 229.98 465.19 136.79 457.65 142.5"/><polygon class="cls-8" points="441.02 118.59 457.65 142.5 465.19 136.79 449.33 114.43 441.02 118.59"/><path class="cls-9" d="M316.38,227.45l-26.88-4.1s-9.18-5.14-4.55-14c3.38-6.5,13.13-4.81,13.13-4.81l20.4,3.9s-12.47-.78-13.38,6.11S305.76,224.6,316.38,227.45Z"/><path class="cls-10" d="M359.35,172.27h0a2.39,2.39,0,0,0,3.64.91h0a2.41,2.41,0,0,1,3.88,1.71h0a2.48,2.48,0,0,0,3.22,2.12h0a2.44,2.44,0,0,1,3.13,3h0a2.45,2.45,0,0,0,2.33,3.09h0c2,.09,3.21,2.42,1.92,3.79h0a2.29,2.29,0,0,0,1.06,3.62h0c2,.81,2.2,3.33.4,4.11h0a2.13,2.13,0,0,0-.36,3.63h0a2.11,2.11,0,0,1-1.2,3.82h0a2,2,0,0,0-1.74,3.11h0a2.07,2.07,0,0,1-2.61,3h0a2.06,2.06,0,0,0-2.86,2.15h0c.26,1.94-2,3-3.63,1.7h0a2.17,2.17,0,0,0-3.54.88h0c-.48,1.8-3,1.93-4.11.22h0a2.34,2.34,0,0,0-3.72-.46h0c-1.12,1.41-3.57.64-4-1.24h0a2.44,2.44,0,0,0-3.38-1.72h0a2.42,2.42,0,0,1-3.38-2.49h0a2.44,2.44,0,0,0-2.61-2.7h0a2.35,2.35,0,0,1-2.33-3.38h0a2.32,2.32,0,0,0-1.53-3.31h0c-1.81-.46-2.43-2.8-1-3.83h0a2.14,2.14,0,0,0-.28-3.49h0a2.08,2.08,0,0,1,.41-3.8h0a2,2,0,0,0,1-3.25h0a2,2,0,0,1,1.78-3.29h0A2,2,0,0,0,342,177.5h0a2,2,0,0,1,2.94-2.38h0a2,2,0,0,0,3.05-1.61h0a2.13,2.13,0,0,1,3.74-1.13h0a2.21,2.21,0,0,0,3.58-.4h0A2.28,2.28,0,0,1,359.35,172.27Z"/><path class="cls-10" d="M375.46,194.05c-.07,9.8-8.47,16.73-18.52,15.46-9.77-1.24-17.36-9.81-17.19-19.13s7.95-16.13,17.62-15.37C367.32,175.79,375.53,184.31,375.46,194.05Z"/><path class="cls-9" d="M356.94,209.91c-10-1.27-17.76-10.06-17.59-19.57s8.15-16.5,18-15.72c10.16.79,18.59,9.52,18.52,19.48S367.2,211.22,356.94,209.91Zm.43-34.5c-9.44-.75-17.07,6-17.23,15s7.28,17.48,16.81,18.69c9.79,1.23,18-5.55,18.08-15.1S367.07,176.18,357.37,175.41Z"/><path class="cls-11" d="M348.86,197.74l-1.65-.34a.92.92,0,0,0,.81.92,1.67,1.67,0,0,0,.63,0l.07.42a2.65,2.65,0,0,1-.75,0,1.44,1.44,0,0,1-1.17-1.53c0-.68.44-1.22,1.13-1.08a1.26,1.26,0,0,1,.95,1.39A1,1,0,0,1,348.86,197.74Zm-.37-.44a.77.77,0,0,0-.6-.81c-.36-.07-.59.14-.65.56Z"/><path class="cls-11" d="M351.14,199.33v-.27a.82.82,0,0,1-.72.17,1,1,0,0,1-.82-1,.66.66,0,0,1,.85-.62,1.77,1.77,0,0,1,.69.31v-.15a.66.66,0,0,0-.59-.75,1.54,1.54,0,0,0-.61,0l-.06-.42a2.56,2.56,0,0,1,.73,0,1.09,1.09,0,0,1,.95,1.26l0,1.52Zm0-1a1.25,1.25,0,0,0-.63-.33c-.29-.06-.49,0-.5.33s.18.47.53.54a.61.61,0,0,0,.59-.2Z"/><path class="cls-11" d="M353.19,199.8a1.49,1.49,0,0,1-.83-.51l.23-.29a1.2,1.2,0,0,0,.59.41c.27.05.41-.06.41-.29,0-.5-1.1-.6-1.08-1.36a.62.62,0,0,1,.81-.6,1.52,1.52,0,0,1,.69.38l-.21.32a1,1,0,0,0-.5-.32c-.27,0-.39.07-.39.26,0,.43,1.1.56,1.08,1.35A.63.63,0,0,1,353.19,199.8Z"/><path class="cls-11" d="M355.33,201.55l-.45-.1.74-1.44-1-2.55.5.1.72,2,.74-1.71.5.09Z"/><path class="cls-12" d="M359,201a1.77,1.77,0,0,1-.73-.35v1.51l-.47-.1v-4l.44.09v.26a1,1,0,0,1,.83-.15,1.58,1.58,0,0,1,1.19,1.59A1,1,0,0,1,359,201Zm0-2.34a.83.83,0,0,0-.73.17v1.3a1.16,1.16,0,0,0,.71.45c.49.1.82-.24.82-.81A1.08,1.08,0,0,0,359,198.68Z"/><path class="cls-12" d="M361.56,198.22a.41.41,0,0,1-.31-.37.26.26,0,0,1,.3-.27.41.41,0,0,1,.31.38A.25.25,0,0,1,361.56,198.22Z"/><polygon class="cls-12" points="361.34 201.44 361.32 198.77 361.8 198.87 361.82 201.54 361.34 201.44"/><path class="cls-12" d="M364.28,202.11a1.77,1.77,0,0,1-1.42-1.69,1.08,1.08,0,0,1,1.38-1.13,2.09,2.09,0,0,1,.89.45l-.19.35a1.73,1.73,0,0,0-.74-.37c-.51-.1-.88.18-.88.8a1.21,1.21,0,0,0,.94,1.14,1.29,1.29,0,0,0,.74-.07l.17.42A1.51,1.51,0,0,1,364.28,202.11Z"/><path class="cls-12" d="M367.79,202.78l-1.23-1.6,0,1.35-.5-.1-.1-4.75.5.09.07,3.22,1.1-1,.63.12-1.27,1,1.41,1.76Z"/><path class="cls-9" d="M356.13,187c-.28-.1-2.46-1.28-2.73-2.88a1.59,1.59,0,0,1-.32.93,1.82,1.82,0,0,0-.45-2.17,1.36,1.36,0,0,0-.55,1.31.67.67,0,0,1-.08-.66,10.2,10.2,0,0,1-.91.57,2.77,2.77,0,0,0-1.77,2.17s-.3.53,0,.78a1.75,1.75,0,0,0,1.75.23c.67-.33.89.88,0,.77s-2.11-.61-2,.66c0,0,1,.39,1,0a14.11,14.11,0,0,1,1.88,1.41.58.58,0,0,0,.89.1c.45-.43,2-1.85,2.79-.31,0,0-.94-1.39-2.9.93,0,0-.81.79.93,3.58,0,0-1.25-.45-1.37.68l5.22,1s-.69-.71.17-2.25S359.86,188.64,356.13,187Zm-5.38-1.29a.3.3,0,0,1-.24-.29.22.22,0,0,1,.25-.23.29.29,0,0,1,.24.3A.21.21,0,0,1,350.75,185.66Z"/><path class="cls-9" d="M358.17,196.12s6.07,2,3.78-5.87c-.34-1.14-.64-3.71,2.46-3a1.78,1.78,0,0,0-2.3,1.3,3.09,3.09,0,0,0,2.09,3.27,2.67,2.67,0,0,0,3.68-2.05,4.94,4.94,0,0,0-3.51-5.06,4.56,4.56,0,0,0-5.76,3.53,5.23,5.23,0,0,1-.07,4.85C357.14,195.45,358.17,196.12,358.17,196.12Z"/><path class="cls-12" d="M349.43,189.24a.69.69,0,0,1,.54.69.5.5,0,0,1-.58.51.71.71,0,0,1-.54-.7.5.5,0,0,1,.58-.5m0-.29a.72.72,0,0,0-.84.75,1,1,0,0,0,.79,1,.74.74,0,0,0,.86-.76,1,1,0,0,0-.81-1Z"/><polygon class="cls-12" points="349.18 193.79 349 193.76 349.1 190.41 349.27 190.44 349.18 193.79"/><polygon class="cls-12" points="349.58 192.41 349.4 192.38 349.45 190.47 349.63 190.5 349.58 192.41"/><polygon class="cls-12" points="349.33 192.57 349.3 193.62 350.05 193.75 350.06 193.25 349.54 193.16 349.55 192.92 349.89 192.98 349.9 192.67 349.33 192.57"/><ellipse class="cls-13" cx="154" cy="448.63" rx="154" ry="17"/><path class="cls-2" d="M291.6,341.55c.94-.7,6.1,2,10.38-8-8,1-12.11,0-10.54-2.73.92-1.61.44-4.64.44-4.64a3.86,3.86,0,0,1-4.84,1.16,13.45,13.45,0,0,1-1.3-.71l-.24-.36c6.08-14.88-4-41.62-29.9-61.88-.83-.65-4.68-4.69-10-9.31-2.92-19-7-38.72-11.33-57.54a48.44,48.44,0,0,0,2-13.91c0-12.83-4.93-24-13.52-31.47-3.52-12.88-6.79-24.14-9.39-32.82a101.38,101.38,0,0,0,3.49-17.89c1-13.81,1.23-19.19-6.09-26.21C208,72.56,203.26,73.65,198,77c-6.61-13.47-16.92-30.51-31.82-45.15-2.9-2.84-4.46-5.28-7.7-7.9-1.41-1.13-4.35-2.53-5.82-3.61A103.17,103.17,0,0,0,91.11,0C6.88-1-44.59,122.91,55,144.41l10.78,2.92c-3.37,19.87-10.38,36-17.27,52-2.49,5.78-3.22,11.08-5.87,17.09-7.94,18-16.15,37.93-22,64.88-1.8,21.3-.23,38.72,3.58,53a39.8,39.8,0,0,0-1.84,6.64,17.94,17.94,0,0,0-1.42,5.2c-.43,5.4.49,11.46,2.71,18.3a.83.83,0,0,0,0,.15c-1,.9-2.05,1.84-3,2.83C3.14,385.1,25.93,413.53,55,426.59c37.73,30.84,66.69,32.41,76,23.05a12.36,12.36,0,0,0,3.64-7.84A73,73,0,0,0,147,442.87a73.87,73.87,0,0,0,19.53-2.66c1.74-.3,3.43-.61,5.08-.92,0,3.94-1.29,4.22,1.78,7.28,11,11,46.2-2.14,76.82-25.66,1.89-1.45,23.3-12.56,25-14.05,16.25-14.18,16.59-26.56,11.37-34.85,3.69-9,5.25-16.88,5.28-23.73,2.39-2,6.16-.71,9.09-3-3.64.66-9-1.66-9.49-3.17,0,0,0-.07,0-.1A.53.53,0,0,1,291.6,341.55Z"/><path class="cls-14" d="M57.56,160.67C-36.72,140.32,12,23.08,91.73,24A97.77,97.77,0,0,1,150,43.23c1.39,1,4.18,2.35,5.51,3.42,3.07,2.48,4.55,4.8,7.29,7.48C191.24,82,202,119.25,202,119.25s79.23,243.69,15.55,242.14c-25.59-.63-99.5-185.75-117.7-189.73-11-2.41-42.3-11-42.3-11"/><path class="cls-15" d="M111.53,400.55s-96.3,6.22-86.46-110.28c5.51-25.51,13.27-44.36,20.79-61.41,2.5-5.69,3.2-10.71,5.55-16.18C59.93,192.93,68.65,173,69.63,145.2c0,0-15.39,5.71-28.12-5.73-.87-.79-3.67-1.73-4.52-2.68-4.61-5.23-6.74-13-9.3-24.73C23,86.69,44.26,77.37,56.69,77.89a30,30,0,0,1,16,5.32c2,1.44,2.73,3.84,4.77,5.88,10,10,20.17,27.44,26.29,55.69C114.64,195,171.07,378.29,111.53,400.55Z"/><g class="cls-16"><path class="cls-17" d="M97.67,120.53s-23.2,11.64-11.2,31.9a27.2,27.2,0,0,1,.68,26.78s-26.78,11-22.66,46S79.6,259.57,79.6,259.57s-27.47,5.5-36.4,30.22,2.38,40.45,2.38,40.45-6.83,6.87-6.83,28.85c0,14.57-6.51-4.54,5.49,39.5,30.58-13.82-2.87-26.83-2.87-26.83L58,326.88,72.73,285l46.59-32.34-2.73-31.71L91.28,183.33l8.92-22-.68-19.92Z"/></g><path class="cls-5" d="M229.33,339c0,57.53-37.92,104.17-84.71,104.17S59.91,396.55,59.91,339,91,235,144.62,234.85c18.51,0,33.26,7.24,47.69,13.39C210.06,255.8,229.33,301,229.33,339Z"/><path class="cls-18" d="M204.34,333.87a78.21,78.21,0,0,1-.58,9.51c-.35,2.9-1.56,5.82-2.22,8.57-6.31,26.2-25.33,45.22-48.68,45.22-28.43,0-51.48-28.34-51.48-63.3s23.05-63.31,51.48-63.31S204.34,298.91,204.34,333.87Z"/><g class="cls-19"><path class="cls-17" d="M225.18,218.94c0,.84-6.94,18.59-6.94,18.59-7.21,11-41.07,27.7-68.24,32.35-26.1,4.46-46-13.4-53.26-19.12,0,0,10.3-7.66,15.65-9.55,4.47-1.58,8-2.58,41.52-2.58S225.18,214.2,225.18,218.94Z"/></g><path class="cls-5" d="M205,95.23c-6.93-6.65-26,10.82-34.35,27.54,0,0,13.53,57.85,28.79,31.8,3.34-5.71,5.33-9,7.24-15A98.68,98.68,0,0,0,210.79,120C211.7,107,212,101.87,205,95.23Z"/><path class="cls-20" d="M201,104.33c-4.09-3.28-17.23,8.75-22.71,19.65,0,0,8.82,37.69,18.76,20.71,4.3-7.34,7-14.86,7.47-21.44C205.12,114.62,205,107.61,201,104.33Z"/><path class="cls-5" d="M106.49,92.21c8.07-5.21,23.44,15.55,28.52,33.56,0,0-24.25,54.24-34.29,25.77-2.2-6.24-3.53-9.87-4.28-16.06a98.69,98.69,0,0,1-.31-20C97.71,102.48,98.43,97.43,106.49,92.21Z"/><path class="cls-20" d="M108.76,101.93c4.63-2.45,15.26,11.85,18.57,23.58,0,0-15.79,35.34-22.34,16.79-2.83-8-4-15.92-3.27-22.47C102.72,111.24,104.13,104.37,108.76,101.93Z"/><path class="cls-18" d="M220.86,195.18c0,15.46-17.08,32.87-31.64,46.76-15.65,14.93-29.16,25.8-38.79,25.8-10.33,0-24.53-11.94-39.58-28.05-12-12.88-26.44-28.42-26.44-42.68,0-32.08,26.12-78.46,67.79-78.46S220.86,163.09,220.86,195.18Z"/><path class="cls-5" d="M147.32,192.52s-3.08-24.35-4.21-31.63c-2-13.07-15.46-24.31-30.53-17.54C98,149.91,91.13,173.9,91.13,173.9s-2.21,26.7-2.21,0,23.38-62,63.31-62c6.38,0,11.36-1.38,16.87,0,29,7.23,46.38,38.71,46.38,62,0,24.66-2.21,0-2.21,0s4-3.24-4.19-11.66c-2.46-2.54-14.82-17.71-18.2-19.23-15.07-6.77-29.2,3-29.59,17.88-.19,7.36-4.2,31.63-4.2,31.63Z"/><path class="cls-18" d="M229.17,197.83c0,22.38-15.82,41.72-40,41.72-1.95,0-6.2.66-8.08.43C159.63,237.37,145.4,219.6,145.4,199c0-22.38,19.6-40.52,43.77-40.52S229.17,175.45,229.17,197.83Z"/><path class="cls-18" d="M157.63,199c0,22.38-19.6,40.52-43.77,40.52-20.15,0-35.11-13.54-40.18-31.27-1-3.55-1-8-1-11.75,0-22.38,17-38,41.17-38S157.63,176.65,157.63,199Z"/><path class="cls-5" d="M145.89,192.64S145,168,143.17,160.89c-3.51-13.8,19.6-14.16,18.17,0-.92,9.13-2.5,31.63-2.5,31.63Z"/><path class="cls-5" d="M169.66,122.88c2.68,20.88-42.11-14.53-26.3-7.06,0,0,31.43-11.55,12.19-30.79C188.9,96.58,172.22,122.93,169.66,122.88Z"/><path class="cls-21" d="M132.92,221.71c0,7.16,5.94,24.33,17.91,24.33,14.18,0,17.53-16.46,17.53-23.63"/><path class="cls-5" d="M54.65,316.81c-6.87.92-47,18.66-18.64,72.23"/><g class="cls-16"><g class="cls-22"><rect class="cls-23" x="189.16" y="184.81" width="32.99" height="36.39"/><ellipse class="cls-23" cx="205.65" cy="203.01" rx="16.29" ry="17.98"/><ellipse class="cls-23" cx="205.65" cy="203.01" rx="16" ry="17.65"/><ellipse class="cls-24" cx="205.65" cy="203.01" rx="15.7" ry="17.32"/><ellipse class="cls-25" cx="205.65" cy="203.01" rx="15.41" ry="17"/><ellipse class="cls-26" cx="205.65" cy="203.01" rx="15.11" ry="16.67"/><ellipse class="cls-27" cx="205.65" cy="203.01" rx="14.81" ry="16.34"/><ellipse class="cls-28" cx="205.65" cy="203.01" rx="14.52" ry="16.02"/><ellipse class="cls-29" cx="205.65" cy="203.01" rx="14.22" ry="15.69"/><ellipse class="cls-30" cx="205.65" cy="203.01" rx="13.93" ry="15.36"/><ellipse class="cls-31" cx="205.65" cy="203.01" rx="13.63" ry="15.04"/><ellipse class="cls-32" cx="205.65" cy="203.01" rx="13.33" ry="14.71"/><path class="cls-33" d="M218.69,203c0,7.94-5.84,14.38-13,14.38s-13-6.44-13-14.38,5.84-14.39,13-14.39S218.69,195.06,218.69,203Z"/><ellipse class="cls-34" cx="205.65" cy="203.01" rx="12.74" ry="14.06"/><ellipse class="cls-35" cx="205.65" cy="203.01" rx="12.45" ry="13.73"/><ellipse class="cls-36" cx="205.65" cy="203.01" rx="12.15" ry="13.4"/><path class="cls-37" d="M217.5,203c0,7.22-5.3,13.08-11.85,13.08s-11.86-5.86-11.86-13.08,5.31-13.08,11.86-13.08S217.5,195.78,217.5,203Z"/><path class="cls-37" d="M217.21,203c0,7-5.18,12.75-11.56,12.75s-11.56-5.71-11.56-12.75,5.18-12.75,11.56-12.75S217.21,196,217.21,203Z"/><ellipse class="cls-38" cx="205.65" cy="203.01" rx="11.26" ry="12.43"/><path class="cls-39" d="M216.62,203c0,6.68-4.91,12.1-11,12.1s-11-5.42-11-12.1,4.91-12.1,11-12.1S216.62,196.33,216.62,203Z"/><path class="cls-40" d="M216.32,203c0,6.5-4.78,11.77-10.67,11.77S195,209.51,195,203s4.78-11.77,10.67-11.77S216.32,196.51,216.32,203Z"/><path class="cls-41" d="M216,203c0,6.32-4.64,11.44-10.37,11.44s-10.38-5.12-10.38-11.44,4.65-11.45,10.38-11.45S216,196.69,216,203Z"/><path class="cls-42" d="M215.73,203c0,6.14-4.51,11.12-10.08,11.12s-10.08-5-10.08-11.12,4.51-11.12,10.08-11.12S215.73,196.87,215.73,203Z"/><ellipse class="cls-42" cx="205.65" cy="203.01" rx="9.78" ry="10.79"/><path class="cls-43" d="M215.14,203c0,5.78-4.25,10.46-9.49,10.46s-9.49-4.68-9.49-10.46,4.25-10.47,9.49-10.47S215.14,197.23,215.14,203Z"/><path class="cls-44" d="M214.84,203c0,5.6-4.11,10.14-9.19,10.14s-9.19-4.54-9.19-10.14,4.11-10.14,9.19-10.14S214.84,197.41,214.84,203Z"/><ellipse class="cls-45" cx="205.65" cy="203.01" rx="8.89" ry="9.81"/><ellipse class="cls-46" cx="205.65" cy="203.01" rx="8.6" ry="9.49"/><path class="cls-47" d="M214,203c0,5.06-3.72,9.16-8.3,9.16s-8.3-4.1-8.3-9.16,3.71-9.16,8.3-9.16S214,198,214,203Z"/><path class="cls-48" d="M213.66,203c0,4.88-3.59,8.83-8,8.83s-8-4-8-8.83,3.59-8.84,8-8.84S213.66,198.13,213.66,203Z"/><path class="cls-49" d="M213.36,203c0,4.7-3.45,8.5-7.71,8.5s-7.71-3.8-7.71-8.5,3.45-8.51,7.71-8.51S213.36,198.31,213.36,203Z"/><ellipse class="cls-50" cx="205.65" cy="203.01" rx="7.41" ry="8.18"/><path class="cls-50" d="M212.77,203c0,4.34-3.19,7.85-7.12,7.85s-7.12-3.51-7.12-7.85,3.19-7.86,7.12-7.86S212.77,198.67,212.77,203Z"/><path class="cls-51" d="M212.47,203c0,4.16-3.05,7.52-6.82,7.52s-6.82-3.36-6.82-7.52,3-7.53,6.82-7.53S212.47,198.85,212.47,203Z"/><path class="cls-52" d="M212.18,203c0,4-2.93,7.2-6.53,7.2s-6.53-3.23-6.53-7.2,2.92-7.2,6.53-7.2S212.18,199,212.18,203Z"/><ellipse class="cls-53" cx="205.65" cy="203.01" rx="6.23" ry="6.88"/><ellipse class="cls-53" cx="205.65" cy="203.01" rx="5.93" ry="6.55"/><path class="cls-53" d="M211.29,203c0,3.43-2.53,6.22-5.64,6.22S200,206.44,200,203a5.67,5.67,0,1,1,11.28,0Z"/><path class="cls-54" d="M211,203a5.37,5.37,0,1,1-5.34-5.9A5.64,5.64,0,0,1,211,203Z"/><ellipse class="cls-55" cx="205.65" cy="203.01" rx="5.05" ry="5.57"/><path class="cls-56" d="M210.4,203a4.77,4.77,0,1,1-4.75-5.25A5,5,0,0,1,210.4,203Z"/><path class="cls-56" d="M210.1,203a4.48,4.48,0,1,1-4.45-4.92A4.7,4.7,0,0,1,210.1,203Z"/><path class="cls-57" d="M209.81,203a4.18,4.18,0,1,1-4.16-4.59A4.39,4.39,0,0,1,209.81,203Z"/><ellipse class="cls-58" cx="205.65" cy="203.01" rx="3.86" ry="4.26"/><ellipse class="cls-59" cx="205.65" cy="203.01" rx="3.57" ry="3.94"/><path class="cls-59" d="M208.92,203a3.29,3.29,0,1,1-3.27-3.61A3.45,3.45,0,0,1,208.92,203Z"/><path class="cls-60" d="M208.62,203a3,3,0,1,1-3-3.28A3.14,3.14,0,0,1,208.62,203Z"/><ellipse class="cls-61" cx="205.65" cy="203.01" rx="2.68" ry="2.96"/><ellipse class="cls-61" cx="205.65" cy="203.01" rx="2.38" ry="2.63"/><path class="cls-61" d="M207.74,203a2.1,2.1,0,1,1-2.09-2.3A2.21,2.21,0,0,1,207.74,203Z"/><path class="cls-62" d="M207.44,203a1.8,1.8,0,1,1-1.79-2A1.88,1.88,0,0,1,207.44,203Z"/><ellipse class="cls-62" cx="205.65" cy="203.01" rx="1.5" ry="1.65"/></g></g><g class="cls-16"><g class="cls-63"><rect class="cls-23" x="84.14" y="185.23" width="32.99" height="35.97"/><ellipse class="cls-23" cx="100.63" cy="203.22" rx="16.29" ry="17.77"/><ellipse class="cls-23" cx="100.63" cy="203.22" rx="16" ry="17.45"/><ellipse class="cls-24" cx="100.63" cy="203.22" rx="15.7" ry="17.12"/><ellipse class="cls-25" cx="100.63" cy="203.22" rx="15.41" ry="16.8"/><ellipse class="cls-26" cx="100.63" cy="203.22" rx="15.11" ry="16.48"/><ellipse class="cls-27" cx="100.63" cy="203.22" rx="14.81" ry="16.15"/><ellipse class="cls-28" cx="100.63" cy="203.22" rx="14.52" ry="15.83"/><ellipse class="cls-29" cx="100.63" cy="203.22" rx="14.22" ry="15.51"/><ellipse class="cls-30" cx="100.63" cy="203.22" rx="13.93" ry="15.19"/><ellipse class="cls-31" cx="100.63" cy="203.22" rx="13.63" ry="14.86"/><ellipse class="cls-32" cx="100.63" cy="203.22" rx="13.33" ry="14.54"/><path class="cls-33" d="M113.67,203.22c0,7.85-5.84,14.22-13,14.22s-13-6.37-13-14.22,5.84-14.22,13-14.22S113.67,195.37,113.67,203.22Z"/><ellipse class="cls-34" cx="100.63" cy="203.22" rx="12.74" ry="13.9"/><ellipse class="cls-35" cx="100.63" cy="203.22" rx="12.45" ry="13.57"/><ellipse class="cls-36" cx="100.63" cy="203.22" rx="12.15" ry="13.25"/><path class="cls-37" d="M112.48,203.22c0,7.14-5.3,12.93-11.85,12.93s-11.86-5.79-11.86-12.93,5.31-12.93,11.86-12.93S112.48,196.08,112.48,203.22Z"/><path class="cls-37" d="M112.19,203.22c0,7-5.18,12.6-11.56,12.6s-11.56-5.64-11.56-12.6,5.18-12.61,11.56-12.61S112.19,196.26,112.19,203.22Z"/><ellipse class="cls-38" cx="100.63" cy="203.22" rx="11.26" ry="12.28"/><path class="cls-39" d="M111.6,203.22c0,6.6-4.91,12-11,12s-11-5.36-11-12,4.91-12,11-12S111.6,196.61,111.6,203.22Z"/><path class="cls-40" d="M111.3,203.22c0,6.42-4.78,11.63-10.67,11.63S90,209.64,90,203.22s4.78-11.64,10.67-11.64S111.3,196.79,111.3,203.22Z"/><path class="cls-41" d="M111,203.22c0,6.24-4.64,11.31-10.37,11.31s-10.38-5.07-10.38-11.31,4.65-11.32,10.38-11.32S111,197,111,203.22Z"/><path class="cls-42" d="M110.71,203.22c0,6.07-4.52,11-10.08,11s-10.08-4.92-10.08-11,4.51-11,10.08-11S110.71,197.15,110.71,203.22Z"/><ellipse class="cls-42" cx="100.63" cy="203.22" rx="9.78" ry="10.67"/><path class="cls-43" d="M110.12,203.22c0,5.71-4.25,10.34-9.49,10.34s-9.49-4.63-9.49-10.34,4.25-10.35,9.49-10.35S110.12,197.5,110.12,203.22Z"/><path class="cls-44" d="M109.82,203.22c0,5.53-4.12,10-9.19,10s-9.19-4.49-9.19-10,4.11-10,9.19-10S109.82,197.68,109.82,203.22Z"/><ellipse class="cls-45" cx="100.63" cy="203.22" rx="8.89" ry="9.7"/><ellipse class="cls-46" cx="100.63" cy="203.22" rx="8.6" ry="9.38"/><path class="cls-47" d="M108.93,203.22c0,5-3.72,9.05-8.3,9.05s-8.3-4.05-8.3-9.05,3.71-9.06,8.3-9.06S108.93,198.22,108.93,203.22Z"/><path class="cls-48" d="M108.64,203.22c0,4.82-3.59,8.73-8,8.73s-8-3.91-8-8.73,3.59-8.73,8-8.73S108.64,198.39,108.64,203.22Z"/><path class="cls-49" d="M108.34,203.22c0,4.64-3.45,8.41-7.71,8.41s-7.71-3.77-7.71-8.41,3.45-8.41,7.71-8.41S108.34,198.57,108.34,203.22Z"/><ellipse class="cls-50" cx="100.63" cy="203.22" rx="7.41" ry="8.09"/><path class="cls-50" d="M107.75,203.22c0,4.29-3.19,7.76-7.12,7.76s-7.12-3.47-7.12-7.76,3.19-7.77,7.12-7.77S107.75,198.93,107.75,203.22Z"/><path class="cls-51" d="M107.45,203.22c0,4.11-3,7.44-6.82,7.44s-6.82-3.33-6.82-7.44,3-7.44,6.82-7.44S107.45,199.11,107.45,203.22Z"/><path class="cls-52" d="M107.16,203.22c0,3.93-2.93,7.12-6.53,7.12s-6.53-3.19-6.53-7.12,2.92-7.12,6.53-7.12S107.16,199.29,107.16,203.22Z"/><ellipse class="cls-53" cx="100.63" cy="203.22" rx="6.23" ry="6.8"/><ellipse class="cls-53" cx="100.63" cy="203.22" rx="5.93" ry="6.47"/><path class="cls-53" d="M106.27,203.22a5.66,5.66,0,1,1-5.64-6.15A5.92,5.92,0,0,1,106.27,203.22Z"/><path class="cls-54" d="M106,203.22a5.36,5.36,0,1,1-5.34-5.83A5.59,5.59,0,0,1,106,203.22Z"/><ellipse class="cls-55" cx="100.63" cy="203.22" rx="5.05" ry="5.5"/><path class="cls-56" d="M105.38,203.22a4.77,4.77,0,1,1-4.75-5.18A5,5,0,0,1,105.38,203.22Z"/><path class="cls-56" d="M105.08,203.22a4.47,4.47,0,1,1-4.45-4.86A4.67,4.67,0,0,1,105.08,203.22Z"/><path class="cls-57" d="M104.79,203.22a4.18,4.18,0,1,1-4.16-4.54A4.36,4.36,0,0,1,104.79,203.22Z"/><ellipse class="cls-58" cx="100.63" cy="203.22" rx="3.86" ry="4.21"/><ellipse class="cls-59" cx="100.63" cy="203.22" rx="3.57" ry="3.89"/><path class="cls-59" d="M103.9,203.22a3.28,3.28,0,1,1-3.27-3.57A3.43,3.43,0,0,1,103.9,203.22Z"/><path class="cls-60" d="M103.6,203.22a3,3,0,1,1-3-3.25A3.11,3.11,0,0,1,103.6,203.22Z"/><ellipse class="cls-61" cx="100.63" cy="203.22" rx="2.68" ry="2.92"/><ellipse class="cls-61" cx="100.63" cy="203.22" rx="2.38" ry="2.6"/><path class="cls-61" d="M102.72,203.22a2.1,2.1,0,1,1-2.09-2.28A2.19,2.19,0,0,1,102.72,203.22Z"/><path class="cls-62" d="M102.42,203.22a1.8,1.8,0,1,1-1.79-2A1.87,1.87,0,0,1,102.42,203.22Z"/><ellipse class="cls-62" cx="100.63" cy="203.22" rx="1.5" ry="1.63"/></g></g><g class="cls-16"><path class="cls-17" d="M152,201.91c0,12.55-7.61,23.49-22.17,23.49s-24.43-8.14-24.43-20.69,8.38-22.34,22.94-22.34S152,189.37,152,201.91Z"/></g><g class="cls-16"><path class="cls-17" d="M198.14,208.46c-3.2,12.13-13.35,20.77-27.43,17.06s-25.64-15.26-22.45-27.4,17.89-18.3,32-14.59S201.33,196.33,198.14,208.46Z"/></g><path class="cls-18" d="M102.37,335.06c1.49-1.17-3.76-5.07-8.12-4.59,2.45-2.83,5.7-5.37,9.17-2l1,11.21,1,11.85s-2.4,0-3.58-1.16-3.3-3.58-5.59-3.09a9,9,0,0,1,5-2.52c3.23-.49-.08-6.12-8.62-4.17C98.18,331.77,101.33,335.64,102.37,335.06Z"/><path class="cls-64" d="M98.29,160.46c.54,20.66,30.85,28.44,39.88,6.08,1.71-10.31-.57-24.14-17.9-26.21C109.55,139.06,98.4,152.25,98.29,160.46Z"/><path class="cls-21" d="M134.48,152.79a16.52,16.52,0,1,1-22.82-5A16.51,16.51,0,0,1,134.48,152.79Z"/><path class="cls-64" d="M203.47,160.46c-.54,20.66-30.85,28.44-39.87,6.08-1.72-10.31,1.4-22.88,18.73-24.95C193.05,140.32,203.36,152.25,203.47,160.46Z"/><path class="cls-21" d="M167.29,152.79a16.51,16.51,0,1,0,22.81-5A16.5,16.5,0,0,0,167.29,152.79Z"/><path class="cls-5" d="M207.71,159.74c-3.53-12.53-34.41-31.22-46.7-3.1,0,0-.25-22.78,31.93-16.14C205.72,143.14,211.25,172.26,207.71,159.74Z"/><path class="cls-5" d="M98.37,155.61c2.68-6.93,26-27.41,44.32.58,0,0-.44-22.91-32.62-16.26C97.29,142.57,95.69,162.55,98.37,155.61Z"/><g class="cls-19"><path class="cls-17" d="M119.39,285.7c-1-6.34,9.65-16,7.32-20-1.54-2.61-21.24,3.37-20.12,14.44,1.62,16,15.84,36.35,33.35,37.38-.68,73.15-.68,76.24,10,76.93,1.83.12-3.72-76.67-1.72-76.58C151.22,318,121.13,296.68,119.39,285.7Z"/></g><g class="cls-19"><path class="cls-17" d="M205.88,292.82c6.3-1.2-4.47,38.12-44.79,7C158.69,298,191.45,295.56,205.88,292.82Z"/></g><rect class="cls-65" x="144.06" y="307.51" width="12.56" height="80.27"/><g class="cls-19"><path class="cls-17" d="M162,421.21c-.4-.74,0-1.14,0-1.14,3-9.85,2.06-33.89,34.69-57.55,21.43-15.54,29.74-13,38.8-11.37,0,0,1.88,13.09,2.45,14.14,2.26,4.17-8.27.36-37.71,16.31S164.28,425.38,162,421.21Z"/></g><g class="cls-19"><path class="cls-17" d="M144.67,421.21c.4-.74,0-1.14,0-1.14-3-9.85-2.06-33.89-34.69-57.55-21.43-15.54-29.74-13-38.8-11.37,0,0-1.88,13.09-2.45,14.14-2.26,4.17,8.27.36,37.71,16.31S142.41,425.38,144.67,421.21Z"/></g><path class="cls-5" d="M248.33,314.52c6.87.92,52.62,16.94,24.23,70.52,0,0-27.43,17-44.6,8.47a47.71,47.71,0,0,1-22.67-24.73s27.82-19.23,22.32-39.84,20.72-14.42,20.72-14.42"/><path class="cls-5" d="M59.8,315.89c-4.46.6-25.31,7.56-31.62,27-.85,2.63-2.57,5.58-2.82,8.68-.73,9.3,2.74,20.71,10.21,34.8,0,0,27.43,17.06,44.6,8.47a47.67,47.67,0,0,0,22.67-24.72S75,350.92,80.52,330.32,59.8,315.89,59.8,315.89"/><path class="cls-5" d="M248.34,344.28s-27.9,0-54.35,24.85c-2.87,2.69-6.48,4.24-9.28,7.55C175.05,388.12,164.1,411,160,437.91"/><g class="cls-19"><path class="cls-17" d="M66.55,333.83c-5-.55-4.52-19-10.32-18s-14.65,7.33-14.65,7.33c-.87,6.5,6,34.36,17,32.21,20.77-4.05,50.42-19.06,66.77-67.94C126.33,284.61,79.5,335.24,66.55,333.83Z"/></g><g class="cls-19"><path class="cls-17" d="M278.32,334.36c6,2.38-18.61,47.59-62.22-15.6-1.43-2.07,39.37,10.69,59.19,14A11.83,11.83,0,0,0,278.32,334.36Z"/></g><path class="cls-5" d="M99,251c-6.38-.76-9.14.29-9.14.29-12.36,4.12-23.35,17.86-23.35,17.86s-18.48,16.63-20.74,33.66c-.34,2.57-1.27,9.37-1.16,12,.42,9.44,12.75,22.11,22.79,30.4,16.43,3.29,31.46-22.46,41-38.31.87-1.45,1.65-5.64,2.42-7a168.82,168.82,0,0,0,7.86-15.66S105.3,251.79,99,251Z"/><g class="cls-19"><path class="cls-17" d="M87.28,293c-2.23,6-4,11.34-3.86,15.94.06,3,8.74-5.93,13.37-16.06s3.38-24.54.62-25.8S91.16,282.57,87.28,293Z"/></g><path class="cls-5" d="M197.14,251.08s2.1.94-5.14,8.19l-.27,2.39-7.47-1.09-3.22,3c-23,2-16.79,14.17-13.84,16.05-13,5.12-1.88,13.51-1.88,13.51l.42-.78.12.7c-11,3.39-5.84,10.39-5.84,10.39l6.57-.17c28.48,10.84,34.82.2,34.82.2s42.32,38.73,64.65,38.73c19.91-7.22,13.45-42.83-18.63-67.92-1.8-1.41-18.63-19.69-32.75-22.88C200.29,248.14,197.14,251.08,197.14,251.08Z"/><g class="cls-19"><path class="cls-17" d="M220.77,287c7.32,5.52,19.4,18.53,20.27,24.73.56,4-13.51-6.64-27.81-18.54-11.26-9.37-25.13-20.76-23.89-24.5S209.13,278.25,220.77,287Z"/></g><path class="cls-5" d="M56.93,344.28s76.09,4.86,90.68,87.28"/><path class="cls-64" d="M164.78,228.61H138.17c-.69,0-1.21-.91-1.21-1.6V201.12h29.18V226.5C166.14,227.75,165.81,228.61,164.78,228.61Z"/><polygon class="cls-66" points="159.37 220.23 136.52 221.72 136.52 212.12 159.37 212.12 159.37 220.23"/><path class="cls-67" d="M156.44,201.91c0,12.55-13.67,21.55-28.24,21.55s-20.85-9.72-20.85-22.27,8.14-22,22.71-22S156.44,189.37,156.44,201.91Z"/><path class="cls-67" d="M197.25,199.93c0,12.55-8.88,24.86-23.44,24.86-4.38,0-7.1-1.09-10.73-2.71-1.75-.78-4.78-1.55-6.27-2.63-5.73-4.17-9.37-10.41-9.37-17.37,0-12.55,11.8-22.71,26.37-22.71S197.25,187.39,197.25,199.93Z"/><path class="cls-20" d="M171.2,191.4c0,8.14-13.66,16-19.13,16-5.63,0-19.14-7.9-19.14-16s8.57-14.74,19.14-14.74S171.2,183.26,171.2,191.4Z"/><polygon class="cls-65" points="153.67 351.16 153.67 385.9 180.56 385.9 180.56 369.42 161.68 369.42 161.68 361.43 174 361.43 174 351.16 153.67 351.16"/><path class="cls-65" d="M180.56,388H153.67a2.06,2.06,0,0,1-2.06-2.06V351.16a2.06,2.06,0,0,1,2.06-2.06H174a2.06,2.06,0,0,1,2.06,2.06v10.27a2.06,2.06,0,0,1-2.06,2.06H163.74v3.87h16.82a2.06,2.06,0,0,1,2.06,2.06V385.9A2.06,2.06,0,0,1,180.56,388Zm-24.83-4.12H178.5V371.48H161.68a2.06,2.06,0,0,1-2.06-2.06v-8a2.06,2.06,0,0,1,2.06-2.06h10.26v-6.15H155.73Z"/><path class="cls-65" d="M157.28,387.54a6.62,6.62,0,1,1-6.61-7A6.8,6.8,0,0,1,157.28,387.54Z"/><path class="cls-68" d="M156.43,390a1.37,1.37,0,0,1-1.38-1.37V313.08a1.38,1.38,0,1,1,2.75,0v75.55A1.37,1.37,0,0,1,156.43,390Z"/><path class="cls-68" d="M181.84,387.73a1.37,1.37,0,0,1-1.37-1.38V368.94a1.37,1.37,0,0,1,2.74,0v17.41A1.37,1.37,0,0,1,181.84,387.73Z"/><path class="cls-68" d="M175.31,363.22a1.37,1.37,0,0,1-1.37-1.38V350.51a1.38,1.38,0,0,1,2.75,0v11.33A1.38,1.38,0,0,1,175.31,363.22Z"/><polygon class="cls-69" points="152.71 212.96 167.69 248.01 198.11 224.15 195.91 263.28 233.11 255.15 212.11 288.35 249.69 298.87 215.07 319.08 244.06 345.29 204.33 345.36 217.49 383.77 181.38 366.08 176.09 405.5 152.71 372.71 129.34 405.5 124.38 365.71 87.93 383.77 101.8 346.47 61.37 345.29 89.59 317.6 55.73 298.87 93.29 287.98 72.32 255.15 109.95 262.81 107.31 224.15 136.6 248.38 152.71 212.96"/><g class="cls-70"><path class="cls-11" d="M175.2,166h-1.27c0,.3.2.52.65.53a1.53,1.53,0,0,0,.48-.1l.05.28a2.07,2.07,0,0,1-.56.1.86.86,0,0,1-.93-.9.85.85,0,0,1,.84-.9.74.74,0,0,1,.75.84A.92.92,0,0,1,175.2,166Zm-.29-.25a.46.46,0,0,0-.47-.48.48.48,0,0,0-.49.48Z"/><path class="cls-11" d="M176.93,166.76v-.19a.74.74,0,0,1-.54.22.55.55,0,1,1,0-1.1,1.25,1.25,0,0,1,.52.12v-.1c0-.3-.14-.43-.45-.43a1.26,1.26,0,0,0-.46.08l0-.28a2,2,0,0,1,.55-.09.64.64,0,0,1,.72.74v1Zm0-.68a.92.92,0,0,0-.47-.14c-.22,0-.37.1-.37.29s.14.3.4.3a.56.56,0,0,0,.43-.21Z"/><path class="cls-11" d="M178.44,166.8a.94.94,0,0,1-.61-.23l.16-.23a.71.71,0,0,0,.44.19c.2,0,.29-.09.29-.24,0-.34-.8-.26-.8-.78a.54.54,0,0,1,.59-.51.94.94,0,0,1,.5.17l-.14.24a.63.63,0,0,0-.37-.14c-.2,0-.28.09-.28.22,0,.29.8.23.8.77A.56.56,0,0,1,178.44,166.8Z"/><path class="cls-11" d="M180,167.66h-.33l.53-1-.72-1.57h.36l.52,1.24.52-1.23h.35Z"/><path class="cls-12" d="M182.58,166.82a1.07,1.07,0,0,1-.51-.13v1h-.33l0-2.62h.31v.18a.82.82,0,0,1,.58-.21.84.84,0,0,1,.81.89A.88.88,0,0,1,182.58,166.82Zm0-1.52a.62.62,0,0,0-.5.2v.85a.69.69,0,0,0,.5.2.59.59,0,0,0,.57-.63A.56.56,0,0,0,182.58,165.3Z"/><path class="cls-12" d="M184.33,164.68a.21.21,0,0,1-.2-.21.2.2,0,0,1,.2-.21.21.21,0,0,1,0,.42Z"/><rect class="cls-12" x="183.46" y="165.77" width="1.73" height="0.33" transform="translate(17.42 349.37) rotate(-89.7)"/><path class="cls-12" d="M186.12,166.84a.9.9,0,1,1,0-1.8,1.11,1.11,0,0,1,.58.18l-.13.25a1,1,0,0,0-.48-.15.58.58,0,0,0-.6.62.6.6,0,0,0,.61.62,1,1,0,0,0,.49-.14l.11.24A1.17,1.17,0,0,1,186.12,166.84Z"/><path class="cls-12" d="M188.4,166.82l-.77-.86v.85h-.32v-3h.33v2l.73-.76h.41l-.84.8.87.93Z"/><path class="cls-9" d="M180.52,157.6c-.21,0-1.85-.67-2.06-1.81a1.17,1.17,0,0,1-.24.71,1.25,1.25,0,0,0-.36-1.55,1.1,1.1,0,0,0-.41,1,.46.46,0,0,1-.07-.48,6.25,6.25,0,0,1-.7.5,2.45,2.45,0,0,0-1.34,1.78s-.22.41,0,.57a1.38,1.38,0,0,0,1.36,0c.5-.31.68.54,0,.56s-1.64-.21-1.56.69c0,0,.78.18.8-.13a9.38,9.38,0,0,1,1.46.8.43.43,0,0,0,.67,0c.33-.35,1.49-1.52,2.06-.52,0,0-.7-.88-2.13,1,0,0-.61.65.72,2.38,0,0-.93-.15-1,.64l3.79,0s-.49-.4.13-1.54S183.22,158.41,180.52,157.6Zm-4.07-.39a.19.19,0,0,1-.19-.19.18.18,0,0,1,.19-.19.2.2,0,0,1,.19.19A.19.19,0,0,1,176.45,157.21Z"/><path class="cls-9" d="M182,163.7s4.15.61,2.68-4.39c-.22-.75-.41-2.5,1.74-2.28a1.45,1.45,0,0,0-1.61,1.11,1.73,1.73,0,0,0,1.4,2,2.16,2.16,0,0,0,2.51-1.74,2.79,2.79,0,0,0-2.29-3.14,3.76,3.76,0,0,0-4.1,3,3.48,3.48,0,0,1-.06,3.36C181.26,163.37,182,163.7,182,163.7Z"/><path class="cls-12" d="M175.48,160a.43.43,0,0,1,.43.43.43.43,0,0,1-.86,0,.43.43,0,0,1,.43-.43m0-.21a.64.64,0,1,0,.64.64.64.64,0,0,0-.64-.64Z"/><rect class="cls-12" x="174.12" y="161.95" width="2.38" height="0.14" transform="translate(12.37 336.47) rotate(-89.7)"/><rect class="cls-12" x="174.91" y="161.44" width="1.36" height="0.14" transform="translate(13.15 336.24) rotate(-89.7)"/><polygon class="cls-12" points="175.47 162.33 175.46 163.07 176.04 163.07 176.04 162.72 175.64 162.72 175.64 162.55 175.9 162.55 175.9 162.33 175.47 162.33"/></g><g class="cls-70"><path class="cls-9" d="M181.1,173.34a11.7,11.7,0,1,1,11.69-11.7A11.72,11.72,0,0,1,181.1,173.34Zm0-22.7a11,11,0,1,0,11,11A11,11,0,0,0,181.1,150.64Z"/></g><g class="cls-70"><path class="cls-11" d="M115.06,166h-1.27a.57.57,0,0,0,.64.53,1.42,1.42,0,0,0,.48-.1l.06.28a2.14,2.14,0,0,1-.57.1.9.9,0,0,1-.08-1.8.75.75,0,0,1,.75.84A.92.92,0,0,1,115.06,166Zm-.29-.25a.47.47,0,0,0-.47-.48.49.49,0,0,0-.5.48Z"/><path class="cls-11" d="M116.79,166.76v-.19a.76.76,0,0,1-.54.22.57.57,0,0,1-.62-.56.57.57,0,0,1,.62-.54,1.17,1.17,0,0,1,.52.12v-.1c0-.3-.13-.43-.45-.43a1.25,1.25,0,0,0-.45.08l-.05-.28a2,2,0,0,1,.55-.09.64.64,0,0,1,.72.74v1Zm0-.68a.89.89,0,0,0-.47-.14c-.22,0-.36.1-.36.29s.14.3.39.3a.58.58,0,0,0,.44-.21Z"/><path class="cls-11" d="M118.3,166.8a1,1,0,0,1-.62-.23l.17-.23a.69.69,0,0,0,.43.19c.21,0,.3-.09.3-.24,0-.34-.8-.26-.8-.78a.53.53,0,0,1,.59-.51.94.94,0,0,1,.5.17l-.14.24a.63.63,0,0,0-.37-.14c-.2,0-.28.09-.28.22,0,.29.8.23.79.77A.55.55,0,0,1,118.3,166.8Z"/><path class="cls-11" d="M119.84,167.66h-.32l.52-1-.72-1.57h.37l.52,1.24.52-1.23h.35Z"/><path class="cls-12" d="M122.43,166.82a1.06,1.06,0,0,1-.5-.13v1h-.33v-2.62h.31v.18a.84.84,0,0,1,.58-.21.83.83,0,0,1,.81.89A.87.87,0,0,1,122.43,166.82Zm0-1.52a.64.64,0,0,0-.51.2v.85a.68.68,0,0,0,.5.2.57.57,0,0,0,.56-.63A.56.56,0,0,0,122.44,165.3Z"/><path class="cls-12" d="M124.19,164.68a.21.21,0,0,1-.21-.21.21.21,0,0,1,.21-.21.2.2,0,0,1,.2.21A.21.21,0,0,1,124.19,164.68Z"/><rect class="cls-12" x="123.32" y="165.77" width="1.73" height="0.33" transform="translate(-42.4 289.23) rotate(-89.7)"/><path class="cls-12" d="M126,166.84a.9.9,0,0,1-.93-.9.92.92,0,0,1,.94-.9,1.14,1.14,0,0,1,.59.18l-.13.25a1,1,0,0,0-.49-.15.58.58,0,0,0-.59.62.6.6,0,0,0,.61.62,1,1,0,0,0,.48-.14l.11.24A1.11,1.11,0,0,1,126,166.84Z"/><path class="cls-12" d="M128.25,166.82l-.77-.86v.85h-.33l0-3h.33l0,2,.74-.76h.4l-.84.8.88.93Z"/><path class="cls-9" d="M120.37,157.6c-.2,0-1.84-.67-2.05-1.81a1.27,1.27,0,0,1-.24.71,1.25,1.25,0,0,0-.36-1.55,1.1,1.1,0,0,0-.41,1,.46.46,0,0,1-.07-.48,6.25,6.25,0,0,1-.7.5,2.45,2.45,0,0,0-1.34,1.78s-.22.41,0,.57a1.38,1.38,0,0,0,1.36,0c.51-.31.69.54,0,.56s-1.65-.21-1.56.69c0,0,.78.18.8-.13a9.38,9.38,0,0,1,1.46.8.42.42,0,0,0,.66,0c.34-.35,1.49-1.52,2.07-.52,0,0-.7-.88-2.14,1,0,0-.6.65.72,2.38,0,0-.93-.15-1,.64l3.79,0s-.49-.4.12-1.54S123.07,158.41,120.37,157.6Zm-4.07-.39a.18.18,0,0,1-.18-.19.18.18,0,0,1,.19-.19.2.2,0,0,1,.19.19A.19.19,0,0,1,116.3,157.21Z"/><path class="cls-9" d="M121.85,163.7s4.15.61,2.68-4.39c-.23-.75-.42-2.5,1.73-2.28a1.44,1.44,0,0,0-1.6,1.11,1.73,1.73,0,0,0,1.39,2,2.16,2.16,0,0,0,2.51-1.74,2.77,2.77,0,0,0-2.29-3.14,3.75,3.75,0,0,0-4.09,3,3.48,3.48,0,0,1-.06,3.36C121.12,163.37,121.85,163.7,121.85,163.7Z"/><path class="cls-12" d="M115.34,160a.43.43,0,0,1,.43.43.44.44,0,1,1-.43-.43m0-.21a.64.64,0,1,0,.64.64.64.64,0,0,0-.64-.64Z"/><rect class="cls-12" x="113.98" y="161.95" width="2.38" height="0.14" transform="translate(-47.46 276.33) rotate(-89.7)"/><rect class="cls-12" x="114.76" y="161.44" width="1.36" height="0.14" transform="translate(-46.67 276.1) rotate(-89.7)"/><polygon class="cls-12" points="115.33 162.33 115.32 163.07 115.89 163.07 115.9 162.72 115.49 162.72 115.49 162.55 115.76 162.55 115.76 162.33 115.33 162.33"/></g><g class="cls-70"><path class="cls-9" d="M121,173.34a11.7,11.7,0,1,1,11.7-11.7A11.71,11.71,0,0,1,121,173.34Zm0-22.7a11,11,0,1,0,11,11A11,11,0,0,0,121,150.64Z"/></g><path class="cls-12" d="M187.4,174c0-.78-2.36-.86-3.13-.83a1.41,1.41,0,0,0-1.35,1.46c0,.78.86.95,1.64.91S187.44,174.74,187.4,174Z"/><path class="cls-66" d="M169.2,152.76a2.79,2.79,0,1,0,3.85-.84A2.8,2.8,0,0,0,169.2,152.76Z"/><path class="cls-12" d="M114.36,174c0-.78,2.36-.86,3.13-.83a1.41,1.41,0,0,1,1.35,1.46c0,.78-.86.95-1.64.91S114.32,174.74,114.36,174Z"/><path class="cls-66" d="M132.56,152.76a2.79,2.79,0,1,1-3.86-.84A2.8,2.8,0,0,1,132.56,152.76Z"/><g class="cls-71"><g class="cls-71"><g class="cls-72"><g class="cls-71"><path class="cls-73" d="M249.54,357.9V342.42c0,.67.06,1.34.06,2v15.49c0-.67,0-1.33-.06-2"/></g></g></g><g class="cls-71"><g class="cls-74"><g class="cls-71"><path class="cls-75" d="M154,293.3V277.81l11.43,0,5.53,0V293.3c-1.84,0-3.69,0-5.53,0l-11.43,0"/></g></g></g><g class="cls-71"><g class="cls-76"><g class="cls-71"><path class="cls-75" d="M153.55,293.3V277.81h.37v15.48h-.37"/><path class="cls-75" d="M153.92,293.29V277.81h0V293.3h0"/><path class="cls-75" d="M154,293.3V277.81H154V293.3H154"/></g></g></g><g class="cls-71"><g class="cls-77"><g class="cls-71"><path class="cls-75" d="M171,293.3V277.82h.08V293.3H171"/><path class="cls-78" d="M171.07,293.3V277.82h.19V293.3h-.19"/><path class="cls-79" d="M171.26,293.3V277.81h.18v15.48h-.18"/><path class="cls-80" d="M171.44,293.29V277.81h.17v15.49h-.17"/><path class="cls-81" d="M171.61,293.29V277.8h.15v15.49h-.15"/><path class="cls-82" d="M171.76,293.28V277.79h.09v15.48h-.09"/><path class="cls-83" d="M171.85,293.27V277.79h.08v15.49h-.08"/><path class="cls-84" d="M171.93,293.27V277.78H172v15.48h-.08"/><path class="cls-85" d="M172,293.26V277.78h.09v15.49H172"/><path class="cls-86" d="M172.1,293.26V277.77h.08v15.48h-.08"/><path class="cls-87" d="M172.18,293.25V277.77h.08v15.48h-.08"/><path class="cls-88" d="M172.26,293.24V277.76h.08v15.49h-.08"/><path class="cls-89" d="M172.34,293.24V277.75h.09v15.49h-.09"/><path class="cls-90" d="M172.43,293.23V277.74h.06v15.48h-.06"/><path class="cls-91" d="M172.49,293.22V277.74h.06v15.48h-.06"/><path class="cls-92" d="M172.55,293.21V277.73h0v15.49h0"/><path class="cls-93" d="M172.6,293.21V277.72h.06V293.2h-.06"/><path class="cls-94" d="M172.66,293.2V277.72h.06v15.48h-.06"/><path class="cls-95" d="M172.72,293.19V277.71h.06v15.49h-.06"/><path class="cls-96" d="M172.78,293.19V277.7h.05v15.49h-.05"/><path class="cls-97" d="M172.83,293.18V277.69h.06v15.48h-.06"/><path class="cls-98" d="M172.89,293.17V277.69H173v15.48h-.06"/><path class="cls-99" d="M173,293.16V277.68H173v15.49H173"/><path class="cls-100" d="M173,293.16V277.67h.06v15.49H173"/><path class="cls-101" d="M173.06,293.15V277.66h.05v15.49h-.05"/><path class="cls-102" d="M173.11,293.14V277.65h0v15.48h0"/><path class="cls-103" d="M173.16,293.13V277.65h.05v15.48h-.05"/><path class="cls-104" d="M173.21,293.12V277.64h0v15.49h0"/><path class="cls-105" d="M173.26,293.12V277.63h0v15.49h0"/><path class="cls-106" d="M173.3,293.11V277.62h0V293.1h0"/><path class="cls-107" d="M173.35,293.1V277.61h.05v15.48h-.05"/><path class="cls-108" d="M173.4,293.09V277.61h0v15.48h0"/><path class="cls-109" d="M173.44,293.08V277.6h.05v15.48h-.05"/><path class="cls-110" d="M173.49,293.07V277.59h0v15.48h0"/><path class="cls-111" d="M173.54,293.06V277.58h0v15.48h0"/><path class="cls-112" d="M173.58,293.05V277.57h0V293h0"/><path class="cls-113" d="M173.63,293V277.56h.05V293h-.05"/><path class="cls-114" d="M173.68,293V277.55h0V293h0"/><path class="cls-115" d="M173.72,293V277.54h.05V293h-.05"/><path class="cls-116" d="M173.77,293V277.53h0V293h0"/><path class="cls-117" d="M173.81,293V277.52h.05V293h-.05"/><path class="cls-118" d="M173.86,293V277.51h0V293l0,0"/><path class="cls-119" d="M173.9,293V277.5h0V293h0"/><path class="cls-120" d="M174,293V277.49h0V293h0"/><path class="cls-121" d="M174,293V277.48h0V293h0"/><path class="cls-122" d="M174,293V277.47h.05v15.48H174"/><path class="cls-123" d="M174.08,292.94V277.46h0v15.48h0"/><path class="cls-124" d="M174.12,292.93V277.45l0,0v15.49h0"/><path class="cls-125" d="M174.16,292.92V277.43h.05v15.49h-.05"/><path class="cls-125" d="M174.21,292.91V277.42h0V292.9h0"/><path class="cls-126" d="M174.25,292.9V277.41h0v15.48l0,0"/><path class="cls-126" d="M174.29,292.88V277.4h.05v15.48h-.05"/><path class="cls-126" d="M174.34,292.87V277.39l0,0v15.49h0"/><path class="cls-127" d="M174.38,292.86V277.37h.05v15.48l-.05,0"/><path class="cls-127" d="M174.43,292.84V277.36h0v15.48h0"/><path class="cls-127" d="M174.48,292.83V277.35l0,0v15.49h0"/><path class="cls-128" d="M174.52,292.82V277.33h0V292.8l0,0"/><path class="cls-129" d="M174.57,292.8V277.32l0,0v15.49h0"/><path class="cls-129" d="M174.61,292.79V277.3h0v15.48l0,0"/><path class="cls-129" d="M174.65,292.77V277.29l0,0v15.49h0"/><path class="cls-130" d="M174.7,292.76V277.27h0v15.48l0,0"/><path class="cls-130" d="M174.74,292.74V277.26l0,0v15.49h0"/><path class="cls-130" d="M174.79,292.73V277.24h0v15.48l0,0"/><path class="cls-130" d="M174.83,292.71V277.23l0,0V292.7h0"/><path class="cls-131" d="M174.88,292.7V277.21l0,0v15.49l0,0"/><path class="cls-131" d="M174.92,292.68V277.19l.05,0v15.49l-.05,0"/><path class="cls-132" d="M175,292.66V277.17H175v15.48l-.05,0"/><path class="cls-132" d="M175,292.64V277.16l0,0v15.48l0,0"/><path class="cls-132" d="M175.07,292.62V277.14l0,0V292.6l0,0"/><path class="cls-133" d="M175.11,292.6V277.12l0,0v15.48l0,0"/><path class="cls-133" d="M175.16,292.58V277.1l.05,0v15.48l-.05,0"/><path class="cls-133" d="M175.21,292.56V277.08l0,0v15.48l0,0"/><path class="cls-133" d="M175.25,292.54V277.06l.05,0v15.48l-.05,0"/><path class="cls-133" d="M175.3,292.52V277l0,0V292.5l0,0"/><path class="cls-133" d="M175.34,292.5V277l0,0v15.48l0,0"/><path class="cls-133" d="M175.39,292.48V277l.05,0v15.49l-.05,0"/><path class="cls-134" d="M175.44,292.46V277l.05,0v15.48l-.05,0"/><path class="cls-134" d="M175.49,292.43V277l0,0v15.49l0,0"/><path class="cls-134" d="M175.54,292.41V276.92l.05,0v15.48l-.05,0"/><path class="cls-135" d="M175.59,292.38V276.9l0,0v15.49l0,0"/><path class="cls-135" d="M175.63,292.36V276.87l.05,0v15.48l-.05,0"/><path class="cls-135" d="M175.68,292.33V276.85l0,0v15.49l0,0"/><path class="cls-136" d="M175.72,292.31V276.82l.05,0v15.48l-.05,0"/><path class="cls-136" d="M175.77,292.28V276.8l0,0v15.49l0,0"/><path class="cls-136" d="M175.82,292.26V276.77l0,0v15.49l0,0"/><path class="cls-137" d="M175.86,292.23V276.74l0,0V292.2l0,0"/><path class="cls-137" d="M175.91,292.2V276.72l0,0v15.48l0,0"/><path class="cls-137" d="M176,292.17V276.69l.05,0v15.48l-.05,0"/><path class="cls-138" d="M176,292.14V276.66l0,0v15.49l0,0"/><path class="cls-138" d="M176,292.12V276.63l0,0v15.49l0,0"/><path class="cls-138" d="M176.08,292.09V276.6l0,0v15.49l0,0"/><path class="cls-139" d="M176.13,292.06V276.57l0,0V292l0,0"/><path class="cls-139" d="M176.17,292V276.54l.05,0V292l-.05,0"/><path class="cls-139" d="M176.22,292V276.5l.05,0V292l-.05,0"/><path class="cls-139" d="M176.27,292V276.46l0,0v15.49l0,0"/><path class="cls-140" d="M176.32,291.91V276.42l.05,0v15.49l-.05,0"/><path class="cls-140" d="M176.37,291.87V276.38l0,0v15.49l0,0"/><path class="cls-140" d="M176.41,291.83V276.34l.05,0v15.49l-.05,0"/><path class="cls-141" d="M176.46,291.79V276.3l0,0v15.48l0,.05"/><path class="cls-141" d="M176.51,291.74V276.26l0-.05V291.7l0,0"/><path class="cls-141" d="M176.55,291.7V276.21l0,0v15.48l0,.05"/><path class="cls-142" d="M176.6,291.65V276.17l0-.05V291.6l0,0"/><path class="cls-142" d="M176.64,291.6V276.12l.05-.05v15.49l-.05,0"/><path class="cls-143" d="M176.69,291.56V276.07l0-.05v15.49l0,.05"/><path class="cls-144" d="M176.73,291.51V276l0-.06v15.49l0,.06"/><path class="cls-144" d="M176.77,291.45V276l0-.06v15.48a.18.18,0,0,1,0,.07"/><path class="cls-144" d="M176.82,291.38V275.9l0-.06v15.48l0,.06"/><path class="cls-144" d="M176.86,291.32V275.84l0-.07v15.49l0,.06"/><path class="cls-73" d="M176.91,291.26V275.77l0-.06v15.48a.25.25,0,0,0,0,.07"/><path class="cls-73" d="M177,291.19V275.71a.31.31,0,0,1,.05-.1V291.1a.41.41,0,0,0-.05.09"/><path class="cls-73" d="M177,291.1V275.61a1,1,0,0,0,0-.1V291a1,1,0,0,0,0,.1"/><path class="cls-73" d="M177,291V275.51a.36.36,0,0,0,0-.09V290.9a.42.42,0,0,1,0,.1"/><path class="cls-73" d="M177.08,290.9V275.42l.06-.19v15.49l-.06.18"/><path class="cls-73" d="M177.14,290.72V275.23a1.61,1.61,0,0,0,.06-.44v15.48a1.74,1.74,0,0,1-.06.45"/></g></g></g><g class="cls-71"><g class="cls-145"><g class="cls-71"><path class="cls-73" d="M129.94,290.23V274.75a1.32,1.32,0,0,0,0,.28v15.48a1.27,1.27,0,0,1,0-.28"/><path class="cls-73" d="M130,290.51V275a.59.59,0,0,0,0,.13v15.48a.51.51,0,0,1,0-.13"/><path class="cls-73" d="M130,290.64V275.16l0,.13v15.48s0-.08,0-.13"/><path class="cls-73" d="M130,290.77V275.29a.42.42,0,0,0,0,.1v15.49a.49.49,0,0,1,0-.11"/><path class="cls-73" d="M130.06,290.88V275.39l0,.08V291l0-.08"/><path class="cls-73" d="M130.09,291V275.47l0,.08V291l0-.07"/><path class="cls-144" d="M130.12,291V275.55a.25.25,0,0,1,0,.07v15.49a.3.3,0,0,0,0-.08"/><path class="cls-144" d="M130.16,291.11V275.62a.43.43,0,0,0,0,.07v15.49a.43.43,0,0,0,0-.07"/><path class="cls-144" d="M130.2,291.18V275.69l0,.06v15.48l0-.05"/><path class="cls-144" d="M130.24,291.23V275.75l0,.05v15.49l0-.06"/><path class="cls-143" d="M130.27,291.29V275.8l0,.06v15.48l0,0"/><path class="cls-142" d="M130.31,291.34V275.86l0,.05V291.4l0-.06"/><path class="cls-142" d="M130.35,291.4V275.91l0,.06v15.48l0-.05"/><path class="cls-141" d="M130.39,291.45V276l0,0V291.5l0-.05"/><path class="cls-141" d="M130.43,291.5V276l0,.05v15.48l0,0"/><path class="cls-141" d="M130.47,291.54V276.06l0,0v15.48l0,0"/><path class="cls-140" d="M130.51,291.58V276.1l0,0v15.49l0-.05"/><path class="cls-140" d="M130.55,291.63V276.14l0,.05v15.48l0,0"/><path class="cls-140" d="M130.59,291.67V276.19l0,0v15.48l0,0"/><path class="cls-139" d="M130.63,291.71V276.23l.05,0v15.48l-.05,0"/><path class="cls-139" d="M130.68,291.75V276.27l0,0v15.48l0,0"/><path class="cls-139" d="M130.72,291.79V276.31l0,0v15.49l0,0"/><path class="cls-139" d="M130.76,291.83V276.34l.05,0v15.49l-.05,0"/><path class="cls-138" d="M130.81,291.87V276.38l0,0V291.9l0,0"/><path class="cls-138" d="M130.85,291.9V276.42l.05,0v15.49l-.05,0"/><path class="cls-138" d="M130.9,291.94V276.45l0,0V292l0,0"/><path class="cls-137" d="M131,292V276.49l0,0V292l0,0"/><path class="cls-137" d="M131,292V276.52l0,0V292l0,0"/><path class="cls-137" d="M131,292V276.55l0,0v15.48l0,0"/><path class="cls-136" d="M131.07,292.06V276.58l0,0v15.48l0,0"/><path class="cls-136" d="M131.11,292.09V276.61l0,0v15.49l0,0"/><path class="cls-136" d="M131.15,292.12V276.63l0,0v15.48l0,0"/><path class="cls-135" d="M131.19,292.14V276.66l.05,0v15.48l-.05,0"/><path class="cls-135" d="M131.24,292.17V276.69l0,0V292.2l0,0"/><path class="cls-135" d="M131.28,292.2V276.71l0,0v15.48l0,0"/><path class="cls-134" d="M131.32,292.22V276.74l.05,0v15.49l-.05,0"/><path class="cls-134" d="M131.37,292.25V276.76l0,0v15.48l0,0"/><path class="cls-134" d="M131.41,292.27V276.79l0,0V292.3l0,0"/><path class="cls-133" d="M131.45,292.3V276.81l.05,0v15.49l-.05,0"/><path class="cls-133" d="M131.5,292.32V276.83l0,0v15.48l0,0"/><path class="cls-133" d="M131.54,292.34V276.86l.05,0v15.49l-.05,0"/><path class="cls-133" d="M131.59,292.37V276.88l0,0v15.49l0,0"/><path class="cls-133" d="M131.63,292.39V276.9l.05,0v15.48l-.05,0"/><path class="cls-133" d="M131.68,292.41V276.93l0,0v15.49l0,0"/><path class="cls-133" d="M131.73,292.44V277l0,0v15.49l0,0"/><path class="cls-132" d="M131.77,292.46V277l0,0v15.49l0,0"/><path class="cls-132" d="M131.82,292.48V277l0,0V292.5l0,0"/><path class="cls-132" d="M131.86,292.5V277l0,0v15.49l0,0"/><path class="cls-131" d="M131.9,292.52V277l0,0v15.48h0"/><path class="cls-131" d="M132,292.53V277.05l0,0v15.48l0,0"/><path class="cls-130" d="M132,292.55V277.07l0,0v15.48l0,0"/><path class="cls-130" d="M132,292.57V277.09h.05v15.49l-.05,0"/><path class="cls-130" d="M132.08,292.59V277.1l0,0v15.49l0,0"/><path class="cls-130" d="M132.12,292.61V277.12l0,0v15.48h0"/><path class="cls-129" d="M132.17,292.62V277.14l.05,0v15.48l-.05,0"/><path class="cls-129" d="M132.22,292.64V277.16h0v15.49l0,0"/><path class="cls-129" d="M132.26,292.66V277.17l0,0v15.48h0"/><path class="cls-128" d="M132.3,292.67V277.19h0v15.49l0,0"/><path class="cls-127" d="M132.34,292.69V277.2l0,0V292.7h0"/><path class="cls-127" d="M132.39,292.7V277.22h0v15.49l0,0"/><path class="cls-127" d="M132.43,292.72V277.23l0,0v15.48h0"/><path class="cls-126" d="M132.47,292.73V277.25h0v15.49l0,0"/><path class="cls-126" d="M132.51,292.75V277.26h0v15.49h0"/><path class="cls-126" d="M132.55,292.76V277.27l0,0v15.48h0"/><path class="cls-125" d="M132.6,292.77V277.29h0v15.49l0,0"/><path class="cls-125" d="M132.64,292.79V277.3h0V292.8h0"/><path class="cls-124" d="M132.68,292.8V277.31l0,0v15.48h0"/><path class="cls-123" d="M132.73,292.81V277.33h0v15.49l0,0"/><path class="cls-122" d="M132.77,292.83V277.34h0v15.49h0"/><path class="cls-121" d="M132.81,292.84V277.35l.05,0v15.48h-.05"/><path class="cls-120" d="M132.86,292.85V277.37h0v15.48h0"/><path class="cls-119" d="M132.9,292.86V277.38h0v15.48h0"/><path class="cls-118" d="M132.94,292.87V277.39h0v15.48h0"/><path class="cls-117" d="M133,292.88V277.4H133V292.9l-.05,0"/><path class="cls-116" d="M133,292.9V277.41h0v15.49h0"/><path class="cls-115" d="M133.07,292.91V277.42h0v15.49h0"/><path class="cls-114" d="M133.11,292.92V277.43h0v15.49h0"/><path class="cls-113" d="M133.16,292.93V277.44h0v15.49h0"/><path class="cls-112" d="M133.2,292.94V277.45h0V293h0"/><path class="cls-111" d="M133.24,293V277.46h0V293h0"/><path class="cls-110" d="M133.29,293V277.47h0V293h0"/><path class="cls-109" d="M133.33,293V277.48h0V293h0"/><path class="cls-108" d="M133.38,293V277.49h0V293h0"/><path class="cls-107" d="M133.42,293V277.5h.05V293h-.05"/><path class="cls-106" d="M133.47,293V277.51h.05V293h-.05"/><path class="cls-105" d="M133.52,293V277.52h0V293h0"/><path class="cls-104" d="M133.57,293V277.53h0V293h0"/><path class="cls-103" d="M133.61,293V277.54h0V293h0"/><path class="cls-102" d="M133.66,293V277.55h.05v15.49h-.05"/><path class="cls-101" d="M133.71,293.05V277.56h0v15.49h0"/><path class="cls-100" d="M133.76,293.06V277.57h.05v15.48h-.05"/><path class="cls-99" d="M133.81,293.06V277.58h.05v15.48h-.05"/><path class="cls-98" d="M133.86,293.07V277.59h0v15.48h0"/><path class="cls-97" d="M133.9,293.08V277.6h0v15.49h0"/><path class="cls-96" d="M134,293.09V277.6H134V293.1H134"/><path class="cls-95" d="M134,293.1V277.61h.07v15.49H134"/><path class="cls-94" d="M134.07,293.11V277.62h.06v15.49h-.06"/><path class="cls-93" d="M134.13,293.12V277.63h.06v15.49h-.06"/><path class="cls-92" d="M134.19,293.13V277.64h.06v15.48h-.06"/><path class="cls-91" d="M134.25,293.13V277.65h.06v15.48h-.06"/><path class="cls-90" d="M134.31,293.14V277.66h.07v15.48h-.07"/><path class="cls-89" d="M134.38,293.15V277.67h.06v15.49h-.06"/><path class="cls-88" d="M134.44,293.16V277.67h.07v15.49h-.07"/><path class="cls-87" d="M134.51,293.17V277.68h.06v15.48h-.06"/><path class="cls-86" d="M134.57,293.17V277.69h.06v15.48h-.06"/><path class="cls-85" d="M134.63,293.18V277.7h.09v15.48h-.09"/><path class="cls-84" d="M134.72,293.19V277.71h.1V293.2h-.1"/><path class="cls-83" d="M134.82,293.2V277.72h.11v15.49h-.11"/><path class="cls-82" d="M134.93,293.21V277.72H135v15.49h-.11"/><path class="cls-81" d="M135,293.22V277.73h.1v15.49H135"/><path class="cls-80" d="M135.14,293.23V277.74h.11v15.48h-.11"/><path class="cls-79" d="M135.25,293.23V277.75h.11v15.48h-.11"/><path class="cls-78" d="M135.36,293.24V277.76h.36v15.49l-.36,0"/><path class="cls-75" d="M135.72,293.26V277.77h.77v15.49h-.77"/><path class="cls-75" d="M136.49,293.27V277.78h.06v15.49h-.06"/><path class="cls-75" d="M136.55,293.27V277.78c2.53,0,5.07,0,7.6,0h9.16v15.48h-9.16c-2.53,0-5.07,0-7.6,0"/><path class="cls-75" d="M153.31,293.29V277.81h.08v15.48h-.08"/><path class="cls-75" d="M153.39,293.29V277.81h.16V293.3h-.16"/></g></g></g><path class="cls-146" d="M249.54,357.9c.86,13.88-7.19,26.05-23.82,36-20.32,12.21-44,18.48-71,18.48H152c-27.14,0-50.93-6.31-71.27-18.61-16.56-10-24.54-22.2-23.58-36.08.69-10.06,5.88-19.53,12.68-28.75,12.09-16.41,28.32-31.53,44.6-46.63,3.55-3.29,7-6.6,12.37-9.1a66.93,66.93,0,0,1,53.6.06c5.33,2.51,8.78,5.83,12.31,9.13,16.18,15.13,32.32,30.28,44.31,46.72C243.77,338.35,248.92,347.83,249.54,357.9ZM171,293.3c5.12,0,7.71-2.36,5.29-4.93-3.06-3.26-5.84-6.66-11.86-8.65a35.28,35.28,0,0,0-21.64,0c-6.05,2-8.84,5.37-11.92,8.62-2.43,2.56.15,4.9,5.26,4.94,2.68,0,5.35,0,8,0H154l11.43,0c1.84,0,3.69,0,5.53,0"/><g class="cls-71"><g class="cls-147"><g class="cls-71"><path class="cls-75" d="M153.63,267.65V252.17c.9,0,1.81,0,2.71.06v15.49c-.9,0-1.81-.06-2.71-.07"/><path class="cls-78" d="M156.34,267.72V252.23l.92.05v15.48l-.92,0"/><path class="cls-79" d="M157.26,267.76V252.28l.78.05v15.48l-.78-.05"/><path class="cls-80" d="M158,267.81V252.33l.59,0v15.48l-.59,0"/><path class="cls-81" d="M158.63,267.85V252.37l.59,0V267.9l-.59,0"/><path class="cls-82" d="M159.22,267.9V252.41l.47,0v15.49l-.47,0"/><path class="cls-83" d="M159.69,267.94V252.45l.46.05V268l-.46,0"/><path class="cls-84" d="M160.15,268V252.5l.45,0V268l-.45,0"/><path class="cls-85" d="M160.6,268V252.54l.41,0v15.49l-.41,0"/><path class="cls-86" d="M161,268.07V252.58l.39,0v15.48l-.39,0"/><path class="cls-87" d="M161.4,268.11V252.63l.4,0v15.49l-.4-.05"/><path class="cls-88" d="M161.8,268.16V252.67l.38.05v15.49l-.38,0"/><path class="cls-89" d="M162.18,268.21V252.72l.35.05v15.48l-.35,0"/><path class="cls-90" d="M162.53,268.25V252.77l.36,0V268.3l-.36-.05"/><path class="cls-91" d="M162.89,268.3V252.81l.35.05v15.49l-.35-.05"/><path class="cls-92" d="M163.24,268.35V252.86l.34,0v15.48l-.34,0"/><path class="cls-93" d="M163.58,268.39V252.91l.32.05v15.48l-.32-.05"/><path class="cls-94" d="M163.9,268.44V253l.32,0v15.49l-.32-.05"/><path class="cls-95" d="M164.22,268.49V253l.32.05v15.49l-.32-.05"/><path class="cls-96" d="M164.54,268.54V253.05l.32.06v15.48l-.32,0"/><path class="cls-97" d="M164.86,268.59V253.11l.3,0v15.48l-.3-.05"/><path class="cls-98" d="M165.16,268.64V253.16l.31.05v15.48l-.31-.05"/><path class="cls-99" d="M165.47,268.69V253.21l.3,0v15.49l-.3-.06"/><path class="cls-100" d="M165.77,268.75V253.26l.31.06V268.8l-.31-.05"/><path class="cls-101" d="M166.08,268.8V253.32l.29.05v15.49l-.29-.06"/><path class="cls-102" d="M166.37,268.86V253.37l.3.06v15.48l-.3-.05"/><path class="cls-103" d="M166.67,268.91V253.43l.29,0V269l-.29-.06"/><path class="cls-104" d="M167,269V253.48l.3.06V269L167,269"/><path class="cls-105" d="M167.26,269V253.54l.29.06v15.49l-.29-.06"/><path class="cls-106" d="M167.55,269.09V253.6l.29.06v15.49l-.29-.06"/><path class="cls-107" d="M167.84,269.15V253.66l.29.06v15.49l-.29-.06"/><path class="cls-108" d="M168.13,269.21V253.72l.29.07v15.48l-.29-.06"/><path class="cls-109" d="M168.42,269.27V253.79l.29.06v15.49l-.29-.07"/><path class="cls-110" d="M168.71,269.34V253.85l.29.07V269.4l-.29-.06"/><path class="cls-111" d="M169,269.4V253.92l.29.06v15.49l-.29-.07"/><path class="cls-112" d="M169.29,269.47V254l.28.07v15.49l-.28-.07"/><path class="cls-113" d="M169.57,269.54V254.05l.29.07v15.49l-.29-.07"/><path class="cls-114" d="M169.86,269.61V254.12l.29.07v15.49l-.29-.07"/><path class="cls-115" d="M170.15,269.68V254.19l.29.08v15.48l-.29-.07"/><path class="cls-116" d="M170.44,269.75V254.27l.29.07v15.49l-.29-.08"/><path class="cls-117" d="M170.73,269.83V254.34l.29.08V269.9l-.29-.07"/><path class="cls-118" d="M171,269.9V254.42l.29.07V270l-.29-.08"/><path class="cls-119" d="M171.31,270V254.49l.29.08v15.49l-.29-.08"/><path class="cls-120" d="M171.6,270.06V254.57l.3.09v15.48l-.3-.08"/><path class="cls-121" d="M171.9,270.14V254.66l.3.08v15.48l-.3-.08"/><path class="cls-122" d="M172.2,270.22V254.74l.3.08v15.49l-.3-.09"/><path class="cls-123" d="M172.5,270.31V254.82l.29.09V270.4l-.29-.09"/><path class="cls-124" d="M172.79,270.4V254.91l.3.09v15.49l-.3-.09"/><path class="cls-125" d="M173.09,270.49V255l.31.1v15.48l-.31-.09"/><path class="cls-125" d="M173.4,270.58V255.1l.31.09v15.49l-.31-.1"/><path class="cls-126" d="M173.71,270.68V255.19l.31.1v15.48l-.31-.09"/><path class="cls-126" d="M174,270.77V255.29l.31.1v15.48l-.31-.1"/><path class="cls-126" d="M174.33,270.87V255.39l.32.11V271l-.32-.11"/><path class="cls-127" d="M174.65,271V255.5l.32.1v15.49l-.32-.11"/><path class="cls-127" d="M175,271.09V255.6l.31.11V271.2l-.31-.11"/><path class="cls-127" d="M175.28,271.2V255.71l.33.12v15.48l-.33-.11"/><path class="cls-128" d="M175.61,271.31V255.83l.33.11v15.49l-.33-.12"/><path class="cls-129" d="M175.94,271.43V255.94l.33.12v15.49l-.33-.12"/><path class="cls-129" d="M176.27,271.55V256.06l.33.13v15.48l-.33-.12"/><path class="cls-129" d="M176.6,271.67V256.19l.34.13V271.8l-.34-.13"/><path class="cls-130" d="M176.94,271.8V256.32l.35.13v15.48l-.35-.13"/><path class="cls-130" d="M177.29,271.93V256.45l.34.14v15.48l-.34-.14"/><path class="cls-130" d="M177.63,272.07V256.59l.35.13v15.49l-.35-.14"/><path class="cls-130" d="M178,272.21V256.72l.36.15v15.49l-.36-.15"/><path class="cls-131" d="M178.34,272.36V256.87l.36.15v15.49l-.36-.15"/><path class="cls-131" d="M178.7,272.51V257l.36.16v15.48l-.36-.15"/><path class="cls-132" d="M179.06,272.66V257.18l.36.16v15.48l-.36-.16"/><path class="cls-132" d="M179.42,272.82V257.34l.36.16V273l-.36-.16"/><path class="cls-132" d="M179.78,273V257.5l.36.16v15.49l-.36-.17"/><path class="cls-133" d="M180.14,273.15V257.66l.28.13.06,0v15.49l-.06,0-.28-.13"/><path class="cls-133" d="M180.48,273.31V257.82l.28.14v15.48l-.28-.13"/><path class="cls-133" d="M180.76,273.44V258l.27.13v15.48l-.27-.13"/><path class="cls-133" d="M181,273.57V258.09l.28.14v15.48l-.28-.14"/><path class="cls-133" d="M181.31,273.71V258.23l.29.15v15.48l-.29-.15"/><path class="cls-133" d="M181.6,273.86V258.38l.29.15V274l-.29-.15"/><path class="cls-133" d="M181.89,274V258.53l.3.16v15.49l-.3-.17"/><path class="cls-134" d="M182.19,274.18V258.69l.3.17v15.48l-.3-.16"/><path class="cls-134" d="M182.49,274.34V258.86l.31.17v15.49l-.31-.18"/><path class="cls-134" d="M182.8,274.52V259l.33.19v15.49l-.33-.19"/><path class="cls-135" d="M183.13,274.71V259.22a3.37,3.37,0,0,0,.32.19V274.9l-.32-.19"/><path class="cls-135" d="M183.45,274.9V259.41l.34.21v15.49l-.34-.21"/><path class="cls-135" d="M183.79,275.11V259.62l.35.22v15.48l-.35-.21"/><path class="cls-136" d="M184.14,275.32V259.84l.36.24v15.48l-.36-.24"/><path class="cls-136" d="M184.5,275.56V260.08l.34.22v15.48l-.34-.22"/><path class="cls-136" d="M184.84,275.78V260.3l.26.17V276l-.26-.18"/><path class="cls-137" d="M185.1,276V260.47l.25.18v15.49l-.25-.18"/><path class="cls-137" d="M185.35,276.14V260.65l.42.3v15.48l-.42-.29"/><path class="cls-137" d="M185.77,276.43V261l.48.35v15.48l-.48-.35"/><path class="cls-138" d="M186.25,276.78V261.3l.51.38v15.48l-.51-.38"/><path class="cls-138" d="M186.76,277.16V261.68l.54.42v15.49l-.54-.43"/><path class="cls-138" d="M187.3,277.59V262.1c.21.16.41.33.6.49v15.48l-.6-.48"/><path class="cls-139" d="M187.9,278.07V262.59l.69.57v15.49c-.23-.2-.45-.39-.69-.58"/><path class="cls-139" d="M188.59,278.65V263.16c.27.23.55.47.81.71v15.48c-.26-.24-.54-.47-.81-.7"/><path class="cls-139" d="M189.4,279.35V263.87l1.13,1v15.48l-1.13-1"/><path class="cls-139" d="M190.53,280.36V264.88l2.2,2q4.86,4.54,9.67,9.09V291.5q-4.8-4.56-9.67-9.09l-2.2-2.05"/><path class="cls-140" d="M202.4,291.5V276q4.5,4.28,8.86,8.56v15.49q-4.35-4.31-8.86-8.56"/><path class="cls-140" d="M211.26,300.06V284.57c2,1.94,3.9,3.88,5.8,5.84v15.48c-1.9-1.95-3.84-3.9-5.8-5.83"/><path class="cls-140" d="M217.06,305.89V290.41q2.33,2.38,4.57,4.8v15.48q-2.25-2.42-4.57-4.8"/><path class="cls-141" d="M221.63,310.69V295.21q2,2.12,3.88,4.25V315c-1.27-1.43-2.56-2.84-3.88-4.26"/><path class="cls-141" d="M225.51,315V299.46q1.73,1.94,3.39,3.89v15.49q-1.67-1.95-3.39-3.89"/><path class="cls-141" d="M228.9,318.84V303.35c1,1.22,2,2.44,3,3.67V322.5c-1-1.23-2-2.45-3-3.66"/><path class="cls-142" d="M231.94,322.5V307q1.41,1.74,2.77,3.5V326q-1.36-1.77-2.77-3.51"/><path class="cls-142" d="M234.71,326V310.52c.79,1,1.57,2.08,2.33,3.13.07.08.13.17.19.25v15.49l-.19-.26c-.76-1.05-1.54-2.09-2.33-3.12"/><path class="cls-143" d="M237.23,329.39V313.9c.69,1,1.35,1.89,2,2.84v15.49c-.65-1-1.31-1.9-2-2.84"/><path class="cls-144" d="M239.23,332.23V316.74c.58.85,1.14,1.69,1.68,2.55v15.48c-.54-.85-1.1-1.7-1.68-2.54"/><path class="cls-144" d="M240.91,334.77V319.29c.51.78,1,1.57,1.47,2.37v15.48c-.48-.79-1-1.58-1.47-2.37"/><path class="cls-144" d="M242.38,337.14V321.66c.44.75.88,1.51,1.29,2.27v15.49c-.41-.76-.85-1.52-1.29-2.28"/><path class="cls-144" d="M243.67,339.42V323.93c.41.75.8,1.49,1.17,2.24v15.48c-.37-.74-.76-1.49-1.17-2.23"/><path class="cls-73" d="M244.84,341.65V326.17c.37.74.72,1.49,1,2.23v15.49c-.33-.75-.68-1.5-1-2.24"/><path class="cls-73" d="M245.89,343.89V328.4c.34.76.66,1.53,1,2.29v15.49c-.3-.77-.62-1.53-1-2.29"/><path class="cls-73" d="M246.85,346.18V330.69q.47,1.21.87,2.43v15.49q-.41-1.22-.87-2.43"/><path class="cls-73" d="M247.72,348.61V333.12q.43,1.35.78,2.7v15.49q-.34-1.37-.78-2.7"/><path class="cls-73" d="M248.5,351.31V335.82c.27,1.09.5,2.19.67,3.29v15.48c-.17-1.1-.4-2.19-.67-3.28"/><path class="cls-73" d="M249.17,354.59V339.11c.18,1.1.3,2.2.37,3.31V357.9c-.07-1.11-.19-2.21-.37-3.31"/></g></g></g><g class="cls-71"><g class="cls-148"><g class="cls-71"><path class="cls-73" d="M57.09,359.91V344.43c0-.73,0-1.47.08-2.21a36.58,36.58,0,0,1,1.3-7.39v15.49a36.61,36.61,0,0,0-1.3,7.38c-.05.74-.08,1.48-.08,2.21"/><path class="cls-73" d="M58.47,350.32V334.83c.33-1.19.73-2.38,1.17-3.57v15.49c-.44,1.18-.84,2.37-1.17,3.57"/><path class="cls-73" d="M59.64,346.75V331.26c.38-1,.79-2,1.24-3v15.48c-.45,1-.86,2-1.24,3"/><path class="cls-73" d="M60.88,343.74V328.26c.42-.93.87-1.86,1.34-2.78V341c-.47.93-.92,1.85-1.34,2.78"/><path class="cls-73" d="M62.22,341V325.48c.47-.91,1-1.81,1.48-2.71v15.49c-.52.9-1,1.8-1.48,2.7"/><path class="cls-73" d="M63.7,338.26V322.77c.52-.91,1.07-1.82,1.64-2.73v15.48c-.57.91-1.12,1.82-1.64,2.74"/><path class="cls-144" d="M65.34,335.52V320c.61-1,1.23-1.92,1.88-2.87v15.48c-.65,1-1.27,1.91-1.88,2.87"/><path class="cls-144" d="M67.22,332.65V317.17c.72-1.05,1.46-2.1,2.22-3.14v15.48c-.76,1.05-1.5,2.09-2.22,3.14"/><path class="cls-144" d="M69.44,329.51V314c.13-.19.27-.37.41-.56.81-1.1,1.63-2.19,2.48-3.27v15.48c-.85,1.09-1.67,2.18-2.48,3.27l-.41.56"/><path class="cls-144" d="M72.33,325.68V310.2q1.53-2,3.14-3.93v15.48q-1.6,2-3.14,3.93"/><path class="cls-143" d="M75.47,321.75V306.27q1.71-2.07,3.48-4.12v15.49q-1.77,2-3.48,4.11"/><path class="cls-142" d="M79,317.64V302.15q1.92-2.2,3.92-4.38v15.48q-2,2.19-3.92,4.39"/><path class="cls-142" d="M82.87,313.25V297.77c1.48-1.63,3-3.24,4.54-4.85V308.4c-1.54,1.61-3.06,3.23-4.54,4.85"/><path class="cls-141" d="M87.41,308.4V292.92c1.81-1.89,3.66-3.78,5.54-5.65v15.49q-2.82,2.81-5.54,5.64"/><path class="cls-141" d="M93,302.76V287.27q3.83-3.81,7.77-7.57v15.49Q96.78,299,93,302.76"/><path class="cls-141" d="M100.72,295.19V279.7c4.51-4.31,9.12-8.59,13.73-12.86l1.69-1.57v15.48l-1.69,1.57c-4.61,4.28-9.22,8.56-13.73,12.87"/><path class="cls-140" d="M116.14,280.75V265.27c.47-.43.94-.86,1.42-1.28v15.48l-1.42,1.28"/><path class="cls-140" d="M117.56,279.47V264l.91-.79v15.49l-.91.78"/><path class="cls-140" d="M118.47,278.69V263.2l.73-.61v15.48l-.73.62"/><path class="cls-139" d="M119.2,278.07V262.59l.64-.51v15.48l-.64.51"/><path class="cls-139" d="M119.84,277.56V262.08l.57-.45v15.49l-.57.44"/><path class="cls-139" d="M120.41,277.12V261.63l.53-.39v15.48l-.53.4"/><path class="cls-139" d="M120.94,276.72V261.24l.49-.36v15.49l-.49.35"/><path class="cls-138" d="M121.43,276.37V260.88l.47-.33V276l-.47.33"/><path class="cls-138" d="M121.9,276V260.55l.45-.3v15.48l-.45.31"/><path class="cls-138" d="M122.35,275.73V260.25l.31-.2v15.48l-.31.2"/><path class="cls-137" d="M122.66,275.53V260.05l.27-.18v15.49l-.27.17"/><path class="cls-137" d="M122.93,275.36V259.87l.29-.18v15.48l-.29.19"/><path class="cls-137" d="M123.22,275.17V259.69l.36-.22V275l-.36.22"/><path class="cls-136" d="M123.58,275V259.47l.35-.21v15.48l-.35.21"/><path class="cls-136" d="M123.93,274.74V259.26l.34-.2v15.49l-.34.19"/><path class="cls-136" d="M124.27,274.55V259.06l.33-.19v15.49l-.33.19"/><path class="cls-135" d="M124.6,274.36V258.87l.32-.17v15.48l-.32.18"/><path class="cls-135" d="M124.92,274.18V258.7l.32-.18V274l-.32.17"/><path class="cls-135" d="M125.24,274V258.52l.3-.15v15.48l-.3.16"/><path class="cls-134" d="M125.54,273.85V258.37l.3-.16V273.7l-.3.15"/><path class="cls-134" d="M125.84,273.7V258.21l.3-.15v15.49l-.3.15"/><path class="cls-134" d="M126.14,273.55V258.06l.28-.14v15.49l-.28.14"/><path class="cls-133" d="M126.42,273.41V257.92l.29-.13v15.48l-.29.14"/><path class="cls-133" d="M126.71,273.27V257.79l.11-.05.25-.12v15.49l-.25.11-.11,0"/><path class="cls-133" d="M127.07,273.11V257.62l.4-.18v15.48l-.4.19"/><path class="cls-133" d="M127.47,272.92V257.44l.41-.18v15.48l-.41.18"/><path class="cls-133" d="M127.88,272.74V257.26l.39-.17v15.48l-.39.17"/><path class="cls-133" d="M128.27,272.57V257.09l.37-.16v15.48l-.37.16"/><path class="cls-133" d="M128.64,272.41V256.93l.38-.16v15.49l-.38.15"/><path class="cls-132" d="M129,272.26V256.77l.38-.15v15.49l-.38.15"/><path class="cls-132" d="M129.4,272.11V256.62l.36-.14V272l-.36.15"/><path class="cls-132" d="M129.76,272V256.48l.36-.14v15.48l-.36.14"/><path class="cls-131" d="M130.12,271.82V256.34l.37-.14v15.48l-.37.14"/><path class="cls-131" d="M130.49,271.68V256.2l.34-.13v15.48l-.34.13"/><path class="cls-130" d="M130.83,271.55V256.07l.35-.13v15.49l-.35.12"/><path class="cls-130" d="M131.18,271.43V255.94l.35-.12V271.3l-.35.13"/><path class="cls-130" d="M131.53,271.3V255.82l.34-.12v15.48l-.34.12"/><path class="cls-130" d="M131.87,271.18V255.7l.33-.11v15.48l-.33.11"/><path class="cls-129" d="M132.2,271.07V255.59l.33-.12V271l-.33.11"/><path class="cls-129" d="M132.53,271V255.47l.34-.11v15.49l-.34.11"/><path class="cls-129" d="M132.87,270.85V255.36l.33-.1v15.48l-.33.11"/><path class="cls-128" d="M133.2,270.74V255.26l.32-.1v15.48l-.32.1"/><path class="cls-127" d="M133.52,270.64V255.16l.32-.1v15.48l-.32.1"/><path class="cls-127" d="M133.84,270.54V255.06l.32-.1v15.49l-.32.09"/><path class="cls-127" d="M134.16,270.45V255l.32-.09v15.48l-.32.1"/><path class="cls-126" d="M134.48,270.35V254.87l.3-.09v15.48l-.3.09"/><path class="cls-126" d="M134.78,270.26V254.78l.31-.09v15.49l-.31.08"/><path class="cls-126" d="M135.09,270.18V254.69l.31-.09v15.49l-.31.09"/><path class="cls-125" d="M135.4,270.09V254.6l.3-.08V270l-.3.08"/><path class="cls-125" d="M135.7,270V254.52l.3-.08v15.49l-.3.08"/><path class="cls-124" d="M136,269.93V254.44l.3-.08v15.49l-.3.08"/><path class="cls-123" d="M136.3,269.85V254.36l.3-.07v15.48l-.3.08"/><path class="cls-122" d="M136.6,269.77V254.29l.3-.08v15.48l-.3.08"/><path class="cls-121" d="M136.9,269.69V254.21l.29-.07v15.48l-.29.07"/><path class="cls-120" d="M137.19,269.62V254.14l.29-.07v15.48l-.29.07"/><path class="cls-119" d="M137.48,269.55V254.07l.29-.07v15.48l-.29.07"/><path class="cls-118" d="M137.77,269.48V254l.29-.07v15.49l-.29.06"/><path class="cls-117" d="M138.06,269.42V253.93l.29-.06v15.48l-.29.07"/><path class="cls-116" d="M138.35,269.35V253.87l.29-.07v15.49l-.29.06"/><path class="cls-115" d="M138.64,269.29V253.8l.29-.06v15.48l-.29.07"/><path class="cls-114" d="M138.93,269.22V253.74l.29-.06v15.48l-.29.06"/><path class="cls-113" d="M139.22,269.16V253.68l.29-.06V269.1l-.29.06"/><path class="cls-112" d="M139.51,269.1V253.62l.28-.06V269l-.28.06"/><path class="cls-111" d="M139.79,269V253.56l.29-.06V269l-.29.06"/><path class="cls-110" d="M140.08,269V253.5l.28-.06v15.49l-.28.05"/><path class="cls-109" d="M140.36,268.93V253.44l.29-.05v15.48l-.29.06"/><path class="cls-108" d="M140.65,268.87V253.39l.29,0v15.48l-.29.05"/><path class="cls-107" d="M140.94,268.82V253.34l.28-.06v15.49l-.28.05"/><path class="cls-106" d="M141.22,268.77V253.28l.29-.05v15.49l-.29,0"/><path class="cls-105" d="M141.51,268.72V253.23l.29,0v15.49l-.29.05"/><path class="cls-104" d="M141.8,268.67V253.18l.29-.05v15.49l-.29.05"/><path class="cls-103" d="M142.09,268.62V253.13l.29,0v15.48l-.29.05"/><path class="cls-102" d="M142.38,268.57V253.09l.29-.05v15.49l-.29,0"/><path class="cls-101" d="M142.67,268.53V253l.3,0v15.49l-.3,0"/><path class="cls-100" d="M143,268.48V253l.29,0v15.48l-.29.05"/><path class="cls-99" d="M143.26,268.43V253l.3,0v15.48l-.3,0"/><path class="cls-98" d="M143.56,268.39V252.91l.3,0v15.49l-.3,0"/><path class="cls-97" d="M143.86,268.35V252.86l.32,0V268.3l-.32.05"/><path class="cls-96" d="M144.18,268.3V252.82l.31,0v15.48l-.31,0"/><path class="cls-95" d="M144.49,268.26V252.78l.32,0v15.48l-.32,0"/><path class="cls-94" d="M144.81,268.22V252.74l.32,0v15.48l-.32,0"/><path class="cls-93" d="M145.13,268.18V252.7l.33,0v15.48l-.33,0"/><path class="cls-92" d="M145.46,268.14V252.66l.34,0V268.1l-.34,0"/><path class="cls-91" d="M145.8,268.1V252.62l.34,0v15.49l-.34,0"/><path class="cls-90" d="M146.14,268.07V252.58l.35,0V268l-.35,0"/><path class="cls-89" d="M146.49,268V252.55l.36,0V268l-.36,0"/><path class="cls-88" d="M146.85,268V252.51l.38,0V268l-.38,0"/><path class="cls-87" d="M147.23,268V252.47l.37,0v15.49l-.37,0"/><path class="cls-86" d="M147.6,267.93V252.44l.38,0v15.48l-.38,0"/><path class="cls-85" d="M148,267.89V252.41l.44,0v15.49l-.44,0"/><path class="cls-84" d="M148.42,267.86V252.37l.45,0v15.49l-.45,0"/><path class="cls-83" d="M148.87,267.83V252.34l.44,0V267.8l-.44,0"/><path class="cls-82" d="M149.31,267.8V252.31l.55,0v15.48l-.55,0"/><path class="cls-81" d="M149.86,267.76V252.28l.57,0v15.49l-.57,0"/><path class="cls-80" d="M150.43,267.74V252.25l.64,0v15.49l-.64,0"/><path class="cls-79" d="M151.07,267.71V252.22l.76,0v15.48l-.76,0"/><path class="cls-78" d="M151.83,267.68V252.2l1,0v15.48l-1,0"/><path class="cls-75" d="M152.81,267.66V252.18h.82v15.48h-.82"/></g></g></g></g><path class="cls-5" d="M229.76,340.56c-6,2.37-10.9,3.62-9.78,8s15.44-.4,15.44-.4-14,6.15-12.91,9.61c1.49,4.7,15.21,0,15.21,0s-8.76,7.92-6.73,10.4c3,3.75,25.85-9.25,29.95-13.67,7.72-8.3,13.84-22.73,7.72-27.62a219.44,219.44,0,0,0-25.2.21c-4.13.34-18,0-19.81,5-1.75,4.75,12.23,3.67,12.23,3.67S235.76,338.2,229.76,340.56Z"/><path class="cls-5" d="M85.09,336.88c6.09,1.68,10.52,4.25,8.4,8.19s-15.83-.78-15.83-.78,11.64,7.14,9.74,10.23c-2.59,4.2-14.28-1.5-14.28-1.5s5.45,7,3.14,10.32c-2.74,4-22-13.82-24.89-19.1-5.49-9.91-11.79-28.92-4.67-32.2,0,0,7.72-3.8,17.53,2,14.29,8.42,22.79,2.83,23.38,8.16.55,5-9,8.19-9,8.19S75.13,334.13,85.09,336.88Z"/><g class="cls-149"><path class="cls-17" d="M205.33,407c0,.84,9.93,16.81,9.93,16.81-9.11,5.82-25.6,12.31-52.77,17-26.1,4.47-57.52-1.27-64.73-7,0,0,4.08-26,4.08-27.24,0-4.74,16.7,5.83,50.18,5.83S205.33,402.27,205.33,407Z"/></g><path class="cls-150" d="M275.52,374.73c-19.33-20.44-41-3.27-60.89,17.33-4.06,4.21-22.81,14.44-25.75,17.18-22.64,21-24.93,31.81-16.39,40.36,10.46,10.45,44.75,3.19,73.74-19.07,1.78-1.38,18.64-11.22,20.27-12.64C282.42,404,288.58,388.55,275.52,374.73Z"/><path class="cls-150" d="M25.1,371.76c12.17-12.26,27.88-17.4,44.43-.3,10.3,10.65,16.48,21.63,22.32,25.07,36,21.17,47.86,42.86,37.65,53.07-8.86,8.86-36.28,7.37-72-21.82C30,415.42,8.46,388.51,25.1,371.76Z"/><path class="cls-18" d="M235.12,409.74c4.41,7.59-4.07,20.75-19,29.39s-30.51,9.5-34.92,1.91,4.08-20.75,18.95-29.39S230.71,402.15,235.12,409.74Z"/><path class="cls-18" d="M255.48,372.56c1.8,2.82-.29,7.37-4.68,10.16s-9.39,2.76-11.18-.06.29-7.37,4.68-10.16S253.69,369.74,255.48,372.56Z"/><path class="cls-18" d="M70.36,407.07c-4.25,6.26,2.79,20.32,17,30s30.27,11.26,34.52,5-3.85-19.16-18.09-28.82S74.61,400.81,70.36,407.07Z"/><path class="cls-18" d="M31.49,374.35c-2.44,2.58-1.17,7.54,2.85,11.08s9.25,4.32,11.69,1.74,1.17-7.54-2.85-11.08S33.93,371.77,31.49,374.35Z"/><path class="cls-18" d="M49.23,367.94c-2.35,2.38-1.24,7.27,2.47,10.91s8.61,4.64,10.95,2.26,1.24-7.28-2.47-10.91S51.57,365.55,49.23,367.94Z"/><path class="cls-18" d="M29.59,394c-2.1,2.6-.54,7.36,3.5,10.63s9,3.81,11.12,1.21.54-7.36-3.49-10.63S31.7,391.44,29.59,394Z"/><path class="cls-18" d="M271.77,378c2.07,3.26-.31,8.49-5.31,11.68s-10.76,3.13-12.83-.13.29-8.49,5.3-11.68S269.69,374.77,271.77,378Z"/><path class="cls-18" d="M273.07,396.88C275,400,272.74,405,268,408s-10.28,3-12.24-.07.32-8.06,5.11-11.12S271.1,393.79,273.07,396.88Z"/></g></g></svg>