<svg xmlns="http://www.w3.org/2000/svg" xmlns:xlink="http://www.w3.org/1999/xlink" viewBox="0 0 425 450.71"><defs><style>.cls-1{fill:none;}.cls-2{clip-path:url(#clip-path);}.cls-3{fill:#bcbdbf;}.cls-4{fill:#a7a8ab;}.cls-5{fill:#929497;}.cls-6{fill:#d1d2d3;}.cls-7{clip-path:url(#clip-path-2);}.cls-8{fill:#808184;}.cls-9{opacity:0.5;}.cls-10{clip-path:url(#clip-path-3);}.cls-11{fill:#59595c;}.cls-12{opacity:0.3;}.cls-13{clip-path:url(#clip-path-4);}.cls-14{fill:#c4dae5;}.cls-15{opacity:0.31;}.cls-16{clip-path:url(#clip-path-5);}.cls-17{opacity:0.03;}.cls-18{clip-path:url(#clip-path-6);}.cls-19{fill:#424143;}.cls-20{fill:#a77d50;}.cls-21{fill:#afcbd4;}.cls-22{clip-path:url(#clip-path-7);}.cls-23{fill:#6d6e71;}.cls-24{opacity:0.63;}.cls-25{clip-path:url(#clip-path-8);}.cls-26{clip-path:url(#clip-path-9);}.cls-27{fill:#afcad5;}.cls-28{clip-path:url(#clip-path-10);}.cls-29{opacity:0.25;}.cls-30{clip-path:url(#clip-path-11);}.cls-31{fill:#694e40;}.cls-32{opacity:0.59;}.cls-33{clip-path:url(#clip-path-12);}.cls-34{clip-path:url(#clip-path-13);}.cls-35{clip-path:url(#clip-path-14);}.cls-36{opacity:0.24;}.cls-37{clip-path:url(#clip-path-15);}.cls-38{clip-path:url(#clip-path-16);}.cls-39{fill:#c2802d;}.cls-40{fill:#faaf3c;}.cls-41{fill:#d79239;}.cls-42{opacity:0.35;}.cls-43{clip-path:url(#clip-path-17);}.cls-44{fill:#f79420;}.cls-45{clip-path:url(#clip-path-18);}.cls-46{clip-path:url(#clip-path-19);}.cls-47{fill:#754e29;}.cls-48{fill:#c1976b;}.cls-49{fill:#e7e6e6;}.cls-50{fill:#5c4c43;}.cls-51{fill:#d1d2d2;}.cls-52{fill:#fff;}.cls-53{opacity:0.2;}.cls-54{clip-path:url(#clip-path-20);}.cls-55{fill:#603b19;}.cls-56{clip-path:url(#clip-path-21);}.cls-57{fill:#d6b27e;}.cls-58{clip-path:url(#clip-path-22);}.cls-59{clip-path:url(#clip-path-23);}.cls-60{clip-path:url(#clip-path-24);}.cls-61{clip-path:url(#clip-path-25);}</style><clipPath id="clip-path"><circle class="cls-1" cx="216.04" cy="216.48" r="212.5"/></clipPath><clipPath id="clip-path-2"><rect class="cls-1" x="130.55" y="131.98" width="156.85" height="157.85"/></clipPath><clipPath id="clip-path-3"><rect class="cls-1" x="170.78" y="89.58" width="212.07" height="358.73"/></clipPath><clipPath id="clip-path-4"><rect class="cls-1" x="167.61" y="87.23" width="216.76" height="363.48"/></clipPath><clipPath id="clip-path-5"><rect class="cls-1" x="175.13" y="269.24" width="208.72" height="145.96"/></clipPath><clipPath id="clip-path-6"><rect class="cls-1" x="252.1" y="302.3" width="87.71" height="70.94"/></clipPath><clipPath id="clip-path-7"><path class="cls-1" d="M261.56,261.17s-5.81.72-6.9,17.65c-1.18,18.53,1.71,78,1.71,78l7.36,8.25,13-2s-3.41-64-5.55-84.83c-1.79-17.39-7.74-14.2-9.59-17h0m0,0h0m0,0h0m0,0-.24-.38.24.38m-.24-.38-.09-.12a.94.94,0,0,0,.09.12m-.09-.12-.06-.11.06.11m-.06-.11-.05-.06.05.06m-.05-.06,0-.05,0,.05m0-.05h0m0,0-.06-.1.06.1m-.06-.1v0m0,0-.08-.11a1,1,0,0,1,.08.11m-.08-.11-.17-.28s0,.08.17.28"/></clipPath><clipPath id="clip-path-8"><rect class="cls-1" x="179.94" y="353.45" width="28.76" height="9"/></clipPath><clipPath id="clip-path-9"><rect class="cls-1" x="216.01" y="268.87" width="167.84" height="146.2"/></clipPath><clipPath id="clip-path-10"><rect class="cls-1" x="235.25" y="344.08" width="21.76" height="28.37"/></clipPath><clipPath id="clip-path-11"><rect class="cls-1" x="330.72" y="312.41" width="19.86" height="15.32"/></clipPath><clipPath id="clip-path-12"><rect class="cls-1" x="306.95" y="362.38" width="27.5" height="27.51"/></clipPath><clipPath id="clip-path-13"><rect class="cls-1" x="258.45" y="395.1" width="5.5" height="5.63"/></clipPath><clipPath id="clip-path-14"><rect class="cls-1" x="258.48" y="418.25" width="5.5" height="5.62"/></clipPath><clipPath id="clip-path-15"><rect class="cls-1" x="219.77" y="310.44" width="27.06" height="20.36"/></clipPath><clipPath id="clip-path-16"><rect class="cls-1" x="282.89" y="309.83" width="28.51" height="22.31"/></clipPath><clipPath id="clip-path-17"><rect class="cls-1" x="290.86" y="287.53" width="7.07" height="17.52"/></clipPath><clipPath id="clip-path-18"><rect class="cls-1" x="294.21" y="312.6" width="3.22" height="3.29"/></clipPath><clipPath id="clip-path-19"><rect class="cls-1" x="231.19" y="312.6" width="3.22" height="3.29"/></clipPath><clipPath id="clip-path-20"><rect class="cls-1" x="224.49" y="194.33" width="34.09" height="30.87"/></clipPath><clipPath id="clip-path-21"><rect class="cls-1" x="247.44" y="192.96" width="42.27" height="35.93"/></clipPath><clipPath id="clip-path-22"><rect class="cls-1" x="259.19" y="139.92" width="48.84" height="15.62"/></clipPath><clipPath id="clip-path-23"><rect class="cls-1" x="281.74" y="112.94" width="64.18" height="43.22"/></clipPath><clipPath id="clip-path-24"><rect class="cls-1" x="217.63" y="108.59" width="22.09" height="23.96"/></clipPath><clipPath id="clip-path-25"><rect class="cls-1" x="244.57" y="116.95" width="8.64" height="22.32"/></clipPath></defs><g id="Layer_2" data-name="Layer 2"><g id="Layer_1-2" data-name="Layer 1"><circle class="cls-1" cx="212.5" cy="212.5" r="212.5"/><g class="cls-2"><path class="cls-3" d="M403.89,211.88C403.89,104.22,316.62,17,209,17S14.05,104.22,14.05,211.88,101.32,406.8,209,406.8s194.92-87.27,194.92-194.92"/><path class="cls-4" d="M378,211.88a169,169,0,1,0-169,169,169,169,0,0,0,169-169"/><path class="cls-5" d="M209,381.86c-93.73,0-170-76.25-170-170s76.26-170,170-170,170,76.25,170,170S302.7,381.86,209,381.86Zm0-338c-92.63,0-168,75.36-168,168s75.36,168,168,168,168-75.36,168-168S301.6,43.89,209,43.89Z"/><path class="cls-6" d="M358.92,211.88A150,150,0,1,0,209,361.82a150,150,0,0,0,150-149.94"/><path class="cls-5" d="M209,362.71c-83.17,0-150.84-67.66-150.84-150.83S125.8,61,209,61,359.8,128.71,359.8,211.88,292.14,362.71,209,362.71Zm0-299.89c-82.19,0-149.06,66.86-149.06,149.06S126.78,360.94,209,360.94,358,294.07,358,211.88,291.16,62.82,209,62.82Z"/><g class="cls-7"><polygon class="cls-4" points="219.59 137.8 197.4 137.8 205.41 215.17 212.97 215.17 219.59 137.8"/><polygon class="cls-4" points="140.78 237.5 151.88 256.73 214.88 211.11 211.1 204.56 140.78 237.5"/><polygon class="cls-4" points="266.53 255.91 277.63 236.68 206.62 204.94 202.85 211.48 266.53 255.91"/><path class="cls-3" d="M242.89,210.4A33.92,33.92,0,1,0,209,244.32a33.92,33.92,0,0,0,33.92-33.92"/><path class="cls-8" d="M207.44,290.81c-42.91,0-77.83-35.6-77.83-79.35s34.92-79.36,77.83-79.36,77.82,35.6,77.82,79.36S250.35,290.81,207.44,290.81Zm0-147.31c-36.63,0-66.42,30.49-66.42,68s29.79,68,66.42,68,66.42-30.48,66.42-68S244.06,143.5,207.44,143.5Z"/><path class="cls-5" d="M209,289.82a79.42,79.42,0,1,1,79.42-79.41A79.51,79.51,0,0,1,209,289.82Zm0-147.31a67.9,67.9,0,1,0,67.89,67.9A68,68,0,0,0,209,142.51Z"/><path class="cls-4" d="M237.07,210.4A28.1,28.1,0,1,0,209,238.5a28.1,28.1,0,0,0,28.1-28.1"/><path class="cls-3" d="M231,210.4a22,22,0,1,0-22,22,22,22,0,0,0,22-22"/><path class="cls-4" d="M228.59,210.4A19.62,19.62,0,1,0,209,230a19.62,19.62,0,0,0,19.62-19.63"/></g><path class="cls-4" d="M215.32,31.92A6.35,6.35,0,1,0,209,38.27a6.35,6.35,0,0,0,6.35-6.35"/><path class="cls-3" d="M241.61,56.3a4.72,4.72,0,1,0-5.48,3.82,4.73,4.73,0,0,0,5.48-3.82"/><path class="cls-4" d="M153.38,40.6a6.35,6.35,0,1,0-3.79,8.14,6.34,6.34,0,0,0,3.79-8.14"/><path class="cls-3" d="M186.43,54.52A4.72,4.72,0,1,0,182.59,60a4.72,4.72,0,0,0,3.84-5.46"/><path class="cls-4" d="M98.16,69.94a6.35,6.35,0,1,0-.78,9,6.35,6.35,0,0,0,.78-9"/><path class="cls-3" d="M134,71.72a4.72,4.72,0,1,0-1.74,6.44A4.73,4.73,0,0,0,134,71.72"/><path class="cls-4" d="M56.29,116.4a6.35,6.35,0,1,0,2.33,8.67,6.36,6.36,0,0,0-2.33-8.67"/><path class="cls-3" d="M90.56,105.82a4.72,4.72,0,1,0,.56,6.65,4.72,4.72,0,0,0-.56-6.65"/><path class="cls-4" d="M32.85,174.38A6.35,6.35,0,1,0,38,181.73a6.35,6.35,0,0,0-5.15-7.35"/><path class="cls-3" d="M61.42,152.72a4.72,4.72,0,1,0,2.81,6.05,4.71,4.71,0,0,0-2.81-6.05"/><path class="cls-4" d="M30.64,236.88A6.35,6.35,0,1,0,38,242a6.34,6.34,0,0,0-7.36-5.14"/><path class="cls-3" d="M50.09,206.75a4.72,4.72,0,1,0,4.71,4.73,4.71,4.71,0,0,0-4.71-4.73"/><path class="cls-4" d="M50,296.36a6.35,6.35,0,1,0,8.67,2.32A6.35,6.35,0,0,0,50,296.36"/><path class="cls-3" d="M57.92,261.4a4.72,4.72,0,1,0,6,2.83,4.72,4.72,0,0,0-6-2.83"/><path class="cls-4" d="M88.43,345.65a6.35,6.35,0,1,0,8.95-.78,6.36,6.36,0,0,0-8.95.78"/><path class="cls-3" d="M84,310.07a4.72,4.72,0,1,0,6.65.6,4.73,4.73,0,0,0-6.65-.6"/><path class="cls-4" d="M141.45,378.81a6.35,6.35,0,1,0,8.14-3.8,6.35,6.35,0,0,0-8.14,3.8"/><path class="cls-3" d="M125.09,346.91a4.72,4.72,0,1,0,6.45-1.72,4.72,4.72,0,0,0-6.45,1.72"/><path class="cls-4" d="M202.62,391.84a6.35,6.35,0,1,0,6.35-6.36,6.34,6.34,0,0,0-6.35,6.36"/><path class="cls-3" d="M176.33,367.45a4.72,4.72,0,1,0,5.48-3.81,4.72,4.72,0,0,0-5.48,3.81"/><path class="cls-4" d="M264.55,383.15a6.35,6.35,0,1,0,3.8-8.14,6.35,6.35,0,0,0-3.8,8.14"/><path class="cls-3" d="M231.51,369.23a4.72,4.72,0,1,0,3.84-5.46,4.73,4.73,0,0,0-3.84,5.46"/><path class="cls-4" d="M319.78,353.81a6.35,6.35,0,1,0,.78-8.94,6.36,6.36,0,0,0-.78,8.94"/><path class="cls-3" d="M284,352a4.72,4.72,0,1,0,1.74-6.45A4.71,4.71,0,0,0,284,352"/><path class="cls-4" d="M361.64,307.35a6.35,6.35,0,1,0-2.32-8.67,6.35,6.35,0,0,0,2.32,8.67"/><path class="cls-3" d="M327.38,317.93a4.72,4.72,0,1,0-.56-6.65,4.72,4.72,0,0,0,.56,6.65"/><path class="cls-4" d="M385.09,249.38a6.35,6.35,0,1,0-5.15-7.36,6.35,6.35,0,0,0,5.15,7.36"/><path class="cls-3" d="M356.51,271a4.72,4.72,0,1,0-2.8-6.06,4.72,4.72,0,0,0,2.8,6.06"/><path class="cls-4" d="M387.3,186.88a6.35,6.35,0,1,0-7.36-5.15,6.35,6.35,0,0,0,7.36,5.15"/><path class="cls-3" d="M367.85,217a4.72,4.72,0,1,0-4.71-4.74,4.73,4.73,0,0,0,4.71,4.74"/><path class="cls-4" d="M368,127.4a6.35,6.35,0,1,0-8.67-2.33A6.36,6.36,0,0,0,368,127.4"/><path class="cls-3" d="M360,162.36a4.72,4.72,0,1,0-6-2.84,4.74,4.74,0,0,0,6,2.84"/><path class="cls-4" d="M329.51,78.1a6.35,6.35,0,1,0-8.95.79,6.35,6.35,0,0,0,8.95-.79"/><path class="cls-3" d="M334,113.68a4.72,4.72,0,1,0-6.65-.6,4.73,4.73,0,0,0,6.65.6"/><path class="cls-4" d="M276.48,44.94a6.35,6.35,0,1,0-8.13,3.8,6.34,6.34,0,0,0,8.13-3.8"/><path class="cls-3" d="M292.85,76.85a4.72,4.72,0,1,0-6.45,1.71,4.73,4.73,0,0,0,6.45-1.71"/><g class="cls-9"><g class="cls-10"><path class="cls-11" d="M382.84,309.12c0-9.67-1.27-18.7-4.12-26.38v0c.94-1.47.84-3.67-1-6.76-7.18-11.89-31.62-19.67-36.14-20.78a12.86,12.86,0,0,0-1.61.15,223.87,223.87,0,0,0-28.25-8.19,64.1,64.1,0,0,0-1.77-11.47,30.1,30.1,0,0,0,11.1-7.52,53.1,53.1,0,0,0,10.72-12.46c10.53-16.69,7.78-34.36,1.63-48.8-.35-3.11-.77-5.72-1.15-7.72,4.86-.48,13.62-3.49,14.36-13.76,1.34-18.7-41.76-57.25-93.86-55.79-25.56.71-38.54,11.16-38.22,22.88a19.15,19.15,0,0,0,4.31,11.24,9.67,9.67,0,0,0,2.59,2.89,40.73,40.73,0,0,0,8.9,6.49l.34,2.82.69,5.71-12.13,13.83c-.55,1.18,2.95,2.69,9.13,4a77.56,77.56,0,0,0-6.8,28.34c-5.72,5.33-9,15.09-8.52,21.2,1.89,22.25,25.75,29.82,33.8,27.53.41.42.86.85,1.33,1.27l-.4.89a8,8,0,0,1-.15-.88,33.78,33.78,0,0,0-3.41,6.76c-9.91,1.54-21.74,4.42-26.12,5.52a42.32,42.32,0,0,0-5.24-2.64c-25.69,8.45-28.52,9.68-35,16.7-2.05,2.24-.73,4.42,1.83,5.34.11.09.23.16.35.24a37.59,37.59,0,0,0-5.88,7.67c-4.46,7.86-4.7,76.25.68,100.45.56,4.31,1.51,7.44,3,9,7.78,8,16.6,11.92,26.28,12.79,1.35,10.21,1.91,20.7-.21,26.39-1.42,3.82,2.37,6.73,8.52,8.93l-.4,13.35,132.52-3-.41-5.81c4.67-.4,7.59-.88,7.86-1.44.88-1.9,1.53-23,2.84-44.12,16.74-21.58,28.18-55.93,28-84.49v-.36M198.32,280.58c0-.57.06-1.28.14-2.08a34.13,34.13,0,0,0,0,3.51v.07h-.15c0-.16,0-.52,0-1a1,1,0,0,0,.07-.15Zm2.54-12.4-.78,1.78-.48,2.13c-.08.26-.16.52-.24.8-.14.48-.25,1-.36,1.47a33.28,33.28,0,0,1,4.7-12.72,37.58,37.58,0,0,0-2.84,6.54"/></g></g><g class="cls-12"><g class="cls-13"><path class="cls-11" d="M209.19,436.56c-4.35-1.77-7-3.83-8.16-6.26a6.51,6.51,0,0,1-.16-5.09c1.11-3,2-9.43.31-23.44a43.5,43.5,0,0,1-25.86-13.28c-1.81-1.86-3-5.11-3.65-10.22-5.2-23.59-5.49-93.06-.41-102a38.09,38.09,0,0,1,4.25-6,5.1,5.1,0,0,1-.23-7.68c7-7.61,10.51-9,36-17.35l.89-.29,2.15,1c1.35.62,2.42,1.12,3.32,1.63,4.89-1.21,15-3.63,24-5.1.45-1.09,1-2.16,1.52-3.21h-.47c-10.57,0-31.06-8.82-32.87-30.08-.53-6.21,2.59-16.33,8.55-22.41a82.37,82.37,0,0,1,5.83-25.67c-6.77-1.72-7.53-3.26-7.92-4a3,3,0,0,1,0-2.59l.14-.3L228,140.89l-.76-6.3a42.54,42.54,0,0,1-8.28-6.22,11.68,11.68,0,0,1-3-3.38,21.22,21.22,0,0,1-4.66-12.43c-.34-12,12.06-24.5,40.5-25.29,1,0,2,0,2.93,0,36.47,0,66.67,18.55,81.46,34.44,8.13,8.74,12.35,17.23,11.87,23.9-.68,9.42-7.48,14.1-14,15.54.28,1.68.52,3.42.72,5.18,8,18.93,7.33,36-1.94,50.65a55.5,55.5,0,0,1-11.08,12.91,32.16,32.16,0,0,1-10,7.2,69.42,69.42,0,0,1,1.22,8.17,225.7,225.7,0,0,1,26.31,7.71,12.51,12.51,0,0,1,1.3-.1H341l.31.07c6.05,1.49,30.17,9.57,37.58,21.85,2.23,3.69,2.22,6.33,1.57,8.09,2.62,7.44,3.95,16.3,3.93,26.29v.33c.17,29-11.08,63.15-28.06,85.37-.44,7.17-.8,14.34-1.13,20.69-.89,17.48-1.2,22.07-1.88,23.56s-1.9,2-7.48,2.57l.42,6-137.46,3.08Z"/></g></g><polyline class="cls-14" points="334.07 292.36 337.97 293.67 366.54 273.88 327.15 256.7"/><path class="cls-14" d="M306.13,250.54l4.61-3.89s6.76,1.88,8.13,2.76,19.59,9.33,19.59,9.33l-16.67,8"/><path class="cls-14" d="M200,372.33s10,40.26,5,53.7,54.6,15.64,54.6,15.64,91.95-.28,93.48-3.58,2.38-64.61,7.19-83.27"/><polyline class="cls-14" points="185.53 283.55 215.16 376.14 213.02 448.31 345.54 445.34 340.65 376.14 336.72 258.32 287.5 257.38 279.36 252.11 254.91 251.62 215.16 255.92 205.52 260.36 204.7 261.64 201.08 269.96 199.67 276.19 199.44 282.08"/><path class="cls-5" d="M265.49,393.77l-.17-16.52-.11-16.51-.07-33,.15-33c0-11,.16-22,.08-33h.34q-.06,21.93,0,43.86l.16,43.85.22,43.86q.09,11,.29,21.92c.18,7.31.27,14.62.72,21.91H267c-.58-7.29-.88-14.6-1.1-21.91s-.39-14.61-.53-21.92c-.31-14.62-.41-29.24-.47-43.86s0-29.24.07-43.86l.36-43.86h.34c-.09,11,.05,22,.08,33l.15,33-.08,33-.1,16.51-.18,16.52Z"/><path class="cls-3" d="M250.37,235c2.09-.92,13.29-2.71,24.42-2.27S271,253,271,253l-19.84.74L246.38,244"/><g class="cls-15"><g class="cls-16"><path class="cls-5" d="M379.72,283.93a26.87,26.87,0,0,0-6.71-9.85h0c-16.48-15.95-12.22,12.64-12.22,12.64L338,294.29l0,0c-2.27,3.21-6.56,6.46-8,9.49h0a46.87,46.87,0,0,0-3.73,10.48c-.11.57-.29,1.25-.51,2l-1.68,4.95-3.41,8.89a271.4,271.4,0,0,0-8.95,25.68l0,.06,0,.06a85.48,85.48,0,0,0-2,9.2h0c-.86-.53-1.74-1-2.65-1.54l.53.53c-11.91-5.32-40.06-13.33-49.18-16.72,1.53-4.36-13.5-7.76-18.58-9.2-5.25-1.5-6.33-3.84-17,5.94a26.32,26.32,0,0,0-5.18,6.14c-3.42-9.91-7.83-19.24-2.83-23.14a129.25,129.25,0,0,1-9.17-19.63c-3.39-9.78-9.59-20.26-6.2-26.64l-2-10.52s-22.07,5.78-21.31,14.35c3.26,36.64-5.65,93.55,2.72,102.13,19.46,19.93,45.33,14.77,75.12-1,20.75,15,51.41,34.07,74.82,28.26,0,.11,0,.18,0,.18l.65-.33c1-.27,1.95-.57,2.91-.93,35.11-13.13,62.16-89.3,47.38-129.12"/></g></g><g class="cls-17"><g class="cls-18"><path class="cls-19" d="M252.1,345.21c7.41,0,48.19,6.23,62.09-8.44s16.22-28,16.68-33.78,10.2,26.67,8.8,39.56-23.16,31.55-33.35,30.66-36.15-12-45.42-16.89"/></g></g><path class="cls-20" d="M261.49,374.33c7.36-3.64,14.88-6.42,19.65-2.69,7.11,5.57,20.25-2.1,25.89-7.14,1.89-1.68,2.27-2.7,3.52-3.89,2.47-2.36,4.61-7.13,4.82-11.34.16-3.25-2-5.45-5.42-6.64-8.19-2.84-14.65-.6-19.23-.34-8.63.48-13.38,9-13.38,9s-10.58,1.75-23.78,2.64"/><path class="cls-21" d="M204.7,261.64c-5.3,7.85-5.44,19.32-5.41,20.44.2,6.73,3.12,16.41,6,24.8a142.47,142.47,0,0,0,9.42,20.28c-6.74,5.25,1.91,19,6.54,32.41,2.49,7.25,19,6.1,34.47,3.28l-3.11,6.89,10.52,9.82c-33.67,19.56-62.9,28.05-84.33,6.1-8.37-8.58-8.87-99.14-3.7-108.24,11.07-19.54,42.18-26.88,42.18-26.88"/><g class="cls-22"><polygon class="cls-23" points="251.3 258.84 273.38 258.01 278.63 386.53 256.55 387.36 251.3 258.84"/></g><path class="cls-23" d="M273.55,262.22c-1,1.75-2.15,5.75-3.36,7-.48.51-2.59.72-3.34.76l-5.29.24a3,3,0,0,1-2.27-.91c-3.46-3.59-4.66-4.07-5-5.45-.23-.87-1.26-7.8-1.26-7.8.81-1.32.28-2.45,2-2.61l10.15-.33c1.43-.15,6.82-.42,7.92.4,1.8,1.35,1.34,7.21.53,8.65"/><polyline class="cls-20" points="247.97 251.05 250.59 226.31 306.15 216.64 310.74 254.57"/><path class="cls-5" d="M216,329.2a73.6,73.6,0,0,1-5-8.68c-1.48-3-2.87-6-4.12-9.1s-2.38-6.22-3.41-9.38-2-6.36-2.74-9.61a58.69,58.69,0,0,1-1.53-9.88,28.67,28.67,0,0,1,1-10,59.63,59.63,0,0,1,3.48-9.37,16,16,0,0,1,2.78-4.17,7.54,7.54,0,0,1,2-1.46,4.8,4.8,0,0,0,1-.67,2.8,2.8,0,0,0,.69-1h0a3,3,0,0,1-.66,1.07,5.33,5.33,0,0,1-1,.73,7.85,7.85,0,0,0-1.95,1.48,15.7,15.7,0,0,0-2.64,4.16,70,70,0,0,0-3.33,9.37,29.64,29.64,0,0,0-1,9.8,60.76,60.76,0,0,0,1.35,9.85,101.63,101.63,0,0,0,6.25,18.9c1.3,3.06,2.64,6.1,4.09,9.09.72,1.5,1.45,3,2.22,4.46s1.53,2.95,2.45,4.34Z"/><path class="cls-20" d="M232.09,336.12c-6.79-5.38-17.68-10.64-27.41-8.46s-12.28,10.64-12.05,16.42-2.1,8.05,0,8.89a9.76,9.76,0,0,0,3.51.79l9.77.61s8.8.46,12.16-.61"/><g class="cls-24"><g class="cls-25"><path class="cls-5" d="M208.7,354.55c-2.63,0-5.26-.18-7.88-.33a33.68,33.68,0,0,0-7.78.13,17.42,17.42,0,0,0-6.9,3.23c-2.14,1.46-4.09,3.21-6.14,4.87l-.06-.07a37.09,37.09,0,0,1,5.66-5.54,15.5,15.5,0,0,1,7.32-3.2,33.88,33.88,0,0,1,7.93.13c2.62.27,5.23.53,7.85.69Z"/></g></g><g class="cls-15"><g class="cls-26"><path class="cls-5" d="M379.72,283.81A26.87,26.87,0,0,0,373,274h0c-16.48-15.95-12,10.72-12,10.72l-23,9.49,0,0c-2.27,3.21-6.56,6.46-8,9.49h0a46.87,46.87,0,0,0-3.73,10.48c-.11.57-.29,1.25-.51,2l-1.68,4.95L320.64,330a271.4,271.4,0,0,0-8.95,25.68l0,.06,0,.06a85,85,0,0,0-2,9.2h0c-.86-.52-1.74-1-2.65-1.53l.53.53c-11.91-5.32-40.06-13.33-49.18-16.72,1.53-4.36-13.5-7.76-18.58-9.21-5.25-1.49-6.33-3.83-17,5.94s-6.18,15-3.39,19.56,16.06,10.82,19.52,10.84c17.5,13.27,59.72,47.07,89.89,39.58,0,.11,0,.18,0,.18l.65-.33c1-.27,1.95-.57,2.91-.93,35.11-13.13,62.16-89.31,47.38-129.12"/></g></g><path class="cls-27" d="M238.89,373.36c-3.47,0-16.75-6.25-19.54-10.84s-7.25-9.78,3.4-19.56,11.74-7.43,17-5.93,21.14,5.07,18.37,9.65"/><g class="cls-24"><g class="cls-28"><path class="cls-5" d="M237.67,372.45C226.61,365.34,257,336.59,257,345.93"/></g></g><path class="cls-14" d="M340.29,407.21a31,31,0,0,0-8.72-5c-4.3-1.47-2.79,10.89-2.79,10.89"/><g class="cls-29"><g class="cls-30"><path class="cls-14" d="M350.53,327.66c-8.79-7.5-13.68-10.51-19.75-15.18"/><path class="cls-31" d="M350.47,327.73c-1.68-1.23-3.33-2.48-5-3.68s-3.36-2.42-5.07-3.59-3.52-2.2-5.13-3.53a30.14,30.14,0,0,1-4.52-4.38l.11-.14a41.59,41.59,0,0,1,5.48,3,53.43,53.43,0,0,1,4.93,3.84c1.61,1.32,3.2,2.66,4.77,4s3.09,2.8,4.58,4.25Z"/></g></g><path class="cls-21" d="M309.63,364l2-9.26L317.55,337l6.5-17L330,302.63l7.12-10.27,2.72-3.09,3.53-3.72,5.74-4.42L352.9,279l5-2.27-10.74-8.87-3.76-2.25,8.33-6c12.7,5.74,24.43,13.45,28,23.15,14.78,39.82-12.27,116-47.38,129.12-31.47,11.77-78.77-27.56-95.46-40,1.39-22.89,19.59-26.36,19.59-26.36,6.6,2.95,42.12,12.79,53.16,18.46"/><g class="cls-32"><g class="cls-33"><path class="cls-5" d="M334.37,389.88a155.37,155.37,0,0,0-12.26-15.24,76.73,76.73,0,0,0-7.23-6.5,93.59,93.59,0,0,0-7.93-5.69l0-.07a45.8,45.8,0,0,1,8.45,5,51.58,51.58,0,0,1,7.2,6.73,138,138,0,0,1,11.81,15.68Z"/></g></g><path class="cls-27" d="M309.63,364c2.71-17.71,15.09-43,16.61-50.84,2-10.31,18.36-39.93,46.77-40.23"/><path class="cls-14" d="M217.31,250.54s17.13-4.47,29.82-6.25,0,24.56,0,24.56l-39.94-1.51"/><path class="cls-4" d="M263.22,251.94s-3.21.05-18.73,15.31a33.93,33.93,0,0,1,4.33-28.17s1,10.56,14.4,12.86"/><path class="cls-21" d="M263.22,251.94s-2.8-1.93-18.32,13.33c0,0-5.62-13.1,3.68-27.45,0,0,1.25,11.82,14.64,14.12"/><path class="cls-14" d="M312.17,247s-5.43-1.15-8-1.62-2.72,14-2.72,14l19.21,8,3.13-9.27"/><path class="cls-4" d="M260.06,252.59s2.72-.62,35.32,13.63c0,0,17.36-7.77,17.49-11.58a64.53,64.53,0,0,0-2.21-18.24s-22,13.88-50.6,16.19"/><path class="cls-27" d="M260.06,252.59s2.1-.19,35.24,11.73c0,0,17.36-7.77,17.5-11.58a64.17,64.17,0,0,0-2.22-18.24s-21.9,15.78-50.52,18.09"/><g class="cls-15"><g class="cls-34"><path class="cls-23" d="M263.87,398.22a2.46,2.46,0,0,0-2.08-2.84,2.54,2.54,0,0,0-2.92,2.05,2.47,2.47,0,0,0,2.08,2.84,2.56,2.56,0,0,0,2.92-2"/><path class="cls-19" d="M263.83,398.21a2.1,2.1,0,0,0-.49-1.8,2.46,2.46,0,0,0-1.59-.81,2.35,2.35,0,0,0-1.68.45,2.15,2.15,0,0,0-.84,1.42,2.17,2.17,0,0,0,1.78,2.35,2.68,2.68,0,0,0,1.69-.19,2,2,0,0,0,1.13-1.42m.09,0A3,3,0,0,1,263,400a2.67,2.67,0,0,1-2.06.69,2.79,2.79,0,0,1-2-1.16,2.83,2.83,0,0,1,2.84-4.41,2.61,2.61,0,0,1,1.7,1.15,2.79,2.79,0,0,1,.42,1.92"/></g></g><g class="cls-15"><g class="cls-35"><path class="cls-23" d="M263.86,420.46a2.55,2.55,0,0,0-3-1.95,2.45,2.45,0,0,0-2,2.9,2.56,2.56,0,0,0,3,2,2.48,2.48,0,0,0,2-2.91"/><path class="cls-19" d="M263.81,420.47a2.16,2.16,0,0,0-1.09-1.51,2.5,2.5,0,0,0-1.79-.23,2.24,2.24,0,0,0-1.42,1,2.1,2.1,0,0,0-.28,1.63,2.26,2.26,0,0,0,2.54,1.59,2.64,2.64,0,0,0,1.5-.72,2,2,0,0,0,.54-1.73m.09,0a3,3,0,0,1-.23,2,2.64,2.64,0,0,1-1.74,1.34,2.84,2.84,0,0,1-2.21-.46,3,3,0,0,1-1.2-1.88,2.76,2.76,0,0,1,2.33-3.2,2.62,2.62,0,0,1,2,.52,2.9,2.9,0,0,1,1.08,1.65"/></g></g><path class="cls-5" d="M368.38,275.32A38.49,38.49,0,0,0,353.27,279a37.75,37.75,0,0,0-6.73,4,42.59,42.59,0,0,0-5.8,5.27,64.51,64.51,0,0,0-9,12.76,58.71,58.71,0,0,0-5.83,14.51h0A39.6,39.6,0,0,1,328,308a59.82,59.82,0,0,1,12.56-19.87,52.09,52.09,0,0,1,5.89-5.22,40.37,40.37,0,0,1,6.66-4.2,33.17,33.17,0,0,1,15.27-3.4Z"/><path class="cls-14" d="M339.39,263.36,312,247a217.6,217.6,0,0,1,35.1,10.73"/><g class="cls-36"><g class="cls-37"><path class="cls-5" d="M221.37,311.25q3.13-.37,6.28-.55c2.09-.13,4.19-.22,6.29-.24s4.21,0,6.31.06,4.2.24,6.29.52l.28,0-.07.27a20.29,20.29,0,0,0-.56,4.49c0,1.52,0,3.05.07,4.57.15,3.06.4,6.1.46,9.17v.18l-.18,0c-2.1.36-4.21.59-6.32.76s-4.24.25-6.37.25a52.31,52.31,0,0,1-6.37-.35,25.33,25.33,0,0,1-6.26-1.47l-.17-.07-.05-.18c-.35-1.44-.63-2.9-.85-4.36a36.62,36.62,0,0,1-.39-4.43,19.33,19.33,0,0,1,1.57-8.67v0Zm0,.07a15.45,15.45,0,0,0-1,4.23,25.51,25.51,0,0,0-.1,4.37,43.51,43.51,0,0,0,1.45,8.62l-.22-.25a24.71,24.71,0,0,0,6.06,1.38q3.13.34,6.29.4c2.1,0,4.21,0,6.32-.13s4.21-.27,6.29-.56l-.17.2c.05-3.05-.14-6.1-.27-9.16-.09-1.52-.15-3.05-.15-4.59a19.42,19.42,0,0,1,.39-4.61l.21.31c-2.09-.18-4.17-.28-6.26-.36s-4.19-.12-6.28-.11q-6.27,0-12.55.26"/></g></g><path class="cls-23" d="M223,255.52s-21.86,4.82-32,13.07c-6.2,5-15,.29-10.69-3.89,6.87-6.65,9.77-7.72,35.92-14.74,4.49,2.41,6.31,3.13,6.8,5.56"/><path class="cls-23" d="M328.8,262a14.48,14.48,0,0,1,2.73-3.27c4.58.85,37.49,6.37,45.38,17.84S366,287.87,361.11,282s-14.69-14.54-32.31-20"/><path class="cls-8" d="M331.53,258.74s6.15-3.45,11-3.56c4.52,1.11,29,8.89,36.14,20.78s-11.58,10.67-16.1,4.56-13.79-15.34-31.05-21.78"/><path class="cls-8" d="M220.93,252.64s-21.54,6-31.2,14.82c-5.88,5.35-14.95,1.11-10.9-3.3,6.46-7,9.28-8.25,35-16.7,4.62,2.17,6.48,2.79,7.12,5.18"/><path class="cls-5" d="M245.84,306.88s1.57,1,.06,1.84c-5.28,0-15.26.39-23.52.6-1.16-.38-2.2-1.31,1.16-1.87,5.87-.24,15.39-.57,22.3-.57"/><path class="cls-5" d="M245.84,303.82s1.57,1,.06,1.85c-5.28.06-15.26.39-23.52.61-1.16-.39-2.2-1.32,1.16-1.88,5.87-.24,15.39-.57,22.3-.58"/><g class="cls-36"><g class="cls-38"><path class="cls-5" d="M284.57,310.69q3.3-.39,6.62-.58c2.21-.14,4.42-.24,6.63-.27s4.43,0,6.65.07,4.43.26,6.63.56l.29,0-.07.28a23.17,23.17,0,0,0-.58,4.94c-.05,1.67,0,3.35.06,5,.15,3.35.42,6.7.48,10.07V331l-.19,0c-2.2.39-4.43.64-6.66.83s-4.47.27-6.71.26a54,54,0,0,1-6.72-.38,25.64,25.64,0,0,1-6.58-1.61l-.18-.07-.05-.19c-.38-1.58-.67-3.18-.9-4.79a41.56,41.56,0,0,1-.41-4.85,22,22,0,0,1,1.65-9.53v0Zm0,.07a17.82,17.82,0,0,0-1.07,4.66,28.49,28.49,0,0,0-.1,4.8A50,50,0,0,0,285,329.7l-.22-.27a24.46,24.46,0,0,0,6.38,1.52,63.62,63.62,0,0,0,6.63.44c2.22,0,4.44,0,6.66-.14s4.44-.31,6.64-.63l-.18.21c.05-3.35-.14-6.71-.29-10.06-.09-1.68-.15-3.36-.16-5a23.45,23.45,0,0,1,.41-5.07l.22.32q-3.29-.28-6.6-.4c-2.2-.07-4.4-.13-6.61-.13s-4.42,0-6.63.09-4.4.12-6.6.22"/></g></g><polyline class="cls-5" points="283.68 314.98 284.58 310.97 296.38 310.14 311.07 310.97 310.8 315.26 310.62 316.2 309.88 315.8 304.01 315.49 301.45 315.87 296.36 317.65 289.75 315.47 287.6 315.26 284.12 315.26"/><polyline class="cls-5" points="220.31 315.6 221.16 311.72 232.32 310.93 246.21 311.72 245.95 315.87 245.78 316.78 245.08 316.39 239.53 316.09 238.06 316.31 232.3 318.17 225.37 316 224.01 315.87 220.73 315.87"/><path class="cls-39" d="M294.07,285.05a3.88,3.88,0,0,0-.36.15,1,1,0,0,0,.43,1c.5-.37,1.14-1.44,3.84-.71a1.48,1.48,0,0,1,0,1.5c-4.34.16-7,1.87-8.14,4a1.9,1.9,0,0,0,1.3,2.9H291s1.6.42,1.6.07h0c-.83,12.72,6.37,9.61,6.25,12.62.12-3,7,1.16,7.46-12.81l-.14,0c-.06,1.74-.13,1.17-.15,1.5.43-.22,2.48-1.45,1.57-3.58,0-.06-.08-.37-.11-.37h.17s-.1.29-.24.27c-.45-.95-1-.64-2-1.49l.25,1.21s0,0-.05,0a7.4,7.4,0,0,0-6-3.25c-.46-.92-.81-2-.53-2.55a5.89,5.89,0,0,0-4.87-.27"/><path class="cls-40" d="M297.76,307.11c.12-3,7.31,0,7.76-12.54-.75-1.55-3-2.77-7.21-2.91s-6.53.93-7.39,2.44c-.44,12.5,7,10,6.84,13"/><path class="cls-41" d="M307.07,292a9.21,9.21,0,0,0-8.51-5.42h-.18c-4.86-.16-7.71,2.3-8.9,4.59s1.42,3.47,1.42,3.47h0s0-.45,0-.82c.86-1.5,3.17-2.44,7.39-2.3s6.45,1.42,7.2,3c0,.35,0,.71-.06,1,.43-.22,2.53-1.41,1.61-3.54"/><path class="cls-41" d="M297.31,287.3a2,2,0,0,0,1.78,0c-.56-1.14-.9-1.75-.58-2.33-1.34-.87-3.63-.54-5.25.19,0,.3,0,.79.42,1,.51-.36,1.15-1.43,3.85-.7a1.69,1.69,0,0,1-.22,1.85"/><path class="cls-40" d="M289.75,291.37a3.53,3.53,0,0,1,1.79.15,2.65,2.65,0,0,1,1.46,1h0a11,11,0,0,0-1.5-.89,3.75,3.75,0,0,0-1.72-.29Z"/><path class="cls-40" d="M292.34,288.68a6,6,0,0,1,2.47.95,4.28,4.28,0,0,1,1,.89,3.57,3.57,0,0,1,.64,1.18h0a7.61,7.61,0,0,0-1.73-1.93,6.37,6.37,0,0,0-2.37-1.07Z"/><path class="cls-40" d="M297.07,287.09a5,5,0,0,1,2.69,1.67,3.16,3.16,0,0,1,.7,1.46,3.5,3.5,0,0,1-.08,1.61h0a4.52,4.52,0,0,0-.73-3,5.3,5.3,0,0,0-2.57-1.75Z"/><path class="cls-40" d="M304.33,288.88a6.3,6.3,0,0,1,1,2.36,3.84,3.84,0,0,1,0,1.31,2.79,2.79,0,0,1-.51,1.2l0,0a4.82,4.82,0,0,0,.31-2.46,6.57,6.57,0,0,0-.86-2.37Z"/><path class="cls-40" d="M307.15,292a3.66,3.66,0,0,0-1.74.18,11.54,11.54,0,0,0-1.57.79v0a2.65,2.65,0,0,1,1.53-.94,3.62,3.62,0,0,1,1.79,0Z"/><path class="cls-40" d="M304.76,289.11a6.49,6.49,0,0,0-2.45.91,7.44,7.44,0,0,0-1.85,1.82h0a3.76,3.76,0,0,1,.71-1.14,5,5,0,0,1,1.07-.82,6,6,0,0,1,2.54-.78Z"/><path class="cls-40" d="M300.17,287.21a5.27,5.27,0,0,0-2.69,1.58,4.48,4.48,0,0,0-.94,2.91h0a3.65,3.65,0,0,1,0-1.61,3.51,3.51,0,0,1,.8-1.42,5.24,5.24,0,0,1,2.81-1.48Z"/><path class="cls-40" d="M292.81,288.52a6.48,6.48,0,0,0-1,2.31,4.87,4.87,0,0,0,.13,2.48h0a2.86,2.86,0,0,1-.42-1.23,3.56,3.56,0,0,1,.14-1.3,6.06,6.06,0,0,1,1.18-2.28Z"/><path class="cls-39" d="M293.26,285.29c.07-.09.2,0,.24.09a1.16,1.16,0,0,1,.14.24,1.47,1.47,0,0,1,.08.55c-.08-.17-.1-.35-.18-.51a1.73,1.73,0,0,0-.1-.24c-.05-.06-.1-.17-.18-.13"/><g class="cls-42"><g class="cls-43"><path class="cls-44" d="M297.93,305.05c-.8-2.65-1.89-9.95-1.3-12.08s-1.23-3.25-.32-5-7.19,2.86-5.11,5.71,1.64,4.05,1.64,4.65a7.1,7.1,0,0,0,5.09,6.76"/></g></g><g class="cls-15"><g class="cls-45"><path class="cls-23" d="M297.36,313.89a1.51,1.51,0,0,0-1.75-1.14,1.45,1.45,0,0,0-1.17,1.69,1.5,1.5,0,0,0,1.75,1.15,1.46,1.46,0,0,0,1.17-1.7"/><path class="cls-19" d="M297.33,313.9a1.28,1.28,0,0,0-.64-.89,1.49,1.49,0,0,0-1.05-.13,1.27,1.27,0,0,0-1,1.52,1.34,1.34,0,0,0,1.48.93,1.54,1.54,0,0,0,.88-.42,1.16,1.16,0,0,0,.32-1m.05,0a1.69,1.69,0,0,1-.14,1.18,1.49,1.49,0,0,1-1,.78,1.68,1.68,0,0,1-2-1.36,1.61,1.61,0,0,1,1.36-1.87,1.64,1.64,0,0,1,1.78,1.27"/></g></g><g class="cls-15"><g class="cls-46"><path class="cls-23" d="M234.34,313.89a1.5,1.5,0,0,0-1.75-1.14,1.44,1.44,0,0,0-1.16,1.69,1.49,1.49,0,0,0,1.75,1.15,1.45,1.45,0,0,0,1.16-1.7"/><path class="cls-19" d="M234.31,313.9a1.26,1.26,0,0,0-.64-.89,1.45,1.45,0,0,0-1-.13,1.26,1.26,0,0,0-1,1.52,1.32,1.32,0,0,0,1.48.93,1.55,1.55,0,0,0,.87-.42,1.16,1.16,0,0,0,.32-1m.05,0a1.75,1.75,0,0,1-.13,1.18,1.53,1.53,0,0,1-1,.78,1.69,1.69,0,0,1-2-1.36,1.61,1.61,0,0,1,1.36-1.87,1.64,1.64,0,0,1,1.78,1.27"/></g></g><path class="cls-47" d="M235.85,131.09c6.6-1,11.12,8.72,13.36,16.76,0,0-7.82,18.62-12.12,5.71s-2-22.34-1.24-22.47"/><path class="cls-20" d="M222.52,187.86S223,141.05,263,130.38c28.42-7.58,46.34-1.07,56.54,12s31.25,44.64,13.18,73.27c-27.48,43.51-82.08,13-82.08,13Z"/><path class="cls-48" d="M243.63,191.81s8-17.66,2-32.35c-4.49-10.88-11.43-5.65-15.1,1.29-5.08,9.6-6.24,25.12-6.24,25.12Z"/><path class="cls-48" d="M258.75,191.06c-.93-8.2-.84-26.63,8.09-34.59,8.09-7.22,23.72-10.12,32.45-4.37,16.11,10.63,14,23.62,15.08,26.73,3.38,9.84-36.17,21.63-36.17,21.63s-18.72-3-19.45-9.4"/><path class="cls-48" d="M296.3,174.65c-11.2,1-24.46,7.9-29.93,16.28-2,.66-.31.49-2.55,1.5l-18.12,1.74s-8.6-12.75-18.06-9.54c-8.77,3-14.31,16.62-13.65,24.37,1.9,22.26,25.76,29.83,33.81,27.54,5,5.16,14.34,10.38,21.86,8.08,3.65-1.11,15.22-3.65,20.18-6.86,1.37-.89-.81-.73,1.48-.13s6.67.47,10.36.16c18.65-1.59,30.12-17.27,28.64-34.71s-15.38-30-34-28.43"/><path class="cls-49" d="M293.15,170.9c2.71,13.17-16.66,22.75-25.67,9.91-3.3-6.05-1.15-13.17,9.23-15.8,6.8-1.72,15.16.7,16.44,5.89"/><path class="cls-50" d="M269.62,172.76a8.62,8.62,0,0,0,4.69,12.65,10.82,10.82,0,0,0,13.28-6c2-5,1-10.32-4.34-12a12,12,0,0,0-13.63,5.34"/><path class="cls-20" d="M297.52,170.05c-1.88,2.64-14.94-5.74-30.54,2.84-1.55.85-2.63-5.23-1.39-6.5,4.56-4.31,13.22-8.46,23.15-8.06,8.47.35,10.38,9.47,8.78,11.72"/><path class="cls-51" d="M273.24,179.44a2,2,0,1,0,2.6-1.24,2,2,0,0,0-2.6,1.24"/><path class="cls-52" d="M284.55,170.14c-.42.38.61,1.73,1,2.15a1,1,0,0,0,1.46.08c.41-.39.12-.93-.26-1.35s-1.77-1.27-2.19-.88"/><g class="cls-53"><g class="cls-54"><path class="cls-55" d="M258.49,207.05c.77,9-3.67,17.23-13.44,18.07s-19.74-4.24-20.5-13.22,7.11-16.64,16.88-17.47,16.3,3.65,17.06,12.62"/></g></g><g class="cls-53"><g class="cls-56"><path class="cls-55" d="M289.62,207.67c.89,10.44-4.67,20.07-16.78,21.11S248.39,224,247.5,213.54s8.93-19.41,21.05-20.45,20.18,4.14,21.07,14.58"/></g></g><polyline class="cls-52" points="250.3 218.54 243.48 216.97 244.16 220.76 245.5 228.33 249.97 228.59 253.66 228.8"/><polyline class="cls-52" points="250.81 228.64 255.33 228.89 255.61 219.78 250.91 219.07"/><polyline class="cls-51" points="250.91 219.07 256.2 218.7 255.42 226.04 250.75 225.52"/><polyline class="cls-51" points="250.75 225.52 244.91 224.87 243.86 219.56 251.81 219.17"/><path class="cls-57" d="M258,207.37c.78,9.2-3.52,16.14-13.69,17s-19-5.88-19.82-15.07,4.18-17.22,14.34-18.08A17.8,17.8,0,0,1,258,207.37"/><path class="cls-57" d="M288.24,205.42c.94,11-6.13,21.34-18.11,22.36-10.33.88-25.7-4.78-23.88-17.18,2-13.78,7.07-19.81,19-20.83s22,4.65,22.95,15.65"/><path class="cls-47" d="M261.63,191.88c3.61,4.54-6.43,14.44-9,14.66,0,0-5.78,1-11.89-6.5-4.61-5.62,2.24-10,7.13-11s13.54.08,13.78,2.89"/><path class="cls-49" d="M232.23,170.69c-3.85,11.37,2.15,22.5,8.79,12.08,2.69-5,3-10.41-1.06-14.93-2.52-2.79-6.12-1.61-7.73,2.85"/><path class="cls-50" d="M242.1,175.94c-.28,4.4-2.82,8.81-5.68,9.86s-5-1.66-4.69-6.05,2.82-8.8,5.69-9.85,5,1.65,4.68,6"/><path class="cls-20" d="M230.69,170.74s7.21-2.4,12.26,3c0,0,2.08-9.2-7.84-11.56-4.33-1-4.42,8.56-4.42,8.56"/><path class="cls-51" d="M235.86,179.22a1.6,1.6,0,1,0,2-1,1.6,1.6,0,0,0-2,1"/><path class="cls-52" d="M236.24,172.6c.39.37-.54,1.71-.89,2.13a.89.89,0,0,1-1.32.1c-.38-.37-.12-.91.23-1.33s1.61-1.27,2-.9"/><path class="cls-23" d="M233.39,140.42l-13.2,15.06c-2.14,4.57,56.52,14.11,97.32-2.71l-42-25.87"/><path class="cls-23" d="M330.07,159c1.05.95,16.51.24,17.5-13.55,1.34-18.71-41.76-57.24-93.86-55.79-25.57.71-38.54,11.16-38.22,22.88s12.56,19,16.68,21.09l39.72-3.65,51.2,23.27"/><g class="cls-29"><g class="cls-58"><path class="cls-19" d="M259.19,153.61c20.87-.77,25.67-9.86,22.28-13.29,0,0,15.39-2.85,25,6.59s-28,10.22-47.29,6.7"/></g></g><g class="cls-29"><g class="cls-59"><path class="cls-19" d="M329.67,156c30.1,3,10.16-28.88,4.9-32.7,20,17.23,8,46.44-4.65,20.52S285.57,112.11,281.74,113c21.22,1.39,27.29,21.56,26.08,22.69"/></g></g><g class="cls-29"><g class="cls-60"><path class="cls-19" d="M239.72,125.63c-15.8.72-13.18-14-10.65-17-14.88,4.2-11.92,9.29-9.27,15.15,1.53,3.36,11.16,8.45,12.34,8.81"/></g></g><path class="cls-8" d="M230.81,129.21c48.09-29.17,95.46,19.49,101.4,25.4a86.4,86.4,0,0,1,2.15,12.29c-32-29.69-82.11-30.84-101.94-24.41Z"/><path class="cls-23" d="M333.5,160.78a138.71,138.71,0,0,0-11-8.47c-3.78-2.65-7.68-5.15-11.69-7.45a126.29,126.29,0,0,0-25.23-11.32,82.38,82.38,0,0,0-27.23-4.14,64.15,64.15,0,0,0-26.71,6.54,60.88,60.88,0,0,1,12.91-5.1,64.18,64.18,0,0,1,13.78-2.06,81.47,81.47,0,0,1,27.49,4,123,123,0,0,1,25.3,11.56,138.4,138.4,0,0,1,22.39,16.45"/><path class="cls-39" d="M248.74,114.48l-.43.18c0,.37,0,1,.51,1.2.59-.45,1.35-1.77,4.55-.87a1.92,1.92,0,0,1,0,1.85c-5.13.2-8.31,2.31-9.63,5a2.36,2.36,0,0,0,1.54,3.58l.71,0s2.75.52,2.75.09h0c-3.32,15.69,6.66,11.86,6.53,15.57.13-3.72,7.8,1.42,8.4-15.81l-.39.05c-.07,2.15-.26,1.44-.28,1.85.5-.27,2.88-2.08,1.79-4.7,0-.08-.14-.76-.18-.76h.2s-.11.65-.27.63c-.55-1.17-1.14-.64-2.36-1.69l.3,1.57s0,.08-.06.09a8.61,8.61,0,0,0-7.1-4c-.55-1.14-1-2.5-.63-3.13a6.71,6.71,0,0,0-5.77-.33"/><path class="cls-40" d="M253.11,141.69c.14-3.73,8.65,0,9.17-15.46-.88-1.92-3.53-3.43-8.52-3.6s-7.74,1.16-8.74,3c-.53,15.43,8.23,12.32,8.09,16"/><path class="cls-41" d="M264.12,123.07a10.91,10.91,0,0,0-10.07-6.69h-.21a11.1,11.1,0,0,0-10.53,6.22c-1.4,2.83,1.68,4.84,1.68,4.84h0s0-1.1,0-1.56c1-1.85,3.75-3.3,8.74-3.13s7.64,1.62,8.52,3.54c0,.44,0,.81-.06,1.22.51-.28,3-1.82,1.9-4.44"/><path class="cls-41" d="M252.57,117.25a2.25,2.25,0,0,0,2.12,0c-.67-1.41-1.08-2.17-.7-2.88-1.58-1.07-4.29-.67-6.21.24a1.18,1.18,0,0,0,.5,1.19c.6-.45,1.36-1.77,4.55-.87a2.15,2.15,0,0,1-.26,2.28"/><path class="cls-40" d="M243.63,122.27a4.18,4.18,0,0,1,2.13.2,3.19,3.19,0,0,1,1.72,1.28h0c-.3-.2-.58-.41-.88-.59a6.55,6.55,0,0,0-.9-.51,4.31,4.31,0,0,0-2-.36Z"/><path class="cls-40" d="M246.69,119a7,7,0,0,1,3,1.19,5.34,5.34,0,0,1,1.18,1.1,4.53,4.53,0,0,1,.74,1.43h0a9,9,0,0,0-2-2.37,7.23,7.23,0,0,0-2.83-1.33Z"/><path class="cls-40" d="M252.28,117a6,6,0,0,1,3.23,2.09,4.32,4.32,0,0,1,.81,1.8,4.79,4.79,0,0,1-.11,2h0a5.68,5.68,0,0,0-.84-3.62,6.19,6.19,0,0,0-3.06-2.2Z"/><path class="cls-40" d="M260.88,119.21a7.94,7.94,0,0,1,1.21,2.92,4.76,4.76,0,0,1,.05,1.6,3.57,3.57,0,0,1-.6,1.48l0,0a6.1,6.1,0,0,0,.37-1.5,6,6,0,0,0,0-1.53,8.32,8.32,0,0,0-1-2.93Z"/><path class="cls-40" d="M264.21,123a4.48,4.48,0,0,0-2.06.22,7.26,7.26,0,0,0-.93.45c-.31.16-.6.35-.91.53l0,0a3.17,3.17,0,0,1,1.8-1.16,4.16,4.16,0,0,1,2.13,0Z"/><path class="cls-40" d="M261.39,119.49a7.39,7.39,0,0,0-2.92,1.13,9.38,9.38,0,0,0-2.17,2.23h0a4.75,4.75,0,0,1,.83-1.38,5.54,5.54,0,0,1,1.26-1,7,7,0,0,1,3-1Z"/><path class="cls-40" d="M256,117.15a6.13,6.13,0,0,0-3.21,2,5.78,5.78,0,0,0-1.09,3.56h0a4.63,4.63,0,0,1,0-2,4.32,4.32,0,0,1,.93-1.74,6.05,6.05,0,0,1,3.36-1.87Z"/><path class="cls-40" d="M247.25,118.76a8.23,8.23,0,0,0-1.22,2.86,6,6,0,0,0-.11,1.53,5.79,5.79,0,0,0,.27,1.52h0a3.64,3.64,0,0,1-.5-1.52,4.73,4.73,0,0,1,.16-1.59,7.8,7.8,0,0,1,1.41-2.82Z"/><path class="cls-39" d="M247.78,114.78c.09-.12.24,0,.29.11a1.78,1.78,0,0,1,.17.3,1.9,1.9,0,0,1,.08.67c-.09-.21-.12-.43-.21-.62a1.34,1.34,0,0,0-.12-.3c-.05-.07-.11-.22-.21-.16"/><g class="cls-42"><g class="cls-61"><path class="cls-44" d="M253.21,139.26c-1-3.37-2.31-12.67-1.59-15.38s-1.5-4.13-.39-6.42-8.79,3.65-6.24,7.28,2,5.15,2,5.91a9,9,0,0,0,6.21,8.61"/></g></g><path class="cls-20" d="M314.6,110.17c-4-1.22-13.38,13.18-15.09,25,0,0,19.57,29.38,23.53,10.39a43.54,43.54,0,0,0,1.36-10.49A58.62,58.62,0,0,0,323,122.78c-2-7.7-6.1-11.93-8.36-12.61"/><path class="cls-47" d="M313.07,115.67C311,115.34,305,126,303,132.6c0,0,8.23,14.53,12,3.73a26.55,26.55,0,0,0,1.66-11.71c-.45-4.14-2.43-8.77-3.62-9"/><path class="cls-19" d="M315.4,135.22c-.37,1.11-1.21,5.24-4.09,5.09s-2.87-1.11-3.06-1.26c-2.21-1.8,8-7.1,7.15-3.83"/><path class="cls-11" d="M326.31,164a.68.68,0,0,1-.36-.1c-3.53-2.12-3.43-8.53-3.36-12.77a28.71,28.71,0,0,0,0-3c-3.38,1.39-11.66-1.41-14.61-3.55-.38-.28-1.54-1.12-1.3-2.14.52-2.2,4-5,5.61-5.29a.71.71,0,1,1,.26,1.39c-1.09.2-4.1,2.53-4.5,4.22.09.23,1.2,1.24,4.16,2.44,4.29,1.75,8.61,2.39,10.07,1.51a1,1,0,0,1,1.05,0c.78.45.76,1.72.71,4.52-.06,3.92-.15,9.84,2.67,11.54a.7.7,0,0,1,.25,1A.72.72,0,0,1,326.31,164Z"/><path class="cls-8" d="M329.22,166.85a.71.71,0,0,1-.52-.23c-.47-.52-.06-1,.5-1.72.18-.22.49-.61.62-.81a.68.68,0,0,1,.24-.57.7.7,0,0,1,1,.06c.54.62,0,1.32-.75,2.21-.12.15-.3.37-.38.49a.73.73,0,0,1-.7.57Zm.53-1.19h0Zm0,0h0Zm.25-1.15Z"/><path class="cls-8" d="M330.54,168.42a.73.73,0,0,1-.56-.26c-.43-.55,0-1,.6-1.68a8.36,8.36,0,0,0,.63-.75.73.73,0,0,1,.29-.56.71.71,0,0,1,1,.14c.48.64-.15,1.33-.87,2.12l-.4.46a.69.69,0,0,1-.25.38A.7.7,0,0,1,330.54,168.42Zm.59-1.09Zm0,0,0,0Zm0,0h0Zm0,0Zm0,0Zm0,0Zm.27-1.12Z"/><path class="cls-8" d="M331.74,170.07a.7.7,0,0,1-.58-.3c-.39-.57.08-1,.68-1.62a8.41,8.41,0,0,0,.66-.69.73.73,0,0,1,.31-.54.7.7,0,0,1,1,.19c.45.67-.2,1.31-1,2-.13.13-.32.31-.41.42a.81.81,0,0,1-.27.37A.78.78,0,0,1,331.74,170.07Zm.59-1.1,0,.05Zm0,0h0Zm0,0h0Zm0,0Zm.3-1.06Z"/><path class="cls-8" d="M332.84,171.79a.72.72,0,0,1-.6-.33c-.36-.59.13-1,.76-1.57a8.23,8.23,0,0,0,.67-.63.74.74,0,0,1,.35-.53.72.72,0,0,1,1,.26c.4.69-.28,1.28-1.06,2-.14.11-.33.28-.43.38a.7.7,0,0,1-.29.35A.69.69,0,0,1,332.84,171.79Zm.61-1.07s0,0,0,.05S333.46,170.74,333.45,170.72Zm0,0Zm0,0Zm0,0Zm.31-1Z"/><path class="cls-8" d="M333.83,173.58a.7.7,0,0,1-.62-.38c-.33-.6.18-1,.83-1.5a8.38,8.38,0,0,0,.69-.57.71.71,0,0,1,.38-.51.71.71,0,0,1,.95.32c.35.71-.35,1.25-1.16,1.88l-.43.34a.68.68,0,0,1-.31.34A.76.76,0,0,1,333.83,173.58Zm.65-1Zm0,0s0,0,0,0S334.47,172.56,334.46,172.55Zm0,0Zm0,0Zm0,0h0Zm0,0h0Zm.34-1h0Z"/><path class="cls-8" d="M334.71,175.42a.71.71,0,0,1-.65-.41c-.28-.62.27-1,.91-1.44a8.25,8.25,0,0,0,.69-.51.72.72,0,0,1,.41-.49.71.71,0,0,1,.93.37c.31.73-.44,1.25-1.23,1.8l-.44.3a.64.64,0,0,1-.33.32A.63.63,0,0,1,334.71,175.42Zm.65-1Zm0,0Zm0,0Zm0,0h0Zm0,0Zm0,0Zm0,0Zm0,0h0Zm0,0Zm0,0Zm.35-.93Z"/><path class="cls-8" d="M335.46,177.32a.69.69,0,0,1-.66-.46c-.23-.64.33-1,1-1.36.2-.12.54-.33.7-.45a.71.71,0,0,1,.44-.47.7.7,0,0,1,.9.43c.27.75-.5,1.21-1.32,1.7-.16.1-.32.19-.43.27a.74.74,0,0,1-.37.3A.67.67,0,0,1,335.46,177.32Zm.67-.93Zm0,0Zm0,0Zm0,0Zm0,0Zm.36-.9Z"/><path class="cls-8" d="M336.11,179.27a.71.71,0,0,1-.68-.5c-.2-.65.37-1,1-1.3.19-.1.53-.28.7-.39a.67.67,0,0,1,.47-.44.7.7,0,0,1,.87.49c.21.76-.56,1.16-1.39,1.59l-.43.24a.65.65,0,0,1-.38.28Zm.68-.9Zm0,0Zm0,0h0Zm0,0Zm0,0Zm0,0Zm0,0Zm.37-.85Z"/><path class="cls-8" d="M336.62,181.26a.7.7,0,0,1-.68-.54c-.16-.66.45-.93,1.09-1.22a7.4,7.4,0,0,0,.69-.34.71.71,0,0,1,.51-.42.72.72,0,0,1,.84.55c.16.77-.66,1.14-1.46,1.5a4.5,4.5,0,0,0-.42.19.72.72,0,0,1-.4.26Zm.69-.86Zm0,0Zm0,0Zm0,0h0Zm0,0Zm0,0Zm.37-.81Z"/><path class="cls-8" d="M337,183.29a.7.7,0,0,1-.69-.59c-.11-.67.5-.9,1.15-1.14a6,6,0,0,0,.68-.28.72.72,0,0,1,.53-.39.71.71,0,0,1,.8.59c.12.79-.71,1.1-1.52,1.4-.15.06-.31.11-.41.16a.74.74,0,0,1-.42.24Zm.7-.81Zm0,0Zm0,0Zm0,0Zm0,0Zm.38-.77Z"/><path class="cls-8" d="M327.81,165.35a.66.66,0,0,1-.49-.2c-.51-.49-.12-1,.41-1.76a9.38,9.38,0,0,0,.58-.87.71.71,0,0,1,1.21-.57c.57.59,0,1.33-.64,2.27-.12.16-.29.39-.37.52a.75.75,0,0,1-.19.4A.73.73,0,0,1,327.81,165.35Zm.49-1.21Zm0,0Zm.21-1.2Z"/><path class="cls-11" d="M326.42,164a.82.82,0,0,1-.57-.22.69.69,0,0,1-.07-1,.72.72,0,0,1,.69-.23c.14-.06.38-.19.55-.28.77-.42,1.83-1,2.55-.28a.71.71,0,0,1-.9,1.08,5.14,5.14,0,0,0-1,.44A2.91,2.91,0,0,1,326.42,164Z"/><path class="cls-11" d="M327.9,165.37a.81.81,0,0,1-.62-.26.7.7,0,0,1,.69-1.18c.14-.05.38-.16.55-.24.79-.36,1.87-.87,2.53-.11a.71.71,0,0,1-1,1,4.83,4.83,0,0,0-1,.38A3.15,3.15,0,0,1,327.9,165.37Z"/><path class="cls-11" d="M329.34,166.87a.86.86,0,0,1-.68-.3.7.7,0,0,1,.06-1,.69.69,0,0,1,.71-.14c.14,0,.38-.13.55-.2.79-.3,1.88-.73,2.5.06a.72.72,0,0,1-.13,1,.7.7,0,0,1-.9,0,4.56,4.56,0,0,0-1,.3A3.53,3.53,0,0,1,329.34,166.87Zm2-.7Zm-1.64-.54Z"/><path class="cls-11" d="M330.69,168.45a.88.88,0,0,1-.74-.34.71.71,0,0,1,.84-1.08l.53-.15c.81-.25,1.91-.6,2.47.23a.71.71,0,0,1-1.09.89,4.15,4.15,0,0,0-.95.22A3.55,3.55,0,0,1,330.69,168.45Zm1.93-.55Zm-1.56-.66Z"/><path class="cls-11" d="M332,170.12a.92.92,0,0,1-.82-.4.7.7,0,0,1,.91-1l.53-.11c.8-.2,1.91-.46,2.41.39a.71.71,0,0,1-.24,1,.7.7,0,0,1-.9-.15,5.14,5.14,0,0,0-.94.16A4.11,4.11,0,0,1,332,170.12Zm.35-1.2h0Z"/><path class="cls-11" d="M335.43,172a.7.7,0,0,1-.57-.29,4.46,4.46,0,0,0-.92.09c-.68.12-1.38.23-1.73-.35a.71.71,0,0,1,1-1l.51-.07c.76-.13,1.9-.32,2.35.56a.71.71,0,0,1-.3.95A.79.79,0,0,1,335.43,172Z"/><path class="cls-11" d="M336.35,173.93a.72.72,0,0,1-.6-.33,3.85,3.85,0,0,0-.89,0c-.67.07-1.37.14-1.68-.46a.72.72,0,0,1,.3-1,.75.75,0,0,1,.74.05l.5,0c.75-.08,1.89-.19,2.28.72a.7.7,0,0,1-.37.93A.67.67,0,0,1,336.35,173.93Zm-1.92-1.43h0Z"/><path class="cls-11" d="M337.15,176a.71.71,0,0,1-.62-.37,3.48,3.48,0,0,0-.87,0c-.64,0-1.35,0-1.62-.58a.71.71,0,0,1,1.1-.83h.48c.74,0,1.87,0,2.2.88a.71.71,0,0,1-.43.9A.67.67,0,0,1,337.15,176Zm-1.82-1.56Z"/><path class="cls-11" d="M337.83,178a.69.69,0,0,1-.64-.42,5.09,5.09,0,0,0-.85-.1c-.62,0-1.33-.06-1.56-.69a.71.71,0,0,1,.43-.9.7.7,0,0,1,.73.15,3.38,3.38,0,0,0,.47,0c.72,0,1.83.09,2.1,1a.71.71,0,0,1-.48.88A.68.68,0,0,1,337.83,178Zm-.61-.4h0Z"/><path class="cls-11" d="M338.37,180.14a.7.7,0,0,1-.66-.47,3.63,3.63,0,0,0-.81-.16c-.61-.07-1.3-.16-1.49-.79a.7.7,0,0,1,.48-.88.73.73,0,0,1,.73.2c.11,0,.31.05.45.07.71.09,1.78.22,2,1.17a.69.69,0,0,1-.53.84A.44.44,0,0,1,338.37,180.14Zm-.63-.45h0Z"/><path class="cls-11" d="M338.78,182.3a.71.71,0,0,1-.68-.52,3,3,0,0,0-.78-.22c-.58-.12-1.25-.26-1.4-.9a.71.71,0,0,1,1.25-.59,2.71,2.71,0,0,0,.43.1c.69.14,1.73.36,1.88,1.31a.7.7,0,0,1-.59.81Zm-.65-.5h0Z"/><path class="cls-11" d="M339.06,184.48a.7.7,0,0,1-.7-.64l-.74-.21c-.56-.16-1.2-.34-1.31-1a.7.7,0,0,1,.58-.81.71.71,0,0,1,.71.31l.41.13c.66.19,1.66.47,1.75,1.43a.7.7,0,0,1-.64.77Z"/></g></g></g></svg>