<svg xmlns="http://www.w3.org/2000/svg" xmlns:xlink="http://www.w3.org/1999/xlink" viewBox="0 0 417.37 673.93"><defs><style>.cls-1{fill:none;}.cls-2{opacity:0.1;}.cls-3{fill:#1a1a1a;}.cls-4{fill:#f38d1f;}.cls-5{opacity:0.05;}.cls-6{fill:#603813;}.cls-7{fill:#a87c4f;}.cls-8{fill:#754c28;}.cls-9{fill:#c3996b;}.cls-10{opacity:0.3;}.cls-11{fill:#f17d21;}.cls-12{fill:#e6e7e8;}.cls-13{fill:#d0d2d3;}.cls-14{fill:#5a4a42;}.cls-15{fill:#fff;}.cls-16{opacity:0.2;}.cls-17{clip-path:url(#clip-path);}.cls-18{fill:#a0754b;}.cls-19{fill:#a0754c;}.cls-20{fill:#9f734b;}.cls-21{fill:#9f724b;}.cls-22{fill:#9f714b;}.cls-23{fill:#9f704b;}.cls-24{fill:#a06f4b;}.cls-25{fill:#9f6e4b;}.cls-26{fill:#9f6d4b;}.cls-27{fill:#9f6c4b;}.cls-28{fill:#a06b4c;}.cls-29{fill:#9f6a4b;}.cls-30{fill:#9f694b;}.cls-31{fill:#a0694b;}.cls-32{fill:#9f674b;}.cls-33{fill:#9f664b;}.cls-34{fill:#9f654b;}.cls-35{fill:#9f644b;}.cls-36{fill:#9f634b;}.cls-37{fill:#9f624b;}.cls-38{fill:#9f614b;}.cls-39{fill:#9f604b;}.cls-40{fill:#9f5f4b;}.cls-41{fill:#9e5e4a;}.cls-42{fill:#9f5e4b;}.cls-43{fill:#9e5d4b;}.cls-44{fill:#9f5d4a;}.cls-45{fill:#9e5c4a;}.cls-46{fill:#9f5b4a;}.cls-47{fill:#9e5a4a;}.cls-48{fill:#9f5a4a;}.cls-49{fill:#9e594a;}.cls-50{fill:#9e584a;}.cls-51{fill:#9e574a;}.cls-52{fill:#9e5649;}.cls-53{fill:#9e564a;}.cls-54{fill:#9e5549;}.cls-55{fill:#9e554a;}.cls-56{fill:#9e5449;}.cls-57{fill:#9e544a;}.cls-58{fill:#9e5349;}.cls-59{fill:#9d5349;}.cls-60{clip-path:url(#clip-path-2);}.cls-61{fill:#d7b27d;}.cls-62{fill:#6d6e70;}</style><clipPath id="clip-path"><path class="cls-1" d="M167.27,118.72a11.67,11.67,0,1,1-11.67-11.67A11.68,11.68,0,0,1,167.27,118.72Z"/></clipPath><clipPath id="clip-path-2"><path class="cls-1" d="M250.24,107.05a11.67,11.67,0,1,1-11.67-11.67A11.66,11.66,0,0,1,250.24,107.05Z"/></clipPath></defs><g id="Layer_2" data-name="Layer 2"><g id="Layer_1-2" data-name="Layer 1"><g class="cls-2"><path class="cls-3" d="M417.37,646c0,15.45-93.43,28-208.69,28S0,661.41,0,646s95.65-33.49,210.91-33.49S417.37,630.52,417.37,646Z"/></g><path class="cls-4" d="M167.79,49,108.1,97.59s-6.08,27.64,31,52,89,17.13,89,17.13,37.58,9.95,53.06-28.18,11-33.17-43.11-82.36S167.79,49,167.79,49Z"/><g class="cls-5"><path class="cls-6" d="M263.23,136.1c-4.21,3-35.74,28-41.27,24.32-7.38-4.92,7.79-77,22.84-95.07,7.07-8.51,21.91,19,22.85,17C268.69,80.09,280.92,123.58,263.23,136.1Z"/></g><path class="cls-7" d="M241.43,19.52c-5-4.84-26.51,9.68-35.69,26.05,0,0,10.95,58.6,27.42,33.17,3.61-5.56,5.76-8.79,7.94-14.66a99,99,0,0,0,5-19.43C247.59,31.6,244.25,22.24,241.43,19.52Z"/><path class="cls-8" d="M236.94,28.47c-3.28-3.16-17.67,8-23.65,18.65,0,0,7.13,38.18,17.87,21.62,4.64-7.17,7.66-14.59,8.45-21.16C240.65,39,238.79,30.26,236.94,28.47Z"/><path class="cls-7" d="M298.85,217.88l-.06,0c-1.28-43.34-44.92-67.38-88.56-67.38s-79.13,23.7-80.42,67l0,0c0,.16,0,.31,0,.47,0,.66-5,1.32-5,2,0,9.95,3,20.68,6.33,29.48.63,1.86,1.3,3.62,2,5.3,10.51,24.65,27.5,31,33.9,73,3.77,24.69,35.57,31.25,43.22,31.25s43.22-6.27,43.22-31.25h0c10.48-46.74,20-39.14,35-67,5.56-11.12,11.45-30.72,11.45-40.44,0-.38.19-.76.18-1.14S298.85,218.33,298.85,217.88Zm-86.12,82.67c-.83,0-1.66-.07-2.5-.07s-1.64,0-2.45.07l0-.13c.8,0,1.61.06,2.42.06"/><path class="cls-7" d="M272.07,216.78l-.05,0c-1-43.33-35.61-67.38-70.21-67.38s-62.74,23.71-63.76,67h0c0,.16,0,.31,0,.47,0,.66-4,1.31-4,2,0,10,2.4,20.69,5,29.48.49,1.87,1,3.63,1.59,5.31,8.33,24.64,21.8,31,26.87,72.95,3,24.68,28.2,31.24,34.27,31.24s34.27-6.27,34.27-31.24h0c8.3-46.74,15.85-39.14,27.73-67,4.41-11.13,9.08-30.72,9.08-40.45,0-.38.15-.75.14-1.13S272.07,217.22,272.07,216.78Zm-68.28,82.67c-.66-.05-1.31-.07-2-.07s-1.3,0-1.94.07l0-.13c.64,0,1.28.06,1.92.06"/><path class="cls-7" d="M232.25,155.66c12-.21,33.55,2.57,51.87,25.68a200.51,200.51,0,0,1,12.22,17.34c4.23,6.7-30.63,28.14-27.49,35.95,3.58,8.91,4.92,40.89,6.59,50.39,3.91,24.83,14.31,22.37-8.11,38.2-3.07,2.17-9.38,22.19-11.74,23.76-4.84,3.21-20.33-24.82-20.33-24.82s12.21-5.14,20.53-10.49c14.27-16.22,39.59-42.75,39.87-52.39.14-4.58-1.12-7.23-5.46-11.17-1.6-1.45-5.33-4.37-7.12-5.78-7.78-6.09-14.23-7.7-14.23-7.7"/><path class="cls-7" d="M179.38,156.3c-9.9.06-35.57,5.79-51.51,27.61a380.55,380.55,0,0,0-23.25,34.67,85.2,85.2,0,0,0-11.88,31.67c-1.31,8.32,4,16.78,9.85,25.68,3.1,4.71,5.64,9.51,9.81,13.7,12.06,12.09,25.32,27.27,36.33,34.23,2.59,1.64,1.33,15,6.42,20.12,3.94,4,18.69-23.54,18.69-23.54s-3-4.6-13.65-9.42c-3.94-4.43-8.43-7.75-13.83-13.69-3.59-3.95-9.44-10.51-12.92-14.55-9.7-11.26-16.11-19.5-16.26-24.82-.4-13.61,24.43-26.54,24.43-26.54"/><path class="cls-7" d="M180,319.26s-24.76,0-43.67,56.18c-1.36,4-3.64,7.52-4.93,12.3-3.24,12-3.31,85.58-5.84,102.31-3.46,22.85-9.16,53.6-11,87.22-.51,9.23-3.57,22.47-5.6,31.46-.72,3.14-73.8-5.14-72.28,36.59,14.25,6.42,76.74-14.63,78.58-17.82s13.38-27.33,28-50.8c20.52-33.05,47.2-72.85,56.64-72.85h16.66c5.38,0,14,15.71,26.79,33,5.35,7.25,9.61,13.83,15.3,21.19,4.53,5.86,10.54,12.43,14.63,18.73,15.23,23.44,22.62,46.82,25.36,50.76s83.13,13.06,82.16,8.83c-10.18-44.3-78.86-30.61-78.89-32.74-1.3-79.2-10.91-195-21.84-227.08-19.14-56.19-46.82-70.62-46.82-70.62"/><path class="cls-9" d="M265.25,213.6c-.74-31.89-28.67-47-60.12-47s-57.65,20.85-58.4,52.73c0,0,0,1.3,0,1.79,0,7.32,1.53,20.33,5.6,30.81,3.22,8.56,8.48,15.41,12.21,24.4,5.69,13.71,12.83,29.45,14.42,33.38,7.47,18.41,12,20.76,25.79,20.76,3.39,0,8.91-.07,11.85-1.5,9-4.38,12.8-10.49,17-21.4,8.31-21.61,5.25-12.62,14.92-32.53,3.9-8,9.84-17.54,12.22-23.75,5.77-16,4.58-28.79,4.58-35.95C265.29,215.09,265.25,213.6,265.25,213.6Z"/><path class="cls-7" d="M288.18,470.75c-1.12,1.15,3.05,2.13,6.3,1.88-1.84,2.86-4.56,8.83-7.13,5l-.67-12-2.13-10.41a4.89,4.89,0,0,1,2.8,1.61,5.07,5.07,0,0,0,4.84,1.6,4.08,4.08,0,0,1-3.18,2c-2.41.34,1.39,5.38,7.76,3.8C292.64,473.35,289,470.19,288.18,470.75Z"/><path class="cls-9" d="M155.35,188c1.41,0,1.21-2.93-1.53-5.14,2.73-.62,5.06-1.6,5.48,2.9l-4.63,8.74-4.15,10.19s-2.12-2.38-2.28-3.89-.24-4.54-1.79-5.53a5.56,5.56,0,0,1,4.08,1.13c2.09,1.53,2.79-4.51-3-8.09C154.76,185.06,154.48,187.79,155.35,188Z"/><rect class="cls-1" x="160.05" y="176.63" width="95.07" height="100.6"/><g class="cls-10"><path class="cls-6" d="M152.93,340.72c1.52,1.37,2.53,3.75,3.94,5s2.9,3,4.33,4a42.18,42.18,0,0,0,3.82,2.73c1.53.92,3.65,1.26,5.35,2.25a10.17,10.17,0,0,1-5.55.16,14.53,14.53,0,0,1-5.23-2.45,18.73,18.73,0,0,1-4.32-4.46C154.07,346.15,153.42,343,152.93,340.72Z"/></g><g class="cls-10"><path class="cls-6" d="M260.62,336.44c-1.51,1.37-2.53,3.75-3.93,5s-2.9,3-4.34,4-2.14,3.37-3.67,4.27S245,351,243.33,352a10.17,10.17,0,0,0,5.55.16c1.83-.43,3.47-2.82,5.09-4a18.69,18.69,0,0,0,4.31-4.46C259.49,341.87,260.14,338.74,260.62,336.44Z"/></g><g class="cls-10"><path class="cls-6" d="M115.26,627.5c1.84-3.19,13.38-27.33,28-50.8,20.52-33.05,47.2-72.85,56.64-72.85,0,0-22.69.23-60.36,65.71C121.17,599.74,115.26,627.5,115.26,627.5Z"/></g><g class="cls-10"><path class="cls-6" d="M234.49,153.23c.64.12,11.77,3.55,11.77,3.55-7.1,4.54-21,9.78-42.49,9.78-19.52,0-31.5-3.85-37.13-8.31,0,0,9.52-2.68,9.52-3.62,0-3.7,2.39,1,28.48-.47C219.44,153.32,224.54,151.39,234.49,153.23Z"/></g><path class="cls-4" d="M264,160.05s17.68,5.16,22.84,12.9c12.63,18.94,31.19,99.91,23.45,118.7s-31.92,33.11-33,45.27,19.9,34.27,11.06,44.22,17.69,55.27,14.37,70.75,18.79,106.12,11,109.44c7.74,6.63,15.48,15.48,1.11,22.11,8.84,7.74,7.74,15.48-5.53,14.37s-16.58,10-27.63,10-28.75-7.74-19.9-16.58S254,566.86,247.39,554.7s-21-14.37-28.74-15.48-43.12-5.53-48.64,19.9,2.21,31-15.48,31c-2.21,9.95,4.42,18.8-15.48,17.69,0,0,13.27,17.69-8.84,11s-40.9-5.52-38.69-15.47,23.21-11.06,14.37-24.32c-14.37-3.32-35-19.9,2.21-48.64,24.32-10-21-42-8.85-79.59s31-94,31-113.87-32.06-54.16-32.06-54.16-9.43-110,46.43-124.92c26.16-7,55.21,50.16,55.21,50.16l34.33-35.79"/><path class="cls-11" d="M100.27,2.87c5.32-9.11,47.37,4.56,70.9,25.59,0,0,14.72,91.58-25.35,59.76S95,12,100.27,2.87Z"/><path class="cls-4" d="M113.85,16.92c3.46-5.93,30.86,3,46.19,16.67,0,0,9.59,59.67-16.52,38.94S110.38,22.85,113.85,16.92Z"/><path class="cls-11" d="M296.58,67.75c-14.37,12.16-18.24-18.24-50.11-2,0,0-79.3-20-39.86-41.29a118.73,118.73,0,0,1,49.95-14.18C274.72,9.34,300.51,64.42,296.58,67.75Z"/><path class="cls-4" d="M286.07,57.24c-1.92,5.77-20.45-14.92-40-2.27,0,0-49.83-5.22-24.13-19.1,14.64-7.89,27.71-8,38.32-7.37C268.3,29,287.18,53.93,286.07,57.24Z"/><path class="cls-9" d="M256,94.11c4.61,29.64-32.56,64.49-49.71,67.16S143.16,142,138.55,112.39s11.53-59.24,50-65.23S251.42,64.48,256,94.11Z"/><path class="cls-7" d="M194.68,116.18S189,93.9,186.25,87.57C181,75.33,163.8,68.58,150.86,77c-12.52,8.14-10.74,30.06-10.74,30.06s1.79,25-2,.31,13.2-56.09,50.08-61.82c5.89-.92,10.29-2.9,15.58-2.43,27.82,2.52,47.87,24.59,51.22,46.07,3.54,22.78-2,.32-2,.32a36,36,0,0,0-8.79-17.71c-2.22-2.45-7.24-6.75-10.58-7.67-14.89-4.08-32.3,7-30.51,20.83.88,6.83.66,29.82.66,29.82Z"/><path class="cls-9" d="M258.53,103.18c2.68,17.24-11,35.35-31,38.45-1.61.26-5,1.31-6.63,1.38-18,.75-31.92-11.11-34.39-27-2.68-17.24,11.34-33.72,31.31-36.83S255.85,86,258.53,103.18Z"/><path class="cls-9" d="M214.48,112.51c2.75,17.67-11.59,34.56-32,37.74-17,2.65-33.48-5.74-39.94-19.07-1.3-2.66-1.82-6.19-2.28-9.14-2.74-17.66,11.83-32.57,32.27-35.75S211.74,94.85,214.48,112.51Z"/><path class="cls-12" d="M208.43,142.78c-.82.14-10.5,1.64-11.05,1.72a1.2,1.2,0,0,1-1.25-1c-.1-.63-1.68-10.83-1.68-10.83l13.37-2.08s1.65,10.28,1.71,11S209.25,142.64,208.43,142.78Z"/><path class="cls-7" d="M194.73,116.18S189,93.9,186.3,87.56c-5.22-12.23,16.07-15.89,16.79-2.61.46,8.56,2.24,29.58,2.24,29.58Z"/><path class="cls-7" d="M157.4,59.2c.85.18.67-2.81-.78-4.2,1.71,0,3.56.41,3.4,2.64l-3.65,3.65-3.85,3.86a2.84,2.84,0,0,1-.65-1.6c0-.75.28-2.21-.56-2.88a4.18,4.18,0,0,1,2.37,1c1.12,1,2.12-1.84-1.08-4.26C157.32,56.76,156.89,59,157.4,59.2Z"/><polygon class="cls-13" points="208.9 137.51 195.72 140.86 194.45 132.65 207.82 130.57 208.9 137.51"/><path class="cls-12" d="M235,76.46c5.4,14.33-13,31.16-24.88,18.57-4.61-6.13-3.85-13.21,6.46-19.88C223,71,232.65,70.86,235,76.46Z"/><path class="cls-14" d="M209,84.31c-1,6.75,3.27,13.08,9.46,14.13s12-3.58,12.95-10.33S228.13,75,221.94,74,210,77.56,209,84.31Z"/><path class="cls-13" d="M212.51,84.69a2.08,2.08,0,0,0,1.6,2.38,1.94,1.94,0,0,0,2.19-1.74,2.08,2.08,0,0,0-1.6-2.39A2,2,0,0,0,212.51,84.69Z"/><path class="cls-15" d="M226.93,93.6c-.22-.53-1.73.05-2.21.28a1.09,1.09,0,0,0-.49,1.39c.22.54.79.42,1.28.19S227.15,94.13,226.93,93.6Z"/><path class="cls-12" d="M152.05,92.75c1,15.29,24.73,23,30.33,6.61,1.66-7.49-2-13.62-14.11-15.42C160.76,82.83,151.87,86.69,152.05,92.75Z"/><path class="cls-14" d="M179,89.14c3.67,5.74,2.44,13.26-2.76,16.77s-12.39,1.71-16.06-4-2.43-13.26,2.76-16.78S175.29,83.38,179,89.14Z"/><path class="cls-13" d="M175.92,90.93a2.08,2.08,0,0,1-.47,2.84,1.94,1.94,0,0,1-2.71-.69,2.07,2.07,0,0,1,.47-2.83A1.94,1.94,0,0,1,175.92,90.93Z"/><path class="cls-15" d="M166.49,105c0-.57,1.59-.67,2.13-.65a1.09,1.09,0,0,1,1,1.06c0,.58-.54.71-1.09.7S166.51,105.59,166.49,105Z"/><g class="cls-2"><path class="cls-6" d="M120.62,297.5c-5.13-.5-8.6-8-12.16-7-2.34.67,12.53,26.27,21.38,27.63,14.37,2.21,33.9-47.9,9.21-76.64C137.46,239.64,129.54,298.36,120.62,297.5Z"/></g><g class="cls-2"><path class="cls-6" d="M115.42,518.08s.69,7.46-2.16,9c-2.16,1.15,14.11,11.16,22.47,14.37,9.58,3.69,25.43,6.64-1.47-15.84A40.4,40.4,0,0,0,115.42,518.08Z"/></g><g class="cls-2"><path class="cls-6" d="M317.1,564.44a22.15,22.15,0,0,0-3.42-3c1.65-1.84,1.41-2.55,1.55-4,.23-2.43-19.21,4-28.05,5.41-10.13,1.65-28.56,7.93,11.49,4.36C301.1,567,309,568.19,317.1,564.44Z"/></g><g class="cls-2"><path class="cls-6" d="M317.38,586.46a18.59,18.59,0,0,0-2.56-3c.95-1.31,2.34-.39,2.34-1.52,0-1.85-14.15,2-19.66,2.63-6.32.67-16.79,3.35,8.37,2.93C307.4,587.46,312.45,588.86,317.38,586.46Z"/></g><g class="cls-5"><path class="cls-6" d="M168.84,40.88c4.85,1.77,6.74,9.1,10.36,9.17,2.38,0-7.94-24.31-15.83-28.55-4.84-2.6-21-12.16-21-12.16-13.61,9-15.62,51.27-1.93,74.52C141.62,85.86,160.44,37.81,168.84,40.88Z"/></g><g class="cls-2"><path class="cls-6" d="M270.23,161.89c-4.52-2.49-23,4.82-20.64,7.37,8.85,9.58,28.75,7,31.69.74C282.32,167.79,280.92,167.79,270.23,161.89Z"/></g><g class="cls-2"><path class="cls-6" d="M154.16,157.1c-4.52-2.49-24.45,6.76-21,6.27,7.74-1.11,9.81.56,16.26.33s14.33,4.65,15.8,1.51C166.25,163,164.84,163,154.16,157.1Z"/></g><path class="cls-11" d="M204.27,444.71a1.47,1.47,0,0,1-.54-.1,1.66,1.66,0,0,1-1-2.11c4.32-12.41,2.67-25.91.59-43-2-16.59-4.54-37.25-1.77-62.75,5.44-50.07-4.32-131.45-4.42-132.27a1.66,1.66,0,0,1,1.44-1.85,1.68,1.68,0,0,1,1.85,1.45c.1.82,9.91,82.58,4.42,133-2.73,25.12-.34,44.71,1.77,62,2.14,17.52,3.82,31.37-.74,44.5A1.66,1.66,0,0,1,204.27,444.71Z"/><g class="cls-16"><g class="cls-17"><rect class="cls-18" x="143.93" y="107.05" width="23.34" height="23.34"/><circle class="cls-18" cx="155.6" cy="118.72" r="11.53" transform="translate(4.3 242.88) rotate(-76.72)"/><circle class="cls-19" cx="155.6" cy="118.72" r="11.32"/><circle class="cls-20" cx="155.6" cy="118.72" r="11.11" transform="translate(4.3 242.88) rotate(-76.72)"/><circle class="cls-21" cx="155.6" cy="118.72" r="10.9" transform="translate(4.3 242.88) rotate(-76.72)"/><circle class="cls-22" cx="155.6" cy="118.72" r="10.69" transform="translate(13.49 253.29) rotate(-80.78)"/><circle class="cls-23" cx="155.6" cy="118.72" r="10.48" transform="translate(4.3 242.88) rotate(-76.72)"/><circle class="cls-24" cx="155.6" cy="118.72" r="10.27"/><circle class="cls-25" cx="155.6" cy="118.72" r="10.06" transform="translate(4.3 242.88) rotate(-76.72)"/><circle class="cls-26" cx="155.6" cy="118.72" r="9.85"/><circle class="cls-27" cx="155.6" cy="118.72" r="9.64" transform="translate(4.3 242.88) rotate(-76.72)"/><circle class="cls-28" cx="155.6" cy="118.72" r="9.43"/><circle class="cls-29" cx="155.6" cy="118.72" r="9.22" transform="translate(4.3 242.88) rotate(-76.72)"/><circle class="cls-30" cx="155.6" cy="118.72" r="9.01"/><circle class="cls-31" cx="155.6" cy="118.72" r="8.8" transform="translate(4.3 242.88) rotate(-76.72)"/><circle class="cls-32" cx="155.6" cy="118.72" r="8.6"/><circle class="cls-33" cx="155.6" cy="118.72" r="8.39" transform="translate(4.3 242.88) rotate(-76.72)"/><circle class="cls-33" cx="155.6" cy="118.72" r="8.18"/><path class="cls-34" d="M163.56,118.72a8,8,0,1,1-8-8A8,8,0,0,1,163.56,118.72Z"/><path class="cls-35" d="M163.35,118.72A7.76,7.76,0,1,1,155.6,111,7.75,7.75,0,0,1,163.35,118.72Z"/><path class="cls-36" d="M163.15,118.72a7.55,7.55,0,1,1-7.55-7.55A7.55,7.55,0,0,1,163.15,118.72Z"/><path class="cls-37" d="M162.94,118.72a7.34,7.34,0,1,1-7.34-7.34A7.34,7.34,0,0,1,162.94,118.72Z"/><circle class="cls-38" cx="155.6" cy="118.72" r="7.13"/><path class="cls-38" d="M162.52,118.72a6.92,6.92,0,1,1-6.92-6.92A6.92,6.92,0,0,1,162.52,118.72Z"/><circle class="cls-39" cx="155.6" cy="118.72" r="6.71"/><path class="cls-40" d="M162.1,118.72a6.5,6.5,0,1,1-6.5-6.5A6.5,6.5,0,0,1,162.1,118.72Z"/><circle class="cls-41" cx="155.6" cy="118.72" r="6.29"/><path class="cls-42" d="M161.68,118.72a6.09,6.09,0,1,1-6.08-6.08A6.08,6.08,0,0,1,161.68,118.72Z"/><path class="cls-43" d="M161.47,118.72a5.88,5.88,0,1,1-5.87-5.87A5.87,5.87,0,0,1,161.47,118.72Z"/><path class="cls-44" d="M161.26,118.72a5.67,5.67,0,1,1-5.66-5.66A5.65,5.65,0,0,1,161.26,118.72Z"/><path class="cls-45" d="M161.05,118.72a5.46,5.46,0,1,1-5.45-5.45A5.46,5.46,0,0,1,161.05,118.72Z"/><circle class="cls-46" cx="155.6" cy="118.72" r="5.25"/><path class="cls-47" d="M160.63,118.72a5,5,0,1,1-5-5A5,5,0,0,1,160.63,118.72Z"/><circle class="cls-48" cx="155.6" cy="118.72" r="4.83"/><path class="cls-49" d="M160.21,118.72a4.62,4.62,0,1,1-4.61-4.62A4.61,4.61,0,0,1,160.21,118.72Z"/><circle class="cls-50" cx="155.6" cy="118.72" r="4.41"/><path class="cls-50" d="M159.8,118.72a4.2,4.2,0,1,1-4.2-4.2A4.2,4.2,0,0,1,159.8,118.72Z"/><circle class="cls-50" cx="155.6" cy="118.72" r="3.99"/><path class="cls-51" d="M159.38,118.72a3.78,3.78,0,1,1-3.78-3.78A3.78,3.78,0,0,1,159.38,118.72Z"/><circle class="cls-52" cx="155.6" cy="118.72" r="3.57"/><path class="cls-53" d="M159,118.72a3.36,3.36,0,1,1-3.36-3.36A3.36,3.36,0,0,1,159,118.72Z"/><path class="cls-53" d="M158.75,118.72a3.15,3.15,0,1,1-3.15-3.15A3.15,3.15,0,0,1,158.75,118.72Z"/><circle class="cls-54" cx="155.6" cy="118.72" r="2.94"/><path class="cls-55" d="M158.33,118.72A2.74,2.74,0,1,1,155.6,116,2.73,2.73,0,0,1,158.33,118.72Z"/><circle class="cls-56" cx="155.6" cy="118.72" r="2.52"/><path class="cls-56" d="M157.91,118.72a2.32,2.32,0,1,1-2.31-2.31A2.31,2.31,0,0,1,157.91,118.72Z"/><circle class="cls-57" cx="155.6" cy="118.72" r="2.11"/><path class="cls-58" d="M157.49,118.72a1.9,1.9,0,1,1-1.89-1.9A1.9,1.9,0,0,1,157.49,118.72Z"/><circle class="cls-58" cx="155.6" cy="118.72" r="1.69"/><path class="cls-58" d="M157.07,118.72a1.48,1.48,0,1,1-1.47-1.48A1.47,1.47,0,0,1,157.07,118.72Z"/><circle class="cls-59" cx="155.6" cy="118.72" r="1.27"/><path class="cls-59" d="M156.66,118.72a1.06,1.06,0,1,1-1.06-1.06A1.07,1.07,0,0,1,156.66,118.72Z"/></g></g><g class="cls-16"><g class="cls-60"><rect class="cls-18" x="226.9" y="95.38" width="23.34" height="23.34"/><circle class="cls-18" cx="238.57" cy="107.05" r="11.53"/><circle class="cls-19" cx="238.57" cy="107.05" r="11.32"/><circle class="cls-20" cx="238.57" cy="107.05" r="11.11"/><circle class="cls-21" cx="238.57" cy="107.05" r="10.9"/><circle class="cls-22" cx="238.57" cy="107.05" r="10.69"/><circle class="cls-23" cx="238.57" cy="107.05" r="10.48"/><circle class="cls-24" cx="238.57" cy="107.05" r="10.27"/><circle class="cls-25" cx="238.57" cy="107.05" r="10.06"/><circle class="cls-26" cx="238.57" cy="107.05" r="9.85"/><circle class="cls-27" cx="238.57" cy="107.05" r="9.64" transform="translate(79.57 314.65) rotate(-76.72)"/><circle class="cls-28" cx="238.57" cy="107.05" r="9.43"/><circle class="cls-29" cx="238.57" cy="107.05" r="9.22" transform="translate(79.57 314.65) rotate(-76.72)"/><circle class="cls-30" cx="238.57" cy="107.05" r="9.01"/><circle class="cls-31" cx="238.57" cy="107.05" r="8.81"/><circle class="cls-32" cx="238.57" cy="107.05" r="8.6"/><circle class="cls-33" cx="238.57" cy="107.05" r="8.39"/><circle class="cls-33" cx="238.57" cy="107.05" r="8.18" transform="translate(79.57 314.65) rotate(-76.72)"/><circle class="cls-34" cx="238.57" cy="107.05" r="7.97"/><path class="cls-35" d="M246.33,107.05a7.76,7.76,0,1,1-7.76-7.76A7.75,7.75,0,0,1,246.33,107.05Z"/><circle class="cls-36" cx="238.57" cy="107.05" r="7.55"/><path class="cls-37" d="M245.91,107.05a7.34,7.34,0,1,1-7.34-7.34A7.34,7.34,0,0,1,245.91,107.05Z"/><circle class="cls-38" cx="238.57" cy="107.05" r="7.13"/><path class="cls-38" d="M245.49,107.05a6.92,6.92,0,1,1-6.92-6.92A6.92,6.92,0,0,1,245.49,107.05Z"/><circle class="cls-39" cx="238.57" cy="107.05" r="6.71"/><path class="cls-40" d="M245.08,107.05a6.51,6.51,0,1,1-6.51-6.5A6.51,6.51,0,0,1,245.08,107.05Z"/><circle class="cls-41" cx="238.57" cy="107.05" r="6.29"/><path class="cls-42" d="M244.66,107.05a6.09,6.09,0,1,1-6.09-6.08A6.09,6.09,0,0,1,244.66,107.05Z"/><circle class="cls-43" cx="238.57" cy="107.05" r="5.87"/><circle class="cls-44" cx="238.57" cy="107.05" r="5.66"/><path class="cls-45" d="M244,107.05a5.46,5.46,0,1,1-5.46-5.45A5.46,5.46,0,0,1,244,107.05Z"/><circle class="cls-46" cx="238.57" cy="107.05" r="5.25"/><path class="cls-47" d="M243.61,107.05a5,5,0,1,1-5-5A5,5,0,0,1,243.61,107.05Z"/><circle class="cls-48" cx="238.57" cy="107.05" r="4.83"/><path class="cls-49" d="M243.19,107.05a4.62,4.62,0,1,1-4.62-4.62A4.62,4.62,0,0,1,243.19,107.05Z"/><circle class="cls-50" cx="238.57" cy="107.05" r="4.41"/><path class="cls-50" d="M242.77,107.05a4.2,4.2,0,1,1-4.2-4.2A4.2,4.2,0,0,1,242.77,107.05Z"/><circle class="cls-50" cx="238.57" cy="107.05" r="3.99"/><circle class="cls-51" cx="238.57" cy="107.05" r="3.78"/><path class="cls-52" d="M242.14,107.05a3.57,3.57,0,1,1-3.57-3.57A3.57,3.57,0,0,1,242.14,107.05Z"/><circle class="cls-53" cx="238.57" cy="107.05" r="3.36"/><path class="cls-53" d="M241.73,107.05a3.16,3.16,0,1,1-3.16-3.15A3.16,3.16,0,0,1,241.73,107.05Z"/><circle class="cls-54" cx="238.57" cy="107.05" r="2.94"/><path class="cls-55" d="M241.31,107.05a2.74,2.74,0,1,1-2.74-2.73A2.74,2.74,0,0,1,241.31,107.05Z"/><circle class="cls-56" cx="238.57" cy="107.05" r="2.52"/><path class="cls-56" d="M240.89,107.05a2.32,2.32,0,1,1-2.32-2.31A2.32,2.32,0,0,1,240.89,107.05Z"/><circle class="cls-57" cx="238.57" cy="107.05" r="2.11"/><path class="cls-58" d="M240.47,107.05a1.9,1.9,0,1,1-1.9-1.9A1.9,1.9,0,0,1,240.47,107.05Z"/><circle class="cls-58" cx="238.57" cy="107.05" r="1.69"/><path class="cls-58" d="M240.05,107.05a1.48,1.48,0,1,1-1.48-1.48A1.48,1.48,0,0,1,240.05,107.05Z"/><circle class="cls-59" cx="238.57" cy="107.05" r="1.27"/><path class="cls-59" d="M239.63,107.05a1.06,1.06,0,1,1-1.06-1.06A1.06,1.06,0,0,1,239.63,107.05Z"/></g></g><path class="cls-61" d="M203.07,123.74c1.31,8.41-6.91,15.86-16.67,17.38s-17.36-3.47-18.67-11.88,5.54-16.45,15.3-18S201.76,115.34,203.07,123.74Z"/><path class="cls-61" d="M232.07,118.27c1.3,8.4-5.22,17.47-15,19s-18.73-4.07-20-12.47,5.54-16.45,15.3-18S230.76,109.87,232.07,118.27Z"/><path class="cls-8" d="M209.52,113.57c.7,4.46-6.12,10-9.12,10.42s-11.17-2.7-11.86-7.16,3.44-8.81,9.24-9.71S208.83,109.1,209.52,113.57Z"/><path class="cls-62" d="M217.27,236.55l-4.1.88-.2-.94,2.5-.54a.51.51,0,0,0,.39-.61l-.54-2.49a.51.51,0,0,0-.61-.4l-4.23.91-1.85-8.65a10.3,10.3,0,1,0-3.07.6l3.89,18.12h0a1.64,1.64,0,1,0,3.22-.64l5.67-1.22a.51.51,0,0,0,.4-.61l-.86-4A.52.52,0,0,0,217.27,236.55Zm-19.39-20a7.44,7.44,0,1,1,8.83,5.71A7.44,7.44,0,0,1,197.88,216.57Z"/><path class="cls-9" d="M159.72,43.47C152.29,28.25,211.34,53.6,197.36,52c0,0-42,9.38-22.38,19.07C146.57,70.88,157.75,44.09,159.72,43.47Z"/><g class="cls-2"><path class="cls-6" d="M201.17,49.66c-7.21-2.79-35.59,3.41-31.75,6.13,6.13,4.34,14.19-2,23-1.31,11.84.92,28.26,10.7,30.67,7.19C224.55,59.51,218.21,56.26,201.17,49.66Z"/></g><path class="cls-11" d="M287.74,98.47s-21-33.25-33.47-57.37-46-38.47-78.11-28.69S131.52,67.83,128.24,73c-12.48,23.18-31.36,14.41-21.48,38.56.31-1.61,1.89-2.74,5.23-3.18,19.69-2.61,54.48-44.34,58.41-48.25s13.79-10.43,22.32-9.78,89.93,39.12,92.55,54.77-21,52.16-28.88,57.37S236,169.05,230.14,171s-23,22.82-23,22.82c-5.91,1.95-10.51-3.92-10.51-3.92-11.16-28-55.14-41.72-59.08-46.94-2.5-3.32-20.16-15.35-27.59-24.34,1.86,3.74,4.2,8.06,7.09,13.09,5.25,9.13,19,18.91,21.66,19.56s30.85,18.91,36.76,24.12S199.79,208,199.79,208l15.75-12.39s10.5-9.78,17.07-11.08,16.53-13.23,22.31-15C263.46,166.93,306.12,148.67,287.74,98.47Z"/><path class="cls-7" d="M100.36,148.63S94.47,115.47,109.2,111s19.16,10.32,14.74,11.8a35.15,35.15,0,0,1-9.58,1.47s14-4.42,14,5.9-8.1,5.89-8.1,5.89,12.53-4.42,11.79,3.69-17.69,7.37-17.69,7.37"/><path class="cls-11" d="M134.59,234.34s16.21,17,9.52,47.56c-4.76,21.75-12.91,19.71-22.43,22.43,0,0-24.84,8.66-34.65-20.39-2.89-8.55,2.72-3.4-.68-14.95s-14.95-31.25-.68-55.71c-12.91-3.4-11.55-11.55-2.71-20.38C78.2,181.35,69.37,180,84.32,163.68a7.51,7.51,0,0,1,6.79,3.4l5.44-26.5s25.82-2,32.61,8.15c0,0-3.4,10-3.91,18.18,7.64-1,12.23,0,12.74,6.11s10.7,24.46-9.17,28C134.42,205.12,136.29,219.23,134.59,234.34Z"/><g class="cls-2"><path class="cls-6" d="M263.23,248.12s-4.42,27.27.74,35.74,0,18.43,0,18.43-3,11.42.73,18,5.53,12.53,2.95,15.11.37,7.37-.37,12.9-1.84,11.79-1.84,14-2.21,5.53-2.21,8.11,9.58,1.84,9.58,1.84l14-33.9-14-57.85Z"/></g><path class="cls-7" d="M273.42,364.3s24.15,21,15.2,33.46-21.11,4.21-18.51.37a36.78,36.78,0,0,1,6.65-7s-8.38,12-14.46,4.3,2.89-9.42,2.89-9.42S258,397,253.77,390.54s9.53-16.46,9.53-16.46"/><path class="cls-11" d="M297.14,384.21c-4.22,4.93-6.18,11-7.49,7.24-2.06-14.19-11.07-21.59-17.85-21.6s-6.29,3.11-7.41,2.51c-2.91-7.5,8.29-11.58,8.29-11.58s-3.15-.95-3-2.76c-5.13-16.06,6.56-12,3.16-16.44s-3-3.95,3.08-5.52c-4.43-.91-.28-1.1-.09-4.1-2.05-4.18-1.6-3.71-3.05-8-6.36-8.37-3.39-5.6-3.95-14-3.91-11.37,0-18.58,0-18.58-1.43-5.52-1.13-16.8-1.13-16.8s-2.57.67-4.24-8.91c-4.83-27.61,18.74-92.09,18.74-92.09,5.73-11.5,15.22,21.41,30.22,75.58,3.19,11.54,5.51,15.07,7,22.05,9.93,6,6.12,14.92,8.94,18.32s2.87,21.06,3.94,25.2c4.28,6.55-3,15.81-4.85,18.64,8.65,17.21-11.6,38.67-12,44.66s-8.21,5.66-10.2,2.94-8.18,3.29-8.18,3.29"/><path class="cls-4" d="M255.12,362.35s27.64,43.11,32.06,44.22S280.55,432,280.55,432l-44.22-32.06Z"/><path class="cls-11" d="M124.68,413.2a2.21,2.21,0,0,1-.41-4.38c16.31-3.06,28.09-31.54,28.21-31.83a2.21,2.21,0,0,1,4.09,1.67c-.51,1.26-12.83,31-31.48,34.5A2,2,0,0,1,124.68,413.2Z"/><path class="cls-11" d="M289.11,407.67a1.68,1.68,0,0,1-.93-.28C271.41,396,261.75,375,261.35,374.09a1.66,1.66,0,1,1,3-1.37c.09.21,9.69,21.09,25.68,31.92a1.68,1.68,0,0,1,.44,2.31A1.65,1.65,0,0,1,289.11,407.67Z"/><path class="cls-11" d="M206.07,445.67a2.21,2.21,0,0,1-2.66,1.63h0a2.21,2.21,0,0,1-1.64-2.66l1.8-7.53a2.21,2.21,0,0,1,2.67-1.63h0a2.19,2.19,0,0,1,1.63,2.66Z"/><path class="cls-11" d="M203.92,448.47a3.3,3.3,0,0,1-2.82-1.58,3.26,3.26,0,0,1-.4-2.51l1.8-7.53a3.31,3.31,0,0,1,3.22-2.54,3.46,3.46,0,0,1,.78.09,3.32,3.32,0,0,1,2.45,4l-1.8,7.52A3.32,3.32,0,0,1,203.92,448.47Zm1.8-12a1.1,1.1,0,0,0-1.07.85l-1.8,7.52a1.11,1.11,0,0,0,.81,1.34,1.13,1.13,0,0,0,1.34-.82l1.8-7.53a1.1,1.1,0,0,0-.13-.83,1.13,1.13,0,0,0-.69-.5A1.09,1.09,0,0,0,205.72,436.52Z"/></g></g></svg>