<svg xmlns="http://www.w3.org/2000/svg" xmlns:xlink="http://www.w3.org/1999/xlink" viewBox="0 0 502.61 706.94"><defs><style>.cls-1{fill:#1a1a1a;}.cls-1,.cls-3{opacity:0.1;}.cls-2{fill:url(#linear-gradient);}.cls-11,.cls-15,.cls-3,.cls-4,.cls-9{fill:#603813;}.cls-4{opacity:0.25;}.cls-5{fill:#a87c4f;}.cls-6{fill:#c3996b;}.cls-7{fill:none;}.cls-15,.cls-8{opacity:0.3;}.cls-10{fill:#f05a28;}.cls-11{opacity:0.2;}.cls-12{fill:#754c28;}.cls-13{fill:#e6e7e8;}.cls-14{fill:#d0d2d3;}.cls-16{fill:#d7b27d;}.cls-17{fill:#5a4a42;}.cls-18{fill:#fff;}.cls-19{fill:#f17d21;}</style><linearGradient id="linear-gradient" x1="261.34" y1="601.69" x2="327.13" y2="186.34" gradientUnits="userSpaceOnUse"><stop offset="0" stop-color="#f49222"/><stop offset="1" stop-color="#ea3a25"/></linearGradient></defs><g id="Layer_2" data-name="Layer 2"><g id="Layer_1-2" data-name="Layer 1"><path class="cls-1" d="M502.61,665.93c0,22.65-112.51,41-251.31,41S0,688.58,0,665.93s115.19-49.11,254-49.11S502.61,643.29,502.61,665.93Z"/><path class="cls-2" d="M159.59,191.2c0,58.68-71.35,242.8-71.35,332.05s9.12,35.33,22.05,39.15,74,21.92,88.8,29,48.27-23.48,59.61-26.62,18.61-.43,39.41,10.53,135-16.28,161-32.18c-18.71-8.35-17.9-28-39.09-85.6-41.11-111.71-80.28-128.2-84.59-182.41-3.46-43.52-2.71-87.87-2.71-87.87Z"/><path class="cls-3" d="M152.25,230.49s12.64,44.38,28.82,73.92c5.14,9.38-4.81,43.79,3.26,52.53,33.47,36.26,34.39-67.41,34.39-67.41Z"/><path class="cls-4" d="M228.68,475.1H204.27l-2.17,48.62c.71-27.93.47-89,.47-89l-12.2-.19L169.45,574.51S200,543,201.62,534.45L199.09,591c14.15,6.66,48.27-22,59.61-26.24V475.1Z"/><path class="cls-3" d="M330.3,486.17l26.49,29.29s24.64-93-53.46-192c1.4-13.48,29.29-61.37,29.29-91.12,0-21.85-13.48-9.3-13.48-9.3l-47.42,63.23"/><path class="cls-5" d="M340.17,211.34l-.06,0c-1.39-47.07-48.79-73.19-96.19-73.19S158,163.93,156.56,211h0c0,.17,0,.33,0,.51,0,.71-5.46,1.42-5.46,2.14,0,10.81,3.3,22.47,6.88,32,.67,2,1.4,3.94,2.18,5.76,11.41,26.77,29.87,33.7,36.82,79.24,4.1,26.82,38.63,33.94,46.95,33.94s46.94-6.81,46.94-33.94h.05c11.37-50.77,21.72-42.51,38-72.73,6-12.09,12.43-33.37,12.43-43.93,0-.41.21-.82.2-1.23S340.17,211.82,340.17,211.34Zm-93.54,89.79c-.9-.05-1.8-.08-2.71-.08s-1.78,0-2.66.08l0-.14c.88,0,1.76.06,2.64.06"/><path class="cls-5" d="M281.07,145c16.48-.23,46,2.8,71.07,27.9a222.07,222.07,0,0,1,16.74,18.83C374.67,199,382,205.5,386.31,214c4.91,9.67,10.92,16.18,13.21,26.5,5.36,27-39.67,69.26-70.39,86.46-4.2,2.35-6.74,19.3-29.05,34.18-6.24,4.15-14.88-35.34-14.88-35.34s16.73-5.58,28.13-11.39C332.88,296.79,367.57,268,368,257.5c.19-5-1.53-7.86-7.48-12.13-2.19-1.58-7.3-4.75-9.76-6.28a65.06,65.06,0,0,0-19.49-8.37"/><path class="cls-5" d="M208.65,145.64c-13.57.07-48.73,6.29-70.58,30-12.87,14-18.34,20-31.84,37.65-7.56,9.91-13.62,20.84-16.28,34.4-1.79,9,5.46,18.23,13.49,27.9,4.24,5.11,7.73,10.33,13.44,14.87,16.53,13.14,34.68,29.62,49.78,37.19,3.54,1.78,2.17,15.86,8.79,21.85,24.22,21.85,29.39,19.26,34.45,13.48,2.19-2.5,7.36-3.05,9.29-5.57,3.88-5.08-18.13-33.48-18.13-33.48s-4.07-5-18.71-10.23c-5.39-4.82-11.55-8.42-18.95-14.87-4.91-4.29-12.93-11.42-17.7-15.81-13.29-12.22-22.06-21.18-22.28-27-.54-14.78,33.47-28.82,33.47-28.82"/><path class="cls-5" d="M213.61,325.8s-30.06,13.58-52.7,74.6c-1.63,4.4-4.36,8.17-5.9,13.37-3.88,13.06-6.3,29.69-9.33,47.86-4.14,24.83-6.06,93.85-8.26,130.37-.6,10-3.34,31.83-5.77,41.6C130.79,637,43.3,628,45.13,673.34c17.06,7,91.86-15.88,94.06-19.35s17.08-35.87,32.53-62.61c22.37-38.72,51.59-114.76,62.89-114.76l25.49-.21c6.45,0,11.25,17.28,26.52,36,6.41,7.86,9.44,16.41,16.25,24.41,5.43,6.36,20.25,32.53,24.17,40,17.67,33.47,28.34,72.88,31.62,77.16s99.51,14.19,98.35,9.59c-12.19-48.11-94.4-33.25-94.44-35.56C361,542,352.22,445.25,339.13,410.4c-22.91-61-62.26-85.54-62.26-85.54"/><path class="cls-6" d="M326.29,207.88c-1-34.63-39.28-51-82.37-51s-79,22.64-80,57.27c0,0,0,1.41,0,1.94,0,7.95,2.09,22.08,7.67,33.47,4.42,9.3,11.62,16.74,16.73,26.5,7.8,14.89,17.57,32,19.76,36.26,10.23,20,16.47,22.55,35.33,22.55,4.64,0,12.2-.08,16.23-1.63,12.38-4.76,17.54-11.39,23.29-23.24,11.39-23.48,7.2-13.72,20.45-35.33,5.33-8.71,13.48-19.06,16.74-25.81,7.9-17.43,6.27-31.27,6.27-39C326.34,209.5,326.29,207.88,326.29,207.88Z"/><path class="cls-5" d="M345.54,428.57c-1.37,1.43,4.44,1.78,8.82.94-2.12,3.4-5,10.3-9,6.64l-2.53-12.77-4.3-10.85s2.66,0,4,1.25,4.52,1.61,6.79.9c0,0-.83,1.91-4.05,2.68s2.62,5.56,11.06,2.77C352,430.61,346.52,427.83,345.54,428.57Z"/><path class="cls-6" d="M278.45,315.23c-1.82-.11,2.71,3.11,6.68,5.07-3.41.34-9.19,1.78-10.61-1.91l4.31-6.83,1.9-6.95s2.14,1.43,2.64,2.67,2.87,3.08,5.06,4c0,0-1.62.38-4.62-1s-.64,3.78,7.6,7C282.64,319.5,279.61,315.43,278.45,315.23Z"/><path class="cls-6" d="M175.72,180.05c1.93,0,1.66-3.18-2.09-5.57,3.74-.68,6.92-1.74,7.51,3.15l-6.35,9.49-5.69,11.06S166.2,195.6,166,194s-.33-4.94-2.46-6a9.21,9.21,0,0,1,5.6,1.23c2.86,1.66,3.83-4.9-4.17-8.79C174.91,176.88,174.53,179.85,175.72,180.05Z"/><rect class="cls-7" x="183.11" y="167.7" width="129.59" height="109.5"/><g class="cls-8"><path class="cls-9" d="M182.36,353.59c2.08,1.49,3.47,4.08,5.4,5.39s4,3.24,5.93,4.37,3.14,2,5.24,3,5,1.36,7.32,2.44a17.56,17.56,0,0,1-7.6.17,22.36,22.36,0,0,1-7.17-2.67,23.21,23.21,0,0,1-5.91-4.84C183.92,359.49,183,356.09,182.36,353.59Z"/></g><g class="cls-8"><path class="cls-9" d="M320,341.31c-2.07,1.48-3.47,4.08-5.39,5.39s-4,3.24-5.94,4.37-2.94,3.66-5,4.64-5,1.37-7.32,2.44a17.36,17.36,0,0,0,7.59.18c2.52-.47,4.77-3.06,7-4.35a23.38,23.38,0,0,0,5.9-4.84C318.4,347.21,319.29,343.81,320,341.31Z"/></g><path class="cls-3" d="M160.73,611.45c1.71-3.47,14.48-25.68,27.2-51.6,18.13-37,37.24-83.5,46-83.5,0,0-6.8-13.77-41.84,57.35C175.06,566.48,160.73,611.45,160.73,611.45Z"/><path class="cls-10" d="M210.94,141.64s-14.19,2.29-11.55,28.85c-5.51,5.46-14.32-19.51-23.65-17.36C163.47,156,194.93,139.45,210.94,141.64Z"/><path class="cls-10" d="M272.48,142s15.92-2.25,13.29,24.31c5.5,5.46,14-20.18,23.32-18C321.35,151.09,296.36,139.38,272.48,142Z"/><path class="cls-11" d="M277.18,140.25c0,.85,16.91,2.61,16.91,2.61-9.24,5.91-27.28,12.73-55.26,12.73-25.39,0-41-5-48.29-10.81,0,0,12.38-3.49,12.38-4.7,0-4.82,3.45-11.51,37.44-11.51S277.18,135.44,277.18,140.25Z"/><path class="cls-5" d="M196.53.85c6.72-3.75,25.53,17.8,30.68,37.85,0,0-28.22,59.37-38.6,27.61S189.81,4.59,196.53.85Z"/><path class="cls-12" d="M198.74,13.56c4.38-2.44,16.62,11.6,20,24.66,0,0-18.39,38.68-25.15,18S194.36,16,198.74,13.56Z"/><path class="cls-5" d="M290.46.42C283.83-3.26,265.31,18,260.24,37.7c0,0,27.79,58.48,38,27.21,2.24-6.85,3.6-10.84,4.26-17.61a107.77,107.77,0,0,0-.17-21.79C300.28,11.39,294.18,2.49,290.46.42Z"/><path class="cls-12" d="M288.23,11.07c-4.31-2.41-16.33,13.3-19.64,26.16,0,0,18.11,38.1,24.77,17.72,2.88-8.81,4-17.44,3-24.56C295.05,21.06,290.68,12.43,288.23,11.07Z"/><path class="cls-6" d="M308.48,87.09c0,32.57-45.71,63.76-64.56,63.76s-64.57-31.19-64.57-63.76,22.27-61.66,64.57-61.66S308.48,54.51,308.48,87.09Z"/><path class="cls-5" d="M239,100.53s-2.42-24.87-4.27-32.12c-3.56-14-20.92-20.53-36.22-13.65-14.8,6.65-16.55,26.86-16.55,26.86s-2.24,27.1-2.24,0,23.53-58,64.07-58c6.48,0,11.54-1.4,17.13,0,29.44,7.34,47.28,34.38,47.28,58,0,25-2.24,0-2.24,0s.61-11.93-7.68-20.47a29,29,0,0,0-8.87-6.39c-15.3-6.88-35.83-1.5-36.22,13.65-.2,7.48-4.27,32.12-4.27,32.12Z"/><path class="cls-6" d="M319.56,103.94c0,20.33-17.74,38.71-39.7,38.71-1.77,0-5.63.6-7.34.4-19.48-2.37-32.41-18.51-32.41-37.19,0-20.33,17.8-36.8,39.75-36.8S319.56,83.62,319.56,103.94Z"/><path class="cls-6" d="M247.74,106.72c0,20.8-18.22,37.66-40.69,37.66-18.72,0-35-12.59-39.68-29.07-1-3.29-.92-7.45-.92-10.91,0-20.8,18.13-35.34,40.6-35.34S247.74,85.92,247.74,106.72Z"/><path class="cls-13" d="M249.51,131.37H237.09a1.07,1.07,0,0,1-1.13-1.1v-12.1h14.7v12.14A1,1,0,0,1,249.51,131.37Z"/><path class="cls-5" d="M239,100.53s-2.42-24.87-4.26-32.12c-3.56-14,19.9-14.38,18.45,0-.94,9.27-2.54,32.12-2.54,32.12Z"/><path class="cls-5" d="M208.46,33.15c.88.33,1.19-2.91-.14-4.65,1.84.32,3.76,1.05,3.21,3.4L207,35.22l-4.78,3.5a3.19,3.19,0,0,1-.43-1.83c.17-.79.67-2.33-.12-3.18a4.48,4.48,0,0,1,2.37,1.5c1,1.25,2.59-1.61-.45-4.75C208.78,30.52,207.94,32.86,208.46,33.15Z"/><polygon class="cls-14" points="250.66 125.79 235.96 127.19 235.96 118.17 250.66 118.17 250.66 125.79"/><path class="cls-11" d="M243.72,109.86c0,11.8-7.16,22.08-20.85,22.08s-27-7.73-27-19.53,11.87-20.92,25.57-20.92S243.72,98.07,243.72,109.86Z"/><path class="cls-11" d="M287.1,116c-3,11.4-12.55,19.52-25.78,16s-24.11-14.35-21.1-25.75,16.81-17.2,30-13.71S290.1,104.61,287.1,116Z"/><path class="cls-15" d="M173.18,155.45c9.65-1.95,20.71,20.53,26.21,15.07v0l-12.08-18.56L173,152.8l-4.88,1.66A11,11,0,0,0,173.18,155.45Z"/><path class="cls-16" d="M247.9,109.86c0,11.8-12.85,20.26-26.54,20.26s-23-8.46-23-20.26,11.1-21.35,24.79-21.35S247.9,98.07,247.9,109.86Z"/><path class="cls-16" d="M288.8,108.54c0,11.8-10.88,22.83-24.57,22.83s-24.79-9.56-24.79-21.35,11.1-21.35,24.79-21.35S288.8,96.75,288.8,108.54Z"/><path class="cls-12" d="M255.33,100.2c0,4.9-8.24,9.66-11.53,9.66s-11.54-4.76-11.54-9.66,5.17-8.88,11.54-8.88S255.33,95.29,255.33,100.2Z"/><polygon class="cls-16" points="198.29 197.6 243.83 184.18 289.36 197.6 289.36 212.82 243.83 264.26 198.29 212.82 198.29 197.6"/><path class="cls-13" d="M289.74,66.69c3.61,15-18.71,28.48-29.54,14.11-4-6.8-2.12-13.63,10-18.46C277.65,59.35,288.08,60.8,289.74,66.69Z"/><path class="cls-17" d="M260.64,70.07a12.31,12.31,0,1,0,15.47-8A12.3,12.3,0,0,0,260.64,70.07Z"/><path class="cls-5" d="M291.51,68.4a38.61,38.61,0,0,0-31-.59A24.76,24.76,0,0,1,287,60.27C296.34,63,291.51,68.4,291.51,68.4Z"/><path class="cls-14" d="M264.35,71A2.08,2.08,0,1,0,267,69.68,2.1,2.1,0,0,0,264.35,71Z"/><path class="cls-18" d="M278.46,82.2c-.15-.56-1.86-.24-2.42-.09a1,1,0,0,0-.73,1.29c.15.56.78.54,1.34.39S278.61,82.76,278.46,82.2Z"/><path class="cls-13" d="M197.32,66.8c-3.13,15.1,19.61,27.87,30,13.17C231.09,73,229,66.28,216.74,61.83,209.18,59.08,198.8,60.86,197.32,66.8Z"/><path class="cls-17" d="M226.52,69.26a12.31,12.31,0,1,1-15.72-7.5A12.3,12.3,0,0,1,226.52,69.26Z"/><path class="cls-5" d="M195.61,68.57A38.59,38.59,0,0,1,226.55,67a24.75,24.75,0,0,0-26.69-6.69C190.61,63.33,195.61,68.57,195.61,68.57Z"/><path class="cls-14" d="M222.84,70.33a2.08,2.08,0,1,1-2.66-1.26A2.09,2.09,0,0,1,222.84,70.33Z"/><path class="cls-18" d="M209.09,82c.13-.57,1.85-.3,2.41-.17a1,1,0,0,1,.78,1.26c-.13.57-.76.57-1.33.44S209,82.51,209.09,82Z"/><path class="cls-6" d="M230.73,25.19c.65-5.18,17.84-5.58,17.92-2.71,0,0-16.08,15.41.78,22C226,46.35,229.16,25.84,230.73,25.19Z"/><path class="cls-19" d="M250.42,232.63l-4.62-.1,0-1.06,2.83.06a.55.55,0,0,0,.57-.55l.06-2.83a.57.57,0,0,0-.55-.58l-4.77-.1.21-9.76a11.36,11.36,0,1,0-3.45-.14L240.28,238h0a1.81,1.81,0,1,0,3.62.13l6.4.14a.57.57,0,0,0,.58-.55l.1-4.53A.58.58,0,0,0,250.42,232.63Zm-15.71-26.4a8.2,8.2,0,1,1,8,8.38A8.22,8.22,0,0,1,234.71,206.23Z"/></g></g></svg>