<svg width="48" height="48" viewBox="0 0 48 48" fill="none" xmlns="http://www.w3.org/2000/svg">
<g clip-path="url(#clip0_4_75)">
<path d="M38 0H10C4.47715 0 0 4.47715 0 10V38C0 43.5228 4.47715 48 10 48H38C43.5228 48 48 43.5228 48 38V10C48 4.47715 43.5228 0 38 0Z" fill="#888888"/>
<g clip-path="url(#clip1_4_75)">
<path d="M16.1332 23.5468C16.1332 23.9622 15.9681 24.3607 15.6743 24.6545C15.3805 24.9483 14.9821 25.1134 14.5666 25.1134C14.1511 25.1134 13.7526 24.9483 13.4588 24.6545C13.1651 24.3607 13 23.9622 13 23.5468C13.0009 21.3544 13.6286 19.2079 14.8093 17.3605C15.9899 15.5132 17.6742 14.0419 19.6635 13.1203C21.6527 12.1987 23.8641 11.8651 26.0367 12.1589C28.2093 12.4527 30.2527 13.3617 31.9257 14.7785V13.5588C31.9257 13.1433 32.0908 12.7448 32.3846 12.451C32.6783 12.1573 33.0768 11.9922 33.4923 11.9922C33.9078 11.9922 34.3063 12.1573 34.6 12.451C34.8938 12.7448 35.0589 13.1433 35.0589 13.5588V18.4982C35.0589 18.9116 34.8947 19.3081 34.6023 19.6005C34.31 19.8928 33.9135 20.057 33.5001 20.057L28.7477 20.4993C28.5437 20.5177 28.338 20.4958 28.1424 20.4347C27.9468 20.3737 27.7652 20.2747 27.6078 20.1434C27.4505 20.0121 27.3206 19.8512 27.2255 19.6697C27.1304 19.4882 27.0719 19.2898 27.0535 19.0857C27.0351 18.8816 27.057 18.6759 27.1181 18.4803C27.1792 18.2848 27.2782 18.1031 27.4094 17.9458C27.5407 17.7885 27.7017 17.6586 27.8832 17.5634C28.0646 17.4683 28.2631 17.4099 28.4671 17.3915L30.0259 17.2492C28.815 16.1907 27.3249 15.5031 25.7337 15.2685C24.1425 15.0339 22.5175 15.2622 21.0525 15.9263C19.5876 16.5903 18.3448 17.662 17.4725 19.0133C16.6002 20.3646 16.1352 21.9384 16.1332 23.5468ZM20.5699 27.3658C20.9833 27.3286 21.3946 27.4571 21.7132 27.7232C22.0319 27.9892 22.2318 28.3709 22.269 28.7843C22.3062 29.1977 22.1776 29.609 21.9116 29.9276C21.6456 30.2463 21.2639 30.4462 20.8505 30.4834L18.8864 30.6607C20.088 31.7495 21.58 32.4658 23.1811 32.7225C24.7821 32.9792 26.4233 32.7652 27.905 32.1066C29.3868 31.448 30.6453 30.3731 31.5275 29.0126C32.4098 27.6521 32.8778 26.0646 32.8746 24.4431C32.8746 24.0276 33.0397 23.6291 33.3335 23.3353C33.6273 23.0415 34.0257 22.8765 34.4412 22.8765C34.8567 22.8765 35.2552 23.0415 35.549 23.3353C35.8428 23.6291 36.0078 24.0276 36.0078 24.4431C36.0081 26.607 35.3976 28.7271 34.2465 30.5596C33.0954 32.392 31.4505 33.8623 29.501 34.8015C27.5514 35.7406 25.3764 36.1105 23.226 35.8685C21.0756 35.6264 19.0372 34.7824 17.3451 33.4334V34.2479C17.3451 34.6634 17.1801 35.0618 16.8863 35.3556C16.5925 35.6494 16.194 35.8145 15.7786 35.8145C15.3631 35.8145 14.9646 35.6494 14.6708 35.3556C14.377 35.0618 14.212 34.6634 14.212 34.2479V29.3689C14.2104 28.9783 14.3555 28.6014 14.6186 28.3128C14.8816 28.0241 15.2434 27.8447 15.6324 27.8101L20.564 27.3619L20.5699 27.3658Z" fill="white"/>
</g>
</g>
<defs>
<clipPath id="clip0_4_75">
<rect width="48" height="48" fill="white"/>
</clipPath>
<clipPath id="clip1_4_75">
<rect width="23" height="23.9431" fill="white" transform="translate(13 12)"/>
</clipPath>
</defs>
</svg>
