<svg width="27" height="27" viewBox="0 0 27 27" fill="none" xmlns="http://www.w3.org/2000/svg">
<rect width="27" height="27" rx="5" fill="#666666"/>
<path d="M14.7142 22.0729V16.8561H12.2649V22.0729C11.5031 22.2272 10.9824 22.5261 10.9824 22.8732H15.9967C15.9967 22.5261 15.476 22.2272 14.7142 22.0729Z" fill="white"/>
<path d="M16.1993 4.82129H10.78C10.6836 4.82129 10.6064 4.89843 10.6064 4.99486V16.1806C10.6064 16.277 10.6836 16.3541 10.78 16.3541H12.0529L12.3036 15.8334H14.7047L14.9264 16.3541H16.1993C16.2957 16.3541 16.3729 16.277 16.3729 16.1806V4.99486C16.3729 4.89843 16.2957 4.82129 16.1993 4.82129ZM15.8522 14.6088C15.8522 14.7052 15.775 14.7824 15.6786 14.7824H11.3104C11.2139 14.7824 11.1368 14.7052 11.1368 14.6088V6.04593C11.1368 5.9495 11.2139 5.87236 11.3104 5.87236H15.6786C15.775 5.87236 15.8522 5.9495 15.8522 6.04593V14.6088Z" fill="white"/>
</svg>
