<svg width="28" height="28" viewBox="0 0 28 28" fill="none" xmlns="http://www.w3.org/2000/svg">
<g clip-path="url(#clip0_123_15)">
<path d="M21.72 0H5.8C2.59675 0 0 2.59675 0 5.8V21.72C0 24.9233 2.59675 27.52 5.8 27.52H21.72C24.9233 27.52 27.52 24.9233 27.52 21.72V5.8C27.52 2.59675 24.9233 0 21.72 0Z" fill="#A1D97D"/>
<path d="M16.1698 21.71C16.4398 21.9 16.7598 22.01 17.0898 22.01C17.3398 22.01 17.5898 21.95 17.8298 21.83L20.5298 20.4C20.7198 20.3 20.8898 20.16 21.0198 20C21.4998 19.56 21.6798 18.85 21.4098 18.21C20.2798 15.58 18.6498 12.64 15.7598 11.69C15.7598 11.69 15.7698 11.69 15.7798 11.69C16.6998 11.69 17.4498 10.92 17.4498 10.06C17.4498 9.63997 17.2698 9.27997 16.9798 9.02997C16.9798 8.96997 16.9798 8.91997 16.9798 8.85997C16.9798 8.29997 16.8398 7.74997 16.5798 7.28997C16.6298 7.11997 16.6698 6.95997 16.6898 6.73997C16.7198 6.40997 16.7198 5.92997 16.6898 5.65997C16.5898 4.95997 16.2898 4.51997 16.0998 4.41997C15.8098 4.25997 15.0698 5.05997 14.7198 5.91997C14.4398 5.84997 14.1298 5.80997 13.7998 5.80997C13.4698 5.80997 13.1298 5.84997 12.8398 5.92997C12.4798 5.06997 11.7398 4.27997 11.4498 4.44997C11.1398 4.61997 10.6298 5.91997 10.9698 7.35997C10.7298 7.80997 10.5998 8.32997 10.5998 8.86997C10.5998 8.97997 10.6098 9.08997 10.6298 9.19997C10.4298 9.43997 10.3198 9.73997 10.3198 10.07C10.3198 10.87 10.9698 11.59 11.8098 11.69C8.89979 12.62 7.25979 15.58 6.12979 18.22C5.85979 18.86 6.03979 19.57 6.51979 20.01C6.64979 20.17 6.80979 20.31 7.00979 20.41L9.70979 21.84C9.94979 21.97 10.1998 22.02 10.4498 22.02C10.7998 22.02 11.1298 21.91 11.4098 21.7L13.7798 23.13M11.6698 14.4L12.4498 14.85L15.3798 16.52L13.7798 17.34L11.0898 15.93L10.0098 15.37L11.6798 14.41L11.6698 14.4ZM15.9998 16.2L13.2198 14.61L12.2598 14.06L12.5098 13.91L13.8198 13.15L15.0798 13.88L17.6398 15.36L16.4998 15.94L15.9998 16.2ZM13.4598 22.51L11.6498 21.46C11.7298 21.37 11.7998 21.28 11.8498 21.17C12.2598 20.4 11.9598 19.44 11.1898 19.03L9.67979 18.23V15.9L10.6898 16.43L13.4598 17.88V22.52V22.51ZM17.9298 18.2L16.3698 19.02C15.5998 19.43 15.2998 20.39 15.7098 21.16C15.7698 21.28 15.8498 21.39 15.9398 21.48L14.0798 22.55V17.85L16.8898 16.41L17.9698 15.86V18.15L17.9298 18.17V18.2Z" fill="white"/>
</g>
<defs>
<clipPath id="clip0_123_15">
<rect width="27.52" height="27.52" fill="white"/>
</clipPath>
</defs>
</svg>
