<svg width="48" height="48" viewBox="0 0 48 48" fill="none" xmlns="http://www.w3.org/2000/svg">
<g clip-path="url(#clip0_3_31)">
<path d="M38 0H10C4.47715 0 0 4.47715 0 10V38C0 43.5228 4.47715 48 10 48H38C43.5228 48 48 43.5228 48 38V10C48 4.47715 43.5228 0 38 0Z" fill="#888888"/>
<g clip-path="url(#clip1_3_31)">
<path d="M32.9112 36.6714L32.0943 36.5249L31.6845 37.2603C31.6818 37.2658 31.6791 37.2712 31.6736 37.2739C31.5027 37.4856 31.3452 37.4802 31.2095 37.3689C31.063 37.2495 30.9653 36.9944 30.9029 36.8261L30.8785 36.7637L30.0127 35.1299C29.9856 35.0783 30.0046 35.0159 30.0561 34.9915C30.0616 34.9888 30.067 34.9861 30.0697 34.9861C30.1593 34.9562 30.2597 34.8938 30.3682 34.8124C30.4822 34.7282 30.6016 34.6224 30.7238 34.5138C30.7455 34.4948 30.7726 34.484 30.8025 34.4867C31.0359 34.4921 31.2638 34.4731 31.4674 34.4053C31.6682 34.3374 31.8528 34.218 32.0102 34.0172C32.0454 33.9711 32.1106 33.9629 32.154 33.9982C32.1649 34.0091 32.1757 34.0199 32.1811 34.0335L33.1826 35.9658L33.2694 36.1531C33.2721 36.1585 33.2749 36.1639 33.2749 36.1693C33.3156 36.3132 33.3237 36.438 33.2749 36.533C33.2206 36.6388 33.1147 36.6931 32.9356 36.6796C32.9302 36.6768 32.9193 36.6741 32.9112 36.6714ZM15.7103 33.8571C17.2464 31.8406 18.5572 32.7579 20.3918 34.0389C20.4841 34.104 20.5764 34.1665 20.6686 34.2316C20.9319 34.4134 21.206 34.3809 21.4828 34.2452C21.7813 34.0959 22.0826 33.8299 22.3811 33.5667L22.3866 33.564C22.6552 33.3279 22.9185 33.0945 23.2007 32.9153C23.2496 32.8855 23.312 32.8991 23.3419 32.9479L23.7598 33.6047C23.7897 33.6535 23.7761 33.7159 23.7272 33.7458C23.5101 33.8842 23.274 34.0932 23.0325 34.3076L23.027 34.313C22.6091 34.6821 22.1803 35.0593 21.7081 35.2547C21.2196 35.4556 20.6931 35.4556 20.1069 35.0485L19.8273 34.8531C19.1217 34.3591 18.5165 33.9385 17.9737 33.8055C17.4526 33.6807 16.9777 33.8299 16.4973 34.4596C16.462 34.5057 16.3969 34.5138 16.3535 34.4786L15.732 34.0036C15.6831 33.9683 15.675 33.9032 15.7103 33.8571ZM32.5828 8.06115C32.4037 8.26469 32.2626 8.47095 32.1567 8.6745C32.0454 8.89161 31.9695 9.10872 31.9287 9.32855C31.8826 9.57281 31.8745 9.82249 31.9016 10.0776C31.9287 10.3354 31.9884 10.6014 32.078 10.8728L32.2598 11.4291C32.2761 11.4834 32.249 11.5404 32.1947 11.5594C32.1839 11.5621 32.173 11.5648 32.1621 11.5648H13.0425V36.8668C13.0425 36.875 13.0425 36.8804 13.0398 36.8858C13.0425 37.3309 13.0886 37.7136 13.1863 38.0338C13.2813 38.3513 13.4224 38.6092 13.6151 38.7964C13.7997 38.9783 14.0412 39.1058 14.3397 39.1791C14.6464 39.2524 15.0155 39.2659 15.447 39.2171C20.9536 38.7367 29.0357 39.2117 34.8245 39.2117V10.577C34.8245 10.5715 34.8245 10.5634 34.8272 10.558V10.5553C34.8516 10.0152 34.8028 9.58909 34.697 9.25528C34.5938 8.92961 34.431 8.69349 34.2247 8.52523C34.0266 8.36511 33.7824 8.25384 33.5001 8.18327C33.226 8.11 32.9166 8.07472 32.5828 8.06115ZM11.9841 11.5648H8.10313C8.04614 11.5648 8 11.5187 8 11.4617L8.01628 11.0193C8.03257 10.5661 8.08685 10.1346 8.18726 9.73293C8.28768 9.32855 8.43423 8.95403 8.63506 8.61208C8.84403 8.26198 9.10457 7.94988 9.43296 7.68391C9.75863 7.41795 10.1467 7.20083 10.6108 7.03257C10.6162 7.02985 10.6217 7.02985 10.6271 7.02714L10.7709 7C10.7736 7 10.7818 7 10.7872 7H33.3671C33.4214 7 33.4675 7.04342 33.4703 7.0977C33.7145 7.14112 33.9452 7.20354 34.1623 7.29039C34.4283 7.39352 34.6725 7.53193 34.8896 7.70834C35.2262 7.98244 35.4894 8.34611 35.6604 8.82105C35.8287 9.28513 35.9074 9.86048 35.8775 10.5661V10.577V35.7134H38.7868C38.8276 35.7134 38.8628 35.7161 38.8927 35.7188C38.9008 35.7161 38.909 35.7161 38.9171 35.7161H38.9415C39.1695 35.7161 39.3351 35.7134 39.4735 35.746C39.6255 35.7812 39.7394 35.8518 39.848 35.9902C40.0135 36.2046 40.0054 36.381 39.9891 36.7013V36.7067C39.9837 36.799 39.9783 36.9157 39.9783 37.1029C39.9783 37.8655 39.8453 38.468 39.601 38.9403C39.3513 39.4152 38.9904 39.7544 38.5372 39.9851C38.1409 40.186 37.6796 40.2945 37.1693 40.3352C36.6673 40.3732 36.1136 40.3461 35.5247 40.2755H15.523C14.9422 40.3379 14.432 40.3054 13.9924 40.186C13.5473 40.0638 13.1728 39.8521 12.8688 39.5509C12.5703 39.2551 12.3477 38.8778 12.2012 38.4273C12.0573 37.9877 11.9868 37.4747 11.9868 36.8912C11.9868 36.8858 11.9841 36.8777 11.9841 36.8695V11.5648ZM30.892 9.13044C30.9327 8.91875 30.9924 8.71249 31.0766 8.50623C31.1363 8.35425 31.2095 8.20499 31.2964 8.05572H10.8768C10.5674 8.17785 10.3041 8.32983 10.087 8.51166C9.86447 8.69621 9.68535 8.91061 9.54423 9.14943C9.4221 9.35569 9.32711 9.58366 9.25384 9.82792C9.19142 10.0423 9.14528 10.2703 9.11271 10.5091H30.8974C30.8595 10.2974 30.8377 10.0885 30.8323 9.87948C30.8269 9.62709 30.8459 9.3774 30.892 9.13044ZM35.8802 36.7691V39.2524C36.3145 39.2958 36.7188 39.3094 37.0798 39.2822C37.4597 39.2524 37.7908 39.1791 38.0622 39.0407C38.3309 38.905 38.5453 38.6906 38.6919 38.3812C38.8438 38.0637 38.9253 37.643 38.9253 37.1002C38.9253 37.0242 38.928 36.9428 38.9307 36.8614L38.9361 36.7555C38.9198 36.7637 38.9008 36.7691 38.8818 36.7691H38.8764C38.8547 36.7691 38.8357 36.7718 38.8167 36.7691H35.8802ZM16.1011 15.8203C15.9545 15.8203 15.8243 15.7606 15.7293 15.6656C15.6343 15.5706 15.5746 15.4376 15.5746 15.2938C15.5746 15.1472 15.6343 15.017 15.7293 14.922C15.8243 14.827 15.9572 14.7673 16.1011 14.7673H28.3626C28.5092 14.7673 28.6395 14.827 28.7344 14.922C28.8294 15.017 28.8891 15.1499 28.8891 15.2938C28.8891 15.4403 28.8294 15.5706 28.7344 15.6656C28.6395 15.7606 28.5065 15.8203 28.3626 15.8203H16.1011ZM16.1011 20.1653C15.9545 20.1653 15.8216 20.1056 15.7266 20.0106C15.6316 19.9156 15.5719 19.7826 15.5719 19.6388C15.5719 19.4922 15.6316 19.362 15.7266 19.267C15.8216 19.172 15.9545 19.1123 16.1011 19.1123H31.1417C31.2883 19.1123 31.4212 19.172 31.5162 19.267C31.6112 19.362 31.6709 19.4949 31.6709 19.6388C31.6709 19.7853 31.6112 19.9156 31.5162 20.0106C31.4212 20.1056 31.2883 20.1653 31.1417 20.1653H16.1011ZM16.1011 24.5157C15.9545 24.5157 15.8243 24.456 15.7293 24.361C15.6343 24.266 15.5746 24.1331 15.5746 23.9892C15.5746 23.8427 15.6343 23.7124 15.7293 23.6147C15.8243 23.5197 15.9572 23.46 16.1038 23.46H28.1238C28.2704 23.46 28.4006 23.5197 28.4956 23.6147C28.5906 23.7097 28.6503 23.8427 28.6503 23.9865C28.6503 24.1331 28.5906 24.2633 28.4956 24.3583C28.4006 24.4533 28.2676 24.513 28.1238 24.513H16.1011V24.5157ZM16.1011 28.8689C15.9572 28.8689 15.8243 28.8092 15.7293 28.7142C15.6343 28.6192 15.5746 28.4862 15.5746 28.3396C15.5746 28.1931 15.6343 28.0601 15.7293 27.9651C15.8243 27.8701 15.9572 27.8104 16.1011 27.8104H22.3214C22.4653 27.8104 22.5982 27.8701 22.6932 27.9651C22.7882 28.0601 22.8479 28.1931 22.8479 28.3396C22.8479 28.4862 22.7882 28.6192 22.6932 28.7142C22.5982 28.8092 22.4653 28.8689 22.3214 28.8689H16.1011ZM29.6002 27.6557C29.6979 27.6503 29.7847 27.6666 29.8662 27.6937C29.9449 27.7209 30.0181 27.7616 30.0941 27.8077C30.1701 27.8566 30.2488 27.9217 30.3329 27.995L30.3384 28.0004C30.4442 28.09 30.5609 28.1904 30.6912 28.2637C30.797 28.3234 30.9544 28.3288 31.12 28.3369C31.4321 28.3478 31.7713 28.3614 31.9966 28.6952C32.1893 28.9856 32.2056 29.2054 32.2191 29.4252L32.2218 29.4496C32.2273 29.5555 32.2408 29.6559 32.2788 29.7645C32.3168 29.8757 32.382 29.9951 32.4905 30.1417C32.6941 30.4104 32.8162 30.6383 32.8623 30.8473C32.9112 31.0671 32.8786 31.2653 32.7673 31.4661L32.7646 31.4715C32.6805 31.6154 32.5584 31.7212 32.4525 31.8108C32.3738 31.8786 32.3033 31.9383 32.2816 31.9872C32.2246 32.1202 32.2218 32.2423 32.2218 32.3698C32.2191 32.5435 32.2164 32.7226 32.1024 32.9506L32.0997 32.956C32.0264 33.0972 31.9342 33.2166 31.8229 33.3116C31.7089 33.4093 31.5759 33.4825 31.4239 33.5314C31.2883 33.5748 31.1634 33.5667 31.0413 33.5585C30.9409 33.5504 30.8486 33.545 30.778 33.5748L30.7699 33.5775C30.6233 33.64 30.4904 33.7485 30.3628 33.8489C30.2217 33.9629 30.0887 34.0688 29.9367 34.1176C29.8254 34.1529 29.7142 34.1692 29.6029 34.1692C29.4916 34.1692 29.3804 34.1529 29.2691 34.1176L29.2637 34.1149C29.1144 34.0688 28.9814 33.9602 28.8403 33.8462C28.7127 33.7431 28.577 33.6345 28.4278 33.5721C28.3572 33.5423 28.2649 33.5504 28.1645 33.5558C28.0451 33.564 27.9175 33.5721 27.7791 33.5287L27.771 33.526C27.6217 33.4771 27.4915 33.4038 27.3775 33.3089C27.2662 33.2112 27.1712 33.0917 27.1007 32.9479C26.9867 32.7199 26.984 32.5408 26.9812 32.3671C26.9785 32.2396 26.9785 32.1174 26.9215 31.9845L26.9188 31.9817C26.8944 31.9302 26.8238 31.8705 26.7451 31.8026C26.6366 31.7103 26.5144 31.6072 26.433 31.4634L26.4276 31.4552C26.3163 31.2571 26.2865 31.0617 26.3353 30.8419C26.3815 30.6329 26.5063 30.4049 26.7099 30.1363C26.8211 29.9924 26.8835 29.8703 26.9215 29.759C26.9595 29.6505 26.9731 29.5473 26.9785 29.4415L26.9812 29.4198C26.9948 29.2 27.0111 28.9747 27.2038 28.6897L27.2092 28.6843C27.4318 28.3559 27.7683 28.3451 28.0777 28.3342C28.2432 28.3288 28.4033 28.3206 28.5092 28.2609L28.5119 28.2582C28.6395 28.185 28.7562 28.0873 28.862 27.995C28.9461 27.9217 29.0248 27.8539 29.1063 27.805C29.1795 27.7562 29.2555 27.7182 29.3342 27.691C29.4184 27.6666 29.5052 27.653 29.6002 27.6557ZM30.8649 29.6478C30.5419 29.3248 30.0968 29.124 29.6029 29.124C29.109 29.124 28.6639 29.3248 28.3409 29.6478C28.018 29.9707 27.8171 30.4158 27.8171 30.9097C27.8171 31.4037 28.018 31.8488 28.3409 32.1717C28.6639 32.4947 29.109 32.6955 29.6029 32.6955C30.0968 32.6955 30.5419 32.4947 30.8649 32.1717C31.1878 31.8488 31.3887 31.4037 31.3887 30.9097C31.386 30.4185 31.1878 29.9707 30.8649 29.6478ZM27.1115 36.5249L26.2946 36.6714C26.2865 36.6741 26.2783 36.6741 26.2675 36.6741C26.0884 36.6877 25.9825 36.6334 25.9282 36.5276C25.8794 36.4353 25.8875 36.3105 25.9282 36.1639L25.9337 36.1476L26.0205 35.9604L27.022 34.028C27.0274 34.0145 27.0382 34.0036 27.0491 33.9928C27.0952 33.9575 27.1576 33.9656 27.1929 34.0118C27.3476 34.2099 27.5322 34.3293 27.7357 34.3999C27.942 34.4704 28.1672 34.4867 28.4006 34.4813C28.4278 34.4786 28.4549 34.4867 28.4793 34.5084C28.6015 34.617 28.7209 34.7228 28.8349 34.8069C28.9434 34.8884 29.0438 34.9508 29.1334 34.9806L29.147 34.9861C29.1985 35.0132 29.2175 35.0756 29.1904 35.1245L28.3246 36.7583L28.3002 36.8207C28.2378 36.9889 28.1401 37.2441 27.9935 37.3635C27.8578 37.472 27.7031 37.4802 27.5295 37.2685C27.5267 37.2631 27.5213 37.2603 27.5186 37.2549L27.1115 36.5249Z" fill="white"/>
</g>
</g>
<defs>
<clipPath id="clip0_3_31">
<rect width="48" height="48" fill="white"/>
</clipPath>
<clipPath id="clip1_3_31">
<rect width="32" height="33.3488" fill="white" transform="translate(8 7)"/>
</clipPath>
</defs>
</svg>
