<svg xmlns="http://www.w3.org/2000/svg" viewBox="0 0 44.51 44.51"><defs><style>.cls-1{fill:#fff;}</style></defs><g id="Layer_2" data-name="Layer 2"><g id="Layer_1-2" data-name="Layer 1"><polygon class="cls-1" points="19.26 26.75 27.06 22.26 19.26 17.76 19.26 26.75"/><path class="cls-1" d="M22.25,0A22.26,22.26,0,1,0,44.51,22.25,22.25,22.25,0,0,0,22.25,0Zm15,22.28a38.7,38.7,0,0,1-.63,7.21A3.74,3.74,0,0,1,34,32.14c-2.36.61-11.76.61-11.76.61s-9.36,0-11.73-.63a3.81,3.81,0,0,1-2.65-2.65,39.82,39.82,0,0,1-.61-7.21A40.3,40.3,0,0,1,7.86,15a3.89,3.89,0,0,1,2.65-2.67c2.36-.61,11.73-.61,11.73-.61s9.4,0,11.76.65A3.74,3.74,0,0,1,36.63,15,37.47,37.47,0,0,1,37.26,22.28Z"/></g></g></svg>