<?xml version="1.0" standalone="no"?>
<!DOCTYPE svg PUBLIC "-//W3C//DTD SVG 1.1//EN" "http://www.w3.org/Graphics/SVG/1.1/DTD/svg11.dtd" >
<svg xmlns="http://www.w3.org/2000/svg" xmlns:xlink="http://www.w3.org/1999/xlink" version="1.1">
<metadata>
Created by FontForge 20190801 at Mon Sep  5 16:29:36 2016
 By Jimmy Wärting
\251 2012 - 2016 by Stawix Ruecha &#38; Foundry. All rights reserved. @KASE27.
</metadata>
<defs>
<font id="SoinSansNeue-Light" horiz-adv-x="500" >
  <font-face 
    font-family="Soin Sans Neue"
    font-weight="300"
    font-style="italic"
    font-stretch="normal"
    units-per-em="1000"
    panose-1="2 11 3 4 3 2 0 1 1 2"
    ascent="750"
    descent="-250"
    x-height="432"
    cap-height="700"
    bbox="-116 -277 1337 1135"
    underline-thickness="55"
    underline-position="-100"
    slope="-180"
    stemh="57"
    stemv="62"
    unicode-range="U+000D-FB02"
  />
<missing-glyph horiz-adv-x="560" 
d="M30 0v706h500v-706h-500zM302 353l184 -281v562zM257 353l-183 281v-562zM280 318l-180 -278h360zM100 666l180 -278l180 278h-360z" />
    <glyph glyph-name=".notdef" horiz-adv-x="560" 
d="M30 0v706h500v-706h-500zM302 353l184 -281v562zM257 353l-183 281v-562zM280 318l-180 -278h360zM100 666l180 -278l180 278h-360z" />
    <glyph glyph-name="nul" horiz-adv-x="0" 
 />
    <glyph glyph-name="space" unicode=" " horiz-adv-x="244" 
 />
    <glyph glyph-name="numbersign" unicode="#" horiz-adv-x="704" 
d="M95 461v51h125l35 188h57l-35 -188h210l35 188h57l-35 -188h106v-51h-116l-41 -222h117v-51h-126l-35 -188h-57l35 188h-210l-35 -188h-57l35 188h-105v51h114l41 222h-115zM267 461l-41 -222h210l41 222h-210z" />
    <glyph glyph-name="dollar" unicode="$" horiz-adv-x="648" 
d="M357 800v-94c117 -11 186 -69 199 -159h-57c-11 58 -59 97 -142 106v-277l54 -12c111 -24 169 -80 169 -176c0 -123 -92 -187 -223 -195v-93h-53v93c-139 6 -231 66 -244 174h59c11 -75 78 -116 185 -122v284l-41 9c-112 25 -188 79 -188 184c0 117 87 183 229 186v92h53
zM135 524c0 -74 59 -112 149 -131l20 -5v267c-107 -3 -169 -46 -169 -131zM391 310l-34 7v-271c99 8 162 56 162 139c0 64 -45 106 -128 125z" />
    <glyph glyph-name="percent" unicode="%" horiz-adv-x="962" 
d="M292 0h-63l442 700h63zM228 706c101 0 175 -79 175 -178s-74 -178 -175 -178c-100 0 -174 79 -174 178s74 178 174 178zM228 402c70 0 120 54 120 126s-50 126 -120 126c-69 0 -119 -54 -119 -126s50 -126 119 -126zM734 350c100 0 175 -79 175 -178s-75 -178 -175 -178
s-175 79 -175 178s75 178 175 178zM734 46c69 0 119 54 119 126s-50 126 -119 126s-119 -54 -119 -126s50 -126 119 -126z" />
    <glyph glyph-name="quoteright" unicode="&#x2019;" horiz-adv-x="242" 
d="M48 424l52 286h71l-73 -286h-50z" />
    <glyph glyph-name="parenleft" unicode="(" horiz-adv-x="422" 
d="M82 284c0 224 115 411 297 462v-55c-142 -48 -235 -202 -235 -407s93 -359 235 -407v-55c-182 51 -297 238 -297 462z" />
    <glyph glyph-name="parenright" unicode=")" horiz-adv-x="422" 
d="M339 284c0 -224 -114 -411 -297 -462v55c143 48 236 202 236 407s-93 359 -236 407v55c183 -51 297 -238 297 -462z" />
    <glyph glyph-name="plus" unicode="+" horiz-adv-x="606" 
d="M330 49h-54v166h-166v53h166v165h54v-165h166v-53h-166v-166z" />
    <glyph glyph-name="comma" unicode="," horiz-adv-x="227" 
d="M44 -128l44 241h71l-64 -241h-51z" />
    <glyph glyph-name="hyphen" unicode="-" horiz-adv-x="391" 
d="M50 191v51h292v-51h-292z" />
    <glyph glyph-name="period" unicode="." horiz-adv-x="236" 
d="M72 41c0 27 19 46 46 46s46 -19 46 -46c0 -26 -19 -46 -46 -46s-46 20 -46 46z" />
    <glyph glyph-name="slash" unicode="/" horiz-adv-x="507" 
d="M505 800l-442 -900h-61l442 900h61z" />
    <glyph glyph-name="colon" unicode=":" horiz-adv-x="237" 
d="M72 41c0 27 19 46 46 46s46 -19 46 -46c0 -26 -19 -46 -46 -46s-46 20 -46 46zM72 390c0 27 19 46 46 46s46 -19 46 -46c0 -26 -19 -46 -46 -46s-46 20 -46 46z" />
    <glyph glyph-name="semicolon" unicode=";" horiz-adv-x="235" 
d="M72 390c0 27 19 46 46 46s46 -19 46 -46c0 -26 -19 -46 -46 -46s-46 20 -46 46zM44 -128l44 241h71l-64 -241h-51z" />
    <glyph glyph-name="less" unicode="&#x3c;" horiz-adv-x="606" 
d="M106 217v50l390 194v-65l-324 -154l324 -154v-65z" />
    <glyph glyph-name="equal" unicode="=" horiz-adv-x="606" 
d="M490 360v-53h-374v53h374zM490 175v-53h-374v53h374z" />
    <glyph glyph-name="greater" unicode="&#x3e;" horiz-adv-x="606" 
d="M500 267v-50l-390 -194v65l324 154l-324 154v65z" />
    <glyph glyph-name="question" unicode="?" horiz-adv-x="592" 
d="M528 512c0 -112 -117 -179 -189 -217l-8 -93h-46l-8 118c80 39 190 91 190 190c0 86 -58 144 -180 144c-127 0 -184 -64 -191 -155h-58c9 122 88 210 250 210c158 0 240 -82 240 -197zM262 41c0 27 19 46 46 46s46 -19 46 -46c0 -26 -19 -46 -46 -46s-46 20 -46 46z" />
    <glyph glyph-name="A" unicode="A" horiz-adv-x="743" 
d="M648 0l-88 200h-378l-88 -200h-59l313 704h47l313 -704h-60zM371 626l-164 -371h328z" />
    <glyph glyph-name="B" unicode="B" horiz-adv-x="714" 
d="M106 700h295c138 0 228 -62 228 -180c0 -92 -54 -147 -123 -161c89 -8 147 -74 147 -169c0 -127 -91 -190 -243 -190h-304v700zM164 327v-273h246c119 0 183 42 183 139c0 99 -64 134 -188 134h-241zM164 646v-265h227c106 0 177 36 177 135c0 92 -61 130 -171 130h-233z
" />
    <glyph glyph-name="C" unicode="C" horiz-adv-x="814" 
d="M68 350c0 200 154 359 361 359c165 0 290 -96 324 -232h-62c-25 97 -121 176 -262 176c-174 0 -299 -130 -299 -303s125 -303 299 -303c141 0 238 79 263 176h62c-33 -136 -160 -232 -325 -232c-207 0 -361 159 -361 359z" />
    <glyph glyph-name="D" unicode="D" horiz-adv-x="774" 
d="M706 352c0 -204 -149 -352 -373 -352h-227v700h229c222 0 371 -146 371 -348zM165 56h168c197 0 311 122 311 296c0 171 -114 292 -309 292h-170v-588z" />
    <glyph glyph-name="E" unicode="E" horiz-adv-x="663" 
d="M586 0h-480v700h477v-55h-418v-265h394v-54h-394v-271h421v-55z" />
    <glyph glyph-name="F" unicode="F" horiz-adv-x="636" 
d="M165 0h-59v700h468v-55h-409v-278h381v-55h-381v-312z" />
    <glyph glyph-name="G" unicode="G" horiz-adv-x="833" 
d="M426 48c166 0 277 117 281 268h-276v54h336c1 -13 1 -23 1 -33c0 -204 -142 -346 -342 -346c-208 0 -358 159 -358 359c0 199 153 359 361 359c161 0 286 -95 318 -225h-62c-25 92 -122 168 -256 168c-174 0 -299 -130 -299 -302c0 -173 122 -302 296 -302z" />
    <glyph glyph-name="H" unicode="H" horiz-adv-x="779" 
d="M165 381h449v319h59v-700h-59v325h-449v-325h-59v700h59v-319z" />
    <glyph glyph-name="I" unicode="I" horiz-adv-x="282" 
d="M170 700v-700h-59v700h59z" />
    <glyph glyph-name="J" unicode="J" horiz-adv-x="594" 
d="M497 700v-457c0 -165 -96 -252 -231 -252c-134 0 -211 66 -226 174h58c11 -73 65 -118 166 -118c105 0 174 67 174 205v448h59z" />
    <glyph glyph-name="K" unicode="K" horiz-adv-x="702" 
d="M662 700l-317 -319l332 -381h-74l-297 342l-141 -142v-200h-59v700h59v-423l417 423h80z" />
    <glyph glyph-name="L" unicode="L" horiz-adv-x="606" 
d="M572 0h-466v700h59v-644h407v-56z" />
    <glyph glyph-name="M" unicode="M" horiz-adv-x="933" 
d="M443 138l-279 455v-593h-58v702h58l304 -498l303 498h56v-702h-59v593l-280 -455h-45z" />
    <glyph glyph-name="N" unicode="N" horiz-adv-x="794" 
d="M106 702h53l471 -609v607h58v-702h-53l-471 609v-607h-58v702z" />
    <glyph glyph-name="O" unicode="O" horiz-adv-x="852" 
d="M426 709c200 0 358 -159 358 -359s-158 -359 -358 -359s-358 159 -358 359s158 359 358 359zM426 48c166 0 296 129 296 302s-130 302 -296 302s-296 -129 -296 -302s130 -302 296 -302z" />
    <glyph glyph-name="P" unicode="P" horiz-adv-x="692" 
d="M165 323h219c127 0 192 56 192 161s-64 161 -192 161h-219v-322zM165 269v-269h-59v700h287c157 0 244 -81 244 -214s-91 -218 -247 -217h-225z" />
    <glyph glyph-name="R" unicode="R" horiz-adv-x="715" 
d="M165 269v-269h-59v700h301c155 0 242 -81 242 -214c0 -124 -79 -206 -215 -216l220 -270h-69l-219 269h-201zM165 323h232c125 0 191 56 191 161s-65 161 -191 161h-232v-322z" />
    <glyph glyph-name="S" unicode="S" horiz-adv-x="634" 
d="M320 46c109 0 187 49 187 139c0 64 -42 106 -136 127l-107 24c-120 27 -191 81 -191 186c0 120 94 186 234 186s223 -64 237 -161h-58c-12 64 -73 107 -180 107c-103 0 -173 -42 -173 -130c0 -74 55 -111 153 -134l107 -23c121 -27 174 -83 174 -179
c0 -131 -107 -196 -246 -196c-151 0 -251 65 -265 175h59c11 -76 87 -121 205 -121z" />
    <glyph glyph-name="T" unicode="T" horiz-adv-x="617" 
d="M584 700v-55h-246v-645h-59v645h-246v55h551z" />
    <glyph glyph-name="U" unicode="U" horiz-adv-x="775" 
d="M387 -9c-166 0 -287 102 -287 290v419h60v-409c0 -161 91 -244 228 -244s228 83 228 244v409h59v-419c0 -188 -121 -290 -288 -290z" />
    <glyph glyph-name="V" unicode="V" horiz-adv-x="729" 
d="M97 700l268 -628l268 628h61l-303 -704h-53l-303 704h62z" />
    <glyph glyph-name="W" unicode="W" horiz-adv-x="1112" 
d="M582 700l212 -609l213 609h61l-249 -704h-49l-214 600l-214 -600h-49l-249 704h63l210 -608l215 608h50z" />
    <glyph glyph-name="X" unicode="X" horiz-adv-x="725" 
d="M668 700l-269 -345l276 -355h-69l-243 316l-245 -316h-68l276 354l-268 346h69l236 -307l237 307h68z" />
    <glyph glyph-name="Y" unicode="Y" horiz-adv-x="664" 
d="M82 700l250 -367l250 367h66l-286 -420v-280h-60v280l-286 420h66z" />
    <glyph glyph-name="Z" unicode="Z" horiz-adv-x="687" 
d="M613 55v-55h-539v44l457 601h-449v55h526v-44l-456 -601h461z" />
    <glyph glyph-name="bracketleft" unicode="[" horiz-adv-x="379" 
d="M109 738h227v-52h-168v-804h168v-52h-227v908z" />
    <glyph glyph-name="backslash" unicode="\" horiz-adv-x="507" 
d="M63 800l442 -900h-61l-442 900h61z" />
    <glyph glyph-name="bracketright" unicode="]" horiz-adv-x="379" 
d="M270 -170h-228v52h168v804h-168v52h228v-908z" />
    <glyph glyph-name="quoteleft" unicode="&#x2018;" horiz-adv-x="242" 
d="M194 710l-52 -286h-71l73 286h50z" />
    <glyph glyph-name="a" unicode="a" horiz-adv-x="573" 
d="M50 216c0 125 94 223 219 223c71 0 130 -34 168 -85v78h55v-432h-55v77c-38 -50 -97 -84 -168 -84c-125 0 -219 97 -219 223zM107 216c0 -99 69 -173 165 -173c91 0 165 74 165 173s-74 172 -165 172c-96 0 -165 -73 -165 -172z" />
    <glyph glyph-name="b" unicode="b" horiz-adv-x="573" 
d="M524 216c0 -126 -95 -223 -220 -223c-72 0 -130 34 -168 84v-77h-55v700h56v-344c38 49 96 83 167 83c125 0 220 -98 220 -223zM466 216c0 99 -68 172 -164 172c-92 0 -166 -73 -166 -172s74 -173 166 -173c96 0 164 74 164 173z" />
    <glyph glyph-name="c" unicode="c" horiz-adv-x="518" 
d="M50 216c0 125 98 223 222 223c118 0 191 -69 204 -151h-57c-14 56 -64 100 -145 100c-96 0 -167 -73 -167 -172c0 -100 71 -172 167 -172c83 0 131 44 145 100h57c-12 -82 -85 -151 -203 -151c-125 0 -223 98 -223 223z" />
    <glyph glyph-name="d" unicode="d" horiz-adv-x="573" 
d="M50 216c0 125 94 223 219 223c71 0 129 -34 167 -83v344h56v-700h-55v77c-38 -50 -97 -84 -168 -84c-125 0 -219 97 -219 223zM107 216c0 -99 69 -173 165 -173c91 0 165 74 165 173s-74 172 -165 172c-96 0 -165 -73 -165 -172z" />
    <glyph glyph-name="e" unicode="e" horiz-adv-x="520" 
d="M268 -7c-128 0 -218 92 -218 223c0 132 88 223 213 223c128 0 209 -98 209 -221c0 -7 0 -13 -1 -25h-364c8 -97 73 -152 162 -152c71 0 127 33 141 86h52c-18 -79 -97 -134 -194 -134zM262 390c-85 0 -147 -55 -155 -151h309c-8 95 -70 151 -154 151z" />
    <glyph glyph-name="f" unicode="f" horiz-adv-x="358" 
d="M35 432h89v82c0 125 47 191 153 191c25 0 51 -4 65 -7v-49c-19 3 -36 5 -57 5c-80 0 -105 -47 -105 -148v-74h152v-50h-152v-382h-56v382h-89v50z" />
    <glyph glyph-name="g" unicode="g" horiz-adv-x="573" 
d="M436 12v68c-37 -49 -95 -82 -167 -82c-126 0 -219 99 -219 220s93 221 219 221c73 0 131 -35 168 -84v77h55v-430c0 -136 -89 -215 -219 -215c-121 0 -199 62 -209 142h55c12 -54 67 -92 152 -92c104 0 165 60 165 175zM436 218c0 95 -72 170 -165 170
c-97 0 -164 -75 -164 -170c0 -94 67 -170 164 -170c93 0 165 76 165 170z" />
    <glyph glyph-name="h" unicode="h" horiz-adv-x="549" 
d="M292 439c111 0 182 -71 182 -180v-259h-56v242c0 91 -46 145 -137 145c-84 0 -144 -56 -144 -148v-239h-56v700h56v-342c29 52 87 81 155 81z" />
    <glyph glyph-name="i" unicode="i" horiz-adv-x="221" 
d="M138 432v-432h-56v432h56zM71 576c0 23 15 39 39 39c25 0 40 -16 40 -39c0 -24 -15 -40 -40 -40c-24 0 -39 16 -39 40z" />
    <glyph glyph-name="j" unicode="j" horiz-adv-x="225" 
d="M86 -70v502h56v-510c0 -98 -43 -143 -123 -143c-19 0 -37 2 -51 5v49c14 -2 28 -3 41 -3c53 0 77 30 77 100zM75 576c0 23 15 39 39 39c25 0 40 -16 40 -39c0 -24 -15 -40 -40 -40c-24 0 -39 16 -39 40z" />
    <glyph glyph-name="k" unicode="k" horiz-adv-x="482" 
d="M454 432l-202 -177l207 -255h-67l-179 221l-76 -67v-154h-56v700h56v-482l241 214h76z" />
    <glyph glyph-name="l" unicode="l" horiz-adv-x="221" 
d="M138 700v-700h-56v700h56z" />
    <glyph glyph-name="m" unicode="m" horiz-adv-x="872" 
d="M618 439c108 0 179 -71 179 -179v-260h-56v243c0 90 -47 144 -133 144c-81 0 -141 -54 -141 -147v-240h-56v243c0 90 -47 144 -133 144c-81 0 -141 -54 -141 -147v-240h-56v432h55v-72c29 49 87 79 152 79c75 0 132 -35 160 -92c29 56 97 92 170 92z" />
    <glyph glyph-name="n" unicode="n" horiz-adv-x="549" 
d="M292 439c111 0 182 -71 182 -180v-259h-56v242c0 91 -46 145 -137 145c-84 0 -144 -56 -144 -148v-239h-56v432h55v-76c28 53 87 83 156 83z" />
    <glyph glyph-name="o" unicode="o" horiz-adv-x="547" 
d="M274 439c124 0 224 -98 224 -223s-100 -223 -224 -223c-125 0 -224 98 -224 223s99 223 224 223zM274 43c93 0 166 74 166 173s-73 172 -166 172c-94 0 -167 -73 -167 -172s73 -173 167 -173z" />
    <glyph glyph-name="p" unicode="p" horiz-adv-x="573" 
d="M524 216c0 -126 -95 -223 -220 -223c-71 0 -129 33 -167 83v-292h-56v648h55v-78c38 51 96 85 168 85c125 0 220 -98 220 -223zM466 216c0 99 -68 172 -164 172c-92 0 -166 -73 -166 -172s74 -173 166 -173c96 0 164 74 164 173z" />
    <glyph glyph-name="q" unicode="q" horiz-adv-x="573" 
d="M50 216c0 125 94 223 219 223c71 0 130 -34 168 -85v78h55v-670h-56v314c-38 -50 -96 -83 -167 -83c-125 0 -219 97 -219 223zM107 216c0 -99 69 -173 165 -173c91 0 165 74 165 173s-74 172 -165 172c-96 0 -165 -73 -165 -172z" />
    <glyph glyph-name="r" unicode="r" horiz-adv-x="356" 
d="M327 431v-51c-11 2 -25 3 -40 3c-103 0 -150 -65 -150 -164v-219h-56v432h55v-83c27 54 78 87 150 87c16 0 32 -3 41 -5z" />
    <glyph glyph-name="s" unicode="s" horiz-adv-x="412" 
d="M209 41c59 0 109 28 109 76c0 41 -24 60 -90 73l-53 11c-81 17 -125 51 -125 117c0 73 64 120 151 120c100 0 154 -49 162 -113h-53c-6 38 -46 66 -109 66c-55 0 -97 -28 -97 -70c0 -46 34 -62 87 -74l54 -11c82 -16 127 -52 127 -118c0 -78 -69 -125 -163 -125
c-104 0 -166 50 -175 120h53c7 -44 55 -72 122 -72z" />
    <glyph glyph-name="t" unicode="t" horiz-adv-x="391" 
d="M32 432h89v136h55v-136h172v-50h-172v-240c0 -72 31 -96 96 -96c28 0 56 6 78 14v-50c-20 -9 -55 -16 -86 -16c-92 0 -144 40 -144 140v248h-88v50z" />
    <glyph glyph-name="u" unicode="u" horiz-adv-x="547" 
d="M256 -7c-110 0 -181 70 -181 179v260h56v-242c0 -91 45 -146 136 -146c83 0 143 56 143 149v239h56v-432h-55v74c-30 -52 -87 -81 -155 -81z" />
    <glyph glyph-name="v" unicode="v" horiz-adv-x="481" 
d="M219 -2l-194 434h60l156 -358l157 358h58l-194 -434h-43z" />
    <glyph glyph-name="w" unicode="w" horiz-adv-x="766" 
d="M521 -2l-137 352l-139 -352h-43l-170 434h59l133 -352l137 352h48l133 -352l136 352h56l-170 -434h-43z" />
    <glyph glyph-name="x" unicode="x" horiz-adv-x="478" 
d="M448 432l-177 -215l181 -217h-67l-147 179l-146 -179h-65l181 217l-178 215h67l142 -177l144 177h65z" />
    <glyph glyph-name="y" unicode="y" horiz-adv-x="489" 
d="M84 432l166 -324l156 324h59l-317 -648h-60l132 267l-196 381h60z" />
    <glyph glyph-name="z" unicode="z" horiz-adv-x="480" 
d="M63 383v49h360v-39l-293 -345h295v-48h-369v39l292 344h-285z" />
    <glyph glyph-name="braceleft" unicode="{" horiz-adv-x="436" 
d="M67 255v58c71 2 131 47 123 135l-9 100c-9 124 47 190 178 190h35v-52h-35c-89 0 -125 -39 -119 -131l7 -100c7 -90 -36 -150 -104 -171c68 -21 111 -81 104 -171l-7 -100c-6 -92 30 -131 119 -131h35v-52h-35c-131 0 -187 66 -178 190l9 100c8 88 -52 133 -123 135z" />
    <glyph glyph-name="bar" unicode="|" horiz-adv-x="344" 
d="M200 700v-864h-56v864h56z" />
    <glyph glyph-name="braceright" unicode="}" horiz-adv-x="436" 
d="M369 313v-58c-71 -2 -131 -47 -123 -135l9 -100c9 -124 -47 -190 -178 -190h-35v52h35c89 0 125 39 119 131l-7 100c-7 90 36 150 104 171c-68 21 -111 81 -104 171l7 100c6 92 -30 131 -119 131h-35v52h35c131 0 187 -66 178 -190l-9 -100c-8 -88 52 -133 123 -135z" />
    <glyph glyph-name="cent" unicode="&#xa2;" horiz-adv-x="648" 
d="M367 532v-95c100 -10 164 -74 176 -149h-57c-13 49 -53 89 -119 98v-340c66 9 107 48 119 98h58c-12 -75 -75 -139 -177 -149v-95h-53v94c-114 11 -202 105 -202 222s88 211 202 222v94h53zM170 216c0 -92 60 -160 144 -171v341c-84 -11 -144 -80 -144 -170z" />
    <glyph glyph-name="sterling" unicode="&#xa3;" horiz-adv-x="648" 
d="M52 368h83v70c0 149 78 271 244 271c137 0 208 -85 218 -188h-58c-7 73 -58 133 -159 133c-134 0 -186 -93 -186 -219v-67h232v-51h-232v-262h402v-55h-544v55h83v262h-83v51z" />
    <glyph glyph-name="yen" unicode="&#xa5;" horiz-adv-x="648" 
d="M92 213h203v51l-33 52h-170v50h138l-210 334h64l240 -385l240 385h65l-211 -334h139v-50h-170l-33 -52v-51h203v-50h-203v-163h-59v163h-203v50z" />
    <glyph glyph-name="currency" unicode="&#xa4;" horiz-adv-x="650" 
d="M144 579l58 -59c35 24 77 39 123 39s88 -15 122 -39l59 59l49 -49l-59 -59c25 -34 39 -76 39 -121c0 -46 -14 -88 -39 -122l59 -58l-49 -49l-59 58c-34 -24 -76 -38 -122 -38s-88 14 -123 38l-58 -58l-49 49l58 58c-24 34 -38 76 -38 122c0 45 14 87 38 121l-58 59z
M325 199c81 0 143 64 143 151s-62 151 -143 151s-143 -64 -143 -151s62 -151 143 -151z" />
    <glyph glyph-name="quotesingle" unicode="'" horiz-adv-x="246" 
d="M92 710h62l-6 -288h-50z" />
    <glyph glyph-name="quotedblleft" unicode="&#x201c;" horiz-adv-x="417" 
d="M194 710l-52 -286h-71l73 286h50zM369 710l-52 -286h-71l73 286h50z" />
    <glyph glyph-name="endash" unicode="&#x2013;" horiz-adv-x="470" 
d="M34 191v51h402v-51h-402z" />
    <glyph glyph-name="quotesinglbase" unicode="&#x201a;" horiz-adv-x="242" 
d="M48 -152l52 286h71l-73 -286h-50z" />
    <glyph glyph-name="quotedblbase" unicode="&#x201e;" horiz-adv-x="417" 
d="M48 -152l52 286h71l-73 -286h-50zM223 -152l52 286h71l-73 -286h-50z" />
    <glyph glyph-name="quotedblright" unicode="&#x201d;" horiz-adv-x="417" 
d="M48 424l52 286h71l-73 -286h-50zM223 424l52 286h71l-73 -286h-50z" />
    <glyph glyph-name="perthousand" unicode="&#x2030;" horiz-adv-x="1390" 
d="M292 0h-63l442 700h63zM228 706c101 0 175 -79 175 -178s-74 -178 -175 -178c-100 0 -174 79 -174 178s74 178 174 178zM228 402c70 0 120 54 120 126s-50 126 -120 126c-69 0 -119 -54 -119 -126s50 -126 119 -126zM734 350c100 0 175 -79 175 -178s-75 -178 -175 -178
s-175 79 -175 178s75 178 175 178zM734 46c69 0 119 54 119 126s-50 126 -119 126s-119 -54 -119 -126s50 -126 119 -126zM1162 350c100 0 175 -79 175 -178s-75 -178 -175 -178s-175 79 -175 178s75 178 175 178zM1162 46c69 0 119 54 119 126s-50 126 -119 126
s-119 -54 -119 -126s50 -126 119 -126z" />
    <glyph glyph-name="circumflex" unicode="&#x2c6;" 
d="M219 655h62l122 -137h-58l-95 91l-95 -91h-58z" />
    <glyph glyph-name="tilde" unicode="&#x2dc;" 
d="M405 599c-13 -49 -40 -85 -88 -85c-44 0 -94 43 -134 43c-25 0 -39 -13 -49 -40l-39 6c13 49 40 84 88 84c44 0 94 -43 134 -43c25 0 39 12 49 40z" />
    <glyph glyph-name="macron" unicode="&#xaf;" 
d="M398 588v-47h-296v47h296z" />
    <glyph glyph-name="breve" unicode="&#x2d8;" 
d="M250 518c-100 0 -143 65 -155 128h50c9 -45 45 -81 105 -81s96 36 105 81h50c-12 -63 -55 -128 -155 -128z" />
    <glyph glyph-name="dotaccent" unicode="&#x2d9;" 
d="M210 576c0 23 16 39 40 39s40 -16 40 -39c0 -24 -16 -40 -40 -40s-40 16 -40 40z" />
    <glyph glyph-name="hungarumlaut" unicode="&#x2dd;" 
d="M234 657l-104 -141l-36 19l87 155zM407 657l-103 -141l-36 19l87 155z" />
    <glyph glyph-name="caron" unicode="&#x2c7;" 
d="M281 518h-62l-122 137h58l95 -91l95 91h58z" />
    <glyph glyph-name="emdash" unicode="&#x2014;" horiz-adv-x="578" 
d="M21 191v51h537v-51h-537z" />
    <glyph glyph-name="AE" unicode="&#xc6;" horiz-adv-x="1118" 
d="M1038 700v-55h-418v-265h394v-54h-394v-271h422v-55h-481v193h-331l-143 -193h-71l523 700h499zM271 248h290v390z" />
    <glyph glyph-name="Oslash" unicode="&#xd8;" horiz-adv-x="852" 
d="M426 709c86 0 164 -29 225 -79l70 75l34 -33l-69 -74c61 -64 98 -151 98 -248c0 -200 -158 -359 -358 -359c-87 0 -165 29 -227 79l-68 -75l-34 33l68 74c-60 64 -97 151 -97 248c0 200 158 359 358 359zM426 48c166 0 296 131 296 302c0 80 -29 152 -77 205l-406 -442
c51 -41 115 -65 187 -65zM130 350c0 -80 28 -152 76 -205l405 442c-50 41 -114 65 -185 65c-166 0 -296 -131 -296 -302z" />
    <glyph glyph-name="OE" unicode="&#x152;" horiz-adv-x="1142" 
d="M1065 0h-624c-224 0 -373 148 -373 352c0 202 149 348 371 348h623v-55h-418v-265h394v-54h-394v-271h421v-55zM441 56h144v588h-146c-195 0 -309 -121 -309 -292c0 -174 114 -296 311 -296z" />
    <glyph glyph-name="ae" unicode="&#xe6;" horiz-adv-x="838" 
d="M789 194h-353v-2c9 -95 75 -151 158 -151c66 0 120 33 133 86h53c-18 -79 -95 -134 -188 -134c-78 0 -143 40 -179 103c-30 -54 -98 -102 -199 -102c-88 0 -165 33 -165 124c0 76 54 121 158 121h177c1 10 2 20 4 30c-2 74 -46 120 -133 120c-73 0 -118 -27 -125 -68h-54
c9 66 72 117 179 117c89 0 143 -35 166 -88c37 55 97 89 167 89c119 0 202 -99 202 -221c0 -7 0 -12 -1 -24zM388 166c-2 9 -3 18 -4 28h-166c-82 0 -115 -25 -115 -76c0 -58 48 -77 110 -77c98 0 170 50 175 125zM588 390c-78 0 -143 -56 -152 -151h298
c-9 94 -73 151 -146 151z" />
    <glyph glyph-name="dotlessi" unicode="&#x131;" horiz-adv-x="221" 
d="M138 432v-432h-56v432h56z" />
    <glyph glyph-name="oslash" unicode="&#xf8;" horiz-adv-x="547" 
d="M274 439c52 0 99 -17 137 -46l39 42l28 -28l-38 -41c36 -40 58 -92 58 -150c0 -125 -100 -223 -224 -223c-52 0 -100 17 -137 45l-40 -42l-28 29l38 41c-36 39 -57 91 -57 150c0 125 99 223 224 223zM274 43c93 0 166 74 166 173c0 43 -14 81 -38 111l-230 -250
c28 -22 63 -34 102 -34zM107 216c0 -43 13 -81 36 -111l232 249c-28 21 -63 34 -101 34c-94 0 -167 -73 -167 -172z" />
    <glyph glyph-name="oe" unicode="&#x153;" horiz-adv-x="904" 
d="M655 -7c-84 0 -154 44 -189 114c-37 -69 -109 -114 -192 -114c-125 0 -224 98 -224 223s99 223 224 223c83 0 155 -46 192 -115c36 70 105 115 185 115c121 0 205 -101 205 -222v-23h-361c9 -97 76 -153 162 -153c74 0 124 34 137 86h52c-17 -78 -90 -134 -191 -134z
M274 42c93 0 166 74 166 174c0 99 -73 173 -166 173c-94 0 -167 -74 -167 -173c0 -100 73 -174 167 -174zM650 391c-77 0 -145 -57 -155 -151h305c-9 93 -74 151 -150 151z" />
    <glyph glyph-name="germandbls" unicode="&#xdf;" horiz-adv-x="664" 
d="M81 450c0 153 93 259 264 259c144 0 236 -80 236 -188c0 -92 -56 -148 -115 -164c76 -10 147 -68 147 -170c0 -132 -97 -196 -230 -196c-56 0 -107 10 -135 20v48c42 -11 88 -18 135 -18c105 0 172 48 172 148c0 93 -75 141 -185 141h-58v49h46c98 0 167 36 167 137
c0 84 -70 143 -181 143c-140 0 -207 -81 -207 -213v-446h-56v450z" />
    <glyph glyph-name="Eth" unicode="&#xd0;" horiz-adv-x="775" 
d="M707 352c0 -204 -149 -352 -373 -352h-227v327h-90v48h90v325h229c222 0 371 -146 371 -348zM166 56h168c197 0 311 122 311 296c0 171 -114 292 -309 292h-170v-269h195v-48h-195v-271z" />
    <glyph glyph-name="plusminus" unicode="&#xb1;" horiz-adv-x="606" 
d="M330 97h-54v150h-166v53h166v149h54v-149h166v-53h-166v-150zM496 53v-53h-386v53h386z" />
    <glyph glyph-name="Thorn" unicode="&#xde;" horiz-adv-x="692" 
d="M106 590v110h59v-110h229c155 0 240 -79 240 -206c0 -126 -89 -209 -243 -209h-226v-175h-59v590zM165 230h220c127 0 189 54 189 152c0 99 -63 153 -189 153h-220v-305z" />
    <glyph glyph-name="divide" unicode="&#xf7;" horiz-adv-x="606" 
d="M490 268v-53h-374v53h374zM258 407c0 26 18 45 45 45s45 -19 45 -45s-18 -46 -45 -46s-45 20 -45 46zM258 76c0 26 18 45 45 45s45 -19 45 -45s-18 -46 -45 -46s-45 20 -45 46z" />
    <glyph glyph-name="brokenbar" unicode="&#xa6;" horiz-adv-x="344" 
d="M200 700v-326h-56v326h56zM200 162v-326h-56v326h56z" />
    <glyph glyph-name="degree" unicode="&#xb0;" horiz-adv-x="361" 
d="M181 712c82 0 143 -62 143 -144c0 -81 -61 -144 -143 -144c-83 0 -143 63 -143 144c0 82 60 144 143 144zM181 468c56 0 96 42 96 100s-40 101 -96 101c-57 0 -97 -43 -97 -101s40 -100 97 -100z" />
    <glyph glyph-name="thorn" unicode="&#xfe;" horiz-adv-x="573" 
d="M524 216c0 -126 -95 -223 -220 -223c-71 0 -129 33 -167 83v-292h-56v916h56v-344c38 49 96 83 167 83c125 0 220 -98 220 -223zM466 216c0 99 -68 172 -164 172c-92 0 -166 -73 -166 -172s74 -173 166 -173c96 0 164 74 164 173z" />
    <glyph glyph-name="minus" unicode="&#x2212;" horiz-adv-x="606" 
d="M490 268v-53h-374v53h374z" />
    <glyph glyph-name="eth" unicode="&#xf0;" horiz-adv-x="549" 
d="M423 700l24 -40l-123 -72c101 -96 175 -224 175 -360c0 -140 -99 -235 -225 -235c-125 0 -224 97 -224 222s99 223 224 223c54 0 107 -24 145 -60c-29 68 -78 133 -138 186l-120 -70l-24 40l106 61c-34 26 -70 48 -106 66l25 43c43 -22 85 -51 125 -83zM274 43
c93 0 166 73 166 172s-73 172 -166 172c-94 0 -167 -73 -167 -172s73 -172 167 -172z" />
    <glyph glyph-name="multiply" unicode="&#xd7;" horiz-adv-x="606" 
d="M136 369l39 39l128 -128l128 128l39 -39l-128 -128l128 -128l-39 -38l-128 127l-128 -127l-39 38l128 128z" />
    <glyph glyph-name="Aacute" unicode="&#xc1;" horiz-adv-x="743" 
d="M648 0l-88 200h-378l-88 -200h-59l313 704h47l313 -704h-60zM371 626l-164 -371h328zM482 907l42 -51l-154 -101l-28 33z" />
    <glyph glyph-name="Acircumflex" unicode="&#xc2;" horiz-adv-x="743" 
d="M648 0l-88 200h-378l-88 -200h-59l313 704h47l313 -704h-60zM371 626l-164 -371h328zM340 891h62l127 -133h-61l-97 86l-97 -86h-61z" />
    <glyph glyph-name="Adieresis" unicode="&#xc4;" horiz-adv-x="743" 
d="M648 0l-88 200h-378l-88 -200h-59l313 704h47l313 -704h-60zM371 626l-164 -371h328zM225 796c0 24 16 41 41 41s41 -17 41 -41s-16 -41 -41 -41s-41 17 -41 41zM435 796c0 24 16 41 41 41s41 -17 41 -41s-16 -41 -41 -41s-41 17 -41 41z" />
    <glyph glyph-name="Agrave" unicode="&#xc0;" horiz-adv-x="743" 
d="M648 0l-88 200h-378l-88 -200h-59l313 704h47l313 -704h-60zM371 626l-164 -371h328zM217 856l42 51l140 -119l-28 -33z" />
    <glyph glyph-name="Aring" unicode="&#xc5;" horiz-adv-x="743" 
d="M648 0l-88 200h-378l-88 -200h-59l313 704h47l313 -704h-60zM371 626l-164 -371h328zM371 754c-57 0 -98 40 -98 94s41 94 98 94s98 -40 98 -94s-41 -94 -98 -94zM371 791c34 0 57 24 57 57s-23 57 -57 57s-57 -24 -57 -57s23 -57 57 -57z" />
    <glyph glyph-name="Ccedilla" unicode="&#xc7;" horiz-adv-x="814" 
d="M408 -165h-67l60 157c-193 13 -333 167 -333 358c0 200 154 359 361 359c165 0 290 -96 324 -232h-62c-25 97 -121 176 -262 176c-174 0 -299 -130 -299 -303s125 -303 299 -303c141 0 238 79 263 176h62c-31 -129 -147 -222 -299 -231z" />
    <glyph glyph-name="Eacute" unicode="&#xc9;" horiz-adv-x="663" 
d="M586 0h-480v700h477v-55h-418v-265h394v-54h-394v-271h421v-55zM470 907l42 -51l-154 -101l-28 33z" />
    <glyph glyph-name="Ecircumflex" unicode="&#xca;" horiz-adv-x="663" 
d="M586 0h-480v700h477v-55h-418v-265h394v-54h-394v-271h421v-55zM323 891h62l127 -133h-61l-97 86l-97 -86h-61z" />
    <glyph glyph-name="Edieresis" unicode="&#xcb;" horiz-adv-x="663" 
d="M586 0h-480v700h477v-55h-418v-265h394v-54h-394v-271h421v-55zM211 796c0 24 16 41 41 41s41 -17 41 -41s-16 -41 -41 -41s-41 17 -41 41zM421 796c0 24 16 41 41 41s41 -17 41 -41s-16 -41 -41 -41s-41 17 -41 41z" />
    <glyph glyph-name="Egrave" unicode="&#xc8;" horiz-adv-x="663" 
d="M586 0h-480v700h477v-55h-418v-265h394v-54h-394v-271h421v-55zM205 856l42 51l140 -119l-28 -33z" />
    <glyph glyph-name="Iacute" unicode="&#xcd;" horiz-adv-x="282" 
d="M170 700v-700h-59v700h59zM253 907l42 -51l-154 -101l-28 33z" />
    <glyph glyph-name="Icircumflex" unicode="&#xce;" horiz-adv-x="282" 
d="M170 700v-700h-59v700h59zM110 891h62l127 -133h-61l-97 86l-97 -86h-61z" />
    <glyph glyph-name="Idieresis" unicode="&#xcf;" horiz-adv-x="282" 
d="M170 700v-700h-59v700h59zM-5 796c0 24 16 41 41 41s41 -17 41 -41s-16 -41 -41 -41s-41 17 -41 41zM205 796c0 24 16 41 41 41s41 -17 41 -41s-16 -41 -41 -41s-41 17 -41 41z" />
    <glyph glyph-name="Igrave" unicode="&#xcc;" horiz-adv-x="282" 
d="M170 700v-700h-59v700h59zM-13 856l42 51l140 -119l-28 -33z" />
    <glyph glyph-name="Ntilde" unicode="&#xd1;" horiz-adv-x="794" 
d="M106 702h53l471 -609v607h58v-702h-53l-471 609v-607h-58v702zM516 848l40 -5c-12 -50 -40 -87 -89 -87c-54 0 -95 43 -138 43c-26 0 -41 -14 -51 -40l-40 6c12 50 40 86 89 86c54 0 95 -43 138 -43c26 0 41 14 51 40z" />
    <glyph glyph-name="Oacute" unicode="&#xd3;" horiz-adv-x="852" 
d="M426 709c200 0 358 -159 358 -359s-158 -359 -358 -359s-358 159 -358 359s158 359 358 359zM426 48c166 0 296 129 296 302s-130 302 -296 302s-296 -129 -296 -302s130 -302 296 -302zM538 907l42 -51l-154 -101l-28 33z" />
    <glyph glyph-name="Ocircumflex" unicode="&#xd4;" horiz-adv-x="852" 
d="M426 709c200 0 358 -159 358 -359s-158 -359 -358 -359s-358 159 -358 359s158 359 358 359zM426 48c166 0 296 129 296 302s-130 302 -296 302s-296 -129 -296 -302s130 -302 296 -302zM395 891h62l127 -133h-61l-97 86l-97 -86h-61z" />
    <glyph glyph-name="Odieresis" unicode="&#xd6;" horiz-adv-x="852" 
d="M426 709c200 0 358 -159 358 -359s-158 -359 -358 -359s-358 159 -358 359s158 359 358 359zM426 48c166 0 296 129 296 302s-130 302 -296 302s-296 -129 -296 -302s130 -302 296 -302zM280 796c0 24 16 41 41 41s41 -17 41 -41s-16 -41 -41 -41s-41 17 -41 41zM490 796
c0 24 16 41 41 41s41 -17 41 -41s-16 -41 -41 -41s-41 17 -41 41z" />
    <glyph glyph-name="Ograve" unicode="&#xd2;" horiz-adv-x="852" 
d="M426 709c200 0 358 -159 358 -359s-158 -359 -358 -359s-358 159 -358 359s158 359 358 359zM426 48c166 0 296 129 296 302s-130 302 -296 302s-296 -129 -296 -302s130 -302 296 -302zM272 856l42 51l140 -119l-28 -33z" />
    <glyph glyph-name="Otilde" unicode="&#xd5;" horiz-adv-x="852" 
d="M426 709c200 0 358 -159 358 -359s-158 -359 -358 -359s-358 159 -358 359s158 359 358 359zM426 48c166 0 296 129 296 302s-130 302 -296 302s-296 -129 -296 -302s130 -302 296 -302zM545 848l40 -5c-12 -50 -40 -87 -89 -87c-54 0 -95 43 -138 43
c-26 0 -41 -14 -51 -40l-40 6c12 50 40 86 89 86c54 0 95 -43 138 -43c26 0 41 14 51 40z" />
    <glyph glyph-name="Scaron" unicode="&#x160;" horiz-adv-x="634" 
d="M320 46c109 0 187 49 187 139c0 64 -42 106 -136 127l-107 24c-120 27 -191 81 -191 186c0 120 94 186 234 186s223 -64 237 -161h-58c-12 64 -73 107 -180 107c-103 0 -173 -42 -173 -130c0 -74 55 -111 153 -134l107 -23c121 -27 174 -83 174 -179
c0 -131 -107 -196 -246 -196c-151 0 -251 65 -265 175h59c11 -76 87 -121 205 -121zM338 758h-62l-127 133h61l97 -86l97 86h61z" />
    <glyph glyph-name="Uacute" unicode="&#xda;" horiz-adv-x="775" 
d="M387 -9c-166 0 -287 102 -287 290v419h60v-409c0 -161 91 -244 228 -244s228 83 228 244v409h59v-419c0 -188 -121 -290 -288 -290zM500 907l42 -51l-154 -101l-28 33z" />
    <glyph glyph-name="Ucircumflex" unicode="&#xdb;" horiz-adv-x="775" 
d="M387 -9c-166 0 -287 102 -287 290v419h60v-409c0 -161 91 -244 228 -244s228 83 228 244v409h59v-419c0 -188 -121 -290 -288 -290zM357 891h62l127 -133h-61l-97 86l-97 -86h-61z" />
    <glyph glyph-name="Udieresis" unicode="&#xdc;" horiz-adv-x="775" 
d="M387 -9c-166 0 -287 102 -287 290v419h60v-409c0 -161 91 -244 228 -244s228 83 228 244v409h59v-419c0 -188 -121 -290 -288 -290zM242 796c0 24 16 41 41 41s41 -17 41 -41s-16 -41 -41 -41s-41 17 -41 41zM452 796c0 24 16 41 41 41s41 -17 41 -41s-16 -41 -41 -41
s-41 17 -41 41z" />
    <glyph glyph-name="Ugrave" unicode="&#xd9;" horiz-adv-x="775" 
d="M387 -9c-166 0 -287 102 -287 290v419h60v-409c0 -161 91 -244 228 -244s228 83 228 244v409h59v-419c0 -188 -121 -290 -288 -290zM234 856l42 51l140 -119l-28 -33z" />
    <glyph glyph-name="Yacute" unicode="&#xdd;" horiz-adv-x="664" 
d="M82 700l250 -367l250 367h66l-286 -420v-280h-60v280l-286 420h66zM444 907l42 -51l-154 -101l-28 33z" />
    <glyph glyph-name="Ydieresis" unicode="&#x178;" horiz-adv-x="664" 
d="M82 700l250 -367l250 367h66l-286 -420v-280h-60v280l-286 420h66zM396 796c0 24 16 41 41 41s41 -17 41 -41s-16 -41 -41 -41s-41 17 -41 41zM186 796c0 24 16 41 41 41s41 -17 41 -41s-16 -41 -41 -41s-41 17 -41 41z" />
    <glyph glyph-name="Zcaron" unicode="&#x17d;" horiz-adv-x="687" 
d="M613 55v-55h-539v44l457 601h-449v55h526v-44l-456 -601h461zM377 758h-62l-127 133h61l97 -86l97 86h61z" />
    <glyph glyph-name="aacute" unicode="&#xe1;" horiz-adv-x="573" 
d="M50 216c0 125 94 223 219 223c71 0 130 -34 168 -85v78h55v-432h-55v77c-38 -50 -97 -84 -168 -84c-125 0 -219 97 -219 223zM107 216c0 -99 69 -173 165 -173c91 0 165 74 165 173s-74 172 -165 172c-96 0 -165 -73 -165 -172zM380 676l43 -46l-154 -118l-28 30z" />
    <glyph glyph-name="acircumflex" unicode="&#xe2;" horiz-adv-x="573" 
d="M50 216c0 125 94 223 219 223c71 0 130 -34 168 -85v78h55v-432h-55v77c-38 -50 -97 -84 -168 -84c-125 0 -219 97 -219 223zM107 216c0 -99 69 -173 165 -173c91 0 165 74 165 173s-74 172 -165 172c-96 0 -165 -73 -165 -172zM238 655h62l122 -137h-58l-95 91l-95 -91
h-58z" />
    <glyph glyph-name="adieresis" unicode="&#xe4;" horiz-adv-x="573" 
d="M50 216c0 125 94 223 219 223c71 0 130 -34 168 -85v78h55v-432h-55v77c-38 -50 -97 -84 -168 -84c-125 0 -219 97 -219 223zM107 216c0 -99 69 -173 165 -173c91 0 165 74 165 173s-74 172 -165 172c-96 0 -165 -73 -165 -172zM133 568c0 23 16 40 40 40
c25 0 40 -17 40 -40c0 -24 -15 -40 -40 -40c-24 0 -40 16 -40 40zM325 568c0 23 15 40 40 40c24 0 40 -17 40 -40c0 -24 -16 -40 -40 -40c-25 0 -40 16 -40 40z" />
    <glyph glyph-name="agrave" unicode="&#xe0;" horiz-adv-x="573" 
d="M50 216c0 125 94 223 219 223c71 0 130 -34 168 -85v78h55v-432h-55v77c-38 -50 -97 -84 -168 -84c-125 0 -219 97 -219 223zM107 216c0 -99 69 -173 165 -173c91 0 165 74 165 173s-74 172 -165 172c-96 0 -165 -73 -165 -172zM115 630l43 46l139 -134l-28 -30z" />
    <glyph glyph-name="aring" unicode="&#xe5;" horiz-adv-x="573" 
d="M50 216c0 125 94 223 219 223c71 0 130 -34 168 -85v78h55v-432h-55v77c-38 -50 -97 -84 -168 -84c-125 0 -219 97 -219 223zM107 216c0 -99 69 -173 165 -173c91 0 165 74 165 173s-74 172 -165 172c-96 0 -165 -73 -165 -172zM269 503c-57 0 -97 40 -97 93
c0 54 40 93 97 93s97 -39 97 -93c0 -53 -40 -93 -97 -93zM269 539c34 0 58 23 58 57s-24 58 -58 58s-58 -24 -58 -58s24 -57 58 -57z" />
    <glyph glyph-name="ccedilla" unicode="&#xe7;" horiz-adv-x="518" 
d="M251 -163h-63l59 158c-113 12 -197 105 -197 221c0 125 98 223 222 223c118 0 191 -69 204 -151h-57c-14 56 -64 100 -145 100c-96 0 -167 -73 -167 -172c0 -100 71 -172 167 -172c83 0 131 44 145 100h57c-11 -76 -74 -141 -177 -150z" />
    <glyph glyph-name="eacute" unicode="&#xe9;" horiz-adv-x="520" 
d="M268 -7c-128 0 -218 92 -218 223c0 132 88 223 213 223c128 0 209 -98 209 -221c0 -7 0 -13 -1 -25h-364c8 -97 73 -152 162 -152c71 0 127 33 141 86h52c-18 -79 -97 -134 -194 -134zM262 390c-85 0 -147 -55 -155 -151h309c-8 95 -70 151 -154 151zM375 676l43 -46
l-154 -118l-28 30z" />
    <glyph glyph-name="ecircumflex" unicode="&#xea;" horiz-adv-x="520" 
d="M268 -7c-128 0 -218 92 -218 223c0 132 88 223 213 223c128 0 209 -98 209 -221c0 -7 0 -13 -1 -25h-364c8 -97 73 -152 162 -152c71 0 127 33 141 86h52c-18 -79 -97 -134 -194 -134zM262 390c-85 0 -147 -55 -155 -151h309c-8 95 -70 151 -154 151zM233 655h62
l122 -137h-58l-95 91l-95 -91h-58z" />
    <glyph glyph-name="edieresis" unicode="&#xeb;" horiz-adv-x="520" 
d="M268 -7c-128 0 -218 92 -218 223c0 132 88 223 213 223c128 0 209 -98 209 -221c0 -7 0 -13 -1 -25h-364c8 -97 73 -152 162 -152c71 0 127 33 141 86h52c-18 -79 -97 -134 -194 -134zM262 390c-85 0 -147 -55 -155 -151h309c-8 95 -70 151 -154 151zM128 568
c0 23 16 40 40 40c25 0 40 -17 40 -40c0 -24 -15 -40 -40 -40c-24 0 -40 16 -40 40zM320 568c0 23 15 40 40 40c24 0 40 -17 40 -40c0 -24 -16 -40 -40 -40c-25 0 -40 16 -40 40z" />
    <glyph glyph-name="egrave" unicode="&#xe8;" horiz-adv-x="520" 
d="M268 -7c-128 0 -218 92 -218 223c0 132 88 223 213 223c128 0 209 -98 209 -221c0 -7 0 -13 -1 -25h-364c8 -97 73 -152 162 -152c71 0 127 33 141 86h52c-18 -79 -97 -134 -194 -134zM262 390c-85 0 -147 -55 -155 -151h309c-8 95 -70 151 -154 151zM110 630l43 46
l139 -134l-28 -30z" />
    <glyph glyph-name="iacute" unicode="&#xed;" horiz-adv-x="221" 
d="M138 432v-432h-56v432h56zM222 676l43 -46l-154 -118l-28 30z" />
    <glyph glyph-name="icircumflex" unicode="&#xee;" horiz-adv-x="221" 
d="M138 432v-432h-56v432h56zM79 654h62l107 -136h-58l-80 91l-80 -91h-58z" />
    <glyph glyph-name="idieresis" unicode="&#xef;" horiz-adv-x="221" 
d="M138 432v-432h-56v432h56zM-14 568c0 23 15 40 40 40c24 0 40 -17 40 -40c0 -24 -16 -40 -40 -40c-25 0 -40 16 -40 40zM154 568c0 23 16 40 40 40c25 0 40 -17 40 -40c0 -24 -15 -40 -40 -40c-24 0 -40 16 -40 40z" />
    <glyph glyph-name="igrave" unicode="&#xec;" horiz-adv-x="221" 
d="M138 432v-432h-56v432h56zM-44 630l43 46l139 -134l-28 -30z" />
    <glyph glyph-name="ntilde" unicode="&#xf1;" horiz-adv-x="549" 
d="M292 439c111 0 182 -71 182 -180v-259h-56v242c0 91 -46 145 -137 145c-84 0 -144 -56 -144 -148v-239h-56v432h55v-76c28 53 87 83 156 83zM439 599c-13 -49 -40 -85 -88 -85c-44 0 -94 43 -134 43c-25 0 -39 -13 -49 -40l-39 6c13 49 40 84 88 84c44 0 94 -43 134 -43
c25 0 39 12 49 40z" />
    <glyph glyph-name="oacute" unicode="&#xf3;" horiz-adv-x="547" 
d="M274 439c124 0 224 -98 224 -223s-100 -223 -224 -223c-125 0 -224 98 -224 223s99 223 224 223zM274 43c93 0 166 74 166 173s-73 172 -166 172c-94 0 -167 -73 -167 -172s73 -173 167 -173zM385 676l43 -46l-154 -118l-28 30z" />
    <glyph glyph-name="ocircumflex" unicode="&#xf4;" horiz-adv-x="547" 
d="M274 439c124 0 224 -98 224 -223s-100 -223 -224 -223c-125 0 -224 98 -224 223s99 223 224 223zM274 43c93 0 166 74 166 173s-73 172 -166 172c-94 0 -167 -73 -167 -172s73 -173 167 -173zM243 655h62l122 -137h-58l-95 91l-95 -91h-58z" />
    <glyph glyph-name="odieresis" unicode="&#xf6;" horiz-adv-x="547" 
d="M274 439c124 0 224 -98 224 -223s-100 -223 -224 -223c-125 0 -224 98 -224 223s99 223 224 223zM274 43c93 0 166 74 166 173s-73 172 -166 172c-94 0 -167 -73 -167 -172s73 -173 167 -173zM138 568c0 23 16 40 40 40c25 0 40 -17 40 -40c0 -24 -15 -40 -40 -40
c-24 0 -40 16 -40 40zM330 568c0 23 15 40 40 40c24 0 40 -17 40 -40c0 -24 -16 -40 -40 -40c-25 0 -40 16 -40 40z" />
    <glyph glyph-name="ograve" unicode="&#xf2;" horiz-adv-x="547" 
d="M274 439c124 0 224 -98 224 -223s-100 -223 -224 -223c-125 0 -224 98 -224 223s99 223 224 223zM274 43c93 0 166 74 166 173s-73 172 -166 172c-94 0 -167 -73 -167 -172s73 -173 167 -173zM120 630l43 46l139 -134l-28 -30z" />
    <glyph glyph-name="otilde" unicode="&#xf5;" horiz-adv-x="547" 
d="M274 439c124 0 224 -98 224 -223s-100 -223 -224 -223c-125 0 -224 98 -224 223s99 223 224 223zM274 43c93 0 166 74 166 173s-73 172 -166 172c-94 0 -167 -73 -167 -172s73 -173 167 -173zM429 599c-13 -49 -40 -85 -88 -85c-44 0 -94 43 -134 43
c-25 0 -39 -13 -49 -40l-39 6c13 49 40 84 88 84c44 0 94 -43 134 -43c25 0 39 12 49 40z" />
    <glyph glyph-name="scaron" unicode="&#x161;" horiz-adv-x="412" 
d="M209 41c59 0 109 28 109 76c0 41 -24 60 -90 73l-53 11c-81 17 -125 51 -125 117c0 73 64 120 151 120c100 0 154 -49 162 -113h-53c-6 38 -46 66 -109 66c-55 0 -97 -28 -97 -70c0 -46 34 -62 87 -74l54 -11c82 -16 127 -52 127 -118c0 -78 -69 -125 -163 -125
c-104 0 -166 50 -175 120h53c7 -44 55 -72 122 -72zM233 518h-62l-122 137h58l95 -91l95 91h58z" />
    <glyph glyph-name="uacute" unicode="&#xfa;" horiz-adv-x="547" 
d="M256 -7c-110 0 -181 70 -181 179v260h56v-242c0 -91 45 -146 136 -146c83 0 143 56 143 149v239h56v-432h-55v74c-30 -52 -87 -81 -155 -81zM382 676l43 -46l-154 -118l-28 30z" />
    <glyph glyph-name="ucircumflex" unicode="&#xfb;" horiz-adv-x="547" 
d="M256 -7c-110 0 -181 70 -181 179v260h56v-242c0 -91 45 -146 136 -146c83 0 143 56 143 149v239h56v-432h-55v74c-30 -52 -87 -81 -155 -81zM240 655h62l122 -137h-58l-95 91l-95 -91h-58z" />
    <glyph glyph-name="udieresis" unicode="&#xfc;" horiz-adv-x="547" 
d="M256 -7c-110 0 -181 70 -181 179v260h56v-242c0 -91 45 -146 136 -146c83 0 143 56 143 149v239h56v-432h-55v74c-30 -52 -87 -81 -155 -81zM135 568c0 23 16 40 40 40c25 0 40 -17 40 -40c0 -24 -15 -40 -40 -40c-24 0 -40 16 -40 40zM327 568c0 23 15 40 40 40
c24 0 40 -17 40 -40c0 -24 -16 -40 -40 -40c-25 0 -40 16 -40 40z" />
    <glyph glyph-name="ugrave" unicode="&#xf9;" horiz-adv-x="547" 
d="M256 -7c-110 0 -181 70 -181 179v260h56v-242c0 -91 45 -146 136 -146c83 0 143 56 143 149v239h56v-432h-55v74c-30 -52 -87 -81 -155 -81zM117 630l43 46l139 -134l-28 -30z" />
    <glyph glyph-name="yacute" unicode="&#xfd;" horiz-adv-x="489" 
d="M84 432l166 -324l156 324h59l-317 -648h-60l132 267l-196 381h60zM361 676l43 -46l-154 -118l-28 30z" />
    <glyph glyph-name="ydieresis" unicode="&#xff;" horiz-adv-x="489" 
d="M84 432l166 -324l156 324h59l-317 -648h-60l132 267l-196 381h60zM114 568c0 23 16 40 40 40c25 0 40 -17 40 -40c0 -24 -15 -40 -40 -40c-24 0 -40 16 -40 40zM306 568c0 23 15 40 40 40c24 0 40 -17 40 -40c0 -24 -16 -40 -40 -40c-25 0 -40 16 -40 40z" />
    <glyph glyph-name="zcaron" unicode="&#x17e;" horiz-adv-x="480" 
d="M63 383v49h360v-39l-293 -345h295v-48h-369v39l292 344h-285zM277 518h-62l-122 137h58l95 -91l95 91h58z" />
    <glyph glyph-name="Euro" unicode="&#x20ac;" horiz-adv-x="648" 
d="M12 298h71c-2 17 -3 34 -3 52c0 17 1 35 3 52h-71v49h81c39 150 166 258 328 258c70 0 140 -18 191 -49l-26 -49c-42 26 -103 42 -165 42c-128 0 -228 -83 -264 -202h363v-49h-373c-3 -17 -4 -34 -4 -52s1 -35 4 -52h288v-49h-278c36 -120 137 -202 265 -202
c62 0 125 16 166 42l27 -49c-51 -31 -124 -49 -193 -49c-162 0 -289 108 -329 258h-81v49z" />
    <glyph glyph-name="ampersand" unicode="&#x26;" horiz-adv-x="696" 
d="M618 344l41 -35c-45 -56 -86 -107 -126 -152l135 -157h-74l-100 115c-75 -76 -148 -124 -236 -124c-104 0 -196 68 -196 184c0 110 80 166 162 224l16 11c-37 42 -84 94 -84 156c0 85 55 142 147 142c81 0 144 -48 144 -136c0 -74 -53 -119 -110 -159l-16 -11l177 -205
c37 42 76 92 120 147zM258 46c70 0 133 40 201 110l-184 213l-19 -13c-76 -53 -132 -94 -132 -179c0 -81 62 -131 134 -131zM213 569c0 -47 39 -88 74 -127l15 11c42 30 86 66 86 119c0 52 -34 86 -85 86c-57 0 -90 -33 -90 -89z" />
    <glyph glyph-name="at" unicode="@" horiz-adv-x="979" 
d="M690 -75v-46c-47 -23 -121 -40 -200 -40c-244 0 -416 171 -416 395c0 237 172 407 421 407c238 0 409 -156 409 -383c0 -135 -57 -218 -156 -218c-53 0 -92 27 -106 86c-33 -53 -89 -90 -160 -90c-110 0 -196 88 -196 202s86 202 196 202c64 0 117 -31 151 -76v70h52
v-241c0 -75 22 -108 68 -108c59 0 100 60 100 173c0 206 -151 337 -358 337c-217 0 -369 -146 -369 -361c0 -203 151 -349 364 -349c77 0 143 15 200 40zM339 238c0 -88 61 -154 148 -154c80 0 147 65 147 154s-67 154 -147 154c-87 0 -148 -66 -148 -154z" />
    <glyph glyph-name="asterisk" unicode="*" horiz-adv-x="444" 
d="M222 505l-77 -118l-43 30l85 112l-135 36l16 51l133 -46l-5 140h53l-5 -140l132 46l17 -51l-135 -36l85 -112l-44 -30z" />
    <glyph glyph-name="section" unicode="&#xa7;" horiz-adv-x="648" 
d="M320 -115c95 0 161 39 161 111c0 55 -42 85 -114 101l-105 26c-95 23 -162 64 -162 153c0 66 43 118 118 140c-62 25 -100 66 -100 135c0 100 80 158 210 158s200 -57 212 -143h-57c-9 56 -62 91 -156 91s-151 -36 -151 -103c0 -63 51 -89 121 -105l104 -24
c95 -21 152 -67 152 -151c0 -72 -42 -120 -114 -142c63 -24 100 -67 100 -134c0 -108 -89 -164 -218 -164c-137 0 -222 56 -234 150h58c9 -64 75 -99 175 -99zM158 278c0 -62 53 -92 124 -107l66 -15c88 6 146 53 146 116c0 52 -36 87 -112 103l-74 17
c-88 -3 -150 -49 -150 -114z" />
    <glyph glyph-name="copyright" unicode="&#xa9;" horiz-adv-x="853" 
d="M426 709c201 0 359 -159 359 -359s-158 -359 -359 -359c-200 0 -358 159 -358 359s158 359 358 359zM426 41c173 0 306 134 306 309s-133 309 -306 309c-172 0 -306 -134 -306 -309s134 -309 306 -309zM240 350c0 108 84 193 191 193c101 0 163 -61 175 -130h-55
c-14 45 -52 80 -118 80c-81 0 -139 -61 -139 -143s58 -143 139 -143c67 0 106 36 119 81h55c-12 -69 -74 -131 -175 -131c-108 0 -192 85 -192 193z" />
    <glyph glyph-name="registered" unicode="&#xae;" horiz-adv-x="474" 
d="M237 707c108 0 194 -87 194 -195c0 -107 -86 -194 -194 -194s-195 87 -195 194c0 108 87 195 195 195zM237 351c90 0 159 69 159 161c0 93 -69 162 -159 162s-159 -69 -159 -162c0 -92 69 -161 159 -161zM205 486v-66h-37v189h85c46 0 71 -24 71 -60
c0 -31 -18 -54 -50 -61l54 -68h-41l-51 66h-31zM205 517h47c24 0 36 10 36 31c0 20 -12 30 -36 30h-47v-61z" />
    <glyph glyph-name="bullet" unicode="&#x2022;" horiz-adv-x="400" 
d="M105 253c0 53 41 96 95 96s95 -43 95 -96c0 -52 -41 -96 -95 -96s-95 44 -95 96z" />
    <glyph glyph-name="trademark" unicode="&#x2122;" horiz-adv-x="721" 
d="M344 700h45l114 -193l115 193h44v-294h-41v232l-103 -174h-31l-101 169v-227h-42v294zM278 700v-39h-101v-255h-43v255h-101v39h245z" />
    <glyph glyph-name="dagger" unicode="&#x2020;" horiz-adv-x="552" 
d="M508 494v-52h-204v-606h-56v606h-204v52h204v206h56v-206h204z" />
    <glyph glyph-name="daggerdbl" unicode="&#x2021;" horiz-adv-x="552" 
d="M508 91v-53h-204v-202h-56v202h-204v53h204v360h-204v53h204v202h56v-202h204v-53h-204v-360h204z" />
    <glyph glyph-name="ordfeminine" unicode="&#xaa;" horiz-adv-x="478" 
d="M37 514c0 108 84 192 189 192c61 0 112 -28 145 -71v65h47v-372h-47v64c-33 -43 -84 -71 -145 -71c-105 0 -189 85 -189 193zM90 514c0 -85 58 -146 140 -146c79 0 141 61 141 146c0 84 -62 146 -141 146c-82 0 -140 -62 -140 -146z" />
    <glyph glyph-name="ordmasculine" unicode="&#xba;" horiz-adv-x="459" 
d="M229 706c108 0 193 -85 193 -192c0 -108 -85 -193 -193 -193c-107 0 -192 85 -192 193c0 107 85 192 192 192zM229 368c80 0 141 61 141 146s-61 145 -141 145c-79 0 -139 -60 -139 -145s60 -146 139 -146z" />
    <glyph glyph-name="guillemotright" unicode="&#xbb;" horiz-adv-x="470" 
d="M58 50l113 178l-113 178h60l113 -178l-113 -178h-60zM243 50l113 178l-113 178h60l113 -178l-113 -178h-60z" />
    <glyph glyph-name="guillemotleft" unicode="&#xab;" horiz-adv-x="470" 
d="M226 406l-112 -178l112 -178h-60l-113 178l113 178h60zM411 406l-112 -178l112 -178h-60l-113 178l113 178h60z" />
    <glyph glyph-name="guilsinglleft" unicode="&#x2039;" horiz-adv-x="284" 
d="M226 406l-112 -178l112 -178h-60l-113 178l113 178h60z" />
    <glyph glyph-name="guilsinglright" unicode="&#x203a;" horiz-adv-x="284" 
d="M58 50l113 178l-113 178h60l113 -178l-113 -178h-60z" />
    <glyph glyph-name="paragraph" unicode="&#xb6;" horiz-adv-x="564" 
d="M306 700h221v-53h-77c-44 0 -60 -18 -60 -61v-661c0 -96 -48 -147 -129 -147c-21 0 -41 3 -56 6v52c16 -2 32 -4 44 -4c59 0 82 36 82 104v272h-25c-140 0 -249 107 -249 246s109 246 249 246z" />
    <glyph glyph-name="periodcentered" unicode="&#xb7;" horiz-adv-x="236" 
d="M72 216c0 27 19 46 46 46s46 -19 46 -46c0 -26 -19 -46 -46 -46s-46 20 -46 46z" />
    <glyph glyph-name="exclamdown" unicode="&#xa1;" horiz-adv-x="277" 
d="M118 230h41c7 -137 12 -299 12 -443v-55h-65v55c0 144 4 306 12 443zM92 390c0 27 19 46 46 46c28 0 46 -19 46 -46c0 -26 -18 -46 -46 -46c-27 0 -46 20 -46 46z" />
    <glyph glyph-name="questiondown" unicode="&#xbf;" horiz-adv-x="560" 
d="M63 -81c0 113 117 179 190 217l7 94h46l8 -118c-80 -39 -189 -92 -189 -190c0 -86 58 -145 179 -145c127 0 184 64 192 156h57c-9 -122 -87 -210 -250 -210c-158 0 -240 82 -240 196zM238 390c0 27 19 46 46 46s46 -19 46 -46c0 -26 -19 -46 -46 -46s-46 20 -46 46z" />
    <glyph glyph-name="quotedbl" unicode="&#x22;" horiz-adv-x="418" 
d="M92 710h62l-6 -288h-50zM265 710h62l-6 -288h-50z" />
    <glyph glyph-name="exclam" unicode="!" horiz-adv-x="277" 
d="M159 202h-41c-8 136 -12 299 -12 443v55h65v-55c0 -144 -5 -307 -12 -443zM92 41c0 27 19 46 46 46c28 0 46 -19 46 -46c0 -26 -18 -46 -46 -46c-27 0 -46 20 -46 46z" />
    <glyph glyph-name="uni00AD" unicode="&#xad;" horiz-adv-x="391" 
d="M50 191v51h292v-51h-292z" />
    <glyph glyph-name="two.superior" unicode="&#xb2;" horiz-adv-x="386" 
d="M192 844c-61 0 -90 -31 -94 -80h-48c5 70 53 124 143 124c86 0 134 -45 134 -110c0 -58 -39 -96 -94 -138l-97 -76h200v-45h-283v35l145 115c53 42 80 68 80 108s-31 67 -86 67z" />
    <glyph glyph-name="three.superior" unicode="&#xb3;" horiz-adv-x="386" 
d="M191 844c-61 0 -92 -28 -96 -69h-47c5 68 55 113 144 113c73 0 133 -34 133 -104c0 -35 -21 -64 -50 -72c39 -9 62 -40 62 -87c0 -71 -63 -113 -146 -113c-91 0 -142 41 -148 112h48c5 -44 38 -68 100 -68c58 0 97 22 97 70c0 41 -25 60 -77 60h-47v43h47
c46 0 66 21 66 52c0 43 -37 63 -86 63z" />
    <glyph glyph-name="one.superior" unicode="&#xb9;" horiz-adv-x="386" 
d="M198 519v309l-108 -36l-14 41l132 50h40v-364h-50z" />
    <glyph glyph-name="onequarter" unicode="&#xbc;" horiz-adv-x="892" 
d="M803 364v-236h61v-44h-61v-84h-50v84h-211v38l219 242h42zM601 128h153v168zM265 0h-55l444 700h55zM198 338v309l-108 -36l-14 41l132 50h40v-364h-50z" />
    <glyph glyph-name="onehalf" unicode="&#xbd;" horiz-adv-x="892" 
d="M245 0h-55l444 700h55zM698 325c-61 0 -90 -31 -94 -80h-48c5 70 53 124 143 124c86 0 134 -45 134 -110c0 -58 -39 -96 -94 -138l-97 -76h200v-45h-283v35l145 115c53 42 80 68 80 108s-31 67 -86 67zM198 338v309l-108 -36l-14 41l132 50h40v-364h-50z" />
    <glyph glyph-name="threequarters" unicode="&#xbe;" horiz-adv-x="892" 
d="M191 663c-61 0 -92 -28 -96 -69h-47c5 68 55 113 144 113c73 0 133 -34 133 -104c0 -35 -21 -64 -50 -72c39 -9 62 -40 62 -87c0 -71 -63 -113 -146 -113c-91 0 -142 41 -148 112h48c5 -44 38 -68 100 -68c58 0 97 22 97 70c0 41 -25 60 -77 60h-47v43h47
c46 0 66 21 66 52c0 43 -37 63 -86 63zM286 0h-55l444 700h55zM803 364v-236h61v-44h-61v-84h-50v84h-211v38l219 242h42zM601 128h153v168z" />
    <glyph glyph-name="Amacron" unicode="&#x100;" horiz-adv-x="743" 
d="M648 0l-88 200h-378l-88 -200h-59l313 704h47l313 -704h-60zM371 626l-164 -371h328zM525 810v-48h-308v48h308z" />
    <glyph glyph-name="amacron" unicode="&#x101;" horiz-adv-x="573" 
d="M50 216c0 125 94 223 219 223c71 0 130 -34 168 -85v78h55v-432h-55v77c-38 -50 -97 -84 -168 -84c-125 0 -219 97 -219 223zM107 216c0 -99 69 -173 165 -173c91 0 165 74 165 173s-74 172 -165 172c-96 0 -165 -73 -165 -172zM417 588v-47h-296v47h296z" />
    <glyph glyph-name="Abreve" unicode="&#x102;" horiz-adv-x="743" 
d="M648 0l-88 200h-378l-88 -200h-59l313 704h47l313 -704h-60zM371 626l-164 -371h328zM371 757c-100 0 -146 64 -158 127h52c7 -43 44 -78 106 -78c63 0 99 35 106 78h52c-12 -63 -58 -127 -158 -127z" />
    <glyph glyph-name="abreve" unicode="&#x103;" horiz-adv-x="573" 
d="M50 216c0 125 94 223 219 223c71 0 130 -34 168 -85v78h55v-432h-55v77c-38 -50 -97 -84 -168 -84c-125 0 -219 97 -219 223zM107 216c0 -99 69 -173 165 -173c91 0 165 74 165 173s-74 172 -165 172c-96 0 -165 -73 -165 -172zM269 518c-100 0 -143 65 -155 128h50
c9 -45 45 -81 105 -81s96 36 105 81h50c-12 -63 -55 -128 -155 -128z" />
    <glyph glyph-name="Aogonek" unicode="&#x104;" horiz-adv-x="743" 
d="M712 -120l20 -34c-21 -19 -53 -37 -94 -37c-52 0 -94 26 -94 75c0 55 43 90 102 120l-86 196h-378l-88 -200h-59l313 704h47l313 -704c-64 -28 -108 -63 -108 -105c0 -25 19 -36 48 -36c24 0 44 8 64 21zM371 626l-164 -371h328z" />
    <glyph glyph-name="aogonek" unicode="&#x105;" horiz-adv-x="573" 
d="M50 216c0 125 94 223 219 223c71 0 130 -34 168 -85v78h55v-431l1 -1c-67 -32 -107 -65 -107 -107c0 -23 18 -35 47 -35c21 0 43 6 61 19l19 -34c-19 -18 -51 -34 -90 -34c-51 0 -92 27 -92 73c0 53 45 90 106 122v73c-38 -50 -97 -84 -168 -84c-125 0 -219 97 -219 223z
M107 216c0 -99 69 -173 165 -173c91 0 165 74 165 173s-74 172 -165 172c-96 0 -165 -73 -165 -172z" />
    <glyph glyph-name="Cacute" unicode="&#x106;" horiz-adv-x="814" 
d="M68 350c0 200 154 359 361 359c165 0 290 -96 324 -232h-62c-25 97 -121 176 -262 176c-174 0 -299 -130 -299 -303s125 -303 299 -303c141 0 238 79 263 176h62c-33 -136 -160 -232 -325 -232c-207 0 -361 159 -361 359zM540 907l42 -51l-154 -101l-28 33z" />
    <glyph glyph-name="cacute" unicode="&#x107;" horiz-adv-x="518" 
d="M50 216c0 125 98 223 222 223c118 0 191 -69 204 -151h-57c-14 56 -64 100 -145 100c-96 0 -167 -73 -167 -172c0 -100 71 -172 167 -172c83 0 131 44 145 100h57c-12 -82 -85 -151 -203 -151c-125 0 -223 98 -223 223zM383 676l43 -46l-154 -118l-28 30z" />
    <glyph glyph-name="Ccircumflex" unicode="&#x108;" horiz-adv-x="814" 
d="M68 350c0 200 154 359 361 359c165 0 290 -96 324 -232h-62c-25 97 -121 176 -262 176c-174 0 -299 -130 -299 -303s125 -303 299 -303c141 0 238 79 263 176h62c-33 -136 -160 -232 -325 -232c-207 0 -361 159 -361 359zM398 891h62l127 -133h-61l-97 86l-97 -86h-61z
" />
    <glyph glyph-name="ccircumflex" unicode="&#x109;" horiz-adv-x="518" 
d="M50 216c0 125 98 223 222 223c118 0 191 -69 204 -151h-57c-14 56 -64 100 -145 100c-96 0 -167 -73 -167 -172c0 -100 71 -172 167 -172c83 0 131 44 145 100h57c-12 -82 -85 -151 -203 -151c-125 0 -223 98 -223 223zM241 655h62l122 -137h-58l-95 91l-95 -91h-58z" />
    <glyph glyph-name="Cdotaccent" unicode="&#x10a;" horiz-adv-x="814" 
d="M68 350c0 200 154 359 361 359c165 0 290 -96 324 -232h-62c-25 97 -121 176 -262 176c-174 0 -299 -130 -299 -303s125 -303 299 -303c141 0 238 79 263 176h62c-33 -136 -160 -232 -325 -232c-207 0 -361 159 -361 359zM388 797c0 24 16 41 41 41s41 -17 41 -41
c0 -25 -16 -41 -41 -41s-41 16 -41 41z" />
    <glyph glyph-name="cdotaccent" unicode="&#x10b;" horiz-adv-x="518" 
d="M50 216c0 125 98 223 222 223c118 0 191 -69 204 -151h-57c-14 56 -64 100 -145 100c-96 0 -167 -73 -167 -172c0 -100 71 -172 167 -172c83 0 131 44 145 100h57c-12 -82 -85 -151 -203 -151c-125 0 -223 98 -223 223zM232 576c0 23 16 39 40 39s40 -16 40 -39
c0 -24 -16 -40 -40 -40s-40 16 -40 40z" />
    <glyph glyph-name="Ccaron" unicode="&#x10c;" horiz-adv-x="814" 
d="M68 350c0 200 154 359 361 359c165 0 290 -96 324 -232h-62c-25 97 -121 176 -262 176c-174 0 -299 -130 -299 -303s125 -303 299 -303c141 0 238 79 263 176h62c-33 -136 -160 -232 -325 -232c-207 0 -361 159 -361 359zM460 758h-62l-127 133h61l97 -86l97 86h61z" />
    <glyph glyph-name="ccaron" unicode="&#x10d;" horiz-adv-x="518" 
d="M50 216c0 125 98 223 222 223c118 0 191 -69 204 -151h-57c-14 56 -64 100 -145 100c-96 0 -167 -73 -167 -172c0 -100 71 -172 167 -172c83 0 131 44 145 100h57c-12 -82 -85 -151 -203 -151c-125 0 -223 98 -223 223zM303 518h-62l-122 137h58l95 -91l95 91h58z" />
    <glyph glyph-name="Dcaron" unicode="&#x10e;" horiz-adv-x="774" 
d="M706 352c0 -204 -149 -352 -373 -352h-227v700h229c222 0 371 -146 371 -348zM165 56h168c197 0 311 122 311 296c0 171 -114 292 -309 292h-170v-588zM421 758h-62l-127 133h61l97 -86l97 86h61z" />
    <glyph glyph-name="dcaron" unicode="&#x10f;" horiz-adv-x="573" 
d="M50 216c0 125 94 223 219 223c71 0 129 -34 167 -83v344h56v-700h-55v77c-38 -50 -97 -84 -168 -84c-125 0 -219 97 -219 223zM107 216c0 -99 69 -173 165 -173c91 0 165 74 165 173s-74 172 -165 172c-96 0 -165 -73 -165 -172zM563 514l9 186h57l-27 -186h-39z" />
    <glyph glyph-name="Dcroat" unicode="&#x110;" horiz-adv-x="775" 
d="M707 352c0 -204 -149 -352 -373 -352h-227v327h-90v48h90v325h229c222 0 371 -146 371 -348zM166 56h168c197 0 311 122 311 296c0 171 -114 292 -309 292h-170v-269h195v-48h-195v-271z" />
    <glyph glyph-name="dcroat" unicode="&#x111;" horiz-adv-x="573" 
d="M568 578v-47h-76v-531h-55v77c-38 -50 -97 -84 -168 -84c-125 0 -219 97 -219 223c0 125 94 223 219 223c71 0 129 -34 167 -83v175h-204v47h204v122h56v-122h76zM107 216c0 -99 69 -173 165 -173c91 0 165 74 165 173s-74 172 -165 172c-96 0 -165 -73 -165 -172z" />
    <glyph glyph-name="Emacron" unicode="&#x112;" horiz-adv-x="663" 
d="M586 0h-480v700h477v-55h-418v-265h394v-54h-394v-271h421v-55zM512 810v-48h-308v48h308z" />
    <glyph glyph-name="emacron" unicode="&#x113;" horiz-adv-x="520" 
d="M268 -7c-128 0 -218 92 -218 223c0 132 88 223 213 223c128 0 209 -98 209 -221c0 -7 0 -13 -1 -25h-364c8 -97 73 -152 162 -152c71 0 127 33 141 86h52c-18 -79 -97 -134 -194 -134zM262 390c-85 0 -147 -55 -155 -151h309c-8 95 -70 151 -154 151zM412 588v-47h-296
v47h296z" />
    <glyph glyph-name="Ebreve" unicode="&#x114;" horiz-adv-x="663" 
d="M586 0h-480v700h477v-55h-418v-265h394v-54h-394v-271h421v-55zM358 757c-100 0 -146 64 -158 127h52c7 -43 44 -78 106 -78c63 0 99 35 106 78h52c-12 -63 -58 -127 -158 -127z" />
    <glyph glyph-name="ebreve" unicode="&#x115;" horiz-adv-x="520" 
d="M268 -7c-128 0 -218 92 -218 223c0 132 88 223 213 223c128 0 209 -98 209 -221c0 -7 0 -13 -1 -25h-364c8 -97 73 -152 162 -152c71 0 127 33 141 86h52c-18 -79 -97 -134 -194 -134zM262 390c-85 0 -147 -55 -155 -151h309c-8 95 -70 151 -154 151zM264 518
c-100 0 -143 65 -155 128h50c9 -45 45 -81 105 -81s96 36 105 81h50c-12 -63 -55 -128 -155 -128z" />
    <glyph glyph-name="Edotaccent" unicode="&#x116;" horiz-adv-x="663" 
d="M586 0h-480v700h477v-55h-418v-265h394v-54h-394v-271h421v-55zM317 797c0 24 16 41 41 41s41 -17 41 -41c0 -25 -16 -41 -41 -41s-41 16 -41 41z" />
    <glyph glyph-name="edotaccent" unicode="&#x117;" horiz-adv-x="520" 
d="M268 -7c-128 0 -218 92 -218 223c0 132 88 223 213 223c128 0 209 -98 209 -221c0 -7 0 -13 -1 -25h-364c8 -97 73 -152 162 -152c71 0 127 33 141 86h52c-18 -79 -97 -134 -194 -134zM262 390c-85 0 -147 -55 -155 -151h309c-8 95 -70 151 -154 151zM224 576
c0 23 16 39 40 39s40 -16 40 -39c0 -24 -16 -40 -40 -40s-40 16 -40 40z" />
    <glyph glyph-name="Eogonek" unicode="&#x118;" horiz-adv-x="663" 
d="M559 -120l20 -34c-21 -19 -53 -37 -94 -37c-52 0 -94 26 -94 75c0 53 39 87 95 116h-380v700h477v-55h-418v-265h394v-54h-394v-271h421v-55h-31c-64 -28 -108 -63 -108 -105c0 -25 19 -36 48 -36c24 0 44 8 64 21z" />
    <glyph glyph-name="eogonek" unicode="&#x119;" horiz-adv-x="520" 
d="M433 -152c-25 -24 -61 -39 -100 -39c-62 0 -108 34 -108 86c0 38 21 71 55 99c-4 0 -8 -1 -12 -1c-128 0 -218 92 -218 223c0 132 88 223 213 223c128 0 209 -98 209 -221c0 -7 0 -13 -1 -25h-364c8 -97 73 -152 162 -152c71 0 127 33 141 86h52
c-11 -46 -41 -83 -83 -107c-61 -32 -99 -71 -99 -114c0 -32 25 -48 59 -48c24 0 48 9 67 25zM262 390c-85 0 -147 -55 -155 -151h309c-8 95 -70 151 -154 151z" />
    <glyph glyph-name="Ecaron" unicode="&#x11a;" horiz-adv-x="663" 
d="M586 0h-480v700h477v-55h-418v-265h394v-54h-394v-271h421v-55zM389 758h-62l-127 133h61l97 -86l97 86h61z" />
    <glyph glyph-name="ecaron" unicode="&#x11b;" horiz-adv-x="520" 
d="M268 -7c-128 0 -218 92 -218 223c0 132 88 223 213 223c128 0 209 -98 209 -221c0 -7 0 -13 -1 -25h-364c8 -97 73 -152 162 -152c71 0 127 33 141 86h52c-18 -79 -97 -134 -194 -134zM262 390c-85 0 -147 -55 -155 -151h309c-8 95 -70 151 -154 151zM295 518h-62
l-122 137h58l95 -91l95 91h58z" />
    <glyph glyph-name="Gcircumflex" unicode="&#x11c;" horiz-adv-x="833" 
d="M426 48c166 0 277 117 281 268h-276v54h336c1 -13 1 -23 1 -33c0 -204 -142 -346 -342 -346c-208 0 -358 159 -358 359c0 199 153 359 361 359c161 0 286 -95 318 -225h-62c-25 92 -122 168 -256 168c-174 0 -299 -130 -299 -302c0 -173 122 -302 296 -302zM394 891h62
l127 -133h-61l-97 86l-97 -86h-61z" />
    <glyph glyph-name="gcircumflex" unicode="&#x11d;" horiz-adv-x="573" 
d="M436 12v68c-37 -49 -95 -82 -167 -82c-126 0 -219 99 -219 220s93 221 219 221c73 0 131 -35 168 -84v77h55v-430c0 -136 -89 -215 -219 -215c-121 0 -199 62 -209 142h55c12 -54 67 -92 152 -92c104 0 165 60 165 175zM436 218c0 95 -72 170 -165 170
c-97 0 -164 -75 -164 -170c0 -94 67 -170 164 -170c93 0 165 76 165 170zM238 655h62l122 -137h-58l-95 91l-95 -91h-58z" />
    <glyph glyph-name="Gbreve" unicode="&#x11e;" horiz-adv-x="833" 
d="M426 48c166 0 277 117 281 268h-276v54h336c1 -13 1 -23 1 -33c0 -204 -142 -346 -342 -346c-208 0 -358 159 -358 359c0 199 153 359 361 359c161 0 286 -95 318 -225h-62c-25 92 -122 168 -256 168c-174 0 -299 -130 -299 -302c0 -173 122 -302 296 -302zM425 757
c-100 0 -146 64 -158 127h52c7 -43 44 -78 106 -78c63 0 99 35 106 78h52c-12 -63 -58 -127 -158 -127z" />
    <glyph glyph-name="gbreve" unicode="&#x11f;" horiz-adv-x="573" 
d="M436 12v68c-37 -49 -95 -82 -167 -82c-126 0 -219 99 -219 220s93 221 219 221c73 0 131 -35 168 -84v77h55v-430c0 -136 -89 -215 -219 -215c-121 0 -199 62 -209 142h55c12 -54 67 -92 152 -92c104 0 165 60 165 175zM436 218c0 95 -72 170 -165 170
c-97 0 -164 -75 -164 -170c0 -94 67 -170 164 -170c93 0 165 76 165 170zM269 518c-100 0 -143 65 -155 128h50c9 -45 45 -81 105 -81s96 36 105 81h50c-12 -63 -55 -128 -155 -128z" />
    <glyph glyph-name="Gdotaccent" unicode="&#x120;" horiz-adv-x="833" 
d="M426 48c166 0 277 117 281 268h-276v54h336c1 -13 1 -23 1 -33c0 -204 -142 -346 -342 -346c-208 0 -358 159 -358 359c0 199 153 359 361 359c161 0 286 -95 318 -225h-62c-25 92 -122 168 -256 168c-174 0 -299 -130 -299 -302c0 -173 122 -302 296 -302zM384 797
c0 24 16 41 41 41s41 -17 41 -41c0 -25 -16 -41 -41 -41s-41 16 -41 41z" />
    <glyph glyph-name="gdotaccent" unicode="&#x121;" horiz-adv-x="573" 
d="M436 12v68c-37 -49 -95 -82 -167 -82c-126 0 -219 99 -219 220s93 221 219 221c73 0 131 -35 168 -84v77h55v-430c0 -136 -89 -215 -219 -215c-121 0 -199 62 -209 142h55c12 -54 67 -92 152 -92c104 0 165 60 165 175zM436 218c0 95 -72 170 -165 170
c-97 0 -164 -75 -164 -170c0 -94 67 -170 164 -170c93 0 165 76 165 170zM229 576c0 23 16 39 40 39s40 -16 40 -39c0 -24 -16 -40 -40 -40s-40 16 -40 40z" />
    <glyph glyph-name="Gcommaaccent" unicode="&#x122;" horiz-adv-x="833" 
d="M426 48c166 0 277 117 281 268h-276v54h336c1 -13 1 -23 1 -33c0 -204 -142 -346 -342 -346c-208 0 -358 159 -358 359c0 199 153 359 361 359c161 0 286 -95 318 -225h-62c-25 92 -122 168 -256 168c-174 0 -299 -130 -299 -302c0 -173 122 -302 296 -302zM460 -44
l-38 -166h-48l24 166h62z" />
    <glyph glyph-name="gcommaaccent" unicode="&#x123;" horiz-adv-x="573" 
d="M436 12v68c-37 -49 -95 -82 -167 -82c-126 0 -219 99 -219 220s93 221 219 221c73 0 131 -35 168 -84v77h55v-430c0 -136 -89 -215 -219 -215c-121 0 -199 62 -209 142h55c12 -54 67 -92 152 -92c104 0 165 60 165 175zM436 218c0 95 -72 170 -165 170
c-97 0 -164 -75 -164 -170c0 -94 67 -170 164 -170c93 0 165 76 165 170zM239 518l36 163h48l-24 -163h-60z" />
    <glyph glyph-name="Hcircumflex" unicode="&#x124;" horiz-adv-x="779" 
d="M165 381h449v319h59v-700h-59v325h-449v-325h-59v700h59v-319zM358 891h62l127 -133h-61l-97 86l-97 -86h-61z" />
    <glyph glyph-name="hcircumflex" unicode="&#x125;" horiz-adv-x="549" 
d="M292 439c111 0 182 -71 182 -180v-259h-56v242c0 91 -46 145 -137 145c-84 0 -144 -56 -144 -148v-239h-56v700h56v-342c29 52 87 81 155 81zM252 891h62l127 -133h-61l-97 86l-97 -86h-61z" />
    <glyph glyph-name="Hbar" unicode="&#x126;" horiz-adv-x="779" 
d="M757 575v-48h-84v-527h-59v325h-449v-325h-59v527h-86v48h86v125h59v-125h449v125h59v-125h84zM165 381h449v146h-449v-146z" />
    <glyph glyph-name="hbar" unicode="&#x127;" horiz-adv-x="549" 
d="M341 578v-47h-204v-173c29 52 87 81 155 81c111 0 182 -71 182 -180v-259h-56v242c0 91 -46 145 -137 145c-84 0 -144 -56 -144 -148v-239h-56v531h-76v47h76v122h56v-122h204z" />
    <glyph glyph-name="Itilde" unicode="&#x128;" horiz-adv-x="282" 
d="M170 700v-700h-59v700h59zM260 848l40 -5c-12 -50 -40 -87 -89 -87c-54 0 -95 43 -138 43c-26 0 -41 -14 -51 -40l-40 6c12 50 40 86 89 86c54 0 95 -43 138 -43c26 0 41 14 51 40z" />
    <glyph glyph-name="itilde" unicode="&#x129;" horiz-adv-x="221" 
d="M138 432v-432h-56v432h56zM247 600c-12 -48 -37 -82 -80 -82c-40 0 -78 38 -113 38c-21 0 -33 -13 -42 -38l-39 5c12 48 37 83 80 83c40 0 78 -38 113 -38c21 0 33 13 42 37z" />
    <glyph glyph-name="Imacron" unicode="&#x12a;" horiz-adv-x="282" 
d="M170 700v-700h-59v700h59zM295 810v-48h-308v48h308z" />
    <glyph glyph-name="imacron" unicode="&#x12b;" horiz-adv-x="221" 
d="M138 432v-432h-56v432h56zM236 588v-47h-252v47h252z" />
    <glyph glyph-name="Ibreve" unicode="&#x12c;" horiz-adv-x="282" 
d="M170 700v-700h-59v700h59zM141 757c-100 0 -146 64 -158 127h52c7 -43 44 -78 106 -78c63 0 99 35 106 78h52c-12 -63 -58 -127 -158 -127z" />
    <glyph glyph-name="ibreve" unicode="&#x12d;" horiz-adv-x="221" 
d="M138 432v-432h-56v432h56zM110 517c-90 0 -133 64 -140 128h50c4 -41 32 -82 90 -82s86 41 90 82h50c-7 -64 -50 -128 -140 -128z" />
    <glyph glyph-name="Iogonek" unicode="&#x12e;" horiz-adv-x="282" 
d="M186 -123l21 -35c-23 -19 -53 -33 -88 -33c-48 0 -94 27 -94 77c0 51 33 90 86 119v695h59v-700c-58 -26 -88 -62 -88 -101c0 -27 21 -39 46 -39c24 0 40 6 58 17z" />
    <glyph glyph-name="iogonek" unicode="&#x12f;" horiz-adv-x="221" 
d="M171 -124l19 -33c-17 -17 -45 -34 -83 -34c-54 0 -93 30 -93 79c0 46 29 85 68 114v430h56v-431l1 -1c-54 -31 -73 -61 -73 -99c0 -31 19 -45 49 -45c20 0 39 7 56 20zM71 576c0 23 15 39 39 39c25 0 40 -16 40 -39c0 -24 -15 -40 -40 -40c-24 0 -39 16 -39 40z" />
    <glyph glyph-name="Idotaccent" unicode="&#x130;" horiz-adv-x="282" 
d="M170 700v-700h-59v700h59zM100 797c0 24 16 41 41 41s41 -17 41 -41c0 -25 -16 -41 -41 -41s-41 16 -41 41z" />
    <glyph glyph-name="IJ" unicode="&#x132;" horiz-adv-x="876" 
d="M170 700v-700h-59v700h59zM779 700v-457c0 -165 -96 -252 -231 -252c-134 0 -211 66 -226 174h58c11 -73 65 -118 166 -118c105 0 174 67 174 205v448h59z" />
    <glyph glyph-name="ij" unicode="&#x133;" horiz-adv-x="445" 
d="M138 432v-432h-56v432h56zM71 576c0 23 15 39 39 39c25 0 40 -16 40 -39c0 -24 -15 -40 -40 -40c-24 0 -39 16 -39 40zM306 -70v502h56v-510c0 -98 -43 -143 -123 -143c-19 0 -37 2 -51 5v49c14 -2 28 -3 41 -3c53 0 77 30 77 100zM295 576c0 23 15 39 39 39
c25 0 40 -16 40 -39c0 -24 -15 -40 -40 -40c-24 0 -39 16 -39 40z" />
    <glyph glyph-name="Jcircumflex" unicode="&#x134;" horiz-adv-x="594" 
d="M497 700v-457c0 -165 -96 -252 -231 -252c-134 0 -211 66 -226 174h58c11 -73 65 -118 166 -118c105 0 174 67 174 205v448h59zM436 891h62l127 -133h-61l-97 86l-97 -86h-61z" />
    <glyph glyph-name="jcircumflex" unicode="&#x135;" horiz-adv-x="225" 
d="M86 -70v502h56v-510c0 -98 -43 -143 -123 -143c-19 0 -37 2 -51 5v49c14 -2 28 -3 41 -3c53 0 77 30 77 100zM83 655h62l122 -137h-58l-95 91l-95 -91h-58z" />
    <glyph glyph-name="Kcommaaccent" unicode="&#x136;" horiz-adv-x="702" 
d="M662 700l-317 -319l332 -381h-74l-297 342l-141 -142v-200h-59v700h59v-423l417 423h80zM399 -45l-38 -166h-48l24 166h62z" />
    <glyph glyph-name="kcommaaccent" unicode="&#x137;" horiz-adv-x="482" 
d="M454 432l-202 -177l207 -255h-67l-179 221l-76 -67v-154h-56v700h56v-482l241 214h76zM295 -44l-36 -164h-48l24 164h60z" />
    <glyph glyph-name="kgreenlandic" unicode="&#x138;" horiz-adv-x="482" 
d="M454 432l-202 -177l207 -255h-67l-179 221l-76 -67v-154h-56v432h56v-214l241 214h76z" />
    <glyph glyph-name="Lacute" unicode="&#x139;" horiz-adv-x="606" 
d="M572 0h-466v700h59v-644h407v-56zM247 907l42 -51l-154 -101l-28 33z" />
    <glyph glyph-name="lacute" unicode="&#x13a;" horiz-adv-x="221" 
d="M138 700v-700h-56v700h56zM222 898l42 -51l-154 -101l-28 33z" />
    <glyph glyph-name="Lcommaaccent" unicode="&#x13b;" horiz-adv-x="606" 
d="M572 0h-466v700h59v-644h407v-56zM389 -44l-38 -166h-48l24 166h62z" />
    <glyph glyph-name="lcommaaccent" unicode="&#x13c;" horiz-adv-x="221" 
d="M138 700v-700h-56v700h56zM140 -44l-36 -164h-48l24 164h60z" />
    <glyph glyph-name="Lcaron" unicode="&#x13d;" horiz-adv-x="606" 
d="M572 0h-466v700h59v-644h407v-56zM303 514l10 186h60l-27 -186h-43z" />
    <glyph glyph-name="lcaron" unicode="&#x13e;" horiz-adv-x="221" 
d="M138 700v-700h-56v700h56zM209 514l9 186h57l-27 -186h-39z" />
    <glyph glyph-name="Ldot" unicode="&#x13f;" horiz-adv-x="606" 
d="M572 0h-466v700h59v-644h407v-56zM347 350c0 27 19 46 46 46s46 -19 46 -46c0 -26 -19 -46 -46 -46s-46 20 -46 46z" />
    <glyph glyph-name="ldot" unicode="&#x140;" horiz-adv-x="298" 
d="M138 700v-700h-56v700h56zM210 236c0 27 19 46 46 46s46 -19 46 -46c0 -26 -19 -46 -46 -46s-46 20 -46 46z" />
    <glyph glyph-name="Nacute" unicode="&#x143;" horiz-adv-x="794" 
d="M106 702h53l471 -609v607h58v-702h-53l-471 609v-607h-58v702zM509 907l42 -51l-154 -101l-28 33z" />
    <glyph glyph-name="nacute" unicode="&#x144;" horiz-adv-x="549" 
d="M292 439c111 0 182 -71 182 -180v-259h-56v242c0 91 -46 145 -137 145c-84 0 -144 -56 -144 -148v-239h-56v432h55v-76c28 53 87 83 156 83zM395 676l43 -46l-154 -118l-28 30z" />
    <glyph glyph-name="Ncommaaccent" unicode="&#x145;" horiz-adv-x="794" 
d="M106 702h53l471 -609v607h58v-702h-53l-471 609v-607h-58v702zM428 -44l-38 -166h-48l24 166h62z" />
    <glyph glyph-name="ncommaaccent" unicode="&#x146;" horiz-adv-x="549" 
d="M292 439c111 0 182 -71 182 -180v-259h-56v242c0 91 -46 145 -137 145c-84 0 -144 -56 -144 -148v-239h-56v432h55v-76c28 53 87 83 156 83zM312 -44l-36 -164h-48l24 164h60z" />
    <glyph glyph-name="Ncaron" unicode="&#x147;" horiz-adv-x="794" 
d="M106 702h53l471 -609v607h58v-702h-53l-471 609v-607h-58v702zM428 758h-62l-127 133h61l97 -86l97 86h61z" />
    <glyph glyph-name="ncaron" unicode="&#x148;" horiz-adv-x="549" 
d="M292 439c111 0 182 -71 182 -180v-259h-56v242c0 91 -46 145 -137 145c-84 0 -144 -56 -144 -148v-239h-56v432h55v-76c28 53 87 83 156 83zM315 518h-62l-122 137h58l95 -91l95 91h58z" />
    <glyph glyph-name="napostrophe" unicode="&#x149;" horiz-adv-x="706" 
d="M448 439c111 0 182 -71 182 -180v-259h-56v242c0 91 -46 145 -137 145c-84 0 -144 -56 -144 -148v-239h-56v432h55v-76c28 53 87 83 156 83zM48 424l52 286h71l-73 -286h-50z" />
    <glyph glyph-name="Eng" unicode="&#x14a;" horiz-adv-x="794" 
d="M630 5l-466 602v-607h-58v702h53l471 -609v607h58v-765c0 -104 -59 -157 -152 -157c-37 0 -72 5 -94 12v49c21 -6 55 -9 80 -9c72 0 108 36 108 113v62z" />
    <glyph glyph-name="eng" unicode="&#x14b;" horiz-adv-x="549" 
d="M418 -70v312c0 91 -46 145 -137 145c-84 0 -144 -56 -144 -148v-239h-56v432h55v-74c29 52 87 81 156 81c111 0 182 -71 182 -180v-337c0 -98 -43 -143 -123 -143c-19 0 -37 2 -51 5v49c14 -2 28 -3 41 -3c53 0 77 30 77 100z" />
    <glyph glyph-name="Omacron" unicode="&#x14c;" horiz-adv-x="852" 
d="M426 709c200 0 358 -159 358 -359s-158 -359 -358 -359s-358 159 -358 359s158 359 358 359zM426 48c166 0 296 129 296 302s-130 302 -296 302s-296 -129 -296 -302s130 -302 296 -302zM580 810v-48h-308v48h308z" />
    <glyph glyph-name="omacron" unicode="&#x14d;" horiz-adv-x="547" 
d="M274 439c124 0 224 -98 224 -223s-100 -223 -224 -223c-125 0 -224 98 -224 223s99 223 224 223zM274 43c93 0 166 74 166 173s-73 172 -166 172c-94 0 -167 -73 -167 -172s73 -173 167 -173zM422 588v-47h-296v47h296z" />
    <glyph glyph-name="Obreve" unicode="&#x14e;" horiz-adv-x="852" 
d="M426 709c200 0 358 -159 358 -359s-158 -359 -358 -359s-358 159 -358 359s158 359 358 359zM426 48c166 0 296 129 296 302s-130 302 -296 302s-296 -129 -296 -302s130 -302 296 -302zM426 757c-100 0 -146 64 -158 127h52c7 -43 44 -78 106 -78c63 0 99 35 106 78h52
c-12 -63 -58 -127 -158 -127z" />
    <glyph glyph-name="obreve" unicode="&#x14f;" horiz-adv-x="547" 
d="M274 439c124 0 224 -98 224 -223s-100 -223 -224 -223c-125 0 -224 98 -224 223s99 223 224 223zM274 43c93 0 166 74 166 173s-73 172 -166 172c-94 0 -167 -73 -167 -172s73 -173 167 -173zM274 518c-100 0 -143 65 -155 128h50c9 -45 45 -81 105 -81s96 36 105 81h50
c-12 -63 -55 -128 -155 -128z" />
    <glyph glyph-name="Ohungarumlaut" unicode="&#x150;" horiz-adv-x="852" 
d="M426 709c200 0 358 -159 358 -359s-158 -359 -358 -359s-358 159 -358 359s158 359 358 359zM426 48c166 0 296 129 296 302s-130 302 -296 302s-296 -129 -296 -302s130 -302 296 -302zM441 884l-98 -128l-37 21l78 142zM623 884l-98 -128l-38 21l79 142z" />
    <glyph glyph-name="ohungarumlaut" unicode="&#x151;" horiz-adv-x="547" 
d="M274 439c124 0 224 -98 224 -223s-100 -223 -224 -223c-125 0 -224 98 -224 223s99 223 224 223zM274 43c93 0 166 74 166 173s-73 172 -166 172c-94 0 -167 -73 -167 -172s73 -173 167 -173zM298 657l-104 -141l-36 19l87 155zM471 657l-103 -141l-36 19l87 155z" />
    <glyph glyph-name="Racute" unicode="&#x154;" horiz-adv-x="715" 
d="M165 269v-269h-59v700h301c155 0 242 -81 242 -214c0 -124 -79 -206 -215 -216l220 -270h-69l-219 269h-201zM165 323h232c125 0 191 56 191 161s-65 161 -191 161h-232v-322zM477 907l42 -51l-154 -101l-28 33z" />
    <glyph glyph-name="racute" unicode="&#x155;" horiz-adv-x="356" 
d="M327 431v-51c-11 2 -25 3 -40 3c-103 0 -150 -65 -150 -164v-219h-56v432h55v-83c27 54 78 87 150 87c16 0 32 -3 41 -5zM321 676l43 -46l-154 -118l-28 30z" />
    <glyph glyph-name="Rcommaaccent" unicode="&#x156;" horiz-adv-x="715" 
d="M165 269v-269h-59v700h301c155 0 242 -81 242 -214c0 -124 -79 -206 -215 -216l220 -270h-69l-219 269h-201zM165 323h232c125 0 191 56 191 161s-65 161 -191 161h-232v-322zM389 -44l-38 -166h-48l24 166h62z" />
    <glyph glyph-name="rcommaaccent" unicode="&#x157;" horiz-adv-x="356" 
d="M327 431v-51c-11 2 -25 3 -40 3c-103 0 -150 -65 -150 -164v-219h-56v432h55v-83c27 54 78 87 150 87c16 0 32 -3 41 -5zM139 -44l-36 -164h-48l24 164h60z" />
    <glyph glyph-name="Rcaron" unicode="&#x158;" horiz-adv-x="715" 
d="M165 269v-269h-59v700h301c155 0 242 -81 242 -214c0 -124 -79 -206 -215 -216l220 -270h-69l-219 269h-201zM165 323h232c125 0 191 56 191 161s-65 161 -191 161h-232v-322zM396 758h-62l-127 133h61l97 -86l97 86h61z" />
    <glyph glyph-name="rcaron" unicode="&#x159;" horiz-adv-x="356" 
d="M327 431v-51c-11 2 -25 3 -40 3c-103 0 -150 -65 -150 -164v-219h-56v432h55v-83c27 54 78 87 150 87c16 0 32 -3 41 -5zM241 518h-62l-122 137h58l95 -91l95 91h58z" />
    <glyph glyph-name="Sacute" unicode="&#x15a;" horiz-adv-x="634" 
d="M320 46c109 0 187 49 187 139c0 64 -42 106 -136 127l-107 24c-120 27 -191 81 -191 186c0 120 94 186 234 186s223 -64 237 -161h-58c-12 64 -73 107 -180 107c-103 0 -173 -42 -173 -130c0 -74 55 -111 153 -134l107 -23c121 -27 174 -83 174 -179
c0 -131 -107 -196 -246 -196c-151 0 -251 65 -265 175h59c11 -76 87 -121 205 -121zM419 907l42 -51l-154 -101l-28 33z" />
    <glyph glyph-name="sacute" unicode="&#x15b;" horiz-adv-x="412" 
d="M209 41c59 0 109 28 109 76c0 41 -24 60 -90 73l-53 11c-81 17 -125 51 -125 117c0 73 64 120 151 120c100 0 154 -49 162 -113h-53c-6 38 -46 66 -109 66c-55 0 -97 -28 -97 -70c0 -46 34 -62 87 -74l54 -11c82 -16 127 -52 127 -118c0 -78 -69 -125 -163 -125
c-104 0 -166 50 -175 120h53c7 -44 55 -72 122 -72zM313 676l43 -46l-154 -118l-28 30z" />
    <glyph glyph-name="Scircumflex" unicode="&#x15c;" horiz-adv-x="634" 
d="M320 46c109 0 187 49 187 139c0 64 -42 106 -136 127l-107 24c-120 27 -191 81 -191 186c0 120 94 186 234 186s223 -64 237 -161h-58c-12 64 -73 107 -180 107c-103 0 -173 -42 -173 -130c0 -74 55 -111 153 -134l107 -23c121 -27 174 -83 174 -179
c0 -131 -107 -196 -246 -196c-151 0 -251 65 -265 175h59c11 -76 87 -121 205 -121zM276 891h62l127 -133h-61l-97 86l-97 -86h-61z" />
    <glyph glyph-name="scircumflex" unicode="&#x15d;" horiz-adv-x="412" 
d="M209 41c59 0 109 28 109 76c0 41 -24 60 -90 73l-53 11c-81 17 -125 51 -125 117c0 73 64 120 151 120c100 0 154 -49 162 -113h-53c-6 38 -46 66 -109 66c-55 0 -97 -28 -97 -70c0 -46 34 -62 87 -74l54 -11c82 -16 127 -52 127 -118c0 -78 -69 -125 -163 -125
c-104 0 -166 50 -175 120h53c7 -44 55 -72 122 -72zM171 655h62l122 -137h-58l-95 91l-95 -91h-58z" />
    <glyph glyph-name="Scedilla" unicode="&#x15e;" horiz-adv-x="634" 
d="M299 -165h-67l60 158c-135 8 -223 71 -236 174h59c11 -76 87 -121 205 -121c109 0 187 49 187 139c0 64 -42 106 -136 127l-107 24c-120 27 -191 81 -191 186c0 120 94 186 234 186s223 -64 237 -161h-58c-12 64 -73 107 -180 107c-103 0 -173 -42 -173 -130
c0 -74 55 -111 153 -134l107 -23c121 -27 174 -83 174 -179c0 -123 -94 -187 -220 -195z" />
    <glyph glyph-name="scedilla" unicode="&#x15f;" horiz-adv-x="412" 
d="M187 -163h-63l59 157c-89 7 -141 55 -149 119h53c7 -44 55 -72 122 -72c59 0 109 28 109 76c0 41 -24 60 -90 73l-53 11c-81 17 -125 51 -125 117c0 73 64 120 151 120c100 0 154 -49 162 -113h-53c-6 38 -46 66 -109 66c-55 0 -97 -28 -97 -70c0 -46 34 -62 87 -74
l54 -11c82 -16 127 -52 127 -118c0 -71 -57 -116 -137 -123z" />
    <glyph glyph-name="Tcommaaccent" unicode="&#x162;" horiz-adv-x="617" 
d="M584 700v-55h-246v-645h-59v645h-246v55h551zM339 -44l-38 -166h-48l24 166h62z" />
    <glyph glyph-name="tcommaaccent" unicode="&#x163;" horiz-adv-x="391" 
d="M32 432h89v136h55v-136h172v-50h-172v-240c0 -72 31 -96 96 -96c28 0 56 6 78 14v-50c-20 -9 -55 -16 -86 -16c-92 0 -144 40 -144 140v248h-88v50zM279 -44l-36 -164h-48l24 164h60z" />
    <glyph glyph-name="Tcaron" unicode="&#x164;" horiz-adv-x="617" 
d="M584 700v-55h-246v-645h-59v645h-246v55h551zM339 758h-62l-127 133h61l97 -86l97 86h61z" />
    <glyph glyph-name="tcaron" unicode="&#x165;" horiz-adv-x="391" 
d="M32 432h89v136h55v-136h172v-50h-172v-240c0 -72 31 -96 96 -96c28 0 56 6 78 14v-50c-20 -9 -55 -16 -86 -16c-92 0 -144 40 -144 140v248h-88v50zM263 514l9 186h57l-27 -186h-39z" />
    <glyph glyph-name="Tbar" unicode="&#x166;" horiz-adv-x="617" 
d="M480 375v-48h-142v-327h-59v327h-143v48h143v270h-246v55h551v-55h-246v-270h142z" />
    <glyph glyph-name="tbar" unicode="&#x167;" horiz-adv-x="391" 
d="M176 568v-136h172v-50h-172v-137h146v-48h-146v-55c0 -72 31 -96 96 -96c28 0 56 6 78 14v-50c-20 -9 -55 -16 -86 -16c-92 0 -144 40 -144 140v63h-87v48h87v137h-88v50h89v136h55z" />
    <glyph glyph-name="Utilde" unicode="&#x168;" horiz-adv-x="775" 
d="M387 -9c-166 0 -287 102 -287 290v419h60v-409c0 -161 91 -244 228 -244s228 83 228 244v409h59v-419c0 -188 -121 -290 -288 -290zM507 848l40 -5c-12 -50 -40 -87 -89 -87c-54 0 -95 43 -138 43c-26 0 -41 -14 -51 -40l-40 6c12 50 40 86 89 86c54 0 95 -43 138 -43
c26 0 41 14 51 40z" />
    <glyph glyph-name="utilde" unicode="&#x169;" horiz-adv-x="547" 
d="M256 -7c-110 0 -181 70 -181 179v260h56v-242c0 -91 45 -146 136 -146c83 0 143 56 143 149v239h56v-432h-55v74c-30 -52 -87 -81 -155 -81zM426 599c-13 -49 -40 -85 -88 -85c-44 0 -94 43 -134 43c-25 0 -39 -13 -49 -40l-39 6c13 49 40 84 88 84c44 0 94 -43 134 -43
c25 0 39 12 49 40z" />
    <glyph glyph-name="Umacron" unicode="&#x16a;" horiz-adv-x="775" 
d="M387 -9c-166 0 -287 102 -287 290v419h60v-409c0 -161 91 -244 228 -244s228 83 228 244v409h59v-419c0 -188 -121 -290 -288 -290zM542 810v-48h-308v48h308z" />
    <glyph glyph-name="umacron" unicode="&#x16b;" horiz-adv-x="547" 
d="M256 -7c-110 0 -181 70 -181 179v260h56v-242c0 -91 45 -146 136 -146c83 0 143 56 143 149v239h56v-432h-55v74c-30 -52 -87 -81 -155 -81zM419 588v-47h-296v47h296z" />
    <glyph glyph-name="Ubreve" unicode="&#x16c;" horiz-adv-x="775" 
d="M387 -9c-166 0 -287 102 -287 290v419h60v-409c0 -161 91 -244 228 -244s228 83 228 244v409h59v-419c0 -188 -121 -290 -288 -290zM388 757c-100 0 -146 64 -158 127h52c7 -43 44 -78 106 -78c63 0 99 35 106 78h52c-12 -63 -58 -127 -158 -127z" />
    <glyph glyph-name="ubreve" unicode="&#x16d;" horiz-adv-x="547" 
d="M256 -7c-110 0 -181 70 -181 179v260h56v-242c0 -91 45 -146 136 -146c83 0 143 56 143 149v239h56v-432h-55v74c-30 -52 -87 -81 -155 -81zM271 518c-100 0 -143 65 -155 128h50c9 -45 45 -81 105 -81s96 36 105 81h50c-12 -63 -55 -128 -155 -128z" />
    <glyph glyph-name="Uring" unicode="&#x16e;" horiz-adv-x="775" 
d="M387 -9c-166 0 -287 102 -287 290v419h60v-409c0 -161 91 -244 228 -244s228 83 228 244v409h59v-419c0 -188 -121 -290 -288 -290zM388 791c34 0 57 24 57 57s-23 57 -57 57s-57 -24 -57 -57s23 -57 57 -57zM388 754c-57 0 -98 40 -98 94s41 94 98 94s98 -40 98 -94
s-41 -94 -98 -94z" />
    <glyph glyph-name="uring" unicode="&#x16f;" horiz-adv-x="547" 
d="M256 -7c-110 0 -181 70 -181 179v260h56v-242c0 -91 45 -146 136 -146c83 0 143 56 143 149v239h56v-432h-55v74c-30 -52 -87 -81 -155 -81zM271 503c-57 0 -97 40 -97 93c0 54 40 93 97 93s97 -39 97 -93c0 -53 -40 -93 -97 -93zM271 539c34 0 58 23 58 57
s-24 58 -58 58s-58 -24 -58 -58s24 -57 58 -57z" />
    <glyph glyph-name="Uhungarumlaut" unicode="&#x170;" horiz-adv-x="775" 
d="M387 -9c-166 0 -287 102 -287 290v419h60v-409c0 -161 91 -244 228 -244s228 83 228 244v409h59v-419c0 -188 -121 -290 -288 -290zM403 884l-98 -128l-37 21l78 142zM585 884l-98 -128l-38 21l79 142z" />
    <glyph glyph-name="uhungarumlaut" unicode="&#x171;" horiz-adv-x="547" 
d="M256 -7c-110 0 -181 70 -181 179v260h56v-242c0 -91 45 -146 136 -146c83 0 143 56 143 149v239h56v-432h-55v74c-30 -52 -87 -81 -155 -81zM272 657l-104 -141l-36 19l87 155zM445 657l-103 -141l-36 19l87 155z" />
    <glyph glyph-name="Uogonek" unicode="&#x172;" horiz-adv-x="775" 
d="M526 -124l20 -34c-21 -19 -54 -37 -95 -37c-54 0 -95 27 -95 81c0 42 25 77 62 106c-10 -1 -21 -1 -31 -1c-166 0 -287 102 -287 290v419h60v-409c0 -161 91 -244 228 -244s228 83 228 244v409h59v-419c0 -137 -64 -229 -164 -268c-60 -31 -98 -74 -98 -113
c0 -31 17 -45 48 -45c25 0 45 8 65 21z" />
    <glyph glyph-name="uogonek" unicode="&#x173;" horiz-adv-x="547" 
d="M468 -123l19 -34c-19 -18 -51 -34 -90 -34c-51 0 -92 27 -92 73c0 53 45 90 106 122v70c-30 -52 -87 -81 -155 -81c-110 0 -181 70 -181 179v260h56v-242c0 -91 45 -146 136 -146c83 0 143 56 143 149v239h56v-431l1 -1c-67 -32 -107 -65 -107 -107c0 -23 18 -35 47 -35
c21 0 43 6 61 19z" />
    <glyph glyph-name="Wcircumflex" unicode="&#x174;" horiz-adv-x="1112" 
d="M582 700l212 -609l213 609h61l-249 -704h-49l-214 600l-214 -600h-49l-249 704h63l210 -608l215 608h50zM525 891h62l127 -133h-61l-97 86l-97 -86h-61z" />
    <glyph glyph-name="wcircumflex" unicode="&#x175;" horiz-adv-x="766" 
d="M521 -2l-137 352l-139 -352h-43l-170 434h59l133 -352l137 352h48l133 -352l136 352h56l-170 -434h-43zM353 655h62l122 -137h-58l-95 91l-95 -91h-58z" />
    <glyph glyph-name="Ycircumflex" unicode="&#x176;" horiz-adv-x="664" 
d="M82 700l250 -367l250 367h66l-286 -420v-280h-60v280l-286 420h66zM301 891h62l127 -133h-61l-97 86l-97 -86h-61z" />
    <glyph glyph-name="ycircumflex" unicode="&#x177;" horiz-adv-x="489" 
d="M84 432l166 -324l156 324h59l-317 -648h-60l132 267l-196 381h60zM219 655h62l122 -137h-58l-95 91l-95 -91h-58z" />
    <glyph glyph-name="Zacute" unicode="&#x179;" horiz-adv-x="687" 
d="M613 55v-55h-539v44l457 601h-449v55h526v-44l-456 -601h461zM457 907l42 -51l-154 -101l-28 33z" />
    <glyph glyph-name="zacute" unicode="&#x17a;" horiz-adv-x="480" 
d="M63 383v49h360v-39l-293 -345h295v-48h-369v39l292 344h-285zM357 676l43 -46l-154 -118l-28 30z" />
    <glyph glyph-name="Zdotaccent" unicode="&#x17b;" horiz-adv-x="687" 
d="M613 55v-55h-539v44l457 601h-449v55h526v-44l-456 -601h461zM305 797c0 24 16 41 41 41s41 -17 41 -41c0 -25 -16 -41 -41 -41s-41 16 -41 41z" />
    <glyph glyph-name="zdotaccent" unicode="&#x17c;" horiz-adv-x="480" 
d="M63 383v49h360v-39l-293 -345h295v-48h-369v39l292 344h-285zM206 576c0 23 16 39 40 39s40 -16 40 -39c0 -24 -16 -40 -40 -40s-40 16 -40 40z" />
    <glyph glyph-name="Aringacute" unicode="&#x1fa;" horiz-adv-x="743" 
d="M648 0l-88 200h-378l-88 -200h-59l313 704h47l313 -704h-60zM371 626l-164 -371h328zM371 755c-57 0 -98 40 -98 94s41 94 98 94s98 -40 98 -94s-41 -94 -98 -94zM371 792c34 0 57 24 57 57s-23 57 -57 57s-57 -24 -57 -57s23 -57 57 -57zM483 1135l42 -51l-154 -101
l-28 33z" />
    <glyph glyph-name="aringacute" unicode="&#x1fb;" horiz-adv-x="573" 
d="M50 216c0 125 94 223 219 223c71 0 130 -34 168 -85v78h55v-432h-55v77c-38 -50 -97 -84 -168 -84c-125 0 -219 97 -219 223zM107 216c0 -99 69 -173 165 -173c91 0 165 74 165 173s-74 172 -165 172c-96 0 -165 -73 -165 -172zM269 503c-57 0 -97 40 -97 93
c0 54 40 93 97 93s97 -39 97 -93c0 -53 -40 -93 -97 -93zM269 539c34 0 58 23 58 57s-24 58 -58 58s-58 -24 -58 -58s24 -57 58 -57zM380 897l43 -46l-154 -118l-28 30z" />
    <glyph glyph-name="AEacute" unicode="&#x1fc;" horiz-adv-x="1114" 
d="M1038 700v-55h-418v-265h394v-54h-394v-271h422v-55h-481v193h-331l-143 -193h-71l523 700h499zM271 248h290v390zM685 907l42 -51l-154 -101l-28 33z" />
    <glyph glyph-name="aeacute" unicode="&#x1fd;" horiz-adv-x="838" 
d="M789 194h-353v-2c9 -95 75 -151 158 -151c66 0 120 33 133 86h53c-18 -79 -95 -134 -188 -134c-78 0 -143 40 -179 103c-30 -54 -98 -102 -199 -102c-88 0 -165 33 -165 124c0 76 54 121 158 121h177c1 10 2 20 4 30c-2 74 -46 120 -133 120c-73 0 -118 -27 -125 -68h-54
c9 66 72 117 179 117c89 0 143 -35 166 -88c37 55 97 89 167 89c119 0 202 -99 202 -221c0 -7 0 -12 -1 -24zM388 166c-2 9 -3 18 -4 28h-166c-82 0 -115 -25 -115 -76c0 -58 48 -77 110 -77c98 0 170 50 175 125zM588 390c-78 0 -143 -56 -152 -150v-1h298
c-9 94 -73 151 -146 151zM533 673l43 -46l-154 -118l-28 30z" />
    <glyph glyph-name="Oslashacute" unicode="&#x1fe;" horiz-adv-x="852" 
d="M426 709c86 0 164 -29 225 -79l70 75l34 -33l-69 -74c61 -64 98 -151 98 -248c0 -200 -158 -359 -358 -359c-87 0 -165 29 -227 79l-68 -75l-34 33l68 74c-60 64 -97 151 -97 248c0 200 158 359 358 359zM426 48c166 0 296 131 296 302c0 80 -29 152 -77 205l-406 -442
c51 -41 115 -65 187 -65zM130 350c0 -80 28 -152 76 -205l405 442c-50 41 -114 65 -185 65c-166 0 -296 -131 -296 -302zM538 907l42 -51l-154 -101l-28 33z" />
    <glyph glyph-name="oslashacute" unicode="&#x1ff;" horiz-adv-x="547" 
d="M274 439c52 0 99 -17 137 -46l39 42l28 -28l-38 -41c36 -40 58 -92 58 -150c0 -125 -100 -223 -224 -223c-52 0 -100 17 -137 45l-40 -42l-28 29l38 41c-36 39 -57 91 -57 150c0 125 99 223 224 223zM274 43c93 0 166 74 166 173c0 43 -14 81 -38 111l-230 -250
c28 -22 63 -34 102 -34zM107 216c0 -43 13 -81 36 -111l232 249c-28 21 -63 34 -101 34c-94 0 -167 -73 -167 -172zM385 676l43 -46l-154 -118l-28 30z" />
    <glyph glyph-name="Scommaaccent" unicode="&#x218;" horiz-adv-x="634" 
d="M320 46c109 0 187 49 187 139c0 64 -42 106 -136 127l-107 24c-120 27 -191 81 -191 186c0 120 94 186 234 186s223 -64 237 -161h-58c-12 64 -73 107 -180 107c-103 0 -173 -42 -173 -130c0 -74 55 -111 153 -134l107 -23c121 -27 174 -83 174 -179
c0 -131 -107 -196 -246 -196c-151 0 -251 65 -265 175h59c11 -76 87 -121 205 -121zM352 -44l-38 -166h-48l24 166h62z" />
    <glyph glyph-name="scommaaccent" unicode="&#x219;" horiz-adv-x="412" 
d="M209 41c59 0 109 28 109 76c0 41 -24 60 -90 73l-53 11c-81 17 -125 51 -125 117c0 73 64 120 151 120c100 0 154 -49 162 -113h-53c-6 38 -46 66 -109 66c-55 0 -97 -28 -97 -70c0 -46 34 -62 87 -74l54 -11c82 -16 127 -52 127 -118c0 -78 -69 -125 -163 -125
c-104 0 -166 50 -175 120h53c7 -44 55 -72 122 -72zM240 -44l-36 -164h-48l24 164h60z" />
    <glyph glyph-name="uni021B" unicode="&#x21b;" horiz-adv-x="391" 
d="M32 432h89v136h55v-136h172v-50h-172v-240c0 -72 31 -96 96 -96c28 0 56 6 78 14v-50c-20 -9 -55 -16 -86 -16c-92 0 -144 40 -144 140v248h-88v50zM279 -44l-36 -164h-48l24 164h60z" />
    <glyph glyph-name="dotlessj" unicode="&#x237;" horiz-adv-x="225" 
d="M86 -70v502h56v-510c0 -98 -43 -143 -123 -143c-19 0 -37 2 -51 5v49c14 -2 28 -3 41 -3c53 0 77 30 77 100z" />
    <glyph glyph-name="uni02C9" unicode="&#x2c9;" 
d="M389 590v-47h-278v47h278z" />
    <glyph glyph-name="Wgrave" unicode="&#x1e80;" horiz-adv-x="1112" 
d="M582 700l212 -609l213 609h61l-249 -704h-49l-214 600l-214 -600h-49l-249 704h63l210 -608l215 608h50zM403 856l42 51l140 -119l-28 -33z" />
    <glyph glyph-name="wgrave" unicode="&#x1e81;" horiz-adv-x="766" 
d="M521 -2l-137 352l-139 -352h-43l-170 434h59l133 -352l137 352h48l133 -352l136 352h56l-170 -434h-43zM230 630l43 46l139 -134l-28 -30z" />
    <glyph glyph-name="Wacute" unicode="&#x1e82;" horiz-adv-x="1112" 
d="M582 700l212 -609l213 609h61l-249 -704h-49l-214 600l-214 -600h-49l-249 704h63l210 -608l215 608h50zM668 907l42 -51l-154 -101l-28 33z" />
    <glyph glyph-name="wacute" unicode="&#x1e83;" horiz-adv-x="766" 
d="M521 -2l-137 352l-139 -352h-43l-170 434h59l133 -352l137 352h48l133 -352l136 352h56l-170 -434h-43zM495 676l43 -46l-154 -118l-28 30z" />
    <glyph glyph-name="Wdieresis" unicode="&#x1e84;" horiz-adv-x="1112" 
d="M582 700l212 -609l213 609h61l-249 -704h-49l-214 600l-214 -600h-49l-249 704h63l210 -608l215 608h50zM410 796c0 24 16 41 41 41s41 -17 41 -41s-16 -41 -41 -41s-41 17 -41 41zM620 796c0 24 16 41 41 41s41 -17 41 -41s-16 -41 -41 -41s-41 17 -41 41z" />
    <glyph glyph-name="wdieresis" unicode="&#x1e85;" horiz-adv-x="766" 
d="M521 -2l-137 352l-139 -352h-43l-170 434h59l133 -352l137 352h48l133 -352l136 352h56l-170 -434h-43zM248 568c0 23 16 40 40 40c25 0 40 -17 40 -40c0 -24 -15 -40 -40 -40c-24 0 -40 16 -40 40zM440 568c0 23 15 40 40 40c24 0 40 -17 40 -40c0 -24 -16 -40 -40 -40
c-25 0 -40 16 -40 40z" />
    <glyph glyph-name="Ygrave" unicode="&#x1ef2;" horiz-adv-x="664" 
d="M82 700l250 -367l250 367h66l-286 -420v-280h-60v280l-286 420h66zM178 856l42 51l140 -119l-28 -33z" />
    <glyph glyph-name="ygrave" unicode="&#x1ef3;" horiz-adv-x="489" 
d="M84 432l166 -324l156 324h59l-317 -648h-60l132 267l-196 381h60zM96 630l43 46l139 -134l-28 -30z" />
    <glyph glyph-name="afii61289" unicode="&#x2113;" horiz-adv-x="498" 
d="M433 541c-1 -139 -127 -264 -270 -321v-37c1 -104 43 -134 119 -134c35 0 71 13 95 28l20 -47c-28 -20 -78 -36 -124 -36c-98 0 -164 49 -165 181v285c0 137 51 249 173 249c104 0 152 -75 152 -168zM163 453v-183c109 49 213 155 213 272c0 57 -24 116 -94 116
c-80 0 -119 -77 -119 -205z" />
    <glyph glyph-name="estimated" unicode="&#x212e;" horiz-adv-x="840" 
d="M420 670c-89 0 -168 -36 -224 -95v-205h453v200c-56 61 -136 100 -229 100zM675 141l35 -26c-67 -71 -159 -125 -286 -125c-205 0 -364 159 -364 360s159 360 360 360c200 0 360 -158 360 -360c0 -7 -1 -13 -1 -20h-583v-205c56 -59 132 -95 228 -95
c112 0 195 46 251 111z" />
    <glyph glyph-name="uni00A0" unicode="&#xa0;" horiz-adv-x="244" 
 />
    <glyph glyph-name="uniF8FF" unicode="&#xf8ff;" horiz-adv-x="1300" 
d="M282 463c0 -7 -6 -11 -15 -11c-13 0 -21 4 -21 15h-23c1 -24 17 -35 45 -35c21 0 38 10 38 32c0 16 -8 26 -26 30l-17 4c-8 2 -14 5 -14 11s5 10 16 10c12 0 17 -6 17 -13h23c-2 21 -17 33 -41 33c-25 0 -39 -13 -39 -30c0 -20 13 -26 29 -30l17 -4c8 -2 11 -6 11 -12z
M398 516v22h-87v-22h31v-82h25v82h31zM678 434v104h-26v-104h26zM740 470l25 -36h28l-38 53l37 51h-29l-23 -33l-23 33h-29l37 -51l-38 -53h28zM253 355h56v22h-81v-104h25v35h51v22h-51v25zM486 272c32 0 49 16 49 46v59h-25v-55c0 -19 -8 -28 -24 -28s-24 9 -24 28v55h-25
v-59c0 -30 17 -46 49 -46zM645 273v104h-24v-64l-47 64h-25v-104h24v64l47 -64h25zM659 273h42c33 0 53 22 53 52s-20 52 -53 52h-42v-104zM904 336l-24 41h-29l40 -64v-40h25v40l40 64h-27zM223 614h854c3 0 5 3 5 5s-2 4 -5 4h-854c-2 0 -4 -2 -4 -4s2 -5 4 -5zM1205 646
v-719c0 -70 -31 -91 -101 -91h-907c-70 0 -101 21 -101 91v719c0 70 31 91 101 91h907c70 0 101 -21 101 -91zM223 188h854c3 0 5 3 5 5s-2 4 -5 4h-854c-2 0 -4 -2 -4 -4s2 -5 4 -5zM447 538h-20l-44 -104h26l7 19h42l7 -19h26zM450 473h-26l13 34zM568 538h-23l-20 -70
l-29 70h-28l44 -104h25l20 69l26 -69h26l33 104h-28l-22 -71zM370 272c31 0 55 22 55 53s-24 53 -55 53s-55 -22 -55 -53s24 -53 55 -53zM370 294c-17 0 -30 12 -30 31s13 31 30 31s30 -12 30 -31s-13 -31 -30 -31zM699 295h-15v60h15c20 0 30 -13 30 -30s-10 -30 -30 -30z
M790 326v30h21c10 0 18 -4 18 -15s-8 -15 -18 -15h-21zM856 273l-26 34c15 5 24 17 24 34c0 22 -15 36 -41 36h-48v-104h25v32h15l23 -32h28z" />
    <glyph glyph-name="asciicircum" unicode="^" horiz-adv-x="602" 
d="M330 700l208 -350h-66l-171 287l-170 -287h-67l209 350h57z" />
    <glyph glyph-name="underscore" unicode="_" horiz-adv-x="423" 
d="M0 -114v48h423v-48h-423z" />
    <glyph glyph-name="grave" unicode="`" 
d="M112 630l43 46l139 -134l-28 -30z" />
    <glyph glyph-name="asciitilde" unicode="~" 
d="M391 265l37 -5c-11 -49 -44 -90 -97 -90c-30 0 -60 13 -88 25c-23 10 -45 24 -72 24c-36 0 -52 -22 -62 -50l-37 6c12 49 45 90 97 90c30 0 60 -13 88 -25c23 -10 46 -24 73 -24c35 0 51 22 61 49z" />
    <glyph glyph-name="dieresis" unicode="&#xa8;" 
d="M114 568c0 23 16 40 40 40c25 0 40 -17 40 -40c0 -24 -15 -40 -40 -40c-24 0 -40 16 -40 40zM306 568c0 23 15 40 40 40c24 0 40 -17 40 -40c0 -24 -16 -40 -40 -40c-25 0 -40 16 -40 40z" />
    <glyph glyph-name="ring" unicode="&#x2da;" 
d="M250 539c34 0 58 23 58 57s-24 58 -58 58s-58 -24 -58 -58s24 -57 58 -57zM250 503c-57 0 -97 40 -97 93c0 54 40 93 97 93s97 -39 97 -93c0 -53 -40 -93 -97 -93z" />
    <glyph glyph-name="cedilla" unicode="&#xb8;" 
d="M247 -161h-63l61 163h52z" />
    <glyph glyph-name="ogonek" unicode="&#x2db;" 
d="M321 -121l19 -34c-19 -18 -51 -34 -90 -34c-51 0 -92 27 -92 73c0 64 66 105 147 143l15 -25c-67 -32 -107 -65 -107 -107c0 -23 18 -35 47 -35c21 0 43 6 61 19z" />
    <glyph glyph-name="atilde" unicode="&#xe3;" horiz-adv-x="573" 
d="M50 216c0 125 94 223 219 223c71 0 130 -34 168 -85v78h55v-432h-55v77c-38 -50 -97 -84 -168 -84c-125 0 -219 97 -219 223zM107 216c0 -99 69 -173 165 -173c91 0 165 74 165 173s-74 172 -165 172c-96 0 -165 -73 -165 -172zM424 599c-13 -49 -40 -85 -88 -85
c-44 0 -94 43 -134 43c-25 0 -39 -13 -49 -40l-39 6c13 49 40 84 88 84c44 0 94 -43 134 -43c25 0 39 12 49 40z" />
    <glyph glyph-name="fi" unicode="&#xfb01;" horiz-adv-x="579" 
d="M35 432h89v82c0 125 47 191 153 191c25 0 51 -4 65 -7v-49c-19 3 -36 5 -57 5c-80 0 -105 -47 -105 -148v-74h152v-50h-152v-382h-56v382h-89v50zM496 432v-432h-56v432h56zM429 576c0 23 15 39 39 39c25 0 40 -16 40 -39c0 -24 -15 -40 -40 -40c-24 0 -39 16 -39 40z
" />
    <glyph glyph-name="fl" unicode="&#xfb02;" horiz-adv-x="579" 
d="M35 432h89v82c0 125 47 191 153 191c25 0 51 -4 65 -7v-49c-19 3 -36 5 -57 5c-80 0 -105 -47 -105 -148v-74h152v-50h-152v-382h-56v382h-89v50zM496 700v-700h-56v700h56z" />
    <glyph glyph-name="Atilde" unicode="&#xc3;" horiz-adv-x="743" 
d="M648 0l-88 200h-378l-88 -200h-59l313 704h47l313 -704h-60zM371 626l-164 -371h328zM490 848l40 -5c-12 -50 -40 -87 -89 -87c-54 0 -95 43 -138 43c-26 0 -41 -14 -51 -40l-40 6c12 50 40 86 89 86c54 0 95 -43 138 -43c26 0 41 14 51 40z" />
    <glyph glyph-name="zero" unicode="0" horiz-adv-x="701" 
d="M351 709c171 0 283 -137 283 -359s-112 -359 -283 -359c-172 0 -284 137 -284 359s112 359 284 359zM351 46c132 0 221 113 221 304s-89 304 -221 304c-133 0 -221 -113 -221 -304s88 -304 221 -304z" />
    <glyph glyph-name="one" unicode="1" horiz-adv-x="491" 
d="M248 0v643l-178 -52l-18 46l205 67h51v-704h-60z" />
    <glyph glyph-name="two" unicode="2" horiz-adv-x="625" 
d="M308 654c-114 0 -176 -60 -184 -156h-59c10 123 92 211 244 211c146 0 233 -86 233 -207c0 -109 -65 -173 -164 -260l-214 -187h394v-55h-490v44l264 233c95 84 149 139 149 225c0 91 -64 152 -173 152z" />
    <glyph glyph-name="three" unicode="3" horiz-adv-x="612" 
d="M302 655c-114 0 -176 -57 -184 -142h-59c8 116 92 196 243 196c123 0 230 -64 230 -182c0 -88 -47 -141 -108 -157c75 -13 129 -76 129 -171c0 -128 -107 -208 -251 -208c-158 0 -241 79 -252 195h59c10 -86 72 -141 192 -141c115 0 191 56 191 155
c0 96 -66 140 -165 140h-78v51h71c96 0 151 46 151 133c0 86 -77 131 -169 131z" />
    <glyph glyph-name="four" unicode="4" horiz-adv-x="663" 
d="M506 702v-472h117v-52h-117v-178h-60v178h-402v48l407 476h55zM114 230h332v386z" />
    <glyph glyph-name="five" unicode="5" horiz-adv-x="606" 
d="M298 45c111 0 191 73 191 174c0 92 -66 167 -189 167c-70 0 -133 -20 -167 -44l-57 21l18 337h411v-55h-357l-13 -248c35 22 103 41 171 41c155 0 245 -94 245 -217c0 -137 -111 -230 -252 -230c-153 0 -241 82 -251 196h59c9 -81 77 -142 191 -142z" />
    <glyph glyph-name="six" unicode="6" horiz-adv-x="635" 
d="M340 454c141 0 243 -100 243 -228c0 -139 -98 -235 -246 -235c-147 0 -270 95 -270 333c0 188 65 385 278 385c119 0 201 -66 217 -152h-60c-13 60 -74 99 -157 99c-176 0 -216 -174 -218 -326c31 69 113 124 213 124zM336 45c114 0 186 74 186 181
c0 99 -73 175 -187 175c-106 0 -194 -75 -194 -174c0 -102 86 -182 195 -182z" />
    <glyph glyph-name="seven" unicode="7" horiz-adv-x="610" 
d="M544 654l-336 -654h-64l332 645h-413v55h481v-46z" />
    <glyph glyph-name="eight" unicode="8" horiz-adv-x="650" 
d="M325 -9c-155 0 -265 70 -265 194c0 85 59 153 151 173c-80 22 -130 87 -130 164c0 114 99 187 244 187c144 0 244 -73 244 -187c0 -77 -50 -142 -131 -164c93 -20 152 -88 152 -173c0 -124 -111 -194 -265 -194zM325 330c-122 0 -205 -57 -205 -145
c0 -92 84 -141 205 -141s204 49 204 141c0 88 -82 145 -204 145zM325 381c113 0 184 58 184 138c0 92 -79 137 -184 137c-106 0 -185 -45 -185 -137c0 -80 72 -138 185 -138z" />
    <glyph glyph-name="nine" unicode="9" horiz-adv-x="635" 
d="M295 246c-141 0 -243 100 -243 228c0 139 98 235 245 235c148 0 271 -96 271 -333c0 -188 -65 -385 -278 -385c-120 0 -201 66 -217 152h59c13 -60 75 -99 158 -99c175 0 215 174 218 326c-31 -70 -114 -124 -213 -124zM299 655c-114 0 -186 -74 -186 -181
c0 -99 72 -175 186 -175c107 0 195 75 195 175c0 101 -86 181 -195 181z" />
    <glyph glyph-name="ellipsis" unicode="&#x2026;" horiz-adv-x="829" 
d="M92 41c0 27 19 46 46 46s46 -19 46 -46c0 -26 -19 -46 -46 -46s-46 20 -46 46zM369 41c0 27 18 46 46 46c27 0 46 -19 46 -46c0 -26 -19 -46 -46 -46c-28 0 -46 20 -46 46zM645 41c0 27 19 46 46 46s46 -19 46 -46c0 -26 -19 -46 -46 -46s-46 20 -46 46z" />
    <glyph glyph-name="fraction" unicode="&#x2044;" horiz-adv-x="273" 
d="M-54 0h-62l442 700h63z" />
    <glyph glyph-name="Lslash" unicode="&#x141;" horiz-adv-x="608" 
d="M359 462l24 -41l-215 -123v-242h406v-56h-466v263l-67 -38l-23 41l90 51v383h60v-348z" />
    <glyph glyph-name="lslash" unicode="&#x142;" horiz-adv-x="265" 
d="M226 424l24 -40l-90 -52v-332h-56v300l-66 -38l-23 40l89 51v347h56v-314z" />
    <glyph glyph-name="mu" unicode="&#xb5;" horiz-adv-x="553" 
d="M269 -7c-58 0 -106 21 -132 56v-265h-56v648h56v-242c0 -91 45 -146 136 -146c83 0 143 56 143 149v239h56v-432h-55v73c-29 -51 -86 -80 -148 -80z" />
    <glyph glyph-name="florin" unicode="&#x192;" horiz-adv-x="648" 
d="M192 347h104l24 169c18 125 72 190 182 190c25 0 49 -4 63 -8l-6 -49c-18 3 -35 5 -56 5c-80 0 -111 -46 -125 -146l-23 -161h154l-7 -49h-154l-54 -377c-14 -97 -62 -143 -143 -143c-19 0 -39 3 -54 7l7 50c16 -3 31 -5 43 -5c52 0 79 30 89 99l53 369h-103z" />
    <glyph glyph-name="notequal" unicode="&#x2260;" horiz-adv-x="606" 
d="M479 473l-72 -113h98v-53h-132l-84 -132h216v-53h-250l-84 -132l-44 25l68 107h-94v53h128l84 132h-212v53h246l88 138z" />
    <glyph glyph-name="infinity" unicode="&#x221e;" horiz-adv-x="795" 
d="M744 327c0 -84 -62 -150 -157 -150c-74 0 -117 34 -190 117c-73 -83 -115 -117 -189 -117c-94 0 -157 66 -157 150s63 149 157 149c74 0 116 -34 189 -117c71 81 116 117 190 117c95 0 157 -65 157 -149zM207 220c58 0 92 26 162 106c-68 79 -104 107 -162 107
c-70 0 -107 -43 -107 -106c0 -64 37 -107 107 -107zM695 327c0 63 -37 106 -107 106c-58 0 -94 -28 -163 -107c70 -79 104 -106 163 -106c70 0 107 44 107 107z" />
    <glyph glyph-name="lessequal" unicode="&#x2264;" horiz-adv-x="606" 
d="M106 265v50l390 178v-65l-324 -138l324 -138v-65zM496 53v-53h-390v53h390z" />
    <glyph glyph-name="greaterequal" unicode="&#x2265;" horiz-adv-x="606" 
d="M500 315v-50l-390 -178v65l324 138l-324 138v65zM110 0v53h390v-53h-390z" />
    <glyph glyph-name="partialdiff" unicode="&#x2202;" horiz-adv-x="612" 
d="M302 457c95 0 169 -46 197 -117c0 14 1 27 1 41c0 143 -42 277 -173 277c-60 0 -113 -34 -129 -85h-58c22 78 94 136 190 136c169 0 228 -151 228 -326c0 -193 -70 -392 -281 -392c-135 0 -226 91 -226 215c0 133 108 251 251 251zM278 43c113 0 203 94 203 200
c0 93 -74 162 -175 162c-109 0 -196 -85 -196 -195c1 -97 66 -167 168 -167z" />
    <glyph glyph-name="summation" unicode="&#x2211;" horiz-adv-x="669" 
d="M357 354l-275 302v44h516v-54h-435l249 -270v-43l-256 -279h451v-54h-533v44z" />
    <glyph glyph-name="product" unicode="&#x220f;" horiz-adv-x="742" 
d="M40 646v54h662v-54h-134v-646h-59v646h-276v-646h-59v646h-134z" />
    <glyph glyph-name="pi" unicode="&#x3c0;" horiz-adv-x="681" 
d="M46 432h587v-50h-153v-237c0 -75 32 -99 83 -99c24 0 49 4 70 12v-50c-19 -8 -50 -13 -79 -13c-77 0 -130 39 -130 142v245h-176l-73 -382h-56l73 382h-146v50z" />
    <glyph glyph-name="integral" unicode="&#x222b;" horiz-adv-x="411" 
d="M197 67c0 141 -40 285 -40 432c0 173 52 247 135 247c17 0 34 -3 48 -6v-48c-12 2 -26 3 -37 3c-57 0 -90 -59 -90 -201c0 -141 40 -285 40 -432c0 -172 -52 -246 -134 -246c-18 0 -34 2 -49 5v49c13 -2 27 -3 38 -3c56 0 89 58 89 200z" />
    <glyph glyph-name="uni03A9" unicode="&#x3a9;" horiz-adv-x="824" 
d="M412 709c211 0 345 -148 345 -332c0 -142 -77 -258 -168 -321h155v-56h-245v42c117 86 195 196 195 323c0 160 -109 288 -282 288s-282 -128 -282 -288c0 -127 78 -237 196 -323v-42h-246v56h155c-91 63 -167 179 -167 321c0 184 133 332 344 332z" />
    <glyph glyph-name="logicalnot" unicode="&#xac;" horiz-adv-x="558" 
d="M52 402h424v-232h-56v181h-368v51z" />
    <glyph glyph-name="radical" unicode="&#x221a;" horiz-adv-x="643" 
d="M63 300v50h119l140 -356l233 769h57l-258 -845h-55l-155 382h-81z" />
    <glyph glyph-name="approxequal" unicode="&#x2248;" horiz-adv-x="610" 
d="M464 205l47 -5c-12 -68 -48 -106 -117 -106c-63 0 -126 61 -180 61c-41 0 -58 -22 -68 -58l-47 5c12 69 48 106 117 106c63 0 126 -61 180 -61c41 0 58 23 68 58zM464 386l47 -6c-12 -68 -48 -105 -117 -105c-63 0 -126 61 -180 61c-41 0 -58 -23 -68 -59l-47 6
c12 68 48 105 117 105c63 0 126 -60 180 -60c41 0 58 22 68 58z" />
    <glyph glyph-name="Delta" unicode="&#x2206;" horiz-adv-x="710" 
d="M599 54l-244 553l-244 -553h488zM670 0h-630v23l303 685h24l303 -685v-23z" />
    <glyph glyph-name="lozenge" unicode="&#x25ca;" horiz-adv-x="648" 
d="M565 350l-228 -358h-26l-228 358l228 358h26zM506 350l-182 289l-181 -289l181 -289z" />
    <glyph glyph-name="Omega" unicode="&#x2126;" horiz-adv-x="824" 
d="M412 709c211 0 345 -148 345 -332c0 -142 -77 -258 -168 -321h155v-56h-245v42c117 86 195 196 195 323c0 160 -109 288 -282 288s-282 -128 -282 -288c0 -127 78 -237 196 -323v-42h-246v56h155c-91 63 -167 179 -167 321c0 184 133 332 344 332z" />
    <glyph glyph-name="onedotenleader" unicode="&#x2024;" horiz-adv-x="230" 
d="M69 41c0 27 19 46 46 46s46 -19 46 -46c0 -26 -19 -46 -46 -46s-46 20 -46 46z" />
    <glyph glyph-name="twodotenleader" unicode="&#x2025;" horiz-adv-x="508" 
d="M335 41c0 27 19 46 46 46s46 -19 46 -46c0 -26 -19 -46 -46 -46s-46 20 -46 46zM81 41c0 27 19 46 46 46s46 -19 46 -46c0 -26 -19 -46 -46 -46s-46 20 -46 46z" />
    <glyph glyph-name="zero.superior" unicode="&#x2070;" horiz-adv-x="386" 
d="M193 888c100 0 165 -78 165 -188s-65 -188 -165 -188c-99 0 -164 78 -164 188s65 188 164 188zM193 557c68 0 113 56 113 143s-45 143 -113 143c-67 0 -113 -56 -113 -143s46 -143 113 -143z" />
    <glyph glyph-name="four.superior" unicode="&#x2074;" horiz-adv-x="386" 
d="M297 883v-236h61v-44h-61v-84h-50v84h-211v38l219 242h42zM95 647h153v168z" />
    <glyph glyph-name="five.superior" unicode="&#x2075;" horiz-adv-x="386" 
d="M194 556c62 0 95 31 95 76c0 46 -26 76 -97 76c-44 0 -70 -9 -89 -19l-39 11l12 181h239v-45h-197l-8 -105c20 11 53 18 90 18c91 0 139 -49 139 -116c0 -76 -62 -121 -144 -121c-89 0 -139 42 -145 110h46c5 -43 39 -66 98 -66z" />
    <glyph glyph-name="six.superior" unicode="&#x2076;" horiz-adv-x="386" 
d="M211 759c84 0 137 -52 137 -121c0 -74 -55 -126 -142 -126c-85 0 -155 54 -155 167c0 126 46 209 163 209c75 0 115 -36 126 -89h-48c-7 30 -37 46 -78 46c-82 0 -107 -59 -112 -134c17 31 58 48 109 48zM205 555c60 0 95 34 95 82c0 49 -35 80 -95 80
c-59 0 -98 -29 -98 -79c0 -46 37 -83 98 -83z" />
    <glyph glyph-name="seven.superior" unicode="&#x2077;" horiz-adv-x="386" 
d="M331 843l-183 -324h-57l180 317h-220v45h280v-38z" />
    <glyph glyph-name="eight.superior" unicode="&#x2078;" horiz-adv-x="386" 
d="M193 888c89 0 140 -39 140 -100c0 -43 -27 -72 -67 -82c42 -8 80 -42 80 -90c0 -67 -61 -104 -153 -104s-153 37 -153 104c0 48 38 82 80 90c-40 10 -67 39 -67 82c0 61 52 100 140 100zM193 556c62 0 105 19 105 62c0 42 -39 64 -105 64c-65 0 -105 -22 -105 -64
c0 -43 43 -62 105 -62zM193 724c58 0 93 22 93 61c0 42 -39 59 -93 59s-93 -17 -93 -59c0 -39 35 -61 93 -61z" />
    <glyph glyph-name="nine.superior" unicode="&#x2079;" horiz-adv-x="386" 
d="M176 641c-84 0 -138 52 -138 121c0 74 55 126 143 126c85 0 154 -54 154 -167c0 -126 -45 -209 -162 -209c-76 0 -116 36 -127 89h48c8 -30 38 -46 78 -46c83 0 107 60 113 135c-18 -31 -58 -49 -109 -49zM181 845c-60 0 -95 -34 -95 -82c0 -49 35 -80 95 -80
c59 0 98 28 98 78c0 46 -37 84 -98 84z" />
    <glyph glyph-name="parenleft.superior" unicode="&#x207d;" horiz-adv-x="269" 
d="M57 700c0 112 70 209 181 237v-43c-78 -24 -130 -99 -130 -194s52 -170 130 -194v-43c-111 28 -181 125 -181 237z" />
    <glyph glyph-name="parenright.superior" unicode="&#x207e;" horiz-adv-x="269" 
d="M212 700c0 -112 -70 -209 -180 -237v43c78 24 129 99 129 194s-51 170 -129 194v43c110 -28 180 -125 180 -237z" />
    <glyph glyph-name="zero.inferior" unicode="&#x2080;" horiz-adv-x="386" 
d="M193 188c100 0 165 -78 165 -188s-65 -188 -165 -188c-99 0 -164 78 -164 188s65 188 164 188zM193 -143c68 0 113 56 113 143s-45 143 -113 143c-67 0 -113 -56 -113 -143s46 -143 113 -143z" />
    <glyph glyph-name="one.inferior" unicode="&#x2081;" horiz-adv-x="386" 
d="M198 -181v309l-108 -36l-14 41l132 50h40v-364h-50z" />
    <glyph glyph-name="two.inferior" unicode="&#x2082;" horiz-adv-x="386" 
d="M192 144c-61 0 -90 -31 -94 -80h-48c5 70 53 124 143 124c86 0 134 -45 134 -110c0 -58 -39 -96 -94 -138l-97 -76h200v-45h-283v35l145 115c53 42 80 68 80 108s-31 67 -86 67z" />
    <glyph glyph-name="three.inferior" unicode="&#x2083;" horiz-adv-x="386" 
d="M191 144c-61 0 -92 -28 -96 -69h-47c5 68 55 113 144 113c73 0 133 -34 133 -104c0 -35 -21 -64 -50 -72c39 -9 62 -40 62 -87c0 -71 -63 -113 -146 -113c-91 0 -142 41 -148 112h48c5 -44 38 -68 100 -68c58 0 97 22 97 70c0 41 -25 60 -77 60h-47v43h47
c46 0 66 21 66 52c0 43 -37 63 -86 63z" />
    <glyph glyph-name="four.inferior" unicode="&#x2084;" horiz-adv-x="386" 
d="M297 183v-236h61v-44h-61v-84h-50v84h-211v38l219 242h42zM95 -53h153v168z" />
    <glyph glyph-name="five.inferior" unicode="&#x2085;" horiz-adv-x="386" 
d="M194 -144c62 0 95 31 95 76c0 46 -26 76 -97 76c-44 0 -70 -9 -89 -19l-39 11l12 181h239v-45h-197l-8 -105c20 11 53 18 90 18c91 0 139 -49 139 -116c0 -76 -62 -121 -144 -121c-89 0 -139 42 -145 110h46c5 -43 39 -66 98 -66z" />
    <glyph glyph-name="six.inferior" unicode="&#x2086;" horiz-adv-x="386" 
d="M211 59c84 0 137 -52 137 -121c0 -74 -55 -126 -142 -126c-85 0 -155 54 -155 167c0 126 46 209 163 209c75 0 115 -36 126 -89h-48c-7 30 -37 46 -78 46c-82 0 -107 -59 -112 -134c17 31 58 48 109 48zM205 -145c60 0 95 34 95 82c0 49 -35 80 -95 80
c-59 0 -98 -29 -98 -79c0 -46 37 -83 98 -83z" />
    <glyph glyph-name="seven.inferior" unicode="&#x2087;" horiz-adv-x="386" 
d="M331 143l-183 -324h-57l180 317h-220v45h280v-38z" />
    <glyph glyph-name="eight.inferior" unicode="&#x2088;" horiz-adv-x="386" 
d="M193 188c89 0 140 -39 140 -100c0 -43 -27 -72 -67 -82c42 -8 80 -42 80 -90c0 -67 -61 -104 -153 -104s-153 37 -153 104c0 48 38 82 80 90c-40 10 -67 39 -67 82c0 61 52 100 140 100zM193 -144c62 0 105 19 105 62c0 42 -39 64 -105 64c-65 0 -105 -22 -105 -64
c0 -43 43 -62 105 -62zM193 24c58 0 93 22 93 61c0 42 -39 59 -93 59s-93 -17 -93 -59c0 -39 35 -61 93 -61z" />
    <glyph glyph-name="nine.inferior" unicode="&#x2089;" horiz-adv-x="386" 
d="M176 -59c-84 0 -138 52 -138 121c0 74 55 126 143 126c85 0 154 -54 154 -167c0 -126 -45 -209 -162 -209c-76 0 -116 36 -127 89h48c8 -30 38 -46 78 -46c83 0 107 60 113 135c-18 -31 -58 -49 -109 -49zM181 145c-60 0 -95 -34 -95 -82c0 -49 35 -80 95 -80
c59 0 98 28 98 78c0 46 -37 84 -98 84z" />
    <glyph glyph-name="parenleft.inferior" unicode="&#x208d;" horiz-adv-x="269" 
d="M57 0c0 112 70 209 181 237v-43c-78 -24 -130 -99 -130 -194s52 -170 130 -194v-43c-111 28 -181 125 -181 237z" />
    <glyph glyph-name="parenright.inferior" unicode="&#x208e;" horiz-adv-x="269" 
d="M212 0c0 -112 -70 -209 -180 -237v43c78 24 129 99 129 194s-51 170 -129 194v43c110 -28 180 -125 180 -237z" />
    <glyph glyph-name="onethird" unicode="&#x2153;" horiz-adv-x="892" 
d="M231 0h-55l444 700h55zM697 325c-61 0 -92 -28 -96 -69h-47c5 68 55 113 144 113c73 0 133 -34 133 -104c0 -35 -21 -64 -50 -72c39 -9 62 -40 62 -87c0 -71 -63 -113 -146 -113c-91 0 -142 41 -148 112h48c5 -44 38 -68 100 -68c58 0 97 22 97 70c0 41 -25 60 -77 60
h-47v43h47c46 0 66 21 66 52c0 43 -37 63 -86 63zM198 338v309l-108 -36l-14 41l132 50h40v-364h-50z" />
    <glyph glyph-name="twothirds" unicode="&#x2154;" horiz-adv-x="892" 
d="M192 663c-61 0 -90 -31 -94 -80h-48c5 70 53 124 143 124c86 0 134 -45 134 -110c0 -58 -39 -96 -94 -138l-97 -76h200v-45h-283v35l145 115c53 42 80 68 80 108s-31 67 -86 67zM273 0h-55l444 700h55zM697 325c-61 0 -92 -28 -96 -69h-47c5 68 55 113 144 113
c73 0 133 -34 133 -104c0 -35 -21 -64 -50 -72c39 -9 62 -40 62 -87c0 -71 -63 -113 -146 -113c-91 0 -142 41 -148 112h48c5 -44 38 -68 100 -68c58 0 97 22 97 70c0 41 -25 60 -77 60h-47v43h47c46 0 66 21 66 52c0 43 -37 63 -86 63z" />
    <glyph glyph-name="oneeighth" unicode="&#x215b;" horiz-adv-x="892" 
d="M240 0h-55l444 700h55zM699 369c89 0 140 -39 140 -100c0 -43 -27 -72 -67 -82c42 -8 80 -42 80 -90c0 -67 -61 -104 -153 -104s-153 37 -153 104c0 48 38 82 80 90c-40 10 -67 39 -67 82c0 61 52 100 140 100zM699 37c62 0 105 19 105 62c0 42 -39 64 -105 64
c-65 0 -105 -22 -105 -64c0 -43 43 -62 105 -62zM699 205c58 0 93 22 93 61c0 42 -39 59 -93 59s-93 -17 -93 -59c0 -39 35 -61 93 -61zM198 338v309l-108 -36l-14 41l132 50h40v-364h-50z" />
    <glyph glyph-name="threeeighths" unicode="&#x215c;" horiz-adv-x="892" 
d="M191 663c-61 0 -92 -28 -96 -69h-47c5 68 55 113 144 113c73 0 133 -34 133 -104c0 -35 -21 -64 -50 -72c39 -9 62 -40 62 -87c0 -71 -63 -113 -146 -113c-91 0 -142 41 -148 112h48c5 -44 38 -68 100 -68c58 0 97 22 97 70c0 41 -25 60 -77 60h-47v43h47
c46 0 66 21 66 52c0 43 -37 63 -86 63zM252 0h-55l444 700h55zM699 369c89 0 140 -39 140 -100c0 -43 -27 -72 -67 -82c42 -8 80 -42 80 -90c0 -67 -61 -104 -153 -104s-153 37 -153 104c0 48 38 82 80 90c-40 10 -67 39 -67 82c0 61 52 100 140 100zM699 37
c62 0 105 19 105 62c0 42 -39 64 -105 64c-65 0 -105 -22 -105 -64c0 -43 43 -62 105 -62zM699 205c58 0 93 22 93 61c0 42 -39 59 -93 59s-93 -17 -93 -59c0 -39 35 -61 93 -61z" />
    <glyph glyph-name="fiveeighths" unicode="&#x215d;" horiz-adv-x="892" 
d="M194 375c62 0 95 31 95 76c0 46 -26 76 -97 76c-44 0 -70 -9 -89 -19l-39 11l12 181h239v-45h-197l-8 -105c20 11 53 18 90 18c91 0 139 -49 139 -116c0 -76 -62 -121 -144 -121c-89 0 -139 42 -145 110h46c5 -43 39 -66 98 -66zM252 0h-55l444 700h55zM699 369
c89 0 140 -39 140 -100c0 -43 -27 -72 -67 -82c42 -8 80 -42 80 -90c0 -67 -61 -104 -153 -104s-153 37 -153 104c0 48 38 82 80 90c-40 10 -67 39 -67 82c0 61 52 100 140 100zM699 37c62 0 105 19 105 62c0 42 -39 64 -105 64c-65 0 -105 -22 -105 -64
c0 -43 43 -62 105 -62zM699 205c58 0 93 22 93 61c0 42 -39 59 -93 59s-93 -17 -93 -59c0 -39 35 -61 93 -61z" />
    <glyph glyph-name="seveneighths" unicode="&#x215e;" horiz-adv-x="892" 
d="M331 662l-183 -324h-57l180 317h-220v45h280v-38zM217 0h-55l444 700h55zM699 369c89 0 140 -39 140 -100c0 -43 -27 -72 -67 -82c42 -8 80 -42 80 -90c0 -67 -61 -104 -153 -104s-153 37 -153 104c0 48 38 82 80 90c-40 10 -67 39 -67 82c0 61 52 100 140 100zM699 37
c62 0 105 19 105 62c0 42 -39 64 -105 64c-65 0 -105 -22 -105 -64c0 -43 43 -62 105 -62zM699 205c58 0 93 22 93 61c0 42 -39 59 -93 59s-93 -17 -93 -59c0 -39 35 -61 93 -61z" />
    <glyph glyph-name="uni03BC" unicode="&#x3bc;" horiz-adv-x="553" 
d="M269 -7c-58 0 -106 21 -132 56v-265h-56v648h56v-242c0 -91 45 -146 136 -146c83 0 143 56 143 149v239h56v-432h-55v73c-29 -51 -86 -80 -148 -80z" />
    <glyph glyph-name="arrowleft" unicode="&#x2190;" horiz-adv-x="666" 
d="M46 234l214 215l19 -12l-88 -178l424 1v-51l-424 1l88 -178l-19 -12z" />
    <glyph glyph-name="arrowup" unicode="&#x2191;" horiz-adv-x="700" 
d="M350 539l214 -214l-12 -19l-177 87l1 -383h-51v383l-177 -87l-12 19z" />
    <glyph glyph-name="arrowright" unicode="&#x2192;" horiz-adv-x="666" 
d="M406 449l214 -215l-214 -214l-19 12l88 178l-424 -1v51l423 -1l-87 178z" />
    <glyph glyph-name="arrowdown" unicode="&#x2193;" horiz-adv-x="700" 
d="M350 -70l-214 214l12 19l177 -88l-1 384h51v-384l177 88l12 -19z" />
    <glyph glyph-name="arrowboth" unicode="&#x2194;" horiz-adv-x="826" 
d="M46 228l214 215l19 -12l-88 -178h443l-87 178l19 12l214 -215l-214 -214l-19 12l88 178h-444l88 -178l-19 -12z" />
    <glyph glyph-name="arrowupdn" unicode="&#x2195;" horiz-adv-x="700" 
d="M350 -124l-214 214l12 18l177 -87v414l-177 -87l-12 19l214 214l214 -214l-12 -19l-176 87l-1 -414l177 87l12 -18z" />
    <glyph glyph-name="arrowupleft" unicode="&#x2196;" horiz-adv-x="666" 
d="M126 438h304l4 -21l-187 -64l300 -299l-36 -37l-299 300l-64 -186l-22 4v303z" />
    <glyph glyph-name="arrowupright" unicode="&#x2197;" horiz-adv-x="666" 
d="M236 438h304v-303l-22 -4l-64 186l-299 -300l-36 37l300 299l-187 64z" />
    <glyph glyph-name="arrowdownright" unicode="&#x2198;" horiz-adv-x="666" 
d="M540 18h-304l-4 21l187 64l-300 299l36 37l299 -301l64 187l22 -4v-303z" />
    <glyph glyph-name="arrowdownleft" unicode="&#x2199;" horiz-adv-x="666" 
d="M430 18h-304v303l22 4l64 -187l299 301l36 -37l-300 -299l187 -64z" />
    <glyph glyph-name="Q" unicode="Q" horiz-adv-x="852" 
d="M426 0c-200 0 -358 159 -358 354c0 196 158 355 358 355s358 -159 358 -355c0 -129 -69 -239 -177 -299h175v-55h-356zM426 56c166 0 296 130 296 298s-130 298 -296 298s-296 -130 -296 -298s130 -298 296 -298z" />
    <glyph glyph-name="a.alt" unicode="&#xe001;" horiz-adv-x="516" 
d="M256 389c-76 0 -119 -27 -126 -68h-54c9 66 70 117 180 117c131 0 185 -70 185 -161v-277h-55v75c-31 -48 -95 -81 -178 -81c-82 0 -159 33 -159 124c0 76 54 121 158 121h179v24c0 78 -36 126 -130 126zM213 41c102 0 173 54 173 133v20h-168c-82 0 -115 -25 -115 -76
c0 -58 48 -77 110 -77z" />
    <glyph glyph-name="g.alt" unicode="&#xe002;" horiz-adv-x="516" 
d="M258 439c18 0 36 -3 53 -7h188v-49h-101c31 -31 50 -70 50 -112c0 -93 -79 -167 -190 -167c-39 0 -75 10 -104 27c-27 -8 -43 -28 -43 -54c0 -38 37 -53 84 -53h132c97 0 149 -42 149 -111c0 -91 -85 -143 -216 -143c-130 0 -213 45 -213 132c0 39 20 78 64 93
c-33 14 -53 43 -53 77c0 45 28 74 58 87c-30 30 -48 69 -48 112c0 94 78 168 190 168zM258 151c78 0 135 49 135 120c0 72 -57 121 -135 121c-79 0 -135 -49 -135 -121c0 -71 56 -120 135 -120zM313 -22h-128c-61 0 -84 -35 -84 -73c0 -64 66 -89 162 -89s160 27 160 91
c0 50 -39 71 -110 71z" />
    <glyph glyph-name="n.superior" unicode="&#x207f;" horiz-adv-x="445" 
d="M239 888c94 0 158 -59 158 -155v-214h-49v199c0 79 -41 126 -119 126c-75 0 -127 -50 -127 -131v-194h-50v362h49v-65c23 43 74 72 138 72z" />
    <glyph glyph-name="longs" unicode="&#x17f;" horiz-adv-x="230" 
d="M137 506v-506h-56v514c0 125 46 191 151 191c25 0 51 -4 65 -7v-49c-19 3 -36 5 -57 5c-79 0 -103 -47 -103 -148z" />
    <glyph glyph-name="uniE000" unicode="&#xe000;" horiz-adv-x="0" 
 />
    <glyph glyph-name="cr" 
 />
    <glyph glyph-name="acute" unicode="&#xb4;" 
d="M345 676l43 -46l-154 -118l-28 30z" />
    <glyph glyph-name="commaaccent" unicode="&#xf6c3;" 
d="M290 -44l-36 -164h-48l24 164h60z" />
    <glyph glyph-name="dieresis.alt" unicode="&#xe020;" 
d="M126 568c0 23 15 40 40 40c24 0 40 -17 40 -40c0 -24 -16 -40 -40 -40c-25 0 -40 16 -40 40zM294 568c0 23 16 40 40 40c25 0 40 -17 40 -40c0 -24 -15 -40 -40 -40c-24 0 -40 16 -40 40z" />
    <glyph glyph-name="circumflex.alt" unicode="&#xe021;" 
d="M219 654h62l107 -136h-58l-80 91l-80 -91h-58z" />
    <glyph glyph-name="tilde.alt" unicode="&#xe022;" 
d="M387 600c-12 -48 -37 -82 -80 -82c-40 0 -78 38 -113 38c-21 0 -33 -13 -42 -38l-39 5c12 48 37 83 80 83c40 0 78 -38 113 -38c21 0 33 13 42 37z" />
    <glyph glyph-name="macron.alt" unicode="&#xe023;" 
d="M376 588v-47h-252v47h252z" />
    <glyph glyph-name="breve.alt" unicode="&#xe024;" 
d="M250 517c-90 0 -133 64 -140 128h50c4 -41 32 -82 90 -82s86 41 90 82h50c-7 -64 -50 -128 -140 -128z" />
    <glyph glyph-name="ogonek.alt" unicode="&#xe025;" 
d="M427 -150c-25 -24 -61 -39 -100 -39c-62 0 -108 34 -108 86c0 65 61 114 145 150l9 -25c-61 -32 -99 -71 -99 -114c0 -32 25 -48 59 -48c24 0 48 9 67 25z" />
    <glyph glyph-name="ogonek.alt01" unicode="&#xe026;" 
d="M352 -122l19 -33c-17 -17 -45 -34 -83 -34c-54 0 -93 30 -93 79c0 60 50 108 107 139l18 -27c-54 -31 -73 -61 -73 -99c0 -31 19 -45 49 -45c20 0 39 7 56 20z" />
    <glyph glyph-name="caron.alt" unicode="&#xe027;" 
d="M217 514l9 186h57l-27 -186h-39z" />
    <glyph glyph-name="croat.alt" unicode="&#xe028;" 
d="M418 578v-47h-336v47h336z" />
    <glyph glyph-name="bar.alt" unicode="&#xe029;" 
d="M418 578v-47h-336v47h336z" />
    <glyph glyph-name="commaaccent.alt" unicode="&#xe02a;" 
d="M210 518l36 163h48l-24 -163h-60z" />
    <glyph glyph-name="aacute.alt" unicode="&#xe003;" horiz-adv-x="516" 
d="M256 389c-76 0 -119 -27 -126 -68h-54c9 66 70 117 180 117c131 0 185 -70 185 -161v-277h-55v75c-31 -48 -95 -81 -178 -81c-82 0 -159 33 -159 124c0 76 54 121 158 121h179v24c0 78 -36 126 -130 126zM213 41c102 0 173 54 173 133v20h-168c-82 0 -115 -25 -115 -76
c0 -58 48 -77 110 -77zM367 676l43 -46l-154 -118l-28 30z" />
    <glyph glyph-name="agrave.alt" unicode="&#xe004;" horiz-adv-x="516" 
d="M256 389c-76 0 -119 -27 -126 -68h-54c9 66 70 117 180 117c131 0 185 -70 185 -161v-277h-55v75c-31 -48 -95 -81 -178 -81c-82 0 -159 33 -159 124c0 76 54 121 158 121h179v24c0 78 -36 126 -130 126zM213 41c102 0 173 54 173 133v20h-168c-82 0 -115 -25 -115 -76
c0 -58 48 -77 110 -77zM102 630l43 46l139 -134l-28 -30z" />
    <glyph glyph-name="acircumflex.alt" unicode="&#xe005;" horiz-adv-x="516" 
d="M256 389c-76 0 -119 -27 -126 -68h-54c9 66 70 117 180 117c131 0 185 -70 185 -161v-277h-55v75c-31 -48 -95 -81 -178 -81c-82 0 -159 33 -159 124c0 76 54 121 158 121h179v24c0 78 -36 126 -130 126zM213 41c102 0 173 54 173 133v20h-168c-82 0 -115 -25 -115 -76
c0 -58 48 -77 110 -77zM225 655h62l122 -137h-58l-95 91l-95 -91h-58z" />
    <glyph glyph-name="adieresis.alt" unicode="&#xe006;" horiz-adv-x="516" 
d="M256 389c-76 0 -119 -27 -126 -68h-54c9 66 70 117 180 117c131 0 185 -70 185 -161v-277h-55v75c-31 -48 -95 -81 -178 -81c-82 0 -159 33 -159 124c0 76 54 121 158 121h179v24c0 78 -36 126 -130 126zM213 41c102 0 173 54 173 133v20h-168c-82 0 -115 -25 -115 -76
c0 -58 48 -77 110 -77zM120 568c0 23 16 40 40 40c25 0 40 -17 40 -40c0 -24 -15 -40 -40 -40c-24 0 -40 16 -40 40zM312 568c0 23 15 40 40 40c24 0 40 -17 40 -40c0 -24 -16 -40 -40 -40c-25 0 -40 16 -40 40z" />
    <glyph glyph-name="atilde.alt" unicode="&#xe007;" horiz-adv-x="516" 
d="M256 389c-76 0 -119 -27 -126 -68h-54c9 66 70 117 180 117c131 0 185 -70 185 -161v-277h-55v75c-31 -48 -95 -81 -178 -81c-82 0 -159 33 -159 124c0 76 54 121 158 121h179v24c0 78 -36 126 -130 126zM213 41c102 0 173 54 173 133v20h-168c-82 0 -115 -25 -115 -76
c0 -58 48 -77 110 -77zM411 599c-13 -49 -40 -85 -88 -85c-44 0 -94 43 -134 43c-25 0 -39 -13 -49 -40l-39 6c13 49 40 84 88 84c44 0 94 -43 134 -43c25 0 39 12 49 40z" />
    <glyph glyph-name="aring.alt" unicode="&#xe008;" horiz-adv-x="516" 
d="M256 389c-76 0 -119 -27 -126 -68h-54c9 66 70 117 180 117c131 0 185 -70 185 -161v-277h-55v75c-31 -48 -95 -81 -178 -81c-82 0 -159 33 -159 124c0 76 54 121 158 121h179v24c0 78 -36 126 -130 126zM213 41c102 0 173 54 173 133v20h-168c-82 0 -115 -25 -115 -76
c0 -58 48 -77 110 -77zM256 503c-57 0 -97 40 -97 93c0 54 40 93 97 93s97 -39 97 -93c0 -53 -40 -93 -97 -93zM256 539c34 0 58 23 58 57s-24 58 -58 58s-58 -24 -58 -58s24 -57 58 -57z" />
    <glyph glyph-name="amacron.alt" unicode="&#xe009;" horiz-adv-x="516" 
d="M256 389c-76 0 -119 -27 -126 -68h-54c9 66 70 117 180 117c131 0 185 -70 185 -161v-277h-55v75c-31 -48 -95 -81 -178 -81c-82 0 -159 33 -159 124c0 76 54 121 158 121h179v24c0 78 -36 126 -130 126zM213 41c102 0 173 54 173 133v20h-168c-82 0 -115 -25 -115 -76
c0 -58 48 -77 110 -77zM404 588v-47h-296v47h296z" />
    <glyph glyph-name="abreve.alt" unicode="&#xe00a;" horiz-adv-x="516" 
d="M256 389c-76 0 -119 -27 -126 -68h-54c9 66 70 117 180 117c131 0 185 -70 185 -161v-277h-55v75c-31 -48 -95 -81 -178 -81c-82 0 -159 33 -159 124c0 76 54 121 158 121h179v24c0 78 -36 126 -130 126zM213 41c102 0 173 54 173 133v20h-168c-82 0 -115 -25 -115 -76
c0 -58 48 -77 110 -77zM256 518c-100 0 -143 65 -155 128h50c9 -45 45 -81 105 -81s96 36 105 81h50c-12 -63 -55 -128 -155 -128z" />
    <glyph glyph-name="aogonek.alt" unicode="&#xe00b;" horiz-adv-x="516" 
d="M442 -123l19 -34c-19 -18 -51 -34 -90 -34c-51 0 -92 27 -92 73c0 53 45 90 107 123v70c-31 -48 -95 -81 -178 -81c-82 0 -159 33 -159 124c0 76 54 121 158 121h179v24c0 78 -36 126 -130 126c-76 0 -119 -27 -126 -68h-54c9 66 70 117 180 117c131 0 185 -70 185 -161
v-277c-67 -32 -107 -65 -107 -107c0 -23 18 -35 47 -35c21 0 43 6 61 19zM213 41c102 0 173 54 173 133v20h-168c-82 0 -115 -25 -115 -76c0 -58 48 -77 110 -77z" />
    <glyph glyph-name="aringacute.alt" unicode="&#xe00c;" horiz-adv-x="516" 
d="M256 389c-76 0 -119 -27 -126 -68h-54c9 66 70 117 180 117c131 0 185 -70 185 -161v-277h-55v75c-31 -48 -95 -81 -178 -81c-82 0 -159 33 -159 124c0 76 54 121 158 121h179v24c0 78 -36 126 -130 126zM213 41c102 0 173 54 173 133v20h-168c-82 0 -115 -25 -115 -76
c0 -58 48 -77 110 -77zM256 503c-57 0 -97 40 -97 93c0 54 40 93 97 93s97 -39 97 -93c0 -53 -40 -93 -97 -93zM256 539c34 0 58 23 58 57s-24 58 -58 58s-58 -24 -58 -58s24 -57 58 -57zM367 897l43 -46l-154 -118l-28 30z" />
    <glyph glyph-name="gcircumflex.alt" unicode="&#xe00d;" horiz-adv-x="516" 
d="M258 439c18 0 36 -3 53 -7h188v-49h-101c31 -31 50 -70 50 -112c0 -93 -79 -167 -190 -167c-39 0 -75 10 -104 27c-27 -8 -43 -28 -43 -54c0 -38 37 -53 84 -53h132c97 0 149 -42 149 -111c0 -91 -85 -143 -216 -143c-130 0 -213 45 -213 132c0 39 20 78 64 93
c-33 14 -53 43 -53 77c0 45 28 74 58 87c-30 30 -48 69 -48 112c0 94 78 168 190 168zM258 151c78 0 135 49 135 120c0 72 -57 121 -135 121c-79 0 -135 -49 -135 -121c0 -71 56 -120 135 -120zM313 -22h-128c-61 0 -84 -35 -84 -73c0 -64 66 -89 162 -89s160 27 160 91
c0 50 -39 71 -110 71zM230 655h62l122 -137h-58l-95 91l-95 -91h-58z" />
    <glyph glyph-name="gbreve.alt" unicode="&#xe00e;" horiz-adv-x="516" 
d="M258 439c18 0 36 -3 53 -7h188v-49h-101c31 -31 50 -70 50 -112c0 -93 -79 -167 -190 -167c-39 0 -75 10 -104 27c-27 -8 -43 -28 -43 -54c0 -38 37 -53 84 -53h132c97 0 149 -42 149 -111c0 -91 -85 -143 -216 -143c-130 0 -213 45 -213 132c0 39 20 78 64 93
c-33 14 -53 43 -53 77c0 45 28 74 58 87c-30 30 -48 69 -48 112c0 94 78 168 190 168zM258 151c78 0 135 49 135 120c0 72 -57 121 -135 121c-79 0 -135 -49 -135 -121c0 -71 56 -120 135 -120zM313 -22h-128c-61 0 -84 -35 -84 -73c0 -64 66 -89 162 -89s160 27 160 91
c0 50 -39 71 -110 71zM261 518c-100 0 -143 65 -155 128h50c9 -45 45 -81 105 -81s96 36 105 81h50c-12 -63 -55 -128 -155 -128z" />
    <glyph glyph-name="gdotaccent.alt" unicode="&#xe00f;" horiz-adv-x="516" 
d="M258 439c18 0 36 -3 53 -7h188v-49h-101c31 -31 50 -70 50 -112c0 -93 -79 -167 -190 -167c-39 0 -75 10 -104 27c-27 -8 -43 -28 -43 -54c0 -38 37 -53 84 -53h132c97 0 149 -42 149 -111c0 -91 -85 -143 -216 -143c-130 0 -213 45 -213 132c0 39 20 78 64 93
c-33 14 -53 43 -53 77c0 45 28 74 58 87c-30 30 -48 69 -48 112c0 94 78 168 190 168zM258 151c78 0 135 49 135 120c0 72 -57 121 -135 121c-79 0 -135 -49 -135 -121c0 -71 56 -120 135 -120zM313 -22h-128c-61 0 -84 -35 -84 -73c0 -64 66 -89 162 -89s160 27 160 91
c0 50 -39 71 -110 71zM221 576c0 23 16 39 40 39s40 -16 40 -39c0 -24 -16 -40 -40 -40s-40 16 -40 40z" />
    <glyph glyph-name="gcommaaccent.alt" unicode="&#xe010;" horiz-adv-x="516" 
d="M258 439c18 0 36 -3 53 -7h188v-49h-101c31 -31 50 -70 50 -112c0 -93 -79 -167 -190 -167c-39 0 -75 10 -104 27c-27 -8 -43 -28 -43 -54c0 -38 37 -53 84 -53h132c97 0 149 -42 149 -111c0 -91 -85 -143 -216 -143c-130 0 -213 45 -213 132c0 39 20 78 64 93
c-33 14 -53 43 -53 77c0 45 28 74 58 87c-30 30 -48 69 -48 112c0 94 78 168 190 168zM258 151c78 0 135 49 135 120c0 72 -57 121 -135 121c-79 0 -135 -49 -135 -121c0 -71 56 -120 135 -120zM313 -22h-128c-61 0 -84 -35 -84 -73c0 -64 66 -89 162 -89s160 27 160 91
c0 50 -39 71 -110 71zM231 518l36 163h48l-24 -163h-60z" />
    <glyph glyph-name="grave.cap" unicode="&#xe011;" 
d="M113 857l42 51l140 -119l-28 -33z" />
    <glyph glyph-name="acute.cap" unicode="&#xe012;" 
d="M345 908l42 -51l-154 -101l-28 33z" />
    <glyph glyph-name="dieresis.cap" unicode="&#xe013;" 
d="M104 797c0 24 16 41 41 41s41 -17 41 -41s-16 -41 -41 -41s-41 17 -41 41zM314 797c0 24 16 41 41 41s41 -17 41 -41s-16 -41 -41 -41s-41 17 -41 41z" />
    <glyph glyph-name="circumflex.cap" unicode="&#xe014;" 
d="M219 892h62l127 -133h-61l-97 86l-97 -86h-61z" />
    <glyph glyph-name="tilde.cap" unicode="&#xe015;" 
d="M369 848l40 -5c-12 -50 -40 -87 -89 -87c-54 0 -95 43 -138 43c-26 0 -41 -14 -51 -40l-40 6c12 50 40 86 89 86c54 0 95 -43 138 -43c26 0 41 14 51 40z" />
    <glyph glyph-name="macron.cap" unicode="&#xe016;" 
d="M404 810v-48h-308v48h308z" />
    <glyph glyph-name="breve.cap" unicode="&#xe017;" 
d="M250 757c-100 0 -146 64 -158 127h52c7 -43 44 -78 106 -78c63 0 99 35 106 78h52c-12 -63 -58 -127 -158 -127z" />
    <glyph glyph-name="dotaccent.cap" unicode="&#xe018;" 
d="M209 797c0 24 16 41 41 41s41 -17 41 -41c0 -25 -16 -41 -41 -41s-41 16 -41 41z" />
    <glyph glyph-name="ring.cap" unicode="&#xe019;" 
d="M250 791c34 0 57 24 57 57s-23 57 -57 57s-57 -24 -57 -57s23 -57 57 -57zM250 754c-57 0 -98 40 -98 94s41 94 98 94s98 -40 98 -94s-41 -94 -98 -94z" />
    <glyph glyph-name="cedilla.cap" unicode="&#xe01a;" 
d="M248 -163h-67l63 165h54z" />
    <glyph glyph-name="hungarumlaut.cap" unicode="&#xe01b;" 
d="M225 884l-98 -128l-37 21l78 142zM407 884l-98 -128l-38 21l79 142z" />
    <glyph glyph-name="ogonek.cap" unicode="&#xe01c;" 
d="M324 -118l20 -34c-21 -19 -53 -37 -94 -37c-52 0 -94 26 -94 75c0 68 65 104 147 141l17 -25c-64 -28 -108 -63 -108 -105c0 -25 19 -36 48 -36c24 0 44 8 64 21z" />
    <glyph glyph-name="caron.cap" unicode="&#xe01d;" 
d="M281 759h-62l-127 133h61l97 -86l97 86h61z" />
    <glyph glyph-name="commaaccent.cap" unicode="&#xe01e;" 
d="M291 -44l-38 -166h-48l24 166h62z" />
    <glyph glyph-name="bar.cap" unicode="&#xe01f;" 
d="M422 578v-48h-344v48h344z" />
    <glyph glyph-name="ogonek.calt" unicode="&#xe02b;" 
d="M323 -124l20 -34c-21 -19 -54 -37 -95 -37c-54 0 -95 27 -95 81c0 73 75 124 160 161l15 -24c-71 -31 -118 -80 -118 -123c0 -31 17 -45 48 -45c25 0 45 8 65 21z" />
    <glyph glyph-name="ogonek.calt01" unicode="&#xe02c;" 
d="M321 -121l21 -35c-23 -19 -53 -33 -88 -33c-48 0 -94 27 -94 77c0 63 52 108 128 139l17 -25c-58 -26 -88 -62 -88 -101c0 -27 21 -39 46 -39c24 0 40 6 58 17z" />
    <glyph glyph-name="uni021A" unicode="&#x21a;" horiz-adv-x="617" 
d="M584 700v-55h-246v-645h-59v645h-246v55h551zM339 -45l-38 -166h-48l24 166h62z" />
    <glyph glyph-name="caron.calt" unicode="&#xe02d;" 
d="M215 514l10 186h60l-27 -186h-43z" />
    <glyph glyph-name="zero.old" unicode="&#xe030;" horiz-adv-x="638" 
d="M319 493c141 0 252 -111 252 -251s-111 -251 -252 -251s-252 111 -252 251s111 251 252 251zM319 44c108 0 193 85 193 198s-85 198 -193 198s-193 -85 -193 -198s85 -198 193 -198z" />
    <glyph glyph-name="one.old" unicode="&#xe031;" horiz-adv-x="457" 
d="M68 52h145v375l-128 -45l-17 45l159 61h43v-436h140v-52h-342v52z" />
    <glyph glyph-name="two.old" unicode="&#xe032;" horiz-adv-x="514" 
d="M255 441c-97 0 -137 -47 -143 -115h-58c8 94 66 167 201 167c126 0 188 -67 188 -149c0 -87 -52 -128 -139 -188l-148 -104h303v-52h-401v44l208 147c78 55 120 93 120 150c0 56 -42 100 -131 100z" />
    <glyph glyph-name="three.old" unicode="&#xe033;" horiz-adv-x="598" 
d="M295 441c-106 0 -161 -62 -168 -135h-58c9 102 86 187 227 187c115 0 214 -62 214 -177c0 -82 -40 -136 -101 -151c76 -15 134 -81 134 -176c0 -131 -104 -214 -246 -214c-153 0 -236 79 -247 195h57c9 -83 72 -143 190 -143c115 0 184 60 184 163c0 96 -64 145 -161 145
h-65v51h58c89 0 136 46 136 127c0 82 -66 128 -154 128z" />
    <glyph glyph-name="four.old" unicode="&#xe034;" horiz-adv-x="663" 
d="M487 486v-433h143v-53h-143v-216h-59v216h-381v43l387 443h53zM121 53h307v347z" />
    <glyph glyph-name="five.old" unicode="&#xe035;" horiz-adv-x="603" 
d="M81 162l16 322h399v-54h-344l-13 -234c34 21 100 40 168 40c155 0 242 -98 242 -225c0 -141 -109 -236 -249 -236c-152 0 -237 79 -247 195h58c9 -84 75 -142 188 -142c110 0 189 76 189 181c0 96 -65 175 -187 175c-72 0 -130 -18 -164 -42z" />
    <glyph glyph-name="six.old" unicode="&#xe036;" horiz-adv-x="627" 
d="M335 454c137 0 238 -100 238 -228c0 -139 -98 -235 -241 -235c-144 0 -266 95 -266 333c0 188 64 385 275 385c119 0 196 -66 211 -152h-59c-13 60 -69 99 -152 99c-175 0 -214 -175 -216 -327c31 70 114 125 210 125zM330 45c111 0 182 74 182 181
c0 99 -72 176 -182 176c-103 0 -190 -76 -190 -175c0 -102 85 -182 190 -182z" />
    <glyph glyph-name="seven.old" unicode="&#xe037;" horiz-adv-x="556" 
d="M505 440l-337 -656h-65l336 647h-393v53h459v-44z" />
    <glyph glyph-name="eight.old" unicode="&#xe038;" horiz-adv-x="640" 
d="M320 709c140 0 237 -73 237 -187c0 -76 -47 -140 -127 -163c90 -22 148 -89 148 -174c0 -123 -108 -194 -258 -194s-258 71 -258 194c0 85 57 152 148 174c-80 23 -128 87 -128 163c0 114 97 187 238 187zM320 44c116 0 198 49 198 141c0 88 -80 146 -198 146
s-198 -58 -198 -146c0 -92 82 -141 198 -141zM320 656c-102 0 -178 -45 -178 -137c0 -80 69 -137 178 -137s178 57 178 137c0 92 -76 137 -178 137z" />
    <glyph glyph-name="nine.old" unicode="&#xe039;" horiz-adv-x="626" 
d="M293 30c-137 0 -238 100 -238 228c0 139 98 235 241 235c144 0 266 -95 266 -333c0 -188 -64 -385 -275 -385c-119 0 -196 66 -211 152h59c13 -60 69 -99 152 -99c175 0 214 175 216 327c-32 -70 -114 -125 -210 -125zM298 439c-111 0 -182 -74 -182 -181
c0 -99 72 -176 182 -176c103 0 190 76 190 175c0 102 -85 182 -190 182z" />
    <glyph glyph-name="zero.tab" unicode="&#xe03a;" horiz-adv-x="628" 
d="M581 350c0 -222 -107 -359 -267 -359c-161 0 -268 137 -268 359s107 359 268 359c160 0 267 -137 267 -359zM519 350c0 191 -83 304 -205 304c-123 0 -206 -113 -206 -304s83 -304 206 -304c122 0 205 113 205 304z" />
    <glyph glyph-name="one.tab" unicode="&#xe03b;" horiz-adv-x="628" 
d="M336 0v643l-196 -59l-18 46l222 74h51v-704h-59z" />
    <glyph glyph-name="two.tab" unicode="&#xe03c;" horiz-adv-x="628" 
d="M310 654c-114 0 -176 -60 -184 -156h-59c10 123 92 211 244 211c146 0 233 -86 233 -207c0 -109 -65 -173 -164 -260l-214 -187h394v-55h-490v44l264 233c95 84 149 139 149 225c0 91 -64 152 -173 152z" />
    <glyph glyph-name="three.tab" unicode="&#xe03d;" horiz-adv-x="628" 
d="M313 655c-114 0 -176 -57 -184 -142h-59c8 116 92 196 243 196c123 0 230 -64 230 -182c0 -88 -47 -141 -108 -157c75 -13 129 -76 129 -171c0 -128 -107 -208 -251 -208c-158 0 -241 79 -252 195h59c10 -86 72 -141 192 -141c115 0 191 56 191 155
c0 96 -66 140 -165 140h-78v51h71c96 0 151 46 151 133c0 86 -77 131 -169 131z" />
    <glyph glyph-name="four.tab" unicode="&#xe03e;" horiz-adv-x="628" 
d="M490 702v-472h117v-52h-117v-178h-60v178h-402v48l407 476h55zM98 230h332v386z" />
    <glyph glyph-name="five.tab" unicode="&#xe03f;" horiz-adv-x="628" 
d="M312 45c111 0 191 73 191 174c0 92 -66 167 -189 167c-70 0 -133 -20 -167 -44l-57 21l18 337h411v-55h-357l-13 -248c35 22 103 41 171 41c155 0 245 -94 245 -217c0 -137 -111 -230 -252 -230c-153 0 -241 82 -251 196h59c9 -81 77 -142 191 -142z" />
    <glyph glyph-name="six.tab" unicode="&#xe040;" horiz-adv-x="628" 
d="M337 454c141 0 243 -100 243 -228c0 -139 -98 -235 -246 -235c-147 0 -270 95 -270 333c0 188 65 385 278 385c119 0 201 -66 217 -152h-60c-13 60 -74 99 -157 99c-176 0 -216 -174 -218 -326c31 69 113 124 213 124zM333 45c114 0 186 74 186 181
c0 99 -73 175 -187 175c-106 0 -194 -75 -194 -174c0 -102 86 -182 195 -182z" />
    <glyph glyph-name="seven.tab" unicode="&#xe041;" horiz-adv-x="628" 
d="M553 654l-336 -654h-64l332 645h-413v55h481v-46z" />
    <glyph glyph-name="eight.tab" unicode="&#xe042;" horiz-adv-x="628" 
d="M314 -9c-155 0 -265 70 -265 194c0 85 59 153 151 173c-80 22 -130 87 -130 164c0 114 99 187 244 187c144 0 244 -73 244 -187c0 -77 -50 -142 -131 -164c93 -20 152 -88 152 -173c0 -124 -111 -194 -265 -194zM314 330c-122 0 -205 -57 -205 -145
c0 -92 84 -141 205 -141s204 49 204 141c0 88 -82 145 -204 145zM314 381c113 0 184 58 184 138c0 92 -79 137 -184 137c-106 0 -185 -45 -185 -137c0 -80 72 -138 185 -138z" />
    <glyph glyph-name="nine.tab" unicode="&#xe043;" horiz-adv-x="628" 
d="M295 246c-141 0 -243 100 -243 228c0 139 98 235 245 235c148 0 271 -96 271 -333c0 -188 -65 -385 -278 -385c-120 0 -201 66 -217 152h59c13 -60 75 -99 158 -99c175 0 215 174 218 326c-31 -70 -114 -124 -213 -124zM299 655c-114 0 -186 -74 -186 -181
c0 -99 72 -175 186 -175c107 0 195 75 195 175c0 101 -86 181 -195 181z" />
    <glyph glyph-name="zero.otab" unicode="&#xe044;" horiz-adv-x="628" 
d="M314 493c141 0 252 -111 252 -251s-111 -251 -252 -251s-252 111 -252 251s111 251 252 251zM314 44c108 0 193 85 193 198s-85 198 -193 198s-193 -85 -193 -198s85 -198 193 -198z" />
    <glyph glyph-name="one.otab" unicode="&#xe045;" horiz-adv-x="628" 
d="M145 52h165v375l-148 -51l-16 44l178 68h43v-436h159v-52h-381v52z" />
    <glyph glyph-name="two.otab" unicode="&#xe046;" horiz-adv-x="628" 
d="M312 441c-97 0 -137 -47 -143 -115h-58c8 94 66 167 201 167c126 0 188 -67 188 -149c0 -87 -52 -128 -139 -188l-148 -104h303v-52h-401v44l208 147c78 55 120 93 120 150c0 56 -42 100 -131 100z" />
    <glyph glyph-name="three.otab" unicode="&#xe047;" horiz-adv-x="628" 
d="M311 441c-106 0 -161 -62 -168 -135h-58c9 102 86 187 227 187c115 0 214 -62 214 -177c0 -82 -40 -136 -101 -151c76 -15 134 -81 134 -176c0 -131 -104 -214 -246 -214c-153 0 -236 79 -247 195h57c9 -83 72 -143 190 -143c115 0 184 60 184 163c0 96 -64 145 -161 145
h-65v51h58c89 0 136 46 136 127c0 82 -66 128 -154 128z" />
    <glyph glyph-name="four.otab" unicode="&#xe048;" horiz-adv-x="628" 
d="M468 486v-433h143v-53h-143v-216h-59v216h-381v43l387 443h53zM102 53h307v347z" />
    <glyph glyph-name="five.otab" unicode="&#xe049;" horiz-adv-x="628" 
d="M99 162l16 322h399v-54h-344l-13 -234c34 21 100 40 168 40c155 0 242 -98 242 -225c0 -141 -109 -236 -249 -236c-152 0 -237 79 -247 195h58c9 -84 75 -142 188 -142c110 0 189 76 189 181c0 96 -65 175 -187 175c-72 0 -130 -18 -164 -42z" />
    <glyph glyph-name="six.otab" unicode="&#xe04a;" horiz-adv-x="628" 
d="M340 454c137 0 238 -100 238 -228c0 -139 -98 -235 -241 -235c-144 0 -266 95 -266 333c0 188 64 385 275 385c119 0 196 -66 211 -152h-59c-13 60 -69 99 -152 99c-175 0 -214 -175 -216 -327c31 70 114 125 210 125zM335 45c111 0 182 74 182 181
c0 99 -72 176 -182 176c-103 0 -190 -76 -190 -175c0 -102 85 -182 190 -182z" />
    <glyph glyph-name="seven.otab" unicode="&#xe04b;" horiz-adv-x="628" 
d="M542 440l-337 -656h-65l336 647h-393v53h459v-44z" />
    <glyph glyph-name="eight.otab" unicode="&#xe04c;" horiz-adv-x="628" 
d="M314 709c140 0 237 -73 237 -187c0 -76 -47 -140 -127 -163c90 -22 148 -89 148 -174c0 -123 -108 -194 -258 -194s-258 71 -258 194c0 85 57 152 148 174c-80 23 -128 87 -128 163c0 114 97 187 238 187zM314 44c116 0 198 49 198 141c0 88 -80 146 -198 146
s-198 -58 -198 -146c0 -92 82 -141 198 -141zM314 656c-102 0 -178 -45 -178 -137c0 -80 69 -137 178 -137s178 57 178 137c0 92 -76 137 -178 137z" />
    <glyph glyph-name="nine.otab" unicode="&#xe04d;" horiz-adv-x="628" 
d="M297 30c-137 0 -238 100 -238 228c0 139 98 235 241 235c144 0 266 -95 266 -333c0 -188 -64 -385 -275 -385c-119 0 -196 66 -211 152h59c13 -60 69 -99 152 -99c175 0 214 175 216 327c-32 -70 -114 -125 -210 -125zM302 439c-111 0 -182 -74 -182 -181
c0 -99 72 -176 182 -176c103 0 190 76 190 175c0 102 -85 182 -190 182z" />
    <glyph glyph-name="zero.num" unicode="&#xe074;" horiz-adv-x="386" 
d="M193 707c100 0 165 -78 165 -188s-65 -188 -165 -188c-99 0 -164 78 -164 188s65 188 164 188zM193 376c68 0 113 56 113 143s-45 143 -113 143c-67 0 -113 -56 -113 -143s46 -143 113 -143z" />
    <glyph glyph-name="one.num" unicode="&#xe075;" horiz-adv-x="386" 
d="M198 338v309l-108 -36l-14 41l132 50h40v-364h-50z" />
    <glyph glyph-name="two.num" unicode="&#xe076;" horiz-adv-x="386" 
d="M192 663c-61 0 -90 -31 -94 -80h-48c5 70 53 124 143 124c86 0 134 -45 134 -110c0 -58 -39 -96 -94 -138l-97 -76h200v-45h-283v35l145 115c53 42 80 68 80 108s-31 67 -86 67z" />
    <glyph glyph-name="three.num" unicode="&#xe077;" horiz-adv-x="386" 
d="M191 663c-61 0 -92 -28 -96 -69h-47c5 68 55 113 144 113c73 0 133 -34 133 -104c0 -35 -21 -64 -50 -72c39 -9 62 -40 62 -87c0 -71 -63 -113 -146 -113c-91 0 -142 41 -148 112h48c5 -44 38 -68 100 -68c58 0 97 22 97 70c0 41 -25 60 -77 60h-47v43h47
c46 0 66 21 66 52c0 43 -37 63 -86 63z" />
    <glyph glyph-name="four.num" unicode="&#xe078;" horiz-adv-x="386" 
d="M297 702v-236h61v-44h-61v-84h-50v84h-211v38l219 242h42zM95 466h153v168z" />
    <glyph glyph-name="five.num" unicode="&#xe079;" horiz-adv-x="386" 
d="M194 375c62 0 95 31 95 76c0 46 -26 76 -97 76c-44 0 -70 -9 -89 -19l-39 11l12 181h239v-45h-197l-8 -105c20 11 53 18 90 18c91 0 139 -49 139 -116c0 -76 -62 -121 -144 -121c-89 0 -139 42 -145 110h46c5 -43 39 -66 98 -66z" />
    <glyph glyph-name="six.num" unicode="&#xe07a;" horiz-adv-x="386" 
d="M211 578c84 0 137 -52 137 -121c0 -74 -55 -126 -142 -126c-85 0 -155 54 -155 167c0 126 46 209 163 209c75 0 115 -36 126 -89h-48c-7 30 -37 46 -78 46c-82 0 -107 -59 -112 -134c17 31 58 48 109 48zM205 374c60 0 95 34 95 82c0 49 -35 80 -95 80
c-59 0 -98 -29 -98 -79c0 -46 37 -83 98 -83z" />
    <glyph glyph-name="seven.num" unicode="&#xe07b;" horiz-adv-x="386" 
d="M331 662l-183 -324h-57l180 317h-220v45h280v-38z" />
    <glyph glyph-name="eight.num" unicode="&#xe07c;" horiz-adv-x="386" 
d="M193 707c89 0 140 -39 140 -100c0 -43 -27 -72 -67 -82c42 -8 80 -42 80 -90c0 -67 -61 -104 -153 -104s-153 37 -153 104c0 48 38 82 80 90c-40 10 -67 39 -67 82c0 61 52 100 140 100zM193 375c62 0 105 19 105 62c0 42 -39 64 -105 64c-65 0 -105 -22 -105 -64
c0 -43 43 -62 105 -62zM193 543c58 0 93 22 93 61c0 42 -39 59 -93 59s-93 -17 -93 -59c0 -39 35 -61 93 -61z" />
    <glyph glyph-name="nine.num" unicode="&#xe07d;" horiz-adv-x="386" 
d="M176 460c-84 0 -138 52 -138 121c0 74 55 126 143 126c85 0 154 -54 154 -167c0 -126 -45 -209 -162 -209c-76 0 -116 36 -127 89h48c8 -30 38 -46 78 -46c83 0 107 60 113 135c-18 -31 -58 -49 -109 -49zM181 664c-60 0 -95 -34 -95 -82c0 -49 35 -80 95 -80
c59 0 98 28 98 78c0 46 -37 84 -98 84z" />
    <glyph glyph-name="triagup" unicode="&#x25b2;" horiz-adv-x="546" 
d="M431 113h-316l158 270z" />
    <glyph glyph-name="triagrt" unicode="&#x25ba;" horiz-adv-x="546" 
d="M148 90v316l286 -158z" />
    <glyph glyph-name="triagdn" unicode="&#x25bc;" horiz-adv-x="546" 
d="M115 383h316l-158 -270z" />
    <glyph glyph-name="triaglf" unicode="&#x25c4;" horiz-adv-x="546" 
d="M398 407v-316l-286 158z" />
    <glyph glyph-name="uni25E2" unicode="&#x25e2;" horiz-adv-x="546" 
d="M404 108h-300l300 300v-300z" />
    <glyph glyph-name="uni25E3" unicode="&#x25e3;" horiz-adv-x="546" 
d="M442 108h-300v300z" />
    <glyph glyph-name="uni25E4" unicode="&#x25e4;" horiz-adv-x="546" 
d="M142 408h300l-300 -300v300z" />
    <glyph glyph-name="uni25E5" unicode="&#x25e5;" horiz-adv-x="546" 
d="M104 408h300v-300z" />
    <glyph glyph-name="dollar.inferior" unicode="&#xe050;" horiz-adv-x="386" 
d="M219 238v-52c70 -7 112 -41 120 -96h-48c-4 28 -30 47 -72 52v-123l25 -5c69 -14 105 -42 105 -97c0 -63 -54 -98 -130 -103v-52h-40v52c-82 4 -134 38 -142 103h48c6 -38 40 -57 94 -60v126l-18 3c-68 13 -116 34 -116 99c0 61 45 98 134 101v52h40zM95 88
c0 -34 31 -49 77 -58l7 -2v116c-58 -3 -84 -21 -84 -56zM235 -29l-16 4v-118c51 3 80 22 80 59c0 32 -21 46 -64 55z" />
    <glyph glyph-name="cent.inferior" unicode="&#xe051;" horiz-adv-x="386" 
d="M221 238v-51c80 -9 135 -63 144 -126h-51c-10 40 -44 73 -93 80v-283c50 7 84 41 94 82h51c-9 -64 -64 -119 -145 -127v-51h-40v51c-92 10 -163 89 -163 187s71 178 163 187v51h40zM69 0c0 -74 46 -131 112 -141v282c-66 -10 -112 -67 -112 -141z" />
    <glyph glyph-name="sterling.inferior" unicode="&#xe052;" horiz-adv-x="386" 
d="M32 19h49v25c0 79 49 144 144 144c83 0 125 -52 132 -112h-49c-3 36 -28 67 -82 67c-68 0 -96 -44 -96 -103v-21h132v-41h-132v-114h228v-45h-326v45h49v114h-49v41z" />
    <glyph glyph-name="yen.inferior" unicode="&#xe053;" horiz-adv-x="386" 
d="M53 -64h116v17l-19 28h-97v40h70l-107 160h55l123 -187l122 187h55l-107 -160h67v-40h-94l-19 -28v-17h113v-40h-113v-77h-49v77h-116v40z" />
    <glyph glyph-name="Euro.inferior" unicode="&#xe054;" horiz-adv-x="386" 
d="M59 0c0 7 0 14 1 21h-43v40h51c23 75 92 127 186 127c49 0 88 -14 116 -31l-21 -39c-25 15 -58 25 -95 25c-62 0 -110 -34 -132 -82h181v-40h-192c-1 -7 -1 -14 -1 -21s0 -14 1 -21h146v-40h-135c22 -48 70 -82 132 -82c37 0 69 10 95 25l21 -39
c-28 -17 -67 -31 -116 -31c-94 0 -163 52 -186 127h-51v40h43c-1 7 -1 14 -1 21z" />
    <glyph glyph-name="comma.inferior" unicode="&#xe055;" horiz-adv-x="164" 
d="M36 -250l27 147h61l-46 -147h-42z" />
    <glyph glyph-name="period.inferior" unicode="&#xe056;" horiz-adv-x="164" 
d="M82 -185c-25 0 -41 18 -41 40s16 39 41 39s41 -17 41 -39s-16 -40 -41 -40z" />
    <glyph glyph-name="hyphen.inferior" unicode="&#xe057;" horiz-adv-x="238" 
d="M28 -24v48h182v-48h-182z" />
    <glyph glyph-name="parenleft.num" unicode="&#xe07e;" horiz-adv-x="269" 
d="M57 519c0 112 70 209 181 237v-43c-78 -24 -130 -99 -130 -194s52 -170 130 -194v-43c-111 28 -181 125 -181 237z" />
    <glyph glyph-name="parenright.num" unicode="&#xe07f;" horiz-adv-x="269" 
d="M212 519c0 -112 -70 -209 -180 -237v43c78 24 129 99 129 194s-51 170 -129 194v43c110 -28 180 -125 180 -237z" />
    <glyph glyph-name="dollar.num" unicode="&#xe080;" horiz-adv-x="386" 
d="M219 757v-52c70 -7 112 -41 120 -96h-48c-4 28 -30 47 -72 52v-123l25 -5c69 -14 105 -42 105 -97c0 -64 -54 -99 -130 -104v-51h-40v51c-82 5 -134 39 -142 104h48c6 -39 40 -57 94 -61v126l-18 4c-68 13 -116 34 -116 99c0 61 45 98 134 101v52h40zM95 607
c0 -34 31 -49 77 -58l7 -2v116c-58 -3 -84 -21 -84 -56zM235 490l-16 3v-118c51 4 80 23 80 60c0 32 -21 46 -64 55z" />
    <glyph glyph-name="cent.num" unicode="&#xe081;" horiz-adv-x="386" 
d="M221 757v-51c80 -9 135 -63 144 -126h-51c-10 40 -44 73 -93 80v-283c50 7 84 41 94 82h51c-9 -65 -64 -119 -145 -127v-51h-40v51c-92 9 -163 88 -163 187c0 98 71 178 163 187v51h40zM69 519c0 -75 46 -132 112 -142v283c-66 -10 -112 -67 -112 -141z" />
    <glyph glyph-name="sterling.num" unicode="&#xe082;" horiz-adv-x="386" 
d="M32 538h49v25c0 79 49 144 144 144c83 0 125 -52 132 -112h-49c-3 36 -28 67 -82 67c-68 0 -96 -44 -96 -103v-21h132v-41h-132v-114h228v-45h-326v45h49v114h-49v41z" />
    <glyph glyph-name="yen.num" unicode="&#xe083;" horiz-adv-x="386" 
d="M53 455h116v17l-19 28h-97v40h70l-107 160h55l123 -187l122 187h55l-107 -160h67v-40h-94l-19 -28v-17h113v-40h-113v-77h-49v77h-116v40z" />
    <glyph glyph-name="Euro.num" unicode="&#xe084;" horiz-adv-x="386" 
d="M59 519c0 7 0 14 1 21h-43v40h51c23 75 92 127 186 127c49 0 88 -14 116 -31l-21 -39c-25 15 -58 25 -95 25c-62 0 -110 -34 -132 -82h181v-40h-192c-1 -7 -1 -14 -1 -21s0 -14 1 -21h146v-40h-135c22 -49 70 -82 132 -82c37 0 69 10 95 25l21 -39
c-28 -17 -67 -31 -116 -31c-94 0 -163 51 -186 127h-51v40h43c-1 7 -1 14 -1 21z" />
    <glyph glyph-name="comma.num" unicode="&#xe085;" horiz-adv-x="164" 
d="M36 269l27 147h61l-46 -147h-42z" />
    <glyph glyph-name="period.num" unicode="&#xe086;" horiz-adv-x="164" 
d="M82 334c-25 0 -41 18 -41 40s16 39 41 39s41 -17 41 -39s-16 -40 -41 -40z" />
    <glyph glyph-name="hyphen.num" unicode="&#xe087;" horiz-adv-x="238" 
d="M28 495v48h182v-48h-182z" />
    <glyph glyph-name="dollar.superior" unicode="&#xe058;" horiz-adv-x="386" 
d="M219 938v-52c70 -7 112 -41 120 -96h-48c-4 28 -30 47 -72 52v-123l25 -5c69 -14 105 -42 105 -97c0 -64 -54 -99 -130 -104v-51h-40v51c-82 5 -134 39 -142 104h48c6 -39 40 -57 94 -61v126l-18 4c-68 13 -116 34 -116 99c0 61 45 98 134 101v52h40zM95 788
c0 -34 31 -49 77 -58l7 -2v116c-58 -3 -84 -21 -84 -56zM235 671l-16 3v-118c51 4 80 23 80 60c0 32 -21 46 -64 55z" />
    <glyph glyph-name="cent.superior" unicode="&#xe059;" horiz-adv-x="386" 
d="M221 938v-51c80 -9 135 -63 144 -126h-51c-10 40 -44 73 -93 80v-283c50 7 84 41 94 82h51c-9 -65 -64 -119 -145 -127v-51h-40v51c-92 9 -163 88 -163 187c0 98 71 178 163 187v51h40zM69 700c0 -75 46 -132 112 -142v283c-66 -10 -112 -67 -112 -141z" />
    <glyph glyph-name="sterling.superior" unicode="&#xe05a;" horiz-adv-x="386" 
d="M32 719h49v25c0 79 49 144 144 144c83 0 125 -52 132 -112h-49c-3 36 -28 67 -82 67c-68 0 -96 -44 -96 -103v-21h132v-41h-132v-114h228v-45h-326v45h49v114h-49v41z" />
    <glyph glyph-name="yen.superior" unicode="&#xe05b;" horiz-adv-x="386" 
d="M53 636h116v17l-19 28h-97v40h70l-107 160h55l123 -187l122 187h55l-107 -160h67v-40h-94l-19 -28v-17h113v-40h-113v-77h-49v77h-116v40z" />
    <glyph glyph-name="Euro.superior" unicode="&#xe05c;" horiz-adv-x="386" 
d="M59 700c0 7 0 14 1 21h-43v40h51c23 75 92 127 186 127c49 0 88 -14 116 -31l-21 -39c-25 15 -58 25 -95 25c-62 0 -110 -34 -132 -82h181v-40h-192c-1 -7 -1 -14 -1 -21s0 -14 1 -21h146v-40h-135c22 -49 70 -82 132 -82c37 0 69 10 95 25l21 -39
c-28 -17 -67 -31 -116 -31c-94 0 -163 51 -186 127h-51v40h43c-1 7 -1 14 -1 21z" />
    <glyph glyph-name="comma.superior" unicode="&#xe05d;" horiz-adv-x="164" 
d="M36 450l27 147h61l-46 -147h-42z" />
    <glyph glyph-name="period.superior" unicode="&#xe05e;" horiz-adv-x="164" 
d="M82 515c-25 0 -41 18 -41 40s16 39 41 39s41 -17 41 -39s-16 -40 -41 -40z" />
    <glyph glyph-name="hyphen.superior" unicode="&#xe05f;" horiz-adv-x="238" 
d="M28 676v48h182v-48h-182z" />
    <glyph glyph-name="zero.denom" unicode="&#xe060;" horiz-adv-x="386" 
d="M193 369c100 0 165 -78 165 -188s-65 -188 -165 -188c-99 0 -164 78 -164 188s65 188 164 188zM193 38c68 0 113 56 113 143s-45 143 -113 143c-67 0 -113 -56 -113 -143s46 -143 113 -143z" />
    <glyph glyph-name="one.denom" unicode="&#xe061;" horiz-adv-x="386" 
d="M198 0v309l-108 -36l-14 41l132 50h40v-364h-50z" />
    <glyph glyph-name="two.denom" unicode="&#xe062;" horiz-adv-x="386" 
d="M192 325c-61 0 -90 -31 -94 -80h-48c5 70 53 124 143 124c86 0 134 -45 134 -110c0 -58 -39 -96 -94 -138l-97 -76h200v-45h-283v35l145 115c53 42 80 68 80 108s-31 67 -86 67z" />
    <glyph glyph-name="three.denom" unicode="&#xe063;" horiz-adv-x="386" 
d="M191 325c-61 0 -92 -28 -96 -69h-47c5 68 55 113 144 113c73 0 133 -34 133 -104c0 -35 -21 -64 -50 -72c39 -9 62 -40 62 -87c0 -71 -63 -113 -146 -113c-91 0 -142 41 -148 112h48c5 -44 38 -68 100 -68c58 0 97 22 97 70c0 41 -25 60 -77 60h-47v43h47
c46 0 66 21 66 52c0 43 -37 63 -86 63z" />
    <glyph glyph-name="four.denom" unicode="&#xe064;" horiz-adv-x="386" 
d="M297 364v-236h61v-44h-61v-84h-50v84h-211v38l219 242h42zM95 128h153v168z" />
    <glyph glyph-name="five.denom" unicode="&#xe065;" horiz-adv-x="386" 
d="M194 37c62 0 95 31 95 76c0 46 -26 76 -97 76c-44 0 -70 -9 -89 -19l-39 11l12 181h239v-45h-197l-8 -105c20 11 53 18 90 18c91 0 139 -49 139 -116c0 -76 -62 -121 -144 -121c-89 0 -139 42 -145 110h46c5 -43 39 -66 98 -66z" />
    <glyph glyph-name="six.denom" unicode="&#xe066;" horiz-adv-x="386" 
d="M211 240c84 0 137 -52 137 -121c0 -74 -55 -126 -142 -126c-85 0 -155 54 -155 167c0 126 46 209 163 209c75 0 115 -36 126 -89h-48c-7 30 -37 46 -78 46c-82 0 -107 -59 -112 -134c17 31 58 48 109 48zM205 36c60 0 95 34 95 82c0 49 -35 80 -95 80
c-59 0 -98 -29 -98 -79c0 -46 37 -83 98 -83z" />
    <glyph glyph-name="seven.denom" unicode="&#xe067;" horiz-adv-x="386" 
d="M331 324l-183 -324h-57l180 317h-220v45h280v-38z" />
    <glyph glyph-name="eight.denom" unicode="&#xe068;" horiz-adv-x="386" 
d="M193 369c89 0 140 -39 140 -100c0 -43 -27 -72 -67 -82c42 -8 80 -42 80 -90c0 -67 -61 -104 -153 -104s-153 37 -153 104c0 48 38 82 80 90c-40 10 -67 39 -67 82c0 61 52 100 140 100zM193 37c62 0 105 19 105 62c0 42 -39 64 -105 64c-65 0 -105 -22 -105 -64
c0 -43 43 -62 105 -62zM193 205c58 0 93 22 93 61c0 42 -39 59 -93 59s-93 -17 -93 -59c0 -39 35 -61 93 -61z" />
    <glyph glyph-name="nine.denom" unicode="&#xe069;" horiz-adv-x="386" 
d="M176 122c-84 0 -138 52 -138 121c0 74 55 126 143 126c85 0 154 -54 154 -167c0 -126 -45 -209 -162 -209c-76 0 -116 36 -127 89h48c8 -30 38 -46 78 -46c83 0 107 60 113 135c-18 -31 -58 -49 -109 -49zM181 326c-60 0 -95 -34 -95 -82c0 -49 35 -80 95 -80
c59 0 98 28 98 78c0 46 -37 84 -98 84z" />
    <glyph glyph-name="parenleft.denom" unicode="&#xe06a;" horiz-adv-x="269" 
d="M57 181c0 112 70 209 181 237v-43c-78 -24 -130 -99 -130 -194s52 -170 130 -194v-43c-111 28 -181 125 -181 237z" />
    <glyph glyph-name="parenright.denom" unicode="&#xe06b;" horiz-adv-x="269" 
d="M212 181c0 -112 -70 -209 -180 -237v43c78 24 129 99 129 194s-51 170 -129 194v43c110 -28 180 -125 180 -237z" />
    <glyph glyph-name="dollar.denom" unicode="&#xe06c;" horiz-adv-x="386" 
d="M219 419v-52c70 -7 112 -41 120 -96h-48c-4 28 -30 47 -72 52v-123l25 -5c69 -14 105 -42 105 -97c0 -64 -54 -98 -130 -103v-52h-40v52c-82 4 -134 38 -142 103h48c6 -39 40 -57 94 -61v126l-18 4c-68 13 -116 34 -116 99c0 61 45 98 134 101v52h40zM95 269
c0 -34 31 -49 77 -58l7 -2v116c-58 -3 -84 -21 -84 -56zM235 152l-16 3v-118c51 4 80 23 80 60c0 32 -21 46 -64 55z" />
    <glyph glyph-name="cent.denom" unicode="&#xe06d;" horiz-adv-x="386" 
d="M221 419v-51c80 -9 135 -63 144 -126h-51c-10 40 -44 73 -93 80v-283c50 7 84 41 94 82h51c-9 -65 -64 -119 -145 -127v-51h-40v51c-92 9 -163 88 -163 187c0 98 71 178 163 187v51h40zM69 181c0 -75 46 -132 112 -142v283c-66 -10 -112 -67 -112 -141z" />
    <glyph glyph-name="sterling.denom" unicode="&#xe06e;" horiz-adv-x="386" 
d="M32 200h49v25c0 79 49 144 144 144c83 0 125 -52 132 -112h-49c-3 36 -28 67 -82 67c-68 0 -96 -44 -96 -103v-21h132v-41h-132v-114h228v-45h-326v45h49v114h-49v41z" />
    <glyph glyph-name="yen.denom" unicode="&#xe06f;" horiz-adv-x="386" 
d="M53 117h116v17l-19 28h-97v40h70l-107 160h55l123 -187l122 187h55l-107 -160h67v-40h-94l-19 -28v-17h113v-40h-113v-77h-49v77h-116v40z" />
    <glyph glyph-name="Euro.denom" unicode="&#xe070;" horiz-adv-x="386" 
d="M59 181c0 7 0 14 1 21h-43v40h51c23 75 92 127 186 127c49 0 88 -14 116 -31l-21 -39c-25 15 -58 25 -95 25c-62 0 -110 -34 -132 -82h181v-40h-192c-1 -7 -1 -14 -1 -21s0 -14 1 -21h146v-40h-135c22 -49 70 -82 132 -82c37 0 69 10 95 25l21 -39
c-28 -17 -67 -31 -116 -31c-94 0 -163 51 -186 127h-51v40h43c-1 7 -1 14 -1 21z" />
    <glyph glyph-name="comma.denom" unicode="&#xe071;" horiz-adv-x="164" 
d="M36 -69l27 147h61l-46 -147h-42z" />
    <glyph glyph-name="period.denom" unicode="&#xe072;" horiz-adv-x="164" 
d="M82 -4c-25 0 -41 18 -41 40s16 39 41 39s41 -17 41 -39s-16 -40 -41 -40z" />
    <glyph glyph-name="hyphen.denom" unicode="&#xe073;" horiz-adv-x="238" 
d="M28 157v48h182v-48h-182z" />
    <glyph glyph-name="oneseventh" unicode="&#x2150;" horiz-adv-x="892" 
d="M224 0h-55l444 700h55zM837 324l-183 -324h-57l180 317h-220v45h280v-38zM198 338v309l-108 -36l-14 41l132 50h40v-364h-50z" />
    <glyph glyph-name="oneninth" unicode="&#x2151;" horiz-adv-x="892" 
d="M230 0h-55l444 700h55zM682 122c-84 0 -138 52 -138 121c0 74 55 126 143 126c85 0 154 -54 154 -167c0 -126 -45 -209 -162 -209c-76 0 -116 36 -127 89h48c8 -30 38 -46 78 -46c83 0 107 60 113 135c-18 -31 -58 -49 -109 -49zM687 326c-60 0 -95 -34 -95 -82
c0 -49 35 -80 95 -80c59 0 98 28 98 78c0 46 -37 84 -98 84zM198 338v309l-108 -36l-14 41l132 50h40v-364h-50z" />
    <glyph glyph-name="onetenth" unicode="&#x2152;" horiz-adv-x="1188" 
d="M198 338v309l-108 -36l-14 41l132 50h40v-364h-50zM230 0h-55l444 700h55zM676 0v309l-108 -36l-14 41l132 50h40v-364h-50zM995 369c100 0 165 -78 165 -188s-65 -188 -165 -188c-99 0 -164 78 -164 188s65 188 164 188zM995 38c68 0 113 56 113 143s-45 143 -113 143
c-67 0 -113 -56 -113 -143s46 -143 113 -143z" />
    <glyph glyph-name="onefifth" unicode="&#x2155;" horiz-adv-x="892" 
d="M228 0h-55l444 700h55zM700 37c62 0 95 31 95 76c0 46 -26 76 -97 76c-44 0 -70 -9 -89 -19l-39 11l12 181h239v-45h-197l-8 -105c20 11 53 18 90 18c91 0 139 -49 139 -116c0 -76 -62 -121 -144 -121c-89 0 -139 42 -145 110h46c5 -43 39 -66 98 -66zM198 338v309
l-108 -36l-14 41l132 50h40v-364h-50z" />
    <glyph glyph-name="twofifths" unicode="&#x2156;" horiz-adv-x="892" 
d="M192 663c-61 0 -90 -31 -94 -80h-48c5 70 53 124 143 124c86 0 134 -45 134 -110c0 -58 -39 -96 -94 -138l-97 -76h200v-45h-283v35l145 115c53 42 80 68 80 108s-31 67 -86 67zM271 0h-55l444 700h55zM700 37c62 0 95 31 95 76c0 46 -26 76 -97 76c-44 0 -70 -9 -89 -19
l-39 11l12 181h239v-45h-197l-8 -105c20 11 53 18 90 18c91 0 139 -49 139 -116c0 -76 -62 -121 -144 -121c-89 0 -139 42 -145 110h46c5 -43 39 -66 98 -66z" />
    <glyph glyph-name="threefifths" unicode="&#x2157;" horiz-adv-x="892" 
d="M191 663c-61 0 -92 -28 -96 -69h-47c5 68 55 113 144 113c73 0 133 -34 133 -104c0 -35 -21 -64 -50 -72c39 -9 62 -40 62 -87c0 -71 -63 -113 -146 -113c-91 0 -142 41 -148 112h48c5 -44 38 -68 100 -68c58 0 97 22 97 70c0 41 -25 60 -77 60h-47v43h47
c46 0 66 21 66 52c0 43 -37 63 -86 63zM242 0h-55l444 700h55zM700 37c62 0 95 31 95 76c0 46 -26 76 -97 76c-44 0 -70 -9 -89 -19l-39 11l12 181h239v-45h-197l-8 -105c20 11 53 18 90 18c91 0 139 -49 139 -116c0 -76 -62 -121 -144 -121c-89 0 -139 42 -145 110h46
c5 -43 39 -66 98 -66z" />
    <glyph glyph-name="fourfifths" unicode="&#x2158;" horiz-adv-x="892" 
d="M297 702v-236h61v-44h-61v-84h-50v84h-211v38l219 242h42zM95 466h153v168zM253 0h-55l444 700h55zM700 37c62 0 95 31 95 76c0 46 -26 76 -97 76c-44 0 -70 -9 -89 -19l-39 11l12 181h239v-45h-197l-8 -105c20 11 53 18 90 18c91 0 139 -49 139 -116
c0 -76 -62 -121 -144 -121c-89 0 -139 42 -145 110h46c5 -43 39 -66 98 -66z" />
    <glyph glyph-name="onesixth" unicode="&#x2159;" horiz-adv-x="892" 
d="M242 0h-55l444 700h55zM717 240c84 0 137 -52 137 -121c0 -74 -55 -126 -142 -126c-85 0 -155 54 -155 167c0 126 46 209 163 209c75 0 115 -36 126 -89h-48c-7 30 -37 46 -78 46c-82 0 -107 -59 -112 -134c17 31 58 48 109 48zM711 36c60 0 95 34 95 82
c0 49 -35 80 -95 80c-59 0 -98 -29 -98 -79c0 -46 37 -83 98 -83zM198 338v309l-108 -36l-14 41l132 50h40v-364h-50z" />
    <glyph glyph-name="fivesixths" unicode="&#x215a;" horiz-adv-x="892" 
d="M259 0h-55l444 700h55zM194 375c62 0 95 31 95 76c0 46 -26 76 -97 76c-44 0 -70 -9 -89 -19l-39 11l12 181h239v-45h-197l-8 -105c20 11 53 18 90 18c91 0 139 -49 139 -116c0 -76 -62 -121 -144 -121c-89 0 -139 42 -145 110h46c5 -43 39 -66 98 -66zM717 240
c84 0 137 -52 137 -121c0 -74 -55 -126 -142 -126c-85 0 -155 54 -155 167c0 126 46 209 163 209c75 0 115 -36 126 -89h-48c-7 30 -37 46 -78 46c-82 0 -107 -59 -112 -134c17 31 58 48 109 48zM711 36c60 0 95 34 95 82c0 49 -35 80 -95 80c-59 0 -98 -29 -98 -79
c0 -46 37 -83 98 -83z" />
    <glyph glyph-name="fraction.alt" unicode="&#xe04e;" horiz-adv-x="273" 
d="M-58 0h-55l444 700h55z" />
    <glyph glyph-name="at.case" unicode="&#xe088;" horiz-adv-x="979" 
d="M690 35v-46c-47 -23 -121 -40 -200 -40c-244 0 -416 171 -416 395c0 237 172 407 421 407c238 0 409 -156 409 -383c0 -135 -57 -218 -156 -218c-53 0 -92 27 -106 86c-33 -53 -89 -90 -160 -90c-110 0 -196 88 -196 202s86 202 196 202c64 0 117 -31 151 -76v70h52v-241
c0 -75 22 -108 68 -108c59 0 100 60 100 173c0 206 -151 337 -358 337c-217 0 -369 -146 -369 -361c0 -203 151 -349 364 -349c77 0 143 15 200 40zM339 348c0 -88 61 -154 148 -154c80 0 147 65 147 154s-67 154 -147 154c-87 0 -148 -66 -148 -154z" />
    <glyph glyph-name="parenleft.case" unicode="&#xe089;" horiz-adv-x="394" 
d="M82 350c0 186 113 327 270 368v-55c-118 -37 -208 -144 -208 -313s90 -276 208 -313v-55c-157 41 -270 182 -270 368z" />
    <glyph glyph-name="parenright.case" unicode="&#xe08a;" horiz-adv-x="394" 
d="M312 350c0 -186 -113 -327 -270 -368v55c118 37 208 144 208 313s-90 276 -208 313v55c157 -41 270 -182 270 -368z" />
    <glyph glyph-name="bracketright.case" unicode="&#xe08c;" horiz-adv-x="378" 
d="M42 700h228v-700h-228v52h168v596h-168v52z" />
    <glyph glyph-name="braceleft.case" unicode="&#xe08d;" horiz-adv-x="414" 
d="M67 321v58c71 2 124 42 118 110l-6 53c-9 104 34 158 159 158h34v-52h-34c-84 0 -105 -31 -100 -100l3 -52c5 -72 -27 -126 -98 -146c71 -20 103 -74 98 -146l-3 -52c-5 -69 16 -100 100 -100h34v-52h-34c-125 0 -168 54 -159 158l6 53c6 68 -47 108 -118 110z" />
    <glyph glyph-name="braceright.case" unicode="&#xe08e;" horiz-adv-x="414" 
d="M347 379v-58c-71 -2 -124 -42 -118 -110l6 -53c9 -104 -34 -158 -159 -158h-34v52h34c84 0 105 31 100 100l-3 52c-5 72 27 126 98 146c-71 20 -103 74 -98 146l3 52c5 69 -16 100 -100 100h-34v52h34c125 0 168 -54 159 -158l-6 -53c-6 -68 47 -108 118 -110z" />
    <glyph glyph-name="plus.case" unicode="&#xe08f;" horiz-adv-x="606" 
d="M330 158h-54v166h-166v53h166v165h54v-165h166v-53h-166v-166z" />
    <glyph glyph-name="minus.case" unicode="&#xe090;" horiz-adv-x="606" 
d="M490 377v-53h-374v53h374z" />
    <glyph glyph-name="multiply.case" unicode="&#xe091;" horiz-adv-x="606" 
d="M136 478l39 39l128 -128l128 128l39 -39l-128 -128l128 -128l-39 -38l-128 127l-128 -127l-39 38l128 128z" />
    <glyph glyph-name="divide.case" unicode="&#xe092;" horiz-adv-x="606" 
d="M490 377v-53h-374v53h374zM258 516c0 26 18 45 45 45s45 -19 45 -45s-18 -46 -45 -46s-45 20 -45 46zM258 185c0 26 18 45 45 45s45 -19 45 -45s-18 -46 -45 -46s-45 20 -45 46z" />
    <glyph glyph-name="equal.case" unicode="&#xe093;" horiz-adv-x="606" 
d="M490 469v-53h-374v53h374zM490 284v-53h-374v53h374z" />
    <glyph glyph-name="notequal.case" unicode="&#xe094;" horiz-adv-x="606" 
d="M479 582l-72 -113h98v-53h-132l-84 -132h216v-53h-250l-84 -132l-44 25l68 107h-94v53h128l84 132h-212v53h246l88 138z" />
    <glyph glyph-name="approxequal.case" unicode="&#xe095;" horiz-adv-x="606" 
d="M462 314l47 -5c-12 -68 -48 -106 -117 -106c-63 0 -126 61 -180 61c-41 0 -58 -22 -68 -58l-47 5c12 69 48 106 117 106c63 0 126 -61 180 -61c41 0 58 23 68 58zM462 495l47 -6c-12 -68 -48 -105 -117 -105c-63 0 -126 61 -180 61c-41 0 -58 -23 -68 -59l-47 6
c12 68 48 105 117 105c63 0 126 -60 180 -60c41 0 58 22 68 58z" />
    <glyph glyph-name="infinity.case" unicode="&#xe096;" horiz-adv-x="795" 
d="M744 350c0 -84 -62 -150 -157 -150c-74 0 -117 34 -190 117c-73 -83 -115 -117 -189 -117c-94 0 -157 66 -157 150s63 149 157 149c74 0 116 -34 189 -117c71 81 116 117 190 117c95 0 157 -65 157 -149zM207 243c58 0 92 26 162 106c-68 79 -104 107 -162 107
c-70 0 -107 -43 -107 -106c0 -64 37 -107 107 -107zM695 350c0 63 -37 106 -107 106c-58 0 -94 -28 -163 -107c70 -79 104 -106 163 -106c70 0 107 44 107 107z" />
    <glyph glyph-name="less.case" unicode="&#xe097;" horiz-adv-x="606" 
d="M106 325v50l390 194v-65l-324 -154l324 -154v-65z" />
    <glyph glyph-name="greater.case" unicode="&#xe098;" horiz-adv-x="606" 
d="M500 375v-50l-390 -194v65l324 154l-324 154v65z" />
    <glyph glyph-name="guilsinglleft.case" unicode="&#xe099;" horiz-adv-x="284" 
d="M226 528l-112 -178l112 -178h-60l-113 178l113 178h60z" />
    <glyph glyph-name="guilsinglright.case" unicode="&#xe09a;" horiz-adv-x="284" 
d="M58 172l113 178l-113 178h60l113 -178l-113 -178h-60z" />
    <glyph glyph-name="guillemotleft.case" unicode="&#xe09b;" horiz-adv-x="470" 
d="M226 528l-112 -178l112 -178h-60l-113 178l113 178h60zM411 528l-112 -178l112 -178h-60l-113 178l113 178h60z" />
    <glyph glyph-name="guillemotright.case" unicode="&#xe09c;" horiz-adv-x="470" 
d="M58 172l113 178l-113 178h60l113 -178l-113 -178h-60zM243 172l113 178l-113 178h60l113 -178l-113 -178h-60z" />
    <glyph glyph-name="bar.case" unicode="&#xe09d;" horiz-adv-x="344" 
d="M200 864v-1028h-56v1028h56z" />
    <glyph glyph-name="brokenbar.case" unicode="&#xe09e;" horiz-adv-x="344" 
d="M200 864v-428h-56v428h56zM200 264v-428h-56v428h56z" />
    <glyph glyph-name="asciitilde.case" unicode="&#xe09f;" 
d="M391 397l37 -5c-11 -49 -44 -90 -97 -90c-30 0 -60 13 -88 25c-23 10 -45 24 -72 24c-36 0 -52 -22 -62 -50l-37 6c12 49 45 90 97 90c30 0 60 -13 88 -25c23 -10 46 -24 73 -24c35 0 51 22 61 49z" />
    <glyph glyph-name="bullet.case" unicode="&#xe0a0;" horiz-adv-x="400" 
d="M105 350c0 53 41 96 95 96s95 -43 95 -96c0 -52 -41 -96 -95 -96s-95 44 -95 96z" />
    <glyph glyph-name="periodcentered.case" unicode="&#xe0a1;" horiz-adv-x="236" 
d="M72 350c0 27 19 46 46 46s46 -19 46 -46c0 -26 -19 -46 -46 -46s-46 20 -46 46z" />
    <glyph glyph-name="hyphen.case" unicode="&#xe0a2;" horiz-adv-x="391" 
d="M50 325v51h292v-51h-292z" />
    <glyph glyph-name="endash.case" unicode="&#xe0a3;" horiz-adv-x="470" 
d="M34 325v51h402v-51h-402z" />
    <glyph glyph-name="emdash.case" unicode="&#xe0a4;" horiz-adv-x="578" 
d="M21 325v51h537v-51h-537z" />
    <glyph glyph-name="questiondown.case" unicode="&#xe0a5;" horiz-adv-x="592" 
d="M63 187c0 113 117 179 190 217l7 94h46l8 -118c-80 -39 -189 -92 -189 -190c0 -86 58 -145 179 -145c127 0 184 64 192 156h57c-9 -122 -87 -210 -250 -210c-158 0 -240 82 -240 196zM238 658c0 27 19 46 46 46s46 -19 46 -46c0 -26 -19 -46 -46 -46s-46 20 -46 46z" />
    <glyph glyph-name="exclamdown.case" unicode="&#xe0a6;" horiz-adv-x="277" 
d="M118 498h41c7 -137 12 -299 12 -443v-55h-65v55c0 144 4 306 12 443zM92 658c0 27 19 46 46 46c28 0 46 -19 46 -46c0 -26 -18 -46 -46 -46c-27 0 -46 20 -46 46z" />
    <glyph glyph-name="registered.case" unicode="&#xe0a7;" horiz-adv-x="853" 
d="M426 709c201 0 359 -159 359 -359s-158 -359 -359 -359c-200 0 -358 159 -358 359s158 359 358 359zM426 41c173 0 306 134 306 309s-133 309 -306 309c-172 0 -306 -134 -306 -309s134 -309 306 -309zM342 297v-135h-52v376h173c88 0 138 -50 138 -120
c0 -60 -37 -106 -103 -118l104 -138h-58l-100 135h-102zM342 344h113c63 0 93 27 93 74s-30 73 -93 73h-113v-147z" />
    <glyph glyph-name="arrowleft.case" unicode="&#xe0a8;" horiz-adv-x="666" 
d="M46 350l214 215l19 -12l-88 -178l424 1v-51l-424 1l88 -178l-19 -12z" />
    <glyph glyph-name="arrowup.case" unicode="&#xe0a9;" horiz-adv-x="700" 
d="M350 655l214 -214l-12 -19l-177 87l1 -383h-51v383l-177 -87l-12 19z" />
    <glyph glyph-name="arrowright.case" unicode="&#xe0aa;" horiz-adv-x="666" 
d="M406 565l214 -215l-214 -214l-19 12l88 178l-424 -1v51l423 -1l-87 178z" />
    <glyph glyph-name="arrowdown.case" unicode="&#xe0ab;" horiz-adv-x="700" 
d="M350 53l-214 214l12 19l177 -88l-1 384h51v-384l177 88l12 -19z" />
    <glyph glyph-name="arrowboth.case" unicode="&#xe0ac;" horiz-adv-x="826" 
d="M46 344l214 215l19 -12l-88 -178h443l-87 178l19 12l214 -215l-214 -214l-19 12l88 178h-444l88 -178l-19 -12z" />
    <glyph glyph-name="arrowupdn.case" unicode="&#xe0ad;" horiz-adv-x="700" 
d="M350 -8l-214 214l12 18l177 -87v414l-177 -87l-12 19l214 214l214 -214l-12 -19l-176 87l-1 -414l177 87l12 -18z" />
    <glyph glyph-name="arrowupleft.case" unicode="&#xe0ae;" horiz-adv-x="666" 
d="M126 554h304l4 -21l-187 -64l300 -299l-36 -37l-299 300l-64 -186l-22 4v303z" />
    <glyph glyph-name="arrowupright.case" unicode="&#xe0af;" horiz-adv-x="666" 
d="M249 554h304v-303l-22 -4l-64 186l-299 -300l-36 37l300 299l-187 64z" />
    <glyph glyph-name="arrowdownright.case" unicode="&#xe0b0;" horiz-adv-x="666" 
d="M553 128h-304l-4 21l187 64l-300 299l36 37l299 -301l64 187l22 -4v-303z" />
    <glyph glyph-name="arrowdownleft.case" unicode="&#xe0b1;" horiz-adv-x="666" 
d="M430 128h-304v303l22 4l64 -187l299 301l36 -37l-300 -299l187 -64z" />
    <glyph glyph-name="triagup.case" unicode="&#xe0b2;" horiz-adv-x="546" 
d="M431 228h-316l158 270z" />
    <glyph glyph-name="triagrt.case" unicode="&#xe0b3;" horiz-adv-x="546" 
d="M148 206v316l286 -158z" />
    <glyph glyph-name="triagdn.case" unicode="&#xe0b4;" horiz-adv-x="546" 
d="M115 499h316l-158 -270z" />
    <glyph glyph-name="triaglf.case" unicode="&#xe0b5;" horiz-adv-x="546" 
d="M398 522v-316l-286 158z" />
    <glyph glyph-name="uni25E2.case" unicode="&#xe0b6;" horiz-adv-x="546" 
d="M404 224h-300l300 300v-300z" />
    <glyph glyph-name="uni25E3.case" unicode="&#xe0b7;" horiz-adv-x="546" 
d="M442 224h-300v300z" />
    <glyph glyph-name="uni25E4.case" unicode="&#xe0b8;" horiz-adv-x="546" 
d="M142 524h300l-300 -300v300z" />
    <glyph glyph-name="uni25E5.case" unicode="&#xe0b9;" horiz-adv-x="546" 
d="M104 524h300v-300z" />
    <glyph glyph-name="quadspace" unicode="&#xe02e;" horiz-adv-x="61" 
 />
    <glyph glyph-name="halfspace" unicode="&#xe02f;" horiz-adv-x="122" 
 />
    <glyph glyph-name="bracketleft.case" unicode="&#xe08b;" horiz-adv-x="378" 
d="M109 700h227v-52h-168v-596h168v-52h-227v700z" />
    <glyph glyph-name="CR" unicode="&#xd;" 
 />
    <glyph glyph-name="NULL" horiz-adv-x="0" 
 />
    <glyph glyph-name="NULL" horiz-adv-x="0" 
 />
    <glyph glyph-name="exclam.sc" unicode="&#xf720;" horiz-adv-x="250" 
d="M147 163h-43c-5 90 -8 183 -8 272v73h58v-73c0 -89 -3 -182 -7 -272zM79 41c0 27 19 46 46 46s46 -19 46 -46c0 -26 -19 -46 -46 -46s-46 20 -46 46z" />
    <glyph glyph-name="numbersign.sc" unicode="&#xf721;" horiz-adv-x="572" 
d="M90 331v46h91l27 131h49l-26 -131h159l26 131h50l-27 -131h82v-46h-91l-30 -153h81v-47h-91l-26 -131h-49l26 131h-159l-26 -131h-50l26 131h-81v47h91l30 153h-82zM222 331l-31 -153h159l31 153h-159z" />
    <glyph glyph-name="dollar.sc" unicode="&#xf722;" horiz-adv-x="524" 
d="M247 -100v94c-107 6 -182 51 -192 136h57c8 -55 59 -81 135 -85v187l-15 3c-103 16 -165 61 -165 141c0 87 70 135 180 139v93h46v-95c93 -9 149 -57 156 -125h-55c-8 41 -42 66 -101 73v-183l30 -4c101 -16 146 -62 146 -135c0 -89 -74 -139 -176 -145v-94h-46zM124 377
c0 -52 43 -78 122 -91h1v177c-78 -3 -123 -28 -123 -86zM308 223l-15 2v-179c73 5 119 35 119 89c0 47 -33 77 -104 88z" />
    <glyph glyph-name="percent.sc" unicode="&#xf723;" horiz-adv-x="767" 
d="M242 0h-56l342 508h57zM187 512c79 0 137 -58 137 -132c0 -75 -58 -132 -137 -132c-78 0 -136 57 -136 132c0 74 58 132 136 132zM187 293c52 0 88 37 88 87s-36 87 -88 87s-88 -37 -88 -87s36 -87 88 -87zM580 260c78 0 136 -57 136 -132c0 -74 -58 -132 -136 -132
c-79 0 -137 58 -137 132c0 75 58 132 137 132zM580 41c52 0 88 37 88 87s-36 87 -88 87c-53 0 -88 -37 -88 -87s35 -87 88 -87z" />
    <glyph glyph-name="ampersand.sc" unicode="&#xf724;" horiz-adv-x="563" 
d="M497 255l41 -33c-33 -42 -66 -81 -99 -114l100 -108h-67l-70 74c-57 -50 -117 -81 -182 -81c-87 0 -160 49 -160 136c0 80 56 117 111 153l22 14c-28 30 -59 67 -59 113c0 65 46 105 118 105c64 0 115 -35 115 -101c0 -57 -38 -88 -80 -115l-15 -10l132 -142
c29 30 60 67 93 109zM221 45c51 0 98 24 146 66l-139 148l-21 -14c-48 -31 -89 -57 -89 -114c0 -54 45 -86 103 -86zM190 410c0 -33 23 -58 47 -84l22 14c29 19 53 37 53 74c0 33 -24 52 -59 52c-40 0 -63 -18 -63 -56z" />
    <glyph glyph-name="parenleft.sc" unicode="&#xf725;" horiz-adv-x="348" 
d="M74 254c0 154 87 282 224 315v-52c-100 -29 -166 -125 -166 -263s66 -234 166 -263v-51c-137 33 -224 160 -224 314z" />
    <glyph glyph-name="parenright.sc" unicode="&#xf726;" horiz-adv-x="348" 
d="M274 254c0 -154 -87 -281 -224 -314v51c100 29 165 125 165 263s-65 234 -165 263v52c137 -33 224 -161 224 -315z" />
    <glyph glyph-name="asterisk.sc" unicode="&#xf727;" horiz-adv-x="372" 
d="M211 510l-5 -98l98 36l16 -46l-103 -27l67 -76l-39 -29l-59 83l-59 -83l-39 29l68 76l-104 27l16 46l98 -36l-5 98h50z" />
    <glyph glyph-name="slash.sc" unicode="&#xf728;" horiz-adv-x="418" 
d="M408 576l-341 -644h-57l340 644h58z" />
    <glyph glyph-name="zero.sc" unicode="&#xf729;" horiz-adv-x="524" 
d="M262 515c129 0 219 -102 219 -261c0 -158 -90 -261 -219 -261c-128 0 -219 103 -219 261c0 159 91 261 219 261zM262 46c94 0 161 75 161 208s-67 208 -161 208s-160 -75 -160 -208s66 -208 160 -208z" />
    <glyph glyph-name="one.sc" unicode="&#xf72a;" horiz-adv-x="524" 
d="M276 0v449l-144 -48l-16 40l178 69h39v-510h-57z" />
    <glyph glyph-name="two.sc" unicode="&#xf72b;" horiz-adv-x="524" 
d="M260 464c-91 0 -135 -46 -138 -113h-56c5 94 71 164 195 164c118 0 185 -65 185 -155c0 -81 -51 -127 -128 -187l-158 -121h296v-52h-387v42l204 159c76 61 116 100 116 159c0 64 -49 104 -129 104z" />
    <glyph glyph-name="three.sc" unicode="&#xf72c;" horiz-adv-x="524" 
d="M256 464c-87 0 -132 -39 -136 -99h-56c6 89 73 150 193 150c96 0 183 -46 183 -140c0 -58 -34 -98 -77 -108c53 -8 96 -52 96 -116c0 -101 -87 -158 -194 -158c-130 0 -201 57 -209 149h56c5 -64 58 -97 153 -97c82 0 137 36 137 107c0 60 -44 87 -117 87h-64v49h57
c69 0 106 28 106 82c0 64 -57 94 -128 94z" />
    <glyph glyph-name="four.sc" unicode="&#xf72d;" horiz-adv-x="524" 
d="M401 509v-331h90v-51h-90v-127h-56v127h-298v44l309 338h45zM118 178h227v249z" />
    <glyph glyph-name="five.sc" unicode="&#xf72e;" horiz-adv-x="524" 
d="M266 44c87 0 140 44 140 117c0 69 -48 115 -145 115c-49 0 -99 -10 -125 -27l-48 20l12 239h331v-52h-279l-9 -157c23 14 71 27 125 27c126 0 195 -68 195 -164c0 -104 -86 -169 -196 -169c-120 0 -191 60 -196 148h56c4 -58 55 -97 139 -97z" />
    <glyph glyph-name="six.sc" unicode="&#xf72f;" horiz-adv-x="524" 
d="M285 333c108 0 186 -68 186 -167c0 -105 -83 -173 -194 -173c-116 0 -208 70 -208 243c0 137 49 279 218 279c86 0 151 -51 162 -117h-54c-8 40 -50 67 -109 67c-124 0 -156 -99 -161 -204c33 45 91 72 160 72zM276 43c86 0 138 51 138 123c0 75 -52 117 -140 117
c-76 0 -140 -42 -140 -116c0 -72 61 -124 142 -124z" />
    <glyph glyph-name="seven.sc" unicode="&#xf730;" horiz-adv-x="524" 
d="M448 467l-257 -467h-59l251 456h-309v52h374v-41z" />
    <glyph glyph-name="eight.sc" unicode="&#xf731;" horiz-adv-x="524" 
d="M262 515c115 0 190 -56 190 -138c0 -56 -31 -104 -96 -119c68 -11 112 -62 112 -120c0 -93 -83 -145 -206 -145c-122 0 -206 52 -206 145c0 58 44 110 112 120c-65 15 -96 63 -96 119c0 82 75 138 190 138zM262 43c90 0 147 33 147 95c0 58 -57 95 -147 95
s-147 -37 -147 -95c0 -62 57 -95 147 -95zM262 281c83 0 132 38 132 90c0 64 -55 94 -132 94c-76 0 -132 -30 -132 -94c0 -52 49 -90 132 -90z" />
    <glyph glyph-name="nine.sc" unicode="&#xf732;" horiz-adv-x="524" 
d="M239 176c-107 0 -185 67 -185 167c0 104 82 172 193 172c116 0 209 -70 209 -242c0 -138 -49 -280 -219 -280c-86 0 -151 52 -162 118h54c8 -41 50 -68 109 -68c124 0 157 99 162 204c-32 -45 -91 -71 -161 -71zM249 465c-86 0 -138 -51 -138 -122
c0 -76 51 -118 139 -118c76 0 140 42 140 116c0 72 -61 124 -141 124z" />
    <glyph glyph-name="question.sc" unicode="&#xf733;" horiz-adv-x="487" 
d="M427 373c0 -89 -99 -134 -151 -156l-5 -54h-45l-4 80c62 24 148 56 148 126c0 60 -42 94 -130 94c-98 0 -138 -42 -141 -107h-53c3 93 61 159 194 159c128 0 187 -58 187 -142zM202 41c0 27 19 46 46 46s46 -19 46 -46c0 -26 -19 -46 -46 -46s-46 20 -46 46z" />
    <glyph glyph-name="at.sc" unicode="&#xf734;" horiz-adv-x="756" 
d="M229 254c0 78 60 140 140 140c44 0 82 -19 108 -48v42h45v-175c0 -42 14 -62 45 -62c46 0 69 39 69 114c0 143 -107 227 -257 227c-154 0 -261 -97 -261 -239c0 -145 108 -237 262 -237c53 0 99 7 142 23v-38c-34 -15 -89 -24 -142 -24c-181 0 -305 114 -305 276
c0 160 124 278 304 278c177 0 300 -105 300 -264c0 -93 -35 -158 -111 -158c-39 0 -73 18 -85 61c-25 -34 -66 -56 -114 -56c-80 0 -140 63 -140 140zM275 254c0 -57 43 -100 101 -100c57 0 101 45 101 100s-44 100 -101 100c-58 0 -101 -43 -101 -100z" />
    <glyph glyph-name="bracketleft.sc" unicode="&#xf735;" horiz-adv-x="333" 
d="M102 569h181v-49h-125v-532h125v-49h-181v630z" />
    <glyph glyph-name="backslash.sc" unicode="&#xf736;" horiz-adv-x="418" 
d="M350 -68l-340 644h57l341 -644h-58z" />
    <glyph glyph-name="bracketright.sc" unicode="&#xf737;" horiz-adv-x="333" 
d="M50 569h180v-630h-180v49h125v532h-125v49z" />
    <glyph glyph-name="braceleft.sc" unicode="&#xf738;" horiz-adv-x="364" 
d="M61 233v42c56 6 95 31 90 95l-6 65c-6 85 19 134 122 134h47v-49h-42c-64 0 -77 -25 -73 -80l5 -65c5 -61 -16 -105 -69 -121c53 -16 74 -60 69 -121l-5 -65c-4 -54 9 -80 73 -80h42v-48h-47c-103 0 -128 49 -122 133l6 66c5 63 -34 89 -90 94z" />
    <glyph glyph-name="braceright.sc" unicode="&#xf739;" horiz-adv-x="364" 
d="M304 275v-42c-56 -5 -96 -31 -90 -94l5 -66c7 -84 -19 -133 -121 -133h-48v48h43c64 0 77 26 73 80l-6 65c-5 61 16 105 70 121c-54 16 -75 60 -70 121l6 65c4 55 -9 80 -73 80h-43v49h48c102 0 128 -49 121 -134l-5 -65c-6 -64 34 -89 90 -95z" />
    <glyph glyph-name="currency.sc" unicode="&#xf73a;" horiz-adv-x="650" 
d="M144 483l58 -59c35 24 77 39 123 39s88 -15 122 -39l59 59l49 -49l-59 -59c25 -34 39 -76 39 -121c0 -46 -14 -88 -39 -122l59 -58l-49 -49l-59 58c-34 -24 -76 -38 -122 -38s-88 14 -123 38l-58 -58l-49 49l58 58c-24 34 -38 76 -38 122c0 45 14 87 38 121l-58 59z
M325 103c81 0 143 64 143 151s-62 151 -143 151s-143 -64 -143 -151s62 -151 143 -151z" />
    <glyph glyph-name="cent.sc" unicode="&#xf73b;" horiz-adv-x="524" 
d="M258 -100v94c-119 8 -209 103 -209 222s90 214 209 222v94h46v-95c102 -10 167 -74 178 -149h-57c-13 49 -54 90 -121 98v-342c67 9 108 50 121 99h57c-11 -75 -76 -139 -178 -149v-94h-46zM258 44v343c-88 -9 -151 -79 -151 -171c0 -94 63 -163 151 -172z" />
    <glyph glyph-name="sterling.sc" unicode="&#xf73c;" horiz-adv-x="524" 
d="M52 274h65v40c0 113 59 201 188 201c114 0 174 -71 179 -156h-56c-4 56 -41 105 -123 105c-94 0 -131 -61 -131 -153v-37h176v-50h-176v-172h312v-52h-434v52h65v172h-65v50z" />
    <glyph glyph-name="yen.sc" unicode="&#xf73d;" horiz-adv-x="524" 
d="M80 157h154v37l-20 29h-134v48h102l-161 237h63l179 -266l180 266h61l-161 -237h100v-48h-133l-19 -29v-37h152v-48h-152v-109h-57v109h-154v48z" />
    <glyph glyph-name="Euro.sc" unicode="&#xf73e;" horiz-adv-x="524" 
d="M77 254c0 11 0 22 2 33h-55v48h65c33 105 129 180 253 180c59 0 111 -16 153 -40l-24 -45c-32 19 -79 31 -129 31c-91 0 -162 -51 -192 -126h265v-48h-277c-1 -11 -2 -22 -2 -33c0 -12 1 -23 2 -33h213v-48h-201c30 -76 101 -126 192 -126c50 0 97 12 129 31l24 -45
c-42 -24 -94 -40 -153 -40c-124 0 -220 74 -253 180h-65v48h55c-2 10 -2 22 -2 33z" />
    <glyph glyph-name="florin.sc" unicode="&#xf73f;" horiz-adv-x="524" 
d="M162 255h78l18 121c13 91 54 137 140 137c22 0 47 -4 58 -7l-6 -46c-15 2 -32 3 -51 3c-58 0 -76 -28 -86 -95l-17 -113h118l-5 -48h-120l-37 -257c-10 -71 -47 -111 -118 -111c-15 0 -30 2 -42 4l7 47c12 -2 22 -2 31 -2c43 0 60 25 67 71l36 248h-78z" />
    <glyph glyph-name="section.sc" unicode="&#xf740;" horiz-adv-x="524" 
d="M259 -76c71 0 118 28 118 73c0 39 -30 56 -81 69l-79 18c-75 19 -128 52 -128 112c0 49 29 85 77 105c-33 21 -50 51 -50 94c0 77 58 120 166 120c104 0 150 -46 159 -107h-53c-7 36 -34 60 -106 60c-74 0 -111 -25 -111 -72c0 -43 29 -63 81 -75l80 -20
c73 -17 110 -42 110 -104c0 -48 -30 -83 -76 -103c41 -18 66 -47 66 -94c0 -81 -74 -123 -172 -123c-106 0 -174 43 -182 113h55c5 -42 52 -66 126 -66zM144 203c0 -44 35 -60 92 -73l62 -15c54 13 89 41 89 78c0 34 -19 51 -73 63l-80 19c-3 0 -6 1 -9 2
c-49 -9 -81 -36 -81 -74z" />
    <glyph glyph-name="registered.sc" unicode="&#xf741;" horiz-adv-x="676" 
d="M338 515c155 0 268 -119 268 -261s-113 -261 -268 -261s-268 119 -268 261s113 261 268 261zM338 31c133 0 229 95 229 223s-96 224 -229 224s-229 -96 -229 -224s96 -223 229 -223zM278 207v-90h-48v274h129c75 0 112 -32 112 -92c0 -48 -24 -78 -72 -88l72 -94h-54
l-70 90h-69zM278 253h76c46 0 68 12 68 46s-22 47 -68 47h-76v-93z" />
    <glyph glyph-name="copyright.sc" unicode="&#xf742;" horiz-adv-x="676" 
d="M338 515c155 0 268 -119 268 -261s-113 -261 -268 -261s-268 119 -268 261s113 261 268 261zM338 31c133 0 229 95 229 223s-96 224 -229 224s-229 -96 -229 -224s96 -223 229 -223zM200 254c0 79 63 141 145 141c75 0 126 -47 134 -102h-49c-6 28 -34 55 -84 55
c-57 0 -95 -40 -95 -94s38 -94 95 -94c50 0 78 27 84 55h49c-8 -55 -59 -102 -134 -102c-82 0 -145 62 -145 141z" />
    <glyph glyph-name="ordfeminine.sc" unicode="&#xf743;" horiz-adv-x="410" 
d="M223 509l165 -349h-48l-43 91h-185l-42 -91h-48l165 349h36zM204 449l-73 -157h147z" />
    <glyph glyph-name="ordmasculine.sc" unicode="&#xf744;" horiz-adv-x="469" 
d="M235 201c75 0 132 55 132 133c0 79 -57 134 -132 134c-76 0 -133 -55 -133 -134c0 -78 57 -133 133 -133zM235 155c-104 0 -182 76 -182 179c0 104 78 180 182 180c103 0 181 -76 181 -180c0 -103 -78 -179 -181 -179z" />
    <glyph glyph-name="Omega.sc" unicode="&#xf745;" horiz-adv-x="653" 
d="M326 515c163 0 263 -109 263 -243c0 -101 -64 -179 -127 -222h116v-50h-197v40c88 58 151 133 151 224c0 119 -82 199 -206 199c-123 0 -205 -80 -205 -199c0 -91 63 -166 151 -224v-40h-197v50h116c-63 43 -127 121 -127 222c0 134 100 243 262 243z" />
    <glyph glyph-name="questiondown.sc" unicode="&#xf746;" horiz-adv-x="487" 
d="M60 135c0 89 100 135 152 156l4 55h45l4 -80c-62 -24 -147 -57 -147 -127c0 -60 41 -94 129 -94c98 0 138 42 141 107h54c-4 -93 -62 -159 -195 -159c-128 0 -187 58 -187 142zM285 467c0 -27 -18 -46 -46 -46c-27 0 -46 19 -46 46s19 46 46 46c28 0 46 -19 46 -46z" />
    <glyph glyph-name="exclamdown.sc" unicode="&#xf747;" horiz-adv-x="250" 
d="M104 345h43c4 -90 7 -183 7 -272v-73h-58v73c0 89 3 182 8 272zM171 467c0 -27 -19 -46 -46 -46s-46 19 -46 46c0 26 19 46 46 46s46 -20 46 -46z" />
    <glyph glyph-name="dagger.sc" unicode="&#xf748;" horiz-adv-x="464" 
d="M413 355v-50h-154v-405h-54v405h-154v50h154v153h54v-153h154z" />
    <glyph glyph-name="daggerdbl.sc" unicode="&#xf749;" horiz-adv-x="464" 
d="M413 94v-50h-154v-144h-54v144h-154v50h154v220h-154v50h154v144h54v-144h154v-50h-154v-220h154z" />
    <glyph glyph-name="quoteleft.sc" unicode="&#xf74a;" horiz-adv-x="214" 
d="M160 516l-39 -210h-69l60 210h48z" />
    <glyph glyph-name="quoteright.sc" unicode="&#xf74b;" horiz-adv-x="214" 
d="M54 306l40 210h69l-61 -210h-48z" />
    <glyph glyph-name="quotesinglbase.sc" unicode="&#xf74c;" horiz-adv-x="214" 
d="M54 -113l40 210h69l-61 -210h-48z" />
    <glyph glyph-name="quotedblleft.sc" unicode="&#xf74d;" horiz-adv-x="384" 
d="M160 516l-39 -210h-69l60 210h48zM329 516l-39 -210h-69l60 210h48z" />
    <glyph glyph-name="quotedblright.sc" unicode="&#xf74e;" horiz-adv-x="384" 
d="M54 306l40 210h69l-61 -210h-48zM223 306l40 210h69l-61 -210h-48z" />
    <glyph glyph-name="quotedblbase.sc" unicode="&#xf74f;" horiz-adv-x="384" 
d="M54 -113l40 210h69l-61 -210h-48zM223 -113l40 210h69l-61 -210h-48z" />
    <glyph glyph-name="perthousand.sc" unicode="&#xf750;" horiz-adv-x="1107" 
d="M242 0h-56l342 508h57zM187 512c79 0 137 -58 137 -132c0 -75 -58 -132 -137 -132c-78 0 -136 57 -136 132c0 74 58 132 136 132zM187 293c52 0 88 37 88 87s-36 87 -88 87s-88 -37 -88 -87s36 -87 88 -87zM580 260c78 0 136 -57 136 -132c0 -74 -58 -132 -136 -132
c-79 0 -137 58 -137 132c0 75 58 132 137 132zM580 41c52 0 88 37 88 87s-36 87 -88 87c-53 0 -88 -37 -88 -87s35 -87 88 -87zM920 260c79 0 136 -57 136 -132c0 -74 -57 -132 -136 -132s-136 58 -136 132c0 75 57 132 136 132zM920 41c52 0 88 37 88 87s-36 87 -88 87
s-88 -37 -88 -87s36 -87 88 -87z" />
    <glyph glyph-name="bullet.sc" unicode="&#xf751;" horiz-adv-x="400" 
d="M105 254c0 53 41 96 95 96s95 -43 95 -96c0 -52 -41 -96 -95 -96s-95 44 -95 96z" />
    <glyph glyph-name="periodcentered.sc" unicode="&#xf752;" horiz-adv-x="236" 
d="M72 254c0 27 19 46 46 46s46 -19 46 -46c0 -26 -19 -46 -46 -46s-46 20 -46 46z" />
    <glyph glyph-name="hyphen.sc" unicode="&#xf753;" horiz-adv-x="391" 
d="M50 229v51h292v-51h-292z" />
    <glyph glyph-name="endash.sc" unicode="&#xf754;" horiz-adv-x="470" 
d="M34 229v51h402v-51h-402z" />
    <glyph glyph-name="emdash.sc" unicode="&#xf755;" horiz-adv-x="578" 
d="M21 229v51h537v-51h-537z" />
    <glyph glyph-name="plus.sc" unicode="&#xf756;" horiz-adv-x="606" 
d="M330 62h-54v166h-166v53h166v165h54v-165h166v-53h-166v-166z" />
    <glyph glyph-name="minus.sc" unicode="&#xf757;" horiz-adv-x="606" 
d="M490 281v-53h-374v53h374z" />
    <glyph glyph-name="multiply.sc" unicode="&#xf758;" horiz-adv-x="606" 
d="M136 382l39 39l128 -128l128 128l39 -39l-128 -128l128 -128l-39 -38l-128 127l-128 -127l-39 38l128 128z" />
    <glyph glyph-name="divide.sc" unicode="&#xf759;" horiz-adv-x="606" 
d="M490 281v-53h-374v53h374zM258 420c0 26 18 45 45 45s45 -19 45 -45s-18 -46 -45 -46s-45 20 -45 46zM258 89c0 26 18 45 45 45s45 -19 45 -45s-18 -46 -45 -46s-45 20 -45 46z" />
    <glyph glyph-name="equal.sc" unicode="&#xf75a;" horiz-adv-x="606" 
d="M490 373v-53h-374v53h374zM490 188v-53h-374v53h374z" />
    <glyph glyph-name="notequal.sc" unicode="&#xf75b;" horiz-adv-x="606" 
d="M479 486l-72 -113h98v-53h-132l-84 -132h216v-53h-250l-84 -132l-44 25l68 107h-94v53h128l84 132h-212v53h246l88 138z" />
    <glyph glyph-name="approxequal.sc" unicode="&#xf75c;" horiz-adv-x="606" 
d="M462 218l47 -5c-12 -68 -48 -106 -117 -106c-63 0 -126 61 -180 61c-41 0 -58 -22 -68 -58l-47 5c12 69 48 106 117 106c63 0 126 -61 180 -61c41 0 58 23 68 58zM462 399l47 -6c-12 -68 -48 -105 -117 -105c-63 0 -126 61 -180 61c-41 0 -58 -23 -68 -59l-47 6
c12 68 48 105 117 105c63 0 126 -60 180 -60c41 0 58 22 68 58z" />
    <glyph glyph-name="less.sc" unicode="&#xf75d;" horiz-adv-x="606" 
d="M106 229v50l390 194v-65l-324 -154l324 -154v-65z" />
    <glyph glyph-name="greater.sc" unicode="&#xf75e;" horiz-adv-x="606" 
d="M500 279v-50l-390 -194v65l324 154l-324 154v65z" />
    <glyph glyph-name="guilsinglleft.sc" unicode="&#xf75f;" horiz-adv-x="284" 
d="M226 432l-112 -178l112 -178h-60l-113 178l113 178h60z" />
    <glyph glyph-name="guilsinglright.sc" unicode="&#xf760;" horiz-adv-x="284" 
d="M58 76l113 178l-113 178h60l113 -178l-113 -178h-60z" />
    <glyph glyph-name="guillemotleft.sc" unicode="&#xf761;" horiz-adv-x="470" 
d="M226 432l-112 -178l112 -178h-60l-113 178l113 178h60zM411 432l-112 -178l112 -178h-60l-113 178l113 178h60z" />
    <glyph glyph-name="guillemotright.sc" unicode="&#xf762;" horiz-adv-x="470" 
d="M58 76l113 178l-113 178h60l113 -178l-113 -178h-60zM243 76l113 178l-113 178h60l113 -178l-113 -178h-60z" />
    <glyph glyph-name="a.sc" unicode="&#xf763;" horiz-adv-x="586" 
d="M314 509l244 -509h-57l-66 138h-286l-65 -138h-56l243 509h43zM292 438l-118 -248h236z" />
    <glyph glyph-name="b.sc" unicode="&#xf764;" horiz-adv-x="568" 
d="M93 508h224c106 0 177 -46 177 -133c0 -64 -36 -103 -86 -114c65 -7 105 -58 105 -121c0 -93 -72 -140 -190 -140h-230v508zM149 230v-178h174c87 0 132 26 132 90c0 65 -43 88 -136 88h-170zM149 456v-174h159c77 0 129 20 129 90c0 61 -44 84 -124 84h-164z" />
    <glyph glyph-name="c.sc" unicode="&#xf765;" horiz-adv-x="636" 
d="M60 254c0 148 119 261 270 261c132 0 229 -85 249 -177h-58c-15 63 -87 123 -191 123c-120 0 -210 -88 -210 -207s91 -207 210 -207c104 0 178 62 192 124h58c-20 -92 -117 -178 -250 -178c-151 0 -270 113 -270 261z" />
    <glyph glyph-name="d.sc" unicode="&#xf766;" horiz-adv-x="616" 
d="M497 256c0 117 -80 199 -227 199h-120v-402h120c147 0 227 82 227 203zM556 256c0 -150 -112 -256 -285 -256h-178v508h178c173 0 285 -106 285 -252z" />
    <glyph glyph-name="e.sc" unicode="&#xf767;" horiz-adv-x="534" 
d="M473 0h-380v508h377v-53h-320v-173h302v-53h-302v-176h323v-53z" />
    <glyph glyph-name="f.sc" unicode="&#xf768;" horiz-adv-x="522" 
d="M150 0h-57v508h371v-53h-314v-188h293v-52h-293v-215z" />
    <glyph glyph-name="g.sc" unicode="&#xf769;" horiz-adv-x="650" 
d="M577 353h-59c-20 60 -89 109 -184 109c-124 0 -214 -89 -214 -208s91 -208 213 -208c116 0 195 73 199 174h-197v53h254c2 -16 2 -22 2 -32c0 -145 -107 -248 -258 -248c-154 0 -273 113 -273 261s119 261 274 261c125 0 219 -75 243 -162z" />
    <glyph glyph-name="h.sc" unicode="&#xf76a;" horiz-adv-x="632" 
d="M150 282h332v226h56v-508h-56v229h-332v-229h-57v508h57v-226z" />
    <glyph glyph-name="i.sc" unicode="&#xf76b;" horiz-adv-x="251" 
d="M154 508v-508h-57v508h57z" />
    <glyph glyph-name="j.sc" unicode="&#xf76c;" horiz-adv-x="499" 
d="M410 508v-330c0 -124 -80 -185 -187 -185c-108 0 -171 57 -182 140h55c9 -50 48 -86 125 -86c80 0 132 43 132 139v322h57z" />
    <glyph glyph-name="k.sc" unicode="&#xf76d;" horiz-adv-x="564" 
d="M531 508l-237 -228l250 -280h-72l-217 242l-105 -101v-141h-57v508h57v-293l303 293h78z" />
    <glyph glyph-name="l.sc" unicode="&#xf76e;" horiz-adv-x="488" 
d="M458 0h-365v508h57v-455h308v-53z" />
    <glyph glyph-name="m.sc" unicode="&#xf76f;" horiz-adv-x="773" 
d="M93 508h53l240 -340l241 340h52v-508h-56v416l-217 -307h-39l-218 308v-417h-56v508z" />
    <glyph glyph-name="n.sc" unicode="&#xf770;" horiz-adv-x="645" 
d="M502 0l-353 420v-420h-56v508h50l353 -421v421h56v-508h-50z" />
    <glyph glyph-name="o.sc" unicode="&#xf771;" horiz-adv-x="658" 
d="M329 515c150 0 269 -113 269 -261c0 -147 -119 -261 -269 -261s-269 114 -269 261c0 148 119 261 269 261zM329 46c119 0 209 90 209 208c0 119 -90 208 -209 208s-209 -89 -209 -208c0 -118 90 -208 209 -208z" />
    <glyph glyph-name="p.sc" unicode="&#xf772;" horiz-adv-x="550" 
d="M150 242h153c94 0 140 35 140 106c0 72 -46 107 -140 107h-153v-213zM150 189v-189h-57v508h219c122 0 188 -61 188 -160c0 -98 -66 -159 -188 -159h-162z" />
    <glyph glyph-name="q.sc" unicode="&#xf773;" horiz-adv-x="659" 
d="M329 0c-150 0 -269 114 -269 258s119 257 269 257c151 0 269 -113 269 -257c0 -88 -51 -165 -122 -208h127v-50h-274zM329 53c119 0 210 90 210 205c0 114 -91 204 -210 204s-209 -89 -209 -204s90 -205 209 -205z" />
    <glyph glyph-name="r.sc" unicode="&#xf774;" horiz-adv-x="562" 
d="M150 190v-190h-57v508h222c124 0 192 -60 192 -159c0 -89 -55 -146 -155 -157l160 -192h-67l-157 190h-138zM150 242h156c96 0 144 35 144 107s-48 106 -144 106h-156v-213z" />
    <glyph glyph-name="s.sc" unicode="&#xf775;" horiz-adv-x="510" 
d="M262 45c81 0 139 36 139 91c0 46 -31 76 -100 87l-77 13c-102 16 -161 59 -161 139c0 86 78 140 188 140c107 0 178 -55 187 -127h-56c-8 44 -56 75 -131 75c-78 0 -131 -30 -131 -87c0 -52 40 -77 118 -89l77 -13c100 -16 143 -62 143 -135c0 -92 -90 -146 -197 -146
c-112 0 -199 50 -210 137h57c9 -55 73 -85 154 -85z" />
    <glyph glyph-name="t.sc" unicode="&#xf776;" horiz-adv-x="489" 
d="M462 508v-53h-189v-455h-57v455h-189v53h435z" />
    <glyph glyph-name="u.sc" unicode="&#xf777;" horiz-adv-x="626" 
d="M314 47c102 0 167 54 167 168v293h56v-300c0 -142 -94 -215 -224 -215s-224 73 -224 215v300h57v-293c0 -114 65 -168 168 -168z" />
    <glyph glyph-name="v.sc" unicode="&#xf778;" horiz-adv-x="575" 
d="M266 -1l-240 509h60l203 -434l202 434h58l-240 -509h-43z" />
    <glyph glyph-name="w.sc" unicode="&#xf779;" horiz-adv-x="893" 
d="M470 508l164 -426l162 426h57l-197 -509h-45l-165 418l-164 -418h-45l-197 509h60l161 -428l165 428h44z" />
    <glyph glyph-name="x.sc" unicode="&#xf77a;" horiz-adv-x="572" 
d="M529 508l-209 -251l214 -257h-70l-179 216l-179 -216h-68l214 256l-209 252h70l173 -210l175 210h68z" />
    <glyph glyph-name="y.sc" unicode="&#xf77b;" horiz-adv-x="525" 
d="M79 508l184 -257l185 257h61l-218 -304v-204h-57v204l-218 304h63z" />
    <glyph glyph-name="z.sc" unicode="&#xf77c;" horiz-adv-x="555" 
d="M491 53v-53h-427v43l342 412h-338v53h418v-43l-343 -412h348z" />
    <glyph glyph-name="dotlessj.sc" unicode="&#xf77d;" horiz-adv-x="499" 
d="M410 508v-330c0 -124 -80 -185 -187 -185c-108 0 -171 57 -182 140h55c9 -50 48 -86 125 -86c80 0 132 43 132 139v322h57z" />
    <glyph glyph-name="grave.sc" unicode="&#xf77e;" 
d="M112 679l40 48l140 -125l-25 -30z" />
    <glyph glyph-name="acute.sc" unicode="&#xf77f;" 
d="M348 727l40 -48l-155 -107l-25 30z" />
    <glyph glyph-name="dieresis.sc" unicode="&#xf780;" 
d="M152 573c-23 0 -39 17 -39 39c0 23 16 39 39 39c24 0 40 -16 40 -39c0 -22 -16 -39 -40 -39zM348 573c-24 0 -40 17 -40 39c0 23 16 39 40 39c23 0 39 -16 39 -39c0 -22 -16 -39 -39 -39z" />
    <glyph glyph-name="circumflex.sc" unicode="&#xf781;" 
d="M281 706l124 -130h-59l-96 85l-96 -85h-59l124 130h62z" />
    <glyph glyph-name="tilde.sc" unicode="&#xf782;" 
d="M316 621c26 0 39 18 48 44l40 -7c-12 -50 -42 -85 -87 -85c-50 0 -93 46 -133 46c-26 0 -39 -18 -48 -44l-40 7c12 50 42 85 87 85c50 0 93 -46 133 -46z" />
    <glyph glyph-name="macron.sc" unicode="&#xf783;" 
d="M398 624v-48h-296v48h296z" />
    <glyph glyph-name="breve.sc" unicode="&#xf784;" 
d="M250 618c59 0 97 37 102 78h49c-6 -57 -54 -124 -151 -124s-145 67 -151 124h49c5 -41 43 -78 102 -78z" />
    <glyph glyph-name="dotaccent.sc" unicode="&#xf785;" 
d="M250 573c-24 0 -40 17 -40 40c0 22 16 39 40 39s40 -17 40 -39c0 -23 -16 -40 -40 -40z" />
    <glyph glyph-name="ring.sc" unicode="&#xf786;" 
d="M250 749c53 0 92 -38 92 -88c0 -51 -39 -89 -92 -89s-92 38 -92 89c0 50 39 88 92 88zM250 606c33 0 55 23 55 55s-22 55 -55 55s-55 -23 -55 -55s22 -55 55 -55z" />
    <glyph glyph-name="cedilla.sc" unicode="&#xf787;" 
d="M249 -162h-65l62 164h53z" />
    <glyph glyph-name="hungarumlaut.sc" unicode="&#xf788;" 
d="M197 737l51 -32l-99 -132l-33 19zM375 737l51 -32l-98 -132l-33 19z" />
    <glyph glyph-name="ogonek.sc" unicode="&#xf789;" 
d="M326 -123l19 -34c-20 -18 -48 -32 -87 -32c-55 0 -96 24 -96 74c0 63 60 109 140 142l18 -25c-61 -26 -102 -63 -102 -103c0 -26 19 -39 49 -39c22 0 41 6 59 17z" />
    <glyph glyph-name="caron.sc" unicode="&#xf78a;" 
d="M405 706l-124 -130h-62l-124 130h59l96 -86l96 86h59z" />
    <glyph glyph-name="commaaccent.sc" unicode="&#xf78b;" 
d="M292 -44l-38 -164h-47l24 164h61z" />
    <glyph glyph-name="bar.sc" unicode="&#xf78c;" 
d="M396 624v-48h-292v48h292z" />
    <glyph glyph-name="germandbls.sc" unicode="&#xf78d;" horiz-adv-x="1010" 
d="M262 45c81 0 139 36 139 91c0 46 -31 76 -100 87l-77 13c-102 16 -161 59 -161 139c0 86 78 140 188 140c107 0 178 -55 187 -127h-56c-8 44 -56 75 -131 75c-78 0 -131 -30 -131 -87c0 -52 40 -77 118 -89l77 -13c100 -16 143 -62 143 -135c0 -92 -90 -146 -197 -146
c-112 0 -199 50 -210 137h57c9 -55 73 -85 154 -85zM762 45c81 0 139 36 139 91c0 46 -31 76 -100 87l-77 13c-102 16 -161 59 -161 139c0 86 78 140 188 140c107 0 178 -55 187 -127h-56c-8 44 -56 75 -131 75c-78 0 -131 -30 -131 -87c0 -52 40 -77 118 -89l77 -13
c100 -16 143 -62 143 -135c0 -92 -90 -146 -197 -146c-112 0 -199 50 -210 137h57c9 -55 73 -85 154 -85z" />
    <glyph glyph-name="aacute.sc" unicode="&#xf78e;" horiz-adv-x="586" 
d="M314 509l244 -509h-57l-66 138h-286l-65 -138h-56l243 509h43zM292 438l-118 -248h236zM408 727l40 -48l-155 -107l-25 30z" />
    <glyph glyph-name="agrave.sc" unicode="&#xf78f;" horiz-adv-x="586" 
d="M314 509l244 -509h-57l-66 138h-286l-65 -138h-56l243 509h43zM292 438l-118 -248h236zM138 679l40 48l140 -125l-25 -30z" />
    <glyph glyph-name="acircumflex.sc" unicode="&#xf790;" horiz-adv-x="586" 
d="M314 509l244 -509h-57l-66 138h-286l-65 -138h-56l243 509h43zM292 438l-118 -248h236zM324 706l124 -130h-59l-96 85l-96 -85h-59l124 130h62z" />
    <glyph glyph-name="adieresis.sc" unicode="&#xf791;" horiz-adv-x="586" 
d="M314 509l244 -509h-57l-66 138h-286l-65 -138h-56l243 509h43zM292 438l-118 -248h236zM391 573c-24 0 -40 17 -40 39c0 23 16 39 40 39c23 0 39 -16 39 -39c0 -22 -16 -39 -39 -39zM195 573c-23 0 -39 17 -39 39c0 23 16 39 39 39c24 0 40 -16 40 -39
c0 -22 -16 -39 -40 -39z" />
    <glyph glyph-name="atilde.sc" unicode="&#xf792;" horiz-adv-x="586" 
d="M314 509l244 -509h-57l-66 138h-286l-65 -138h-56l243 509h43zM292 438l-118 -248h236zM359 621c26 0 39 18 48 44l40 -7c-12 -50 -42 -85 -87 -85c-50 0 -93 46 -133 46c-26 0 -39 -18 -48 -44l-40 7c12 50 42 85 87 85c50 0 93 -46 133 -46z" />
    <glyph glyph-name="aring.sc" unicode="&#xf793;" horiz-adv-x="586" 
d="M314 509l244 -509h-57l-66 138h-286l-65 -138h-56l243 509h43zM292 438l-118 -248h236zM293 749c53 0 92 -38 92 -88c0 -51 -39 -89 -92 -89s-92 38 -92 89c0 50 39 88 92 88zM293 606c33 0 55 23 55 55s-22 55 -55 55s-55 -23 -55 -55s22 -55 55 -55z" />
    <glyph glyph-name="amacron.sc" unicode="&#xf794;" horiz-adv-x="586" 
d="M314 509l244 -509h-57l-66 138h-286l-65 -138h-56l243 509h43zM292 438l-118 -248h236zM441 624v-48h-296v48h296z" />
    <glyph glyph-name="abreve.sc" unicode="&#xf795;" horiz-adv-x="586" 
d="M314 509l244 -509h-57l-66 138h-286l-65 -138h-56l243 509h43zM292 438l-118 -248h236zM293 618c59 0 97 37 102 78h49c-6 -57 -54 -124 -151 -124s-145 67 -151 124h49c5 -41 43 -78 102 -78z" />
    <glyph glyph-name="aogonek.sc" unicode="&#xf796;" horiz-adv-x="586" 
d="M564 -125l19 -34c-20 -18 -48 -32 -87 -32c-55 0 -96 24 -96 74c0 52 40 92 98 122l-63 133h-286l-65 -138h-56l243 509h43l244 -509c-61 -26 -102 -63 -102 -103c0 -26 19 -39 49 -39c22 0 41 6 59 17zM292 438l-118 -248h236z" />
    <glyph glyph-name="aringacute.sc" unicode="&#xf797;" horiz-adv-x="586" 
d="M314 509l244 -509h-57l-66 138h-286l-65 -138h-56l243 509h43zM292 438l-118 -248h236zM293 749c53 0 92 -38 92 -88c0 -51 -39 -89 -92 -89s-92 38 -92 89c0 50 39 88 92 88zM293 606c33 0 55 23 55 55s-22 55 -55 55s-55 -23 -55 -55s22 -55 55 -55zM408 945l40 -48
l-155 -107l-25 30z" />
    <glyph glyph-name="ae.sc" unicode="&#xf798;" horiz-adv-x="877" 
d="M816 0h-380v122h-260l-95 -122h-69l402 508h399v-53h-320v-173h301v-53h-301v-176h323v-53zM217 174h219v278z" />
    <glyph glyph-name="aeacute.sc" unicode="&#xf799;" horiz-adv-x="877" 
d="M816 0h-380v122h-260l-95 -122h-69l402 508h399v-53h-320v-173h301v-53h-301v-176h323v-53zM217 174h219v278zM574 728l40 -48l-155 -107l-25 30z" />
    <glyph glyph-name="ccedilla.sc" unicode="&#xf79a;" horiz-adv-x="636" 
d="M311 -164h-65l60 158c-140 11 -246 120 -246 260c0 148 119 261 270 261c132 0 229 -85 249 -177h-58c-15 63 -87 123 -191 123c-120 0 -210 -88 -210 -207s91 -207 210 -207c104 0 178 62 192 124h58c-19 -85 -103 -165 -221 -176z" />
    <glyph glyph-name="cacute.sc" unicode="&#xf79b;" horiz-adv-x="636" 
d="M60 254c0 148 119 261 270 261c132 0 229 -85 249 -177h-58c-15 63 -87 123 -191 123c-120 0 -210 -88 -210 -207s91 -207 210 -207c104 0 178 62 192 124h58c-20 -92 -117 -178 -250 -178c-151 0 -270 113 -270 261zM445 727l40 -48l-155 -107l-25 30z" />
    <glyph glyph-name="ccircumflex.sc" unicode="&#xf79c;" horiz-adv-x="636" 
d="M60 254c0 148 119 261 270 261c132 0 229 -85 249 -177h-58c-15 63 -87 123 -191 123c-120 0 -210 -88 -210 -207s91 -207 210 -207c104 0 178 62 192 124h58c-20 -92 -117 -178 -250 -178c-151 0 -270 113 -270 261zM361 706l124 -130h-59l-96 85l-96 -85h-59l124 130
h62z" />
    <glyph glyph-name="cdotaccent.sc" unicode="&#xf79d;" horiz-adv-x="636" 
d="M60 254c0 148 119 261 270 261c132 0 229 -85 249 -177h-58c-15 63 -87 123 -191 123c-120 0 -210 -88 -210 -207s91 -207 210 -207c104 0 178 62 192 124h58c-20 -92 -117 -178 -250 -178c-151 0 -270 113 -270 261zM330 573c-24 0 -40 17 -40 40c0 22 16 39 40 39
s40 -17 40 -39c0 -23 -16 -40 -40 -40z" />
    <glyph glyph-name="ccaron.sc" unicode="&#xf79e;" horiz-adv-x="636" 
d="M60 254c0 148 119 261 270 261c132 0 229 -85 249 -177h-58c-15 63 -87 123 -191 123c-120 0 -210 -88 -210 -207s91 -207 210 -207c104 0 178 62 192 124h58c-20 -92 -117 -178 -250 -178c-151 0 -270 113 -270 261zM485 706l-124 -130h-62l-124 130h59l96 -86l96 86h59
z" />
    <glyph glyph-name="eth.sc" unicode="&#xf79f;" horiz-adv-x="620" 
d="M558 256c0 -150 -112 -256 -285 -256h-178v230h-69v48h69v230h178c173 0 285 -106 285 -252zM318 278v-48h-166v-177h120c147 0 227 82 227 203c0 117 -80 199 -227 199h-120v-177h166z" />
    <glyph glyph-name="dcaron.sc" unicode="&#xf7a0;" horiz-adv-x="616" 
d="M497 256c0 117 -80 199 -227 199h-120v-402h120c147 0 227 82 227 203zM556 256c0 -150 -112 -256 -285 -256h-178v508h178c173 0 285 -106 285 -252zM479 706l-124 -130h-62l-124 130h59l96 -86l96 86h59z" />
    <glyph glyph-name="dcroat.sc" unicode="&#xf7a1;" horiz-adv-x="620" 
d="M558 256c0 -150 -112 -256 -285 -256h-178v230h-69v48h69v230h178c173 0 285 -106 285 -252zM318 278v-48h-166v-177h120c147 0 227 82 227 203c0 117 -80 199 -227 199h-120v-177h166z" />
    <glyph glyph-name="eacute.sc" unicode="&#xf7a2;" horiz-adv-x="534" 
d="M473 0h-380v508h377v-53h-320v-173h302v-53h-302v-176h323v-53zM403 727l40 -48l-155 -107l-25 30z" />
    <glyph glyph-name="egrave.sc" unicode="&#xf7a3;" horiz-adv-x="534" 
d="M473 0h-380v508h377v-53h-320v-173h302v-53h-302v-176h323v-53zM133 679l40 48l140 -125l-25 -30z" />
    <glyph glyph-name="ecircumflex.sc" unicode="&#xf7a4;" horiz-adv-x="534" 
d="M473 0h-380v508h377v-53h-320v-173h302v-53h-302v-176h323v-53zM319 706l124 -130h-59l-96 85l-96 -85h-59l124 130h62z" />
    <glyph glyph-name="edieresis.sc" unicode="&#xf7a5;" horiz-adv-x="534" 
d="M473 0h-380v508h377v-53h-320v-173h302v-53h-302v-176h323v-53zM190 573c-23 0 -39 17 -39 39c0 23 16 39 39 39c24 0 40 -16 40 -39c0 -22 -16 -39 -40 -39zM386 573c-24 0 -40 17 -40 39c0 23 16 39 40 39c23 0 39 -16 39 -39c0 -22 -16 -39 -39 -39z" />
    <glyph glyph-name="emacron.sc" unicode="&#xf7a6;" horiz-adv-x="534" 
d="M473 0h-380v508h377v-53h-320v-173h302v-53h-302v-176h323v-53zM436 624v-48h-296v48h296z" />
    <glyph glyph-name="ebreve.sc" unicode="&#xf7a7;" horiz-adv-x="534" 
d="M473 0h-380v508h377v-53h-320v-173h302v-53h-302v-176h323v-53zM288 618c59 0 97 37 102 78h49c-6 -57 -54 -124 -151 -124s-145 67 -151 124h49c5 -41 43 -78 102 -78z" />
    <glyph glyph-name="edotaccent.sc" unicode="&#xf7a8;" horiz-adv-x="534" 
d="M473 0h-380v508h377v-53h-320v-173h302v-53h-302v-176h323v-53zM288 573c-24 0 -40 17 -40 40c0 22 16 39 40 39s40 -17 40 -39c0 -23 -16 -40 -40 -40z" />
    <glyph glyph-name="eogonek.sc" unicode="&#xf7a9;" horiz-adv-x="534" 
d="M436 -125l19 -34c-20 -18 -48 -32 -87 -32c-55 0 -96 24 -96 74c0 49 35 87 88 117h-267v508h377v-53h-320v-173h302v-53h-302v-176h323v-53h-43c-61 -26 -102 -63 -102 -103c0 -26 19 -39 49 -39c22 0 41 6 59 17z" />
    <glyph glyph-name="ecaron.sc" unicode="&#xf7aa;" horiz-adv-x="534" 
d="M473 0h-380v508h377v-53h-320v-173h302v-53h-302v-176h323v-53zM443 706l-124 -130h-62l-124 130h59l96 -86l96 86h59z" />
    <glyph glyph-name="iacute.sc" unicode="&#xf7b1;" horiz-adv-x="251" 
d="M154 508v-508h-57v508h57zM241 727l40 -48l-155 -107l-25 30z" />
    <glyph glyph-name="igrave.sc" unicode="&#xf7b2;" horiz-adv-x="251" 
d="M154 508v-508h-57v508h57zM-29 679l40 48l140 -125l-25 -30z" />
    <glyph glyph-name="icircumflex.sc" unicode="&#xf7b3;" horiz-adv-x="251" 
d="M154 508v-508h-57v508h57zM157 706l124 -130h-59l-96 85l-96 -85h-59l124 130h62z" />
    <glyph glyph-name="idieresis.sc" unicode="&#xf7b4;" horiz-adv-x="251" 
d="M154 508v-508h-57v508h57zM28 573c-23 0 -39 17 -39 39c0 23 16 39 39 39c24 0 40 -16 40 -39c0 -22 -16 -39 -40 -39zM224 573c-24 0 -40 17 -40 39c0 23 16 39 40 39c23 0 39 -16 39 -39c0 -22 -16 -39 -39 -39z" />
    <glyph glyph-name="itilde.sc" unicode="&#xf7b5;" horiz-adv-x="251" 
d="M154 508v-508h-57v508h57zM192 621c26 0 39 18 48 44l40 -7c-12 -50 -42 -85 -87 -85c-50 0 -93 46 -133 46c-26 0 -39 -18 -48 -44l-40 7c12 50 42 85 87 85c50 0 93 -46 133 -46z" />
    <glyph glyph-name="imacron.sc" unicode="&#xf7b6;" horiz-adv-x="251" 
d="M154 508v-508h-57v508h57zM274 624v-48h-296v48h296z" />
    <glyph glyph-name="ibreve.sc" unicode="&#xf7b7;" horiz-adv-x="251" 
d="M154 508v-508h-57v508h57zM126 618c59 0 97 37 102 78h49c-6 -57 -54 -124 -151 -124s-145 67 -151 124h49c5 -41 43 -78 102 -78z" />
    <glyph glyph-name="iogonek.sc" unicode="&#xf7b8;" horiz-adv-x="251" 
d="M160 -125l19 -34c-20 -18 -48 -32 -87 -32c-55 0 -96 24 -96 74c0 53 41 93 101 124v501h57v-508c-61 -26 -102 -63 -102 -103c0 -26 19 -39 49 -39c22 0 41 6 59 17z" />
    <glyph glyph-name="ij.sc" unicode="&#xf7ba;" horiz-adv-x="750" 
d="M154 508v-508h-57v508h57zM661 508v-330c0 -124 -80 -185 -187 -185c-108 0 -171 57 -182 140h55c9 -50 48 -86 125 -86c80 0 132 43 132 139v322h57z" />
    <glyph glyph-name="kcommaaccent.sc" unicode="&#xf7bc;" horiz-adv-x="564" 
d="M531 508l-237 -228l250 -280h-72l-217 242l-105 -101v-141h-57v508h57v-293l303 293h78zM350 -44l-38 -164h-47l24 164h61z" />
    <glyph glyph-name="kgreenlandic.sc" unicode="&#xf7bd;" horiz-adv-x="564" 
d="M531 508l-237 -228l250 -280h-72l-217 242l-105 -101v-141h-57v508h57v-293l303 293h78z" />
    <glyph glyph-name="lacute.sc" unicode="&#xf7be;" horiz-adv-x="488" 
d="M458 0h-365v508h57v-455h308v-53zM236 727l40 -48l-155 -107l-25 30z" />
    <glyph glyph-name="lcommaaccent.sc" unicode="&#xf7bf;" horiz-adv-x="488" 
d="M458 0h-365v508h57v-455h308v-53zM321 -44l-38 -164h-47l24 164h61z" />
    <glyph glyph-name="lcaron.sc" unicode="&#xf7c0;" horiz-adv-x="488" 
d="M458 0h-365v508h57v-455h308v-53zM246 306l40 210h69l-61 -210h-48z" />
    <glyph glyph-name="ldot.sc" unicode="&#xf7c1;" horiz-adv-x="488" 
d="M458 0h-365v508h57v-455h308v-53zM271 254c0 27 19 46 46 46s46 -19 46 -46c0 -26 -19 -46 -46 -46s-46 20 -46 46z" />
    <glyph glyph-name="lslash.sc" unicode="&#xf7c2;" horiz-adv-x="488" 
d="M301 369l23 -40l-174 -100v-176h308v-53h-365v196l-57 -33l-23 40l80 46v259h57v-226z" />
    <glyph glyph-name="nacute.sc" unicode="&#xf7c4;" horiz-adv-x="645" 
d="M502 0l-353 420v-420h-56v508h50l353 -421v421h56v-508h-50zM438 727l40 -48l-155 -107l-25 30z" />
    <glyph glyph-name="ncommaaccent.sc" unicode="&#xf7c5;" horiz-adv-x="645" 
d="M502 0l-353 420v-420h-56v508h50l353 -421v421h56v-508h-50zM353 -44l-38 -164h-47l24 164h61z" />
    <glyph glyph-name="ncaron.sc" unicode="&#xf7c6;" horiz-adv-x="645" 
d="M502 0l-353 420v-420h-56v508h50l353 -421v421h56v-508h-50zM477 706l-124 -130h-62l-124 130h59l96 -86l96 86h59z" />
    <glyph glyph-name="napostrophe.sc" unicode="&#xf7c7;" horiz-adv-x="734" 
d="M592 0l-353 420v-420h-56v508h50l353 -421v421h56v-508h-50zM4 306l40 210h69l-61 -210h-48z" />
    <glyph glyph-name="eng.sc" unicode="&#xf7c8;" horiz-adv-x="645" 
d="M496 -66v72l-347 413v-419h-56v508h50l353 -422v422h56v-582c0 -98 -47 -148 -136 -148c-27 0 -56 3 -76 10v49c21 -6 45 -7 65 -7c65 0 91 33 91 104z" />
    <glyph glyph-name="oacute.sc" unicode="&#xf7c9;" horiz-adv-x="658" 
d="M329 515c150 0 269 -113 269 -261c0 -147 -119 -261 -269 -261s-269 114 -269 261c0 148 119 261 269 261zM329 46c119 0 209 90 209 208c0 119 -90 208 -209 208s-209 -89 -209 -208c0 -118 90 -208 209 -208zM444 727l40 -48l-155 -107l-25 30z" />
    <glyph glyph-name="ograve.sc" unicode="&#xf7ca;" horiz-adv-x="658" 
d="M329 515c150 0 269 -113 269 -261c0 -147 -119 -261 -269 -261s-269 114 -269 261c0 148 119 261 269 261zM329 46c119 0 209 90 209 208c0 119 -90 208 -209 208s-209 -89 -209 -208c0 -118 90 -208 209 -208zM174 679l40 48l140 -125l-25 -30z" />
    <glyph glyph-name="ocircumflex.sc" unicode="&#xf7cb;" horiz-adv-x="658" 
d="M329 515c150 0 269 -113 269 -261c0 -147 -119 -261 -269 -261s-269 114 -269 261c0 148 119 261 269 261zM329 46c119 0 209 90 209 208c0 119 -90 208 -209 208s-209 -89 -209 -208c0 -118 90 -208 209 -208zM360 706l124 -130h-59l-96 85l-96 -85h-59l124 130h62z" />
    <glyph glyph-name="odieresis.sc" unicode="&#xf7cc;" horiz-adv-x="658" 
d="M329 515c150 0 269 -113 269 -261c0 -147 -119 -261 -269 -261s-269 114 -269 261c0 148 119 261 269 261zM329 46c119 0 209 90 209 208c0 119 -90 208 -209 208s-209 -89 -209 -208c0 -118 90 -208 209 -208zM231 573c-23 0 -39 17 -39 39c0 23 16 39 39 39
c24 0 40 -16 40 -39c0 -22 -16 -39 -40 -39zM427 573c-24 0 -40 17 -40 39c0 23 16 39 40 39c23 0 39 -16 39 -39c0 -22 -16 -39 -39 -39z" />
    <glyph glyph-name="otilde.sc" unicode="&#xf7cd;" horiz-adv-x="658" 
d="M329 515c150 0 269 -113 269 -261c0 -147 -119 -261 -269 -261s-269 114 -269 261c0 148 119 261 269 261zM329 46c119 0 209 90 209 208c0 119 -90 208 -209 208s-209 -89 -209 -208c0 -118 90 -208 209 -208zM395 621c26 0 39 18 48 44l40 -7c-12 -50 -42 -85 -87 -85
c-50 0 -93 46 -133 46c-26 0 -39 -18 -48 -44l-40 7c12 50 42 85 87 85c50 0 93 -46 133 -46z" />
    <glyph glyph-name="omacron.sc" unicode="&#xf7ce;" horiz-adv-x="658" 
d="M329 515c150 0 269 -113 269 -261c0 -147 -119 -261 -269 -261s-269 114 -269 261c0 148 119 261 269 261zM329 46c119 0 209 90 209 208c0 119 -90 208 -209 208s-209 -89 -209 -208c0 -118 90 -208 209 -208zM477 624v-48h-296v48h296z" />
    <glyph glyph-name="obreve.sc" unicode="&#xf7cf;" horiz-adv-x="658" 
d="M329 515c150 0 269 -113 269 -261c0 -147 -119 -261 -269 -261s-269 114 -269 261c0 148 119 261 269 261zM329 46c119 0 209 90 209 208c0 119 -90 208 -209 208s-209 -89 -209 -208c0 -118 90 -208 209 -208zM329 618c59 0 97 37 102 78h49c-6 -57 -54 -124 -151 -124
s-145 67 -151 124h49c5 -41 43 -78 102 -78z" />
    <glyph glyph-name="ohungarumlaut.sc" unicode="&#xf7d0;" horiz-adv-x="658" 
d="M329 515c150 0 269 -113 269 -261c0 -147 -119 -261 -269 -261s-269 114 -269 261c0 148 119 261 269 261zM329 46c119 0 209 90 209 208c0 119 -90 208 -209 208s-209 -89 -209 -208c0 -118 90 -208 209 -208zM292 737l51 -32l-99 -132l-33 19zM470 737l51 -32l-98 -132
l-33 19z" />
    <glyph glyph-name="oslash.sc" unicode="&#xf7d1;" horiz-adv-x="658" 
d="M329 515c63 0 121 -20 166 -54l49 50l34 -30l-49 -51c43 -46 69 -107 69 -176c0 -147 -119 -261 -269 -261c-63 0 -121 20 -166 54l-49 -50l-34 30l48 51c-43 46 -68 107 -68 176c0 148 119 261 269 261zM120 254c0 -53 18 -100 48 -136l290 302c-35 26 -80 42 -129 42
c-119 0 -209 -89 -209 -208zM329 46c119 0 209 90 209 208c0 53 -18 99 -48 135l-290 -301c35 -27 79 -42 129 -42z" />
    <glyph glyph-name="oslashacute.sc" unicode="&#xf7d2;" horiz-adv-x="658" 
d="M329 515c63 0 121 -20 166 -54l49 50l34 -30l-49 -51c43 -46 69 -107 69 -176c0 -147 -119 -261 -269 -261c-63 0 -121 20 -166 54l-49 -50l-34 30l48 51c-43 46 -68 107 -68 176c0 148 119 261 269 261zM120 254c0 -53 18 -100 48 -136l290 302c-35 26 -80 42 -129 42
c-119 0 -209 -89 -209 -208zM329 46c119 0 209 90 209 208c0 53 -18 99 -48 135l-290 -301c35 -27 79 -42 129 -42zM444 727l40 -48l-155 -107l-25 30z" />
    <glyph glyph-name="oe.sc" unicode="&#xf7d3;" horiz-adv-x="901" 
d="M840 0h-495c-172 0 -285 106 -285 256c0 146 113 252 285 252h492v-53h-321v-173h302v-53h-302v-176h324v-53zM120 256c0 -121 80 -203 227 -203h113v402h-113c-147 0 -227 -82 -227 -199z" />
    <glyph glyph-name="thorn.sc" unicode="&#xf7d4;" horiz-adv-x="549" 
d="M150 138v-138h-57v508h57v-62h158c122 0 189 -55 189 -154c0 -98 -67 -154 -189 -154h-158zM150 191h149c95 0 140 30 140 101s-45 102 -140 102h-149v-203z" />
    <glyph glyph-name="racute.sc" unicode="&#xf7d5;" horiz-adv-x="562" 
d="M150 190v-190h-57v508h222c124 0 192 -60 192 -159c0 -89 -55 -146 -155 -157l160 -192h-67l-157 190h-138zM150 242h156c96 0 144 35 144 107s-48 106 -144 106h-156v-213zM417 727l40 -48l-155 -107l-25 30z" />
    </font>
</defs>
</svg>
